# Wavefront Obj file
# 
# verts: 16 uv-s: 44
mtllib canal de limpieza.mtl

g Canal_de_limpieza

v -72.076897 0.426700 229.666901
v -54.646999 0.426700 229.666901
v -72.076897 0.426700 228.358795
v -54.646999 0.426700 228.358795
v -72.076897 -1.654900 229.666901
v -54.646999 -1.654900 229.666901
v -72.076897 -1.654900 228.358795
v -54.646999 -1.654900 228.358795
v -71.868797 0.426700 229.514801
v -54.855000 0.426700 229.514801
v -71.868797 0.426700 228.510895
v -54.855000 0.426700 228.510895
v -71.868797 -1.677700 229.514801
v -54.855000 -1.677700 229.514801
v -71.868797 -1.677700 228.510895
v -54.855000 -1.677700 228.510895
# 16 positions

vt 0.005000 0.995000
vt 0.123233 0.995000
vt 0.123233 0.005000
vt 0.005000 0.005000
vt 0.775003 0.079299
vt 0.656770 0.079299
vt 0.656770 0.005000
vt 0.775003 0.005000
vt 0.130712 0.995000
vt 0.248945 0.995000
vt 0.248945 0.005000
vt 0.130712 0.005000
vt 0.656770 0.160529
vt 0.775003 0.160529
vt 0.775003 0.086230
vt 0.656770 0.086230
vt 0.330724 0.005000
vt 0.330724 0.995000
vt 0.322085 0.983186
vt 0.322085 0.016820
vt 0.256425 0.995000
vt 0.265064 0.983186
vt 0.256425 0.005000
vt 0.265064 0.016820
vt 0.337654 0.005000
vt 0.337654 0.971366
vt 0.457182 0.971366
vt 0.457182 0.005000
vt 0.656770 0.231282
vt 0.656770 0.288303
vt 0.776298 0.288303
vt 0.776298 0.231282
vt 0.465301 0.005000
vt 0.465301 0.971366
vt 0.584828 0.971366
vt 0.584828 0.005000
vt 0.776298 0.167459
vt 0.776298 0.224480
vt 0.656770 0.224480
vt 0.656770 0.167459
vt 0.649968 0.971366
vt 0.592947 0.971366
vt 0.592947 0.005000
vt 0.649968 0.005000
# 44 texture coordinates

vn 0.000000 0.000000 1.000000
vn 0.000000 0.000000 1.000000
vn 0.000000 0.000000 1.000000
vn 0.000000 0.000000 1.000000
vn 1.000000 0.000000 0.000000
vn 1.000000 0.000000 0.000000
vn 1.000000 0.000000 0.000000
vn 1.000000 0.000000 0.000000
vn 0.000000 0.000000 -1.000000
vn 0.000000 0.000000 -1.000000
vn 0.000000 0.000000 -1.000000
vn 0.000000 0.000000 -1.000000
vn -1.000000 0.000000 0.000000
vn -1.000000 0.000000 0.000000
vn -1.000000 0.000000 0.000000
vn -1.000000 0.000000 0.000000
vn 0.000000 1.000000 0.000000
vn 0.000000 1.000000 0.000000
vn 0.000000 1.000000 0.000000
vn 0.000000 1.000000 0.000000
vn 0.000000 1.000000 0.000000
vn 0.000000 1.000000 0.000000
vn 0.000000 1.000000 0.000000
vn 0.000000 1.000000 0.000000
vn 0.000000 0.000000 -1.000000
vn 0.000000 0.000000 -1.000000
vn 0.000000 0.000000 -1.000000
vn 0.000000 0.000000 -1.000000
vn -1.000000 0.000000 0.000000
vn -1.000000 0.000000 0.000000
vn -1.000000 0.000000 0.000000
vn -1.000000 0.000000 0.000000
vn 0.000000 0.000000 1.000000
vn 0.000000 0.000000 1.000000
vn 0.000000 0.000000 1.000000
vn 0.000000 0.000000 1.000000
vn 1.000000 0.000000 0.000000
vn 1.000000 0.000000 0.000000
vn 1.000000 0.000000 0.000000
vn 1.000000 0.000000 0.000000
vn 0.000000 1.000000 0.000000
vn 0.000000 1.000000 0.000000
vn 0.000000 1.000000 0.000000
vn 0.000000 1.000000 0.000000
# 44 normals

usemtl default
s 1
f 1/1/1 5/2/2 6/3/3 2/4/4
s 2
f 2/5/5 6/6/6 8/7/7 4/8/8
s 3
f 4/9/9 8/10/10 7/11/11 3/12/12
s 4
f 3/13/13 7/14/14 5/15/15 1/16/16
s 5
f 1/17/17 2/18/18 10/19/19 9/20/20
f 2/18/18 4/21/21 12/22/22 10/19/19
f 4/21/21 3/23/23 11/24/24 12/22/22
f 3/23/23 1/17/17 9/20/20 11/24/24
s 6
f 9/25/25 10/26/26 14/27/27 13/28/28
s 7
f 10/29/29 12/30/30 16/31/31 14/32/32
s 8
f 12/33/33 11/34/34 15/35/35 16/36/36
s 9
f 11/37/37 9/38/38 13/39/39 15/40/40
s 10
f 14/41/41 16/42/42 15/43/43 13/44/44

# 13 faces
