# Wavefront Obj file
# 
# verts: 44 uv-s: 104
mtllib Bodegas.mtl

g Piso_bodegas019

v -7323.875977 629.683777 52298.128906
v -7323.875977 629.683777 50740.062500
v -8408.867188 629.683777 50740.062500
v -8408.867188 629.683777 52298.128906
v -8413.756836 264.597198 52298.128906
v -8413.756836 264.597107 50740.101563
v -8413.756836 -0.000092 50740.101563
v -8413.756836 -0.000092 52298.128906
v -7318.995117 264.597107 50740.101563
v -7318.995117 264.597198 52298.128906
v -7318.995117 -0.000092 52298.128906
v -7318.995117 -0.000092 50740.101563
v -7705.340820 264.597198 52298.128906
v -7705.340820 -0.000092 52298.128906
v -8413.756836 659.341614 52298.128906
v -8027.411133 264.597198 52298.128906
v -8027.411133 659.341614 52298.128906
v -7705.340820 659.341614 52298.128906
v -8413.756836 659.341614 50740.101563
v -7318.995117 659.341614 50740.101563
v -7318.995117 659.341614 52298.128906
v -8027.411133 -0.000092 52298.128906
v -8357.188477 -0.000092 50796.671875
v -8357.188477 264.597107 50796.671875
v -8357.188477 264.597198 52241.562500
v -8357.188477 -0.000092 52241.562500
v -7375.563965 -0.000092 52241.562500
v -7375.563965 264.597198 52241.562500
v -7375.563965 264.597107 50796.671875
v -7375.563965 -0.000092 50796.671875
v -7705.340820 -0.000092 52218.128906
v -7705.340820 264.597198 52218.128906
v -8027.411133 264.597198 52218.128906
v -8357.188477 659.341614 52241.562500
v -8027.411133 659.341614 52218.128906
v -7705.340820 659.341614 52218.128906
v -8357.188477 659.341614 50796.671875
v -7375.563965 659.341614 52241.562500
v -7375.563965 659.341614 50796.671875
v -8027.411133 -0.000092 52218.128906
v -8027.412109 264.597107 52287.687500
v -8027.412109 -0.000092 52287.687500
v -7705.340820 -0.000092 52287.687500
v -7705.340820 264.597107 52287.687500
# 44 positions

vt 0.303651 0.568312
vt 0.303651 0.990000
vt 0.010000 0.990000
vt 0.010000 0.568312
vt 0.419822 0.990000
vt 0.419822 0.568323
vt 0.491435 0.568323
vt 0.491435 0.990000
vt 0.431677 0.453553
vt 0.010000 0.453553
vt 0.010000 0.381940
vt 0.431677 0.381940
vt 0.597732 0.670720
vt 0.597732 0.775283
vt 0.526119 0.775283
vt 0.526119 0.670720
vt 0.704569 0.967015
vt 0.597732 0.967015
vt 0.597732 0.862451
vt 0.704569 0.862451
vt 0.704569 0.775283
vt 0.312985 0.990000
vt 0.312985 0.568323
vt 0.431677 0.560390
vt 0.010000 0.560390
vt 0.704569 0.670720
vt 0.526119 0.967015
vt 0.526119 0.862451
vt 0.539225 0.525698
vt 0.539225 0.229403
vt 0.646062 0.229403
vt 0.646062 0.525698
vt 0.467612 0.525698
vt 0.467612 0.229403
vt 0.010000 0.374420
vt 0.010000 0.302807
vt 0.401057 0.302807
vt 0.401057 0.374420
vt 0.923134 0.559552
vt 0.851522 0.559552
vt 0.851522 0.168495
vt 0.923134 0.168495
vt 0.981642 0.675970
vt 0.910029 0.675970
vt 0.910029 0.586716
vt 0.981642 0.586716
vt 0.910029 0.763138
vt 0.910029 0.852391
vt 0.803192 0.852391
vt 0.803192 0.763138
vt 0.803192 0.675970
vt 0.010000 0.195970
vt 0.401057 0.195970
vt 0.744685 0.559552
vt 0.744685 0.168495
vt 0.803192 0.586716
vt 0.981642 0.763138
vt 0.981642 0.852391
vt 0.411194 0.010000
vt 0.411194 0.116837
vt 0.145519 0.116837
vt 0.145519 0.010000
vt 0.145519 0.188450
vt 0.411194 0.188450
vt 0.795672 0.568323
vt 0.795672 0.990000
vt 0.780362 0.974689
vt 0.780362 0.583632
vt 0.499377 0.990000
vt 0.499377 0.568323
vt 0.514687 0.583632
vt 0.514687 0.974689
vt 0.621482 0.661940
vt 0.621482 0.590328
vt 0.643134 0.590328
vt 0.643134 0.661940
vt 0.603940 0.568323
vt 0.603940 0.589975
vt 0.737164 0.559140
vt 0.632600 0.559140
vt 0.632600 0.537488
vt 0.721854 0.543830
vt 0.526713 0.641045
vt 0.613881 0.641045
vt 0.613881 0.662697
vt 0.526713 0.662697
vt 0.545433 0.559140
vt 0.545433 0.537488
vt 0.737164 0.137463
vt 0.721854 0.152773
vt 0.440869 0.559140
vt 0.440869 0.137463
vt 0.456179 0.152773
vt 0.456179 0.543830
vt 0.691108 0.568323
vt 0.691108 0.589975
vt 0.525552 0.611791
vt 0.597164 0.611791
vt 0.597164 0.633443
vt 0.525552 0.633443
vt 0.875642 0.990000
vt 0.804030 0.990000
vt 0.804030 0.902832
vt 0.875642 0.902832
# 104 texture coordinates

vn 0.000000 1.000000 0.000000
vn -1.000000 0.000000 0.000000
vn 1.000000 0.000000 0.000000
vn 0.000000 0.000000 1.000000
vn 0.000000 0.000000 1.000000
vn 1.000000 0.000000 0.000000
vn 0.000000 0.000000 -1.000000
vn 0.070880 0.000000 -0.997485
vn -0.070880 0.000000 -0.997485
vn 0.000000 0.000000 -1.000000
vn 0.000000 -1.000000 0.000000
vn -1.000000 0.000000 0.000000
vn 0.000000 1.000000 0.000000
vn 1.000000 0.000000 0.000000
# 14 normals

usemtl default
f 1/1/1 2/2/1 3/3/1 4/4/1
f 5/5/2 6/6/2 7/7/2 8/8/2
f 9/9/3 10/10/3 11/11/3 12/12/3
f 10/13/4 13/14/4 14/15/4 11/16/4
f 15/17/5 5/18/5 16/19/5 17/20/5
f 17/20/5 16/19/5 13/14/4 18/21/4
f 15/22/2 19/23/2 6/6/2 5/5/2
f 20/24/6 21/25/6 10/10/3 9/9/3
f 21/26/5 18/21/4 13/14/4 10/13/4
f 8/27/4 22/28/4 16/19/5 5/18/5
f 9/29/7 6/30/7 19/31/7 20/32/7
f 6/30/7 9/29/7 12/33/7 7/34/7
f 23/35/3 24/36/3 25/37/3 26/38/3
f 27/39/2 28/40/2 29/41/2 30/42/2
f 31/43/8 32/44/8 28/45/8 27/46/8
f 33/47/9 25/48/9 34/49/9 35/50/9
f 32/44/10 33/47/10 35/50/10 36/51/10
f 24/36/3 37/52/6 34/53/6 25/37/3
f 28/40/2 38/54/2 39/55/2 29/41/2
f 32/44/8 36/51/8 38/56/8 28/45/8
f 33/47/9 40/57/9 26/58/9 25/48/9
f 37/59/5 24/60/5 29/61/5 39/62/5
f 30/63/4 29/61/5 24/60/5 23/64/4
f 8/65/11 7/66/11 23/67/11 26/68/11
f 12/69/11 11/70/11 27/71/11 30/72/11
f 14/73/12 13/74/12 32/75/12 31/76/12
f 11/70/11 14/77/11 31/78/11 27/71/11
f 15/79/13 17/80/1 35/81/1 34/82/13
f 13/83/11 16/84/11 33/85/11 32/86/11
f 17/80/1 18/87/1 36/88/1 35/81/1
f 19/89/13 15/79/13 34/82/13 37/90/13
f 21/91/1 20/92/1 39/93/1 38/94/1
f 18/87/1 21/91/1 38/94/1 36/88/1
f 22/95/11 8/65/11 26/68/11 40/96/11
f 16/97/14 22/98/14 40/99/14 33/100/14
f 20/92/1 19/89/13 37/90/13 39/93/1
f 7/66/11 12/69/11 30/72/11 23/67/11
f 41/101/4 42/102/4 43/103/4 44/104/4

# 38 faces
