# Wavefront Obj file
# 
# verts: 6 uv-s: 18
mtllib bagazo_bbc.mtl

g bagazo_bbc

v -0.928900 0.000000 0.765700
v -0.928900 0.000000 0.000000
v 0.928900 0.000000 0.000000
v 0.928900 0.000000 0.765700
v 0.928900 0.580200 0.041400
v -0.928900 0.580200 0.041400
# 6 positions

vt 0.005000 0.699463
vt 0.291226 0.699463
vt 0.291226 0.005000
vt 0.005000 0.005000
vt 0.645836 0.699463
vt 0.645836 0.005000
vt 0.298929 0.005000
vt 0.298929 0.699463
vt 0.005000 0.995000
vt 0.005000 0.708774
vt 0.221884 0.724250
vt 0.872392 0.699463
vt 0.872392 0.005000
vt 0.654956 0.005000
vt 0.654956 0.699463
vt 0.385408 0.995000
vt 0.385408 0.708774
vt 0.168524 0.979524
# 18 texture coordinates

vn 0.000000 -1.000000 0.000000
vn 0.000000 0.780469 0.625194
vn 1.000000 0.000000 0.000000
vn 0.000000 0.071174 -0.997464
vn -1.000000 0.000000 0.000000
# 5 normals

usemtl bagazo_bbc
f 1/1/1 2/2/1 3/3/1 4/4/1
f 1/5/2 4/6/2 5/7/2 6/8/2
f 4/9/3 3/10/3 5/11/3
f 3/12/4 2/13/4 6/14/4 5/15/4
f 2/16/5 1/17/5 6/18/5

# 5 faces
