# Wavefront Obj file
# 
# verts: 56 uv-s: 172
mtllib silla_ext.mtl

g Group003

v 0.300000 0.225000 0.947700
v -0.258900 0.183900 0.947700
v 0.258900 0.183900 0.947700
v 0.258900 -0.183900 0.947700
v 0.300000 -0.225000 0.947700
v -0.300000 -0.225000 0.947700
v -0.258900 -0.183900 0.947700
v -0.300000 0.225000 0.947700
v 0.300000 0.124900 -0.847300
v 0.300000 -0.225000 -0.847300
v 0.300000 -0.225000 -0.947700
v 0.300000 0.225000 -0.947700
v 0.300000 0.124900 0.852300
v 0.300000 -0.225000 0.852300
v -0.300000 0.124900 0.852300
v -0.258900 0.124900 0.852300
v -0.258900 -0.183900 0.852300
v -0.300000 -0.225000 0.852300
v 0.258900 -0.183900 0.852300
v 0.258900 0.124900 0.852300
v -0.300000 0.225000 -0.947700
v -0.300000 -0.225000 -0.947700
v -0.300000 -0.225000 -0.847300
v -0.300000 0.124900 -0.847300
v 0.258900 0.183900 -0.947700
v -0.258900 0.183900 -0.947700
v 0.258900 -0.183900 -0.947700
v -0.258900 -0.183900 -0.947700
v 0.258900 -0.183900 -0.847300
v 0.258900 0.183900 -0.847300
v 0.258900 0.124900 -0.847300
v 0.258900 0.183900 0.852300
v -0.258900 0.183900 0.852300
v -0.258900 0.127100 -0.847300
v -0.258900 0.183900 -0.847300
v -0.258900 -0.183900 -0.847300
v 0.222700 0.183900 -0.847300
v 0.016900 0.183900 -0.847300
v -0.016900 0.183900 -0.847300
v -0.222700 0.183900 -0.847300
v -0.258900 0.225000 -0.847300
v -0.258900 0.225000 0.852300
v -0.222700 0.183900 0.852300
v -0.016900 0.183900 0.852300
v 0.016900 0.183900 0.852300
v 0.222700 0.183900 0.852300
v 0.258900 0.225000 -0.847300
v 0.258900 0.225000 0.852300
v 0.222700 0.225000 -0.847300
v 0.016900 0.225000 -0.847300
v -0.016900 0.225000 -0.847300
v -0.222700 0.225000 -0.847300
v -0.222700 0.225000 0.852300
v 0.222700 0.225000 0.852300
v 0.016900 0.225000 0.852300
v -0.016900 0.225000 0.852300
# 56 positions

vt 0.694006 0.144284
vt 0.541019 0.133034
vt 0.682756 0.133034
vt 0.682756 0.032356
vt 0.694006 0.021105
vt 0.529768 0.021105
vt 0.541019 0.032356
vt 0.529768 0.144284
vt 0.469861 0.338486
vt 0.374083 0.338486
vt 0.374083 0.311003
vt 0.497261 0.311003
vt 0.469861 0.803717
vt 0.497261 0.829831
vt 0.374083 0.803717
vt 0.374083 0.829831
vt 0.324924 0.427767
vt 0.313673 0.427767
vt 0.313673 0.512295
vt 0.324924 0.523546
vt 0.160686 0.523546
vt 0.171936 0.512295
vt 0.171936 0.427767
vt 0.160686 0.427767
vt 0.128475 0.829831
vt 0.251653 0.829831
vt 0.251653 0.802348
vt 0.155875 0.802348
vt 0.155875 0.337117
vt 0.128475 0.311003
vt 0.251653 0.311003
vt 0.251653 0.337117
vt 0.546387 0.363859
vt 0.688125 0.363859
vt 0.699375 0.352609
vt 0.535137 0.352609
vt 0.546387 0.464537
vt 0.535137 0.475787
vt 0.688125 0.464537
vt 0.699375 0.475787
vt 0.277469 0.544532
vt 0.176791 0.544532
vt 0.176791 0.572014
vt 0.277469 0.572014
vt 0.100290 0.174107
vt 0.100290 0.174107
vt 0.100290 0.174107
vt 0.530326 0.813085
vt 0.530326 0.347854
vt 0.514176 0.347854
vt 0.514176 0.813085
vt 0.614854 0.321740
vt 0.514176 0.321740
vt 0.614854 0.347854
vt 0.357996 0.829831
vt 0.257318 0.829831
vt 0.257318 0.803717
vt 0.341846 0.803717
vt 0.357996 0.803717
vt 0.342448 0.338486
vt 0.357996 0.338486
vt 0.257318 0.338486
vt 0.257318 0.311003
vt 0.357996 0.311003
vt 0.588249 0.174107
vt 0.560767 0.174107
vt 0.560767 0.184016
vt 0.560767 0.240350
vt 0.560767 0.249602
vt 0.560767 0.305935
vt 0.560767 0.315844
vt 0.588249 0.315844
vt 0.369246 0.338486
vt 0.369246 0.803717
vt 0.069422 0.315844
vt 0.095536 0.315844
vt 0.095536 0.305935
vt 0.095536 0.249602
vt 0.095536 0.240350
vt 0.095536 0.184016
vt 0.095536 0.174107
vt 0.069422 0.174107
vt 0.032483 0.157988
vt 0.497714 0.157988
vt 0.523828 0.169238
vt 0.005000 0.169238
vt 0.032483 0.148079
vt 0.032483 0.091745
vt 0.032483 0.082493
vt 0.032483 0.026159
vt 0.032483 0.016250
vt 0.005000 0.005000
vt 0.497714 0.016250
vt 0.523828 0.005000
vt 0.497714 0.026159
vt 0.497714 0.148079
vt 0.497714 0.091745
vt 0.497714 0.082493
vt 0.176791 0.506110
vt 0.204274 0.506110
vt 0.204274 0.341872
vt 0.176791 0.341872
vt 0.502926 0.813085
vt 0.502926 0.347854
vt 0.095535 0.321740
vt 0.069422 0.321740
vt 0.069422 0.485978
vt 0.095535 0.485978
vt 0.235116 0.483609
vt 0.209002 0.483609
vt 0.209002 0.341872
vt 0.235116 0.341872
vt 0.111550 0.776371
vt 0.122792 0.776099
vt 0.111550 0.311003
vt 0.100290 0.311275
vt 0.324924 0.624204
vt 0.313674 0.624204
vt 0.313674 0.539677
vt 0.324924 0.528426
vt 0.995000 0.005000
vt 0.529768 0.005000
vt 0.529768 0.016250
vt 0.995000 0.016250
vt 0.171936 0.539677
vt 0.160686 0.528426
vt 0.171936 0.624807
vt 0.160686 0.624204
vt 0.267353 0.484951
vt 0.239871 0.484951
vt 0.239871 0.343214
vt 0.267353 0.343214
vt 0.320398 0.352466
vt 0.331648 0.352466
vt 0.331648 0.343214
vt 0.320398 0.343214
vt 0.160686 0.365887
vt 0.171936 0.365887
vt 0.171936 0.356635
vt 0.160686 0.356635
vt 0.272082 0.353123
vt 0.283332 0.353123
vt 0.283332 0.343214
vt 0.272082 0.343214
vt 0.299437 0.343214
vt 0.288187 0.343214
vt 0.288187 0.353123
vt 0.299437 0.353123
vt 0.304292 0.353123
vt 0.315543 0.353123
vt 0.315543 0.343214
vt 0.304292 0.343214
vt 0.171936 0.341872
vt 0.160686 0.341872
vt 0.160686 0.351781
vt 0.171936 0.351781
vt 0.005000 0.174107
vt 0.016250 0.174107
vt 0.016250 0.639338
vt 0.005000 0.639338
vt 0.021105 0.639338
vt 0.032356 0.639338
vt 0.032356 0.174107
vt 0.021105 0.174107
vt 0.037211 0.174107
vt 0.048461 0.174107
vt 0.048461 0.639338
vt 0.037211 0.639338
vt 0.053316 0.639338
vt 0.064566 0.639338
vt 0.064566 0.174107
vt 0.053316 0.174107
# 172 texture coordinates

vn 0.000000 0.000000 1.000000
vn 0.000000 0.000000 1.000000
vn 1.000000 0.000000 0.000000
vn 0.000000 0.000000 -1.000000
vn -1.000000 0.000000 0.000000
vn 0.000000 1.000000 0.000000
vn 0.000653 -1.000000 -0.000016
vn 0.000000 1.000000 0.000000
vn 0.000000 -1.000000 0.000000
vn 0.026754 -0.999642 -0.000647
vn 0.026754 -0.999642 -0.000647
vn 0.026754 -0.999642 -0.000647
# 12 normals

usemtl default
f 1/1/1 2/2/1 3/3/1 4/4/1
f 5/5/1 1/1/1 4/4/1 6/6/1
f 6/6/1 4/4/1 7/7/2 8/8/2
f 8/8/2 7/7/2 2/2/1 1/1/1
f 9/9/3 10/10/3 11/11/3 12/12/3
f 13/13/3 9/9/3 12/12/3 1/14/3
f 14/15/3 13/13/3 1/14/3 5/16/3
f 15/17/4 16/18/4 17/19/4 18/20/4
f 14/21/4 18/20/4 17/19/4 19/22/4
f 19/22/4 20/23/4 13/24/4 14/21/4
f 21/25/5 22/26/5 23/27/5 24/28/5
f 21/25/5 24/28/5 15/29/5 8/30/5
f 6/31/5 8/30/5 15/29/5 18/32/5
f 25/33/4 26/34/4 21/35/4 12/36/4
f 27/37/4 25/33/4 12/36/4 11/38/4
f 28/39/4 27/37/4 11/38/4 22/40/4
f 28/39/4 22/40/4 21/35/4 26/34/4
f 29/41/5 30/42/5 25/43/5 27/44/5
f 31/45/6 30/46/6 29/47/6
f 31/48/5 20/49/5 32/50/5 30/51/5
f 4/52/5 3/53/5 32/50/5 20/49/5
f 4/52/5 20/49/5 19/54/5
f 2/55/3 7/56/3 17/57/3 16/58/3
f 2/55/3 16/58/3 33/59/3
f 34/60/3 35/61/3 33/59/3 16/58/3
f 34/60/3 36/62/3 28/63/3 35/61/3
f 35/61/3 28/63/3 26/64/3
f 25/65/7 30/66/7 37/67/7 38/68/7
f 25/65/7 38/68/7 39/69/7 40/70/7
f 25/65/7 40/70/7 35/71/7 26/72/7
f 35/61/3 41/73/3 42/74/3 33/59/3
f 2/75/7 33/76/7 43/77/7 44/78/7
f 2/75/7 44/78/7 45/79/7 46/80/7
f 2/75/7 46/80/7 32/81/7 3/82/7
f 47/83/8 48/84/8 1/85/8 12/86/8
f 49/87/8 47/83/8 12/86/8 50/88/8
f 51/89/8 50/88/8 12/86/8 52/90/8
f 41/91/8 52/90/8 12/86/8 21/92/8
f 42/93/8 41/91/8 21/92/8 8/94/8
f 42/93/8 8/94/8 1/85/8 53/95/8
f 1/85/8 48/84/8 54/96/8 55/97/8
f 1/85/8 55/97/8 56/98/8 53/95/8
f 23/99/7 22/100/7 11/101/7 10/102/7
f 47/103/5 30/51/5 32/50/5 48/104/5
f 14/105/9 5/106/9 6/107/9 18/108/9
f 4/109/8 19/110/8 17/111/8 7/112/8
f 16/113/10 15/114/7 24/115/11 34/116/12
f 9/117/1 31/118/1 29/119/1 10/120/1
f 9/121/7 13/122/7 20/123/7 31/124/7
f 10/120/1 29/119/1 36/125/1 23/126/1
f 36/125/1 34/127/1 24/128/1 23/126/1
f 29/129/8 27/130/8 28/131/8 36/132/8
f 55/133/4 45/134/4 44/135/4 56/136/4
f 51/137/1 39/138/1 38/139/1 50/140/1
f 41/141/1 35/142/1 40/143/1 52/144/1
f 30/145/1 47/146/1 49/147/1 37/148/1
f 48/149/4 32/150/4 46/151/4 54/152/4
f 33/153/4 42/154/4 53/155/4 43/156/4
f 40/70/7 39/69/7 44/78/7 43/77/7
f 39/157/3 51/158/3 56/159/3 44/160/3
f 51/89/8 52/90/8 53/95/8 56/98/8
f 52/161/5 40/162/5 43/163/5 53/164/5
f 38/68/7 37/67/7 46/80/7 45/79/7
f 37/165/3 49/166/3 54/167/3 46/168/3
f 49/87/8 50/88/8 55/97/8 54/96/8
f 50/169/5 38/170/5 45/171/5 55/172/5

# 66 faces
