# 3ds Max Wavefront OBJ Exporter v0.99 - (c)2007 guruware
# File Created: 26.10.2022 00:30:13

mtllib contenedor.mtl

#
# object Object093
#

v  -0.7441 -0.3669 0.1985
v  0.7441 -0.3669 0.1985
v  0.7441 -0.3669 0.3713
v  -0.7441 -0.3669 0.3713
v  0.7441 0.3669 0.1985
v  0.7441 0.1929 0.4972
v  -0.7441 0.1929 0.4972
v  0.7441 -0.3669 -0.0000
v  -0.7441 -0.3669 -0.0000
v  0.7441 0.3669 -0.0000
v  -0.7441 0.3669 0.1985
v  -0.7441 0.3669 -0.0000
v  0.7441 -0.3669 -0.3714
v  0.7441 -0.3669 -0.1986
v  -0.7441 -0.3669 -0.1986
v  -0.7441 -0.3669 -0.3714
v  0.7441 0.1929 -0.4972
v  0.7441 0.3669 -0.1986
v  -0.7441 0.1929 -0.4972
v  -0.7441 0.3669 -0.1986
v  -0.7158 -0.3386 0.1985
v  -0.7205 -0.3417 0.3511
v  0.7205 -0.3417 0.3511
v  0.7158 -0.3386 0.1985
v  0.7134 0.1985 0.4721
v  0.7041 0.3669 0.1985
v  -0.7134 0.1985 0.4721
v  0.7158 -0.3386 -0.0000
v  -0.7158 -0.3386 -0.0000
v  0.7041 0.3669 -0.0000
v  -0.7041 0.3669 0.1985
v  -0.7041 0.3669 -0.0000
v  0.7205 -0.3417 -0.3512
v  -0.7205 -0.3417 -0.3512
v  -0.7158 -0.3386 -0.1986
v  0.7158 -0.3386 -0.1986
v  0.7134 0.1985 -0.4722
v  0.7041 0.3669 -0.1986
v  -0.7134 0.1985 -0.4722
v  -0.7041 0.3669 -0.1986
# 40 vertices

vn 0.0000 -1.0000 -0.0000
vn 1.0000 0.0000 -0.0000
vn 0.0000 -0.2193 0.9757
vn -1.0000 0.0000 0.0000
vn -0.0000 -0.2193 -0.9757
vn 0.0000 0.9998 0.0201
vn -0.9995 -0.0176 0.0258
vn -0.0000 0.2185 -0.9758
vn 0.0000 1.0000 0.0000
vn -0.9999 -0.0166 0.0000
vn 0.9995 -0.0176 0.0258
vn 0.9999 -0.0166 -0.0000
vn -0.0000 0.9998 -0.0201
vn -0.9995 -0.0176 -0.0258
vn 0.0000 0.2185 0.9758
vn 0.0000 1.0000 -0.0000
vn 0.9995 -0.0176 -0.0258
vn -0.1134 0.8517 0.5115
vn 0.0000 0.9757 0.2193
vn 0.1134 0.8517 0.5115
vn -0.1134 0.8517 -0.5115
vn -0.0000 0.9757 -0.2193
vn 0.1134 0.8517 -0.5115
# 23 vertex normals

vt 0.0100 0.4257 0.0000
vt 0.3765 0.4257 0.0000
vt 0.3765 0.4683 0.0000
vt 0.0100 0.4683 0.0000
vt 0.5591 0.8403 0.0000
vt 0.5591 0.6596 0.0000
vt 0.6326 0.7024 0.0000
vt 0.6016 0.8403 0.0000
vt 0.0100 0.6367 0.0000
vt 0.0100 0.4988 0.0000
vt 0.3765 0.4988 0.0000
vt 0.3765 0.6367 0.0000
vt 0.3765 0.3768 0.0000
vt 0.0100 0.3768 0.0000
vt 0.5102 0.6596 0.0000
vt 0.5102 0.8403 0.0000
vt 0.2810 0.1943 0.0000
vt 0.2075 0.2372 0.0000
vt 0.2075 0.0565 0.0000
vt 0.2501 0.0565 0.0000
vt 0.1586 0.2372 0.0000
vt 0.1586 0.0565 0.0000
vt 0.3765 0.2854 0.0000
vt 0.3765 0.3279 0.0000
vt 0.0100 0.3279 0.0000
vt 0.0100 0.2854 0.0000
vt 0.3877 0.7024 0.0000
vt 0.4613 0.6596 0.0000
vt 0.4613 0.8403 0.0000
vt 0.4187 0.8403 0.0000
vt 0.4070 0.2854 0.0000
vt 0.7735 0.2854 0.0000
vt 0.7735 0.4232 0.0000
vt 0.4070 0.4232 0.0000
vt 0.1097 0.0565 0.0000
vt 0.1097 0.2372 0.0000
vt 0.0362 0.1943 0.0000
vt 0.0672 0.0565 0.0000
vt 0.7607 0.1454 0.0000
vt 0.7618 0.1829 0.0000
vt 0.4070 0.1829 0.0000
vt 0.4082 0.1454 0.0000
vt 0.7229 0.8333 0.0000
vt 0.6853 0.8341 0.0000
vt 0.6555 0.7010 0.0000
vt 0.7229 0.6596 0.0000
vt 0.7542 0.6318 0.0000
vt 0.3994 0.6318 0.0000
vt 0.4011 0.4988 0.0000
vt 0.7525 0.4988 0.0000
vt 0.4082 0.0965 0.0000
vt 0.7607 0.0965 0.0000
vt 0.7718 0.6596 0.0000
vt 0.7718 0.8333 0.0000
vt 0.2425 0.8570 0.0000
vt 0.2127 0.9900 0.0000
vt 0.1752 0.9892 0.0000
vt 0.1752 0.8155 0.0000
vt 0.1263 0.9892 0.0000
vt 0.1263 0.8155 0.0000
vt 0.4070 0.0100 0.0000
vt 0.7618 0.0100 0.0000
vt 0.7607 0.0476 0.0000
vt 0.4082 0.0476 0.0000
vt 0.8880 0.7010 0.0000
vt 0.8582 0.8341 0.0000
vt 0.8207 0.8333 0.0000
vt 0.8207 0.6596 0.0000
vt 0.3631 0.6596 0.0000
vt 0.3648 0.7926 0.0000
vt 0.0100 0.7926 0.0000
vt 0.0117 0.6596 0.0000
vt 0.0774 0.9892 0.0000
vt 0.0398 0.9900 0.0000
vt 0.0100 0.8570 0.0000
vt 0.0774 0.8155 0.0000
vt 0.0100 0.1813 0.0000
vt 0.0198 0.1813 0.0000
vt 0.0176 0.2487 0.0000
vt 0.0100 0.2549 0.0000
vt 0.3689 0.2487 0.0000
vt 0.3765 0.2549 0.0000
vt 0.0100 0.1324 0.0000
vt 0.0198 0.1324 0.0000
vt 0.3765 0.1813 0.0000
vt 0.3666 0.1813 0.0000
vt 0.3666 0.1324 0.0000
vt 0.3765 0.1324 0.0000
vt 0.0100 0.0835 0.0000
vt 0.0100 0.0100 0.0000
vt 0.0176 0.0162 0.0000
vt 0.0198 0.0835 0.0000
vt 0.3765 0.0100 0.0000
vt 0.3689 0.0162 0.0000
vt 0.3765 0.0835 0.0000
vt 0.3666 0.0835 0.0000
# 96 texture coords

o Object093
g Object093
usemtl default
s 1
f 1/1/1 2/2/1 3/3/1 4/4/1 
f 2/5/2 5/6/2 6/7/2 3/8/2 
f 3/9/3 6/10/3 7/11/3 4/12/3 
f 8/13/1 2/2/1 1/1/1 9/14/1 
f 10/15/2 5/6/2 2/5/2 8/16/2 
f 7/17/4 11/18/4 1/19/4 4/20/4 
f 11/18/4 12/21/4 9/22/4 1/19/4 
f 13/23/1 14/24/1 15/25/1 16/26/1 
f 17/27/2 18/28/2 14/29/2 13/30/2 
f 19/31/5 17/32/5 13/33/5 16/34/5 
f 15/25/1 14/24/1 8/13/1 9/14/1 
f 14/29/2 18/28/2 10/15/2 8/16/2 
f 15/35/4 20/36/4 19/37/4 16/38/4 
f 9/22/4 12/21/4 20/36/4 15/35/4 
f 21/39/6 22/40/6 23/41/6 24/42/6 
f 24/43/7 23/44/7 25/45/7 26/46/7 
f 23/47/8 22/48/8 27/49/8 25/50/8 
f 28/51/9 29/52/9 21/39/9 24/42/9 
f 30/53/10 28/54/10 24/43/10 26/46/10 
f 27/55/11 22/56/11 21/57/11 31/58/11 
f 31/58/12 21/57/12 29/59/12 32/60/12 
f 33/61/13 34/62/13 35/63/13 36/64/13 
f 37/65/14 33/66/14 36/67/14 38/68/14 
f 39/69/15 34/70/15 33/71/15 37/72/15 
f 35/63/16 29/52/16 28/51/16 36/64/16 
f 36/67/10 28/54/10 30/53/10 38/68/10 
f 35/73/17 34/74/17 39/75/17 40/76/17 
f 29/59/12 35/73/12 40/76/12 32/60/12 
f 5/77/18 26/78/18 25/79/18 6/80/18 
f 6/80/19 25/79/19 27/81/19 7/82/19 
f 10/83/16 30/84/16 26/78/16 5/77/16 
f 11/85/20 7/82/20 27/81/20 31/86/20 
f 11/85/16 31/86/16 32/87/16 12/88/16 
f 18/89/21 17/90/21 37/91/21 38/92/21 
f 19/93/22 39/94/22 37/91/22 17/90/22 
f 18/89/16 38/92/16 30/84/16 10/83/16 
f 20/95/23 40/96/23 39/94/23 19/93/23 
f 12/88/16 32/87/16 40/96/16 20/95/16 
# 38 polygons

