# Wavefront Obj file
# 
# verts: 32 uv-s: 80
mtllib mesa.mtl

g mesa

v 0.881800 0.305700 -0.387300
v 0.881800 -0.403500 -0.387300
v 0.881800 -0.403500 0.387300
v 0.881800 0.305700 0.387300
v 0.588400 0.305700 0.387300
v 0.588400 0.305700 -0.387300
v -0.881800 -0.403500 -0.387300
v -0.881800 0.305700 -0.387300
v -0.881800 0.305700 0.387300
v -0.881800 -0.403500 0.387300
v -0.951000 -0.403500 -0.387300
v -0.951000 -0.403500 0.387300
v -0.951000 0.403500 -0.387300
v -0.951000 0.403500 0.387300
v -0.669600 0.403500 0.387300
v -0.669600 0.403500 -0.387300
v 0.951000 -0.403500 -0.387300
v 0.951000 0.403500 -0.387300
v 0.951000 0.403500 0.387300
v 0.951000 -0.403500 0.387300
v 0.588400 0.403500 -0.387300
v 0.588400 0.403500 0.387300
v -0.669600 0.305700 -0.387300
v -0.669600 0.305700 0.387300
v -0.669600 0.305700 0.387300
v -0.669600 0.305700 -0.387300
v 0.588400 0.305700 -0.387300
v 0.588400 0.305700 0.387300
v -0.669600 0.403500 -0.387300
v 0.588400 0.403500 -0.387300
v -0.669600 0.403500 0.387300
v 0.588400 0.403500 0.387300
# 32 positions

vt 0.005000 0.709898
vt 0.247817 0.709898
vt 0.247817 0.444689
vt 0.005000 0.444689
vt 0.005000 0.819153
vt 0.270208 0.819153
vt 0.270208 0.718699
vt 0.005000 0.718699
vt 0.255644 0.444689
vt 0.498461 0.444689
vt 0.498461 0.709898
vt 0.255644 0.709898
vt 0.544217 0.874086
vt 0.544217 0.850393
vt 0.279009 0.850393
vt 0.279009 0.874086
vt 0.506288 0.709898
vt 0.782590 0.709898
vt 0.782590 0.444689
vt 0.506288 0.444689
vt 0.270208 0.923374
vt 0.005000 0.923374
vt 0.005000 0.827028
vt 0.270208 0.827028
vt 0.637983 0.005000
vt 0.914284 0.005000
vt 0.914284 0.270208
vt 0.637983 0.270208
vt 0.850088 0.871962
vt 0.850088 0.848269
vt 0.584880 0.848269
vt 0.584880 0.871962
vt 0.946927 0.916408
vt 0.923234 0.882923
vt 0.923234 0.640107
vt 0.946927 0.640107
vt 0.576711 0.752183
vt 0.677166 0.752183
vt 0.677166 0.718699
vt 0.553019 0.718699
vt 0.790918 0.563639
vt 0.814611 0.563639
vt 0.814611 0.806456
vt 0.790918 0.839940
vt 0.822780 0.916408
vt 0.822780 0.882923
vt 0.553019 0.995000
vt 0.576711 0.995000
vt 0.793476 0.312494
vt 0.793476 0.555311
vt 0.817169 0.555311
vt 0.817169 0.279009
vt 0.544218 0.842846
vt 0.279009 0.842846
vt 0.279009 0.718699
vt 0.544218 0.718699
vt 0.279009 0.954908
vt 0.544218 0.954908
vt 0.544218 0.882255
vt 0.279009 0.882255
vt 0.720823 0.279009
vt 0.720823 0.312494
vt 0.887264 0.839940
vt 0.887264 0.806456
vt 0.005000 0.435715
vt 0.270208 0.435715
vt 0.270208 0.005000
vt 0.005000 0.005000
vt 0.628985 0.005000
vt 0.595501 0.005000
vt 0.595501 0.435715
vt 0.628985 0.435715
vt 0.553019 0.435715
vt 0.586503 0.435715
vt 0.586503 0.005000
vt 0.553019 0.005000
vt 0.544218 0.435715
vt 0.279009 0.435715
vt 0.279009 0.005000
vt 0.544218 0.005000
# 80 texture coordinates

vn -1.000000 0.000000 0.000000
vn 0.000000 -1.000000 0.000000
vn 1.000000 0.000000 0.000000
vn 0.000000 -1.000000 0.000000
vn 0.000000 -1.000000 0.000000
vn 0.000000 1.000000 0.000000
vn 0.000000 0.000000 1.000000
vn 0.000000 0.000000 1.000000
vn 0.000000 0.000000 -1.000000
vn 0.000000 0.000000 -1.000000
vn 0.000000 0.000000 -1.000000
vn 0.000000 -1.000000 0.000000
vn 0.000000 0.000000 -1.000000
vn 0.000000 0.000000 -1.000000
vn 0.000000 0.000000 1.000000
vn 0.000000 1.000000 0.000000
vn 0.000000 1.000000 0.000000
# 17 normals

usemtl default
f 1/1/1 2/2/1 3/3/1 4/4/1
f 5/5/2 6/6/2 1/7/2 4/8/2
f 7/9/3 8/10/3 9/11/3 10/12/3
f 11/13/2 7/14/2 10/15/4 12/16/5
f 13/17/1 11/18/1 12/19/1 14/20/1
f 15/21/6 16/22/6 13/23/6 14/24/6
f 17/25/3 18/26/3 19/27/3 20/28/3
f 2/29/5 17/30/5 20/31/2 3/32/2
f 19/33/7 4/34/7 3/35/8 20/36/8
f 1/37/9 6/38/9 21/39/9 18/40/9
f 12/41/8 10/42/8 9/43/7 14/44/7
f 22/45/7 5/46/7 4/34/7 19/33/7
f 18/40/9 17/47/9 2/48/9 1/37/9
f 8/49/10 7/50/11 11/51/11 13/52/10
f 19/53/6 18/54/6 21/55/6 22/56/6
f 9/57/2 8/58/2 23/59/2 24/60/2
f 8/49/10 13/52/10 16/61/10 23/62/10
f 15/63/7 14/44/7 9/43/7 24/64/7

g parte_clara

# 0 positions

# 0 texture coordinates

# 0 normals

usemtl default
f 25/65/12 26/66/12 27/67/12 28/68/12
f 26/69/13 29/70/13 30/71/14 27/72/14
f 31/73/15 25/74/15 28/75/15 32/76/15
f 32/77/16 30/78/17 29/79/16 31/80/16

# 22 faces
