# Wavefront Obj file
# 
# verts: 144 uv-s: 248
mtllib sedimentador.mtl

g sedimentador_cuerpo

v -17.624300 1.290700 257.734894
v -19.769699 1.290700 257.356689
v -19.769699 -1.581900 257.356689
v -17.624300 -1.581900 257.734894
v -21.656200 1.290700 256.267395
v -21.656200 -1.581900 256.267395
v -23.056499 1.290700 254.598694
v -23.056499 -1.581900 254.598694
v -23.801600 1.290700 252.551605
v -23.801600 -1.581900 252.551605
v -23.801600 1.290700 250.373199
v -23.801600 -1.581900 250.373199
v -23.056499 1.290700 248.326202
v -23.056499 -1.581900 248.326202
v -21.656200 1.290700 246.657394
v -21.656200 -1.581900 246.657394
v -19.769699 1.290700 245.568207
v -19.769699 -1.581900 245.568207
v -17.624300 1.290700 245.189896
v -17.624300 -1.581900 245.189896
v -15.479000 1.290700 245.568207
v -15.479000 -1.581900 245.568207
v -13.592400 1.290700 246.657394
v -13.592400 -1.581900 246.657394
v -12.192200 1.290700 248.326202
v -12.192200 -1.581900 248.326202
v -11.447100 1.290700 250.373199
v -11.447100 -1.581900 250.373199
v -11.447100 1.290700 252.551605
v -11.447100 -1.581900 252.551605
v -12.192200 1.290700 254.598694
v -12.192200 -1.581900 254.598694
v -13.592400 1.290700 256.267395
v -13.592400 -1.581900 256.267395
v -15.479000 1.290700 257.356689
v -15.479000 -1.581900 257.356689
v -19.701300 -1.581900 257.168701
v -19.701300 1.290700 257.168701
v -17.624300 1.290700 257.534912
v -17.624300 -1.581900 257.534912
v -21.527700 -1.581900 256.114197
v -21.527700 1.290700 256.114197
v -22.883301 -1.581900 254.498703
v -22.883301 1.290700 254.498703
v -23.604601 -1.581900 252.516907
v -23.604601 1.290700 252.516907
v -23.604601 -1.581900 250.407898
v -23.604601 1.290700 250.407898
v -22.883301 -1.581900 248.426193
v -22.883301 1.290700 248.426193
v -21.527700 -1.581900 246.810593
v -21.527700 1.290700 246.810593
v -19.701300 -1.581900 245.756104
v -19.701300 1.290700 245.756104
v -17.624300 -1.581900 245.389893
v -17.624300 1.290700 245.389893
v -15.547400 -1.581900 245.756104
v -15.547400 1.290700 245.756104
v -13.721000 -1.581900 246.810593
v -13.721000 1.290700 246.810593
v -12.365400 -1.581900 248.426193
v -12.365400 1.290700 248.426193
v -11.644100 -1.581900 250.407898
v -11.644100 1.290700 250.407898
v -11.644100 -1.581900 252.516907
v -11.644100 1.290700 252.516907
v -12.365400 -1.581900 254.498703
v -12.365400 1.290700 254.498703
v -13.721000 -1.581900 256.114197
v -13.721000 1.290700 256.114197
v -15.547400 -1.581900 257.168701
v -15.547400 1.290700 257.168701
v -17.624300 0.994500 257.113098
v -19.556999 0.994500 256.772308
v -19.556999 -1.575600 256.772308
v -17.624300 -1.575600 257.113098
v -21.256500 0.994500 255.791107
v -21.256500 -1.575600 255.791107
v -22.518000 0.994500 254.287796
v -22.518000 -1.575600 254.287796
v -23.189199 0.994500 252.443604
v -23.189199 -1.575600 252.443604
v -23.189199 0.994500 250.481201
v -23.189199 -1.575600 250.481201
v -22.518000 0.994500 248.637100
v -22.518000 -1.575600 248.637100
v -21.256500 0.994500 247.133698
v -21.256500 -1.575600 247.133698
v -19.556999 0.994500 246.152496
v -19.556999 -1.575600 246.152496
v -17.624300 0.994500 245.811707
v -17.624300 -1.575600 245.811707
v -15.691700 0.994500 246.152496
v -15.691700 -1.575600 246.152496
v -13.992100 0.994500 247.133698
v -13.992100 -1.575600 247.133698
v -12.730700 0.994500 248.637100
v -12.730700 -1.575600 248.637100
v -12.059500 0.994500 250.481201
v -12.059500 -1.575600 250.481201
v -12.059500 0.994500 252.443604
v -12.059500 -1.575600 252.443604
v -12.730700 0.994500 254.287796
v -12.730700 -1.575600 254.287796
v -13.992100 0.994500 255.791107
v -13.992100 -1.575600 255.791107
v -15.691700 0.994500 256.772308
v -15.691700 -1.575600 256.772308
v -19.488600 -1.575600 256.584412
v -19.488600 0.994500 256.584412
v -17.624300 0.994500 256.913086
v -17.624300 -1.575600 256.913086
v -21.128000 -1.575600 255.637894
v -21.128000 0.994500 255.637894
v -22.344801 -1.575600 254.187805
v -22.344801 0.994500 254.187805
v -22.992201 -1.575600 252.408905
v -22.992201 0.994500 252.408905
v -22.992201 -1.575600 250.515900
v -22.992201 0.994500 250.515900
v -22.344801 -1.575600 248.737106
v -22.344801 0.994500 248.737106
v -21.128000 -1.575600 247.287003
v -21.128000 0.994500 247.287003
v -19.488600 -1.575600 246.340500
v -19.488600 0.994500 246.340500
v -17.624300 -1.575600 246.011703
v -17.624300 0.994500 246.011703
v -15.760100 -1.575600 246.340500
v -15.760100 0.994500 246.340500
v -14.120700 -1.575600 247.287003
v -14.120700 0.994500 247.287003
v -12.903900 -1.575600 248.737106
v -12.903900 0.994500 248.737106
v -12.256500 -1.575600 250.515900
v -12.256500 0.994500 250.515900
v -12.256500 -1.575600 252.408905
v -12.256500 0.994500 252.408905
v -12.903900 -1.575600 254.187805
v -12.903900 0.994500 254.187805
v -14.120700 -1.575600 255.637894
v -14.120700 0.994500 255.637894
v -15.760100 -1.575600 256.584412
v -15.760100 0.994500 256.584412
# 144 positions

vt 0.696846 0.609870
vt 0.696846 0.529637
vt 0.804274 0.529637
vt 0.804274 0.609870
vt 0.575081 0.280685
vt 0.575081 0.321423
vt 0.467652 0.321423
vt 0.467652 0.280685
vt 0.575081 0.383828
vt 0.467652 0.383828
vt 0.575081 0.460384
vt 0.467652 0.460384
vt 0.575081 0.541851
vt 0.467652 0.541851
vt 0.575081 0.618404
vt 0.467652 0.618404
vt 0.575081 0.680814
vt 0.467652 0.680814
vt 0.689677 0.459239
vt 0.689677 0.529790
vt 0.582249 0.529790
vt 0.582249 0.459239
vt 0.689677 0.610023
vt 0.582249 0.610023
vt 0.689677 0.690252
vt 0.582249 0.690252
vt 0.689677 0.760806
vt 0.582249 0.760806
vt 0.177209 0.944556
vt 0.177209 0.882147
vt 0.284637 0.882147
vt 0.284637 0.944556
vt 0.177209 0.805594
vt 0.284637 0.805594
vt 0.177209 0.724127
vt 0.284637 0.724127
vt 0.177209 0.647571
vt 0.284637 0.647571
vt 0.177209 0.585165
vt 0.284637 0.585165
vt 0.696846 0.760653
vt 0.696846 0.690099
vt 0.804274 0.690099
vt 0.804274 0.760653
vt 0.549012 0.876138
vt 0.549012 0.768710
vt 0.626687 0.768710
vt 0.626687 0.876138
vt 0.480709 0.876138
vt 0.480709 0.768710
vt 0.297517 0.513831
vt 0.297517 0.406402
vt 0.357933 0.406402
vt 0.357933 0.513831
vt 0.223403 0.513831
vt 0.223403 0.406402
vt 0.144531 0.513831
vt 0.144531 0.406402
vt 0.070420 0.513831
vt 0.070420 0.406402
vt 0.010000 0.513831
vt 0.010000 0.406402
vt 0.078303 0.292540
vt 0.078303 0.399969
vt 0.010000 0.399969
vt 0.010000 0.292540
vt 0.155978 0.292540
vt 0.155978 0.399969
vt 0.233649 0.292540
vt 0.233649 0.399969
vt 0.301952 0.292540
vt 0.301952 0.399969
vt 0.506882 0.882572
vt 0.506882 0.990000
vt 0.446462 0.990000
vt 0.446462 0.882572
vt 0.580993 0.882572
vt 0.580993 0.990000
vt 0.659865 0.882572
vt 0.659865 0.990000
vt 0.733979 0.882572
vt 0.733979 0.990000
vt 0.794395 0.882572
vt 0.794395 0.990000
vt 0.704358 0.876138
vt 0.704358 0.768710
vt 0.772661 0.768710
vt 0.772661 0.876138
vt 0.160784 0.534991
vt 0.241016 0.520847
vt 0.241016 0.528326
vt 0.163341 0.542021
vt 0.090233 0.575728
vt 0.095038 0.581457
vt 0.037865 0.638133
vt 0.044342 0.641873
vt 0.010000 0.714690
vt 0.017367 0.715987
vt 0.010000 0.796157
vt 0.017367 0.794859
vt 0.037865 0.872710
vt 0.044342 0.868970
vt 0.090233 0.935119
vt 0.095038 0.929390
vt 0.160784 0.975852
vt 0.163341 0.968825
vt 0.241016 0.990000
vt 0.241016 0.982521
vt 0.321245 0.975852
vt 0.318687 0.968825
vt 0.391800 0.935119
vt 0.386990 0.929390
vt 0.444164 0.872710
vt 0.437687 0.868970
vt 0.472029 0.796157
vt 0.464662 0.794859
vt 0.472029 0.714690
vt 0.464662 0.715987
vt 0.444164 0.638133
vt 0.437687 0.641873
vt 0.391800 0.575728
vt 0.386990 0.581457
vt 0.321245 0.534991
vt 0.318687 0.542021
vt 0.908293 0.854164
vt 0.908293 0.926443
vt 0.812177 0.926443
vt 0.812177 0.854164
vt 0.908293 0.990000
vt 0.812177 0.990000
vt 0.784516 0.126573
vt 0.784516 0.182793
vt 0.688400 0.182793
vt 0.688400 0.126573
vt 0.784516 0.251761
vt 0.688400 0.251761
vt 0.784516 0.325150
vt 0.688400 0.325150
vt 0.784516 0.394115
vt 0.688400 0.394115
vt 0.784516 0.450339
vt 0.688400 0.450339
vt 0.889234 0.250063
vt 0.889234 0.313620
vt 0.793118 0.313620
vt 0.793118 0.250063
vt 0.889234 0.385898
vt 0.793118 0.385898
vt 0.889234 0.458173
vt 0.793118 0.458173
vt 0.889234 0.521734
vt 0.793118 0.521734
vt 0.679100 0.126573
vt 0.679100 0.182796
vt 0.582984 0.182796
vt 0.582984 0.126573
vt 0.679100 0.251761
vt 0.582984 0.251761
vt 0.679100 0.325150
vt 0.582984 0.325150
vt 0.679100 0.394119
vt 0.582984 0.394119
vt 0.679100 0.450339
vt 0.582984 0.450339
vt 0.908293 0.718329
vt 0.908293 0.781890
vt 0.812177 0.781890
vt 0.812177 0.718329
vt 0.210747 0.083804
vt 0.210747 0.179919
vt 0.141026 0.179919
vt 0.141026 0.083804
vt 0.272057 0.083804
vt 0.272057 0.179919
vt 0.268074 0.284637
vt 0.268074 0.188521
vt 0.322303 0.188521
vt 0.322303 0.284637
vt 0.201547 0.284637
vt 0.201547 0.188521
vt 0.130753 0.284637
vt 0.130753 0.188521
vt 0.064230 0.284637
vt 0.064230 0.188521
vt 0.010000 0.284637
vt 0.010000 0.188521
vt 0.565202 0.071310
vt 0.469086 0.071310
vt 0.469086 0.010000
vt 0.565202 0.010000
vt 0.565202 0.141030
vt 0.469086 0.141030
vt 0.565202 0.210747
vt 0.469086 0.210747
vt 0.565202 0.272057
vt 0.469086 0.272057
vt 0.364368 0.349081
vt 0.460484 0.349081
vt 0.460484 0.403312
vt 0.364368 0.403312
vt 0.364368 0.282559
vt 0.460484 0.282559
vt 0.364368 0.211765
vt 0.460484 0.211765
vt 0.364368 0.145238
vt 0.460484 0.145238
vt 0.364368 0.091008
vt 0.460484 0.091008
vt 0.071309 0.083804
vt 0.071309 0.179919
vt 0.010000 0.179919
vt 0.010000 0.083804
vt 0.165594 0.560342
vt 0.237872 0.547597
vt 0.237872 0.555077
vt 0.168152 0.567368
vt 0.102036 0.597036
vt 0.106842 0.602766
vt 0.054859 0.653257
vt 0.061337 0.656996
vt 0.029758 0.722225
vt 0.037125 0.723523
vt 0.029758 0.795614
vt 0.037125 0.794316
vt 0.054859 0.864579
vt 0.061337 0.860839
vt 0.102036 0.920803
vt 0.106842 0.915069
vt 0.165594 0.957497
vt 0.168152 0.950466
vt 0.237872 0.970242
vt 0.237872 0.962762
vt 0.310147 0.957497
vt 0.307589 0.950466
vt 0.373708 0.920803
vt 0.368898 0.915069
vt 0.420881 0.864579
vt 0.414404 0.860839
vt 0.445982 0.795614
vt 0.438615 0.794316
vt 0.445982 0.722225
vt 0.438615 0.723523
vt 0.420881 0.653257
vt 0.414404 0.656996
vt 0.373708 0.597036
vt 0.368898 0.602766
vt 0.310147 0.560342
vt 0.307589 0.567368
# 248 texture coordinates

vn 0.000000 0.000000 1.000000
vn -0.342025 0.000000 0.939691
vn -0.642789 0.000000 0.766043
vn -0.866023 0.000000 0.500005
vn -0.984808 0.000000 0.173648
vn -0.984808 0.000000 -0.173646
vn -0.866024 0.000000 -0.500002
vn -0.642789 0.000000 -0.766044
vn -0.342020 0.000000 -0.939692
vn 0.000000 0.000000 -1.000000
vn 0.342016 0.000000 -0.939694
vn 0.642788 0.000000 -0.766044
vn 0.866029 0.000000 -0.499993
vn 0.984808 0.000000 -0.173647
vn 0.984808 0.000000 0.173648
vn 0.866028 0.000000 0.499995
vn 0.642789 0.000000 0.766043
vn 0.342021 0.000000 0.939692
vn -0.000000 0.000000 -1.000000
vn -0.000000 0.000000 1.000000
vn 0.000000 1.000000 0.000000
vn -0.866023 0.000000 0.500003
vn -0.984808 0.000000 0.173647
vn -0.984807 0.000000 -0.173651
vn 0.000000 1.000000 0.000000
# 25 normals

usemtl default
f 1/1/1 2/2/2 3/3/2 4/4/1
f 2/5/2 5/6/3 6/7/3 3/8/2
f 5/6/3 7/9/4 8/10/4 6/7/3
f 7/9/4 9/11/5 10/12/5 8/10/4
f 9/11/5 11/13/6 12/14/6 10/12/5
f 11/13/6 13/15/7 14/16/7 12/14/6
f 13/15/7 15/17/8 16/18/8 14/16/7
f 15/19/8 17/20/9 18/21/9 16/22/8
f 17/20/9 19/23/10 20/24/10 18/21/9
f 19/23/10 21/25/11 22/26/11 20/24/10
f 21/25/11 23/27/12 24/28/12 22/26/11
f 23/29/12 25/30/13 26/31/13 24/32/12
f 25/30/13 27/33/14 28/34/14 26/31/13
f 27/33/14 29/35/15 30/36/15 28/34/14
f 29/35/15 31/37/16 32/38/16 30/36/15
f 31/37/16 33/39/17 34/40/17 32/38/16
f 33/41/17 35/42/18 36/43/18 34/44/17
f 35/42/18 1/1/1 4/4/1 36/43/18
f 37/45/11 38/46/11 39/47/19 40/48/19
f 41/49/12 42/50/12 38/46/11 37/45/11
f 43/51/13 44/52/13 42/53/12 41/54/12
f 45/55/14 46/56/14 44/52/13 43/51/13
f 47/57/15 48/58/15 46/56/14 45/55/14
f 49/59/16 50/60/16 48/58/15 47/57/15
f 51/61/17 52/62/17 50/60/16 49/59/16
f 53/63/18 54/64/18 52/65/17 51/66/17
f 55/67/20 56/68/20 54/64/18 53/63/18
f 57/69/2 58/70/2 56/68/20 55/67/20
f 59/71/3 60/72/3 58/70/2 57/69/2
f 61/73/4 62/74/4 60/75/3 59/76/3
f 63/77/5 64/78/5 62/74/4 61/73/4
f 65/79/6 66/80/6 64/78/5 63/77/5
f 67/81/7 68/82/7 66/80/6 65/79/6
f 69/83/8 70/84/8 68/82/7 67/81/7
f 71/85/9 72/86/9 70/87/8 69/88/8
f 40/48/19 39/47/19 72/86/9 71/85/9
f 2/89/21 1/90/21 39/91/21 38/92/21
f 5/93/21 2/89/21 38/92/21 42/94/21
f 7/95/21 5/93/21 42/94/21 44/96/21
f 9/97/21 7/95/21 44/96/21 46/98/21
f 11/99/21 9/97/21 46/98/21 48/100/21
f 13/101/21 11/99/21 48/100/21 50/102/21
f 15/103/21 13/101/21 50/102/21 52/104/21
f 17/105/21 15/103/21 52/104/21 54/106/21
f 19/107/21 17/105/21 54/106/21 56/108/21
f 21/109/21 19/107/21 56/108/21 58/110/21
f 23/111/21 21/109/21 58/110/21 60/112/21
f 25/113/21 23/111/21 60/112/21 62/114/21
f 27/115/21 25/113/21 62/114/21 64/116/21
f 29/117/21 27/115/21 64/116/21 66/118/21
f 31/119/21 29/117/21 66/118/21 68/120/21
f 33/121/21 31/119/21 68/120/21 70/122/21
f 35/123/21 33/121/21 70/122/21 72/124/21
f 1/90/21 35/123/21 72/124/21 39/91/21
f 73/125/20 74/126/2 75/127/2 76/128/20
f 74/126/2 77/129/3 78/130/3 75/127/2
f 77/131/3 79/132/22 80/133/22 78/134/3
f 79/132/22 81/135/23 82/136/23 80/133/22
f 81/135/23 83/137/24 84/138/24 82/136/23
f 83/137/24 85/139/7 86/140/7 84/138/24
f 85/139/7 87/141/8 88/142/8 86/140/7
f 87/143/8 89/144/9 90/145/9 88/146/8
f 89/144/9 91/147/19 92/148/19 90/145/9
f 91/147/19 93/149/11 94/150/11 92/148/19
f 93/149/11 95/151/12 96/152/12 94/150/11
f 95/153/12 97/154/13 98/155/13 96/156/12
f 97/154/13 99/157/14 100/158/14 98/155/13
f 99/157/14 101/159/15 102/160/15 100/158/14
f 101/159/15 103/161/16 104/162/16 102/160/15
f 103/161/16 105/163/17 106/164/17 104/162/16
f 105/165/17 107/166/18 108/167/18 106/168/17
f 107/166/18 73/125/20 76/128/20 108/167/18
f 109/169/11 110/170/11 111/171/10 112/172/10
f 113/173/12 114/174/12 110/170/11 109/169/11
f 115/175/13 116/176/13 114/177/12 113/178/12
f 117/179/14 118/180/14 116/176/13 115/175/13
f 119/181/15 120/182/15 118/180/14 117/179/14
f 121/183/16 122/184/16 120/182/15 119/181/15
f 123/185/17 124/186/17 122/184/16 121/183/16
f 125/187/18 126/188/18 124/189/17 123/190/17
f 127/191/20 128/192/20 126/188/18 125/187/18
f 129/193/2 130/194/2 128/192/20 127/191/20
f 131/195/3 132/196/3 130/194/2 129/193/2
f 133/197/4 134/198/4 132/199/3 131/200/3
f 135/201/5 136/202/5 134/198/4 133/197/4
f 137/203/6 138/204/6 136/202/5 135/201/5
f 139/205/7 140/206/7 138/204/6 137/203/6
f 141/207/8 142/208/8 140/206/7 139/205/7
f 143/209/9 144/210/9 142/211/8 141/212/8
f 112/172/10 111/171/10 144/210/9 143/209/9
f 74/213/21 73/214/21 111/215/21 110/216/21
f 77/217/25 74/213/21 110/216/21 114/218/25
f 79/219/25 77/217/25 114/218/25 116/220/25
f 81/221/25 79/219/25 116/220/25 118/222/25
f 83/223/25 81/221/25 118/222/25 120/224/25
f 85/225/21 83/223/25 120/224/25 122/226/21
f 87/227/21 85/225/21 122/226/21 124/228/21
f 89/229/21 87/227/21 124/228/21 126/230/21
f 91/231/21 89/229/21 126/230/21 128/232/21
f 93/233/21 91/231/21 128/232/21 130/234/21
f 95/235/21 93/233/21 130/234/21 132/236/21
f 97/237/21 95/235/21 132/236/21 134/238/21
f 99/239/21 97/237/21 134/238/21 136/240/21
f 101/241/21 99/239/21 136/240/21 138/242/21
f 103/243/21 101/241/21 138/242/21 140/244/21
f 105/245/21 103/243/21 140/244/21 142/246/21
f 107/247/21 105/245/21 142/246/21 144/248/21
f 73/214/21 107/247/21 144/248/21 111/215/21

# 108 faces
