# Wavefront Obj file
# 
# verts: 162 uv-s: 316
mtllib cabina.mtl

g Object

v 0.000000 -23.885700 46.989201
v 0.000000 -22.803499 8.028500
v -31.335100 -21.505400 8.028500
v -31.335100 -23.885700 45.257500
v 0.000000 -11.912700 -2.863100
v -31.335100 -11.912700 -2.863100
v 0.000000 -11.716600 -9.244000
v -31.335100 -11.716600 -9.244000
v 0.000000 -11.073200 -38.923500
v -31.335100 -11.073200 -38.923500
v -50.138699 -23.885700 37.481998
v -51.793598 -21.505400 8.028500
v -54.596600 -34.863300 8.220300
v -52.941700 -35.335098 37.481998
v 50.153099 -23.885700 39.460800
v 52.956100 -35.335098 39.460800
v 54.596600 -34.863300 8.220400
v 51.793598 -22.803499 8.028500
v 54.596600 -20.067200 0.851000
v 51.793598 -11.912700 -2.863100
v -51.793598 -11.912700 -2.863100
v -54.596600 -20.067200 0.850900
v 54.596600 -16.168699 -10.258500
v 51.793598 -11.716600 -9.244000
v -51.793598 -11.716600 -9.244000
v -54.596600 -16.168699 -10.258600
v 51.793598 -11.073200 -38.923401
v 54.596600 -15.583300 -39.078300
v -51.793598 -11.073200 -38.923500
v -54.596600 -15.583300 -39.078300
v 0.000000 -46.784500 46.989201
v 0.000000 -46.923100 8.412200
v 31.335100 -46.923100 8.412200
v 31.335100 -46.784500 45.257500
v 0.000000 -25.979601 0.403900
v 31.335100 -25.979601 0.404000
v 0.000000 -20.620800 -11.273100
v 31.335100 -20.620800 -11.273100
v 0.000000 -20.093300 -39.233200
v 31.335100 -20.093300 -39.233101
v 0.000000 -35.335098 46.989201
v -33.030899 -35.335098 45.257500
v 0.000000 -15.583300 -39.078300
v 31.335100 -11.073200 -38.923401
v 33.030899 -15.583300 -39.078300
v -51.793598 -46.923100 8.412200
v -50.138699 -46.784500 37.481998
v 50.153099 -46.784500 39.460800
v 51.793598 -46.923100 8.412200
v 51.793598 -25.979601 0.404000
v -51.793598 -25.979601 0.403900
v 51.793598 -20.620800 -11.273100
v -51.793598 -20.620800 -11.273100
v 51.793598 -20.093300 -39.233101
v -51.793598 -20.093300 -39.233200
v -31.335100 -46.784500 45.257500
v 31.335100 -22.803499 8.028500
v 31.335100 -23.885700 45.257500
v 31.335100 -11.912700 -2.863100
v 31.335100 -11.716600 -9.244000
v -31.335100 -46.923100 8.412200
v -31.335100 -25.979601 0.403900
v -31.335100 -20.620800 -11.273100
v -31.335100 -20.093300 -39.233200
v 33.030899 -35.335098 45.257500
v -33.030899 -15.583300 -39.078300
v -48.193901 -47.679401 -20.393600
v -48.193901 -44.992901 -17.707100
v 43.771999 -44.992901 -17.707100
v 43.771999 -47.679401 -20.393600
v -48.193901 -47.679401 -15.020700
v 43.771999 -47.679401 -15.020600
v -48.193901 -50.365799 -17.707100
v 43.771999 -50.365799 -17.707100
v -52.166698 -48.628300 -46.988499
v -52.166698 -35.885899 -43.964699
v -38.952801 -35.885899 -43.964699
v -38.952801 -48.628300 -46.988499
v -52.166698 -25.927299 -39.339699
v -38.952801 -25.927299 -39.339699
v -52.166698 -19.609699 -28.979000
v -38.952801 -19.609699 -28.979000
v -52.166698 -60.774502 -45.766102
v -38.952801 -60.774502 -45.766102
v -52.166698 -48.516998 -46.001499
v -52.166698 -37.100201 -43.106899
v -38.952801 -37.100201 -43.106899
v -38.952801 -48.516998 -46.001499
v -52.166698 -27.123199 -39.271801
v -38.952801 -27.123199 -39.271801
v -52.166698 -21.596399 -29.982599
v -38.952801 -21.596399 -29.982599
v -52.166698 -59.399799 -45.200100
v -38.952801 -59.399799 -45.200100
v 39.530800 -48.628300 -46.989201
v 39.530800 -35.885899 -43.965401
v 52.744701 -35.885899 -43.965401
v 52.744701 -48.628300 -46.989201
v 39.530701 -25.927299 -39.340500
v 52.744701 -25.927299 -39.340500
v 39.530701 -19.609699 -28.979700
v 52.744701 -19.609699 -28.979700
v 39.530701 -60.774502 -45.766800
v 52.744701 -60.774502 -45.766800
v 39.530800 -48.516998 -46.002201
v 39.530800 -37.100201 -43.107700
v 52.744701 -37.100201 -43.107700
v 52.744701 -48.516998 -46.002201
v 39.530701 -27.123199 -39.272499
v 52.744701 -27.123199 -39.272499
v 39.530701 -21.596399 -29.983299
v 52.744701 -21.596399 -29.983299
v 39.530701 -59.399799 -45.200802
v 52.744701 -59.399799 -45.200802
v 0.202700 -24.556101 46.856998
v 0.202700 13.259800 46.856998
v -30.991100 13.259800 46.856998
v -30.991100 -24.556101 46.856998
v 0.202700 13.259900 -34.097698
v 0.202700 -11.642700 -34.097698
v -30.990999 -11.642700 -34.097698
v -30.990999 13.259900 -34.097698
v -42.331501 55.278900 25.527500
v -44.702702 55.991001 13.400900
v -51.395000 13.259900 13.400900
v -49.023800 13.259800 40.177101
v -44.702702 55.278900 -34.097698
v -51.394901 13.259900 -34.097698
v -51.395000 13.259900 1.109300
v -44.702702 56.702999 1.109300
v -24.836800 57.598400 -34.097698
v 0.202700 59.350399 -34.097599
v -51.395000 -23.342300 13.400900
v -49.023800 -24.556101 40.177101
v -51.394901 -11.642700 -34.097698
v -51.395000 -12.191300 1.109300
v -24.836800 57.598400 32.207401
v -24.836800 58.310398 13.401000
v -24.836800 59.022499 1.109300
v 0.202700 59.350399 32.207401
v 0.202700 60.062401 13.401000
v 0.202700 60.774502 1.109300
v 31.396500 -24.556101 46.856998
v 31.396500 13.259800 46.856998
v 31.396500 13.259900 -34.097599
v 31.396500 -11.642700 -34.097599
v 42.736900 55.278900 25.527500
v 49.429199 13.259800 40.177101
v 51.800400 13.259900 13.401000
v 45.108101 55.991001 13.401000
v 45.108101 55.278900 -34.097599
v 45.108101 56.702999 1.109400
v 51.800400 13.259900 1.109300
v 51.800400 13.259900 -34.097599
v 25.242300 57.598400 -34.097599
v 51.800400 -23.342300 13.400900
v 49.429199 -24.556101 40.177101
v 51.800400 -11.642700 -34.097599
v 51.800400 -12.191300 1.109300
v 25.242201 58.310398 13.401000
v 25.242201 57.598400 32.207401
v 25.242201 59.022499 1.109400
# 162 positions

vt 0.828560 0.281721
vt 0.706210 0.281721
vt 0.706210 0.183318
vt 0.823122 0.183318
vt 0.672006 0.281721
vt 0.672006 0.183318
vt 0.651968 0.281721
vt 0.651968 0.183318
vt 0.558764 0.281721
vt 0.558764 0.183318
vt 0.860326 0.415656
vt 0.852851 0.508151
vt 0.894800 0.507548
vt 0.896281 0.415656
vt 0.906954 0.407678
vt 0.870999 0.407678
vt 0.872481 0.309572
vt 0.910353 0.308970
vt 0.918946 0.286430
vt 0.944554 0.274766
vt 0.822727 0.542354
vt 0.848335 0.530691
vt 0.931188 0.251542
vt 0.945169 0.254728
vt 0.822111 0.562392
vt 0.836092 0.565579
vt 0.947190 0.161524
vt 0.933027 0.161038
vt 0.820090 0.655596
vt 0.834254 0.656083
vt 0.558764 0.615639
vt 0.679909 0.615639
vt 0.679909 0.517236
vt 0.564202 0.517236
vt 0.814745 0.867194
vt 0.814745 0.801424
vt 0.716342 0.801424
vt 0.716342 0.867194
vt 0.687353 0.615639
vt 0.724023 0.615639
vt 0.724023 0.517236
vt 0.687353 0.517236
vt 0.811828 0.615639
vt 0.811828 0.517236
vt 0.171256 0.858120
vt 0.171256 0.894075
vt 0.072852 0.894075
vt 0.067527 0.858120
vt 0.823547 0.890252
vt 0.823547 0.876089
vt 0.725144 0.876089
vt 0.719819 0.890252
vt 0.932672 0.506946
vt 0.932236 0.415656
vt 0.835044 0.407678
vt 0.834609 0.310175
vt 0.900379 0.285026
vt 0.866902 0.532095
vt 0.917207 0.248356
vt 0.850073 0.568765
vt 0.918864 0.160552
vt 0.848417 0.656569
vt 0.072852 0.822164
vt 0.171256 0.822164
vt 0.725144 0.904415
vt 0.823547 0.904415
vt 0.804918 0.439220
vt 0.706210 0.444372
vt 0.706210 0.380125
vt 0.823122 0.380125
vt 0.706210 0.119071
vt 0.798704 0.124268
vt 0.672006 0.444372
vt 0.672006 0.380125
vt 0.672006 0.119071
vt 0.651968 0.444372
vt 0.651968 0.380125
vt 0.651968 0.119071
vt 0.558764 0.444372
vt 0.558764 0.380125
vt 0.558764 0.119071
vt 0.588620 0.773092
vt 0.679909 0.778289
vt 0.679909 0.714042
vt 0.564202 0.714042
vt 0.679909 0.452989
vt 0.582406 0.458140
vt 0.977395 0.867194
vt 0.977395 0.801424
vt 0.913148 0.801424
vt 0.913148 0.867194
vt 0.652095 0.801424
vt 0.652095 0.867194
vt 0.687353 0.778289
vt 0.724023 0.778289
vt 0.724023 0.714042
vt 0.687353 0.714042
vt 0.724023 0.452989
vt 0.687353 0.452989
vt 0.811828 0.778289
vt 0.811828 0.714042
vt 0.811828 0.452989
vt 0.274984 0.858120
vt 0.337557 0.858120
vt 0.328754 0.894075
vt 0.269659 0.894075
vt 0.013802 0.894075
vt 0.005000 0.858120
vt 0.927276 0.890252
vt 0.995000 0.890252
vt 0.986198 0.876089
vt 0.921951 0.876089
vt 0.660897 0.876089
vt 0.652095 0.890252
vt 0.328754 0.822164
vt 0.269659 0.822164
vt 0.013802 0.822164
vt 0.986198 0.904415
vt 0.921951 0.904415
vt 0.660897 0.904415
vt 0.268401 0.268401
vt 0.276837 0.268401
vt 0.276837 0.557206
vt 0.268401 0.557206
vt 0.285274 0.268401
vt 0.285274 0.557206
vt 0.940384 0.580020
vt 0.948820 0.580020
vt 0.948820 0.291215
vt 0.940384 0.291215
vt 0.957257 0.580020
vt 0.957257 0.291215
vt 0.027955 0.264253
vt 0.019518 0.272689
vt 0.027955 0.281125
vt 0.036391 0.272689
vt 0.021873 0.295503
vt 0.013436 0.303940
vt 0.005000 0.295503
vt 0.013436 0.287067
vt 0.855365 0.096129
vt 0.855365 0.056113
vt 0.813868 0.056113
vt 0.813868 0.096129
vt 0.855365 0.024839
vt 0.813868 0.024839
vt 0.855365 0.005000
vt 0.813868 0.005000
vt 0.855365 0.134272
vt 0.813868 0.134272
vt 0.634765 0.093541
vt 0.674780 0.103037
vt 0.674431 0.099937
vt 0.638579 0.090847
vt 0.634239 0.005000
vt 0.674255 0.014496
vt 0.670442 0.017190
vt 0.634589 0.008100
vt 0.603492 0.079017
vt 0.607247 0.078803
vt 0.705529 0.029020
vt 0.701773 0.029233
vt 0.583652 0.046480
vt 0.589891 0.049632
vt 0.725368 0.061556
vt 0.719129 0.058405
vt 0.712924 0.099198
vt 0.708607 0.097420
vt 0.596096 0.008839
vt 0.600413 0.010616
vt 0.820090 0.703032
vt 0.820090 0.668856
vt 0.861587 0.668856
vt 0.861587 0.703032
vt 0.820090 0.787572
vt 0.820090 0.770216
vt 0.861587 0.770216
vt 0.861587 0.787572
vt 0.820090 0.738884
vt 0.861587 0.738884
vt 0.861587 0.793811
vt 0.820090 0.793811
vt 0.820090 0.664539
vt 0.861587 0.664539
vt 0.594038 0.873887
vt 0.594038 0.833871
vt 0.552542 0.833871
vt 0.552542 0.873887
vt 0.594039 0.802597
vt 0.552542 0.802597
vt 0.594039 0.782758
vt 0.552542 0.782758
vt 0.594039 0.912030
vt 0.552542 0.912030
vt 0.390031 0.869225
vt 0.430046 0.878721
vt 0.429697 0.875621
vt 0.393844 0.866531
vt 0.621795 0.031962
vt 0.661811 0.041458
vt 0.657998 0.044152
vt 0.622145 0.035062
vt 0.358757 0.854701
vt 0.362512 0.854487
vt 0.693085 0.055982
vt 0.689329 0.056195
vt 0.338917 0.822164
vt 0.345156 0.825316
vt 0.712924 0.088518
vt 0.706685 0.085367
vt 0.468189 0.874882
vt 0.463873 0.873104
vt 0.583652 0.035801
vt 0.587969 0.037578
vt 0.602319 0.823325
vt 0.602318 0.789149
vt 0.643815 0.789149
vt 0.643815 0.823325
vt 0.602318 0.907865
vt 0.602318 0.890509
vt 0.643815 0.890509
vt 0.643815 0.907865
vt 0.602319 0.859178
vt 0.643815 0.859178
vt 0.643815 0.914104
vt 0.602318 0.914104
vt 0.602318 0.784832
vt 0.643815 0.784832
vt 0.159588 0.005000
vt 0.159588 0.123755
vt 0.061629 0.123755
vt 0.061629 0.005000
vt 0.382733 0.736688
vt 0.382733 0.814891
vt 0.480692 0.814891
vt 0.480692 0.736688
vt 0.326797 0.051005
vt 0.324561 0.089087
vt 0.458753 0.089087
vt 0.458753 0.005000
vt 0.326797 0.238249
vt 0.458753 0.238249
vt 0.458753 0.127687
vt 0.322325 0.127687
vt 0.461366 0.597450
vt 0.382733 0.591948
vt 0.573696 0.089087
vt 0.577508 0.005000
vt 0.536955 0.238249
vt 0.538678 0.127687
vt 0.005000 0.123755
vt 0.005000 0.005000
vt 0.544768 0.814891
vt 0.544768 0.736688
vt 0.154162 0.517283
vt 0.192244 0.524730
vt 0.213221 0.579669
vt 0.154162 0.579669
vt 0.005000 0.517283
vt 0.115562 0.517283
vt 0.115562 0.579669
vt 0.005000 0.579669
vt 0.026017 0.255710
vt 0.080956 0.262994
vt 0.523752 0.604734
vt 0.213221 0.658302
vt 0.154162 0.658302
vt 0.115562 0.658302
vt 0.005000 0.658302
vt 0.159588 0.268496
vt 0.257548 0.005000
vt 0.257548 0.123755
vt 0.284774 0.736688
vt 0.284774 0.814891
vt 0.255711 0.463941
vt 0.123755 0.509946
vt 0.123755 0.425859
vt 0.257947 0.425859
vt 0.255711 0.276697
vt 0.260183 0.387259
vt 0.123755 0.387259
vt 0.123755 0.276697
vt 0.304100 0.597450
vt 0.008812 0.425859
vt 0.005000 0.509946
vt 0.045553 0.276697
vt 0.043829 0.387259
vt 0.314178 0.123755
vt 0.314178 0.005000
vt 0.220698 0.814891
vt 0.220698 0.736688
vt 0.154162 0.799321
vt 0.154162 0.736935
vt 0.213221 0.736935
vt 0.192244 0.791875
vt 0.005000 0.799321
vt 0.005000 0.736935
vt 0.115562 0.736935
vt 0.115562 0.799321
vt 0.293161 0.255710
vt 0.238222 0.262994
vt 0.241715 0.604734
vt 0.316340 0.576728
vt 0.400427 0.584175
vt 0.400427 0.260105
vt 0.295363 0.324180
vt 0.316340 0.267551
vt 0.295363 0.422140
vt 0.295363 0.520099
vt 0.439027 0.584175
vt 0.439027 0.260105
vt 0.549590 0.584174
vt 0.549590 0.520099
vt 0.549590 0.422140
vt 0.549590 0.324180
vt 0.549590 0.260105
# 316 texture coordinates

vn 0.010110 0.999268 0.036896
vn 0.010110 0.999268 0.036896
vn 0.002632 0.998285 0.058485
vn 0.002632 0.998285 0.058485
vn 0.007545 0.717883 0.696123
vn 0.001257 0.708928 0.705280
vn 0.007545 0.739549 0.673060
vn 0.007545 0.739549 0.673060
vn 0.000000 0.999528 0.030718
vn -0.000000 0.999657 0.026196
vn -0.000000 0.999765 0.021673
vn -0.973196 0.220432 0.065567
vn -0.935346 0.263652 0.235830
vn -0.978524 0.100078 0.180206
vn -0.998106 -0.005529 0.061266
vn 0.971063 0.232022 0.056590
vn 0.998500 0.000381 0.054755
vn 0.974522 0.111890 0.194392
vn 0.924238 0.281497 0.257959
vn 0.883682 0.376581 0.278017
vn 0.883682 0.376581 0.278017
vn -0.896247 0.365019 0.251995
vn -0.896247 0.365019 0.251995
vn 0.877233 0.476892 0.055097
vn 0.877233 0.476892 0.055097
vn -0.877234 0.476891 0.055097
vn -0.877234 0.476891 0.055097
vn 0.848401 0.529238 0.011117
vn 0.848401 0.529238 0.011117
vn -0.848401 0.529238 0.011117
vn -0.848401 0.529238 0.011117
vn -0.000000 -0.999993 0.003675
vn 0.000353 -0.999992 0.003886
vn 0.000353 -0.999992 0.003886
vn 0.000000 -0.357155 -0.934045
vn 0.000000 -0.908864 -0.417094
vn 0.000000 -0.974893 -0.222672
vn 0.000000 -0.999822 -0.018863
vn 0.000000 0.000000 1.000000
vn -0.215758 0.039054 0.975666
vn -0.215922 0.000000 0.976411
vn 0.000000 0.034314 -0.999411
vn -0.971417 -0.231205 0.053799
vn -0.971417 -0.231205 0.053799
vn 0.971604 -0.231281 0.049941
vn 0.971604 -0.231281 0.049941
vn 0.794627 -0.239946 -0.557668
vn 0.794627 -0.239946 -0.557668
vn 0.855688 -0.352405 -0.378958
vn 0.855688 -0.352405 -0.378958
vn -0.855686 -0.352407 -0.378959
vn -0.794625 -0.239949 -0.557670
vn -0.794625 -0.239949 -0.557670
vn -0.855686 -0.352407 -0.378959
vn 0.865877 -0.490840 -0.096602
vn 0.865877 -0.490840 -0.096602
vn -0.865877 -0.490841 -0.096603
vn -0.865877 -0.490841 -0.096603
vn 0.848361 -0.529316 -0.010375
vn 0.848361 -0.529316 -0.010375
vn -0.848361 -0.529316 -0.010375
vn -0.848361 -0.529316 -0.010375
vn -0.215758 -0.039054 0.975666
vn 0.004666 0.999489 0.031618
vn 0.004666 0.999489 0.031618
vn 0.002726 0.999546 0.030008
vn 0.002726 0.999546 0.030008
vn -0.014171 0.997336 0.071554
vn -0.014171 0.997336 0.071554
vn 0.000000 0.750437 0.660942
vn -0.000837 -0.999991 0.004226
vn -0.000837 -0.999991 0.004226
vn -0.000469 -0.999992 0.003951
vn -0.000469 -0.999992 0.003951
vn 0.000605 -0.999991 0.004097
vn 0.000605 -0.999991 0.004097
vn 0.171313 0.000000 0.985217
vn 0.286677 0.000000 0.958027
vn 0.286224 0.056233 0.956511
vn 0.171235 0.030329 0.984763
vn -0.371743 0.073034 0.925458
vn -0.372738 0.000000 0.927936
vn 0.286224 -0.056233 0.956511
vn 0.171235 -0.030329 0.984763
vn -0.371743 -0.073034 0.925458
vn 0.000000 0.707107 -0.707107
vn -0.000000 -0.707114 0.707100
vn 0.000000 -0.707120 -0.707093
vn -1.000000 0.000001 -0.000003
vn 1.000000 0.000000 0.000000
vn 0.000000 0.066296 -0.997800
vn 0.000000 0.327717 -0.944776
vn 0.000000 0.421210 -0.906963
vn 0.000000 0.853794 -0.520612
vn 0.000000 -0.100135 -0.994974
vn -1.000000 -0.000001 -0.000002
vn -1.000000 0.000000 0.000000
vn 1.000000 0.000000 0.000000
vn 0.000000 -0.087287 0.996183
vn 0.000000 -0.157870 0.987460
vn 0.000000 -0.859394 0.511314
vn 0.000000 -0.358803 0.933413
vn 0.000000 -0.302814 0.953050
vn 0.000000 -0.450894 0.892578
vn 0.000000 -0.380719 0.924691
vn 1.000000 0.000000 0.000000
vn 1.000000 0.000000 0.000000
vn 0.000000 0.000000 1.000000
vn 0.000000 0.156328 0.987705
vn -0.182147 0.169057 0.968629
vn -0.176451 0.000000 0.984309
vn 0.000001 0.000000 -1.000000
vn -0.976869 0.175416 0.122295
vn -0.984291 0.164746 0.063485
vn -0.995117 0.082625 0.054000
vn -0.990493 0.088065 0.105681
vn -0.987952 0.154726 -0.003131
vn -0.996984 0.077597 -0.001571
vn -0.997009 0.077283 0.000329
vn -0.988055 0.154104 0.000657
vn -0.999025 0.000000 0.044149
vn -0.996102 0.000000 0.088211
vn -1.000000 0.000000 -0.000003
vn -1.000000 0.000000 -0.000001
vn -0.354195 0.176402 0.918383
vn -0.347366 0.000000 0.937730
vn -0.124311 0.990628 0.056594
vn -0.132837 0.989569 0.055741
vn -0.101348 0.993751 0.046766
vn -0.097053 0.993911 0.052178
vn -0.115877 0.992452 -0.040144
vn -0.115964 0.993216 0.008660
vn -0.092905 0.995637 0.008682
vn -0.092834 0.994868 -0.040242
vn -0.349854 0.347240 0.870073
vn -0.182585 0.333220 0.925001
vn 0.000000 0.999284 0.037832
vn -0.000000 0.998855 0.047837
vn -0.000000 0.999962 0.008721
vn 0.000000 0.999183 -0.040416
vn 0.000000 0.308819 0.951121
vn 0.176451 0.000000 0.984309
vn 0.182147 0.169057 0.968629
vn 0.976869 0.175417 0.122296
vn 0.990493 0.088065 0.105681
vn 0.995117 0.082625 0.054001
vn 0.984291 0.164746 0.063486
vn 0.987952 0.154728 -0.003129
vn 0.988054 0.154104 0.000658
vn 0.997009 0.077283 0.000330
vn 0.996984 0.077598 -0.001569
vn 0.999025 -0.000000 0.044149
vn 0.996102 -0.000000 0.088211
vn 1.000000 0.000000 0.000000
vn 0.354195 0.176402 0.918383
vn 0.347366 0.000000 0.937730
vn 0.124311 0.990628 0.056595
vn 0.097053 0.993911 0.052178
vn 0.101348 0.993751 0.046766
vn 0.132837 0.989569 0.055741
vn 0.115877 0.992452 -0.040144
vn 0.092834 0.994868 -0.040242
vn 0.092905 0.995637 0.008682
vn 0.115965 0.993216 0.008660
vn 0.349854 0.347240 0.870073
vn 0.182585 0.333220 0.925001
vn 0.001449 -0.999205 -0.039838
vn -0.017340 -0.998753 -0.046810
vn 0.000000 -1.000000 0.000000
vn 0.000000 -0.740635 -0.671908
vn 0.000000 -0.999879 -0.015580
# 171 normals

usemtl default
s 1
f 1/1/1 2/2/2 3/3/3 4/4/4
f 15/67/64 18/68/65 57/69/66 58/70/67
f 58/70/67 57/69/66 2/2/2 1/1/1
f 12/71/68 11/72/69 4/4/4 3/3/3
s 2
f 2/2/5 5/5/6 6/6/7 3/3/8
f 18/68/6 20/73/6 59/74/6 57/69/6
f 57/69/6 59/74/6 5/5/6 2/2/5
f 21/75/70 12/71/70 3/3/8 6/6/7
f 68/122/6 71/125/6 72/126/6 69/123/6
s 3
f 5/5/9 7/7/10 8/8/10 6/6/9
f 7/7/10 9/9/11 10/10/11 8/8/10
f 20/73/9 24/76/10 60/77/10 59/74/9
f 59/74/9 60/77/10 7/7/10 5/5/9
f 25/78/10 21/75/9 6/6/9 8/8/10
f 24/76/10 27/79/11 44/80/11 60/77/10
f 60/77/10 44/80/11 9/9/11 7/7/10
f 29/81/11 25/78/10 8/8/10 10/10/11
s 4
f 11/11/12 12/12/13 13/13/14 14/14/15
f 12/12/13 21/21/22 22/22/23 13/13/14
f 21/21/22 25/25/26 26/26/27 22/22/23
f 29/29/30 30/30/31 26/26/27 25/25/26
f 46/53/43 47/54/44 14/14/15 13/13/14
s 5
f 15/15/16 16/16/17 17/17/18 18/18/19
f 18/18/19 17/17/18 19/19/20 20/20/21
f 20/20/21 19/19/20 23/23/24 24/24/25
f 27/27/28 24/24/25 23/23/24 28/28/29
f 16/16/17 48/55/45 49/56/46 17/17/18
s 6
f 31/31/32 32/32/32 33/33/33 34/34/34
f 47/82/71 46/83/72 61/84/73 56/85/74
f 56/85/74 61/84/73 32/32/32 31/31/32
f 49/86/75 48/87/76 34/34/34 33/33/33
s 7
f 32/35/35 35/36/35 36/37/35 33/38/35
f 46/88/35 51/89/35 62/90/35 61/91/35
f 61/91/35 62/90/35 35/36/35 32/35/35
f 50/92/35 49/93/35 33/38/35 36/37/35
s 8
f 35/39/36 37/40/37 38/41/37 36/42/36
f 37/40/37 39/43/38 40/44/38 38/41/37
f 51/94/36 53/95/37 63/96/37 62/97/36
f 62/97/36 63/96/37 37/40/37 35/39/36
f 52/98/37 50/99/36 36/42/36 38/41/37
f 53/95/37 55/100/38 64/101/38 63/96/37
f 63/96/37 64/101/38 39/43/38 37/40/37
f 54/102/38 52/98/37 38/41/37 40/44/38
s 9
f 41/45/39 1/46/39 4/47/40 42/48/41
f 56/63/63 31/64/39 41/45/39 42/48/41
f 65/103/77 16/104/78 15/105/79 58/106/80
f 41/45/39 65/103/77 58/106/80 1/46/39
f 11/107/81 14/108/82 42/48/41 4/47/40
f 48/115/83 16/104/78 65/103/77 34/116/84
f 34/116/84 65/103/77 41/45/39 31/64/39
f 42/48/41 14/108/82 47/117/85 56/63/63
s 10
f 43/49/42 9/50/42 44/51/42 45/52/42
f 40/65/42 39/66/42 43/49/42 45/52/42
f 66/109/42 30/110/42 29/111/42 10/112/42
f 43/49/42 66/109/42 10/112/42 9/50/42
f 27/113/42 28/114/42 45/52/42 44/51/42
f 55/118/42 30/110/42 66/109/42 64/119/42
f 64/119/42 66/109/42 43/49/42 39/66/42
f 45/52/42 28/114/42 54/120/42 40/65/42
s 11
f 17/17/47 49/56/48 50/57/49 19/19/50
f 19/19/50 50/57/49 52/59/55 23/23/56
f 52/59/55 54/61/59 28/28/60 23/23/56
s 12
f 51/58/51 46/53/52 13/13/53 22/22/54
f 53/60/57 51/58/51 22/22/54 26/26/58
f 30/30/61 55/62/62 53/60/57 26/26/58
s 13
f 67/121/86 68/122/86 69/123/86 70/124/86
s 14
f 71/127/87 73/128/87 74/129/87 72/130/87
s 15
f 73/128/88 67/131/88 70/132/88 74/129/88
s 16
f 71/133/89 68/134/89 67/135/89 73/136/89
f 76/151/89 75/152/89 85/153/89 86/154/96
f 79/159/97 76/151/89 86/154/96 89/160/97
f 81/163/97 79/159/97 89/160/97 91/164/89
f 75/152/89 83/167/89 93/168/89 85/153/89
f 96/195/89 95/196/89 105/197/89 106/198/89
f 99/203/89 96/195/89 106/198/89 109/204/96
f 101/207/96 99/203/89 109/204/96 111/208/96
f 95/196/89 103/211/89 113/212/89 105/197/89
s 17
f 69/137/90 72/138/90 74/139/90 70/140/90
f 78/155/90 77/156/90 87/157/90 88/158/90
f 77/156/90 80/161/90 90/162/90 87/157/90
f 80/161/90 82/165/98 92/166/98 90/162/90
f 84/169/90 78/155/90 88/158/90 94/170/90
f 98/199/90 97/200/90 107/201/90 108/202/90
f 97/200/90 100/205/106 110/206/90 107/201/90
f 100/205/106 102/209/107 112/210/107 110/206/90
f 104/213/90 98/199/90 108/202/90 114/214/90
s 18
f 75/141/91 76/142/92 77/143/92 78/144/91
f 76/142/92 79/145/93 80/146/93 77/143/92
f 83/149/95 75/141/91 78/144/91 84/150/95
f 95/185/91 96/186/92 97/187/92 98/188/91
f 96/186/92 99/189/93 100/190/93 97/187/92
f 103/193/95 95/185/91 98/188/91 104/194/95
s 19
f 79/145/94 81/147/94 82/148/94 80/146/94
f 99/189/94 101/191/94 102/192/94 100/190/94
s 20
f 85/171/99 93/172/100 94/173/100 88/174/99
f 89/176/102 86/179/103 87/180/103 90/177/102
f 86/179/103 85/171/99 88/174/99 87/180/103
f 94/173/100 93/172/100 83/183/105 84/184/105
f 105/215/99 113/216/100 114/217/100 108/218/99
f 109/220/102 106/223/103 107/224/103 110/221/102
f 106/223/103 105/215/99 108/218/99 107/224/103
f 114/217/100 113/216/100 103/227/105 104/228/105
s 21
f 91/175/101 89/176/101 90/177/101 92/178/101
f 111/219/101 109/220/101 110/221/101 112/222/101
s 22
f 91/175/104 92/178/104 82/181/104 81/182/104
f 111/219/104 112/222/104 102/225/104 101/226/104

g cabina

# 0 positions

# 0 texture coordinates

# 0 normals

usemtl default
s 23
f 115/229/108 116/230/109 117/231/110 118/232/111
f 126/251/125 134/252/126 118/232/111 117/231/110
f 123/263/135 126/251/125 117/231/110 137/264/136
f 137/264/136 117/231/110 116/230/109 140/270/141
f 115/229/108 143/271/142 144/272/143 116/230/109
f 148/288/155 144/272/143 143/271/142 157/289/156
f 147/300/165 161/301/166 144/272/143 148/288/155
f 161/301/166 140/270/141 116/230/109 144/272/143
s 24
f 119/233/112 120/234/112 121/235/112 122/236/112
f 131/245/112 132/246/112 119/233/112 122/236/112
f 135/253/112 128/254/112 122/236/112 121/235/112
f 122/236/112 128/254/112 127/265/112 131/245/112
f 119/233/112 145/273/112 146/274/112 120/234/112
f 155/283/112 145/273/112 119/233/112 132/246/112
f 158/290/112 146/274/112 145/273/112 154/291/112
f 145/273/112 155/283/112 151/302/112 154/291/112
s 25
f 123/237/113 124/238/114 125/239/115 126/240/116
f 127/241/117 128/242/118 129/243/119 130/244/120
f 124/238/114 130/244/120 129/243/119 125/239/115
f 133/247/121 134/248/122 126/240/116 125/239/115
f 135/249/123 136/250/124 129/243/119 128/242/118
f 136/250/124 133/247/121 125/239/115 129/243/119
s 26
f 124/255/127 123/256/128 137/257/129 138/258/130
f 127/259/131 130/260/132 139/261/133 131/262/134
f 130/260/132 124/255/127 138/258/130 139/261/133
f 138/258/130 137/257/129 140/266/137 141/267/138
f 131/262/134 139/261/133 142/268/139 132/269/140
f 139/261/133 138/258/130 141/267/138 142/268/139
f 150/292/157 160/293/158 161/294/159 147/295/160
f 151/296/161 155/297/162 162/298/163 152/299/164
f 152/299/164 162/298/163 160/293/158 150/292/157
f 160/293/158 141/267/138 140/266/137 161/294/159
f 155/297/162 132/269/140 142/268/139 162/298/163
f 162/298/163 142/268/139 141/267/138 160/293/158
s 27
f 147/275/144 148/276/145 149/277/146 150/278/147
f 151/279/148 152/280/149 153/281/150 154/282/151
f 150/278/147 149/277/146 153/281/150 152/280/149
f 156/284/152 149/277/146 148/276/145 157/285/153
f 158/286/154 154/282/151 153/281/150 159/287/154
f 159/287/154 153/281/150 149/277/146 156/284/152
s 28
f 134/303/167 133/304/167 156/305/167 143/306/167
s 29
f 156/305/168 157/307/168 143/306/168
s 30
f 134/303/169 143/306/169 115/308/169 118/309/169
s 31
f 136/310/170 159/311/170 156/305/170 133/304/170
s 32
f 136/310/171 135/312/171 121/313/171 120/314/171
f 136/310/171 120/314/171 146/315/171 158/316/171
f 136/310/171 158/316/171 159/311/171

# 153 faces
