# Wavefront Obj file
# 
# verts: 160 uv-s: 299
mtllib Frasco_reactivo_2.mtl

g Line003

v 0.184700 0.579800 -0.003700
v 0.184700 0.534500 -0.003700
v 0.188000 0.534500 0.013200
v 0.188000 0.579800 0.013200
v 0.191900 0.527400 -0.003700
v 0.194700 0.527400 0.010500
v 0.196600 0.486400 -0.003700
v 0.199100 0.486400 0.008700
v 0.134100 0.447300 -0.003700
v 0.141300 0.447300 0.032600
v 0.111600 0.414800 -0.003700
v 0.120500 0.414800 0.041200
v 0.104600 0.377500 -0.003700
v 0.114000 0.377500 0.043900
v 0.104200 0.030200 -0.003700
v 0.113700 0.030200 0.044000
v 0.116500 0.009700 -0.003700
v 0.125100 0.009700 0.039300
v 0.166500 0.000400 -0.003700
v 0.171200 0.000400 0.020200
v 0.197600 0.534500 0.027600
v 0.197600 0.579800 0.027600
v 0.202700 0.527400 0.022500
v 0.206100 0.486400 0.019100
v 0.161900 0.447300 0.063300
v 0.146000 0.414800 0.079200
v 0.141000 0.377500 0.084200
v 0.140700 0.030200 0.084500
v 0.149400 0.009700 0.075800
v 0.184700 0.000400 0.040500
v 0.211900 0.534500 0.037200
v 0.211900 0.579800 0.037200
v 0.214700 0.527400 0.030500
v 0.216500 0.486400 0.026100
v 0.192600 0.447300 0.083800
v 0.184000 0.414800 0.104600
v 0.181300 0.377500 0.111200
v 0.181200 0.030200 0.111500
v 0.185900 0.009700 0.100100
v 0.205000 0.000400 0.054000
v 0.228800 0.534500 0.040500
v 0.228800 0.579800 0.040500
v 0.228800 0.527400 0.033300
v 0.228800 0.486400 0.028600
v 0.228800 0.447300 0.091100
v 0.228800 0.414800 0.113600
v 0.228800 0.377500 0.120600
v 0.228800 0.030200 0.121000
v 0.228800 0.009700 0.108700
v 0.228800 0.000400 0.058700
v 0.245800 0.534500 0.037200
v 0.245800 0.579800 0.037200
v 0.243000 0.527400 0.030500
v 0.241200 0.486400 0.026100
v 0.265100 0.447300 0.083800
v 0.273700 0.414800 0.104600
v 0.276400 0.377500 0.111200
v 0.276500 0.030200 0.111500
v 0.271800 0.009700 0.100100
v 0.252700 0.000400 0.054000
v 0.260100 0.534500 0.027600
v 0.260100 0.579800 0.027600
v 0.255000 0.527400 0.022500
v 0.251600 0.486400 0.019100
v 0.295800 0.447300 0.063300
v 0.311700 0.414800 0.079200
v 0.316700 0.377500 0.084200
v 0.317000 0.030200 0.084500
v 0.308300 0.009700 0.075800
v 0.273000 0.000400 0.040500
v 0.269700 0.534500 0.013200
v 0.269700 0.579800 0.013200
v 0.263000 0.527400 0.010500
v 0.258600 0.486400 0.008700
v 0.316400 0.447300 0.032600
v 0.337200 0.414800 0.041200
v 0.343700 0.377500 0.043900
v 0.344000 0.030200 0.044000
v 0.332600 0.009700 0.039300
v 0.286500 0.000400 0.020200
v 0.273000 0.534500 -0.003700
v 0.273000 0.579800 -0.003700
v 0.265800 0.527400 -0.003700
v 0.261100 0.486400 -0.003700
v 0.323600 0.447300 -0.003700
v 0.346100 0.414800 -0.003700
v 0.353100 0.377500 -0.003700
v 0.353500 0.030200 -0.003700
v 0.341200 0.009700 -0.003700
v 0.291200 0.000400 -0.003700
v 0.269700 0.534500 -0.020600
v 0.269700 0.579800 -0.020600
v 0.263000 0.527400 -0.017800
v 0.258600 0.486400 -0.016000
v 0.316400 0.447300 -0.039900
v 0.337200 0.414800 -0.048500
v 0.343700 0.377500 -0.051200
v 0.344000 0.030200 -0.051400
v 0.332600 0.009700 -0.046600
v 0.286500 0.000400 -0.027500
v 0.260100 0.534500 -0.034900
v 0.260100 0.579800 -0.034900
v 0.255000 0.527400 -0.029800
v 0.251600 0.486400 -0.026400
v 0.295800 0.447300 -0.070600
v 0.311700 0.414800 -0.086600
v 0.316700 0.377500 -0.091600
v 0.317000 0.030200 -0.091800
v 0.308300 0.009700 -0.083100
v 0.273000 0.000400 -0.047800
v 0.245800 0.534500 -0.044500
v 0.245800 0.579800 -0.044500
v 0.243000 0.527400 -0.037800
v 0.241200 0.486400 -0.033400
v 0.265100 0.447300 -0.091200
v 0.273700 0.414800 -0.112000
v 0.276400 0.377500 -0.118500
v 0.276500 0.030200 -0.118800
v 0.271800 0.009700 -0.107400
v 0.252700 0.000400 -0.061300
v 0.228800 0.534500 -0.047900
v 0.228800 0.579800 -0.047900
v 0.228800 0.527400 -0.040600
v 0.228800 0.486400 -0.035900
v 0.228800 0.447300 -0.098400
v 0.228800 0.414800 -0.120900
v 0.228800 0.377500 -0.128000
v 0.228800 0.030200 -0.128300
v 0.228800 0.009700 -0.116000
v 0.228800 0.000400 -0.066100
v 0.211900 0.534500 -0.044500
v 0.211900 0.579800 -0.044500
v 0.214700 0.527400 -0.037800
v 0.216500 0.486400 -0.033400
v 0.192600 0.447300 -0.091200
v 0.184000 0.414800 -0.112000
v 0.181300 0.377500 -0.118500
v 0.181200 0.030200 -0.118800
v 0.185900 0.009700 -0.107400
v 0.205000 0.000400 -0.061300
v 0.197600 0.534500 -0.034900
v 0.197600 0.579800 -0.034900
v 0.202700 0.527400 -0.029800
v 0.206100 0.486400 -0.026400
v 0.161900 0.447300 -0.070600
v 0.146000 0.414800 -0.086600
v 0.141000 0.377500 -0.091600
v 0.140700 0.030200 -0.091800
v 0.149400 0.009700 -0.083100
v 0.184700 0.000400 -0.047800
v 0.188000 0.534500 -0.020600
v 0.188000 0.579800 -0.020600
v 0.194700 0.527400 -0.017800
v 0.199100 0.486400 -0.016000
v 0.141300 0.447300 -0.039900
v 0.120500 0.414800 -0.048500
v 0.114000 0.377500 -0.051200
v 0.113700 0.030200 -0.051400
v 0.125100 0.009700 -0.046600
v 0.171200 0.000400 -0.027500
# 160 positions

vt 0.275776 0.594875
vt 0.275775 0.545028
vt 0.294723 0.545027
vt 0.294723 0.594875
vt 0.514326 0.256324
vt 0.516324 0.267284
vt 0.501819 0.272915
vt 0.495992 0.263399
vt 0.252465 0.520531
vt 0.264564 0.476761
vt 0.278060 0.480166
vt 0.267906 0.524435
vt 0.740223 0.313540
vt 0.754516 0.391405
vt 0.710793 0.391299
vt 0.727557 0.313811
vt 0.588557 0.526417
vt 0.622762 0.499651
vt 0.650270 0.540293
vt 0.612292 0.560730
vt 0.655317 0.473531
vt 0.686217 0.518959
vt 0.544801 0.989348
vt 0.545110 0.607185
vt 0.598630 0.607241
vt 0.598191 0.989403
vt 0.756580 0.524858
vt 0.765899 0.500257
vt 0.812517 0.512710
vt 0.808280 0.538691
vt 0.235597 0.190129
vt 0.189144 0.221123
vt 0.170222 0.202194
vt 0.201228 0.155829
vt 0.313767 0.545027
vt 0.313767 0.594874
vt 0.490462 0.283441
vt 0.481465 0.276866
vt 0.291574 0.482936
vt 0.283451 0.527629
vt 0.670629 0.374325
vt 0.715860 0.309167
vt 0.670830 0.585644
vt 0.628871 0.598000
vt 0.709753 0.568068
vt 0.652191 0.607315
vt 0.651568 0.989478
vt 0.860678 0.515650
vt 0.861743 0.541937
vt 0.145495 0.191854
vt 0.156428 0.137135
vt 0.332719 0.545027
vt 0.332719 0.594874
vt 0.483987 0.297442
vt 0.473129 0.294830
vt 0.305198 0.485099
vt 0.299126 0.530109
vt 0.640093 0.343429
vt 0.706725 0.300477
vt 0.102317 0.597828
vt 0.060408 0.582833
vt 0.083559 0.538872
vt 0.121281 0.560788
vt 0.023243 0.563313
vt 0.048847 0.516400
vt 0.705752 0.607415
vt 0.704946 0.989577
vt 0.861633 0.010000
vt 0.860582 0.036288
vt 0.812423 0.039251
vt 0.808172 0.013272
vt 0.118703 0.191869
vt 0.107884 0.137148
vt 0.351667 0.545027
vt 0.351667 0.594875
vt 0.483584 0.312737
vt 0.472659 0.314711
vt 0.318922 0.486651
vt 0.314845 0.531878
vt 0.623518 0.303338
vt 0.701488 0.288979
vt 0.111857 0.498922
vt 0.145681 0.526417
vt 0.080098 0.472063
vt 0.759163 0.607534
vt 0.758228 0.989696
vt 0.765912 0.051689
vt 0.756580 0.027094
vt 0.094073 0.202056
vt 0.063076 0.155549
vt 0.370723 0.545027
vt 0.370722 0.594875
vt 0.489567 0.326872
vt 0.480325 0.333121
vt 0.332810 0.487588
vt 0.330735 0.532958
vt 0.623518 0.259860
vt 0.700999 0.276264
vt 0.145513 0.463550
vt 0.174900 0.495763
vt 0.117713 0.432426
vt 0.812682 0.607677
vt 0.811617 0.989838
vt 0.722755 0.073272
vt 0.708702 0.051013
vt 0.075074 0.220896
vt 0.028726 0.189854
vt 0.389676 0.545028
vt 0.389675 0.594875
vt 0.500653 0.337512
vt 0.494546 0.346821
vt 0.346601 0.487896
vt 0.346601 0.533321
vt 0.639907 0.219682
vt 0.705244 0.264413
vt 0.183836 0.433536
vt 0.208127 0.469731
vt 0.160837 0.398706
vt 0.866243 0.607839
vt 0.864995 0.990000
vt 0.684752 0.103003
vt 0.666526 0.084030
vt 0.064723 0.245590
vt 0.010000 0.234641
vt 0.408720 0.545028
vt 0.408718 0.594876
vt 0.515014 0.343181
vt 0.512913 0.354134
vt 0.360392 0.487588
vt 0.362467 0.532958
vt 0.670440 0.188638
vt 0.713558 0.254995
vt 0.226157 0.409406
vt 0.244843 0.448795
vt 0.208478 0.371608
vt 0.011183 0.989947
vt 0.010000 0.607786
vt 0.063561 0.607633
vt 0.064560 0.989795
vt 0.653522 0.139782
vt 0.631844 0.124848
vt 0.064725 0.272362
vt 0.010000 0.283183
vt 0.427667 0.545029
vt 0.427666 0.594876
vt 0.530559 0.343182
vt 0.532553 0.354141
vt 0.374280 0.486651
vt 0.378357 0.531878
vt 0.710698 0.171687
vt 0.724980 0.249556
vt 0.271588 0.391812
vt 0.284283 0.433514
vt 0.259653 0.351827
vt 0.117080 0.607499
vt 0.117950 0.989661
vt 0.630225 0.182038
vt 0.606023 0.171728
vt 0.074964 0.297073
vt 0.028460 0.328080
vt 0.446615 0.545030
vt 0.446614 0.594877
vt 0.544959 0.337577
vt 0.550890 0.347063
vt 0.388004 0.485099
vt 0.394076 0.530109
vt 0.754308 0.171813
vt 0.737548 0.249303
vt 0.319004 0.381101
vt 0.325426 0.424220
vt 0.313084 0.339788
vt 0.170599 0.607390
vt 0.171232 0.989552
vt 0.615933 0.228013
vt 0.590103 0.222825
vt 0.093738 0.315973
vt 0.062707 0.362332
vt 0.465568 0.545030
vt 0.465566 0.594878
vt 0.556311 0.327049
vt 0.565311 0.333617
vt 0.401628 0.482936
vt 0.409751 0.527629
vt 0.794474 0.188786
vt 0.749244 0.253948
vt 0.367667 0.377507
vt 0.367556 0.421133
vt 0.367907 0.335765
vt 0.224068 0.607301
vt 0.224701 0.989463
vt 0.611066 0.276017
vt 0.584757 0.276027
vt 0.118429 0.326320
vt 0.107496 0.381048
vt 0.161925 0.594878
vt 0.161923 0.545031
vt 0.180876 0.545030
vt 0.180877 0.594878
vt 0.562773 0.313041
vt 0.573632 0.315649
vt 0.415142 0.480167
vt 0.425296 0.524435
vt 0.825103 0.219678
vt 0.758380 0.262638
vt 0.416181 0.381121
vt 0.409682 0.424226
vt 0.422569 0.339879
vt 0.277630 0.607234
vt 0.278018 0.989396
vt 0.615970 0.324017
vt 0.590184 0.329313
vt 0.145203 0.326315
vt 0.156040 0.381039
vt 0.199953 0.545030
vt 0.199954 0.594877
vt 0.563160 0.297634
vt 0.574162 0.295644
vt 0.428638 0.476761
vt 0.440737 0.520531
vt 0.841613 0.259888
vt 0.763635 0.274236
vt 0.463699 0.391893
vt 0.450907 0.433564
vt 0.476125 0.352035
vt 0.331149 0.607185
vt 0.331430 0.989348
vt 0.630320 0.370087
vt 0.606121 0.380405
vt 0.169980 0.316164
vt 0.200939 0.362573
vt 0.218922 0.545029
vt 0.218923 0.594876
vt 0.557209 0.283595
vt 0.566453 0.277347
vt 0.441864 0.472780
vt 0.455886 0.515979
vt 0.841676 0.303226
vt 0.764103 0.286853
vt 0.509010 0.409527
vt 0.490185 0.448842
vt 0.527188 0.371960
vt 0.384560 0.607155
vt 0.384733 0.989318
vt 0.653585 0.412238
vt 0.631911 0.427178
vt 0.188834 0.297297
vt 0.235198 0.328326
vt 0.237875 0.545029
vt 0.237876 0.594876
vt 0.546124 0.272954
vt 0.552230 0.263645
vt 0.454881 0.468216
vt 0.470865 0.510736
vt 0.825196 0.343436
vt 0.759858 0.298704
vt 0.551244 0.433705
vt 0.526784 0.469812
vt 0.574775 0.399224
vt 0.438121 0.607144
vt 0.438050 0.989306
vt 0.684824 0.449011
vt 0.666601 0.467986
vt 0.199207 0.272596
vt 0.253938 0.283537
vt 0.256827 0.545028
vt 0.256828 0.594875
vt 0.531763 0.267288
vt 0.533967 0.256324
vt 0.222337 0.510736
vt 0.238320 0.468216
vt 0.251338 0.472780
vt 0.237316 0.515979
vt 0.794661 0.374480
vt 0.751545 0.308120
vt 0.589548 0.464002
vt 0.559865 0.495869
vt 0.617913 0.433384
vt 0.491591 0.607154
vt 0.491519 0.989316
vt 0.722831 0.478736
vt 0.708690 0.500965
vt 0.199238 0.245797
vt 0.253993 0.234975
vt 0.550753 0.507116
vt 0.564281 0.520521
vt 0.571633 0.537989
vt 0.571633 0.556937
vt 0.564484 0.574601
vt 0.551100 0.588020
vt 0.533524 0.595351
vt 0.514576 0.595351
vt 0.497021 0.588223
vt 0.483601 0.574840
vt 0.476249 0.557372
vt 0.476162 0.538295
vt 0.483398 0.520760
vt 0.496782 0.507341
vt 0.514250 0.499989
vt 0.533197 0.499989
# 299 texture coordinates

vn -1.000000 0.000000 -0.000000
vn -1.000000 0.000000 -0.000000
vn -0.924556 0.000000 0.381047
vn -0.701149 -0.713015 -0.000167
vn -0.967835 -0.251586 0.000031
vn -0.894036 -0.252189 0.370270
vn -0.648548 -0.712812 0.266991
vn -0.993411 -0.114606 0.000041
vn -0.917784 -0.115185 0.380007
vn -0.530151 0.847903 0.000174
vn -0.657184 0.753730 -0.000026
vn -0.606993 0.753689 0.252017
vn -0.489650 0.847914 0.203186
vn -0.924945 0.380102 -0.000001
vn -0.854333 0.380291 0.354253
vn -0.999823 0.018815 0.000091
vn -0.923792 0.018857 0.382430
vn -0.999536 -0.030446 -0.000099
vn -0.923519 -0.030466 0.382342
vn -0.465827 -0.884876 0.000040
vn -0.430586 -0.884797 0.178130
vn -0.183035 -0.983106 0.000016
vn -0.169269 -0.983087 0.069918
vn -0.708582 0.000000 0.705629
vn -0.708582 0.000000 0.705629
vn -0.684278 -0.252681 0.684043
vn -0.496280 -0.713267 0.494931
vn -0.702354 -0.115755 0.702353
vn -0.464480 0.753574 0.465172
vn -0.374761 0.847708 0.375427
vn -0.653524 0.380659 0.654222
vn -0.706951 0.018968 0.707008
vn -0.706780 -0.030420 0.706780
vn -0.329720 -0.884630 0.329720
vn -0.129480 -0.983092 0.129480
vn -0.382090 0.000000 0.924125
vn -0.382090 0.000000 0.924125
vn -0.371403 -0.252698 0.893422
vn -0.267848 -0.713777 0.647133
vn -0.381394 -0.115171 0.917210
vn -0.252435 0.753517 0.607033
vn -0.204009 0.847632 0.489796
vn -0.354558 0.380796 0.853981
vn -0.382796 0.018973 0.923638
vn -0.382712 -0.030468 0.923365
vn -0.178313 -0.884813 0.430477
vn -0.070043 -0.983085 0.169228
vn 0.000000 0.000000 1.000000
vn 0.000000 0.000000 1.000000
vn -0.000026 -0.251647 0.967819
vn 0.000010 -0.713231 0.700929
vn 0.000041 -0.114606 0.993411
vn -0.000026 0.753552 0.657388
vn 0.000176 0.847806 0.530306
vn -0.000001 0.380706 0.924696
vn 0.000000 0.018926 0.999821
vn 0.000000 -0.030448 0.999536
vn -0.000003 -0.884851 0.465874
vn 0.000016 -0.983106 0.183035
vn 0.381047 0.000000 0.924556
vn 0.381047 0.000000 0.924556
vn 0.370161 -0.252758 0.893920
vn 0.267113 -0.713818 0.647391
vn 0.380007 -0.115185 0.917784
vn 0.252088 0.753520 0.607173
vn 0.203398 0.847651 0.490017
vn 0.354192 0.380798 0.854131
vn 0.382424 0.018973 0.923792
vn 0.382342 -0.030466 0.923519
vn 0.178130 -0.884797 0.430586
vn 0.069918 -0.983087 0.169269
vn 0.708582 0.000000 0.705629
vn 0.708582 0.000000 0.705629
vn 0.684278 -0.252682 0.684043
vn 0.496280 -0.713267 0.494931
vn 0.702353 -0.115755 0.702354
vn 0.464480 0.753574 0.465172
vn 0.374761 0.847708 0.375427
vn 0.653524 0.380659 0.654222
vn 0.706951 0.018968 0.707008
vn 0.706779 -0.030420 0.706780
vn 0.329720 -0.884630 0.329720
vn 0.129480 -0.983092 0.129480
vn 0.924556 0.000000 0.381047
vn 0.894036 -0.252189 0.370270
vn 0.648549 -0.712811 0.266991
vn 0.917784 -0.115186 0.380007
vn 0.606993 0.753689 0.252017
vn 0.489650 0.847914 0.203186
vn 0.854332 0.380291 0.354253
vn 0.923792 0.018857 0.382430
vn 0.923519 -0.030466 0.382342
vn 0.430586 -0.884797 0.178130
vn 0.169269 -0.983087 0.069918
vn 1.000000 0.000000 0.000000
vn 1.000000 0.000000 0.000000
vn 0.967835 -0.251586 0.000031
vn 0.701150 -0.713014 -0.000167
vn 0.993411 -0.114606 0.000041
vn 0.657184 0.753730 -0.000026
vn 0.530151 0.847903 0.000174
vn 0.924945 0.380102 -0.000001
vn 0.999823 0.018815 0.000091
vn 0.999536 -0.030446 -0.000099
vn 0.465827 -0.884876 0.000040
vn 0.183036 -0.983106 0.000016
vn 0.924125 0.000000 -0.382090
vn 0.924125 0.000000 -0.382090
vn 0.893422 -0.252698 -0.371403
vn 0.647133 -0.713776 -0.267848
vn 0.917210 -0.115171 -0.381394
vn 0.606833 0.753750 -0.252221
vn 0.489428 0.847895 -0.203798
vn 0.854236 0.380424 -0.354343
vn 0.923640 0.018871 -0.382797
vn 0.923516 -0.030502 -0.382345
vn 0.430455 -0.884842 -0.178223
vn 0.169228 -0.983085 -0.070043
vn 0.707107 0.000000 -0.707107
vn 0.707107 0.000000 -0.707107
vn 0.684128 -0.252857 -0.684128
vn 0.495155 -0.713893 -0.495155
vn 0.702353 -0.115755 -0.702354
vn 0.464657 0.753789 -0.464646
vn 0.375048 0.847749 -0.375048
vn 0.653801 0.380810 -0.653856
vn 0.706873 0.018860 -0.707089
vn 0.706376 -0.030513 -0.707179
vn 0.329538 -0.884701 -0.329711
vn 0.129480 -0.983092 -0.129480
vn 0.383568 0.000000 -0.923513
vn 0.370403 -0.253070 -0.893732
vn 0.267614 -0.714920 -0.645967
vn 0.380007 -0.115185 -0.917784
vn 0.251805 0.753785 -0.606962
vn 0.203186 0.847914 -0.489650
vn 0.353720 0.380781 -0.854335
vn 0.382323 0.018799 -0.923838
vn 0.382407 -0.030587 -0.923487
vn 0.178229 -0.884762 -0.430617
vn 0.070078 -0.983065 -0.169326
vn -0.000000 0.000000 -1.000000
vn -0.000000 0.000000 -1.000000
vn -0.000026 -0.253139 -0.967430
vn 0.000012 -0.715859 -0.698245
vn 0.000041 -0.114606 -0.993411
vn -0.000026 0.753730 -0.657184
vn 0.000174 0.847903 -0.530151
vn -0.000001 0.380678 -0.924708
vn 0.000000 0.018798 -0.999823
vn 0.000000 -0.030589 -0.999532
vn -0.000003 -0.884626 -0.466301
vn 0.000016 -0.983083 -0.183162
vn -0.384615 0.000000 -0.923077
vn -0.384615 0.000000 -0.923077
vn -0.371645 -0.253008 -0.893234
vn -0.268350 -0.714875 -0.645711
vn -0.381394 -0.115171 -0.917210
vn -0.252151 0.753781 -0.606823
vn -0.203798 0.847895 -0.489428
vn -0.354086 0.380778 -0.854184
vn -0.382694 0.018798 -0.923684
vn -0.382778 -0.030588 -0.923334
vn -0.178412 -0.884778 -0.430509
vn -0.070203 -0.983064 -0.169285
vn -0.707107 0.000000 -0.707107
vn -0.707107 0.000000 -0.707107
vn -0.684128 -0.252857 -0.684128
vn -0.495155 -0.713893 -0.495155
vn -0.702354 -0.115755 -0.702353
vn -0.464657 0.753789 -0.464646
vn -0.375048 0.847749 -0.375048
vn -0.653801 0.380810 -0.653856
vn -0.706873 0.018860 -0.707089
vn -0.706376 -0.030513 -0.707179
vn -0.329538 -0.884701 -0.329711
vn -0.129480 -0.983092 -0.129480
vn -0.924125 0.000000 -0.382090
vn -0.893422 -0.252698 -0.371403
vn -0.647133 -0.713777 -0.267848
vn -0.917210 -0.115171 -0.381394
vn -0.606833 0.753750 -0.252221
vn -0.489428 0.847895 -0.203798
vn -0.854236 0.380424 -0.354343
vn -0.923640 0.018871 -0.382797
vn -0.923516 -0.030502 -0.382345
vn -0.430455 -0.884842 -0.178223
vn -0.169228 -0.983085 -0.070043
vn 0.000000 -1.000000 0.000000
vn 0.000000 1.000000 0.000000
# 190 normals

usemtl default
s 1
f 1/1/1 2/2/2 3/3/3 4/4/3
f 4/4/3 3/3/3 21/35/24 22/36/25
f 22/36/25 21/35/24 31/52/36 32/53/37
f 32/53/37 31/52/36 41/74/48 42/75/49
f 42/75/49 41/74/48 51/91/60 52/92/61
f 52/92/61 51/91/60 61/108/72 62/109/73
f 62/109/73 61/108/72 71/125/84 72/126/84
f 72/126/84 71/125/84 81/144/95 82/145/96
f 82/145/96 81/144/95 91/161/107 92/162/108
f 92/162/108 91/161/107 101/178/119 102/179/120
f 102/195/120 101/196/119 111/197/131 112/198/131
f 112/198/131 111/197/131 121/214/142 122/215/143
f 122/215/143 121/214/142 131/231/154 132/232/155
f 132/232/155 131/231/154 141/248/166 142/249/167
f 142/249/167 141/248/166 151/265/178 152/266/178
f 152/266/178 151/265/178 2/2/2 1/1/1
s 2
f 2/5/4 5/6/5 6/7/6 3/8/7
f 5/9/5 7/10/8 8/11/9 6/12/6
f 3/8/7 6/7/6 23/37/26 21/38/27
f 6/12/6 8/11/9 24/39/28 23/40/26
f 21/38/27 23/37/26 33/54/38 31/55/39
f 23/40/26 24/39/28 34/56/40 33/57/38
f 31/55/39 33/54/38 43/76/50 41/77/51
f 33/57/38 34/56/40 44/78/52 43/79/50
f 41/77/51 43/76/50 53/93/62 51/94/63
f 43/79/50 44/78/52 54/95/64 53/96/62
f 51/94/63 53/93/62 63/110/74 61/111/75
f 53/96/62 54/95/64 64/112/76 63/113/74
f 61/111/75 63/110/74 73/127/85 71/128/86
f 63/113/74 64/112/76 74/129/87 73/130/85
f 71/128/86 73/127/85 83/146/97 81/147/98
f 73/130/85 74/129/87 84/148/99 83/149/97
f 81/147/98 83/146/97 93/163/109 91/164/110
f 83/149/97 84/148/99 94/165/111 93/166/109
f 91/164/110 93/163/109 103/180/121 101/181/122
f 93/166/109 94/165/111 104/182/123 103/183/121
f 101/181/122 103/180/121 113/199/132 111/200/133
f 103/183/121 104/182/123 114/201/134 113/202/132
f 111/200/133 113/199/132 123/216/144 121/217/145
f 113/202/132 114/201/134 124/218/146 123/219/144
f 121/217/145 123/216/144 133/233/156 131/234/157
f 123/219/144 124/218/146 134/235/158 133/236/156
f 131/234/157 133/233/156 143/250/168 141/251/169
f 133/236/156 134/235/158 144/252/170 143/253/168
f 141/251/169 143/250/168 153/267/179 151/268/180
f 143/269/168 144/270/170 154/271/181 153/272/179
f 151/268/180 153/267/179 5/6/5 2/5/4
f 153/272/179 154/271/181 7/10/8 5/9/5
s 3
f 7/13/10 9/14/11 10/15/12 8/16/13
f 9/17/11 11/18/14 12/19/15 10/20/12
f 11/18/14 13/21/16 14/22/17 12/19/15
f 13/23/16 15/24/18 16/25/19 14/26/17
f 15/27/18 17/28/20 18/29/21 16/30/19
f 17/31/20 19/32/22 20/33/23 18/34/21
f 8/16/13 10/15/12 25/41/29 24/42/30
f 10/20/12 12/19/15 26/43/31 25/44/29
f 12/19/15 14/22/17 27/45/32 26/43/31
f 14/26/17 16/25/19 28/46/33 27/47/32
f 16/30/19 18/29/21 29/48/34 28/49/33
f 18/34/21 20/33/23 30/50/35 29/51/34
f 24/42/30 25/41/29 35/58/41 34/59/42
f 25/60/29 26/61/31 36/62/43 35/63/41
f 26/61/31 27/64/32 37/65/44 36/62/43
f 27/47/32 28/46/33 38/66/45 37/67/44
f 28/68/33 29/69/34 39/70/46 38/71/45
f 29/51/34 30/50/35 40/72/47 39/73/46
f 34/59/42 35/58/41 45/80/53 44/81/54
f 35/63/41 36/62/43 46/82/55 45/83/53
f 36/62/43 37/65/44 47/84/56 46/82/55
f 37/67/44 38/66/45 48/85/57 47/86/56
f 38/71/45 39/70/46 49/87/58 48/88/57
f 39/73/46 40/72/47 50/89/59 49/90/58
f 44/81/54 45/80/53 55/97/65 54/98/66
f 45/83/53 46/82/55 56/99/67 55/100/65
f 46/82/55 47/84/56 57/101/68 56/99/67
f 47/86/56 48/85/57 58/102/69 57/103/68
f 48/88/57 49/87/58 59/104/70 58/105/69
f 49/90/58 50/89/59 60/106/71 59/107/70
f 54/98/66 55/97/65 65/114/77 64/115/78
f 55/100/65 56/99/67 66/116/79 65/117/77
f 56/99/67 57/101/68 67/118/80 66/116/79
f 57/103/68 58/102/69 68/119/81 67/120/80
f 58/105/69 59/104/70 69/121/82 68/122/81
f 59/107/70 60/106/71 70/123/83 69/124/82
f 64/115/78 65/114/77 75/131/88 74/132/89
f 65/117/77 66/116/79 76/133/90 75/134/88
f 66/116/79 67/118/80 77/135/91 76/133/90
f 67/136/80 68/137/81 78/138/92 77/139/91
f 68/122/81 69/121/82 79/140/93 78/141/92
f 69/124/82 70/123/83 80/142/94 79/143/93
f 74/132/89 75/131/88 85/150/100 84/151/101
f 75/134/88 76/133/90 86/152/102 85/153/100
f 76/133/90 77/135/91 87/154/103 86/152/102
f 77/139/91 78/138/92 88/155/104 87/156/103
f 78/141/92 79/140/93 89/157/105 88/158/104
f 79/143/93 80/142/94 90/159/106 89/160/105
f 84/151/101 85/150/100 95/167/112 94/168/113
f 85/153/100 86/152/102 96/169/114 95/170/112
f 86/152/102 87/154/103 97/171/115 96/169/114
f 87/156/103 88/155/104 98/172/116 97/173/115
f 88/158/104 89/157/105 99/174/117 98/175/116
f 89/160/105 90/159/106 100/176/118 99/177/117
f 94/168/113 95/167/112 105/184/124 104/185/125
f 95/170/112 96/169/114 106/186/126 105/187/124
f 96/169/114 97/171/115 107/188/127 106/186/126
f 97/173/115 98/172/116 108/189/128 107/190/127
f 98/175/116 99/174/117 109/191/129 108/192/128
f 99/177/117 100/176/118 110/193/130 109/194/129
f 104/185/125 105/184/124 115/203/135 114/204/136
f 105/187/124 106/186/126 116/205/137 115/206/135
f 106/186/126 107/188/127 117/207/138 116/205/137
f 107/190/127 108/189/128 118/208/139 117/209/138
f 108/192/128 109/191/129 119/210/140 118/211/139
f 109/194/129 110/193/130 120/212/141 119/213/140
f 114/204/136 115/203/135 125/220/147 124/221/148
f 115/206/135 116/205/137 126/222/149 125/223/147
f 116/205/137 117/207/138 127/224/150 126/222/149
f 117/209/138 118/208/139 128/225/151 127/226/150
f 118/211/139 119/210/140 129/227/152 128/228/151
f 119/213/140 120/212/141 130/229/153 129/230/152
f 124/221/148 125/220/147 135/237/159 134/238/160
f 125/223/147 126/222/149 136/239/161 135/240/159
f 126/222/149 127/224/150 137/241/162 136/239/161
f 127/226/150 128/225/151 138/242/163 137/243/162
f 128/228/151 129/227/152 139/244/164 138/245/163
f 129/230/152 130/229/153 140/246/165 139/247/164
f 134/238/160 135/237/159 145/254/171 144/255/172
f 135/240/159 136/239/161 146/256/173 145/257/171
f 136/239/161 137/241/162 147/258/174 146/256/173
f 137/243/162 138/242/163 148/259/175 147/260/174
f 138/245/163 139/244/164 149/261/176 148/262/175
f 139/247/164 140/246/165 150/263/177 149/264/176
f 144/255/172 145/254/171 155/273/182 154/274/183
f 145/257/171 146/256/173 156/275/184 155/276/182
f 146/256/173 147/258/174 157/277/185 156/275/184
f 147/260/174 148/259/175 158/278/186 157/279/185
f 148/262/175 149/261/176 159/280/187 158/281/186
f 149/264/176 150/263/177 160/282/188 159/283/187
f 154/274/183 155/273/182 9/14/11 7/13/10
f 155/276/182 156/275/184 11/18/14 9/17/11
f 156/275/184 157/277/185 13/21/16 11/18/14
f 157/279/185 158/278/186 15/24/18 13/23/16
f 158/281/186 159/280/187 17/28/20 15/27/18
f 159/283/187 160/282/188 19/32/22 17/31/20
s 4
f 19/32/189 160/282/189 150/263/189 140/246/189 130/229/189 120/212/189 110/193/189 100/176/189 90/159/189 80/142/189 70/123/189 60/106/189 50/89/189 40/72/189 30/50/189 20/33/189
s 5
f 4/284/190 22/285/190 32/286/190 42/287/190 52/288/190 62/289/190 72/290/190 82/291/190 92/292/190 102/293/190 112/294/190 122/295/190 132/296/190 142/297/190 152/298/190 1/299/190

# 146 faces
