# Wavefront Obj file
# 
# verts: 138 uv-s: 345
mtllib decoracion.mtl

g matas

v -0.227700 -0.021400 -0.464800
v -0.272000 -0.021400 -0.509100
v -0.226600 -0.021400 -0.554500
v -0.182300 -0.021400 -0.510200
v -0.227700 0.014000 -0.464800
v -0.182300 0.014000 -0.510200
v -0.226600 0.014000 -0.554500
v -0.272000 0.014000 -0.509100
v -0.177200 -0.071000 -0.509600
v -0.227200 -0.071000 -0.559600
v -0.227200 -0.009600 -0.559600
v -0.177200 -0.009600 -0.509600
v -0.277200 -0.071000 -0.509600
v -0.277200 -0.009600 -0.509600
v -0.227200 -0.071000 -0.459600
v -0.227200 -0.009600 -0.459600
v -0.202200 -0.071000 -0.509600
v -0.227200 -0.071000 -0.534600
v -0.252200 -0.071000 -0.509600
v -0.227200 -0.071000 -0.484600
v -0.227200 -0.071000 -0.509600
v -0.227200 -0.009600 -0.555700
v -0.181100 -0.009600 -0.509600
v -0.273200 -0.009600 -0.509600
v -0.227200 -0.009600 -0.463600
v -0.181100 -0.068100 -0.509600
v -0.227200 -0.068100 -0.555700
v -0.227200 -0.068100 -0.509600
v -0.273200 -0.068100 -0.509600
v -0.227200 -0.068100 -0.463600
v -0.311600 -0.069400 -0.334400
v -0.312900 -0.069100 -0.336200
v -0.312900 0.078600 -0.310200
v -0.311600 0.078300 -0.308300
v -0.315200 -0.069200 -0.335500
v -0.315200 0.078500 -0.309500
v -0.315200 -0.069600 -0.333200
v -0.315200 0.078100 -0.307200
v -0.312900 -0.069700 -0.332500
v -0.312900 0.078000 -0.306500
v -0.312600 -0.071300 -0.334700
v -0.313200 -0.071200 -0.335600
v -0.314400 -0.071200 -0.335300
v -0.314400 -0.071400 -0.334100
v -0.313200 -0.071500 -0.333800
v -0.313600 -0.072800 -0.335000
v -0.313000 0.078600 -0.309900
v -0.311900 0.078300 -0.308300
v -0.314900 0.078500 -0.309300
v -0.314900 0.078100 -0.307300
v -0.313000 0.078000 -0.306700
v -0.311900 0.080700 -0.307900
v -0.313000 0.080900 -0.309500
v -0.313600 0.080700 -0.307900
v -0.314900 0.080800 -0.308900
v -0.314900 0.080500 -0.306900
v -0.313000 0.080400 -0.306300
v -0.311700 -0.069400 -0.345600
v -0.313600 -0.068900 -0.346800
v -0.300300 0.074700 -0.305200
v -0.298400 0.074100 -0.304000
v -0.315500 -0.069100 -0.345400
v -0.302200 0.074400 -0.303800
v -0.314700 -0.069800 -0.343300
v -0.301400 0.073700 -0.301700
v -0.312300 -0.070000 -0.343400
v -0.299100 0.073500 -0.301800
v -0.312800 -0.071300 -0.345800
v -0.313800 -0.071000 -0.346400
v -0.314700 -0.071100 -0.345700
v -0.314300 -0.071500 -0.344700
v -0.313100 -0.071600 -0.344700
v -0.313900 -0.072700 -0.345900
v -0.300300 0.074600 -0.305000
v -0.298700 0.074100 -0.303900
v -0.301900 0.074400 -0.303800
v -0.301200 0.073800 -0.302000
v -0.299300 0.073600 -0.302100
v -0.298500 0.076400 -0.303200
v -0.300100 0.076800 -0.304300
v -0.300100 0.076400 -0.302700
v -0.301700 0.076600 -0.303100
v -0.301000 0.076100 -0.301300
v -0.299000 0.075900 -0.301400
v -0.257400 -0.076900 -0.344700
v -0.282200 -0.076900 -0.387700
v -0.282200 0.046300 -0.387700
v -0.257400 0.046300 -0.344700
v -0.331900 -0.076900 -0.387700
v -0.331900 0.046300 -0.387700
v -0.356700 -0.076900 -0.344700
v -0.356700 0.046300 -0.344700
v -0.331900 -0.076900 -0.301800
v -0.331900 0.046300 -0.301800
v -0.282200 -0.076900 -0.301800
v -0.282200 0.046300 -0.301800
v -0.282200 -0.076900 -0.344700
v -0.294600 -0.076900 -0.366200
v -0.319500 -0.076900 -0.366200
v -0.331900 -0.076900 -0.344700
v -0.319500 -0.076900 -0.323200
v -0.294600 -0.076900 -0.323200
v -0.307000 -0.076900 -0.344700
v -0.285900 0.046300 -0.381400
v -0.264700 0.046300 -0.344700
v -0.328200 0.046300 -0.381400
v -0.349400 0.046300 -0.344700
v -0.328200 0.046300 -0.308100
v -0.285900 0.046300 -0.308100
v -0.264700 -0.073300 -0.344700
v -0.285900 -0.073300 -0.381400
v -0.307000 -0.073300 -0.344700
v -0.328200 -0.073300 -0.381400
v -0.349400 -0.073300 -0.344700
v -0.328200 -0.073300 -0.308100
v -0.285900 -0.073300 -0.308100
v -0.205500 0.073100 0.511300
v -0.203300 0.073100 0.510500
v -0.273800 0.073100 0.316800
v -0.276000 0.073100 0.317600
v -0.251200 -0.080900 0.527900
v -0.321700 -0.080900 0.334200
v -0.155200 -0.080900 0.493000
v -0.225700 -0.080900 0.299300
v -0.201300 0.073100 0.509700
v -0.271800 0.073100 0.316000
v -0.158100 -0.078100 0.494000
v -0.228600 -0.078100 0.300300
v -0.247600 -0.078100 0.526600
v -0.318100 -0.078100 0.332900
v 0.016500 -0.074700 0.313300
v -0.021800 -0.074700 0.482700
v 0.318300 -0.074700 0.559600
v 0.356700 -0.074700 0.390200
v -0.201300 0.073100 0.509700
v -0.155200 -0.080900 0.493000
v -0.225700 -0.080900 0.299300
v -0.271800 0.073100 0.316000
# 138 positions

vt 0.829501 0.990000
vt 0.829501 0.904580
vt 0.917042 0.904580
vt 0.917042 0.990000
vt 0.835566 0.706056
vt 0.835566 0.618515
vt 0.920986 0.618515
vt 0.920986 0.706056
vt 0.297107 0.146056
vt 0.384648 0.146056
vt 0.384648 0.194323
vt 0.297107 0.194323
vt 0.793846 0.524648
vt 0.793846 0.439228
vt 0.842113 0.439228
vt 0.842113 0.524648
vt 0.793846 0.351687
vt 0.842113 0.351687
vt 0.211687 0.146056
vt 0.211687 0.194323
vt 0.786901 0.331408
vt 0.786901 0.427819
vt 0.703185 0.427819
vt 0.703185 0.331408
vt 0.786901 0.524230
vt 0.703185 0.524230
vt 0.010000 0.133326
vt 0.106410 0.133326
vt 0.106410 0.217042
vt 0.010000 0.217042
vt 0.202821 0.133326
vt 0.202821 0.217042
vt 0.682394 0.169718
vt 0.682394 0.266129
vt 0.658292 0.242026
vt 0.658292 0.193821
vt 0.585984 0.169718
vt 0.610087 0.193821
vt 0.585984 0.266129
vt 0.610087 0.242026
vt 0.634189 0.217924
vt 0.924930 0.246829
vt 0.924930 0.343239
vt 0.921170 0.339479
vt 0.921170 0.250589
vt 0.828519 0.343239
vt 0.832375 0.339383
vt 0.828519 0.246829
vt 0.832376 0.250685
vt 0.481268 0.142174
vt 0.392377 0.142174
vt 0.436822 0.097729
vt 0.392474 0.053380
vt 0.481172 0.053380
vt 0.917042 0.238732
vt 0.828152 0.238732
vt 0.828152 0.158971
vt 0.917042 0.158971
vt 0.577887 0.143001
vt 0.489093 0.143001
vt 0.489093 0.063239
vt 0.577887 0.063239
vt 0.885493 0.819339
vt 0.796795 0.819339
vt 0.796795 0.739577
vt 0.885493 0.739577
vt 0.708001 0.819339
vt 0.708001 0.739577
vt 0.712613 0.728752
vt 0.712744 0.725775
vt 0.949236 0.730741
vt 0.947705 0.727400
vt 0.320357 0.100704
vt 0.320328 0.103985
vt 0.115849 0.103985
vt 0.115880 0.100704
vt 0.320507 0.122394
vt 0.320488 0.125577
vt 0.116007 0.125577
vt 0.116014 0.122395
vt 0.789560 0.104648
vt 0.789531 0.107929
vt 0.585054 0.107928
vt 0.585085 0.104648
vt 0.711776 0.731669
vt 0.950563 0.725775
vt 0.710197 0.728603
vt 0.710076 0.727123
vt 0.323260 0.101478
vt 0.323160 0.103162
vt 0.323225 0.123106
vt 0.323330 0.124923
vt 0.792398 0.105461
vt 0.792486 0.107150
vt 0.709661 0.729894
vt 0.707809 0.728102
vt 0.325493 0.102337
vt 0.325493 0.123758
vt 0.794789 0.106246
vt 0.500469 0.336338
vt 0.497845 0.334554
vt 0.498254 0.334415
vt 0.500469 0.335928
vt 0.498806 0.331410
vt 0.499079 0.331821
vt 0.501997 0.331408
vt 0.501862 0.331819
vt 0.502958 0.334554
vt 0.502685 0.334416
vt 0.510476 0.335016
vt 0.512575 0.333380
vt 0.512683 0.335723
vt 0.514789 0.334961
vt 0.513946 0.337588
vt 0.511227 0.337588
vt 0.512109 0.324866
vt 0.509431 0.324866
vt 0.509396 0.321683
vt 0.512055 0.321549
vt 0.416945 0.316851
vt 0.414225 0.316844
vt 0.414225 0.313662
vt 0.416945 0.313668
vt 0.532446 0.430000
vt 0.532535 0.432779
vt 0.529218 0.432779
vt 0.529263 0.430022
vt 0.531909 0.420141
vt 0.531909 0.422860
vt 0.528592 0.422860
vt 0.528592 0.420141
vt 0.514789 0.324866
vt 0.514733 0.321549
vt 0.849840 0.384877
vt 0.852795 0.385748
vt 0.853910 0.611408
vt 0.849840 0.610882
vt 0.855916 0.385958
vt 0.855380 0.607787
vt 0.789600 0.138169
vt 0.789622 0.141378
vt 0.585106 0.141378
vt 0.585084 0.138169
vt 0.867747 0.606280
vt 0.864463 0.606285
vt 0.864595 0.401699
vt 0.867747 0.401678
vt 0.789582 0.126375
vt 0.789561 0.129590
vt 0.585045 0.129590
vt 0.585081 0.126338
vt 0.851866 0.382287
vt 0.853422 0.382987
vt 0.855020 0.382989
vt 0.792455 0.138964
vt 0.792551 0.140528
vt 0.866920 0.609096
vt 0.865213 0.609182
vt 0.792478 0.127216
vt 0.792470 0.128823
vt 0.853858 0.380658
vt 0.794789 0.139726
vt 0.866404 0.611408
vt 0.794789 0.128090
vt 0.239457 0.505964
vt 0.240477 0.502958
vt 0.240655 0.503205
vt 0.239865 0.505824
vt 0.243724 0.502958
vt 0.243397 0.503203
vt 0.244648 0.506035
vt 0.244172 0.505851
vt 0.242090 0.507881
vt 0.242050 0.507372
vt 0.242676 0.492753
vt 0.241890 0.495339
vt 0.240532 0.493546
vt 0.239148 0.495339
vt 0.238376 0.492731
vt 0.240600 0.491127
vt 0.529246 0.474910
vt 0.529252 0.472177
vt 0.532412 0.472177
vt 0.532535 0.474877
vt 0.529298 0.469437
vt 0.532458 0.469437
vt 0.532535 0.459577
vt 0.532524 0.462335
vt 0.529234 0.462335
vt 0.529375 0.459618
vt 0.531880 0.449806
vt 0.531895 0.452415
vt 0.528592 0.452462
vt 0.528592 0.449718
vt 0.532535 0.439859
vt 0.532527 0.442534
vt 0.529238 0.442534
vt 0.529233 0.439898
vt 0.760629 0.532164
vt 0.828310 0.532164
vt 0.828310 0.700141
vt 0.760629 0.700141
vt 0.528220 0.410282
vt 0.528220 0.342518
vt 0.696197 0.342518
vt 0.696197 0.410282
vt 0.528220 0.274837
vt 0.696197 0.274837
vt 0.406338 0.201268
vt 0.406338 0.268830
vt 0.238361 0.268830
vt 0.238361 0.201268
vt 0.406338 0.336594
vt 0.238361 0.336594
vt 0.693067 0.532164
vt 0.693067 0.700141
vt 0.803756 0.141540
vt 0.837649 0.082958
vt 0.854543 0.112249
vt 0.837595 0.141540
vt 0.448997 0.278169
vt 0.516761 0.278169
vt 0.499854 0.307483
vt 0.465903 0.307483
vt 0.415183 0.336797
vt 0.448997 0.336797
vt 0.899004 0.838169
vt 0.932817 0.896661
vt 0.899004 0.896661
vt 0.882097 0.867347
vt 0.831240 0.838169
vt 0.848146 0.867347
vt 0.905211 0.083026
vt 0.888382 0.112249
vt 0.871437 0.141540
vt 0.482947 0.336797
vt 0.865053 0.896661
vt 0.907847 0.389985
vt 0.849219 0.356171
vt 0.857807 0.351127
vt 0.907847 0.380032
vt 0.904858 0.411309
vt 0.938732 0.469998
vt 0.928771 0.469921
vt 0.899940 0.419974
vt 0.904858 0.528592
vt 0.899882 0.519972
vt 0.371139 0.139046
vt 0.337324 0.080556
vt 0.347285 0.080469
vt 0.376106 0.130420
vt 0.371139 0.021831
vt 0.376065 0.030489
vt 0.966338 0.356171
vt 0.957747 0.351127
vt 0.898601 0.594487
vt 0.898601 0.536698
vt 0.948542 0.565639
vt 0.010000 0.076299
vt 0.067674 0.076299
vt 0.038768 0.126338
vt 0.096580 0.126338
vt 0.942676 0.850000
vt 0.892774 0.821094
vt 0.942676 0.792188
vt 0.892774 0.763420
vt 0.948592 0.623239
vt 0.577887 0.207669
vt 0.577887 0.265457
vt 0.414818 0.265457
vt 0.414818 0.207669
vt 0.704963 0.159859
vt 0.762636 0.159859
vt 0.762636 0.322928
vt 0.704963 0.322928
vt 0.820423 0.159859
vt 0.820423 0.322928
vt 0.822394 0.990000
vt 0.764725 0.990000
vt 0.764725 0.826931
vt 0.822394 0.826931
vt 0.707051 0.990000
vt 0.707051 0.826931
vt 0.577887 0.150000
vt 0.414818 0.150000
vt 0.990000 0.713944
vt 0.990000 0.717135
vt 0.708950 0.717135
vt 0.708950 0.713944
vt 0.700141 0.989958
vt 0.479953 0.990000
vt 0.479953 0.708950
vt 0.700141 0.708908
vt 0.684366 0.700141
vt 0.545094 0.700090
vt 0.545094 0.419039
vt 0.684366 0.419091
vt 0.867747 0.150000
vt 0.867654 0.152936
vt 0.586603 0.152935
vt 0.586696 0.150000
vt 0.471408 0.989936
vt 0.255067 0.990000
vt 0.255067 0.708950
vt 0.471408 0.708889
vt 0.520704 0.345211
vt 0.520672 0.475083
vt 0.239622 0.475083
vt 0.239654 0.345211
vt 0.536479 0.483239
vt 0.536450 0.699178
vt 0.255400 0.699178
vt 0.255429 0.483239
vt 0.878779 0.610457
vt 0.875731 0.611408
vt 0.875731 0.395470
vt 0.879577 0.390271
vt 0.351127 0.134225
vt 0.345909 0.138043
vt 0.216037 0.138044
vt 0.211854 0.134225
vt 0.805729 0.119278
vt 0.585373 0.119307
vt 0.590278 0.116479
vt 0.806620 0.116479
vt 0.342349 0.112564
vt 0.343239 0.115363
vt 0.126897 0.115363
vt 0.121993 0.112535
vt 0.887581 0.606197
vt 0.888365 0.390258
vt 0.891409 0.391219
vt 0.891409 0.611408
vt 0.590685 0.092817
vt 0.720557 0.092817
vt 0.725775 0.096635
vt 0.586502 0.096635
vt 0.010022 0.514451
vt 0.246820 0.514451
vt 0.246830 0.989867
vt 0.010000 0.990000
vt 0.010000 0.225032
vt 0.230357 0.224930
vt 0.230357 0.505980
vt 0.010000 0.506079
# 345 texture coordinates

vn 0.000000 -1.000000 0.000000
vn 0.000000 1.000000 0.000000
vn 0.707107 0.000000 0.707107
vn 0.707106 0.000000 -0.707107
vn -0.707106 0.000000 -0.707107
vn -0.707107 0.000000 0.707107
vn 1.000000 0.000000 0.000000
vn 0.000000 0.000000 -1.000000
vn -1.000000 0.000000 0.000000
vn 0.000000 0.000000 1.000000
vn 0.000000 -1.000000 0.000000
vn 0.000000 1.000000 0.000000
vn 0.000000 1.000000 0.000000
vn 0.000000 1.000000 0.000000
vn 0.000000 1.000000 0.000000
vn -0.707107 0.000000 0.707107
vn 0.707874 0.000000 0.706338
vn 0.707107 0.000000 -0.707107
vn -0.706338 0.000000 -0.707874
vn 1.000000 -0.000000 0.000002
vn 0.326968 0.163952 -0.930705
vn -0.804277 0.103024 -0.585256
vn -0.804279 -0.103024 0.585254
vn 0.326963 -0.163952 0.930707
vn 0.297455 -0.301895 -0.905748
vn 0.894720 -0.439225 -0.080978
vn 0.866799 -0.490506 -0.089800
vn 0.300466 -0.351765 -0.886556
vn -0.712966 -0.356134 -0.604026
vn -0.690288 -0.401386 -0.601990
vn -0.710968 -0.544043 0.445580
vn -0.688118 -0.590481 0.421693
vn 0.304605 -0.592285 0.745932
vn 0.299818 -0.645920 0.702066
vn 0.053984 -0.981868 -0.181719
vn 0.009796 0.992615 0.120914
vn 0.020940 0.997684 0.064711
vn -0.036529 0.994294 0.100227
vn 0.004493 0.994468 0.104945
vn -0.012588 0.996883 0.077886
vn -0.012038 0.988232 0.152489
vn 0.827186 0.094286 -0.553961
vn -0.304890 0.163180 -0.938304
vn -1.000000 0.000000 0.000000
vn -0.304897 -0.156568 0.939428
vn 0.828516 -0.092053 0.552348
vn 0.936858 0.014626 -0.349403
vn -0.019288 0.279939 -0.959824
vn -0.953976 0.161592 -0.252622
vn -0.564394 -0.181163 0.805381
vn 0.606743 -0.272497 0.746732
vn -0.066564 -0.179799 -0.981449
vn 0.789645 -0.416779 -0.450283
vn 0.750482 -0.471292 -0.463315
vn -0.079144 -0.228617 -0.970294
vn -0.888042 -0.294639 -0.352944
vn -0.870580 -0.338636 -0.356955
vn -0.548143 -0.601040 0.581627
vn -0.544699 -0.641176 0.540552
vn 0.499592 -0.687633 0.526849
vn 0.465092 -0.741529 0.483554
vn -0.127350 -0.943418 -0.306177
vn 0.064809 0.943262 0.325664
vn 0.077711 0.936802 0.341121
vn 0.051009 0.946811 0.317721
vn 0.052490 0.947374 0.315796
vn 0.090461 0.949337 0.300958
vn 0.079129 0.962641 0.258962
vn 0.592010 0.190968 -0.782978
vn -0.596948 0.292027 -0.747244
vn -0.934454 -0.027389 0.355028
vn 0.018980 -0.292995 0.955926
vn 0.953877 -0.177388 0.242181
vn 1.000000 0.000000 0.000504
vn 0.500197 0.000000 -0.865912
vn -0.500197 0.000000 -0.865912
vn -1.000000 0.000000 0.000504
vn -0.499760 0.000000 0.866164
vn 0.499760 0.000000 0.866164
vn 0.000000 -1.000000 0.000000
vn 0.000000 1.000000 0.000000
vn 0.000000 1.000000 0.000000
vn 0.000000 1.000000 0.000000
vn 0.000000 1.000000 0.000000
vn -0.865910 0.000000 0.500199
vn 0.000000 0.000000 1.000000
vn 0.865910 0.000000 0.500199
vn 0.865319 0.000000 -0.501222
vn 0.000000 0.000000 -1.000000
vn -0.865319 0.000000 -0.501222
vn 0.000000 1.000000 0.000000
vn -0.896093 0.301074 0.326146
vn 0.000000 -1.000000 0.000000
vn -0.895445 -0.303251 0.325910
vn 0.897114 -0.297613 -0.326518
vn -0.342556 -0.003087 -0.939493
vn 0.342553 0.003088 0.939493
vn 0.342553 0.003088 0.939493
vn 0.000000 1.000000 0.000000
vn 0.895406 0.303381 -0.325896
# 100 normals

usemtl default
f 1/1/1 2/2/1 3/3/1 4/4/1
f 5/5/2 6/6/2 7/7/2 8/8/2
f 1/9/3 4/10/3 6/11/3 5/12/3
f 4/13/4 3/14/4 7/15/4 6/16/4
f 3/14/5 2/17/5 8/18/5 7/15/5
f 2/19/6 1/9/6 5/12/6 8/20/6

g matera

# 0 positions

# 0 texture coordinates

# 0 normals

usemtl default
f 9/21/7 10/22/8 11/23/8 12/24/7
f 10/22/8 13/25/9 14/26/9 11/23/8
f 13/27/9 15/28/10 16/29/10 14/30/9
f 15/28/10 9/31/7 12/32/7 16/29/10
f 10/33/11 9/34/11 17/35/11 18/36/11
f 13/37/11 10/33/11 18/36/11 19/38/11
f 15/39/11 13/37/11 19/38/11 20/40/11
f 9/34/11 15/39/11 20/40/11 17/35/11
f 18/36/11 17/35/11 21/41/11
f 19/38/11 18/36/11 21/41/11
f 20/40/11 19/38/11 21/41/11
f 17/35/11 20/40/11 21/41/11
f 12/42/12 11/43/13 22/44/13 23/45/12
f 11/43/13 14/46/14 24/47/14 22/44/13
f 14/46/14 16/48/12 25/49/15 24/47/14
f 16/48/12 12/42/12 23/45/12 25/49/15
f 26/50/13 27/51/13 28/52/13
f 27/51/13 29/53/13 28/52/13
f 29/53/13 30/54/13 28/52/13
f 30/54/13 26/50/13 28/52/13
f 23/55/16 22/56/16 27/57/16 26/58/16
f 22/59/17 24/60/17 29/61/17 27/62/17
f 24/63/18 25/64/18 30/65/18 29/66/18
f 25/64/19 23/67/19 26/68/19 30/65/19

g esfero2

# 0 positions

# 0 texture coordinates

# 0 normals

usemtl default
f 31/69/20 32/70/21 33/71/21 34/72/20
f 32/73/21 35/74/22 36/75/22 33/76/21
f 35/77/22 37/78/23 38/79/23 36/80/22
f 37/81/23 39/82/24 40/83/24 38/84/23
f 39/85/24 31/69/20 34/72/20 40/86/24
f 32/70/25 31/69/26 41/87/27 42/88/28
f 35/74/29 32/73/25 42/89/28 43/90/30
f 37/78/31 35/77/29 43/91/30 44/92/32
f 39/82/33 37/81/31 44/93/32 45/94/34
f 31/69/26 39/85/33 45/95/34 41/87/27
f 42/88/28 41/87/27 46/96/35
f 43/90/30 42/89/28 46/97/35
f 44/92/32 43/91/30 46/98/35
f 45/94/34 44/93/32 46/99/35
f 41/87/27 45/95/34 46/96/35
f 34/100/36 33/101/37 47/102/37 48/103/36
f 33/101/37 36/104/38 49/105/38 47/102/37
f 36/104/38 38/106/39 50/107/39 49/105/38
f 38/106/39 40/108/40 51/109/40 50/107/39
f 40/108/40 34/100/36 48/103/36 51/109/40
f 52/110/41 53/111/41 54/112/41
f 53/111/41 55/113/41 54/112/41
f 55/113/41 56/114/41 54/112/41
f 56/114/41 57/115/41 54/112/41
f 57/115/41 52/110/41 54/112/41
f 48/116/42 47/117/42 53/118/42 52/119/42
f 47/120/43 49/121/43 55/122/43 53/123/43
f 49/124/44 50/125/44 56/126/44 55/127/44
f 50/128/45 51/129/45 57/130/45 56/131/45
f 51/132/46 48/116/46 52/119/46 57/133/46

g esfero1

# 0 positions

# 0 texture coordinates

# 0 normals

usemtl default
f 58/134/47 59/135/48 60/136/48 61/137/47
f 59/135/48 62/138/49 63/139/49 60/136/48
f 62/140/49 64/141/50 65/142/50 63/143/49
f 64/144/50 66/145/51 67/146/51 65/147/50
f 66/148/51 58/149/47 61/150/47 67/151/51
f 59/135/52 58/134/53 68/152/54 69/153/55
f 62/138/56 59/135/52 69/153/55 70/154/57
f 64/141/58 62/140/56 70/155/57 71/156/59
f 66/145/60 64/144/58 71/157/59 72/158/61
f 58/149/53 66/148/60 72/159/61 68/160/54
f 69/153/55 68/152/54 73/161/62
f 70/154/57 69/153/55 73/161/62
f 71/156/59 70/155/57 73/162/62
f 72/158/61 71/157/59 73/163/62
f 68/160/54 72/159/61 73/164/62
f 61/165/63 60/166/64 74/167/64 75/168/63
f 60/166/64 63/169/65 76/170/65 74/167/64
f 63/169/65 65/171/66 77/172/66 76/170/65
f 65/171/66 67/173/67 78/174/67 77/172/66
f 67/173/67 61/165/63 75/168/63 78/174/67
f 79/175/68 80/176/68 81/177/68
f 80/176/68 82/178/68 81/177/68
f 82/178/68 83/179/68 81/177/68
f 83/179/68 84/180/68 81/177/68
f 84/180/68 79/175/68 81/177/68
f 75/181/69 74/182/69 80/183/69 79/184/69
f 74/182/70 76/185/70 82/186/70 80/183/70
f 76/187/71 77/188/71 83/189/71 82/190/71
f 77/191/72 78/192/72 84/193/72 83/194/72
f 78/195/73 75/196/73 79/197/73 84/198/73

g tarro

# 0 positions

# 0 texture coordinates

# 0 normals

usemtl default
f 85/199/74 86/200/75 87/201/75 88/202/74
f 86/203/75 89/204/76 90/205/76 87/206/75
f 89/204/76 91/207/77 92/208/77 90/205/76
f 91/209/77 93/210/78 94/211/78 92/212/77
f 93/210/78 95/213/79 96/214/79 94/211/78
f 95/215/79 85/199/74 88/202/74 96/216/79
f 86/217/80 85/218/80 97/219/80 98/220/80
f 89/221/80 86/222/80 98/223/80 99/224/80
f 91/225/80 89/221/80 99/224/80 100/226/80
f 93/227/80 91/228/80 100/229/80 101/230/80
f 95/231/80 93/227/80 101/230/80 102/232/80
f 85/218/80 95/233/80 102/234/80 97/219/80
f 98/220/80 97/219/80 103/235/80
f 99/224/80 98/223/80 103/236/80
f 100/226/80 99/224/80 103/236/80
f 101/230/80 100/229/80 103/237/80
f 102/232/80 101/230/80 103/237/80
f 97/219/80 102/234/80 103/235/80
f 88/238/81 87/239/82 104/240/82 105/241/81
f 87/242/82 90/243/83 106/244/83 104/245/82
f 90/243/83 92/246/84 107/247/83 106/244/83
f 92/248/84 94/249/84 108/250/84 107/251/83
f 94/249/84 96/252/81 109/253/81 108/250/84
f 96/254/81 88/238/81 105/241/81 109/255/81
f 110/256/83 111/257/84 112/258/82
f 111/259/84 113/260/81 112/261/82
f 113/260/81 114/262/82 112/261/82
f 114/263/82 115/264/82 112/265/82
f 115/264/82 116/266/83 112/265/82
f 116/267/83 110/256/83 112/258/82
f 105/268/85 104/269/85 111/270/85 110/271/85
f 104/272/86 106/273/86 113/274/86 111/275/86
f 106/273/87 107/276/87 114/277/87 113/274/87
f 107/278/88 108/279/88 115/280/88 114/281/88
f 108/279/89 109/282/89 116/283/89 115/280/89
f 109/284/90 105/268/90 110/271/90 116/285/90

g calendario

# 0 positions

# 0 texture coordinates

# 0 normals

usemtl default
f 117/286/91 118/287/91 119/288/91 120/289/91
f 121/290/92 117/291/92 120/292/92 122/293/92
f 123/294/93 121/295/93 122/296/93 124/297/93
f 118/298/91 125/299/91 126/300/91 119/301/91
f 127/302/94 118/303/94 119/304/94 128/305/94
f 129/306/91 127/307/91 128/308/91 130/309/91
f 118/310/95 129/311/95 130/312/95 119/313/95
f 120/314/96 119/315/96 130/316/96 122/317/96
f 122/318/96 130/319/96 128/320/96 124/321/96
f 126/322/96 124/323/96 128/324/96 119/325/96
f 125/326/97 118/327/97 127/328/97 123/329/98
f 129/330/97 118/331/97 117/332/98 121/333/97
f 127/334/97 129/335/97 121/336/97 123/337/98

g hoja

# 0 positions

# 0 texture coordinates

# 0 normals

usemtl default
f 131/338/99 132/339/99 133/340/99 134/341/99

g vista_calendario

# 0 positions

# 0 texture coordinates

# 0 normals

usemtl default
f 135/342/100 136/343/100 137/344/100 138/345/100

# 141 faces
