# Wavefront Obj file
# 
# verts: 48 uv-s: 144
mtllib tanque_desinfeccion.mtl

g tanque_de_floculacion014

v -53.678699 0.113600 260.569397
v -53.678699 -2.207800 260.569397
v -53.678699 -2.207800 270.704590
v -53.678699 0.113600 270.704590
v -53.518700 -2.207800 270.704590
v -53.518700 -2.207800 260.569397
v -53.518700 0.113600 260.569397
v -53.518700 0.113600 270.704590
v -54.821701 0.113600 259.125092
v -54.821701 -2.207800 259.125092
v -54.821701 -2.207800 269.425507
v -54.821701 0.113600 269.425507
v -54.661701 -2.207800 269.425507
v -54.661701 -2.207800 259.125092
v -54.661701 0.113600 259.125092
v -54.661701 0.113600 269.425507
v -56.006599 0.113600 260.569397
v -56.006599 -2.207800 260.569397
v -56.006599 -2.207800 270.704590
v -56.006599 0.113600 270.704590
v -55.846600 -2.207800 270.704590
v -55.846600 -2.207800 260.569397
v -55.846600 0.113600 260.569397
v -55.846600 0.113600 270.704590
v -57.180401 0.113600 259.125092
v -57.180401 -2.207800 259.125092
v -57.180401 -2.207800 269.425507
v -57.180401 0.113600 269.425507
v -57.020401 -2.207800 269.425507
v -57.020401 -2.207800 259.125092
v -57.020401 0.113600 259.125092
v -57.020401 0.113600 269.425507
v -58.413200 -2.438800 270.935486
v -58.413200 -2.438800 258.894196
v -52.283600 -2.438800 258.894196
v -52.283600 -2.438800 270.935486
v -58.465099 0.396200 270.987488
v -52.231701 0.396200 270.987488
v -52.231701 0.396200 258.842285
v -58.465099 0.396200 258.842285
v -52.514599 -2.207800 259.125092
v -58.182301 -2.207800 259.125092
v -58.182301 -2.207800 270.704590
v -52.514599 -2.207800 270.704590
v -58.182301 0.396200 270.704590
v -52.514599 0.396200 270.704590
v -52.514599 0.396200 259.125092
v -58.182301 0.396200 259.125092
# 48 positions

vt 0.633099 0.359014
vt 0.633099 0.443935
vt 0.262336 0.443935
vt 0.262336 0.359014
vt 0.662676 0.990000
vt 0.662676 0.619237
vt 0.747597 0.619237
vt 0.747597 0.990000
vt 0.646964 0.321681
vt 0.646964 0.236761
vt 0.652817 0.236761
vt 0.652817 0.321681
vt 0.960423 0.234789
vt 0.960423 0.605552
vt 0.954569 0.605552
vt 0.954569 0.234789
vt 0.646901 0.359014
vt 0.646901 0.443935
vt 0.641048 0.443935
vt 0.641048 0.359014
vt 0.968372 0.990000
vt 0.968372 0.619237
vt 0.974225 0.619237
vt 0.974225 0.990000
vt 0.611408 0.236761
vt 0.611408 0.321681
vt 0.234601 0.321681
vt 0.234601 0.236761
vt 0.779014 0.234789
vt 0.779014 0.611596
vt 0.694093 0.611596
vt 0.694093 0.234789
vt 0.660767 0.321681
vt 0.660767 0.236761
vt 0.666620 0.236761
vt 0.666620 0.321681
vt 0.919014 0.398451
vt 0.919014 0.775258
vt 0.913161 0.775258
vt 0.913161 0.398451
vt 0.625211 0.236761
vt 0.625211 0.321681
vt 0.619358 0.321681
vt 0.619358 0.236761
vt 0.926964 0.775070
vt 0.926964 0.398263
vt 0.932817 0.398263
vt 0.932817 0.775070
vt 0.840141 0.990000
vt 0.755220 0.990000
vt 0.755220 0.619237
vt 0.840141 0.619237
vt 0.234789 0.144084
vt 0.605552 0.144084
vt 0.605552 0.229005
vt 0.234789 0.229005
vt 0.654851 0.443935
vt 0.654851 0.359014
vt 0.660704 0.359014
vt 0.660704 0.443935
vt 0.974225 0.240704
vt 0.974225 0.611467
vt 0.968372 0.611467
vt 0.968372 0.240704
vt 0.639014 0.236761
vt 0.639014 0.321681
vt 0.633161 0.321681
vt 0.633161 0.236761
vt 0.899358 0.775070
vt 0.899358 0.404307
vt 0.905211 0.404307
vt 0.905211 0.775070
vt 0.990000 0.142113
vt 0.990000 0.227033
vt 0.613193 0.227033
vt 0.613193 0.142113
vt 0.262394 0.451690
vt 0.639201 0.451690
vt 0.639201 0.536611
vt 0.262394 0.536611
vt 0.646964 0.536611
vt 0.646964 0.451690
vt 0.652817 0.451690
vt 0.652817 0.536611
vt 0.946620 0.398451
vt 0.946620 0.775258
vt 0.940767 0.775258
vt 0.940767 0.398451
vt 0.666620 0.451690
vt 0.666620 0.536611
vt 0.660767 0.536611
vt 0.660767 0.451690
vt 0.954569 0.990000
vt 0.954569 0.613193
vt 0.960423 0.613193
vt 0.960423 0.990000
vt 0.010000 0.990000
vt 0.010000 0.549508
vt 0.234231 0.549508
vt 0.234231 0.990000
vt 0.891409 0.611408
vt 0.787681 0.609510
vt 0.787681 0.385278
vt 0.891409 0.383380
vt 0.010000 0.098732
vt 0.113728 0.100635
vt 0.113728 0.541126
vt 0.010000 0.543025
vt 0.461549 0.031690
vt 0.459651 0.135416
vt 0.235419 0.135416
vt 0.233521 0.031690
vt 0.226121 0.543025
vt 0.122394 0.541126
vt 0.122394 0.100635
vt 0.226121 0.098732
vt 0.449718 0.990000
vt 0.242384 0.990000
vt 0.242384 0.566402
vt 0.449718 0.566402
vt 0.676479 0.134837
vt 0.469144 0.134837
vt 0.469144 0.039577
vt 0.676479 0.039577
vt 0.456994 0.990000
vt 0.456994 0.566402
vt 0.552254 0.566402
vt 0.552254 0.990000
vt 0.847417 0.990000
vt 0.847417 0.782666
vt 0.942676 0.782666
vt 0.942676 0.990000
vt 0.560141 0.990000
vt 0.560141 0.566402
vt 0.655400 0.566402
vt 0.655400 0.990000
vt 0.242045 0.557465
vt 0.242045 0.329437
vt 0.252394 0.339785
vt 0.252394 0.547120
vt 0.686338 0.329437
vt 0.675992 0.339785
vt 0.686338 0.557465
vt 0.675992 0.547120
# 144 texture coordinates

vn -1.000000 0.000000 0.000000
vn 1.000000 0.000000 0.000000
vn 0.000000 0.000000 -1.000000
vn 0.000000 -1.000000 0.000000
vn 0.000000 0.000000 1.000000
vn 0.000000 1.000000 0.000000
vn 0.000000 1.000000 0.000000
vn 0.000000 -0.018340 0.999832
vn 0.999833 -0.018303 0.000000
vn 0.000000 -0.018307 -0.999833
vn -0.999833 -0.018303 0.000000
# 11 normals

usemtl default
f 1/1/1 2/2/1 3/3/1 4/4/1
f 5/5/2 6/6/2 7/7/2 8/8/2
f 2/9/3 1/10/3 7/11/3 6/12/3
f 3/13/4 2/14/4 6/15/4 5/16/4
f 4/17/5 3/18/5 5/19/5 8/20/5
f 1/21/6 4/22/6 8/23/6 7/24/6
f 9/25/1 10/26/1 11/27/1 12/28/1
f 13/29/2 14/30/2 15/31/2 16/32/2
f 10/33/3 9/34/3 15/35/3 14/36/3
f 11/37/4 10/38/4 14/39/4 13/40/4
f 12/41/5 11/42/5 13/43/5 16/44/5
f 9/45/7 12/46/7 16/47/7 15/48/7
f 17/49/1 18/50/1 19/51/1 20/52/1
f 21/53/2 22/54/2 23/55/2 24/56/2
f 18/57/3 17/58/3 23/59/3 22/60/3
f 19/61/4 18/62/4 22/63/4 21/64/4
f 20/65/5 19/66/5 21/67/5 24/68/5
f 17/69/6 20/70/6 24/71/6 23/72/6
f 25/73/1 26/74/1 27/75/1 28/76/1
f 29/77/2 30/78/2 31/79/2 32/80/2
f 26/81/3 25/82/3 31/83/3 30/84/3
f 27/85/4 26/86/4 30/87/4 29/88/4
f 28/89/5 27/90/5 29/91/5 32/92/5
f 25/93/7 28/94/7 32/95/7 31/96/7
f 33/97/4 34/98/4 35/99/4 36/100/4
f 37/101/8 33/102/8 36/103/8 38/104/8
f 38/105/9 36/106/9 35/107/9 39/108/9
f 39/109/10 35/110/10 34/111/10 40/112/10
f 40/113/11 34/114/11 33/115/11 37/116/11
f 41/117/7 42/118/7 43/119/7 44/120/7
f 44/121/3 43/122/3 45/123/3 46/124/3
f 41/125/1 44/126/1 46/127/1 47/128/1
f 42/129/5 41/130/5 47/131/5 48/132/5
f 43/133/2 42/134/2 48/135/2 45/136/2
f 37/137/7 38/138/7 46/139/7 45/140/7
f 38/138/7 39/141/7 47/142/7 46/139/7
f 39/141/7 40/143/7 48/144/7 47/142/7
f 40/143/7 37/137/7 45/140/7 48/144/7

# 38 faces
