# Wavefront Obj file
# 
# verts: 102 uv-s: 244
mtllib muestreador.mtl

g Muestreador

v -0.300000 0.000000 0.200500
v -0.300000 0.000000 -0.199500
v 0.300000 0.000000 -0.199500
v 0.300000 0.000000 0.200500
v -0.273100 0.900000 0.200500
v 0.273100 0.900000 0.200500
v 0.273100 0.900000 -0.199500
v -0.273100 0.900000 -0.199500
v 0.274000 0.507500 -0.099500
v -0.274000 0.507500 -0.099500
v -0.274000 0.248900 -0.099500
v 0.274000 0.248900 -0.099500
v 0.300000 0.531000 -0.199500
v 0.300000 0.531000 0.200500
v 0.300000 0.248900 0.200500
v 0.300000 0.248900 -0.199500
v -0.300000 0.531000 -0.199500
v -0.273100 0.531000 -0.199500
v 0.273100 0.531000 -0.199500
v -0.300000 0.248900 -0.199500
v -0.300000 0.531000 0.200500
v -0.300000 0.248900 0.200500
v -0.273100 0.531000 0.200500
v 0.273100 0.531000 0.200500
v 0.273100 0.881500 0.200500
v -0.273100 0.881500 0.200500
v 0.300000 0.881500 -0.199500
v 0.300000 0.881500 0.200500
v -0.273100 0.881500 -0.199500
v 0.273100 0.881500 -0.199500
v -0.300000 0.881500 0.200500
v -0.300000 0.881500 -0.199500
v -0.274000 0.023500 0.200500
v 0.274000 0.023500 0.200500
v 0.274000 0.248900 0.200500
v -0.274000 0.248900 0.200500
v 0.274000 0.507500 0.200500
v -0.274000 0.507500 0.200500
v 0.295600 0.900000 0.225200
v -0.295600 0.900000 0.225200
v -0.286100 0.881500 0.225200
v 0.295600 0.881500 0.225200
v 0.324700 0.881500 -0.224300
v 0.324700 0.900000 -0.224300
v 0.324700 0.900000 0.225200
v 0.324700 0.881500 0.225200
v -0.295600 0.900000 -0.224300
v 0.295600 0.900000 -0.224300
v 0.295600 0.881500 -0.224300
v -0.295600 0.881500 -0.224300
v -0.324700 0.881500 0.225200
v -0.324700 0.900000 0.225200
v -0.324700 0.900000 -0.224300
v -0.324700 0.881500 -0.224300
v -0.300000 0.900000 0.200500
v -0.300000 0.900000 -0.199500
v 0.300000 0.900000 -0.199500
v 0.300000 0.900000 0.200500
v -0.290300 0.000000 0.209700
v 0.288900 0.000000 0.209700
v 0.274000 0.023500 0.209700
v -0.274000 0.023500 0.209700
v 0.288900 0.531000 0.209700
v 0.273100 0.531000 0.209700
v -0.273100 0.531000 0.209700
v -0.290300 0.531000 0.209700
v -0.274000 0.507500 0.209700
v 0.274000 0.507500 0.209700
v -0.300000 0.000000 0.200500
v 0.300000 0.000000 0.200500
v 0.273100 0.531000 0.200500
v -0.273100 0.531000 0.200500
v 0.274000 0.023500 0.200500
v -0.274000 0.023500 0.200500
v -0.274000 0.507500 0.200500
v 0.274000 0.507500 0.200500
v 0.288900 0.359400 0.209700
v 0.274000 0.351100 0.209700
v 0.274000 0.179900 0.209700
v 0.288900 0.171600 0.209700
v -0.273100 0.881500 0.209700
v -0.290300 0.881500 0.209700
v 0.288900 0.787100 0.209700
v 0.288900 0.881500 0.209700
v 0.273100 0.881500 0.209700
v 0.273100 0.787100 0.209700
v 0.273100 0.625500 0.209700
v 0.288900 0.625500 0.209700
v 0.300000 0.359400 0.200500
v 0.300000 0.531000 0.200500
v 0.300000 0.171600 0.200500
v 0.300000 0.787100 0.200500
v 0.300000 0.881500 0.200500
v 0.300000 0.625500 0.200500
v 0.273100 0.625500 0.200500
v 0.273100 0.881500 0.200500
v 0.273100 0.787100 0.200500
v -0.273100 0.882000 0.200500
v -0.300000 0.531000 0.200500
v -0.300000 0.881500 0.200500
v 0.274000 0.179900 0.200500
v 0.274000 0.351100 0.200500
# 102 positions

vt 0.528946 0.231586
vt 0.528946 0.040882
vt 0.815000 0.040882
vt 0.815000 0.231586
vt 0.674111 0.303650
vt 0.934517 0.303650
vt 0.934517 0.494353
vt 0.674112 0.494353
vt 0.946525 0.022353
vt 0.946525 0.283616
vt 0.823235 0.283616
vt 0.823235 0.022353
vt 0.598824 0.736842
vt 0.789527 0.736842
vt 0.789527 0.871335
vt 0.598824 0.871335
vt 0.010019 0.736844
vt 0.022844 0.736840
vt 0.283241 0.736835
vt 0.296066 0.736842
vt 0.296071 0.871336
vt 0.010018 0.871336
vt 0.010000 0.308868
vt 0.200703 0.308868
vt 0.200703 0.443362
vt 0.010000 0.443362
vt 0.317256 0.822879
vt 0.577656 0.822903
vt 0.577637 0.990000
vt 0.317236 0.989979
vt 0.598824 0.569738
vt 0.789527 0.569738
vt 0.022825 0.569739
vt 0.283248 0.569737
vt 0.010000 0.141765
vt 0.200703 0.141765
vt 0.316808 0.580933
vt 0.578066 0.580922
vt 0.578076 0.688381
vt 0.316816 0.688391
vt 0.010000 0.010000
vt 0.153027 0.010000
vt 0.153027 0.133290
vt 0.010000 0.133290
vt 0.493824 0.212733
vt 0.232560 0.212733
vt 0.232560 0.069706
vt 0.493824 0.069706
vt 0.226177 0.548672
vt 0.226177 0.266818
vt 0.234998 0.271345
vt 0.234997 0.548672
vt 0.324815 0.790879
vt 0.324815 0.782059
vt 0.539118 0.782059
vt 0.539118 0.790879
vt 0.209708 0.548674
vt 0.209706 0.266815
vt 0.218526 0.266815
vt 0.218528 0.548675
vt 0.324815 0.774408
vt 0.324815 0.765588
vt 0.539118 0.765588
vt 0.539118 0.774408
vt 0.663384 0.291874
vt 0.945244 0.291874
vt 0.661286 0.303650
vt 0.661287 0.494353
vt 0.649511 0.506176
vt 0.649510 0.291874
vt 0.945244 0.506176
vt 0.663384 0.506176
vt 0.947342 0.494353
vt 0.947341 0.303650
vt 0.959117 0.291874
vt 0.959118 0.506176
vt 0.235178 0.030192
vt 0.224510 0.018385
vt 0.501656 0.018597
vt 0.495438 0.030380
vt 0.221701 0.221183
vt 0.209826 0.232893
vt 0.210734 0.018235
vt 0.222352 0.030195
vt 0.234601 0.221249
vt 0.495863 0.221182
vt 0.506626 0.232982
vt 0.223788 0.233037
vt 0.508734 0.221169
vt 0.508293 0.030374
vt 0.519920 0.018386
vt 0.520588 0.232893
vt 0.296073 0.569738
vt 0.010000 0.569741
vt 0.226176 0.252947
vt 0.234996 0.252941
vt 0.234997 0.562546
vt 0.226177 0.562546
vt 0.209706 0.252942
vt 0.218526 0.252941
vt 0.218526 0.562549
vt 0.209706 0.562548
vt 0.316829 0.811675
vt 0.304432 0.822878
vt 0.304420 0.688391
vt 0.590460 0.569717
vt 0.590472 0.688381
vt 0.304412 0.989978
vt 0.590481 0.822875
vt 0.590461 0.989999
vt 0.304412 0.569731
vt 0.578085 0.811671
vt 0.789527 0.990000
vt 0.598824 0.990000
vt 0.296071 0.990000
vt 0.010018 0.990000
vt 0.200703 0.562027
vt 0.010000 0.562027
vt 0.798770 0.578235
vt 0.922059 0.578235
vt 0.922059 0.721263
vt 0.798770 0.721263
vt 0.797561 0.990000
vt 0.797561 0.728736
vt 0.940588 0.728736
vt 0.940588 0.990000
vt 0.293999 0.554861
vt 0.245797 0.285840
vt 0.257953 0.290805
vt 0.303673 0.545389
vt 0.534182 0.271682
vt 0.534457 0.279134
vt 0.544745 0.536713
vt 0.544228 0.544814
vt 0.532870 0.537512
vt 0.523358 0.279116
vt 0.345588 0.246887
vt 0.345588 0.532941
vt 0.341202 0.527650
vt 0.341202 0.251511
vt 0.955000 0.535269
vt 0.694595 0.535269
vt 0.694595 0.530882
vt 0.955000 0.530882
vt 0.357941 0.271678
vt 0.357941 0.532941
vt 0.353555 0.532941
vt 0.353555 0.271678
vt 0.365908 0.532941
vt 0.365908 0.271678
vt 0.370294 0.271678
vt 0.370294 0.532941
vt 0.453259 0.274671
vt 0.449603 0.281842
vt 0.330600 0.277786
vt 0.325505 0.271556
vt 0.710000 0.546750
vt 0.709556 0.554861
vt 0.378817 0.712756
vt 0.423824 0.712756
vt 0.423824 0.720289
vt 0.378817 0.720289
vt 0.579021 0.277485
vt 0.578746 0.270034
vt 0.453007 0.267873
vt 0.533930 0.264883
vt 0.244597 0.279144
vt 0.324304 0.264859
vt 0.378817 0.705882
vt 0.423824 0.705882
vt 0.578495 0.263235
vt 0.370294 0.708210
vt 0.325241 0.708210
vt 0.325241 0.703824
vt 0.370294 0.703824
vt 0.370294 0.720563
vt 0.325288 0.720563
vt 0.325288 0.716177
vt 0.370294 0.716177
vt 0.491765 0.753235
vt 0.491765 0.757621
vt 0.324423 0.757621
vt 0.324660 0.753235
vt 0.544422 0.551110
vt 0.709222 0.561166
vt 0.294254 0.561175
vt 0.324837 0.802916
vt 0.324837 0.798529
vt 0.555588 0.798529
vt 0.555588 0.802916
vt 0.399118 0.732916
vt 0.324553 0.732916
vt 0.324553 0.728529
vt 0.399118 0.728529
vt 0.399118 0.745268
vt 0.324553 0.745268
vt 0.324553 0.740882
vt 0.399118 0.740882
vt 0.431400 0.703824
vt 0.431245 0.699440
vt 0.439371 0.699151
vt 0.444412 0.703824
vt 0.242647 0.549680
vt 0.242647 0.545294
vt 0.255659 0.545294
vt 0.250767 0.550122
vt 0.431790 0.711587
vt 0.436176 0.711587
vt 0.436176 0.719119
vt 0.431790 0.724412
vt 0.242175 0.562033
vt 0.242175 0.557647
vt 0.255000 0.557647
vt 0.249708 0.562033
vt 0.275585 0.557647
vt 0.275588 0.562040
vt 0.262762 0.562033
vt 0.267386 0.557647
vt 0.642015 0.240712
vt 0.809114 0.240697
vt 0.809355 0.253522
vt 0.642015 0.253536
vt 0.642015 0.513940
vt 0.687067 0.513937
vt 0.687070 0.526761
vt 0.642015 0.526765
vt 0.560202 0.526758
vt 0.556246 0.514362
vt 0.630811 0.514369
vt 0.388858 0.240697
vt 0.630808 0.253107
vt 0.400059 0.253094
vt 0.444143 0.711585
vt 0.448529 0.711585
vt 0.448529 0.719119
vt 0.444143 0.724412
vt 0.452647 0.745472
vt 0.407643 0.745472
vt 0.407643 0.732647
vt 0.452647 0.732647
vt 0.400030 0.514356
vt 0.474595 0.514364
vt 0.470636 0.526760
vt 0.388824 0.526750
# 244 texture coordinates

vn 0.000000 -1.000000 0.000000
vn 0.000000 1.000000 0.000000
vn 0.000000 0.000000 1.000000
vn 1.000000 0.000000 0.000000
vn 0.000000 0.000000 -1.000000
vn -1.000000 0.000000 0.000000
vn 0.000000 -1.000000 0.000000
vn 0.000000 0.000000 1.000000
vn 0.000000 0.000000 1.000000
vn 0.000000 0.000000 1.000000
vn 0.000000 -1.000000 0.000000
vn 0.000000 1.000000 0.000000
vn 0.000000 -1.000000 0.000000
vn 0.000000 0.000000 1.000000
vn 0.000000 0.000000 1.000000
vn 0.638135 0.000000 0.769925
vn -1.000000 0.000000 0.000000
vn 1.000000 0.000000 0.000000
vn -0.688160 0.000000 0.725559
vn 1.000000 0.000000 0.000000
vn 0.366753 0.903627 0.221248
vn 0.366753 0.903627 0.221248
vn 0.366753 0.903627 0.221248
vn 0.366753 0.903627 0.221248
vn 0.366753 -0.903627 0.221248
vn 0.366753 -0.903627 0.221248
vn 0.366753 -0.903627 0.221248
vn 0.366753 -0.903627 0.221248
vn -0.011331 0.999387 0.033132
vn -0.000301 0.026549 -0.999647
vn -0.000142 0.012538 -0.999921
vn -0.011331 0.999387 0.033132
vn 0.000000 0.000000 -1.000000
vn 0.000000 0.000000 -1.000000
# 34 normals

usemtl default
f 1/1/1 2/2/1 3/3/1 4/4/1
f 5/5/2 6/6/2 7/7/2 8/8/2
f 9/9/3 10/10/3 11/11/3 12/12/3
f 13/13/4 14/14/4 15/15/4 16/16/4
f 17/17/5 18/18/5 19/19/5 13/20/5 16/21/5 20/22/5
f 21/23/6 17/24/6 20/25/6 22/26/6
f 23/27/3 24/28/3 25/29/3 26/30/3
f 27/31/4 28/32/4 14/14/4 13/13/4
f 19/19/5 18/18/5 29/33/5 30/34/5
f 31/35/6 32/36/6 17/24/6 21/23/6
f 33/37/3 34/38/3 35/39/3 36/40/3
f 37/41/6 9/42/6 12/43/6 35/44/6
f 37/45/7 38/46/7 10/47/7 9/48/7
f 39/49/3 40/50/8 41/51/9 42/52/8
f 43/53/4 44/54/4 45/55/4 46/56/4
f 47/57/5 48/58/5 49/59/5 50/60/5
f 51/61/6 52/62/6 53/63/6 54/64/6
f 6/6/2 5/5/2 40/65/2 39/66/2
f 55/67/2 56/68/2 53/69/2 52/70/2
f 8/8/2 7/7/2 48/71/2 47/72/2
f 57/73/2 58/74/2 45/75/2 44/76/2
f 25/77/1 42/78/1 41/79/1 26/80/1
f 27/81/1 43/82/1 46/83/1 28/84/1
f 30/85/1 29/86/1 50/87/1 49/88/1
f 32/89/1 31/90/1 51/91/1 54/92/1
f 6/6/2 58/74/2 57/73/2 7/7/2
f 8/8/2 56/68/2 55/67/2 5/5/2
f 13/20/5 19/19/5 30/34/5 27/93/5
f 32/94/5 29/33/5 18/18/5 17/17/5
f 40/50/8 52/95/9 51/96/3 41/51/9
f 42/52/8 46/97/3 45/98/3 39/49/3
f 48/58/5 44/99/5 43/100/5 49/59/5
f 50/60/5 54/101/5 53/102/5 47/57/5
f 5/5/2 55/67/2 52/70/2 40/65/2
f 39/66/2 45/75/2 58/74/2 6/6/2
f 7/7/2 57/73/2 44/76/2 48/71/2
f 47/72/2 53/69/2 56/68/2 8/8/2
f 28/84/1 46/83/1 42/78/1 25/77/1
f 41/79/1 51/91/1 31/90/1 26/80/1
f 29/86/1 32/89/1 54/92/1 50/87/1
f 49/88/1 43/82/1 27/81/1 30/85/1
f 38/103/3 21/104/3 22/105/3 36/40/3
f 34/38/3 4/106/3 15/107/3 35/39/3
f 26/30/3 31/108/3 21/104/3 23/27/3
f 24/28/3 14/109/3 28/110/3 25/29/3
f 34/38/3 33/37/3 1/111/3 4/106/3
f 38/103/3 37/112/9 14/109/3 24/28/3 23/27/3 21/104/3
f 15/15/4 4/113/4 3/114/4 16/16/4
f 16/21/5 3/115/5 2/116/5 20/22/5
f 20/25/6 2/117/6 1/118/6 22/26/6
f 11/119/4 10/120/4 38/121/4 36/122/4
f 22/105/3 1/111/3 33/37/3 36/40/3
f 15/107/3 14/109/3 37/112/9 35/39/3
f 12/123/2 11/124/2 36/125/2 35/126/2

g Frente

# 0 positions

# 0 texture coordinates

# 0 normals

usemtl default
f 59/127/10 60/128/10 61/129/10 62/130/10
f 63/131/10 64/132/10 65/133/10 66/134/10 67/135/10 68/136/10
f 69/137/11 70/138/11 60/139/11 59/140/11
f 71/141/12 72/142/12 65/143/12 64/144/12
f 73/145/12 74/146/12 62/147/12 61/148/12
f 75/149/13 76/150/13 68/151/13 67/152/13
f 77/153/10 63/131/10 68/136/10 78/154/10
f 79/155/10 61/129/10 60/128/10 80/156/10
f 59/127/10 62/130/10 67/135/10 66/134/10
f 66/134/10 65/133/10 81/157/15 82/158/14
f 83/159/10 84/160/10 85/161/10 86/162/10
f 87/163/10 64/132/10 63/131/10 88/164/10
f 89/165/16 90/166/16 63/131/16 77/153/16
f 80/156/16 60/128/16 70/167/16 91/168/16
f 92/169/16 93/170/16 84/160/16 83/159/16
f 88/164/16 63/131/16 90/166/16 94/171/16
f 95/172/17 71/173/17 64/174/17 87/175/17
f 86/176/17 85/177/17 96/178/17 97/179/17
f 65/180/18 72/181/18 98/182/18 81/183/18
f 99/184/19 66/134/19 82/158/19 100/185/19
f 69/186/19 59/127/19 66/134/19 99/184/19
f 62/187/20 74/188/20 75/189/20 67/190/20
f 101/191/17 73/192/17 61/193/17 79/194/17
f 78/195/17 68/196/17 76/197/17 102/198/17
f 101/199/21 79/200/22 80/201/23 91/202/24
f 78/203/25 102/204/26 89/205/27 77/206/28
f 95/207/12 87/208/12 88/209/12 94/210/12
f 86/211/11 97/212/11 92/213/11 83/214/11
f 81/215/29 98/216/30 100/217/31 82/218/32
f 99/219/33 100/220/31 98/221/30 72/222/33
f 71/223/33 95/224/33 94/225/33 90/226/33
f 90/226/33 89/227/33 102/228/33 76/229/33
f 69/230/33 99/219/33 75/231/33 74/232/33
f 96/233/12 85/234/12 84/235/12 93/236/12
f 93/237/34 92/238/34 97/239/34 96/240/34
f 73/241/33 101/242/33 91/243/33 70/244/33
f 74/232/33 73/241/33 70/244/33 69/230/33
f 76/229/33 75/231/33 99/219/33 72/222/33 71/223/33 90/226/33

# 92 faces
