# Wavefront Obj file
# 
# verts: 56 uv-s: 144
mtllib Mini-transformador.mtl

g Box4639

v 0.011600 0.000000 -0.088400
v -0.011600 0.000000 -0.088400
v 0.011600 0.000000 0.088400
v -0.011600 0.000000 0.088400
v 0.011600 0.325600 -0.088400
v -0.011600 0.325600 -0.088400
v 0.011600 0.325600 0.088400
v -0.011600 0.325600 0.088400
v 0.039100 0.000000 -0.088400
v 0.015900 0.000000 -0.088400
v 0.039100 0.000000 0.088400
v 0.015900 0.000000 0.088400
v 0.039100 0.325600 -0.088400
v 0.015900 0.325600 -0.088400
v 0.039100 0.325600 0.088400
v 0.015900 0.325600 0.088400
v 0.077700 0.000000 -0.088400
v 0.054500 0.000000 -0.088400
v 0.077700 0.000000 0.088400
v 0.054500 0.000000 0.088400
v 0.077700 0.325600 -0.088400
v 0.054500 0.325600 -0.088400
v 0.077700 0.325600 0.088400
v 0.054500 0.325600 0.088400
v 0.105200 0.000000 -0.088400
v 0.082000 0.000000 -0.088400
v 0.105200 0.000000 0.088400
v 0.082000 0.000000 0.088400
v 0.105200 0.325600 -0.088400
v 0.082000 0.325600 -0.088400
v 0.105200 0.325600 0.088400
v 0.082000 0.325600 0.088400
v 0.142300 0.000000 -0.088400
v 0.119100 0.000000 -0.088400
v 0.142300 0.000000 0.088400
v 0.119100 0.000000 0.088400
v 0.142300 0.325600 -0.088400
v 0.119100 0.325600 -0.088400
v 0.142300 0.325600 0.088400
v 0.119100 0.325600 0.088400
v 0.169800 0.000000 -0.088400
v 0.146600 0.000000 -0.088400
v 0.169800 0.000000 0.088400
v 0.146600 0.000000 0.088400
v 0.169800 0.325600 -0.088400
v 0.146600 0.325600 -0.088400
v 0.169800 0.325600 0.088400
v 0.146600 0.325600 0.088400
v 0.171900 0.325600 -0.088600
v -0.011900 0.325600 -0.088600
v 0.171900 0.325600 0.088600
v -0.011900 0.325600 0.088600
v 0.171900 0.351600 -0.088600
v -0.011900 0.351600 -0.088600
v 0.171900 0.351600 0.088600
v -0.011900 0.351600 0.088600
# 56 positions

vt 0.285999 0.871445
vt 0.285999 0.852040
vt 0.433879 0.852040
vt 0.433879 0.871445
vt 0.839338 0.816862
vt 0.839338 0.797457
vt 0.566998 0.797457
vt 0.566998 0.816862
vt 0.714001 0.336844
vt 0.714001 0.188963
vt 0.441660 0.188963
vt 0.441660 0.336844
vt 0.839338 0.788560
vt 0.839338 0.769155
vt 0.566998 0.769155
vt 0.566998 0.788560
vt 0.005000 0.775525
vt 0.005000 0.627645
vt 0.277341 0.627645
vt 0.277341 0.775525
vt 0.441660 0.873466
vt 0.441660 0.854061
vt 0.589540 0.854061
vt 0.589540 0.873466
vt 0.839339 0.845164
vt 0.839339 0.825759
vt 0.566998 0.825759
vt 0.566998 0.845164
vt 0.839339 0.152880
vt 0.839339 0.005000
vt 0.566998 0.005000
vt 0.566998 0.152880
vt 0.558340 0.814841
vt 0.558340 0.795436
vt 0.285999 0.795436
vt 0.285999 0.814841
vt 0.566998 0.520807
vt 0.566998 0.372927
vt 0.839339 0.372927
vt 0.839339 0.520807
vt 0.722659 0.703654
vt 0.722659 0.684249
vt 0.870539 0.684249
vt 0.870539 0.703654
vt 0.558340 0.843143
vt 0.558340 0.823738
vt 0.285999 0.823738
vt 0.285999 0.843143
vt 0.839338 0.676468
vt 0.839338 0.528588
vt 0.566998 0.528588
vt 0.566998 0.676468
vt 0.277341 0.859315
vt 0.277341 0.839910
vt 0.005000 0.839910
vt 0.005000 0.859315
vt 0.285999 0.787655
vt 0.285999 0.639774
vt 0.558339 0.639774
vt 0.558339 0.787655
vt 0.722659 0.341792
vt 0.722659 0.322387
vt 0.870539 0.322387
vt 0.870539 0.341792
vt 0.277341 0.802711
vt 0.277341 0.783306
vt 0.005000 0.783306
vt 0.005000 0.802711
vt 0.277341 0.619864
vt 0.277341 0.471984
vt 0.005000 0.471984
vt 0.005000 0.619864
vt 0.995000 0.731956
vt 0.995000 0.712551
vt 0.722659 0.712551
vt 0.722659 0.731956
vt 0.285999 0.631994
vt 0.285999 0.484113
vt 0.558339 0.484113
vt 0.558339 0.631994
vt 0.566998 0.731956
vt 0.566998 0.712551
vt 0.714879 0.712551
vt 0.714879 0.731956
vt 0.714001 0.180066
vt 0.714001 0.160661
vt 0.441660 0.160661
vt 0.441660 0.180066
vt 0.277341 0.152880
vt 0.277341 0.005000
vt 0.005000 0.005000
vt 0.005000 0.152880
vt 0.839339 0.760258
vt 0.839339 0.740853
vt 0.566998 0.740853
vt 0.566998 0.760258
vt 0.005000 0.308542
vt 0.005000 0.160661
vt 0.277341 0.160661
vt 0.277341 0.308542
vt 0.566998 0.703654
vt 0.566998 0.684249
vt 0.714879 0.684249
vt 0.714879 0.703654
vt 0.714001 0.364030
vt 0.714001 0.344624
vt 0.441660 0.344624
vt 0.441660 0.364030
vt 0.277341 0.464203
vt 0.277341 0.316322
vt 0.005000 0.316322
vt 0.005000 0.464203
vt 0.277341 0.831013
vt 0.277341 0.811608
vt 0.005000 0.811608
vt 0.005000 0.831013
vt 0.285999 0.152880
vt 0.285999 0.005000
vt 0.558340 0.005000
vt 0.558340 0.152880
vt 0.434213 0.160661
vt 0.285999 0.160661
vt 0.285999 0.314397
vt 0.434213 0.314397
vt 0.285999 0.476123
vt 0.285999 0.322387
vt 0.434213 0.322387
vt 0.434213 0.476123
vt 0.744406 0.314397
vt 0.744406 0.160661
vt 0.722659 0.160661
vt 0.722659 0.314397
vt 0.774730 0.308876
vt 0.774730 0.160661
vt 0.752983 0.160661
vt 0.752983 0.308876
vt 0.805054 0.314397
vt 0.805054 0.160661
vt 0.783306 0.160661
vt 0.783306 0.314397
vt 0.813630 0.308876
vt 0.813630 0.160661
vt 0.835377 0.160661
vt 0.835377 0.308876
# 144 texture coordinates

vn 0.000000 1.000000 0.000000
vn 0.000000 1.000000 0.000000
vn 0.000000 1.000000 0.000000
vn 0.000000 1.000000 0.000000
vn 0.000000 0.000000 -1.000000
vn 0.000000 0.000000 -1.000000
vn 0.000000 0.000000 -1.000000
vn 0.000000 0.000000 -1.000000
vn -1.000000 0.000000 0.000000
vn -1.000000 0.000000 0.000000
vn -1.000000 0.000000 0.000000
vn -1.000000 0.000000 0.000000
vn 0.000000 0.000000 1.000000
vn 0.000000 0.000000 1.000000
vn 0.000000 0.000000 1.000000
vn 0.000000 0.000000 1.000000
vn 1.000000 0.000000 0.000000
vn 1.000000 0.000000 0.000000
vn 1.000000 0.000000 0.000000
vn 1.000000 0.000000 0.000000
vn 0.000000 1.000000 0.000000
vn 0.000000 1.000000 0.000000
vn 0.000000 1.000000 0.000000
vn 0.000000 1.000000 0.000000
vn 0.000000 0.000000 -1.000000
vn 0.000000 0.000000 -1.000000
vn 0.000000 0.000000 -1.000000
vn 0.000000 0.000000 -1.000000
vn -1.000000 0.000000 0.000000
vn -1.000000 0.000000 0.000000
vn -1.000000 0.000000 0.000000
vn -1.000000 0.000000 0.000000
vn 0.000000 0.000000 1.000000
vn 0.000000 0.000000 1.000000
vn 0.000000 0.000000 1.000000
vn 0.000000 0.000000 1.000000
vn 1.000000 0.000000 0.000000
vn 1.000000 0.000000 0.000000
vn 1.000000 0.000000 0.000000
vn 1.000000 0.000000 0.000000
vn 0.000000 1.000000 0.000000
vn 0.000000 1.000000 0.000000
vn 0.000000 1.000000 0.000000
vn 0.000000 1.000000 0.000000
vn 0.000000 0.000000 -1.000000
vn 0.000000 0.000000 -1.000000
vn 0.000000 0.000000 -1.000000
vn 0.000000 0.000000 -1.000000
vn -1.000000 0.000000 0.000000
vn -1.000000 0.000000 0.000000
vn -1.000000 0.000000 0.000000
vn -1.000000 0.000000 0.000000
vn 0.000000 0.000000 1.000000
vn 0.000000 0.000000 1.000000
vn 0.000000 0.000000 1.000000
vn 0.000000 0.000000 1.000000
vn 1.000000 0.000000 0.000000
vn 1.000000 0.000000 0.000000
vn 1.000000 0.000000 0.000000
vn 1.000000 0.000000 0.000000
vn 0.000000 1.000000 0.000000
vn 0.000000 1.000000 0.000000
vn 0.000000 1.000000 0.000000
vn 0.000000 1.000000 0.000000
vn 0.000000 0.000000 -1.000000
vn 0.000000 0.000000 -1.000000
vn 0.000000 0.000000 -1.000000
vn 0.000000 0.000000 -1.000000
vn -1.000000 0.000000 0.000000
vn -1.000000 0.000000 0.000000
vn -1.000000 0.000000 0.000000
vn -1.000000 0.000000 0.000000
vn 0.000000 0.000000 1.000000
vn 0.000000 0.000000 1.000000
vn 0.000000 0.000000 1.000000
vn 0.000000 0.000000 1.000000
vn 1.000000 0.000000 0.000000
vn 1.000000 0.000000 0.000000
vn 1.000000 0.000000 0.000000
vn 1.000000 0.000000 0.000000
vn 0.000000 1.000000 0.000000
vn 0.000000 1.000000 0.000000
vn 0.000000 1.000000 0.000000
vn 0.000000 1.000000 0.000000
vn 0.000000 0.000000 -1.000000
vn 0.000000 0.000000 -1.000000
vn 0.000000 0.000000 -1.000000
vn 0.000000 0.000000 -1.000000
vn -1.000000 0.000000 0.000000
vn -1.000000 0.000000 0.000000
vn -1.000000 0.000000 0.000000
vn -1.000000 0.000000 0.000000
vn 0.000000 0.000000 1.000000
vn 0.000000 0.000000 1.000000
vn 0.000000 0.000000 1.000000
vn 0.000000 0.000000 1.000000
vn 1.000000 0.000000 0.000000
vn 1.000000 0.000000 0.000000
vn 1.000000 0.000000 0.000000
vn 1.000000 0.000000 0.000000
vn 0.000000 1.000000 0.000000
vn 0.000000 1.000000 0.000000
vn 0.000000 1.000000 0.000000
vn 0.000000 1.000000 0.000000
vn 0.000000 0.000000 -1.000000
vn 0.000000 0.000000 -1.000000
vn 0.000000 0.000000 -1.000000
vn 0.000000 0.000000 -1.000000
vn -1.000000 0.000000 0.000000
vn -1.000000 0.000000 0.000000
vn -1.000000 0.000000 0.000000
vn -1.000000 0.000000 0.000000
vn 0.000000 0.000000 1.000000
vn 0.000000 0.000000 1.000000
vn 0.000000 0.000000 1.000000
vn 0.000000 0.000000 1.000000
vn 1.000000 0.000000 0.000000
vn 1.000000 0.000000 0.000000
vn 1.000000 0.000000 0.000000
vn 1.000000 0.000000 0.000000
vn 0.000000 -1.000000 0.000000
vn 0.000000 -1.000000 0.000000
vn 0.000000 -1.000000 0.000000
vn 0.000000 -1.000000 0.000000
vn 0.000000 1.000000 0.000000
vn 0.000000 1.000000 0.000000
vn 0.000000 1.000000 0.000000
vn 0.000000 1.000000 0.000000
vn 0.000000 0.000000 -1.000000
vn 0.000000 0.000000 -1.000000
vn 0.000000 0.000000 -1.000000
vn 0.000000 0.000000 -1.000000
vn -1.000000 0.000000 0.000000
vn -1.000000 0.000000 0.000000
vn -1.000000 0.000000 0.000000
vn -1.000000 0.000000 0.000000
vn 0.000000 0.000000 1.000000
vn 0.000000 0.000000 1.000000
vn 0.000000 0.000000 1.000000
vn 0.000000 0.000000 1.000000
vn 1.000000 0.000000 0.000000
vn 1.000000 0.000000 0.000000
vn 1.000000 0.000000 0.000000
vn 1.000000 0.000000 0.000000
# 144 normals

usemtl default
s 1
f 5/1/1 6/2/2 8/3/3 7/4/4
s 2
f 1/5/5 2/6/6 6/7/7 5/8/8
s 3
f 2/9/9 4/10/10 8/11/11 6/12/12
s 4
f 4/13/13 3/14/14 7/15/15 8/16/16
s 5
f 3/17/17 1/18/18 5/19/19 7/20/20
s 6
f 13/21/21 14/22/22 16/23/23 15/24/24
s 7
f 9/25/25 10/26/26 14/27/27 13/28/28
s 8
f 10/29/29 12/30/30 16/31/31 14/32/32
s 9
f 12/33/33 11/34/34 15/35/35 16/36/36
s 10
f 11/37/37 9/38/38 13/39/39 15/40/40
s 11
f 21/41/41 22/42/42 24/43/43 23/44/44
s 12
f 17/45/45 18/46/46 22/47/47 21/48/48
s 13
f 18/49/49 20/50/50 24/51/51 22/52/52
s 14
f 20/53/53 19/54/54 23/55/55 24/56/56
s 15
f 19/57/57 17/58/58 21/59/59 23/60/60
s 16
f 29/61/61 30/62/62 32/63/63 31/64/64
s 17
f 25/65/65 26/66/66 30/67/67 29/68/68
s 18
f 26/69/69 28/70/70 32/71/71 30/72/72
s 19
f 28/73/73 27/74/74 31/75/75 32/76/76
s 20
f 27/77/77 25/78/78 29/79/79 31/80/80
s 21
f 37/81/81 38/82/82 40/83/83 39/84/84
s 22
f 33/85/85 34/86/86 38/87/87 37/88/88
s 23
f 34/89/89 36/90/90 40/91/91 38/92/92
s 24
f 36/93/93 35/94/94 39/95/95 40/96/96
s 25
f 35/97/97 33/98/98 37/99/99 39/100/100
s 26
f 45/101/101 46/102/102 48/103/103 47/104/104
s 27
f 41/105/105 42/106/106 46/107/107 45/108/108
s 28
f 42/109/109 44/110/110 48/111/111 46/112/112
s 29
f 44/113/113 43/114/114 47/115/115 48/116/116
s 30
f 43/117/117 41/118/118 45/119/119 47/120/120
s 31
f 49/121/121 51/122/122 52/123/123 50/124/124
s 32
f 53/125/125 54/126/126 56/127/127 55/128/128
s 33
f 49/129/129 50/130/130 54/131/131 53/132/132
s 34
f 50/133/133 52/134/134 56/135/135 54/136/136
s 35
f 52/137/137 51/138/138 55/139/139 56/140/140
s 36
f 51/141/141 49/142/142 53/143/143 55/144/144

# 36 faces
