# Wavefront Obj file
# 
# verts: 8 uv-s: 16
mtllib soporte.mtl

g Line3162

v 0.944400 0.040000 -0.040000
v 0.944400 0.040000 0.040000
v 0.944400 -0.040000 0.040000
v 0.944400 -0.040000 -0.040000
v -0.944400 0.040000 -0.040000
v -0.944400 0.040000 0.040000
v -0.944400 -0.040000 0.040000
v -0.944400 -0.040000 -0.040000
# 8 positions

vt 0.005000 0.005000
vt 0.005000 0.995000
vt 0.046931 0.995000
vt 0.046931 0.005000
vt 0.053023 0.995000
vt 0.053023 0.005000
vt 0.094955 0.005000
vt 0.094955 0.995000
vt 0.101046 0.995000
vt 0.101046 0.005000
vt 0.142978 0.005000
vt 0.142978 0.995000
vt 0.191001 0.005000
vt 0.191001 0.995000
vt 0.149070 0.995000
vt 0.149070 0.005000
# 16 texture coordinates

vn 0.000000 1.000000 0.000000
vn 0.000000 1.000000 0.000000
vn 0.000000 1.000000 0.000000
vn 0.000000 1.000000 0.000000
vn 0.000000 0.000000 1.000000
vn 0.000000 0.000000 1.000000
vn 0.000000 0.000000 1.000000
vn 0.000000 0.000000 1.000000
vn 0.000000 -1.000000 0.000000
vn 0.000000 -1.000000 0.000000
vn 0.000000 -1.000000 0.000000
vn 0.000000 -1.000000 0.000000
vn 0.000000 0.000000 -1.000000
vn 0.000000 0.000000 -1.000000
vn 0.000000 0.000000 -1.000000
vn 0.000000 0.000000 -1.000000
# 16 normals

usemtl default
s 1
f 1/1/1 5/2/2 6/3/3 2/4/4
s 2
f 2/5/5 6/6/6 7/7/7 3/8/8
s 3
f 3/9/9 7/10/10 8/11/11 4/12/12
s 4
f 4/13/13 8/14/14 5/15/15 1/16/16

# 4 faces
