# Wavefront Obj file
# 
# verts: 100 uv-s: 223
mtllib pala.mtl

g Group_004

v 0.940600 -0.127600 0.043500
v 0.940600 0.449100 0.264000
v 0.000000 0.449100 0.264000
v 0.000000 -0.127600 0.043500
v 0.940600 0.449200 0.373500
v 0.000000 0.449200 0.373500
v 0.940600 -0.159300 0.095000
v 0.000000 -0.159300 0.095000
v 0.000000 -0.158300 1.060800
v 0.931100 -0.158300 1.060800
v 0.940600 -0.158300 1.060800
v 0.940600 -0.148800 1.060700
v 0.931100 -0.153500 1.060800
v 0.931100 -0.148800 1.060700
v 0.931100 -0.113600 0.968800
v 0.940600 -0.113600 0.968800
v 0.000000 -0.153500 1.060800
v 0.000000 -0.148800 1.042100
v 0.931100 -0.148800 1.042100
v 0.940600 -0.067600 0.986400
v 0.931100 -0.067600 0.986400
v 0.931100 0.436500 0.388600
v 0.000000 0.436500 0.388600
v 0.000000 0.436400 0.305200
v 0.931100 0.436400 0.305200
v 0.931100 -0.012600 0.133500
v 0.000000 -0.149600 0.227900
v 0.805000 -0.149600 0.227900
v 0.000000 -0.012600 0.133500
v -0.940600 0.449200 0.373500
v -0.940600 0.449100 0.264000
v -0.940600 -0.159300 0.095000
v -0.940600 -0.158300 1.060800
v -0.931100 -0.158300 1.060800
v 0.000000 -0.159300 0.095000
v -0.940600 -0.148800 1.060700
v -0.931100 -0.148800 1.060700
v -0.931100 -0.153500 1.060800
v -0.931100 -0.113600 0.968800
v -0.940600 -0.113600 0.968800
v -0.931100 -0.148800 1.042100
v -0.940600 -0.067600 0.986400
v -0.931100 -0.067600 0.986400
v -0.931100 0.436500 0.388600
v -0.931100 0.436400 0.305200
v -0.805000 -0.149600 0.227900
v -0.931100 -0.012600 0.133500
v -0.940600 -0.127600 0.043500
v 0.000000 -0.127600 0.043500
v -0.450700 0.050500 -0.082500
v -0.450700 -0.004700 -0.103900
v -0.450700 -0.072700 0.068300
v -0.450700 -0.017600 0.089700
v -0.626300 -0.017600 0.089700
v -0.626300 -0.072700 0.068300
v -0.626300 -0.004700 -0.103900
v -0.626300 0.050500 -0.082500
v -0.450700 -0.070200 -0.101700
v -0.626300 -0.070200 -0.101700
v -0.626300 -0.127900 0.046900
v -0.450700 -0.127900 0.046900
v -0.450700 0.037600 0.111100
v -0.626300 0.037600 0.111100
v -0.626300 0.095300 -0.037500
v -0.450700 0.095300 -0.037500
v 0.622500 0.050500 -0.082500
v 0.622500 -0.004700 -0.103900
v 0.622500 -0.072700 0.068300
v 0.622500 -0.017600 0.089700
v 0.446900 -0.017600 0.089700
v 0.446900 -0.072700 0.068300
v 0.446900 -0.004700 -0.103900
v 0.446900 0.050500 -0.082500
v 0.622500 -0.070200 -0.101700
v 0.446900 -0.070200 -0.101700
v 0.446900 -0.127900 0.046900
v 0.622500 -0.127900 0.046900
v 0.622500 0.037600 0.111100
v 0.446900 0.037600 0.111100
v 0.446900 0.095300 -0.037500
v 0.622500 0.095300 -0.037500
v -0.454400 0.436500 0.388600
v -0.454400 0.436400 0.305200
v -0.454400 0.191800 0.211600
v -0.476600 0.436500 0.388600
v -0.476600 0.191800 0.211600
v -0.476600 0.436400 0.305200
v 0.011100 0.436500 0.388600
v 0.011100 0.191800 0.211600
v 0.000000 0.191800 0.211600
v 0.011100 0.436400 0.305200
v -0.011100 0.436500 0.388600
v -0.011100 0.191800 0.211600
v -0.011100 0.436400 0.305200
v 0.454400 0.436500 0.388600
v 0.454400 0.191800 0.211600
v 0.454400 0.436400 0.305200
v 0.476600 0.436500 0.388600
v 0.476600 0.436400 0.305200
v 0.476600 0.191800 0.211600
# 100 positions

vt 0.253403 0.249623
vt 0.310749 0.249623
vt 0.310749 0.494245
vt 0.253403 0.494245
vt 0.339227 0.249623
vt 0.339227 0.494245
vt 0.518125 0.007471
vt 0.518125 0.249623
vt 0.769301 0.249623
vt 0.769301 0.005000
vt 0.518125 0.005000
vt 0.491774 0.755085
vt 0.491774 0.753836
vt 0.494245 0.753836
vt 0.494245 0.756307
vt 0.491774 0.756307
vt 0.494245 0.765462
vt 0.491774 0.765462
vt 0.249623 0.755085
vt 0.249623 0.753836
vt 0.246164 0.247152
vt 0.246164 0.489304
vt 0.241300 0.489304
vt 0.241300 0.247152
vt 0.491774 0.777425
vt 0.494245 0.777425
vt 0.343154 0.249623
vt 0.343154 0.491774
vt 0.498624 0.491774
vt 0.498624 0.494245
vt 0.790032 0.257030
vt 0.768342 0.257030
vt 0.768342 0.499182
vt 0.790032 0.499182
vt 0.644872 0.777763
vt 0.632908 0.773186
vt 0.501807 0.928656
vt 0.501833 0.950346
vt 0.654026 0.758700
vt 0.618604 0.995000
vt 0.654026 0.753862
vt 0.655249 0.753836
vt 0.029551 0.456509
vt 0.029551 0.247152
vt 0.247152 0.501807
vt 0.456509 0.501807
vt 0.489304 0.537436
vt 0.247152 0.537436
vt 0.005000 0.489304
vt 0.805597 0.249777
vt 0.809237 0.490421
vt 0.800083 0.514321
vt 0.797612 0.514347
vt 0.821201 0.494998
vt 0.955579 0.307123
vt 0.955605 0.335600
vt 0.797352 0.263171
vt 0.782695 0.249623
vt 0.782695 0.005000
vt 0.310749 0.005000
vt 0.339227 0.005000
vt 0.496367 0.501807
vt 0.496367 0.743959
vt 0.496367 0.746429
vt 0.747544 0.746429
vt 0.747544 0.501807
vt 0.007471 0.753836
vt 0.007471 0.755085
vt 0.007471 0.756307
vt 0.005000 0.756307
vt 0.005000 0.753836
vt 0.005000 0.765462
vt 0.007471 0.765462
vt 0.241300 0.005000
vt 0.246164 0.005000
vt 0.007471 0.777425
vt 0.005000 0.777425
vt 0.498624 0.005000
vt 0.498624 0.007471
vt 0.343154 0.007471
vt 0.768342 0.741333
vt 0.790032 0.741333
vt 0.029551 0.037795
vt 0.005000 0.537436
vt 0.037795 0.501807
vt 0.005000 0.005000
vt 0.760937 0.501807
vt 0.760937 0.746429
vt 0.955605 0.772928
vt 0.931757 0.541101
vt 0.797352 0.700498
vt 0.797378 0.728976
vt 0.955345 0.521752
vt 0.943720 0.545678
vt 0.952875 0.521778
vt 0.947361 0.786321
vt 0.826744 0.005000
vt 0.943542 0.071344
vt 0.812440 0.226814
vt 0.800476 0.222237
vt 0.943516 0.049654
vt 0.790100 0.246164
vt 0.791322 0.241300
vt 0.791322 0.246138
vt 0.494229 0.316445
vt 0.479899 0.310880
vt 0.497584 0.266096
vt 0.511940 0.271661
vt 0.489887 0.399851
vt 0.504243 0.405416
vt 0.521927 0.360632
vt 0.507598 0.355067
vt 0.565023 0.349840
vt 0.565023 0.304172
vt 0.523565 0.304172
vt 0.523565 0.349840
vt 0.253403 0.222255
vt 0.253403 0.207925
vt 0.299072 0.207925
vt 0.299072 0.222255
vt 0.419225 0.324456
vt 0.419225 0.278788
vt 0.457872 0.278788
vt 0.457872 0.324456
vt 0.299072 0.117267
vt 0.299072 0.102911
vt 0.253403 0.102911
vt 0.253403 0.117267
vt 0.508585 0.322011
vt 0.523591 0.283364
vt 0.480550 0.266668
vt 0.465543 0.305314
vt 0.478236 0.388148
vt 0.493242 0.349501
vt 0.536283 0.366198
vt 0.521277 0.404844
vt 0.253403 0.236611
vt 0.299072 0.236611
vt 0.299072 0.193569
vt 0.253403 0.193569
vt 0.299072 0.134301
vt 0.253403 0.134301
vt 0.407522 0.324456
vt 0.407522 0.278788
vt 0.447087 0.461498
vt 0.432757 0.455933
vt 0.450442 0.411149
vt 0.464798 0.416714
vt 0.431865 0.394411
vt 0.446222 0.399977
vt 0.463906 0.355193
vt 0.449576 0.349627
vt 0.294861 0.186656
vt 0.294861 0.140987
vt 0.253403 0.140987
vt 0.253403 0.186656
vt 0.253403 0.080828
vt 0.253403 0.066498
vt 0.299072 0.066498
vt 0.299072 0.080828
vt 0.361204 0.324456
vt 0.361204 0.278788
vt 0.399851 0.278788
vt 0.399851 0.324456
vt 0.299072 0.028422
vt 0.299072 0.014066
vt 0.253403 0.014066
vt 0.253403 0.028422
vt 0.461443 0.467064
vt 0.476449 0.428417
vt 0.433407 0.411721
vt 0.418401 0.450367
vt 0.420214 0.382708
vt 0.435221 0.344061
vt 0.478262 0.360758
vt 0.463256 0.399405
vt 0.253403 0.095184
vt 0.299072 0.095184
vt 0.299072 0.052142
vt 0.253403 0.052142
vt 0.299072 0.045456
vt 0.253403 0.045456
vt 0.349501 0.324456
vt 0.349501 0.278788
vt 0.005000 0.654208
vt 0.247152 0.654208
vt 0.489304 0.654208
vt 0.349501 0.258688
vt 0.510073 0.258688
vt 0.510073 0.014066
vt 0.349501 0.014066
vt 0.349501 0.331369
vt 0.413114 0.355712
vt 0.413140 0.377402
vt 0.349527 0.367565
vt 0.413140 0.391907
vt 0.349501 0.345875
vt 0.349501 0.266096
vt 0.349501 0.271869
vt 0.428044 0.271869
vt 0.428044 0.266096
vt 0.007886 0.092210
vt 0.007886 0.028571
vt 0.010774 0.028571
vt 0.010774 0.092210
vt 0.349501 0.378512
vt 0.413114 0.402854
vt 0.413140 0.424544
vt 0.005000 0.028571
vt 0.005000 0.092210
vt 0.349527 0.414707
vt 0.413140 0.439049
vt 0.349501 0.393017
vt 0.349527 0.447344
vt 0.413140 0.471686
vt 0.349501 0.425654
vt 0.469170 0.405709
vt 0.532783 0.430052
vt 0.532809 0.451742
vt 0.389391 0.331369
vt 0.389391 0.337143
vt 0.467934 0.337143
vt 0.467934 0.331369
# 223 texture coordinates

vn 0.000000 0.357133 -0.934053
vn 0.000000 1.000000 -0.000948
vn 0.000000 -0.999999 0.001095
vn -0.000324 0.007514 0.999972
vn 0.000000 0.933842 0.357685
vn 0.000000 0.969837 0.243756
vn 0.000000 -0.357313 0.933985
vn -0.000000 0.764896 0.644153
vn -1.000000 0.000000 0.000000
vn 0.000000 0.567396 0.823445
vn -0.000000 0.988951 0.148245
vn 1.000000 0.000000 0.000000
vn 0.000000 -0.851601 -0.524190
vn -1.000000 0.000000 0.000000
vn 1.000000 0.000000 0.000000
vn 1.000000 0.000000 0.000000
vn -1.000000 0.000000 0.000000
vn 0.000000 -0.932193 -0.361962
vn 0.000000 -0.361675 0.932304
vn 0.000000 0.932193 0.361962
vn 0.000000 0.167342 -0.985899
vn 0.000000 0.546964 -0.837156
vn 0.000000 -0.033569 -0.999436
vn 0.000000 0.708680 -0.705530
vn 1.000000 0.000000 0.000000
vn 0.000000 -0.361468 0.932385
vn 0.000000 -0.033569 -0.999436
vn 0.000000 -0.357180 0.934035
vn 0.000000 -0.586083 0.810251
vn 0.000000 -0.586083 0.810251
# 30 normals

usemtl default
f 4/1/1 3/2/1 2/3/1 1/4/1
f 6/5/2 5/6/2 2/3/2 3/2/2
f 10/7/3 9/8/3 8/9/3 7/10/3
f 11/11/3 10/7/3 7/10/3
f 13/12/4 10/13/4 11/14/4 12/15/4
f 14/16/4 13/12/4 12/15/4
f 14/16/5 12/15/5 16/17/5 15/18/5
f 17/19/4 9/20/4 10/13/4 13/12/4
f 17/21/6 13/22/6 19/23/6 18/24/6
f 21/25/7 15/18/7 16/17/7 20/26/7
f 5/6/8 6/5/8 23/27/8 22/28/8
f 21/29/8 20/30/8 5/6/8 22/28/8
f 25/31/3 22/32/3 23/33/3 24/34/3
f 15/35/9 21/36/9 22/37/9 25/38/9
f 19/39/9 15/35/9 25/38/9 26/40/9
f 14/41/9 15/35/9 19/39/9 13/42/9
f 18/24/2 19/23/2 28/43/2 27/44/2
f 27/45/10 28/46/10 26/47/10 29/48/10
f 28/43/11 19/23/11 26/49/11
f 1/50/12 16/51/12 12/52/12 11/53/12
f 20/54/12 16/51/12 1/50/12 2/55/12
f 2/55/12 5/56/12 20/54/12
f 7/57/12 1/50/12 11/53/12
f 7/10/13 8/9/13 4/58/13 1/59/13
f 31/60/2 30/61/2 6/5/2 3/2/2
f 9/62/3 34/63/3 33/64/3 32/65/3
f 35/66/3 9/62/3 32/65/3
f 34/67/4 38/68/4 37/69/4 36/70/4
f 33/71/4 34/67/4 36/70/4
f 40/72/5 36/70/5 37/69/5 39/73/5
f 34/67/4 9/20/4 17/19/4 38/68/4
f 41/74/6 38/75/6 17/21/6 18/24/6
f 40/72/7 39/73/7 43/76/7 42/77/7
f 30/61/8 42/78/8 43/79/8 44/80/8
f 23/27/8 6/5/8 30/61/8 44/80/8
f 24/34/3 23/33/3 44/81/3 45/82/3
f 46/83/2 41/74/2 18/24/2 27/44/2
f 47/84/10 46/85/10 27/45/10 29/48/10
f 41/74/11 46/83/11 47/86/11
f 49/87/13 35/66/13 32/65/13 48/88/13
f 32/89/14 42/90/14 30/91/14 31/92/14
f 33/93/14 40/94/14 42/90/14 32/89/14
f 33/93/14 36/95/14 40/94/14
f 48/96/14 32/89/14 31/92/14
f 47/97/15 44/98/15 43/99/15 39/100/15
f 47/97/15 45/101/15 44/98/15
f 38/102/15 41/103/15 47/97/15 39/100/15
f 38/102/15 39/100/15 37/104/15
f 53/105/16 52/106/16 51/107/16 50/108/16
f 57/109/17 56/110/17 55/111/17 54/112/17
f 61/113/18 60/114/18 59/115/18 58/116/18
f 54/117/19 55/118/19 52/119/19 53/120/19
f 65/121/20 64/122/20 63/123/20 62/124/20
f 56/125/21 57/126/22 50/127/22 51/128/21
f 62/129/12 53/105/16 50/108/16 65/130/12
f 58/131/16 51/107/16 52/106/16 61/132/16
f 64/133/9 57/109/17 54/112/17 63/134/9
f 60/135/14 55/111/17 56/110/17 59/136/14
f 63/137/19 54/117/19 53/120/19 62/138/19
f 61/139/19 52/119/19 55/118/19 60/140/19
f 59/141/23 56/125/21 51/128/21 58/142/23
f 65/121/24 50/143/22 57/144/22 64/122/24
f 69/145/16 68/146/25 67/147/16 66/148/16
f 73/149/17 72/150/17 71/151/17 70/152/17
f 77/153/18 76/154/18 75/155/18 74/156/18
f 70/157/19 71/158/19 68/159/19 69/160/19
f 81/161/20 80/162/20 79/163/20 78/164/20
f 72/165/21 73/166/22 66/167/22 67/168/21
f 78/169/15 69/145/16 66/148/16 81/170/15
f 74/171/15 67/147/16 68/146/25 77/172/15
f 80/173/9 73/149/17 70/152/17 79/174/9
f 76/175/17 71/151/17 72/150/17 75/176/17
f 79/177/26 70/157/19 69/160/19 78/178/26
f 77/179/19 68/159/19 71/158/19 76/180/19
f 75/181/27 72/165/21 67/168/21 74/182/27
f 81/161/24 66/183/22 73/184/22 80/162/24
f 45/185/28 47/84/28 29/48/28 24/186/28
f 26/47/7 25/187/7 24/186/28 29/48/28
f 3/188/1 49/189/1 48/190/1 31/191/1
f 84/192/12 83/193/12 82/194/12
f 87/195/9 86/196/9 85/197/9
f 82/198/29 85/199/29 86/200/29 84/201/29
f 23/202/30 90/203/30 89/204/30 88/205/30
f 89/206/12 91/207/12 88/208/12
f 93/209/30 90/203/30 23/202/30 92/210/30
f 94/211/14 93/212/14 92/213/14
f 97/214/9 96/215/9 95/216/9
f 100/217/12 99/218/12 98/219/12
f 98/220/30 95/221/30 96/222/30 100/223/30

# 89 faces
