# Wavefront Obj file
# 
# verts: 112 uv-s: 180
mtllib torre de enfriamiento.mtl

g Box002

v -0.500000 -0.660000 -0.720000
v -0.500000 0.364800 -0.720000
v -0.133300 0.364800 -0.720000
v -0.500000 -0.660000 0.720000
v 0.500000 -0.660000 -0.720000
v 0.500000 -0.660000 0.720000
v -0.500000 0.364800 0.720000
v 0.500000 0.364800 -0.720000
v 0.500000 0.364800 0.720000
v -0.248100 0.549400 0.248100
v 0.248100 0.549400 0.248100
v 0.248100 0.549400 -0.248100
v -0.500000 0.364800 -0.133300
v -0.500000 0.364800 0.133300
v -0.338900 0.549400 -0.090800
v 0.133300 0.364800 -0.720000
v -0.090800 0.549400 -0.338900
v 0.500000 0.364800 0.133300
v 0.500000 0.364800 -0.133300
v 0.338900 0.549400 0.090800
v -0.133300 0.364800 0.720000
v 0.133300 0.364800 0.720000
v 0.090800 0.549400 0.338900
v -0.090800 0.549400 0.338900
v 0.338900 0.549400 -0.090800
v 0.090800 0.549400 -0.338900
v -0.248100 0.549400 -0.248100
v -0.338900 0.549400 0.090800
v -0.090800 0.660000 0.338900
v 0.090800 0.660000 0.338900
v 0.248100 0.660000 0.248100
v 0.338900 0.660000 0.090800
v 0.338900 0.660000 -0.090800
v 0.248100 0.660000 -0.248100
v 0.090800 0.660000 -0.338900
v -0.090800 0.660000 -0.338900
v -0.248100 0.660000 -0.248100
v -0.338900 0.660000 -0.090800
v -0.338900 0.660000 0.090800
v -0.248100 0.660000 0.248100
v -0.081000 0.660000 0.302300
v 0.081000 0.660000 0.302300
v 0.221300 0.660000 0.221300
v 0.302300 0.660000 0.081000
v 0.302300 0.660000 -0.081000
v 0.221300 0.660000 -0.221300
v 0.081000 0.660000 -0.302300
v -0.081000 0.660000 -0.302300
v -0.221300 0.660000 -0.221300
v -0.302300 0.660000 -0.081000
v -0.302300 0.660000 0.081000
v -0.221300 0.660000 0.221300
v -0.027200 0.610900 0.100600
v 0.027200 0.610900 0.100600
v 0.074200 0.610900 0.073400
v 0.101300 0.610900 0.026400
v 0.101300 0.610900 -0.027900
v 0.074200 0.610900 -0.075000
v 0.027200 0.610900 -0.102100
v -0.027200 0.610900 -0.102100
v -0.074200 0.610900 -0.075000
v -0.101300 0.610900 -0.027900
v -0.101300 0.610900 0.026400
v -0.074200 0.610900 0.073400
v -0.116900 0.633900 0.038600
v -0.116900 0.587500 -0.041700
v -0.290300 0.633900 0.038600
v -0.290300 0.587500 -0.041700
v -0.092500 0.633900 -0.082300
v -0.023000 0.587500 -0.122500
v -0.179200 0.633900 -0.232500
v -0.109700 0.587500 -0.272600
v 0.024300 0.633900 -0.121700
v 0.093900 0.587500 -0.081500
v 0.111000 0.633900 -0.271900
v 0.180600 0.587500 -0.231700
v 0.116900 0.633900 -0.040200
v 0.116900 0.587500 0.040100
v 0.290300 0.633900 -0.040200
v 0.290300 0.587500 0.040100
v 0.092500 0.633900 0.080700
v 0.023000 0.587500 0.120900
v 0.179200 0.633900 0.230900
v 0.109700 0.587500 0.271100
v -0.024300 0.633900 0.120100
v -0.093900 0.587500 0.080000
v -0.111000 0.633900 0.270300
v -0.180600 0.587500 0.230100
v -0.004500 0.610800 0.016000
v 0.004500 0.610800 0.016000
v 0.004500 0.613900 0.016000
v -0.004500 0.613900 0.016000
v 0.012300 0.610800 0.011500
v 0.012300 0.613900 0.011500
v 0.016800 0.610800 0.003700
v 0.016800 0.613900 0.003700
v 0.016800 0.610800 -0.005300
v 0.016800 0.613900 -0.005300
v 0.012300 0.610800 -0.013100
v 0.012300 0.613900 -0.013100
v 0.004500 0.610800 -0.017600
v 0.004500 0.613900 -0.017600
v -0.004500 0.610800 -0.017600
v -0.004500 0.613900 -0.017600
v -0.012300 0.610800 -0.013100
v -0.012300 0.613900 -0.013100
v -0.016800 0.610800 -0.005300
v -0.016800 0.613900 -0.005300
v -0.016800 0.610800 0.003700
v -0.016800 0.613900 0.003700
v -0.012300 0.610800 0.011500
v -0.012300 0.613900 0.011500
# 112 positions

vt 0.995000 0.605795
vt 0.995000 0.995000
vt 0.718016 0.995000
vt 0.718016 0.836426
vt 0.718016 0.764369
vt 0.718016 0.605795
vt 0.281984 0.328465
vt 0.281984 0.598747
vt 0.005000 0.598747
vt 0.005000 0.499634
vt 0.005000 0.427577
vt 0.005000 0.328465
vt 0.005000 0.605795
vt 0.005000 0.995000
vt 0.281984 0.995000
vt 0.281984 0.836426
vt 0.281984 0.764369
vt 0.281984 0.605795
vt 0.668122 0.824939
vt 0.668122 0.775856
vt 0.497720 0.895888
vt 0.497720 0.823831
vt 0.394716 0.835318
vt 0.394716 0.884401
vt 0.331878 0.824939
vt 0.331878 0.775856
vt 0.700386 0.433405
vt 0.700386 0.505462
vt 0.803390 0.493975
vt 0.803390 0.444892
vt 0.668122 0.867454
vt 0.668122 0.733341
vt 0.700386 0.604574
vt 0.827932 0.536490
vt 0.827932 0.402376
vt 0.700386 0.334292
vt 0.331878 0.867454
vt 0.331878 0.733341
vt 0.497720 0.724719
vt 0.370175 0.792803
vt 0.370175 0.926916
vt 0.497720 0.995000
vt 0.540890 0.680328
vt 0.589973 0.680328
vt 0.589973 0.650435
vt 0.540890 0.650435
vt 0.632488 0.680328
vt 0.632488 0.650435
vt 0.361771 0.775856
vt 0.361771 0.733341
vt 0.361771 0.824939
vt 0.361771 0.867454
vt 0.498374 0.687341
vt 0.540890 0.687341
vt 0.540890 0.717234
vt 0.498374 0.717234
vt 0.589973 0.687341
vt 0.589973 0.717234
vt 0.632488 0.687341
vt 0.632488 0.717234
vt 0.638229 0.775856
vt 0.638229 0.733341
vt 0.638229 0.824939
vt 0.638229 0.867454
vt 0.498374 0.680328
vt 0.498374 0.650435
vt 0.842792 0.269463
vt 0.842792 0.220380
vt 0.832900 0.223029
vt 0.832900 0.266814
vt 0.818250 0.177865
vt 0.811007 0.185108
vt 0.775735 0.153323
vt 0.773086 0.163216
vt 0.726652 0.153323
vt 0.729301 0.163216
vt 0.684137 0.177865
vt 0.691380 0.185108
vt 0.659595 0.220380
vt 0.669487 0.223029
vt 0.659595 0.269463
vt 0.669487 0.266814
vt 0.684137 0.311978
vt 0.691380 0.304735
vt 0.726652 0.336520
vt 0.729301 0.326628
vt 0.775735 0.336520
vt 0.773086 0.326628
vt 0.818250 0.311978
vt 0.811007 0.304735
vt 0.304132 0.639537
vt 0.304132 0.369256
vt 0.693338 0.369256
vt 0.693338 0.639537
vt 0.290536 0.262659
vt 0.290536 0.190602
vt 0.290536 0.091490
vt 0.567520 0.091490
vt 0.567520 0.361771
vt 0.290536 0.361771
vt 0.320256 0.991216
vt 0.309859 0.980819
vt 0.306075 0.966638
vt 0.309878 0.952476
vt 0.320256 0.942099
vt 0.334437 0.938276
vt 0.348599 0.942079
vt 0.358996 0.952476
vt 0.362799 0.966638
vt 0.358977 0.980819
vt 0.348599 0.991197
vt 0.334437 0.995000
vt 0.339096 0.652886
vt 0.364162 0.652886
vt 0.364162 0.699752
vt 0.339096 0.699752
vt 0.387132 0.728889
vt 0.366290 0.714968
vt 0.392291 0.675994
vt 0.413137 0.689889
vt 0.457832 0.693605
vt 0.436962 0.707522
vt 0.410966 0.668518
vt 0.431835 0.654601
vt 0.465353 0.670367
vt 0.490420 0.670367
vt 0.490420 0.717234
vt 0.465353 0.717234
vt 0.349559 0.877980
vt 0.370402 0.891899
vt 0.344400 0.930900
vt 0.323557 0.916981
vt 0.506144 0.955997
vt 0.527016 0.942105
vt 0.553012 0.981082
vt 0.532143 0.995000
vt 0.327607 0.693925
vt 0.330040 0.693925
vt 0.330040 0.693087
vt 0.327607 0.693087
vt 0.332148 0.693925
vt 0.332148 0.693087
vt 0.331326 0.702816
vt 0.331326 0.704924
vt 0.332164 0.704924
vt 0.332164 0.702816
vt 0.331326 0.707356
vt 0.332164 0.707356
vt 0.331326 0.709464
vt 0.332164 0.709464
vt 0.292478 0.994162
vt 0.294586 0.994162
vt 0.294586 0.995000
vt 0.292478 0.995000
vt 0.297019 0.994162
vt 0.297019 0.995000
vt 0.299127 0.994162
vt 0.299127 0.995000
vt 0.322452 0.677564
vt 0.322452 0.679672
vt 0.321614 0.679672
vt 0.321614 0.677564
vt 0.322452 0.682105
vt 0.321614 0.682105
vt 0.322452 0.684213
vt 0.321614 0.684213
vt 0.325499 0.693925
vt 0.325499 0.693087
vt 0.324868 0.667292
vt 0.324868 0.664859
vt 0.323652 0.662751
vt 0.321544 0.661535
vt 0.319111 0.661535
vt 0.317003 0.662751
vt 0.315787 0.664859
vt 0.315787 0.667292
vt 0.317003 0.669400
vt 0.319111 0.670616
vt 0.321544 0.670616
vt 0.323652 0.669400
# 180 texture coordinates

vn -1.000000 0.000000 0.000000
vn -1.000000 0.000000 0.000000
vn -1.000000 0.000000 0.000000
vn 0.000000 1.000000 0.000000
vn 0.000000 1.000000 0.000000
vn -1.000000 0.000000 0.000000
vn 0.000000 0.000000 1.000000
vn 0.000000 0.000000 1.000000
vn 0.000000 0.000000 1.000000
vn 0.000000 1.000000 0.000000
vn 0.000000 1.000000 0.000000
vn 0.000000 0.000000 1.000000
vn 1.000000 0.000000 0.000000
vn 1.000000 0.000000 0.000000
vn 1.000000 0.000000 0.000000
vn 0.000000 1.000000 0.000000
vn 0.000000 1.000000 0.000000
vn 1.000000 0.000000 0.000000
vn -0.652066 0.756172 -0.054897
vn -0.652067 0.756172 0.054897
vn -0.685992 0.726640 0.037547
vn -0.685992 0.726640 -0.037547
vn -0.039903 0.915400 0.400563
vn 0.039903 0.915400 0.400563
vn 0.034108 0.913333 0.405784
vn -0.034108 0.913333 0.405784
vn 0.652066 0.756172 0.054897
vn 0.652067 0.756172 -0.054897
vn 0.685992 0.726640 -0.037547
vn 0.685992 0.726640 0.037547
vn 0.039903 0.915400 -0.400563
vn -0.039903 0.915400 -0.400563
vn -0.034108 0.913333 -0.405784
vn 0.034108 0.913333 -0.405784
vn -0.611352 0.787834 0.074611
vn -0.611352 0.787834 0.074611
vn -0.611352 0.787834 -0.074611
vn -0.611352 0.787834 -0.074611
vn -0.065375 0.923790 -0.377276
vn -0.065375 0.923790 -0.377276
vn 0.065375 0.923790 -0.377276
vn 0.065375 0.923790 -0.377277
vn 0.611352 0.787834 -0.074611
vn 0.611352 0.787834 -0.074611
vn 0.611352 0.787834 0.074611
vn 0.611352 0.787834 0.074611
vn 0.065375 0.923790 0.377276
vn 0.065375 0.923790 0.377276
vn -0.065375 0.923790 0.377276
vn -0.065375 0.923790 0.377277
vn -0.258798 0.000000 0.965932
vn 0.258798 0.000000 0.965932
vn 0.258798 0.000000 0.965932
vn -0.258798 0.000000 0.965932
vn 0.707107 0.000000 0.707107
vn 0.707107 0.000000 0.707107
vn 0.965932 0.000000 0.258798
vn 0.965932 0.000000 0.258798
vn 0.965932 0.000000 -0.258798
vn 0.965932 0.000000 -0.258798
vn 0.707107 0.000000 -0.707107
vn 0.707107 0.000000 -0.707107
vn 0.258798 0.000000 -0.965932
vn 0.258798 0.000000 -0.965932
vn -0.258798 0.000000 -0.965932
vn -0.258798 0.000000 -0.965932
vn -0.707107 0.000000 -0.707107
vn -0.707107 0.000000 -0.707107
vn -0.965932 0.000000 -0.258798
vn -0.965932 0.000000 -0.258798
vn -0.965932 0.000000 0.258798
vn -0.965932 0.000000 0.258798
vn -0.707107 0.000000 0.707107
vn -0.707107 0.000000 0.707107
vn 0.000000 1.000000 0.000000
vn 0.000000 1.000000 0.000000
vn 0.000000 1.000000 0.000000
vn 0.000000 1.000000 0.000000
vn 0.000000 1.000000 0.000000
vn 0.000000 1.000000 0.000000
vn 0.000000 1.000000 0.000000
vn 0.000000 1.000000 0.000000
vn 0.000000 1.000000 0.000000
vn 0.000000 1.000000 0.000000
vn 0.000000 1.000000 0.000000
vn 0.000000 1.000000 0.000000
vn 0.000000 1.000000 0.000000
vn 0.000000 1.000000 0.000000
vn 0.000000 1.000000 0.000000
vn 0.000000 1.000000 0.000000
vn 0.000000 1.000000 0.000000
vn 0.000000 1.000000 0.000000
vn 0.000000 1.000000 0.000000
vn 0.000000 1.000000 0.000000
vn 0.000000 1.000000 0.000000
vn 0.000000 1.000000 0.000000
vn 0.000000 1.000000 0.000000
vn 0.000000 1.000000 0.000000
vn 0.000000 -1.000000 0.000000
vn 0.000000 -1.000000 0.000000
vn 0.000000 -1.000000 0.000000
vn 0.000000 -1.000000 0.000000
vn 0.000000 1.000000 0.000000
vn 0.000000 1.000000 0.000000
vn 0.000000 0.000000 -1.000000
vn 0.000000 0.000000 -1.000000
vn 0.000000 0.000000 -1.000000
vn 0.000000 0.000000 -1.000000
vn 0.000000 1.000000 0.000000
vn 0.000000 1.000000 0.000000
vn 0.000000 1.000000 0.000000
vn 0.000000 1.000000 0.000000
vn 0.000000 1.000000 0.000000
vn 0.000000 1.000000 0.000000
vn 0.000000 1.000000 0.000000
vn 0.000000 1.000000 0.000000
vn 0.000000 1.000000 0.000000
vn 0.000000 1.000000 0.000000
vn 0.000000 1.000000 0.000000
vn 0.000000 1.000000 0.000000
vn 0.000000 0.865844 -0.500314
vn 0.000000 0.865844 -0.500314
vn 0.000000 0.865844 -0.500314
vn 0.000000 0.865844 -0.500314
vn 0.433417 0.865746 -0.250265
vn 0.433417 0.865746 -0.250265
vn 0.433417 0.865746 -0.250265
vn 0.433417 0.865746 -0.250265
vn 0.433002 0.866048 0.249942
vn 0.433002 0.866048 0.249942
vn 0.433002 0.866048 0.249942
vn 0.433002 0.866048 0.249942
vn 0.000000 0.865844 0.500314
vn 0.000000 0.865844 0.500314
vn 0.000000 0.865844 0.500314
vn 0.000000 0.865844 0.500314
vn -0.433352 0.865814 0.250144
vn -0.433352 0.865814 0.250144
vn -0.433352 0.865814 0.250144
vn -0.433352 0.865814 0.250144
vn -0.433067 0.865980 -0.250063
vn -0.433067 0.865980 -0.250063
vn -0.433067 0.865980 -0.250063
vn -0.433067 0.865980 -0.250063
vn -0.258736 0.000000 0.965948
vn 0.258736 0.000000 0.965948
vn 0.258736 0.000000 0.965948
vn -0.258736 0.000000 0.965948
vn 0.707107 0.000000 0.707107
vn 0.707107 0.000000 0.707107
vn 0.965948 0.000000 0.258736
vn 0.965948 0.000000 0.258736
vn 0.965948 0.000000 -0.258736
vn 0.965948 0.000000 -0.258736
vn 0.707107 0.000000 -0.707107
vn 0.707107 0.000000 -0.707107
vn 0.258736 0.000000 -0.965948
vn 0.258736 0.000000 -0.965948
vn -0.258736 0.000000 -0.965948
vn -0.258736 0.000000 -0.965948
vn -0.707107 0.000000 -0.707107
vn -0.707107 0.000000 -0.707107
vn -0.965948 0.000000 -0.258736
vn -0.965948 0.000000 -0.258736
vn -0.965948 0.000000 0.258736
vn -0.965948 0.000000 0.258736
vn -0.707107 0.000000 0.707107
vn -0.707107 0.000000 0.707107
vn 0.000000 1.000000 0.000000
vn 0.000000 1.000000 0.000000
vn 0.000000 1.000000 0.000000
vn 0.000000 1.000000 0.000000
vn 0.000000 1.000000 0.000000
vn 0.000000 1.000000 0.000000
vn 0.000000 1.000000 0.000000
vn 0.000000 1.000000 0.000000
vn 0.000000 1.000000 0.000000
vn 0.000000 1.000000 0.000000
vn 0.000000 1.000000 0.000000
vn 0.000000 1.000000 0.000000
# 180 normals

usemtl default
s 1
f 1/1/1 4/2/2 7/3/3 14/4/4 13/5/5 2/6/6
s 2
f 4/7/7 6/8/8 9/9/9 22/10/10 21/11/11 7/12/12
s 3
f 6/13/13 5/14/14 8/15/15 19/16/16 18/17/17 9/18/18
s 4
f 13/5/19 14/4/20 28/19/21 15/20/22
f 14/4/20 7/3/35 10/31/36 28/19/21
f 15/20/22 27/32/37 2/6/38 13/5/19
s 5
f 21/21/23 22/22/24 23/23/25 24/24/26
f 22/22/24 9/39/47 11/40/48 23/23/25
f 24/24/26 10/41/49 7/42/50 21/21/23
s 6
f 18/17/27 19/16/28 25/25/29 20/26/30
f 19/16/28 8/15/43 12/37/44 25/25/29
f 20/26/30 11/38/45 9/18/46 18/17/27
s 7
f 16/27/31 3/28/32 17/29/33 26/30/34
f 3/28/32 2/33/39 27/34/40 17/29/33
f 26/30/34 12/35/41 8/36/42 16/27/31
s 8
f 24/43/51 23/44/52 30/45/53 29/46/54
f 23/44/52 11/47/55 31/48/56 30/45/53
f 11/38/55 20/26/57 32/49/58 31/50/56
f 20/26/57 25/25/59 33/51/60 32/49/58
f 25/25/59 12/37/61 34/52/62 33/51/60
f 12/53/61 26/54/63 35/55/64 34/56/62
f 26/54/63 17/57/65 36/58/66 35/55/64
f 17/57/65 27/59/67 37/60/68 36/58/66
f 27/32/67 15/20/69 38/61/70 37/62/68
f 15/20/69 28/19/71 39/63/72 38/61/70
f 28/19/71 10/31/73 40/64/74 39/63/72
f 10/65/73 24/43/51 29/46/54 40/66/74
s 9
f 29/67/75 30/68/76 42/69/77 41/70/78
f 30/68/76 31/71/79 43/72/80 42/69/77
f 31/71/79 32/73/81 44/74/82 43/72/80
f 32/73/81 33/75/83 45/76/84 44/74/82
f 33/75/83 34/77/85 46/78/86 45/76/84
f 34/77/85 35/79/87 47/80/88 46/78/86
f 35/79/87 36/81/89 48/82/90 47/80/88
f 36/81/89 37/83/91 49/84/92 48/82/90
f 37/83/91 38/85/93 50/86/94 49/84/92
f 38/85/93 39/87/95 51/88/96 50/86/94
f 39/87/95 40/89/97 52/90/98 51/88/96
f 40/89/97 29/67/75 41/70/78 52/90/98
s 10
f 6/91/99 4/92/100 1/93/101 5/94/102
s 11
f 3/95/103 16/96/104 8/97/105 5/98/106 1/99/107 2/100/108
s 12
f 53/101/109 54/102/110 55/103/111 56/104/112 57/105/113 58/106/114 59/107/115 60/108/116 61/109/117 62/110/118 63/111/119 64/112/120
s 13
f 65/113/121 66/114/122 68/115/123 67/116/124
s 14
f 69/117/125 70/118/126 72/119/127 71/120/128
s 15
f 73/121/129 74/122/130 76/123/131 75/124/132
s 16
f 77/125/133 78/126/134 80/127/135 79/128/136
s 17
f 81/129/137 82/130/138 84/131/139 83/132/140
s 18
f 85/133/141 86/134/142 88/135/143 87/136/144
s 19
f 89/137/145 90/138/146 91/139/147 92/140/148
f 90/138/146 93/141/149 94/142/150 91/139/147
f 93/143/149 95/144/151 96/145/152 94/146/150
f 95/144/151 97/147/153 98/148/154 96/145/152
f 97/147/153 99/149/155 100/150/156 98/148/154
f 99/151/155 101/152/157 102/153/158 100/154/156
f 101/152/157 103/155/159 104/156/160 102/153/158
f 103/155/159 105/157/161 106/158/162 104/156/160
f 105/159/161 107/160/163 108/161/164 106/162/162
f 107/160/163 109/163/165 110/164/166 108/161/164
f 109/163/165 111/165/167 112/166/168 110/164/166
f 111/167/167 89/137/145 92/140/148 112/168/168
s 20
f 92/169/169 91/170/170 94/171/171 96/172/172 98/173/173 100/174/174 102/175/175 104/176/176 106/177/177 108/178/178 110/179/179 112/180/180

# 61 faces
