# Wavefront Obj file
# 
# verts: 138 uv-s: 296
mtllib bomba superior.mtl

g Cylinder6668

v -0.010300 0.078400 0.100000
v -0.085700 0.078400 0.068800
v -0.116900 0.078400 -0.006600
v -0.085700 0.078400 -0.081900
v -0.010300 0.078400 -0.113100
v 0.065000 0.078400 -0.081900
v 0.096200 0.078400 -0.006600
v 0.065000 0.078400 0.068800
v -0.010300 0.296400 0.100000
v -0.085700 0.296400 0.068800
v -0.116900 0.296400 -0.006600
v -0.085700 0.296400 -0.081900
v -0.010300 0.296400 -0.113100
v 0.065000 0.296400 -0.081900
v 0.096200 0.296400 -0.006600
v 0.065000 0.296400 0.068800
v 0.104800 0.008300 0.040200
v 0.043700 0.008300 0.101300
v -0.042700 0.008300 0.101300
v -0.103800 0.008300 0.040200
v -0.103800 0.008300 -0.046200
v -0.042700 0.008300 -0.107300
v 0.043700 0.008300 -0.107300
v 0.104800 0.008300 -0.046200
v 0.104800 0.055100 0.040200
v 0.043700 0.055100 0.101300
v -0.042700 0.055100 0.101300
v -0.103800 0.055100 0.040200
v -0.103800 0.055100 -0.046200
v -0.042700 0.055100 -0.107300
v 0.043700 0.055100 -0.107300
v 0.104800 0.055100 -0.046200
v -0.116500 0.347200 -0.009000
v -0.109900 0.347200 -0.046200
v -0.091000 0.347200 -0.078900
v -0.062100 0.347200 -0.103200
v -0.026600 0.347200 -0.116100
v 0.011200 0.347200 -0.116100
v 0.046700 0.347200 -0.103200
v 0.075600 0.347200 -0.078900
v 0.094500 0.347200 -0.046200
v 0.101100 0.347200 -0.009000
v 0.094500 0.347200 0.028200
v 0.075600 0.347200 0.060900
v 0.046700 0.347200 0.085200
v 0.011200 0.347200 0.098100
v -0.026600 0.347200 0.098100
v -0.062100 0.347200 0.085200
v -0.091000 0.347200 0.060900
v -0.109900 0.347200 0.028200
v -0.116500 0.295600 -0.009000
v -0.109900 0.295600 -0.046200
v -0.091000 0.295600 -0.078900
v -0.062100 0.295600 -0.103200
v -0.026600 0.295600 -0.116100
v 0.011200 0.295600 -0.116100
v 0.046700 0.295600 -0.103200
v 0.075600 0.295600 -0.078900
v 0.094500 0.295600 -0.046200
v 0.101100 0.295600 -0.009000
v 0.094500 0.295600 0.028200
v 0.075600 0.295600 0.060900
v 0.046700 0.295600 0.085200
v 0.011200 0.295600 0.098100
v -0.026600 0.295600 0.098100
v -0.062100 0.295600 0.085200
v -0.091000 0.295600 0.060900
v -0.109900 0.295600 0.028200
v -0.093200 0.359700 -0.040100
v -0.098700 0.359700 -0.009000
v -0.093200 0.359700 0.022100
v -0.077400 0.359700 0.049500
v -0.053200 0.359700 0.069800
v -0.023500 0.359700 0.080600
v 0.008100 0.359700 0.080600
v 0.037800 0.359700 0.069800
v 0.062000 0.359700 0.049500
v 0.077800 0.359700 0.022100
v 0.083300 0.359700 -0.009000
v 0.077800 0.359700 -0.040100
v 0.062000 0.359700 -0.067500
v 0.037800 0.359700 -0.087800
v 0.008100 0.359700 -0.098600
v -0.023500 0.359700 -0.098600
v -0.053200 0.359700 -0.087800
v -0.077400 0.359700 -0.067500
v -0.167000 0.290400 -0.052300
v -0.167000 0.180200 -0.052300
v -0.167000 0.290400 0.054100
v -0.167000 0.180200 0.054100
v -0.099500 0.290400 -0.052300
v -0.099500 0.180200 -0.052300
v -0.099500 0.290400 0.054100
v -0.099500 0.180200 0.054100
v -0.010300 0.034200 0.087400
v -0.074300 0.034200 0.060900
v -0.100800 0.034200 -0.003100
v -0.074300 0.034200 -0.067100
v -0.010300 0.034200 -0.093600
v 0.053700 0.034200 -0.067100
v 0.080200 0.034200 -0.003100
v 0.053700 0.034200 0.060900
v -0.010300 0.079000 0.087400
v -0.074300 0.079000 0.060900
v -0.100800 0.079000 -0.003100
v -0.074300 0.079000 -0.067100
v -0.010300 0.079000 -0.093600
v 0.053700 0.079000 -0.067100
v 0.080200 0.079000 -0.003100
v 0.053700 0.079000 0.060900
v -0.037800 0.014000 -0.079500
v -0.037800 0.014000 0.078000
v -0.037800 -0.149100 0.078000
v -0.037800 -0.149100 -0.079500
v 0.076700 0.014000 -0.079500
v 0.076700 -0.149100 -0.079500
v 0.076700 -0.149100 0.078000
v 0.076700 0.014000 0.078000
v -0.109100 -0.014500 -0.046400
v -0.109100 -0.014500 0.044800
v -0.109100 -0.120700 0.044800
v -0.109100 -0.120700 -0.046400
v 0.053700 -0.164100 0.128000
v -0.052600 -0.164100 0.128000
v -0.052600 -0.146800 0.128000
v 0.053700 -0.146800 0.128000
v -0.127800 -0.164100 0.052800
v -0.127800 -0.146800 0.052800
v -0.127800 -0.164100 -0.053600
v -0.127800 -0.146800 -0.053600
v -0.052600 -0.164100 -0.128700
v -0.052600 -0.146800 -0.128700
v 0.053700 -0.164100 -0.128700
v 0.053700 -0.146800 -0.128700
v 0.128900 -0.164100 -0.053600
v 0.128900 -0.146800 -0.053600
v 0.128900 -0.164100 0.052800
v 0.128900 -0.146800 0.052800
# 138 positions

vt 0.894231 0.676309
vt 0.824398 0.676309
vt 0.824398 0.474404
vt 0.894231 0.474404
vt 0.429110 0.764693
vt 0.429110 0.834526
vt 0.631015 0.834526
vt 0.631015 0.764693
vt 0.429110 0.904267
vt 0.631015 0.904267
vt 0.900149 0.005000
vt 0.830316 0.005000
vt 0.830316 0.206905
vt 0.900149 0.206905
vt 0.760575 0.005000
vt 0.760575 0.206905
vt 0.964539 0.795574
vt 0.964539 0.865315
vt 0.762634 0.865315
vt 0.762634 0.795574
vt 0.964539 0.935148
vt 0.762634 0.935148
vt 0.963971 0.676309
vt 0.963971 0.474404
vt 0.789398 0.367162
vt 0.818295 0.436995
vt 0.888128 0.465892
vt 0.957869 0.436995
vt 0.986765 0.367162
vt 0.957869 0.297421
vt 0.888128 0.268525
vt 0.818295 0.297421
vt 0.033897 0.966104
vt 0.103730 0.995000
vt 0.173470 0.966104
vt 0.202367 0.896363
vt 0.173470 0.826530
vt 0.103730 0.797633
vt 0.033897 0.826530
vt 0.005000 0.896363
vt 0.826185 0.258341
vt 0.746164 0.258341
vt 0.746164 0.214996
vt 0.826185 0.214996
vt 0.690576 0.805868
vt 0.690576 0.862457
vt 0.733921 0.862457
vt 0.733921 0.805868
vt 0.690576 0.942478
vt 0.733921 0.942478
vt 0.337195 0.822339
vt 0.280606 0.822339
vt 0.280606 0.865683
vt 0.337195 0.865683
vt 0.200585 0.822339
vt 0.200585 0.865683
vt 0.682451 0.799692
vt 0.682451 0.856281
vt 0.639107 0.856281
vt 0.639107 0.799692
vt 0.682451 0.936302
vt 0.639107 0.936302
vt 0.061589 0.595872
vt 0.005000 0.652461
vt 0.005000 0.732482
vt 0.061589 0.789071
vt 0.141610 0.789071
vt 0.198199 0.732482
vt 0.198199 0.652461
vt 0.141610 0.595872
vt 0.660696 0.556428
vt 0.604107 0.499839
vt 0.604107 0.419818
vt 0.660696 0.363229
vt 0.740717 0.363229
vt 0.797306 0.419818
vt 0.797306 0.499839
vt 0.740717 0.556428
vt 0.206761 0.777416
vt 0.254551 0.777416
vt 0.254551 0.742963
vt 0.206761 0.742963
vt 0.206761 0.807702
vt 0.254551 0.807702
vt 0.445469 0.696753
vt 0.445469 0.744543
vt 0.472236 0.744543
vt 0.472236 0.696753
vt 0.412590 0.696753
vt 0.412590 0.744543
vt 0.377581 0.696753
vt 0.377581 0.744543
vt 0.344702 0.696753
vt 0.344702 0.744543
vt 0.317936 0.696753
vt 0.317936 0.744543
vt 0.310139 0.708509
vt 0.262348 0.708509
vt 0.262348 0.678224
vt 0.310139 0.678224
vt 0.310139 0.742963
vt 0.262348 0.742963
vt 0.310139 0.777416
vt 0.262348 0.777416
vt 0.310139 0.807702
vt 0.262348 0.807702
vt 0.756346 0.355432
vt 0.756346 0.307642
vt 0.783113 0.307642
vt 0.783113 0.355432
vt 0.723467 0.355432
vt 0.723467 0.307642
vt 0.688458 0.355432
vt 0.688458 0.307642
vt 0.655579 0.355432
vt 0.655579 0.307642
vt 0.628813 0.355432
vt 0.628813 0.307642
vt 0.206761 0.708509
vt 0.254551 0.708509
vt 0.254551 0.678224
vt 0.206761 0.678224
vt 0.771892 0.632085
vt 0.790694 0.654499
vt 0.800697 0.682006
vt 0.800697 0.711273
vt 0.790694 0.738780
vt 0.771892 0.761193
vt 0.746516 0.775827
vt 0.717711 0.780921
vt 0.688908 0.775827
vt 0.663530 0.761193
vt 0.644729 0.738780
vt 0.634727 0.711273
vt 0.634727 0.682006
vt 0.644729 0.654499
vt 0.663530 0.632085
vt 0.688908 0.617452
vt 0.717711 0.612358
vt 0.746516 0.617452
vt 0.717711 0.595872
vt 0.683258 0.601985
vt 0.752165 0.601985
vt 0.782451 0.619489
vt 0.804957 0.646256
vt 0.816905 0.679135
vt 0.816905 0.714144
vt 0.804957 0.747023
vt 0.782451 0.773789
vt 0.752165 0.791294
vt 0.717711 0.797407
vt 0.683258 0.791294
vt 0.652972 0.773789
vt 0.630467 0.747023
vt 0.618519 0.714144
vt 0.618519 0.679135
vt 0.630467 0.646256
vt 0.652972 0.619489
vt 0.726759 0.103544
vt 0.726759 0.005000
vt 0.624695 0.005000
vt 0.624695 0.103544
vt 0.601173 0.756180
vt 0.499109 0.756180
vt 0.499109 0.657636
vt 0.601173 0.657636
vt 0.317936 0.814856
vt 0.419999 0.814856
vt 0.419999 0.752340
vt 0.317936 0.752340
vt 0.667652 0.149115
vt 0.569108 0.149115
vt 0.569108 0.211632
vt 0.667652 0.211632
vt 0.601173 0.538226
vt 0.499109 0.538226
vt 0.499109 0.600742
vt 0.601173 0.600742
vt 0.305306 0.670741
vt 0.206761 0.670741
vt 0.206761 0.608225
vt 0.305306 0.608225
vt 0.558384 0.649717
vt 0.499109 0.649717
vt 0.499109 0.608225
vt 0.558384 0.608225
vt 0.575284 0.005000
vt 0.575284 0.064275
vt 0.616776 0.064275
vt 0.616776 0.005000
vt 0.575284 0.123550
vt 0.616776 0.123550
vt 0.737069 0.219114
vt 0.677793 0.219114
vt 0.677793 0.260606
vt 0.737069 0.260606
vt 0.618519 0.219114
vt 0.618519 0.260606
vt 0.596188 0.385876
vt 0.596188 0.445151
vt 0.554696 0.445151
vt 0.554696 0.385876
vt 0.596188 0.504425
vt 0.554696 0.504425
vt 0.617659 0.649717
vt 0.617659 0.608225
vt 0.484106 0.046176
vt 0.424830 0.070719
vt 0.400287 0.129994
vt 0.424830 0.189269
vt 0.484106 0.213813
vt 0.543381 0.189269
vt 0.567924 0.129994
vt 0.543381 0.070719
vt 0.598968 0.358090
vt 0.539693 0.382633
vt 0.480418 0.358090
vt 0.455875 0.298815
vt 0.480418 0.239540
vt 0.539693 0.214996
vt 0.598968 0.239540
vt 0.623511 0.298815
vt 0.317936 0.538226
vt 0.317936 0.689284
vt 0.423982 0.689284
vt 0.423982 0.538226
vt 0.395867 0.005000
vt 0.249996 0.005000
vt 0.249996 0.111046
vt 0.395867 0.111046
vt 0.177083 0.249996
vt 0.177083 0.401054
vt 0.071036 0.401054
vt 0.071036 0.249996
vt 0.150871 0.580605
vt 0.005000 0.580605
vt 0.005000 0.474558
vt 0.150871 0.474558
vt 0.035656 0.408522
vt 0.120123 0.408522
vt 0.005000 0.374658
vt 0.005000 0.276299
vt 0.280745 0.177082
vt 0.365211 0.177082
vt 0.490018 0.662981
vt 0.490018 0.564622
vt 0.416758 0.505342
vt 0.515117 0.505342
vt 0.515117 0.420875
vt 0.416758 0.420875
vt 0.310468 0.453816
vt 0.310468 0.599688
vt 0.159409 0.599688
vt 0.159409 0.453816
vt 0.882774 0.214996
vt 0.882774 0.258341
vt 0.523814 0.389993
vt 0.523814 0.488445
vt 0.539836 0.488445
vt 0.539836 0.389993
vt 0.186173 0.241761
vt 0.186173 0.311409
vt 0.202196 0.311409
vt 0.202196 0.241761
vt 0.186173 0.409953
vt 0.202196 0.409953
vt 0.555684 0.513521
vt 0.486036 0.513521
vt 0.486036 0.529543
vt 0.555684 0.529543
vt 0.387584 0.513521
vt 0.387584 0.529543
vt 0.317936 0.513521
vt 0.317936 0.529543
vt 0.751893 0.005000
vt 0.751893 0.103544
vt 0.735870 0.103544
vt 0.735870 0.005000
vt 0.448627 0.278468
vt 0.378979 0.208820
vt 0.280528 0.208820
vt 0.210879 0.278468
vt 0.210879 0.377012
vt 0.280528 0.446568
vt 0.378979 0.446568
vt 0.448627 0.377012
vt 0.005000 0.173192
vt 0.074648 0.242748
vt 0.173100 0.242748
vt 0.242748 0.173192
vt 0.242748 0.074648
vt 0.173100 0.005000
vt 0.074648 0.005000
vt 0.005000 0.074648
vt 0.751893 0.173192
vt 0.735870 0.173192
# 296 texture coordinates

vn -0.000000 0.000000 1.000000
vn -0.707107 0.000000 0.707107
vn -0.707107 0.000000 0.707107
vn -0.000000 0.000000 1.000000
vn -1.000000 0.000000 0.000000
vn -1.000000 0.000000 0.000000
vn -0.706775 0.000000 -0.707438
vn -0.706775 0.000000 -0.707438
vn -0.000000 0.000000 -1.000000
vn -0.000000 0.000000 -1.000000
vn 0.707107 0.000000 -0.707107
vn 0.707107 0.000000 -0.707107
vn 1.000000 0.000000 0.000000
vn 1.000000 0.000000 0.000000
vn 0.707439 0.000000 0.706775
vn 0.707439 0.000000 0.706775
vn 0.000000 -1.000000 0.000000
vn 0.000000 -1.000000 0.000000
vn 0.000000 -1.000000 0.000000
vn 0.000000 -1.000000 0.000000
vn 0.000000 -1.000000 0.000000
vn 0.000000 -1.000000 0.000000
vn 0.000000 -1.000000 0.000000
vn 0.000000 -1.000000 0.000000
vn 0.000000 1.000000 0.000000
vn 0.000000 1.000000 0.000000
vn 0.000000 1.000000 0.000000
vn 0.000000 1.000000 0.000000
vn 0.000000 1.000000 0.000000
vn 0.000000 1.000000 0.000000
vn 0.000000 1.000000 0.000000
vn 0.000000 1.000000 0.000000
vn 0.382702 0.000000 0.923872
vn -0.382702 0.000000 0.923872
vn -0.382702 0.000000 0.923872
vn 0.382702 0.000000 0.923872
vn -0.923872 0.000000 0.382702
vn -0.923872 0.000000 0.382702
vn -0.923872 0.000000 -0.382702
vn -0.923872 0.000000 -0.382702
vn -0.382702 0.000000 -0.923872
vn -0.382702 0.000000 -0.923872
vn 0.382702 0.000000 -0.923872
vn 0.382702 0.000000 -0.923872
vn 0.923872 0.000000 -0.382702
vn 0.923872 0.000000 -0.382702
vn 0.923872 0.000000 0.382702
vn 0.923872 0.000000 0.382702
vn 0.000000 -1.000000 0.000000
vn 0.000000 -1.000000 0.000000
vn 0.000000 -1.000000 0.000000
vn 0.000000 -1.000000 0.000000
vn 0.000000 -1.000000 0.000000
vn 0.000000 -1.000000 0.000000
vn 0.000000 -1.000000 0.000000
vn 0.000000 -1.000000 0.000000
vn 0.000000 1.000000 0.000000
vn 0.000000 1.000000 0.000000
vn 0.000000 1.000000 0.000000
vn 0.000000 1.000000 0.000000
vn 0.000000 1.000000 0.000000
vn 0.000000 1.000000 0.000000
vn 0.000000 1.000000 0.000000
vn 0.000000 1.000000 0.000000
vn -1.000000 0.000000 0.000000
vn -1.000000 0.000000 0.000000
vn -0.939440 0.000000 -0.342714
vn -0.939440 0.000000 -0.342714
vn -0.766234 0.000000 -0.642561
vn -0.766234 0.000000 -0.642561
vn -0.500188 0.000000 -0.865917
vn -0.500188 0.000000 -0.865917
vn -0.173325 0.000000 -0.984865
vn -0.173325 0.000000 -0.984865
vn 0.173325 0.000000 -0.984865
vn 0.173325 0.000000 -0.984865
vn 0.500188 0.000000 -0.865917
vn 0.500188 0.000000 -0.865917
vn 0.766234 0.000000 -0.642561
vn 0.766234 0.000000 -0.642561
vn 0.939440 0.000000 -0.342714
vn 0.939440 0.000000 -0.342714
vn 1.000000 0.000000 0.000000
vn 1.000000 0.000000 0.000000
vn 0.939440 0.000000 0.342714
vn 0.939440 0.000000 0.342714
vn 0.766234 0.000000 0.642561
vn 0.766234 0.000000 0.642561
vn 0.500188 0.000000 0.865917
vn 0.500188 0.000000 0.865917
vn 0.173325 0.000000 0.984865
vn 0.173325 0.000000 0.984865
vn -0.173325 0.000000 0.984865
vn -0.173325 0.000000 0.984865
vn -0.500188 0.000000 0.865917
vn -0.500188 0.000000 0.865917
vn -0.766234 0.000000 0.642561
vn -0.766234 0.000000 0.642561
vn -0.939440 0.000000 0.342714
vn -0.939440 0.000000 0.342714
vn 0.000000 1.000000 0.000000
vn 0.000000 1.000000 0.000000
vn 0.000000 1.000000 0.000000
vn 0.000000 1.000000 0.000000
vn 0.000000 1.000000 0.000000
vn 0.000000 1.000000 0.000000
vn 0.000000 1.000000 0.000000
vn 0.000000 1.000000 0.000000
vn 0.000000 1.000000 0.000000
vn 0.000000 1.000000 0.000000
vn 0.000000 1.000000 0.000000
vn 0.000000 1.000000 0.000000
vn 0.000000 1.000000 0.000000
vn 0.000000 1.000000 0.000000
vn 0.000000 1.000000 0.000000
vn 0.000000 1.000000 0.000000
vn 0.000000 1.000000 0.000000
vn 0.000000 1.000000 0.000000
vn -0.540442 0.817991 -0.197013
vn -0.540434 0.817991 -0.197034
vn -0.574905 0.818220 0.000000
vn -0.574905 0.818220 0.000000
vn -0.540434 0.817991 0.197034
vn -0.540442 0.817991 0.197013
vn -0.440948 0.817834 0.369747
vn -0.440931 0.817834 0.369767
vn -0.287619 0.817982 0.498178
vn -0.287658 0.817982 0.498156
vn -0.099724 0.817978 0.566539
vn -0.099788 0.817978 0.566528
vn 0.099724 0.817978 0.566539
vn 0.099788 0.817978 0.566528
vn 0.287619 0.817982 0.498178
vn 0.287658 0.817982 0.498156
vn 0.440948 0.817834 0.369747
vn 0.440931 0.817834 0.369767
vn 0.540434 0.817991 0.197034
vn 0.540441 0.817991 0.197013
vn 0.574905 0.818220 -0.000000
vn 0.574905 0.818220 -0.000000
vn 0.540434 0.817991 -0.197034
vn 0.540442 0.817991 -0.197013
vn 0.440948 0.817834 -0.369747
vn 0.440931 0.817834 -0.369767
vn 0.287619 0.817982 -0.498178
vn 0.287658 0.817982 -0.498156
vn 0.099724 0.817978 -0.566539
vn 0.099787 0.817978 -0.566528
vn -0.099724 0.817978 -0.566539
vn -0.099787 0.817978 -0.566528
vn -0.287619 0.817982 -0.498178
vn -0.287658 0.817982 -0.498156
vn -0.440948 0.817834 -0.369747
vn -0.440931 0.817834 -0.369767
vn -1.000000 0.000000 0.000000
vn -1.000000 0.000000 0.000000
vn -1.000000 0.000000 0.000000
vn -1.000000 0.000000 0.000000
vn 1.000000 0.000000 0.000000
vn 1.000000 0.000000 0.000000
vn 1.000000 0.000000 0.000000
vn 1.000000 0.000000 0.000000
vn 0.000000 0.000000 -1.000000
vn 0.000000 0.000000 -1.000000
vn 0.000000 0.000000 -1.000000
vn 0.000000 0.000000 -1.000000
vn 0.000000 -1.000000 0.000000
vn 0.000000 -1.000000 0.000000
vn 0.000000 -1.000000 0.000000
vn 0.000000 -1.000000 0.000000
vn 0.000000 0.000000 1.000000
vn 0.000000 0.000000 1.000000
vn 0.000000 0.000000 1.000000
vn 0.000000 0.000000 1.000000
vn 0.000000 1.000000 0.000000
vn 0.000000 1.000000 0.000000
vn 0.000000 1.000000 0.000000
vn 0.000000 1.000000 0.000000
vn 0.000000 0.000000 1.000000
vn -0.707107 0.000000 0.707107
vn -0.707107 0.000000 0.707107
vn 0.000000 0.000000 1.000000
vn -1.000000 0.000000 0.000000
vn -1.000000 0.000000 0.000000
vn -0.707107 0.000000 -0.707107
vn -0.707107 0.000000 -0.707107
vn 0.000000 0.000000 -1.000000
vn 0.000000 0.000000 -1.000000
vn 0.707107 0.000000 -0.707107
vn 0.707107 0.000000 -0.707107
vn 1.000000 0.000000 0.000000
vn 1.000000 0.000000 0.000000
vn 0.707107 0.000000 0.707107
vn 0.707107 0.000000 0.707107
vn 0.000000 -1.000000 0.000000
vn 0.000000 -1.000000 0.000000
vn 0.000000 -1.000000 0.000000
vn 0.000000 -1.000000 0.000000
vn 0.000000 -1.000000 0.000000
vn 0.000000 -1.000000 0.000000
vn 0.000000 -1.000000 0.000000
vn 0.000000 -1.000000 0.000000
vn 0.000000 1.000000 0.000000
vn 0.000000 1.000000 0.000000
vn 0.000000 1.000000 0.000000
vn 0.000000 1.000000 0.000000
vn 0.000000 1.000000 0.000000
vn 0.000000 1.000000 0.000000
vn 0.000000 1.000000 0.000000
vn 0.000000 1.000000 0.000000
vn 0.000000 0.000000 -1.000000
vn 0.000000 0.000000 -1.000000
vn 0.000000 0.000000 -1.000000
vn 0.000000 0.000000 -1.000000
vn 0.000000 -1.000000 0.000000
vn 0.000000 -1.000000 0.000000
vn 0.000000 -1.000000 0.000000
vn 0.000000 -1.000000 0.000000
vn 0.000000 0.000000 1.000000
vn 0.000000 0.000000 1.000000
vn 0.000000 0.000000 1.000000
vn 0.000000 0.000000 1.000000
vn 0.000000 1.000000 0.000000
vn 0.000000 1.000000 0.000000
vn 0.000000 1.000000 0.000000
vn 0.000000 1.000000 0.000000
vn -0.371166 0.928567 0.000000
vn -0.371166 0.928567 0.000000
vn -0.371166 0.928566 0.000000
vn -0.371166 0.928566 0.000000
vn -0.422120 0.000000 0.906540
vn -0.422120 0.000000 0.906540
vn -0.422120 0.000000 0.906540
vn -0.422120 0.000000 0.906540
vn -0.370042 -0.929015 0.000000
vn -0.370042 -0.929015 0.000000
vn -0.370043 -0.929015 0.000000
vn -0.370042 -0.929015 0.000000
vn -0.421074 0.000000 -0.907026
vn -0.421074 0.000000 -0.907026
vn -0.421074 0.000000 -0.907026
vn -0.421074 0.000000 -0.907026
vn -1.000000 0.000000 0.000000
vn -1.000000 0.000000 0.000000
vn -1.000000 0.000000 0.000000
vn -1.000000 0.000000 0.000000
vn 1.000000 0.000000 0.000000
vn 1.000000 0.000000 0.000000
vn 1.000000 0.000000 0.000000
vn 1.000000 0.000000 0.000000
vn 0.382771 0.000000 0.923843
vn -0.382771 0.000000 0.923843
vn -0.382771 0.000000 0.923843
vn 0.382771 0.000000 0.923843
vn -0.923918 0.000000 0.382591
vn -0.923918 0.000000 0.382591
vn -0.923843 0.000000 -0.382771
vn -0.923843 0.000000 -0.382771
vn -0.382337 0.000000 -0.924023
vn -0.382337 0.000000 -0.924023
vn 0.382337 0.000000 -0.924023
vn 0.382337 0.000000 -0.924023
vn 0.923843 0.000000 -0.382771
vn 0.923843 0.000000 -0.382771
vn 0.923918 0.000000 0.382591
vn 0.923918 0.000000 0.382591
vn 0.000000 -1.000000 0.000000
vn 0.000000 -1.000000 0.000000
vn 0.000000 -1.000000 0.000000
vn 0.000000 -1.000000 0.000000
vn 0.000000 -1.000000 0.000000
vn 0.000000 -1.000000 0.000000
vn 0.000000 -1.000000 0.000000
vn 0.000000 -1.000000 0.000000
vn 0.000000 1.000000 0.000000
vn 0.000000 1.000000 0.000000
vn 0.000000 1.000000 0.000000
vn 0.000000 1.000000 0.000000
vn 0.000000 1.000000 0.000000
vn 0.000000 1.000000 0.000000
vn 0.000000 1.000000 0.000000
vn 0.000000 1.000000 0.000000
# 282 normals

usemtl default
s 1
f 9/1/4 10/2/3 2/3/2 1/4/1
f 10/5/3 11/6/6 3/7/5 2/8/2
f 11/6/6 12/9/8 4/10/7 3/7/5
f 12/11/8 13/12/10 5/13/9 4/14/7
f 13/12/10 14/15/12 6/16/11 5/13/9
f 14/17/12 15/18/14 7/19/13 6/20/11
f 15/18/14 16/21/16 8/22/15 7/19/13
f 16/23/16 9/1/4 1/4/1 8/24/15
s 2
f 1/25/24 2/26/23 3/27/22 4/28/21 5/29/20 6/30/19 7/31/18 8/32/17
s 3
f 16/33/32 15/34/31 14/35/30 13/36/29 12/37/28 11/38/27 10/39/26 9/40/25
s 4
f 26/41/36 27/42/35 19/43/34 18/44/33
f 27/45/35 28/46/38 20/47/37 19/48/34
f 28/46/38 29/49/40 21/50/39 20/47/37
f 29/51/40 30/52/42 22/53/41 21/54/39
f 30/52/42 31/55/44 23/56/43 22/53/41
f 31/57/44 32/58/46 24/59/45 23/60/43
f 32/58/46 25/61/48 17/62/47 24/59/45
f 17/255/47 25/256/48 26/41/36 18/44/33
s 5
f 17/63/56 18/64/55 19/65/54 20/66/53 21/67/52 22/68/51 23/69/50 24/70/49
s 6
f 32/71/64 31/72/63 30/73/62 29/74/61 28/75/60 27/76/59 26/77/58 25/78/57
s 7
f 34/79/68 52/80/67 51/81/66 33/82/65
f 35/83/70 53/84/69 52/80/67 34/79/68
f 36/85/72 54/86/71 53/87/69 35/88/70
f 37/89/74 55/90/73 54/86/71 36/85/72
f 38/91/76 56/92/75 55/90/73 37/89/74
f 39/93/78 57/94/77 56/92/75 38/91/76
f 40/95/80 58/96/79 57/94/77 39/93/78
f 41/97/82 59/98/81 58/99/79 40/100/80
f 42/101/84 60/102/83 59/98/81 41/97/82
f 43/103/86 61/104/85 60/102/83 42/101/84
f 44/105/88 62/106/87 61/104/85 43/103/86
f 45/107/90 63/108/89 62/109/87 44/110/88
f 46/111/92 64/112/91 63/108/89 45/107/90
f 47/113/94 65/114/93 64/112/91 46/111/92
f 48/115/96 66/116/95 65/114/93 47/113/94
f 49/117/98 67/118/97 66/116/95 48/115/96
f 50/119/100 68/120/99 67/121/97 49/122/98
f 33/82/65 51/81/66 68/120/99 50/119/100
s 8
f 72/123/118 73/124/117 74/125/116 75/126/115 76/127/114 77/128/113 78/129/112 79/130/111 80/131/110 81/132/109 82/133/108 83/134/107 84/135/106 85/136/105 86/137/104 69/138/103 70/139/102 71/140/101
s 9
f 33/141/122 70/139/121 69/138/120 34/142/119
f 50/143/124 71/140/123 70/139/121 33/141/122
f 49/144/126 72/123/125 71/140/123 50/143/124
f 48/145/128 73/124/127 72/123/125 49/144/126
f 47/146/130 74/125/129 73/124/127 48/145/128
f 46/147/132 75/126/131 74/125/129 47/146/130
f 45/148/134 76/127/133 75/126/131 46/147/132
f 44/149/136 77/128/135 76/127/133 45/148/134
f 43/150/138 78/129/137 77/128/135 44/149/136
f 42/151/140 79/130/139 78/129/137 43/150/138
f 41/152/142 80/131/141 79/130/139 42/151/140
f 40/153/144 81/132/143 80/131/141 41/152/142
f 39/154/146 82/133/145 81/132/143 40/153/144
f 38/155/148 83/134/147 82/133/145 39/154/146
f 37/156/150 84/135/149 83/134/147 38/155/148
f 36/157/152 85/136/151 84/135/149 37/156/150
f 35/158/154 86/137/153 85/136/151 36/157/152
f 34/142/119 69/138/120 86/137/153 35/158/154
s 10
f 88/159/158 90/160/157 89/161/156 87/162/155
s 11
f 93/163/162 94/164/161 92/165/160 91/166/159
s 12
f 91/167/166 92/168/165 88/169/164 87/170/163
s 13
f 92/171/170 94/172/169 90/173/168 88/174/167
s 14
f 94/175/174 93/176/173 89/177/172 90/178/171
s 15
f 93/179/178 91/180/177 87/181/176 89/182/175
s 16
f 103/183/182 104/184/181 96/185/180 95/186/179
f 104/187/181 105/188/184 97/189/183 96/190/180
f 105/188/184 106/191/186 98/192/185 97/189/183
f 106/193/186 107/194/188 99/195/187 98/196/185
f 107/194/188 108/197/190 100/198/189 99/195/187
f 108/199/190 109/200/192 101/201/191 100/202/189
f 109/200/192 110/203/194 102/204/193 101/201/191
f 110/205/194 103/183/182 95/186/179 102/206/193
s 17
f 95/207/202 96/208/201 97/209/200 98/210/199 99/211/198 100/212/197 101/213/196 102/214/195
s 18
f 110/215/210 109/216/209 108/217/208 107/218/207 106/219/206 105/220/205 104/221/204 103/222/203
s 19
f 115/223/214 116/224/213 114/225/212 111/226/211
s 20
f 116/227/218 117/228/217 113/229/216 114/230/215
s 21
f 117/231/222 118/232/221 112/233/220 113/234/219
s 22
f 118/235/226 115/236/225 111/237/224 112/238/223
s 23
f 119/239/230 120/240/229 112/238/228 111/237/227
s 24
f 120/241/234 121/242/233 113/234/232 112/233/231
s 25
f 121/243/238 122/244/237 114/230/236 113/229/235
s 26
f 122/245/242 119/246/241 111/226/240 114/225/239
s 27
f 119/247/246 122/248/245 121/249/244 120/250/243
s 28
f 115/251/250 118/252/249 117/253/248 116/254/247
s 29
f 126/257/254 125/258/253 124/259/252 123/260/251
f 125/261/253 128/262/256 127/263/255 124/264/252
f 128/262/256 130/265/258 129/266/257 127/263/255
f 130/267/258 132/268/260 131/269/259 129/270/257
f 132/268/260 134/271/262 133/272/261 131/269/259
f 134/271/262 136/273/264 135/274/263 133/272/261
f 136/275/264 138/276/266 137/277/265 135/278/263
f 137/277/265 138/276/266 126/295/254 123/296/251
s 30
f 137/279/274 123/280/273 124/281/272 127/282/271 129/283/270 131/284/269 133/285/268 135/286/267
s 31
f 136/287/282 134/288/281 132/289/280 130/290/279 128/291/278 125/292/277 126/293/276 138/294/275

# 93 faces
