# Wavefront Obj file
# 
# verts: 60 uv-s: 80
mtllib helice.mtl

g Cylinder003

v -0.349100 0.009100 -0.093500
v -0.349100 0.009100 0.093500
v -0.255600 0.009100 0.255600
v -0.093500 0.009100 0.349100
v 0.093500 0.009100 0.349100
v 0.255600 0.009100 0.255600
v 0.349100 0.009100 0.093500
v 0.349100 0.009100 -0.093500
v 0.255600 0.009100 -0.255600
v 0.093500 0.009100 -0.349100
v -0.093500 0.009100 -0.349100
v -0.255600 0.009100 -0.255600
v -0.135600 0.088300 -0.402600
v 0.141000 -0.071500 -0.402600
v -0.135600 0.088300 -1.000000
v 0.141000 -0.071500 -1.000000
v 0.280900 0.088300 -0.318800
v 0.419200 -0.071500 -0.079200
v 0.798200 0.088300 -0.617400
v 0.936500 -0.071500 -0.377800
v 0.416500 0.088300 0.083900
v 0.278200 -0.071500 0.323500
v 0.933800 0.088300 0.382500
v 0.795500 -0.071500 0.622100
v 0.135600 0.088300 0.402600
v -0.141000 -0.071500 0.402600
v 0.135600 0.088300 1.000000
v -0.141000 -0.071500 1.000000
v -0.280900 0.088300 0.318800
v -0.419200 -0.071500 0.079200
v -0.798200 0.088300 0.617400
v -0.936500 -0.071500 0.377800
v -0.416500 0.088300 -0.083900
v -0.278200 -0.071500 -0.323500
v -0.933800 0.088300 -0.382500
v -0.795500 -0.071500 -0.622100
v -0.057700 0.008700 -0.015500
v -0.057700 0.008700 0.015500
v -0.057700 0.019600 0.015500
v -0.057700 0.019600 -0.015500
v -0.042300 0.008700 0.042300
v -0.042300 0.019600 0.042300
v -0.015500 0.008700 0.057700
v -0.015500 0.019600 0.057700
v 0.015500 0.008700 0.057700
v 0.015500 0.019600 0.057700
v 0.042300 0.008700 0.042300
v 0.042300 0.019600 0.042300
v 0.057700 0.008700 0.015500
v 0.057700 0.019600 0.015500
v 0.057700 0.008700 -0.015500
v 0.057700 0.019600 -0.015500
v 0.042300 0.008700 -0.042300
v 0.042300 0.019600 -0.042300
v 0.015500 0.008700 -0.057700
v 0.015500 0.019600 -0.057700
v -0.015500 0.008700 -0.057700
v -0.015500 0.019600 -0.057700
v -0.042300 0.008700 -0.042300
v -0.042300 0.019600 -0.042300
# 60 positions

vt 0.172664 0.545666
vt 0.291670 0.545666
vt 0.394831 0.605169
vt 0.454334 0.708329
vt 0.454334 0.827336
vt 0.394831 0.930497
vt 0.291670 0.990000
vt 0.172664 0.990000
vt 0.069503 0.930497
vt 0.010000 0.827336
vt 0.010000 0.708329
vt 0.069503 0.605169
vt 0.724583 0.363208
vt 0.724583 0.566501
vt 0.344398 0.566501
vt 0.344398 0.363208
vt 0.667417 0.989998
vt 0.464096 0.990000
vt 0.464096 0.609882
vt 0.667417 0.609880
vt 0.213321 0.537120
vt 0.010000 0.537118
vt 0.010000 0.157000
vt 0.213321 0.157002
vt 0.602083 0.150875
vt 0.602083 0.354168
vt 0.221898 0.354168
vt 0.221898 0.150875
vt 0.879750 0.989998
vt 0.676430 0.990000
vt 0.676430 0.609882
vt 0.879750 0.609880
vt 0.609880 0.354196
vt 0.609882 0.150875
vt 0.990000 0.150875
vt 0.989998 0.354196
vt 0.102483 0.990000
vt 0.082754 0.990000
vt 0.082754 0.983063
vt 0.102483 0.983063
vt 0.063083 0.990000
vt 0.063083 0.983063
vt 0.026333 0.930930
vt 0.026333 0.950601
vt 0.019397 0.950601
vt 0.019397 0.930930
vt 0.026333 0.970330
vt 0.019397 0.970330
vt 0.026333 0.990000
vt 0.019397 0.990000
vt 0.033688 0.990000
vt 0.033688 0.970330
vt 0.040625 0.970330
vt 0.040625 0.990000
vt 0.033688 0.950601
vt 0.040625 0.950601
vt 0.033688 0.930930
vt 0.040625 0.930930
vt 0.047980 0.990000
vt 0.047980 0.970330
vt 0.054917 0.970330
vt 0.054917 0.990000
vt 0.047980 0.950601
vt 0.054917 0.950601
vt 0.047980 0.930930
vt 0.054917 0.930930
vt 0.122153 0.990000
vt 0.122153 0.983063
vt 0.222393 0.509834
vt 0.222393 0.490106
vt 0.232194 0.473051
vt 0.249249 0.463250
vt 0.268977 0.463250
vt 0.286032 0.473051
vt 0.295833 0.490106
vt 0.295833 0.509834
vt 0.286032 0.526890
vt 0.268977 0.536690
vt 0.249249 0.536690
vt 0.232194 0.526890
# 80 texture coordinates

vn 0.000000 1.000000 0.000000
vn 0.000000 1.000000 0.000000
vn 0.000000 1.000000 0.000000
vn 0.000000 1.000000 0.000000
vn 0.000000 1.000000 0.000000
vn 0.000000 1.000000 0.000000
vn 0.000000 1.000000 0.000000
vn 0.000000 1.000000 0.000000
vn 0.000000 1.000000 0.000000
vn 0.000000 1.000000 0.000000
vn 0.000000 1.000000 0.000000
vn 0.000000 1.000000 0.000000
vn 0.500246 0.865883 0.000000
vn 0.500246 0.865883 0.000000
vn 0.500246 0.865883 0.000000
vn 0.500246 0.865883 0.000000
vn 0.250050 0.865922 0.433191
vn 0.250050 0.865922 0.433191
vn 0.250050 0.865922 0.433191
vn 0.250050 0.865922 0.433191
vn -0.250050 0.865922 0.433191
vn -0.250050 0.865922 0.433191
vn -0.250050 0.865922 0.433191
vn -0.250050 0.865922 0.433191
vn -0.500246 0.865883 0.000000
vn -0.500246 0.865883 0.000000
vn -0.500246 0.865883 0.000000
vn -0.500246 0.865883 0.000000
vn -0.250050 0.865922 -0.433191
vn -0.250050 0.865922 -0.433191
vn -0.250050 0.865922 -0.433191
vn -0.250050 0.865922 -0.433191
vn 0.250050 0.865922 -0.433191
vn 0.250050 0.865922 -0.433191
vn 0.250050 0.865922 -0.433191
vn 0.250050 0.865922 -0.433191
vn -0.966290 0.000000 -0.257455
vn -0.966290 0.000000 0.257455
vn -0.966290 0.000000 0.257455
vn -0.966290 0.000000 -0.257455
vn -0.707107 0.000000 0.707107
vn -0.707107 0.000000 0.707107
vn -0.257455 0.000000 0.966290
vn -0.257455 0.000000 0.966290
vn 0.257455 0.000000 0.966290
vn 0.257455 0.000000 0.966290
vn 0.707107 0.000000 0.707107
vn 0.707107 0.000000 0.707107
vn 0.966290 0.000000 0.257455
vn 0.966290 0.000000 0.257455
vn 0.966290 0.000000 -0.257455
vn 0.966290 0.000000 -0.257455
vn 0.707107 0.000000 -0.707107
vn 0.707107 0.000000 -0.707107
vn 0.257455 0.000000 -0.966290
vn 0.257455 0.000000 -0.966290
vn -0.257455 0.000000 -0.966290
vn -0.257455 0.000000 -0.966290
vn -0.707107 0.000000 -0.707107
vn -0.707107 0.000000 -0.707107
vn 0.000000 1.000000 0.000000
vn 0.000000 1.000000 0.000000
vn 0.000000 1.000000 0.000000
vn 0.000000 1.000000 0.000000
vn 0.000000 1.000000 0.000000
vn 0.000000 1.000000 0.000000
vn 0.000000 1.000000 0.000000
vn 0.000000 1.000000 0.000000
vn 0.000000 1.000000 0.000000
vn 0.000000 1.000000 0.000000
vn 0.000000 1.000000 0.000000
vn 0.000000 1.000000 0.000000
# 72 normals

usemtl default
s 1
f 10/1/1 11/2/2 12/3/3 1/4/4 2/5/5 3/6/6 4/7/7 5/8/8 6/9/9 7/10/10 8/11/11 9/12/12
s 2
f 13/13/13 14/14/14 16/15/15 15/16/16
s 3
f 17/17/17 18/18/18 20/19/19 19/20/20
s 4
f 21/21/21 22/22/22 24/23/23 23/24/24
s 5
f 25/25/25 26/26/26 28/27/27 27/28/28
s 6
f 29/29/29 30/30/30 32/31/31 31/32/32
s 7
f 33/33/33 34/34/34 36/35/35 35/36/36
s 8
f 37/37/37 38/38/38 39/39/39 40/40/40
f 38/38/38 41/41/41 42/42/42 39/39/39
f 41/43/41 43/44/43 44/45/44 42/46/42
f 43/44/43 45/47/45 46/48/46 44/45/44
f 45/47/45 47/49/47 48/50/48 46/48/46
f 47/51/47 49/52/49 50/53/50 48/54/48
f 49/52/49 51/55/51 52/56/52 50/53/50
f 51/55/51 53/57/53 54/58/54 52/56/52
f 53/59/53 55/60/55 56/61/56 54/62/54
f 55/60/55 57/63/57 58/64/58 56/61/56
f 57/63/57 59/65/59 60/66/60 58/64/58
f 59/67/59 37/37/37 40/40/40 60/68/60
s 9
f 56/69/61 58/70/62 60/71/63 40/72/64 39/73/65 42/74/66 44/75/67 46/76/68 48/77/69 50/78/70 52/79/71 54/80/72

# 20 faces
