# Wavefront Obj file
# 
# verts: 64 uv-s: 164
mtllib soporte_tanques.mtl

g Box4412

v -11.497400 0.000000 226.921494
v -14.826400 0.000000 226.921494
v -14.826400 0.532500 226.921494
v -11.497400 0.532500 226.921494
v -14.826400 0.000000 229.298996
v -14.826400 0.000000 231.715103
v -14.826400 0.532500 231.715103
v -14.826400 0.532500 229.298996
v -14.826400 0.000000 234.145493
v -11.497400 0.000000 234.145493
v -11.497400 0.532500 234.145493
v -14.826400 0.532500 234.145493
v -14.700400 0.532500 227.047501
v -11.497400 0.532500 227.047501
v -14.700400 0.532500 229.298996
v -14.700400 0.532500 231.715103
v -14.700400 0.532500 234.019501
v -11.497400 0.532500 234.019501
v -14.700400 0.002500 227.047501
v -11.497400 0.002500 227.047501
v -14.700400 0.002500 229.298996
v -14.700400 0.002500 231.715103
v -14.700400 0.002500 234.019501
v -11.497400 0.002500 234.019501
v -14.754600 0.000000 231.775406
v -11.445900 0.000000 231.775406
v -11.445900 0.532500 231.775406
v -14.754600 0.532500 231.775406
v -14.754600 0.000000 229.410797
v -11.445900 0.000000 229.410797
v -11.445900 0.532500 229.410797
v -14.754600 0.532500 229.410797
v -11.445900 0.532500 231.655396
v -11.445900 0.000000 231.655396
v -14.754600 0.000000 231.655396
v -14.754600 0.532500 231.655396
v -11.445900 0.532500 229.290695
v -11.445900 0.000000 229.290695
v -14.754600 0.000000 229.290695
v -14.754600 0.532500 229.290695
v -12.242100 0.004800 232.175797
v -12.242100 0.004800 233.610199
v -13.676600 0.004800 233.610199
v -13.676600 0.004800 232.175797
v -12.242100 0.062200 232.175797
v -13.676600 0.062200 232.175797
v -13.676600 0.062200 233.610199
v -12.242100 0.062200 233.610199
v -12.242100 0.004800 229.812805
v -12.242100 0.004800 231.247299
v -13.676600 0.004800 231.247299
v -13.676600 0.004800 229.812805
v -12.242100 0.062200 229.812805
v -13.676600 0.062200 229.812805
v -13.676600 0.062200 231.247299
v -12.242100 0.062200 231.247299
v -12.242100 0.004800 227.453293
v -12.242100 0.004800 228.887802
v -13.676600 0.004800 228.887802
v -13.676600 0.004800 227.453293
v -12.242100 0.062200 227.453293
v -13.676600 0.062200 227.453293
v -13.676600 0.062200 228.887802
v -12.242100 0.062200 228.887802
# 64 positions

vt 0.816159 0.474937
vt 0.816159 0.030446
vt 0.745059 0.030446
vt 0.745059 0.474937
vt 0.101546 0.677554
vt 0.101546 0.354954
vt 0.030446 0.354954
vt 0.030446 0.677554
vt 0.894617 0.926606
vt 0.894617 0.482115
vt 0.823518 0.482115
vt 0.823518 0.926606
vt 0.101546 0.030446
vt 0.030446 0.030446
vt 0.030446 0.995000
vt 0.101546 0.995000
vt 0.005000 0.449491
vt 0.005000 0.005000
vt 0.021825 0.021824
vt 0.021825 0.449491
vt 0.322446 0.005000
vt 0.322446 0.021824
vt 0.645046 0.005000
vt 0.645046 0.021824
vt 0.969554 0.005000
vt 0.952731 0.021824
vt 0.969554 0.449491
vt 0.952731 0.449491
vt 0.745059 0.484236
vt 0.745059 0.911903
vt 0.815825 0.911903
vt 0.815825 0.484236
vt 0.181792 0.030446
vt 0.181792 0.331068
vt 0.111026 0.331068
vt 0.111026 0.030446
vt 0.181792 0.653668
vt 0.111026 0.653668
vt 0.181792 0.961353
vt 0.111026 0.961353
vt 0.825638 0.030446
vt 0.825638 0.458113
vt 0.896404 0.458113
vt 0.896404 0.030446
vt 0.642277 0.472226
vt 0.642277 0.030446
vt 0.571177 0.030446
vt 0.571177 0.472226
vt 0.722856 0.472226
vt 0.722856 0.030446
vt 0.651756 0.030446
vt 0.651756 0.472226
vt 0.189485 0.921775
vt 0.260584 0.921775
vt 0.260584 0.479995
vt 0.189485 0.479995
vt 0.189485 0.472226
vt 0.260585 0.472226
vt 0.260585 0.030446
vt 0.189485 0.030446
vt 0.520284 0.229774
vt 0.520284 0.671554
vt 0.536309 0.671554
vt 0.536309 0.229774
vt 0.341164 0.894675
vt 0.270064 0.894675
vt 0.270064 0.878651
vt 0.341164 0.878651
vt 0.561755 0.030446
vt 0.561755 0.472226
vt 0.545731 0.472226
vt 0.545731 0.030446
vt 0.392056 0.429102
vt 0.320956 0.429102
vt 0.320956 0.445126
vt 0.392056 0.445126
vt 0.469392 0.030446
vt 0.469392 0.472226
vt 0.485428 0.472226
vt 0.485428 0.030446
vt 0.421743 0.894687
vt 0.350644 0.894687
vt 0.350644 0.878651
vt 0.421743 0.878651
vt 0.510874 0.030446
vt 0.510874 0.472226
vt 0.494838 0.472226
vt 0.494838 0.030446
vt 0.392056 0.454549
vt 0.320956 0.454549
vt 0.320956 0.470585
vt 0.392056 0.470585
vt 0.711807 0.679323
vt 0.520284 0.679323
vt 0.520284 0.870859
vt 0.711807 0.870859
vt 0.320956 0.671530
vt 0.320956 0.479995
vt 0.512478 0.479995
vt 0.512478 0.671530
vt 0.527949 0.221982
vt 0.527949 0.030446
vt 0.520284 0.030446
vt 0.520284 0.221982
vt 0.012665 0.849640
vt 0.012665 0.658118
vt 0.005000 0.658118
vt 0.005000 0.849640
vt 0.277729 0.620638
vt 0.277729 0.429102
vt 0.270064 0.429102
vt 0.270064 0.620638
vt 0.005000 0.650312
vt 0.005000 0.458790
vt 0.012665 0.458790
vt 0.012665 0.650312
vt 0.737266 0.479995
vt 0.545731 0.479995
vt 0.545731 0.671530
vt 0.737266 0.671530
vt 0.270064 0.870859
vt 0.270064 0.679323
vt 0.461599 0.679323
vt 0.461599 0.870859
vt 0.294693 0.620638
vt 0.294693 0.429102
vt 0.287028 0.429102
vt 0.287028 0.620638
vt 0.477057 0.870858
vt 0.477057 0.679323
vt 0.469392 0.679323
vt 0.469392 0.870858
vt 0.311657 0.620638
vt 0.311657 0.429102
vt 0.303992 0.429102
vt 0.303992 0.620638
vt 0.904097 0.221981
vt 0.904097 0.030446
vt 0.911762 0.030446
vt 0.911762 0.221981
vt 0.461600 0.030446
vt 0.270064 0.030446
vt 0.270064 0.221982
vt 0.461600 0.221982
vt 0.270064 0.421310
vt 0.270064 0.229774
vt 0.461600 0.229774
vt 0.461600 0.421310
vt 0.494021 0.870859
vt 0.494021 0.679323
vt 0.486356 0.679323
vt 0.486356 0.870859
vt 0.727277 0.870860
vt 0.727277 0.679323
vt 0.719613 0.679323
vt 0.719613 0.870860
vt 0.510985 0.870859
vt 0.510985 0.679323
vt 0.503320 0.679323
vt 0.503320 0.870859
vt 0.904097 0.421311
vt 0.904097 0.229774
vt 0.911762 0.229774
vt 0.911762 0.421311
# 164 texture coordinates

vn 0.000000 0.000000 -1.000000
vn -1.000000 0.000000 0.000000
vn 0.000000 0.000000 1.000000
vn 0.000000 1.000000 0.000000
vn 1.000000 0.000000 0.000000
vn 0.000000 -1.000000 0.000000
# 6 normals

usemtl default
f 1/1/1 2/2/1 3/3/1 4/4/1
f 5/5/2 6/6/2 7/7/2 8/8/2
f 9/9/3 10/10/3 11/11/3 12/12/3
f 6/6/2 9/13/2 12/14/2 7/7/2
f 8/8/2 3/15/2 2/16/2 5/5/2
f 4/17/4 3/18/4 13/19/4 14/20/4
f 3/18/4 8/21/4 15/22/4 13/19/4
f 8/21/4 7/23/4 16/24/4 15/22/4
f 7/23/4 12/25/4 17/26/4 16/24/4
f 12/25/4 11/27/4 18/28/4 17/26/4
f 14/29/3 13/30/3 19/31/3 20/32/3
f 13/33/5 15/34/5 21/35/5 19/36/5
f 15/34/5 16/37/5 22/38/5 21/35/5
f 16/37/5 17/39/5 23/40/5 22/38/5
f 17/41/1 18/42/1 24/43/1 23/44/1
f 25/45/3 26/46/3 27/47/3 28/48/3
f 29/49/3 30/50/3 31/51/3 32/52/3
f 33/53/1 34/54/1 35/55/1 36/56/1
f 37/57/1 38/58/1 39/59/1 40/60/1
f 26/61/6 25/62/6 35/63/6 34/64/6
f 27/65/5 26/66/5 34/67/5 33/68/5
f 28/69/4 27/70/4 33/71/4 36/72/4
f 25/73/2 28/74/2 36/75/2 35/76/2
f 30/77/6 29/78/6 39/79/6 38/80/6
f 31/81/5 30/82/5 38/83/5 37/84/5
f 32/85/4 31/86/4 37/87/4 40/88/4
f 29/89/2 32/90/2 40/91/2 39/92/2
f 41/93/6 42/94/6 43/95/6 44/96/6
f 45/97/4 46/98/4 47/99/4 48/100/4
f 41/101/1 44/102/1 46/103/1 45/104/1
f 44/105/2 43/106/2 47/107/2 46/108/2
f 43/109/3 42/110/3 48/111/3 47/112/3
f 42/113/5 41/114/5 45/115/5 48/116/5
f 49/117/6 50/118/6 51/119/6 52/120/6
f 53/121/4 54/122/4 55/123/4 56/124/4
f 49/125/1 52/126/1 54/127/1 53/128/1
f 52/129/2 51/130/2 55/131/2 54/132/2
f 51/133/3 50/134/3 56/135/3 55/136/3
f 50/137/5 49/138/5 53/139/5 56/140/5
f 57/141/6 58/142/6 59/143/6 60/144/6
f 61/145/4 62/146/4 63/147/4 64/148/4
f 57/149/1 60/150/1 62/151/1 61/152/1
f 60/153/2 59/154/2 63/155/2 62/156/2
f 59/157/3 58/158/3 64/159/3 63/160/3
f 58/161/5 57/162/5 61/163/5 64/164/5

# 45 faces
