# Wavefront Obj file
# 
# verts: 56 uv-s: 150
mtllib pala.mtl

g Rectangle002

v 0.098200 -0.641600 1.148400
v 0.050200 -0.641600 1.148400
v 0.050200 -0.599200 1.171000
v 0.098200 -0.599200 1.171000
v 0.098200 -0.019000 -0.018800
v 0.050200 -0.041600 0.023600
v 0.050200 0.000700 0.046200
v 0.098200 0.023300 0.003800
v -0.098200 -0.019000 -0.018800
v -0.050200 -0.041600 0.023600
v -0.050200 0.000700 0.046200
v -0.098200 0.023300 0.003800
v -0.098200 -0.641600 1.148400
v -0.050200 -0.641600 1.148400
v -0.050200 -0.599200 1.171000
v -0.098200 -0.599200 1.171000
v -0.739100 -0.373200 1.084700
v -0.739100 -0.373200 1.149500
v 0.684900 -0.373200 1.084700
v 0.684900 -0.373200 1.149500
v -0.739100 -0.864900 1.084700
v -0.739100 -0.864900 1.110200
v 0.684900 -0.864900 1.084700
v 0.684900 -0.864900 1.110200
v -0.739100 -0.619000 1.144000
v -0.739100 -0.619000 1.201600
v 0.684900 -0.619000 1.201600
v 0.684900 -0.619000 1.144000
v 0.158900 -0.641600 0.050300
v 0.110900 -0.641600 0.050300
v 0.110900 -0.599200 0.027700
v 0.158900 -0.599200 0.027700
v 0.158900 -0.019000 1.217500
v 0.110900 -0.041600 1.175100
v 0.110900 0.000700 1.152500
v 0.158900 0.023300 1.194900
v -0.158900 -0.019000 1.217500
v -0.110900 -0.041600 1.175100
v -0.110900 0.000700 1.152500
v -0.158900 0.023300 1.194900
v -0.158900 -0.641600 0.050300
v -0.110900 -0.641600 0.050300
v -0.110900 -0.599200 0.027700
v -0.158900 -0.599200 0.027700
v 0.684900 -0.373200 0.118300
v 0.684900 -0.373200 0.053600
v -0.739100 -0.373200 0.118300
v -0.739100 -0.373200 0.053600
v 0.684900 -0.864900 0.118300
v 0.684900 -0.864900 0.092800
v -0.739100 -0.864900 0.118300
v -0.739100 -0.864900 0.092800
v 0.684900 -0.619000 0.059000
v 0.684900 -0.619000 0.001400
v -0.739100 -0.619000 0.001400
v -0.739100 -0.619000 0.059000
# 56 positions

vt 0.658732 0.307471
vt 0.295526 0.307471
vt 0.281835 0.291972
vt 0.658732 0.291972
vt 0.685865 0.112535
vt 0.879578 0.475742
vt 0.865919 0.483039
vt 0.672174 0.119833
vt 0.622919 0.990000
vt 0.622919 0.613102
vt 0.638418 0.626793
vt 0.638418 0.990000
vt 0.966928 0.745265
vt 0.590030 0.544222
vt 0.597328 0.530563
vt 0.974225 0.731573
vt 0.295526 0.339891
vt 0.281835 0.355391
vt 0.302824 0.307471
vt 0.302824 0.339891
vt 0.686338 0.613102
vt 0.670838 0.626793
vt 0.622919 0.605804
vt 0.686338 0.605804
vt 0.658732 0.339891
vt 0.658732 0.355391
vt 0.173662 0.385038
vt 0.367374 0.021831
vt 0.381065 0.029129
vt 0.187321 0.392335
vt 0.686338 0.990000
vt 0.670838 0.990000
vt 0.804792 0.480956
vt 0.603749 0.104058
vt 0.617441 0.096761
vt 0.818451 0.473658
vt 0.130282 0.522401
vt 0.114767 0.522401
vt 0.114767 0.506901
vt 0.130282 0.506901
vt 0.173773 0.522401
vt 0.173773 0.506901
vt 0.187465 0.506901
vt 0.187465 0.522401
vt 0.030924 0.063239
vt 0.030924 0.523060
vt 0.010000 0.523060
vt 0.010000 0.063239
vt 0.047811 0.523060
vt 0.039577 0.523060
vt 0.039577 0.063239
vt 0.047811 0.063239
vt 0.554795 0.826835
vt 0.536196 0.826835
vt 0.553019 0.747465
vt 0.573944 0.747465
vt 0.089403 0.990000
vt 0.089403 0.530179
vt 0.168774 0.530179
vt 0.168774 0.990000
vt 0.126338 0.442328
vt 0.107739 0.442328
vt 0.088590 0.362958
vt 0.109515 0.362958
vt 0.257009 0.990000
vt 0.257009 0.530179
vt 0.336379 0.530179
vt 0.336379 0.990000
vt 0.573944 0.906239
vt 0.565710 0.906239
vt 0.010000 0.990000
vt 0.010000 0.530179
vt 0.096824 0.521731
vt 0.088590 0.521731
vt 0.177606 0.990000
vt 0.177606 0.530179
vt 0.063155 0.138169
vt 0.078654 0.151860
vt 0.078654 0.515067
vt 0.063155 0.515067
vt 0.988028 0.243181
vt 0.980731 0.256840
vt 0.617524 0.063128
vt 0.624822 0.049437
vt 0.599937 0.626793
vt 0.615437 0.613102
vt 0.615437 0.990000
vt 0.599937 0.990000
vt 0.798732 0.493377
vt 0.785073 0.500674
vt 0.584031 0.123777
vt 0.597722 0.116479
vt 0.165775 0.138169
vt 0.150275 0.151860
vt 0.150275 0.159158
vt 0.078654 0.159158
vt 0.528317 0.626793
vt 0.512817 0.613102
vt 0.512817 0.605804
vt 0.615437 0.605804
vt 0.165775 0.515067
vt 0.150275 0.515067
vt 0.628794 0.094199
vt 0.642485 0.086901
vt 0.836197 0.450108
vt 0.822538 0.457406
vt 0.528317 0.990000
vt 0.512817 0.990000
vt 0.187353 0.449407
vt 0.173662 0.442109
vt 0.374704 0.065211
vt 0.388363 0.072509
vt 0.078654 0.522365
vt 0.063155 0.522365
vt 0.209155 0.506901
vt 0.209155 0.522401
vt 0.195464 0.506901
vt 0.195464 0.522401
vt 0.848028 0.040751
vt 0.388208 0.040751
vt 0.388208 0.019859
vt 0.848028 0.019859
vt 0.990000 0.990000
vt 0.981766 0.990000
vt 0.981766 0.530180
vt 0.990000 0.530180
vt 0.123247 0.278666
vt 0.104648 0.278666
vt 0.121504 0.199296
vt 0.142396 0.199296
vt 0.424614 0.990000
vt 0.424614 0.530179
vt 0.503985 0.530179
vt 0.503985 0.990000
vt 0.731690 0.826835
vt 0.713091 0.826835
vt 0.693942 0.747465
vt 0.714834 0.747465
vt 0.702113 0.442329
vt 0.242292 0.442329
vt 0.242292 0.362958
vt 0.702113 0.362958
vt 0.142396 0.358069
vt 0.134162 0.358069
vt 0.345211 0.990000
vt 0.345211 0.530179
vt 0.702176 0.906238
vt 0.693942 0.906238
vt 0.702113 0.521731
vt 0.242292 0.521731
# 150 texture coordinates

vn -0.000157 -0.882321 -0.470648
vn -0.000136 -0.882340 -0.470612
vn -0.000145 -0.882332 -0.470628
vn -0.000157 -0.882321 -0.470648
vn -1.000000 0.000000 0.000000
vn -1.000000 0.000000 0.000000
vn -1.000000 0.000000 0.000000
vn -1.000000 0.000000 0.000000
vn 0.000123 0.882353 0.470588
vn 0.000114 0.882361 0.470572
vn 0.000107 0.882368 0.470560
vn 0.000123 0.882353 0.470588
vn 1.000000 0.000000 0.000000
vn 1.000000 0.000000 0.000000
vn 1.000000 0.000000 0.000000
vn 1.000000 0.000000 0.000000
vn 0.000136 -0.882340 -0.470612
vn 0.000145 -0.882332 -0.470628
vn 0.000000 -0.471238 0.882006
vn 0.000000 -0.471238 0.882006
vn 0.000000 -0.471238 0.882006
vn 0.000000 -0.471238 0.882006
vn -0.000114 0.882361 0.470572
vn -0.000107 0.882368 0.470560
vn 0.000000 0.471237 -0.882006
vn 0.000000 0.471237 -0.882006
vn 0.000000 0.471237 -0.882006
vn 0.000000 0.471237 -0.882006
vn 0.000157 -0.882321 -0.470648
vn 0.000157 -0.882321 -0.470648
vn 1.000000 0.000000 0.000000
vn 1.000000 0.000000 0.000000
vn 1.000000 0.000000 0.000000
vn 1.000000 0.000000 0.000000
vn -0.000123 0.882353 0.470588
vn -0.000123 0.882353 0.470588
vn -1.000000 0.000000 0.000000
vn -1.000000 0.000000 0.000000
vn -1.000000 0.000000 0.000000
vn -1.000000 0.000000 0.000000
vn 0.000000 -0.470373 0.882468
vn 0.000000 -0.470373 0.882468
vn 0.000000 -0.470373 0.882468
vn 0.000000 -0.470373 0.882468
vn 0.000000 -0.470373 0.882468
vn 0.000000 -0.470373 0.882468
vn 0.000000 -0.470373 0.882468
vn 0.000000 -0.470373 0.882468
vn 0.000000 1.000000 0.000000
vn 0.000000 1.000000 0.000000
vn 0.000000 1.000000 0.000000
vn 0.000000 1.000000 0.000000
vn 0.000000 -1.000000 0.000000
vn 0.000000 -1.000000 0.000000
vn 0.000000 -1.000000 0.000000
vn 0.000000 -1.000000 0.000000
vn -1.000000 0.000000 0.000000
vn -1.000000 0.000000 0.000000
vn -1.000000 0.000000 0.000000
vn -1.000000 0.000000 0.000000
vn 0.000000 0.207354 0.978266
vn 0.000000 0.207354 0.978266
vn 0.000000 -0.079673 0.996821
vn 0.000000 -0.079673 0.996821
vn 1.000000 0.000000 0.000000
vn 1.000000 0.000000 0.000000
vn 1.000000 0.000000 0.000000
vn 1.000000 0.000000 0.000000
vn 0.000000 -0.234525 -0.972110
vn 0.000000 -0.234525 -0.972110
vn 0.000000 -0.000000 -1.000000
vn 0.000000 -0.000000 -1.000000
vn -1.000000 0.000000 0.000000
vn -1.000000 0.000000 0.000000
vn 0.000000 -0.348406 0.937344
vn 0.000000 -0.348406 0.937344
vn 1.000000 0.000000 0.000000
vn 1.000000 0.000000 0.000000
vn 0.000000 0.234435 -0.972132
vn 0.000000 0.234435 -0.972132
vn -0.000157 -0.882321 0.470648
vn -0.000157 -0.882321 0.470648
vn -0.000133 -0.882343 0.470607
vn -0.000126 -0.882350 0.470595
vn -1.000000 0.000000 0.000000
vn -1.000000 0.000000 0.000000
vn -1.000000 0.000000 0.000000
vn -1.000000 0.000000 0.000000
vn 0.000123 0.882353 -0.470588
vn 0.000123 0.882353 -0.470588
vn 0.000099 0.882375 -0.470546
vn 0.000104 0.882370 -0.470556
vn 1.000000 0.000000 0.000000
vn 1.000000 0.000000 0.000000
vn 1.000000 0.000000 0.000000
vn 1.000000 0.000000 0.000000
vn 0.000133 -0.882343 0.470607
vn 0.000126 -0.882350 0.470595
vn 0.000000 -0.471237 -0.882007
vn 0.000000 -0.471237 -0.882007
vn 0.000000 -0.471237 -0.882007
vn 0.000000 -0.471237 -0.882007
vn -0.000099 0.882375 -0.470546
vn -0.000104 0.882370 -0.470556
vn 0.000000 0.471237 0.882007
vn 0.000000 0.471237 0.882007
vn 0.000000 0.471237 0.882007
vn 0.000000 0.471237 0.882007
vn 0.000157 -0.882321 0.470648
vn 0.000157 -0.882321 0.470648
vn 1.000000 0.000000 0.000000
vn 1.000000 0.000000 0.000000
vn 1.000000 0.000000 0.000000
vn 1.000000 0.000000 0.000000
vn -0.000123 0.882353 -0.470588
vn -0.000123 0.882353 -0.470588
vn -1.000000 0.000000 0.000000
vn -1.000000 0.000000 0.000000
vn -1.000000 0.000000 0.000000
vn -1.000000 0.000000 0.000000
vn 0.000000 -0.470372 -0.882468
vn 0.000000 -0.470372 -0.882468
vn 0.000000 -0.470372 -0.882468
vn 0.000000 -0.470372 -0.882468
vn 0.000000 -0.470372 -0.882468
vn 0.000000 -0.470372 -0.882468
vn 0.000000 -0.470372 -0.882468
vn 0.000000 -0.470372 -0.882468
vn 0.000000 1.000000 0.000000
vn 0.000000 1.000000 0.000000
vn 0.000000 1.000000 0.000000
vn 0.000000 1.000000 0.000000
vn 0.000000 -1.000000 0.000000
vn 0.000000 -1.000000 0.000000
vn 0.000000 -1.000000 0.000000
vn 0.000000 -1.000000 0.000000
vn 1.000000 0.000000 0.000000
vn 1.000000 0.000000 0.000000
vn 1.000000 0.000000 0.000000
vn 1.000000 0.000000 0.000000
vn 0.000000 0.207735 -0.978185
vn 0.000000 0.207735 -0.978185
vn 0.000000 -0.079471 -0.996837
vn 0.000000 -0.079471 -0.996837
vn -1.000000 0.000000 0.000000
vn -1.000000 0.000000 0.000000
vn -1.000000 0.000000 0.000000
vn -1.000000 0.000000 0.000000
vn 0.000000 -0.234524 0.972110
vn 0.000000 -0.234524 0.972110
vn 0.000000 0.000000 1.000000
vn 0.000000 0.000000 1.000000
vn 1.000000 0.000000 0.000000
vn 1.000000 0.000000 0.000000
vn 0.000000 -0.348407 -0.937343
vn 0.000000 -0.348407 -0.937343
vn -1.000000 0.000000 0.000000
vn -1.000000 0.000000 0.000000
vn 0.000000 0.234434 0.972132
vn 0.000000 0.234434 0.972132
# 160 normals

usemtl default
s 1
f 2/1/4 6/2/3 5/3/2 1/4/1
f 6/2/3 10/17/18 9/18/17 5/3/2
f 10/17/18 14/25/30 13/26/29 9/18/17
s 2
f 3/5/8 7/6/7 6/7/6 2/8/5
s 3
f 4/9/12 8/10/11 7/11/10 3/12/9
f 8/10/11 12/21/24 11/22/23 7/11/10
f 12/21/24 16/31/36 15/32/35 11/22/23
s 4
f 1/13/16 5/14/15 8/15/14 4/16/13
s 5
f 7/19/22 11/20/21 10/17/20 6/2/19
s 6
f 5/23/28 9/24/27 12/21/26 8/10/25
s 7
f 11/27/34 15/28/33 14/29/32 10/30/31
s 8
f 9/33/40 13/34/39 16/35/38 12/36/37
s 9
f 1/37/44 4/38/43 3/39/42 2/40/41
s 10
f 13/41/47 14/42/46 15/43/45
f 13/41/47 15/43/45 16/44/48
s 11
f 18/45/52 20/46/51 19/47/50 17/48/49
s 12
f 23/49/56 24/50/55 22/51/54 21/52/53
s 13
f 25/53/60 26/54/59 18/55/58 17/56/57
f 21/69/74 22/70/73 26/54/59 25/53/60
s 14
f 26/57/64 27/58/63 20/59/62 18/60/61
f 22/71/76 24/72/75 27/58/63 26/57/64
s 15
f 27/61/68 28/62/67 19/63/66 20/64/65
f 24/73/78 23/74/77 28/62/67 27/61/68
s 16
f 28/65/72 25/66/71 17/67/70 19/68/69
f 23/75/80 21/76/79 25/66/71 28/65/72
s 17
f 33/77/84 34/78/83 30/79/82 29/80/81
f 37/93/98 38/94/97 34/78/83 33/77/84
f 41/101/110 42/102/109 38/94/97 37/93/98
s 18
f 34/81/88 35/82/87 31/83/86 30/84/85
s 19
f 35/85/92 36/86/91 32/87/90 31/88/89
f 39/97/104 40/98/103 36/86/91 35/85/92
f 43/107/116 44/108/115 40/98/103 39/97/104
s 20
f 36/89/96 33/90/95 29/91/94 32/92/93
s 21
f 38/94/102 39/95/101 35/96/100 34/78/99
s 22
f 40/98/108 37/99/107 33/100/106 36/86/105
s 23
f 42/103/114 43/104/113 39/105/112 38/106/111
s 24
f 44/109/120 41/110/119 37/111/118 40/112/117
s 25
f 31/113/124 32/114/123 29/80/122 30/79/121
s 26
f 42/115/127 41/116/126 43/117/125
f 43/117/125 41/116/126 44/118/128
s 27
f 46/119/132 48/120/131 47/121/130 45/122/129
s 28
f 51/123/136 52/124/135 50/125/134 49/126/133
s 29
f 53/127/140 54/128/139 46/129/138 45/130/137
f 49/143/154 50/144/153 54/128/139 53/127/140
s 30
f 54/131/144 55/132/143 48/133/142 46/134/141
f 50/145/156 52/146/155 55/132/143 54/131/144
s 31
f 55/135/148 56/136/147 47/137/146 48/138/145
f 52/147/158 51/148/157 56/136/147 55/135/148
s 32
f 56/139/152 53/140/151 45/141/150 47/142/149
f 51/149/160 49/150/159 53/140/151 56/139/152

# 50 faces
