# Wavefront Obj file
# 
# verts: 96 uv-s: 224
mtllib pozo.mtl

g pozo_cuerpo

v -44.361698 0.082200 228.965302
v -44.679600 0.082200 230.151703
v -44.679600 -4.887700 230.151703
v -44.361698 -4.887700 228.965302
v -45.548000 0.082200 231.020096
v -45.548000 -4.887700 231.020096
v -46.734402 0.082200 231.337997
v -46.734402 -4.887700 231.337997
v -47.920700 0.082200 231.020096
v -47.920700 -4.887700 231.020096
v -48.789200 0.082200 230.151703
v -48.789200 -4.887700 230.151703
v -49.107101 0.082200 228.965302
v -49.107101 -4.887700 228.965302
v -48.789200 0.082200 227.778900
v -48.789200 -4.887700 227.778900
v -47.920700 0.082200 226.910507
v -47.920700 -4.887700 226.910507
v -46.734402 0.082200 226.592606
v -46.734402 -4.887700 226.592606
v -45.548000 0.082200 226.910507
v -45.548000 -4.887700 226.910507
v -44.679600 0.082200 227.778900
v -44.679600 -4.887700 227.778900
v -45.725601 0.082200 228.965302
v -45.860802 0.082200 229.469696
v -46.230000 0.082200 229.838898
v -46.734402 0.082200 229.974106
v -47.238800 0.082200 229.838898
v -47.608002 0.082200 229.469696
v -47.743198 0.082200 228.965302
v -47.608002 0.082200 228.460907
v -47.238800 0.082200 228.091705
v -46.734402 0.082200 227.956497
v -46.230000 0.082200 228.091705
v -45.860802 0.082200 228.460907
v -45.725601 0.486900 228.965302
v -45.860802 0.486900 229.469696
v -46.230000 0.486900 229.838898
v -46.734402 0.486900 229.974106
v -47.238800 0.486900 229.838898
v -47.608002 0.486900 229.469696
v -47.743198 0.486900 228.965302
v -47.608002 0.486900 228.460907
v -47.238800 0.486900 228.091705
v -46.734402 0.486900 227.956497
v -46.230000 0.486900 228.091705
v -45.860802 0.486900 228.460907
v -45.875198 0.486900 228.965302
v -45.990299 0.486900 229.394897
v -46.304798 0.486900 229.709305
v -46.734402 0.486900 229.824402
v -47.164001 0.486900 229.709305
v -47.478401 0.486900 229.394897
v -47.593498 0.486900 228.965302
v -47.478401 0.486900 228.535706
v -47.164001 0.486900 228.221298
v -46.734402 0.486900 228.106094
v -46.304798 0.486900 228.221298
v -45.990299 0.486900 228.535706
v -45.875198 0.001100 228.965302
v -45.990299 0.001100 229.394897
v -46.304798 0.001100 229.709305
v -46.734402 0.001100 229.824402
v -47.164001 0.001100 229.709305
v -47.478401 0.001100 229.394897
v -47.593498 0.001100 228.965302
v -47.478401 0.001100 228.535706
v -47.164001 0.001100 228.221298
v -46.734402 0.001100 228.106094
v -46.304798 0.001100 228.221298
v -45.990299 0.001100 228.535706
v -44.470501 0.001100 228.965302
v -44.773800 0.001100 230.097198
v -45.602402 0.001100 230.925903
v -46.734402 0.001100 231.229202
v -47.866299 0.001100 230.925903
v -48.695000 0.001100 230.097198
v -48.998299 0.001100 228.965302
v -48.695000 0.001100 227.833298
v -47.866299 0.001100 227.004700
v -46.734402 0.001100 226.701401
v -45.602402 0.001100 227.004700
v -44.773800 0.001100 227.833298
v -44.470501 -4.697900 228.965302
v -44.773800 -4.697900 230.097198
v -45.602402 -4.697900 230.925903
v -46.734402 -4.697900 231.229202
v -47.866299 -4.697900 230.925903
v -48.695000 -4.697900 230.097198
v -48.998299 -4.697900 228.965302
v -48.695000 -4.697900 227.833298
v -47.866299 -4.697900 227.004700
v -46.734402 -4.697900 226.701401
v -45.602402 -4.697900 227.004700
v -44.773800 -4.697900 227.833298
# 96 positions

vt 0.231720 0.157827
vt 0.231720 0.087876
vt 0.524747 0.087876
vt 0.524747 0.157827
vt 0.303028 0.747696
vt 0.303028 0.798897
vt 0.010000 0.798897
vt 0.010000 0.747696
vt 0.303028 0.868848
vt 0.010000 0.868848
vt 0.303028 0.938793
vt 0.010000 0.938793
vt 0.303028 0.990000
vt 0.010000 0.990000
vt 0.881111 0.990000
vt 0.811160 0.990000
vt 0.811160 0.696972
vt 0.881111 0.696972
vt 0.741209 0.990000
vt 0.741209 0.696972
vt 0.010000 0.741314
vt 0.010000 0.690107
vt 0.303028 0.690107
vt 0.303028 0.741314
vt 0.010000 0.620162
vt 0.303028 0.620162
vt 0.010000 0.550211
vt 0.303028 0.550211
vt 0.010000 0.499010
vt 0.303028 0.499010
vt 0.231720 0.227778
vt 0.524747 0.227778
vt 0.010000 0.351835
vt 0.028744 0.281884
vt 0.079945 0.230683
vt 0.149896 0.211939
vt 0.219841 0.230683
vt 0.271048 0.281884
vt 0.289791 0.351835
vt 0.271048 0.421785
vt 0.219841 0.472986
vt 0.149896 0.491730
vt 0.079945 0.472986
vt 0.028744 0.421785
vt 0.329033 0.635604
vt 0.310289 0.565653
vt 0.390706 0.565653
vt 0.398677 0.595392
vt 0.380234 0.686805
vt 0.420445 0.617161
vt 0.450185 0.705548
vt 0.450185 0.625133
vt 0.520130 0.686805
vt 0.479925 0.617161
vt 0.571337 0.635604
vt 0.501693 0.595392
vt 0.590081 0.565653
vt 0.509664 0.565653
vt 0.571337 0.495702
vt 0.501693 0.535914
vt 0.520130 0.444501
vt 0.479925 0.514145
vt 0.450185 0.425758
vt 0.450185 0.506173
vt 0.380234 0.444501
vt 0.420445 0.514145
vt 0.329033 0.495702
vt 0.398677 0.535914
vt 0.562288 0.681152
vt 0.592028 0.681152
vt 0.592028 0.705013
vt 0.562288 0.705013
vt 0.540520 0.681152
vt 0.540520 0.705013
vt 0.289185 0.467333
vt 0.318924 0.467333
vt 0.318924 0.491195
vt 0.289185 0.491195
vt 0.259445 0.467333
vt 0.259445 0.491195
vt 0.237677 0.467333
vt 0.237677 0.491195
vt 0.463270 0.566366
vt 0.463270 0.536626
vt 0.487131 0.536626
vt 0.487131 0.566366
vt 0.463270 0.596105
vt 0.487131 0.596105
vt 0.291046 0.459518
vt 0.269278 0.459518
vt 0.269278 0.435657
vt 0.291046 0.435657
vt 0.320786 0.459518
vt 0.320786 0.435657
vt 0.350525 0.459518
vt 0.350525 0.435657
vt 0.621767 0.681152
vt 0.643535 0.681152
vt 0.643535 0.705013
vt 0.621767 0.705013
vt 0.099219 0.214038
vt 0.069480 0.222009
vt 0.069480 0.213189
vt 0.094809 0.206402
vt 0.120988 0.192269
vt 0.113347 0.187859
vt 0.128959 0.162530
vt 0.120133 0.162530
vt 0.120988 0.132790
vt 0.113347 0.137200
vt 0.099219 0.111022
vt 0.094809 0.118663
vt 0.069480 0.103050
vt 0.069480 0.111877
vt 0.039740 0.111022
vt 0.044150 0.118663
vt 0.017972 0.132790
vt 0.025613 0.137200
vt 0.010000 0.162530
vt 0.018821 0.162530
vt 0.017972 0.192269
vt 0.025613 0.187859
vt 0.039740 0.214038
vt 0.044150 0.206402
vt 0.609879 0.354485
vt 0.609879 0.379814
vt 0.581236 0.379814
vt 0.581236 0.354485
vt 0.676467 0.645515
vt 0.695010 0.645515
vt 0.695010 0.674158
vt 0.676467 0.674158
vt 0.651137 0.645515
vt 0.651137 0.674158
vt 0.625808 0.645515
vt 0.625808 0.674158
vt 0.426812 0.538703
vt 0.426812 0.520165
vt 0.455455 0.520165
vt 0.455455 0.538703
vt 0.426812 0.564032
vt 0.455455 0.564032
vt 0.426812 0.589361
vt 0.455455 0.589361
vt 0.426812 0.607899
vt 0.455455 0.607899
vt 0.589155 0.629269
vt 0.589155 0.603939
vt 0.617798 0.603939
vt 0.617798 0.629269
vt 0.589155 0.654598
vt 0.617798 0.654598
vt 0.589155 0.673141
vt 0.617798 0.673141
vt 0.609879 0.405143
vt 0.581236 0.405143
vt 0.759826 0.519545
vt 0.766613 0.494216
vt 0.849434 0.494216
vt 0.831552 0.560953
vt 0.741283 0.538083
vt 0.782697 0.609814
vt 0.715954 0.544869
vt 0.715954 0.627697
vt 0.690624 0.538083
vt 0.649216 0.609814
vt 0.672087 0.519545
vt 0.600356 0.560953
vt 0.665301 0.494216
vt 0.582473 0.494216
vt 0.672087 0.468887
vt 0.600356 0.427473
vt 0.690624 0.450349
vt 0.649216 0.378618
vt 0.715954 0.443557
vt 0.715954 0.360736
vt 0.741283 0.450349
vt 0.782697 0.378618
vt 0.759826 0.468887
vt 0.831552 0.427473
vt 0.574242 0.284558
vt 0.574242 0.351295
vt 0.297187 0.351295
vt 0.297187 0.284558
vt 0.574242 0.235697
vt 0.297187 0.235697
vt 0.923257 0.411899
vt 0.990000 0.411899
vt 0.990000 0.688954
vt 0.923257 0.688954
vt 0.856519 0.411899
vt 0.856519 0.688954
vt 0.683966 0.712945
vt 0.732827 0.712945
vt 0.732827 0.990000
vt 0.683966 0.990000
vt 0.617228 0.712945
vt 0.617228 0.990000
vt 0.550485 0.712945
vt 0.550485 0.990000
vt 0.493705 0.712945
vt 0.542566 0.712945
vt 0.542566 0.990000
vt 0.493705 0.990000
vt 0.426968 0.712945
vt 0.426968 0.990000
vt 0.360225 0.712945
vt 0.360225 0.990000
vt 0.311370 0.712945
vt 0.311370 0.990000
vt 0.574242 0.418039
vt 0.297187 0.418039
vt 0.629988 0.230592
vt 0.647871 0.163849
vt 0.696726 0.114994
vt 0.763469 0.097111
vt 0.830206 0.114994
vt 0.879067 0.163849
vt 0.896950 0.230592
vt 0.879067 0.297329
vt 0.830206 0.346190
vt 0.763469 0.364072
vt 0.696726 0.346190
vt 0.647871 0.297329
# 224 texture coordinates

vn 1.000000 0.000000 0.000000
vn 0.866031 0.000000 0.499990
vn 0.499985 0.000000 0.866034
vn -0.000000 0.000000 1.000000
vn -0.499985 0.000000 0.866034
vn -0.866023 0.000000 0.500004
vn -1.000000 0.000000 0.000000
vn -0.866024 0.000000 -0.500003
vn -0.500001 0.000000 -0.866025
vn -0.000000 0.000000 -1.000000
vn 0.499987 0.000000 -0.866033
vn 0.866031 0.000000 -0.499990
vn 0.000000 -1.000000 0.000000
vn 0.000000 1.000000 0.000000
vn 0.500027 0.000000 0.866010
vn -0.866001 0.000000 -0.500043
vn -1.000000 0.000000 0.000000
vn -0.499910 0.000000 -0.866078
vn -0.000000 0.000000 -1.000000
vn 0.500015 0.000000 -0.866017
vn 0.866018 0.000000 -0.500013
vn 1.000000 0.000000 0.000000
vn 0.866018 0.000000 0.500013
vn -0.000000 0.000000 1.000000
vn 0.000000 1.000000 0.000000
# 25 normals

usemtl default
f 1/1/1 2/2/2 3/3/2 4/4/1
f 2/5/2 5/6/3 6/7/3 3/8/2
f 5/6/3 7/9/4 8/10/4 6/7/3
f 7/9/4 9/11/5 10/12/5 8/10/4
f 9/11/5 11/13/6 12/14/6 10/12/5
f 11/15/6 13/16/7 14/17/7 12/18/6
f 13/16/7 15/19/8 16/20/8 14/17/7
f 15/21/8 17/22/9 18/23/9 16/24/8
f 17/22/9 19/25/10 20/26/10 18/23/9
f 19/25/10 21/27/11 22/28/11 20/26/10
f 21/27/11 23/29/12 24/30/12 22/28/11
f 23/31/12 1/1/1 4/4/1 24/32/12
f 4/33/13 3/34/13 6/35/13 8/36/13 10/37/13 12/38/13 14/39/13 16/40/13 18/41/13 20/42/13 22/43/13 24/44/13
f 2/45/14 1/46/14 25/47/14 26/48/14
f 5/49/14 2/45/14 26/48/14 27/50/14
f 7/51/14 5/49/14 27/50/14 28/52/14
f 9/53/14 7/51/14 28/52/14 29/54/14
f 11/55/14 9/53/14 29/54/14 30/56/14
f 13/57/14 11/55/14 30/56/14 31/58/14
f 15/59/14 13/57/14 31/58/14 32/60/14
f 17/61/14 15/59/14 32/60/14 33/62/14
f 19/63/14 17/61/14 33/62/14 34/64/14
f 21/65/14 19/63/14 34/64/14 35/66/14
f 23/67/14 21/65/14 35/66/14 36/68/14
f 1/46/14 23/67/14 36/68/14 25/47/14
f 26/69/2 25/70/1 37/71/1 38/72/2
f 27/73/15 26/69/2 38/72/2 39/74/15
f 28/75/4 27/76/15 39/77/15 40/78/4
f 29/79/5 28/75/4 40/78/4 41/80/5
f 30/81/6 29/79/5 41/80/5 42/82/6
f 31/83/7 30/84/6 42/85/6 43/86/7
f 32/87/8 31/83/7 43/86/7 44/88/8
f 33/89/9 32/90/8 44/91/8 45/92/9
f 34/93/10 33/89/9 45/92/9 46/94/10
f 35/95/11 34/93/10 46/94/10 47/96/11
f 36/97/12 35/98/11 47/99/11 48/100/12
f 25/70/1 36/97/12 48/100/12 37/71/1
f 38/101/14 37/102/14 49/103/14 50/104/14
f 39/105/14 38/101/14 50/104/14 51/106/14
f 40/107/14 39/105/14 51/106/14 52/108/14
f 41/109/14 40/107/14 52/108/14 53/110/14
f 42/111/14 41/109/14 53/110/14 54/112/14
f 43/113/14 42/111/14 54/112/14 55/114/14
f 44/115/14 43/113/14 55/114/14 56/116/14
f 45/117/14 44/115/14 56/116/14 57/118/14
f 46/119/14 45/117/14 57/118/14 58/120/14
f 47/121/14 46/119/14 58/120/14 59/122/14
f 48/123/14 47/121/14 59/122/14 60/124/14
f 37/102/14 48/123/14 60/124/14 49/103/14
f 50/125/16 49/126/17 61/127/17 62/128/16
f 51/129/18 50/130/16 62/131/16 63/132/18
f 52/133/19 51/129/18 63/132/18 64/134/19
f 53/135/20 52/133/19 64/134/19 65/136/20
f 54/137/21 53/138/20 65/139/20 66/140/21
f 55/141/22 54/137/21 66/140/21 67/142/22
f 56/143/23 55/141/22 67/142/22 68/144/23
f 57/145/3 56/143/23 68/144/23 69/146/3
f 58/147/24 57/148/3 69/149/3 70/150/24
f 59/151/5 58/147/24 70/150/24 71/152/5
f 60/153/6 59/151/5 71/152/5 72/154/6
f 49/126/17 60/155/6 72/156/6 61/127/17
f 62/157/13 61/158/13 73/159/13 74/160/13
f 63/161/13 62/157/13 74/160/13 75/162/13
f 64/163/13 63/161/13 75/162/13 76/164/13
f 65/165/13 64/163/13 76/164/13 77/166/13
f 66/167/13 65/165/13 77/166/13 78/168/13
f 67/169/13 66/167/13 78/168/13 79/170/13
f 68/171/13 67/169/13 79/170/13 80/172/13
f 69/173/13 68/171/13 80/172/13 81/174/13
f 70/175/13 69/173/13 81/174/13 82/176/13
f 71/177/13 70/175/13 82/176/13 83/178/13
f 72/179/13 71/177/13 83/178/13 84/180/13
f 61/158/13 72/179/13 84/180/13 73/159/13
f 74/181/8 73/182/7 85/183/7 86/184/8
f 75/185/9 74/181/8 86/184/8 87/186/9
f 76/187/19 75/188/9 87/189/9 88/190/19
f 77/191/20 76/187/19 88/190/19 89/192/20
f 78/193/21 77/194/20 89/195/20 90/196/21
f 79/197/22 78/193/21 90/196/21 91/198/22
f 80/199/23 79/197/22 91/198/22 92/200/23
f 81/201/3 80/202/23 92/203/23 93/204/3
f 82/205/24 81/201/3 93/204/3 94/206/24
f 83/207/5 82/205/24 94/206/24 95/208/5
f 84/209/6 83/207/5 95/208/5 96/210/6
f 73/182/7 84/211/6 96/212/6 85/183/7
f 85/213/25 96/214/25 95/215/25 94/216/25 93/217/25 92/218/25 91/219/25 90/220/25 89/221/25 88/222/25 87/223/25 86/224/25

# 86 faces
