# Wavefront Obj file
# 
# verts: 25 uv-s: 25
mtllib letrero.mtl

g Plane001

v 0.000000 -0.449700 -2.554800
v 0.000000 -0.899300 -2.554800
v 0.000000 -0.899300 -1.277400
v 0.000000 -0.449700 -1.277400
v 0.000000 -0.899300 0.000000
v 0.000000 -0.449700 0.000000
v 0.000000 -0.899300 1.277400
v 0.000000 -0.449700 1.277400
v 0.000000 -0.899300 2.554800
v 0.000000 -0.449700 2.554800
v 0.000000 0.000000 -2.554800
v 0.000000 0.000000 -1.277400
v 0.000000 0.000000 0.000000
v 0.000000 0.000000 1.277400
v 0.000000 0.000000 2.554800
v 0.000000 0.449700 -2.554800
v 0.000000 0.449700 -1.277400
v 0.000000 0.449700 0.000000
v 0.000000 0.449700 1.277400
v 0.000000 0.449700 2.554800
v 0.000000 0.899300 -2.554800
v 0.000000 0.899300 -1.277400
v 0.000000 0.899300 0.000000
v 0.000000 0.899300 1.277400
v 0.000000 0.899300 2.554800
# 25 positions

vt 0.266373 0.995000
vt 0.353484 0.995000
vt 0.353484 0.747500
vt 0.266373 0.747500
vt 0.353484 0.500000
vt 0.266373 0.500000
vt 0.353484 0.252500
vt 0.266373 0.252500
vt 0.353484 0.005000
vt 0.266373 0.005000
vt 0.179242 0.995000
vt 0.179242 0.747500
vt 0.179242 0.500000
vt 0.179242 0.252500
vt 0.179242 0.005000
vt 0.092111 0.995000
vt 0.092111 0.747500
vt 0.092111 0.500000
vt 0.092111 0.252500
vt 0.092111 0.005000
vt 0.005000 0.995000
vt 0.005000 0.747500
vt 0.005000 0.500000
vt 0.005000 0.252500
vt 0.005000 0.005000
# 25 texture coordinates

vn -1.000000 0.000000 0.000000
# 1 normals

usemtl default
f 1/1/1 2/2/1 3/3/1 4/4/1
f 4/4/1 3/3/1 5/5/1 6/6/1
f 6/6/1 5/5/1 7/7/1 8/8/1
f 8/8/1 7/7/1 9/9/1 10/10/1
f 11/11/1 1/1/1 4/4/1 12/12/1
f 12/12/1 4/4/1 6/6/1 13/13/1
f 13/13/1 6/6/1 8/8/1 14/14/1
f 14/14/1 8/8/1 10/10/1 15/15/1
f 16/16/1 11/11/1 12/12/1 17/17/1
f 17/17/1 12/12/1 13/13/1 18/18/1
f 18/18/1 13/13/1 14/14/1 19/19/1
f 19/19/1 14/14/1 15/15/1 20/20/1
f 21/21/1 16/16/1 17/17/1 22/22/1
f 22/22/1 17/17/1 18/18/1 23/23/1
f 23/23/1 18/18/1 19/19/1 24/24/1
f 24/24/1 19/19/1 20/20/1 25/25/1

# 16 faces
