# Wavefront Obj file
# 
# verts: 191 uv-s: 298
mtllib Paredes.mtl

g paredes

v 6.123900 -1.402500 4.827900
v 6.123900 -1.402500 1.295400
v 6.123900 -4.526200 1.295400
v 6.123900 -4.526200 4.827900
v 0.840700 -4.526200 4.827900
v 2.042400 -4.412800 4.827900
v 4.333400 -4.412800 4.827900
v 4.333400 -4.526200 4.827900
v 0.840700 -4.412800 4.827900
v -5.307400 -4.526200 1.295400
v -5.307400 -4.412800 1.295400
v -5.307400 -4.412800 4.827900
v -5.307400 -4.526200 4.827900
v -5.307400 -1.618600 4.827900
v -5.307400 -1.716000 4.827900
v -5.307400 -1.716000 1.295400
v -5.307400 -1.618600 1.295400
v -5.307400 1.373200 -4.563700
v -5.307400 4.386900 -4.563700
v -5.307400 4.386900 1.047000
v -5.307400 1.373200 1.047000
v 6.123900 1.373200 1.047000
v 6.123900 4.386900 1.047000
v 6.123900 4.386900 -4.563700
v 6.123900 1.373200 -4.563700
v 5.883901 1.529700 1.047000
v 5.883901 4.273200 1.047000
v 5.883901 1.373200 1.047000
v 5.883901 4.386900 1.047000
v -5.307400 -4.526200 1.047000
v -5.307400 -4.412800 1.047000
v -0.468400 1.529700 1.047000
v -0.131000 1.529700 1.047000
v -5.023200 1.373200 1.047000
v -5.023200 1.529700 1.047000
v -5.023200 4.386900 1.047000
v -5.023200 4.273200 1.047000
v -0.131000 4.273200 1.047000
v -0.468400 4.273200 1.047000
v -5.307400 -1.716000 1.047000
v -5.307400 -1.618600 1.047000
v -0.544000 -4.412800 4.827900
v -0.544000 -4.526200 4.827900
v -4.507000 -4.526200 4.827900
v -4.507000 -4.412800 4.827900
v -0.544000 -1.402400 4.827900
v -0.544000 -1.716000 4.827900
v -4.507000 -1.716000 4.827900
v -4.507000 -1.402400 4.827900
v 6.123900 -4.526200 -4.563700
v 6.123900 -4.526200 1.047000
v -5.307400 -4.526200 -2.277500
v -5.307400 -4.412800 -2.277500
v 6.123900 1.373200 1.295400
v -2.292800 -4.412800 -2.277500
v -2.292800 -4.526200 -2.277500
v -2.292800 -4.526200 -2.481900
v -2.292800 -4.412800 -2.481900
v -5.307400 -1.402400 1.047000
v -5.307400 -1.402400 -2.294700
v -5.307400 -1.402400 -2.481900
v -5.307400 -1.402500 -4.563700
v -5.307400 -1.618600 -2.286000
v -2.292800 -1.716000 -2.481900
v -2.292800 -1.716000 -2.277500
v -2.292800 -4.526200 -4.563700
v -2.292800 -4.412800 -4.563700
v -2.292800 -1.716000 -4.563700
v 6.123900 1.373200 4.827900
v 4.333400 -1.716000 4.827900
v 4.333400 -1.402400 4.827900
v 4.333400 1.373200 4.827900
v 4.333400 -2.569500 4.827900
v -5.307400 1.373200 1.295400
v -5.307400 -1.402400 1.295400
v -4.507000 1.373200 4.827900
v -5.307400 -1.402400 4.827900
v -5.307400 1.373200 4.827900
v -5.307400 -1.618600 -2.481900
v -5.307400 -1.618600 -4.563700
v -2.292800 -1.618600 -2.481900
v -2.292800 -1.618600 -2.286000
v -5.307400 -1.716000 -2.277500
v -2.292800 -1.618600 -4.563700
v 0.840700 -1.716000 4.827900
v 0.840700 1.373200 4.827900
v 0.840700 -1.402400 4.827900
v -0.544000 1.373200 4.827900
v 2.041700 -2.570200 4.827900
v 6.313500 0.744200 -4.563000
v 6.313500 0.046400 -4.563000
v 6.299800 4.526200 -4.563000
v 6.313500 4.526200 -4.563000
v 6.313500 -1.717200 -4.563000
v 6.299800 -1.717200 -4.563000
v -2.377000 0.046400 -4.563000
v -3.304500 0.046400 -4.563000
v -5.506400 -1.717200 -4.563000
v -2.377000 -1.717200 -4.563000
v -4.118800 0.046400 -4.563000
v -5.043600 0.046400 -4.563000
v -5.506400 0.046400 -4.563000
v -5.506400 0.744200 -4.563000
v -5.043600 0.744200 -4.563000
v -2.377000 4.526200 -4.563000
v -5.506400 4.526200 -4.563000
v -4.118800 0.744200 -4.563000
v -3.304500 0.744200 -4.563000
v -2.377000 0.744200 -4.563000
v 6.313500 -4.525900 -4.563000
v -2.377000 -4.525900 -4.563000
v -1.438800 0.046400 -4.563000
v 5.435600 0.046400 -4.563000
v 4.501201 0.046400 -4.563000
v 1.230000 0.046400 -4.563000
v 0.285200 0.046400 -4.563000
v -0.514800 0.046400 -4.563000
v -1.438800 0.744200 -4.563000
v -0.514800 0.744200 -4.563000
v 0.285200 0.744200 -4.563000
v 1.230000 0.744200 -4.563000
v 4.501201 0.744200 -4.563000
v 5.435600 0.744200 -4.563000
v 6.322900 -1.717200 -4.563000
v 6.322900 -1.717200 -4.966000
v 6.322900 4.526200 -4.966000
v 6.322900 4.526200 -4.563000
v 6.313500 -4.525900 -4.563000
v 6.313500 -4.525900 -4.966000
v 6.313500 -1.717200 -4.966000
v 6.313500 -1.717200 -4.563000
v -5.507700 0.744200 -4.563000
v -5.507700 0.744200 -4.966000
v -5.507700 0.046400 -4.966000
v -5.507700 0.046400 -4.563000
v 6.313500 4.526200 -4.563000
v 6.313500 4.526200 -4.962299
v -2.377000 4.526200 -4.563000
v -2.377000 4.526200 -4.962299
v -2.377000 -1.717200 -4.966000
v -2.377000 -1.717200 -4.563000
v -5.507700 -1.717200 -4.563000
v -5.507700 -1.717200 -4.966000
v -2.377000 -4.525900 -4.563000
v -2.377000 -4.525900 -4.966000
v -5.507700 4.526200 -4.563000
v -5.507700 4.526200 -4.966000
v 6.313500 0.046400 -4.964399
v 6.313500 0.744200 -4.963900
v 5.435600 0.744200 -4.963900
v 4.501201 0.744200 -4.963900
v 1.230000 0.744200 -4.963900
v 0.285200 0.744200 -4.963900
v -0.514800 0.744200 -4.963900
v -1.438800 0.744200 -4.963900
v -2.377000 0.744200 -4.963900
v 5.435600 0.046400 -4.964399
v -1.438800 0.046400 -4.964399
v -0.514800 0.046400 -4.964399
v -2.377000 0.046400 -4.964399
v 0.285200 0.046400 -4.964399
v 1.230000 0.046400 -4.964399
v 4.501201 0.046400 -4.964399
v -3.304500 0.744200 -4.964700
v -4.118800 0.744200 -4.965000
v -5.043600 0.744200 -4.965199
v -5.510200 0.744200 -4.965600
v -5.510200 0.046400 -4.965700
v -5.043600 0.046400 -4.965400
v -4.118800 0.046400 -4.965199
v -3.304500 0.046400 -4.965000
v 4.501201 0.046400 -4.563000
v 4.501201 0.744200 -4.563000
v 5.435600 0.046400 -4.563000
v 5.435600 0.744200 -4.563000
v 1.230000 0.744200 -4.563000
v 1.230000 0.046400 -4.563000
v 0.285200 0.046400 -4.563000
v 0.285200 0.744200 -4.563000
v -0.514800 0.046400 -4.563000
v -1.438800 0.046400 -4.563000
v -1.438800 0.744200 -4.563000
v -0.514800 0.744200 -4.563000
v -3.304500 0.046400 -4.563000
v -2.377000 0.046400 -4.563000
v -3.304500 0.744200 -4.563000
v -2.377000 0.744200 -4.563000
v -4.118800 0.046400 -4.563000
v -5.043600 0.046400 -4.563000
v -4.118800 0.744200 -4.563000
v -5.043600 0.744200 -4.563000
# 191 positions

vt 0.747853 0.005000
vt 0.747853 0.152175
vt 0.877996 0.152175
vt 0.877996 0.005000
vt 0.738851 0.935770
vt 0.688785 0.931045
vt 0.593335 0.931045
vt 0.593335 0.935770
vt 0.738851 0.931045
vt 0.506649 0.648010
vt 0.511374 0.648010
vt 0.511374 0.795184
vt 0.506649 0.795184
vt 0.627789 0.795184
vt 0.623731 0.795184
vt 0.623731 0.648010
vt 0.627789 0.648010
vt 0.752436 0.403902
vt 0.877996 0.403902
vt 0.877996 0.637661
vt 0.752436 0.637661
vt 0.632209 0.162524
vt 0.506649 0.162524
vt 0.506649 0.396283
vt 0.632209 0.396283
vt 0.014999 0.893638
vt 0.014999 0.779336
vt 0.005000 0.900158
vt 0.014999 0.900158
vt 0.014999 0.774599
vt 0.005000 0.774599
vt 0.506649 0.637661
vt 0.511374 0.637661
vt 0.279655 0.893638
vt 0.265598 0.893638
vt 0.469422 0.900158
vt 0.469422 0.893638
vt 0.469422 0.774599
vt 0.469422 0.779336
vt 0.481263 0.900158
vt 0.481263 0.774599
vt 0.265598 0.779336
vt 0.279655 0.779336
vt 0.623731 0.637661
vt 0.627789 0.637661
vt 0.796542 0.931045
vt 0.796542 0.935770
vt 0.961653 0.935770
vt 0.961653 0.931045
vt 0.796542 0.805623
vt 0.796542 0.818688
vt 0.961653 0.818688
vt 0.961653 0.805623
vt 0.877996 0.396283
vt 0.877996 0.162524
vt 0.506649 0.499152
vt 0.511374 0.499152
vt 0.632209 0.152175
vt 0.533535 0.124426
vt 0.528811 0.124426
vt 0.528811 0.115910
vt 0.533535 0.115910
vt 0.636796 0.637661
vt 0.636796 0.498435
vt 0.636796 0.490636
vt 0.636792 0.403902
vt 0.627789 0.498798
vt 0.645892 0.115910
vt 0.645892 0.124426
vt 0.528811 0.029176
vt 0.533535 0.029176
vt 0.645892 0.029176
vt 0.518737 0.689983
vt 0.593335 0.818688
vt 0.593335 0.805623
vt 0.593335 0.689983
vt 0.593335 0.854248
vt 0.518737 0.805627
vt 0.518737 0.935770
vt 0.752436 0.648010
vt 0.636796 0.648010
vt 0.961653 0.689983
vt 0.995000 0.814630
vt 0.995000 0.805623
vt 0.995000 0.689983
vt 0.995000 0.931045
vt 0.995000 0.818688
vt 0.995000 0.935770
vt 0.636796 0.795184
vt 0.627789 0.490636
vt 0.627789 0.403902
vt 0.649950 0.115910
vt 0.649950 0.124072
vt 0.623731 0.499152
vt 0.649950 0.029176
vt 0.738851 0.818688
vt 0.738851 0.689983
vt 0.738851 0.805623
vt 0.796542 0.689983
vt 0.688814 0.854277
vt 0.488517 0.815318
vt 0.488517 0.844391
vt 0.489088 0.657749
vt 0.488517 0.657749
vt 0.488517 0.917867
vt 0.489088 0.917867
vt 0.135380 0.195496
vt 0.096738 0.195496
vt 0.005000 0.122019
vt 0.135380 0.122019
vt 0.062812 0.195496
vt 0.024282 0.195496
vt 0.005000 0.195496
vt 0.005000 0.224568
vt 0.024282 0.224568
vt 0.135380 0.382138
vt 0.005000 0.382138
vt 0.062812 0.224568
vt 0.096738 0.224568
vt 0.135380 0.224568
vt 0.497453 0.005000
vt 0.135380 0.005000
vt 0.497453 0.122019
vt 0.174469 0.195496
vt 0.460877 0.195496
vt 0.421947 0.195496
vt 0.497453 0.195496
vt 0.285659 0.195496
vt 0.246296 0.195496
vt 0.212965 0.195496
vt 0.174469 0.224568
vt 0.497453 0.382138
vt 0.212965 0.224568
vt 0.246296 0.224568
vt 0.285659 0.224568
vt 0.421947 0.224568
vt 0.460877 0.224568
vt 0.497453 0.224568
vt 0.645661 0.672524
vt 0.645661 0.655734
vt 0.905779 0.655734
vt 0.905779 0.672524
vt 0.023132 0.803477
vt 0.023132 0.786686
vt 0.140151 0.786686
vt 0.140151 0.803477
vt 0.077528 0.098066
vt 0.094318 0.098066
vt 0.094318 0.097674
vt 0.077528 0.097674
vt 0.162570 0.907566
vt 0.162570 0.924356
vt 0.191642 0.924356
vt 0.191642 0.907566
vt 0.902195 0.497507
vt 0.902195 0.497899
vt 0.885405 0.497899
vt 0.885559 0.497507
vt 0.902195 0.135434
vt 0.885559 0.135434
vt 0.521425 0.015073
vt 0.504635 0.015073
vt 0.504635 0.145508
vt 0.521425 0.145508
vt 0.909580 0.367073
vt 0.926371 0.367073
vt 0.926371 0.005000
vt 0.909580 0.005000
vt 0.902195 0.005000
vt 0.885405 0.005000
vt 0.645830 0.005000
vt 0.528811 0.005000
vt 0.528811 0.021790
vt 0.645830 0.021790
vt 0.005000 0.389799
vt 0.005391 0.576441
vt 0.005391 0.547369
vt 0.005391 0.389799
vt 0.005000 0.649918
vt 0.005391 0.649918
vt 0.265119 0.924356
vt 0.265119 0.907566
vt 0.005000 0.907566
vt 0.005000 0.924356
vt 0.041968 0.547369
vt 0.367464 0.389799
vt 0.080897 0.547369
vt 0.217186 0.547369
vt 0.256549 0.547369
vt 0.289879 0.547369
vt 0.328376 0.547369
vt 0.367464 0.547369
vt 0.367464 0.766937
vt 0.005391 0.766937
vt 0.367464 0.649918
vt 0.041968 0.576441
vt 0.328376 0.576441
vt 0.289879 0.576441
vt 0.367464 0.576441
vt 0.256549 0.576441
vt 0.217186 0.576441
vt 0.080897 0.576441
vt 0.406107 0.547369
vt 0.497899 0.389799
vt 0.440033 0.547369
vt 0.478563 0.547369
vt 0.497899 0.547369
vt 0.498003 0.547369
vt 0.498003 0.576441
vt 0.497899 0.649918
vt 0.497899 0.576441
vt 0.478563 0.576441
vt 0.440033 0.576441
vt 0.406107 0.576441
vt 0.015178 0.034072
vt 0.015178 0.005000
vt 0.015073 0.005000
vt 0.015073 0.034072
vt 0.518737 0.547549
vt 0.518737 0.530825
vt 0.547810 0.530846
vt 0.547810 0.547549
vt 0.535461 0.499242
vt 0.518737 0.499242
vt 0.518737 0.460312
vt 0.535461 0.460312
vt 0.518737 0.506649
vt 0.518737 0.523352
vt 0.547810 0.523373
vt 0.547810 0.506649
vt 0.025147 0.051989
vt 0.041849 0.051989
vt 0.041849 0.013059
vt 0.025147 0.013059
vt 0.049322 0.005000
vt 0.049322 0.021703
vt 0.078395 0.021724
vt 0.078395 0.005000
vt 0.066046 0.068539
vt 0.049322 0.068539
vt 0.049322 0.029176
vt 0.066046 0.029176
vt 0.005000 0.076119
vt 0.005000 0.059396
vt 0.034073 0.059417
vt 0.034073 0.076119
vt 0.073498 0.068539
vt 0.090200 0.068539
vt 0.090200 0.029176
vt 0.073498 0.029176
vt 0.114398 0.043497
vt 0.097674 0.043497
vt 0.097674 0.005000
vt 0.114398 0.005000
vt 0.041264 0.094251
vt 0.041264 0.077528
vt 0.070336 0.077548
vt 0.070336 0.094251
vt 0.097674 0.089834
vt 0.114376 0.089834
vt 0.114376 0.051337
vt 0.097674 0.051337
vt 0.005000 0.083572
vt 0.005000 0.100274
vt 0.034073 0.100295
vt 0.034073 0.083572
vt 0.506649 0.413975
vt 0.523398 0.413975
vt 0.523398 0.452618
vt 0.506674 0.452618
vt 0.528811 0.148672
vt 0.528811 0.131923
vt 0.557883 0.131936
vt 0.557883 0.148672
vt 0.530825 0.442544
vt 0.547561 0.442544
vt 0.547527 0.403902
vt 0.530825 0.403902
vt 0.542913 0.450239
vt 0.542913 0.466942
vt 0.571986 0.466962
vt 0.571986 0.450239
vt 0.571767 0.442432
vt 0.555009 0.442432
vt 0.555001 0.403902
vt 0.571767 0.403902
vt 0.542913 0.474415
vt 0.542913 0.491163
vt 0.571986 0.491172
vt 0.571986 0.474415
vt 0.555001 0.537121
vt 0.571757 0.537121
vt 0.571750 0.498591
vt 0.555001 0.498591
vt 0.518737 0.571766
vt 0.518737 0.555001
vt 0.547810 0.555009
vt 0.547810 0.571766
# 298 texture coordinates

vn -1.000000 0.000000 0.000000
vn 0.000000 0.000000 -1.000000
vn 1.000000 0.000000 0.000000
vn 0.000000 0.000000 1.000000
vn 1.000000 0.000000 0.000000
vn 0.000000 -1.000000 0.000000
vn -1.000000 0.000000 0.000000
vn 0.000000 1.000000 0.000000
vn -0.380962 0.000433 -0.924590
vn -0.131598 0.000198 -0.991303
vn 0.000000 0.000423 -1.000000
vn -0.000113 0.000350 -1.000000
vn 0.000949 -0.000026 -1.000000
vn 0.000000 0.000907 -1.000000
vn 0.001109 0.000363 -0.999999
vn 0.000287 -0.000159 -1.000000
vn 0.000096 0.000170 -1.000000
vn 0.000360 0.000884 -1.000000
vn 0.000459 0.000808 -1.000000
vn 0.000000 0.000716 -1.000000
vn 0.000307 0.000358 -1.000000
vn 0.000751 0.000215 -1.000000
vn 0.138485 -0.000071 0.990365
# 23 normals

usemtl default
f 1/1/1 2/2/1 3/3/1 4/4/1
f 5/5/2 6/6/2 7/7/2 8/8/2
f 9/9/2 6/6/2 5/5/2
f 10/10/3 11/11/3 12/12/3 13/13/3
f 14/14/3 15/15/3 16/16/3 17/17/3
f 18/18/3 19/19/3 20/20/3 21/21/3
f 22/22/1 23/23/1 24/24/1 25/25/1
f 26/26/2 27/27/2 22/28/2 28/29/2
f 29/30/2 23/31/2 22/28/2 27/27/2
f 30/32/3 31/33/3 11/11/3 10/10/3
f 32/34/2 33/35/2 34/36/2 35/37/2
f 26/26/2 28/29/2 34/36/2 33/35/2
f 36/38/2 37/39/2 21/40/2 20/41/2
f 35/37/2 34/36/2 21/40/2 37/39/2
f 27/27/2 38/42/2 36/38/2 29/30/2
f 39/43/2 37/39/2 36/38/2 38/42/2
f 17/17/3 16/16/3 40/44/3 41/45/3
f 42/46/2 43/47/2 44/48/2 45/49/2
f 46/50/2 47/51/2 48/52/2 49/53/2
f 22/22/1 25/25/1 50/54/1 51/55/1
f 11/11/3 31/33/3 40/44/3 16/16/3
f 31/33/3 30/32/3 52/56/3 53/57/3
f 22/22/1 3/3/1 2/2/1 54/58/1
f 51/55/1 3/3/1 22/22/1
f 55/59/3 56/60/3 57/61/3 58/62/3
f 59/63/3 60/64/3 18/18/3 21/21/3
f 61/65/3 62/66/3 18/18/3 60/64/3
f 63/67/3 60/64/3 59/63/3 41/45/3
f 55/59/3 58/62/3 64/68/3 65/69/3
f 66/70/3 67/71/3 58/62/3 57/61/3
f 67/71/3 68/72/3 64/68/3 58/62/3
f 69/73/2 70/74/2 71/75/2 72/76/2
f 69/73/2 7/7/2 73/77/2 70/74/2
f 1/78/2 8/8/2 7/7/2 69/73/2
f 4/79/2 8/8/2 1/78/2
f 74/80/3 75/81/3 59/63/3 21/21/3
f 76/82/2 14/83/2 77/84/2 78/85/2
f 76/82/2 12/86/2 15/87/2 14/83/2
f 76/82/2 49/53/2 13/88/2 12/86/2
f 48/52/2 45/49/2 13/88/2 49/53/2
f 13/88/2 45/49/2 44/48/2
f 14/14/3 17/17/3 75/81/3 77/89/3
f 17/17/3 41/45/3 59/63/3 75/81/3
f 79/90/3 80/91/3 62/66/3 61/65/3
f 64/68/3 81/92/3 82/93/3 65/69/3
f 63/67/3 41/45/3 40/44/3 83/94/3
f 84/95/3 81/92/3 64/68/3 68/72/3
f 79/90/3 61/65/3 60/64/3 63/67/3
f 33/35/2 32/34/2 39/43/2 38/42/2
f 43/47/2 85/96/2 9/9/2 5/5/2
f 43/47/2 86/97/2 87/98/2 85/96/2
f 42/46/2 47/51/2 86/97/2 43/47/2
f 46/50/2 88/99/2 86/97/2 47/51/2
f 71/75/2 70/74/2 85/96/2 87/98/2
f 89/100/2 73/77/2 7/7/2 6/6/2
f 90/101/4 91/102/4 92/103/4 93/104/4
f 94/105/4 95/106/4 92/103/4 91/102/4
f 96/107/4 97/108/4 98/109/4 99/110/4
f 100/111/4 101/112/4 98/109/4 97/108/4
f 102/113/4 98/109/4 101/112/4
f 103/114/4 104/115/4 105/116/4 106/117/4
f 107/118/4 108/119/4 105/116/4 104/115/4
f 109/120/4 105/116/4 108/119/4
f 110/121/4 96/107/4 99/110/4 111/122/4
f 94/123/4 112/124/4 96/107/4 110/121/4
f 113/125/4 114/126/4 94/123/4 91/127/4
f 115/128/4 116/129/4 94/123/4 114/126/4
f 117/130/4 112/124/4 94/123/4 116/129/4
f 109/120/4 118/131/4 93/132/4 105/116/4
f 119/133/4 120/134/4 93/132/4 118/131/4
f 121/135/4 122/136/4 93/132/4 120/134/4
f 123/137/4 90/138/4 93/132/4 122/136/4
f 123/137/4 113/125/4 91/127/4 90/138/4
f 121/135/4 115/128/4 114/126/4 122/136/4
f 112/124/4 118/131/4 109/120/4 96/107/4
f 116/129/4 120/134/4 119/133/4 117/130/4
f 107/118/4 100/111/4 97/108/4 108/119/4
f 101/112/4 104/115/4 103/114/4 102/113/4

g pared_concreto

# 0 positions

# 0 texture coordinates

# 0 normals

usemtl default
f 124/139/5 125/140/5 126/141/5 127/142/5
f 128/143/5 129/144/5 130/145/5 131/146/5
f 131/147/6 130/148/6 125/149/6 124/150/6
f 132/151/7 133/152/7 134/153/7 135/154/7
f 136/155/8 127/156/8 126/157/8 137/158/8
f 138/159/8 136/155/8 137/158/8 139/160/8
f 140/161/6 141/162/6 142/163/6 143/164/6
f 144/165/6 145/166/6 129/167/6 128/168/6
f 146/169/8 138/159/8 139/160/8 147/170/8
f 144/171/7 141/172/7 140/173/7 145/174/7
f 126/175/9 148/176/9 149/177/9 137/178/9
f 126/175/10 125/179/10 130/180/10 148/176/10
f 135/154/7 134/153/7 143/181/7 142/182/7
f 133/152/7 132/151/7 146/183/7 147/184/7
f 149/177/11 150/185/11 139/186/11 137/178/11
f 151/187/11 152/188/11 139/186/11 150/185/11
f 153/189/11 154/190/11 139/186/11 152/188/11
f 155/191/11 156/192/11 139/186/11 154/190/11
f 145/193/12 148/176/12 130/180/12 129/194/12
f 140/195/13 157/196/13 148/176/13 145/193/13
f 158/197/14 159/198/14 140/195/14 160/199/14
f 161/200/14 162/201/14 140/195/14 159/198/14
f 163/202/14 157/196/14 140/195/14 162/201/14
f 156/192/15 164/203/15 147/204/15 139/186/15
f 165/205/16 166/206/16 147/204/16 164/203/16
f 133/207/13 147/204/13 166/206/13 167/208/13
f 168/209/17 140/195/17 143/210/17 134/211/17
f 169/212/18 170/213/18 140/195/18 168/209/18
f 171/214/19 160/199/19 140/195/19 170/213/19
f 157/196/20 150/185/20 149/177/20 148/176/20
f 162/201/20 152/188/20 151/187/20 163/202/20
f 155/191/20 158/197/20 160/199/20 156/192/20
f 153/189/20 161/200/20 159/198/20 154/190/20
f 170/213/21 165/205/21 164/203/21 171/214/21
f 166/206/22 169/212/22 168/209/22 167/208/22
f 167/215/23 168/216/23 134/217/23 133/218/23
f 172/219/5 163/220/5 151/221/5 173/222/5
f 174/223/8 157/224/8 163/225/8 172/226/8
f 175/227/7 150/228/7 157/229/7 174/230/7
f 173/231/6 151/232/6 150/233/6 175/234/6
f 176/235/7 152/236/7 162/237/7 177/238/7
f 177/239/8 162/240/8 161/241/8 178/242/8
f 178/243/5 161/244/5 153/245/5 179/246/5
f 179/247/6 153/248/6 152/249/6 176/250/6
f 180/251/8 159/252/8 158/253/8 181/254/8
f 181/255/5 158/256/5 155/257/5 182/258/5
f 182/259/6 155/260/6 154/261/6 183/262/6
f 183/263/7 154/264/7 159/265/7 180/266/7
f 171/267/8 184/268/8 185/269/8 160/270/8
f 184/271/5 171/272/5 164/273/5 186/274/5
f 186/275/6 164/276/6 156/277/6 187/278/6
f 187/279/7 156/280/7 160/281/7 185/282/7
f 188/283/8 170/284/8 169/285/8 189/286/8
f 190/287/7 165/288/7 170/289/7 188/290/7
f 191/291/6 166/292/6 165/293/6 190/294/6
f 189/295/5 169/296/5 166/297/5 191/298/5

# 134 faces
