# Wavefront Obj file
# 
# verts: 70 uv-s: 184
mtllib recepcion.mtl

g tabla_recep

v -0.305100 0.485100 -1.780700
v 0.018300 0.485100 -1.780700
v 0.018300 0.438900 -1.780700
v -0.305100 0.438900 -1.780700
v -0.390700 0.485100 -1.773900
v -0.390700 0.438900 -1.773900
v -0.452200 0.485100 -1.755100
v -0.452200 0.438900 -1.755100
v -0.493300 0.485100 -1.726000
v -0.493300 0.438900 -1.726000
v -0.518300 0.485100 -1.688900
v -0.518300 0.438900 -1.688900
v -0.531100 0.485100 -1.645700
v -0.531100 0.438900 -1.645700
v -0.535800 0.485100 -1.598500
v -0.535800 0.438900 -1.598500
v -0.536500 0.485100 -1.549200
v -0.536500 0.438900 -1.549200
v -0.536500 0.485100 1.780700
v -0.536500 0.438900 1.780700
v 0.018300 0.485100 1.780700
v 0.018300 0.438900 1.780700
v 0.536500 -0.485100 1.701700
v 0.536500 0.165800 1.701700
v -0.481400 0.165800 1.701700
v -0.481400 -0.485100 1.701700
v 0.536500 -0.485100 1.647100
v 0.536500 0.165800 1.647100
v -0.447000 -0.485100 1.647100
v -0.447000 0.165800 1.647100
v -0.447000 -0.485100 -0.238100
v -0.447000 0.165800 -0.238100
v -0.124100 -0.485100 -0.238100
v -0.124100 0.165800 -0.238100
v -0.124100 -0.485100 -1.445400
v -0.124100 0.165800 -1.445400
v 0.536500 -0.485100 -1.445400
v 0.536500 0.165800 -1.445400
v 0.536500 -0.485100 -1.491600
v 0.536500 0.165800 -1.491600
v -0.158500 -0.485100 -1.491600
v -0.158500 0.165800 -1.491600
v -0.158500 -0.485100 -0.294100
v -0.158500 0.165800 -0.294100
v -0.481400 -0.485100 -0.294100
v -0.481400 0.165800 -0.294100
v -0.481400 0.438200 1.701700
v 0.536500 0.438200 1.701700
v 0.536500 0.438200 1.647100
v -0.447000 0.438200 1.647100
v -0.481400 0.438200 -0.294100
v -0.447000 0.438200 -0.238100
v -0.158500 0.438200 -0.294100
v -0.124100 0.438200 -0.238100
v -0.158500 0.438200 -1.491600
v -0.124100 0.438200 -1.445400
v 0.536500 0.438200 -1.491600
v 0.536500 0.438200 -1.445400
v 0.536500 0.200200 1.701700
v -0.481400 0.200200 1.701700
v 0.536500 0.200200 1.647100
v 0.536500 0.200200 -1.491600
v 0.536500 0.200200 -1.445400
v -0.158500 0.200200 -1.491600
v -0.158500 0.200200 -0.294100
v -0.481400 0.200200 -0.294100
v -0.447000 0.200200 1.647100
v -0.447000 0.200200 -0.238100
v -0.124100 0.200200 -0.238100
v -0.124100 0.200200 -1.445400
# 70 positions

vt 0.059495 0.172251
vt 0.014467 0.172251
vt 0.014467 0.178684
vt 0.059495 0.178684
vt 0.071413 0.172251
vt 0.071413 0.178684
vt 0.079976 0.172251
vt 0.079976 0.178684
vt 0.085698 0.172251
vt 0.085698 0.178684
vt 0.754476 0.989834
vt 0.754476 0.995000
vt 0.760908 0.995000
vt 0.760908 0.989834
vt 0.754476 0.983819
vt 0.760908 0.983819
vt 0.754476 0.977248
vt 0.760908 0.977248
vt 0.754476 0.970384
vt 0.760908 0.970384
vt 0.754476 0.506754
vt 0.760908 0.506754
vt 0.113871 0.229054
vt 0.113871 0.306300
vt 0.120304 0.306300
vt 0.120304 0.229054
vt 0.760908 0.005000
vt 0.760908 0.500862
vt 0.754476 0.500862
vt 0.754476 0.005000
vt 0.482065 0.081494
vt 0.488080 0.079712
vt 0.493245 0.076231
vt 0.497297 0.070509
vt 0.475493 0.082149
vt 0.499915 0.061946
vt 0.468629 0.082246
vt 0.500861 0.050028
vt 0.500861 0.005000
vt 0.005000 0.082246
vt 0.005000 0.005000
vt 0.500862 0.088626
vt 0.500862 0.165872
vt 0.005000 0.165872
vt 0.037232 0.088626
vt 0.012616 0.094641
vt 0.017782 0.091160
vt 0.023796 0.089378
vt 0.008564 0.100363
vt 0.030368 0.088723
vt 0.005947 0.108926
vt 0.005000 0.120844
vt 0.146724 0.711874
vt 0.146724 0.802500
vt 0.005000 0.802500
vt 0.005000 0.711874
vt 0.620359 0.565080
vt 0.710985 0.565080
vt 0.710985 0.572682
vt 0.620359 0.572682
vt 0.379638 0.666117
vt 0.289012 0.666117
vt 0.289012 0.803051
vt 0.379638 0.803051
vt 0.546200 0.140695
vt 0.636827 0.140695
vt 0.636827 0.403175
vt 0.546200 0.403175
vt 0.108249 0.229054
vt 0.017623 0.229054
vt 0.017623 0.274012
vt 0.108249 0.274012
vt 0.590380 0.579335
vt 0.681006 0.579335
vt 0.681006 0.747430
vt 0.590380 0.747430
vt 0.355971 0.183296
vt 0.265344 0.183296
vt 0.265344 0.275273
vt 0.355971 0.275273
vt 0.620359 0.128072
vt 0.710985 0.128072
vt 0.710985 0.134504
vt 0.620359 0.134504
vt 0.115967 0.592706
vt 0.115967 0.502079
vt 0.019201 0.502079
vt 0.019201 0.592706
vt 0.250314 0.464153
vt 0.159687 0.464153
vt 0.159687 0.630883
vt 0.250314 0.630883
vt 0.406551 0.311849
vt 0.406551 0.221223
vt 0.361593 0.221223
vt 0.361593 0.311849
vt 0.584817 0.563557
vt 0.494190 0.563557
vt 0.494190 0.841436
vt 0.584817 0.841436
vt 0.012602 0.700492
vt 0.012602 0.563557
vt 0.005000 0.563557
vt 0.005000 0.705281
vt 0.275083 0.700492
vt 0.282879 0.705281
vt 0.275083 0.655533
vt 0.282879 0.660323
vt 0.443177 0.655533
vt 0.449610 0.660323
vt 0.443177 0.563557
vt 0.449610 0.563557
vt 0.449610 0.172251
vt 0.449610 0.313976
vt 0.442008 0.313976
vt 0.442008 0.177041
vt 0.171730 0.172251
vt 0.179528 0.177041
vt 0.171730 0.217210
vt 0.179528 0.221999
vt 0.005000 0.217210
vt 0.011432 0.221999
vt 0.005000 0.313976
vt 0.011432 0.313976
vt 0.146724 0.807290
vt 0.005000 0.807290
vt 0.715775 0.565080
vt 0.715775 0.572682
vt 0.715775 0.128072
vt 0.715775 0.134504
vt 0.115967 0.497290
vt 0.019201 0.497290
vt 0.154898 0.464153
vt 0.154898 0.630883
vt 0.406551 0.216434
vt 0.361593 0.216434
vt 0.489400 0.563557
vt 0.489400 0.841436
vt 0.146724 0.840427
vt 0.005000 0.840427
vt 0.748912 0.565080
vt 0.748912 0.572682
vt 0.495709 0.273233
vt 0.495709 0.410168
vt 0.528847 0.410168
vt 0.528847 0.273233
vt 0.539891 0.005000
vt 0.539891 0.267481
vt 0.506754 0.267481
vt 0.506754 0.005000
vt 0.225898 0.183296
vt 0.225898 0.228254
vt 0.259035 0.228254
vt 0.259035 0.183296
vt 0.489400 0.172251
vt 0.489400 0.340346
vt 0.456263 0.340346
vt 0.456263 0.172251
vt 0.186452 0.183296
vt 0.186452 0.275273
vt 0.219589 0.275273
vt 0.219589 0.183296
vt 0.748912 0.128072
vt 0.748912 0.134504
vt 0.115967 0.464153
vt 0.019201 0.464153
vt 0.121760 0.464153
vt 0.121760 0.630883
vt 0.406551 0.183296
vt 0.361593 0.183296
vt 0.456263 0.563557
vt 0.456263 0.841436
vt 0.005000 0.320569
vt 0.005000 0.457504
vt 0.267481 0.457504
vt 0.267481 0.412546
vt 0.435576 0.412546
vt 0.435576 0.320569
vt 0.702231 0.556908
vt 0.271656 0.556908
vt 0.271656 0.464931
vt 0.439750 0.464931
vt 0.439750 0.419973
vt 0.702231 0.419973
# 184 texture coordinates

vn -0.039626 0.000000 -0.999215
vn 0.000000 0.000000 -1.000000
vn -0.186866 0.000000 -0.982385
vn -0.440704 0.000000 -0.897653
vn -0.715238 0.000000 -0.698881
vn -0.904535 0.000000 -0.426400
vn -0.981308 0.000000 -0.192444
vn -0.998392 0.000000 -0.056693
vn -0.999899 0.000000 -0.014197
vn -1.000000 0.000000 0.000000
vn 0.000000 0.000000 1.000000
vn 1.000000 0.000000 0.000000
vn 0.000000 -1.000000 0.000000
vn 0.000000 1.000000 0.000000
vn 0.000000 0.000000 1.000000
vn 1.000000 0.000000 0.000000
vn 0.000000 0.000000 -1.000000
vn 0.000000 0.000000 1.000000
vn 1.000000 0.000000 0.000000
vn -1.000000 0.000000 0.000000
vn 0.000000 0.000000 -1.000000
vn -1.000000 0.000000 0.000000
vn 0.000000 -1.000000 0.000000
vn 0.000000 1.000000 0.000000
vn 0.000000 1.000000 0.000000
vn 0.000000 1.000000 0.000000
vn 0.000000 1.000000 0.000000
vn -1.000000 0.000000 0.000000
vn 0.000000 -1.000000 0.000000
# 29 normals

usemtl default
f 1/1/1 2/2/2 3/3/2 4/4/1
f 5/5/3 1/1/1 4/4/1 6/6/3
f 7/7/4 5/5/3 6/6/3 8/8/4
f 9/9/5 7/7/4 8/8/4 10/10/5
f 11/11/6 9/12/5 10/13/5 12/14/6
f 13/15/7 11/11/6 12/14/6 14/16/7
f 15/17/8 13/15/7 14/16/7 16/18/8
f 17/19/9 15/17/8 16/18/8 18/20/9
f 19/21/10 17/19/10 18/20/10 20/22/10
f 21/23/11 19/24/11 20/25/11 22/26/11
f 2/27/12 21/28/12 22/29/12 3/30/12
f 14/31/13 12/32/13 10/33/13 8/34/13
f 16/35/13 14/31/13 8/34/13 6/36/13
f 18/37/13 16/35/13 6/36/13 4/38/13
f 18/37/13 4/38/13 3/39/13 20/40/13
f 20/40/13 3/39/13 22/41/13
f 19/42/14 21/43/14 2/44/14 17/45/14
f 9/46/14 11/47/14 13/48/14 7/49/14
f 7/49/14 13/48/14 15/50/14 5/51/14
f 5/51/14 15/50/14 17/45/14 1/52/14
f 2/44/14 1/52/14 17/45/14

g recepcion1

# 0 positions

# 0 texture coordinates

# 0 normals

usemtl default
f 23/53/15 24/54/15 25/55/15 26/56/15
f 27/57/16 28/58/16 24/59/16 23/60/16
f 29/61/17 30/62/17 28/63/17 27/64/17
f 31/65/16 32/66/16 30/67/16 29/68/16
f 33/69/18 34/70/18 32/71/18 31/72/15
f 35/73/16 36/74/16 34/75/16 33/76/16
f 37/77/15 38/78/15 36/79/15 35/80/15
f 39/81/19 40/82/19 38/83/19 37/84/19
f 41/85/17 42/86/17 40/87/17 39/88/17
f 43/89/20 44/90/20 42/91/20 41/92/20
f 45/93/17 46/94/21 44/95/21 43/96/17
f 26/97/20 25/98/20 46/99/22 45/100/20
f 29/101/23 27/102/23 23/103/23 26/104/23
f 31/105/23 29/101/23 26/104/23 45/106/23
f 33/107/23 31/105/23 45/106/23 43/108/23
f 35/109/23 33/107/23 43/108/23 41/110/23
f 37/111/23 35/109/23 41/110/23 39/112/23
f 47/113/24 48/114/24 49/115/25 50/116/24
f 51/117/26 47/113/24 50/116/24 52/118/26
f 53/119/26 51/117/26 52/118/26 54/120/26
f 55/121/26 53/119/26 54/120/26 56/122/26
f 57/123/27 55/121/26 56/122/26 58/124/25
f 59/125/15 60/126/15 25/55/15 24/54/15
f 61/127/16 59/128/16 24/59/16 28/58/16
f 62/129/19 63/130/19 38/83/19 40/82/19
f 64/131/17 62/132/17 40/87/17 42/86/17
f 65/133/20 64/134/20 42/91/20 44/90/20
f 66/135/21 65/136/21 44/95/21 46/94/21
f 60/137/22 66/138/22 46/99/22 25/98/20
f 48/139/15 47/140/15 60/126/15 59/125/15
f 49/141/16 48/142/16 59/128/16 61/127/16
f 50/143/17 49/144/17 61/145/17 67/146/17
f 52/147/16 50/148/16 67/149/16 68/150/16
f 54/151/15 52/152/15 68/153/15 69/154/15
f 56/155/16 54/156/16 69/157/16 70/158/16
f 58/159/15 56/160/15 70/161/15 63/162/15
f 57/163/19 58/164/19 63/130/19 62/129/19
f 55/165/17 57/166/17 62/132/17 64/131/17
f 53/167/20 55/168/20 64/134/20 65/133/20
f 51/169/17 53/170/17 65/136/21 66/135/21
f 47/171/28 51/172/20 66/138/22 60/137/22
f 28/173/29 30/174/29 32/175/29 34/176/29
f 28/173/29 34/176/29 36/177/23 38/178/23
f 63/130/19 61/127/16 28/58/16 38/83/19
f 61/179/25 63/180/25 70/181/25 69/182/25
f 61/179/25 69/182/25 68/183/25 67/184/25

# 67 faces
