# Wavefront Obj file
# 
# verts: 53 uv-s: 95
mtllib mont_pala.mtl

g Box001

v -0.236900 0.006400 -0.073500
v -0.180300 0.016800 -0.096500
v 0.000300 0.020900 -0.111200
v -0.275000 -0.004600 -0.039300
v -0.288300 -0.005000 0.001200
v -0.274800 -0.003600 0.045900
v -0.236600 0.005900 0.082600
v -0.178800 0.018100 0.103700
v 0.000300 0.002700 -0.058000
v 0.000300 -0.000400 -0.004400
v 0.000300 -0.000600 0.055000
v 0.000300 0.018000 0.111200
v -0.071900 0.067300 -0.002000
v -0.111200 0.064600 -0.001200
v -0.107400 0.062900 0.051200
v -0.071500 0.063100 0.053000
v 0.000300 0.046400 0.111200
v -0.035500 0.047100 0.109700
v -0.071300 0.045500 0.108200
v -0.107100 0.042500 0.106700
v -0.143000 0.039800 0.105200
v -0.178800 0.037900 0.103700
v 0.000300 0.059200 0.053900
v -0.180300 0.035800 -0.096500
v -0.144100 0.040900 -0.099400
v -0.108000 0.041200 -0.102400
v -0.071900 0.045300 -0.105300
v -0.035800 0.044100 -0.108300
v 0.000300 0.044900 -0.111200
v -0.288300 0.000900 0.001200
v -0.275000 0.003800 -0.039300
v -0.236600 0.018600 0.082600
v -0.274800 0.004500 0.045900
v -0.236900 0.018300 -0.073500
v 0.000300 0.060600 -0.003400
v -0.035600 0.060000 -0.002700
v -0.035600 0.054800 0.053500
v -0.179900 0.053100 -0.057400
v -0.143800 0.053500 -0.049900
v -0.144000 0.052800 -0.000900
v -0.107800 0.054300 -0.051600
v -0.071800 0.062100 -0.053400
v 0.000300 0.058900 -0.057100
v -0.035700 0.054600 -0.055300
v -0.143300 0.055000 0.050400
v -0.236800 0.046400 -0.041100
v -0.274900 0.034900 -0.020400
v -0.274900 0.034200 0.003700
v -0.179100 0.049700 0.050500
v -0.179500 0.054900 0.002500
v -0.236700 0.045900 0.046800
v -0.274900 0.029800 0.030900
v -0.236700 0.050700 0.001400
# 53 positions

vt 0.383187 0.490684
vt 0.430281 0.374792
vt 0.460380 0.005000
vt 0.313160 0.568697
vt 0.230233 0.595929
vt 0.138706 0.568287
vt 0.063561 0.490070
vt 0.020357 0.371720
vt 0.351449 0.005000
vt 0.241699 0.005000
vt 0.120074 0.005000
vt 0.005000 0.005000
vt 0.658574 0.797569
vt 0.660212 0.717100
vt 0.767505 0.724880
vt 0.771190 0.798388
vt 0.562842 0.311560
vt 0.929562 0.311355
vt 0.929562 0.369506
vt 0.856259 0.370939
vt 0.782956 0.367663
vt 0.709653 0.361520
vt 0.636145 0.355992
vt 0.562842 0.352102
vt 0.043085 0.995000
vt 0.005000 0.879927
vt 0.127445 0.877674
vt 0.101236 0.995000
vt 0.450200 0.266145
vt 0.819991 0.274540
vt 0.819991 0.235636
vt 0.745869 0.225194
vt 0.671952 0.224579
vt 0.598034 0.216184
vt 0.524117 0.218641
vt 0.450200 0.217003
vt 0.438672 0.696780
vt 0.426591 0.696780
vt 0.420654 0.779706
vt 0.437853 0.779706
vt 0.444492 0.312583
vt 0.444492 0.286579
vt 0.416354 0.530107
vt 0.390350 0.530107
vt 0.419220 0.605253
vt 0.435805 0.605253
vt 0.935884 0.295835
vt 0.935884 0.271469
vt 0.390964 0.849733
vt 0.415330 0.849733
vt 0.655707 0.945404
vt 0.657141 0.871896
vt 0.772214 0.871896
vt 0.773033 0.945404
vt 0.459140 0.649735
vt 0.465078 0.575612
vt 0.545138 0.576431
vt 0.560495 0.650349
vt 0.660826 0.649939
vt 0.557014 0.724061
vt 0.553329 0.797774
vt 0.447060 0.797569
vt 0.452998 0.723652
vt 0.881145 0.725495
vt 0.884216 0.798798
vt 0.545753 0.945404
vt 0.434979 0.945404
vt 0.440917 0.871487
vt 0.549438 0.871691
vt 0.887288 0.872101
vt 0.890359 0.945404
vt 0.878074 0.651987
vt 0.765867 0.651373
vt 0.512173 0.459720
vt 0.578514 0.459925
vt 0.582200 0.381707
vt 0.620899 0.381912
vt 0.358407 0.691661
vt 0.356974 0.741007
vt 0.875002 0.578684
vt 0.766072 0.578070
vt 0.667788 0.577250
vt 0.831799 0.460334
vt 0.758496 0.460129
vt 0.756653 0.382117
vt 0.725939 0.381912
vt 0.665536 0.460129
vt 0.670245 0.381912
vt 0.367417 0.635967
vt 0.049023 0.539620
vt 0.098165 0.539620
vt 0.126831 0.650394
vt 0.011757 0.648551
vt 0.005410 0.758301
vt 0.130311 0.760348
# 95 texture coordinates

vn 0.002122 -0.937744 -0.347322
vn 0.002122 -0.937744 -0.347322
vn -0.000608 -0.994346 -0.106190
vn 0.048829 -0.984068 -0.170957
vn 0.093807 -0.995524 0.011464
vn 0.124205 -0.990313 0.062079
vn 0.154167 -0.981622 0.112476
vn -0.054266 -0.998150 0.027426
vn -0.252458 -0.948920 -0.189251
vn -0.159545 -0.987053 -0.016502
vn -0.060261 -0.985774 0.156905
vn -0.060261 -0.985774 0.156905
vn 0.057372 0.997923 -0.029306
vn -0.160819 0.985810 -0.048135
vn -0.132128 0.975528 0.175750
vn 0.050368 0.983676 0.172754
vn -0.041844 0.000070 0.999124
vn -0.041833 0.000010 0.999125
vn 1.000000 0.000000 0.000000
vn -0.081259 -0.000769 -0.996693
vn -0.080987 0.001712 -0.996714
vn -0.080987 0.001712 -0.996714
vn -0.081160 -0.000071 -0.996701
vn -0.081375 -0.001957 -0.996682
vn -0.081458 -0.002167 -0.996674
vn -0.999928 0.000000 -0.011998
vn -0.999928 0.000000 -0.011998
vn -0.837397 0.000000 -0.546596
vn -0.837397 0.000000 -0.546596
vn -0.342917 0.000000 0.939366
vn -0.529234 0.000000 0.848476
vn -0.529234 0.000000 0.848476
vn -0.852858 0.000000 0.522144
vn -0.852858 0.000000 0.522144
vn -0.376465 0.000000 -0.926431
vn -0.376465 0.000000 -0.926431
vn -0.530121 0.000000 -0.847922
vn -0.530121 0.000000 -0.847922
vn -0.069761 0.997555 -0.004259
vn 0.067671 0.997685 -0.006670
vn 0.043090 0.989831 0.135566
vn -0.062375 0.991061 0.117930
vn -0.041348 0.958031 -0.283666
vn -0.200962 0.886018 -0.417836
vn -0.122357 0.965454 -0.230058
vn -0.060728 0.983343 -0.171313
vn -0.120179 0.992581 -0.018458
vn -0.132746 0.971729 -0.195248
vn -0.005276 0.980254 -0.197671
vn -0.037845 0.963420 -0.265312
vn -0.102741 0.959560 -0.262087
vn -0.102975 0.943565 0.314771
vn 0.013846 0.961772 0.273501
vn -0.076910 0.986477 -0.144735
vn -0.083197 0.971456 -0.222151
vn 0.007943 0.971358 -0.237489
vn 0.035743 0.986254 -0.161322
vn 0.014662 0.979783 0.199525
vn -0.055408 0.982557 0.177515
vn -0.125314 0.953711 0.273370
vn -0.144128 0.978446 0.147884
vn -0.485436 0.670461 -0.561101
vn -0.377953 0.867433 -0.323593
vn -0.816245 0.408577 -0.408423
vn -0.709391 0.634342 -0.307205
vn -0.965352 0.260951 0.000152
vn -0.749403 0.661860 0.018361
vn -0.182367 0.930490 0.317697
vn -0.121488 0.973292 0.194791
vn -0.048950 0.998654 0.017135
vn -0.450671 0.741511 0.497048
vn -0.357187 0.880267 0.312325
vn -0.817146 0.420786 0.393968
vn -0.716229 0.622393 0.315663
vn -0.238795 0.970648 0.028632
# 75 normals

usemtl default
s 1
f 1/1/1 2/2/2 3/3/3 4/4/4
f 5/5/5 4/4/4 3/3/3 6/6/6
f 7/7/7 6/6/6 3/3/3 8/8/8
f 8/8/8 3/3/3 9/9/9 10/10/10
f 8/8/8 10/10/10 11/11/11 12/12/12
s 2
f 13/13/13 14/14/14 15/15/15 16/16/16
f 35/51/39 36/52/40 37/53/41 23/54/42
f 36/52/40 13/13/13 16/16/16 37/53/41
f 25/55/43 24/56/44 38/57/45 39/58/46
f 39/58/46 40/59/47 14/14/14 41/60/48
f 42/61/49 27/62/50 26/63/51 41/60/48
f 13/13/13 42/61/49 41/60/48 14/14/14
f 20/64/52 19/65/53 16/16/16 15/15/15
f 43/66/54 29/67/55 28/68/56 44/69/57
f 35/51/39 43/66/54 44/69/57 36/52/40
f 18/70/58 17/71/59 23/54/42 37/53/41
f 44/69/57 28/68/56 27/62/50 42/61/49
f 36/52/40 44/69/57 42/61/49 13/13/13
f 19/65/53 18/70/58 37/53/41 16/16/16
f 21/72/60 20/64/52 15/15/15 45/73/61
f 45/73/61 15/15/15 14/14/14 40/59/47
f 41/60/48 26/63/51 25/55/43 39/58/46
f 34/74/62 46/75/63 38/57/45 24/56/44
f 31/76/64 47/77/65 46/75/63 34/74/62
f 30/38/66 48/78/67 47/79/65 31/39/64
f 22/80/68 21/72/60 45/73/61 49/81/69
f 50/82/70 49/81/69 45/73/61 40/59/47
f 38/57/45 50/82/70 40/59/47 39/58/46
f 32/83/71 22/80/68 49/81/69 51/84/72
f 33/85/73 32/83/71 51/84/72 52/86/74
f 51/84/72 49/81/69 50/82/70 53/87/75
f 52/86/74 51/84/72 53/87/75 48/88/67
f 30/38/66 33/45/73 52/89/74 48/78/67
f 46/75/63 53/87/75 50/82/70 38/57/45
f 47/77/65 48/88/67 53/87/75 46/75/63
s 3
f 8/17/17 12/18/18 17/19/18 18/20/18
f 8/17/17 18/20/18 19/21/17 20/22/17
f 8/17/17 20/22/17 21/23/18 22/24/18
s 4
f 12/25/19 11/26/19 23/27/19 17/28/19
f 3/90/19 29/91/19 43/92/19 9/93/19
f 10/94/19 9/93/19 43/92/19 35/95/19
f 10/94/19 35/95/19 23/27/19 11/26/19
s 5
f 3/29/20 2/30/21 24/31/22 25/32/23
f 3/29/20 25/32/23 26/33/24 27/34/24
f 3/29/20 27/34/24 28/35/25 29/36/25
s 6
f 5/37/26 30/38/27 31/39/28 4/40/29
f 8/17/30 22/24/30 32/41/31 7/42/32
f 7/43/32 32/44/31 33/45/33 6/46/34
f 6/46/34 33/45/33 30/38/27 5/37/26
f 24/31/35 2/30/36 1/47/37 34/48/38
f 34/49/38 1/50/37 4/40/29 31/39/28

# 51 faces
