# Wavefront Obj file
# 
# verts: 8 uv-s: 24
mtllib letrero.mtl

g Box001

v -0.300000 -0.100000 0.000000
v -0.300000 0.100000 0.000000
v 0.300000 0.100000 0.000000
v 0.300000 -0.100000 0.000000
v -0.300000 -0.100000 0.010000
v 0.300000 -0.100000 0.010000
v 0.300000 0.100000 0.010000
v -0.300000 0.100000 0.010000
# 8 positions

vt 0.314021 0.005000
vt 0.005000 0.005000
vt 0.005000 0.932065
vt 0.314021 0.932065
vt 0.630476 0.932065
vt 0.630476 0.005000
vt 0.321455 0.005000
vt 0.321455 0.932065
vt 0.653361 0.932065
vt 0.653361 0.005000
vt 0.637910 0.005000
vt 0.637910 0.932065
vt 0.685979 0.005000
vt 0.995000 0.005000
vt 0.995000 0.020451
vt 0.685979 0.020451
vt 0.661944 0.932065
vt 0.661944 0.005000
vt 0.677395 0.005000
vt 0.677395 0.932065
vt 0.685979 0.044486
vt 0.995000 0.044486
vt 0.995000 0.029035
vt 0.685979 0.029035
# 24 texture coordinates

vn 0.000000 0.000000 -1.000000
vn 0.000000 0.000000 1.000000
vn 0.000000 -1.000000 0.000000
vn 1.000000 0.000000 0.000000
vn 0.000000 1.000000 0.000000
vn -1.000000 0.000000 0.000000
# 6 normals

usemtl default
f 1/1/1 2/2/1 3/3/1 4/4/1
f 5/5/2 6/6/2 7/7/2 8/8/2
f 1/9/3 4/10/3 6/11/3 5/12/3
f 4/13/4 3/14/4 7/15/4 6/16/4
f 3/17/5 2/18/5 8/19/5 7/20/5
f 2/21/6 1/22/6 5/23/6 8/24/6

# 6 faces
