# Wavefront Obj file
# 
# verts: 24 uv-s: 62
mtllib soporte cintas 4.mtl

g Box4126

v -0.647900 1.003800 0.136100
v -0.647900 1.166000 0.036500
v -0.647900 4.868000 8.159900
v -0.647900 5.603700 8.159900
v 0.647900 5.603700 8.159900
v 0.647900 1.003800 1.042100
v 0.647900 1.166000 0.036500
v 0.647900 4.868000 8.159900
v -0.647900 1.003800 1.042100
v 0.647900 1.003800 0.136100
v 0.647900 1.498800 0.645700
v -0.647900 1.498800 0.645700
v -0.602000 1.021700 0.165100
v -0.608200 1.187500 0.071500
v -0.602400 4.898400 8.143400
v -0.590800 5.603700 8.159900
v 0.590800 5.603700 8.159900
v 0.598800 1.029500 1.028200
v 0.608200 1.187500 0.071500
v 0.602400 4.898400 8.143400
v -0.598800 1.029500 1.028200
v 0.602000 1.021700 0.165100
v 0.590800 1.498800 0.645700
v -0.590800 1.498800 0.645700
# 24 positions

vt 0.010303 0.171427
vt 0.140760 0.171711
vt 0.141320 0.990000
vt 0.010302 0.990000
vt 0.484232 0.989026
vt 0.440401 0.908791
vt 0.503415 0.919948
vt 0.503415 0.990000
vt 0.714273 0.056882
vt 0.733455 0.055900
vt 0.733458 0.125956
vt 0.670443 0.137116
vt 0.010746 0.059997
vt 0.141593 0.060240
vt 0.141713 0.079456
vt 0.010000 0.079211
vt 0.733458 0.990000
vt 0.668304 0.954409
vt 0.438265 0.091495
vt 0.503418 0.055903
vt 0.153358 0.990000
vt 0.153722 0.172706
vt 0.274574 0.172706
vt 0.274937 0.990000
vt 0.579888 0.125957
vt 0.519817 0.137120
vt 0.560877 0.060300
vt 0.580098 0.060036
vt 0.653255 0.874049
vt 0.653444 0.939991
vt 0.634223 0.939689
vt 0.593186 0.862861
vt 0.297779 0.086290
vt 0.296615 0.067080
vt 0.419416 0.063521
vt 0.419355 0.082766
vt 0.591762 0.045570
vt 0.653444 0.010000
vt 0.579888 0.990000
vt 0.518214 0.954417
vt 0.015444 0.168903
vt 0.135476 0.169333
vt 0.820139 0.852274
vt 0.820139 0.983037
vt 0.816649 0.978446
vt 0.816649 0.856865
vt 0.014685 0.082512
vt 0.423405 0.059367
vt 0.418481 0.129692
vt 0.412767 0.128900
vt 0.298571 0.133180
vt 0.292434 0.063113
vt 0.304286 0.132412
vt 0.136862 0.082611
vt 0.417691 0.990000
vt 0.423405 0.989206
vt 0.746225 0.990000
vt 0.745684 0.984263
vt 0.746192 0.845663
vt 0.745656 0.851400
vt 0.293825 0.985715
vt 0.288116 0.984884
# 62 texture coordinates

vn 0.000000 -0.878840 0.477116
vn 0.000000 -0.878840 0.477116
vn 0.000000 -0.878840 0.477116
vn 0.000000 -0.878840 0.477116
vn -1.000000 0.000000 0.000000
vn -1.000000 0.000000 0.000000
vn -1.000000 0.000000 0.000000
vn -1.000000 0.000000 0.000000
vn 1.000000 0.000000 0.000000
vn 1.000000 0.000000 0.000000
vn 1.000000 0.000000 0.000000
vn 1.000000 0.000000 0.000000
vn 0.000000 -0.523277 -0.852163
vn 0.000000 -0.523277 -0.852163
vn 0.000000 -0.523277 -0.852163
vn 0.000000 -0.523277 -0.852163
vn 1.000000 0.000000 0.000000
vn 1.000000 0.000000 0.000000
vn -1.000000 0.000000 0.000000
vn -1.000000 0.000000 0.000000
vn 0.000000 0.878524 -0.477699
vn 0.000000 0.878524 -0.477699
vn 0.000000 0.878524 -0.477699
vn 0.000000 0.878524 -0.477699
vn 0.999863 -0.011639 -0.011746
vn 0.999863 -0.011639 -0.011746
vn 0.999863 -0.011639 -0.011746
vn 0.999863 -0.011639 -0.011746
vn -0.999863 -0.011639 -0.011746
vn -0.999863 -0.011639 -0.011746
vn -0.999863 -0.011639 -0.011746
vn -0.999863 -0.011639 -0.011746
vn 0.000000 0.491608 0.870817
vn 0.000000 0.491608 0.870817
vn 0.000000 0.491608 0.870817
vn 0.000000 0.491608 0.870817
vn -0.999867 -0.014197 0.007984
vn -0.999867 -0.014197 0.007984
vn -0.999867 -0.014197 0.007984
vn -0.999867 -0.014197 0.007984
vn 0.999867 -0.014197 0.007984
vn 0.999867 -0.014197 0.007984
vn 0.999867 -0.014197 0.007984
vn 0.999867 -0.014197 0.007984
vn 0.000000 -0.475725 -0.879594
vn 0.000000 -0.475725 -0.879594
vn 0.000000 -0.475725 -0.879594
vn 0.000000 -0.475725 -0.879594
vn 0.092968 0.214001 0.972399
vn -0.092968 0.214001 0.972399
vn -0.069255 0.285125 0.955985
vn 0.069255 0.285125 0.955985
vn 0.416687 -0.909044 0.003254
vn 0.273973 -0.938034 0.212207
vn 0.205703 -0.931612 0.299641
vn 0.416687 -0.909044 0.003254
vn -0.007426 0.861080 -0.508415
vn -0.001676 0.877653 -0.479293
vn -0.001559 0.877649 -0.479301
vn -0.007633 0.861326 -0.507995
vn 0.001676 0.877653 -0.479293
vn 0.007426 0.861080 -0.508415
vn 0.007633 0.861326 -0.507995
vn 0.001559 0.877649 -0.479301
vn -0.273973 -0.938034 0.212207
vn -0.416687 -0.909044 0.003254
vn -0.416687 -0.909044 0.003254
vn -0.205703 -0.931612 0.299641
vn 0.000000 0.877589 -0.479414
vn 0.000000 0.877589 -0.479414
vn -0.162401 -0.012604 0.986644
vn -0.162401 -0.012604 0.986644
vn 0.162401 -0.012604 0.986644
vn 0.162401 -0.012604 0.986644
vn 0.000000 0.877589 -0.479414
vn 0.000000 0.877589 -0.479414
# 76 normals

usemtl default
s 1
f 9/1/1 6/2/2 8/3/3 3/4/4
s 2
f 1/5/5 9/6/6 12/7/7 2/8/8
f 3/19/19 4/20/20 12/7/7 9/6/6
s 3
f 10/9/9 7/10/10 11/11/11 6/12/12
f 11/11/11 5/17/17 8/18/18 6/12/12
s 4
f 2/13/13 7/14/14 10/15/15 1/16/16
s 5
f 20/21/21 18/22/22 21/23/23 15/24/24
s 6
f 24/25/25 21/26/26 13/27/27 14/28/28
s 7
f 23/29/29 19/30/30 22/31/31 18/32/32
s 8
f 22/33/33 19/34/34 14/35/35 13/36/36
s 9
f 20/37/37 17/38/38 23/29/39 18/32/40
s 10
f 24/25/41 16/39/42 15/40/43 21/26/44
s 11
f 6/2/45 9/1/46 21/41/47 18/42/48
s 12
f 3/43/49 8/44/50 20/45/51 15/46/52
f 8/44/50 5/57/71 17/58/72 20/45/51
f 4/59/73 3/43/49 15/46/52 16/60/74
s 13
f 9/1/53 1/16/54 13/47/55 21/41/56
f 10/15/65 6/2/66 18/42/67 22/54/68
f 1/16/54 10/15/65 22/54/68 13/47/55
s 14
f 2/48/57 12/49/58 24/50/59 14/35/60
f 11/51/61 7/52/62 19/34/63 23/53/64
f 7/52/62 2/48/57 14/35/60 19/34/63
f 5/55/69 11/51/61 23/53/64 17/56/70
f 12/49/58 4/61/75 16/62/76 24/50/59

# 24 faces
