# Wavefront Obj file
# 
# verts: 16 uv-s: 48
mtllib soporte cintas 3.mtl

g Box2438

v 0.647900 0.776400 -4.394600
v -0.647900 0.776400 -4.394600
v 0.647900 1.452900 -4.324800
v -0.647900 1.452900 -4.324800
v 0.647900 1.787600 -15.806700
v -0.647900 1.787600 -15.806700
v 0.647900 2.498000 -15.960900
v -0.647900 2.498000 -15.960900
v 0.614900 0.812400 -4.424300
v -0.614900 0.812400 -4.424300
v 0.607700 1.457100 -4.365200
v -0.607700 1.457100 -4.365200
v 0.604100 1.824100 -15.803500
v -0.604100 1.824100 -15.803500
v 0.590800 2.498000 -15.960900
v -0.590800 2.498000 -15.960900
# 16 positions

vt 0.005000 0.005000
vt 0.005000 0.084067
vt 0.704070 0.084067
vt 0.704070 0.005000
vt 0.951653 0.196350
vt 0.995000 0.186941
vt 0.931230 0.896951
vt 0.889952 0.892692
vt 0.840444 0.898189
vt 0.883791 0.888780
vt 0.945492 0.192438
vt 0.904214 0.188179
vt 0.091055 0.332844
vt 0.091055 0.253777
vt 0.049557 0.253777
vt 0.049557 0.332844
vt 0.702073 0.089163
vt 0.005000 0.089822
vt 0.005000 0.163544
vt 0.702073 0.164203
vt 0.834030 0.901378
vt 0.889158 0.193130
vt 0.848147 0.203221
vt 0.794649 0.898238
vt 0.803757 0.710109
vt 0.750259 0.015091
vt 0.709248 0.005000
vt 0.764377 0.713248
vt 0.005000 0.328377
vt 0.044503 0.328816
vt 0.044503 0.253777
vt 0.005000 0.254216
vt 0.081394 0.219397
vt 0.007673 0.219397
vt 0.005000 0.221624
vt 0.084067 0.221624
vt 0.008484 0.178277
vt 0.005000 0.178277
vt 0.005000 0.245196
vt 0.712545 0.246227
vt 0.715010 0.248680
vt 0.005000 0.248680
vt 0.712545 0.172066
vt 0.005000 0.173098
vt 0.005000 0.169613
vt 0.715010 0.169613
vt 0.080583 0.178277
vt 0.084067 0.178277
# 48 texture coordinates

vn 0.000000 -0.996097 -0.088262
vn 0.000000 -0.996097 -0.088262
vn 0.000000 -0.996097 -0.088262
vn 0.000000 -0.996097 -0.088262
vn 1.000000 0.000000 0.000000
vn 1.000000 0.000000 0.000000
vn 1.000000 0.000000 0.000000
vn 1.000000 0.000000 0.000000
vn -1.000000 0.000000 0.000000
vn -1.000000 0.000000 0.000000
vn -1.000000 0.000000 0.000000
vn -1.000000 0.000000 0.000000
vn 0.000000 -0.102633 0.994719
vn 0.000000 -0.102633 0.994719
vn 0.000000 -0.102633 0.994719
vn 0.000000 -0.102633 0.994719
vn 0.000000 0.996071 0.088559
vn 0.000000 0.996071 0.088559
vn 0.000000 0.996071 0.088559
vn 0.000000 0.996071 0.088559
vn -0.999879 -0.015559 -0.000185
vn -0.999879 -0.015559 -0.000185
vn -0.999879 -0.015559 -0.000185
vn -0.999879 -0.015559 -0.000185
vn 0.999879 -0.015559 -0.000185
vn 0.999879 -0.015559 -0.000185
vn 0.999879 -0.015559 -0.000185
vn 0.999879 -0.015559 -0.000185
vn 0.000000 0.091288 -0.995825
vn 0.000000 0.091288 -0.995825
vn 0.000000 0.091288 -0.995825
vn 0.000000 0.091288 -0.995825
vn 0.043527 -0.032795 -0.998514
vn -0.043527 -0.032795 -0.998514
vn -0.052963 -0.059026 -0.996851
vn 0.052963 -0.059026 -0.996851
vn -0.110062 -0.219274 -0.969436
vn -0.110062 -0.219274 -0.969436
vn 0.005861 0.995976 0.089425
vn 0.005304 0.995859 0.090755
vn 0.005264 0.995851 0.090851
vn 0.005861 0.995976 0.089425
vn -0.005304 0.995859 0.090755
vn -0.005861 0.995976 0.089425
vn -0.005861 0.995976 0.089425
vn -0.005264 0.995851 0.090851
vn 0.110062 -0.219274 -0.969436
vn 0.110062 -0.219274 -0.969436
# 48 normals

usemtl default
s 1
f 6/1/1 5/2/2 1/3/3 2/4/4
s 2
f 5/5/5 7/6/6 3/7/7 1/8/8
s 3
f 8/9/9 6/10/10 2/11/11 4/12/12
s 4
f 2/13/13 1/14/14 3/15/15 4/16/16
s 5
f 9/17/17 13/18/18 14/19/19 10/20/20
s 6
f 11/21/21 15/22/22 13/23/23 9/24/24
s 7
f 10/25/25 14/26/26 16/27/27 12/28/28
s 8
f 11/29/29 9/30/30 10/31/31 12/32/32
s 9
f 14/33/33 13/34/34 5/35/35 6/36/36
f 13/34/34 15/37/37 7/38/38 5/35/35
f 16/47/47 14/33/33 6/36/36 8/48/48
s 10
f 15/39/39 11/40/40 3/41/41 7/42/42
f 12/43/43 16/44/44 8/45/45 4/46/46
f 11/40/40 12/43/43 4/46/46 3/41/41

# 14 faces
