# Wavefront Obj file
# 
# verts: 108 uv-s: 292
mtllib dfs_aspa.mtl

g Box1683

v 0.388200 -5.706700 -0.407000
v 0.388200 -5.931400 -0.230200
v 0.361900 -5.774100 0.139200
v 0.361600 -5.549300 -0.037300
v 0.088400 -5.596600 0.421700
v 0.171800 -5.420200 0.176600
v -0.346200 -5.381800 0.228900
v -0.031500 -5.321100 0.091900
v -0.308100 -5.149100 -0.281200
v -0.016600 -5.227400 -0.113100
v 0.162100 -4.927300 -0.411900
v 0.223500 -5.114400 -0.175000
v 0.406100 -4.740200 -0.077500
v 0.407200 -4.964700 0.099700
v 0.226400 -4.591300 0.197700
v 0.166600 -4.777500 0.436200
v -0.006300 -4.484200 0.148900
v -0.297900 -4.560500 0.318500
v -0.041300 -4.392200 -0.051700
v -0.355900 -4.329600 -0.187300
v 0.161000 -4.290300 -0.156200
v 0.050100 -4.123500 -0.402900
v 0.358000 -4.166000 0.036200
v 0.354400 -3.942200 -0.142700
v 0.198300 -3.993500 0.380500
v 0.237100 -3.798000 0.151600
v -0.248800 -3.791700 0.341000
v 0.015200 -3.699500 0.143000
v -0.384300 -3.561000 -0.148900
v -0.051200 -3.607100 -0.050300
v 0.008600 -3.340400 -0.436100
v 0.140000 -3.499700 -0.189900
v 0.382200 -3.138700 -0.194800
v 0.388700 -3.359500 -0.009100
v 0.305900 -2.979300 0.148900
v 0.282700 -3.182100 0.368100
v 0.047900 -2.861100 0.189000
v -0.186100 -2.968200 0.409600
v -0.054700 -2.759700 -0.009100
v -0.406800 -2.747500 -0.027400
v 0.095400 -2.665700 -0.154500
v -0.076400 -2.523700 -0.394900
v -0.054900 -2.769600 -0.018400
v 0.096000 -2.675000 -0.165000
v -0.076200 -2.533100 -0.405300
v -0.407000 -2.757500 -0.036600
v 0.047500 -2.871100 0.179700
v -0.186300 -2.978200 0.400400
v 0.298400 -2.985700 0.137100
v 0.276000 -3.188700 0.356100
v 0.366000 -3.140000 -0.197000
v 0.372600 -3.361000 -0.012000
v -0.002200 -3.336300 -0.425000
v 0.138700 -3.490700 -0.178900
v -0.385300 -3.552100 -0.137900
v -0.052200 -3.598300 -0.039200
v -0.248800 -3.781500 0.349800
v 0.015300 -3.689400 0.151900
v 0.213600 -3.991700 0.386000
v 0.252700 -3.796500 0.156500
v 0.373400 -4.163700 0.041200
v 0.370000 -3.940200 -0.138300
v 0.174000 -4.293100 -0.165500
v 0.062600 -4.126900 -0.412700
v -0.039200 -4.400400 -0.063600
v -0.354000 -4.338000 -0.199000
v -0.010000 -4.491600 0.136400
v -0.301400 -4.568200 0.306200
v 0.222400 -4.599000 0.185600
v 0.162900 -4.785300 0.424100
v 0.391400 -4.743000 -0.084000
v 0.392900 -4.967700 0.092800
v 0.148100 -4.924500 -0.404100
v 0.209300 -5.111900 -0.167600
v -0.311300 -5.141300 -0.269000
v -0.019800 -5.219700 -0.100900
v -0.346100 -5.371500 0.237500
v -0.031400 -5.310800 0.100500
v 0.090700 -5.588400 0.433500
v 0.174300 -5.411900 0.188400
v 0.374900 -5.770400 0.147900
v 0.374900 -5.545800 -0.029000
v 0.404600 -5.706300 -0.406100
v 0.404600 -5.931000 -0.229200
v 0.252800 -6.055100 0.000100
v 0.126500 -6.055100 -0.218800
v 0.126500 0.008200 -0.218800
v 0.252800 0.008200 0.000100
v -0.126300 -6.055100 -0.218800
v -0.126300 0.008200 -0.218800
v -0.252600 -6.055100 0.000100
v -0.252600 0.008200 0.000100
v -0.126300 -6.055100 0.218900
v -0.126300 0.008200 0.218900
v 0.126500 -6.055100 0.218900
v 0.126500 0.008200 0.218900
v 0.457600 -2.492400 0.000100
v 0.228900 -2.492400 -0.396100
v 0.228900 -0.911800 -0.396100
v 0.457600 -0.911800 0.000100
v -0.228600 -2.492400 -0.396100
v -0.228600 -0.911800 -0.396100
v -0.457400 -2.492400 0.000100
v -0.457400 -0.911800 0.000100
v -0.228600 -2.492400 0.396300
v -0.228600 -0.911800 0.396300
v 0.228900 -2.492400 0.396300
v 0.228900 -0.911800 0.396300
# 108 positions

vt 0.869948 0.694299
vt 0.825330 0.682262
vt 0.825330 0.617230
vt 0.869944 0.629212
vt 0.350035 0.461562
vt 0.321582 0.425151
vt 0.372360 0.376798
vt 0.386200 0.425815
vt 0.456916 0.382124
vt 0.424399 0.427614
vt 0.495795 0.464333
vt 0.439904 0.460812
vt 0.445496 0.535079
vt 0.413877 0.496465
vt 0.677580 0.232499
vt 0.656519 0.187382
vt 0.729942 0.187382
vt 0.736213 0.233182
vt 0.788259 0.188034
vt 0.809600 0.233086
vt 0.242728 0.283926
vt 0.203026 0.253779
vt 0.220519 0.215432
vt 0.275528 0.205486
vt 0.812618 0.407650
vt 0.762622 0.382644
vt 0.764548 0.346579
vt 0.812618 0.317295
vt 0.321780 0.532026
vt 0.349652 0.483125
vt 0.389972 0.483084
vt 0.403202 0.532712
vt 0.546724 0.270968
vt 0.502257 0.245264
vt 0.501830 0.196434
vt 0.548009 0.199942
vt 0.577264 0.139104
vt 0.568507 0.184582
vt 0.501124 0.184582
vt 0.521006 0.139735
vt 0.595436 0.454878
vt 0.638067 0.479205
vt 0.585088 0.538595
vt 0.570413 0.485164
vt 0.496243 0.522622
vt 0.534410 0.480730
vt 0.180228 0.484368
vt 0.151925 0.533424
vt 0.108042 0.458996
vt 0.158784 0.448254
vt 0.131653 0.383511
vt 0.176510 0.396583
vt 0.489760 0.212168
vt 0.444537 0.223591
vt 0.445013 0.161128
vt 0.489760 0.142652
vt 0.836757 0.247729
vt 0.829478 0.295591
vt 0.783198 0.293572
vt 0.753201 0.247729
vt 0.736151 0.682229
vt 0.730264 0.627762
vt 0.765317 0.609320
vt 0.812618 0.641162
vt 0.763106 0.572350
vt 0.812618 0.553479
vt 0.553125 0.604084
vt 0.551490 0.641332
vt 0.549308 0.640710
vt 0.550961 0.603711
vt 0.549569 0.694299
vt 0.547394 0.693662
vt 0.827704 0.524479
vt 0.739942 0.529292
vt 0.739502 0.527140
vt 0.827053 0.522309
vt 0.549569 0.564643
vt 0.547394 0.564264
vt 0.653280 0.524461
vt 0.652840 0.522309
vt 0.432430 0.175313
vt 0.413571 0.224845
vt 0.376353 0.222629
vt 0.344536 0.175313
vt 0.413930 0.470450
vt 0.368822 0.470048
vt 0.368003 0.467997
vt 0.414326 0.467997
vt 0.297609 0.449410
vt 0.243531 0.387205
vt 0.245124 0.385324
vt 0.299667 0.448639
vt 0.275755 0.533424
vt 0.233625 0.494990
vt 0.243300 0.456583
vt 0.212532 0.534265
vt 0.213559 0.473798
vt 0.215180 0.471915
vt 0.215180 0.534379
vt 0.177076 0.399177
vt 0.212084 0.424007
vt 0.563853 0.290668
vt 0.618031 0.345175
vt 0.618692 0.347743
vt 0.562177 0.292642
vt 0.160975 0.447531
vt 0.860896 0.451771
vt 0.860896 0.519292
vt 0.816168 0.500798
vt 0.815728 0.440323
vt 0.564418 0.205794
vt 0.562177 0.206277
vt 0.182408 0.483647
vt 0.065890 0.165895
vt 0.064312 0.114966
vt 0.110905 0.115449
vt 0.110905 0.192300
vt 0.199178 0.443858
vt 0.199178 0.533719
vt 0.197081 0.534646
vt 0.197076 0.444425
vt 0.112590 0.534085
vt 0.112597 0.498170
vt 0.114696 0.498743
vt 0.114696 0.534997
vt 0.613765 0.233610
vt 0.613822 0.275614
vt 0.640628 0.478545
vt 0.586288 0.540413
vt 0.224804 0.192819
vt 0.266899 0.193480
vt 0.264664 0.194911
vt 0.225400 0.194911
vt 0.643566 0.163243
vt 0.646370 0.218551
vt 0.629396 0.412036
vt 0.626819 0.412639
vt 0.097868 0.534299
vt 0.097868 0.478004
vt 0.100505 0.478118
vt 0.100521 0.534379
vt 0.193251 0.147307
vt 0.275528 0.145139
vt 0.581176 0.395719
vt 0.580109 0.398112
vt 0.549343 0.197664
vt 0.549343 0.270781
vt 0.816672 0.189954
vt 0.796600 0.145139
vt 0.864021 0.145139
vt 0.872965 0.190603
vt 0.544826 0.416532
vt 0.545549 0.418783
vt 0.405274 0.534324
vt 0.322262 0.534324
vt 0.639223 0.366348
vt 0.568137 0.346338
vt 0.381503 0.452910
vt 0.417344 0.452910
vt 0.416199 0.454974
vt 0.380083 0.454873
vt 0.662705 0.694299
vt 0.662705 0.604165
vt 0.664709 0.602820
vt 0.664767 0.693174
vt 0.496243 0.388172
vt 0.201051 0.252403
vt 0.218523 0.214059
vt 0.789594 0.419444
vt 0.710270 0.388891
vt 0.710702 0.386528
vt 0.790045 0.417074
vt 0.803566 0.508488
vt 0.751308 0.487547
vt 0.744424 0.452374
vt 0.145429 0.262035
vt 0.145728 0.264655
vt 0.650786 0.428641
vt 0.649200 0.426566
vt 0.704664 0.438426
vt 0.102001 0.205486
vt 0.100008 0.207202
vt 0.657322 0.484788
vt 0.654707 0.484943
vt 0.287597 0.207630
vt 0.287657 0.136087
vt 0.332644 0.157566
vt 0.333367 0.214011
vt 0.567301 0.619344
vt 0.611309 0.692129
vt 0.611074 0.694751
vt 0.565510 0.620941
vt 0.693521 0.506710
vt 0.691925 0.508488
vt 0.287657 0.264157
vt 0.332702 0.285309
vt 0.598385 0.442932
vt 0.508286 0.442932
vt 0.506982 0.440921
vt 0.597811 0.440841
vt 0.508296 0.464979
vt 0.544073 0.464979
vt 0.543495 0.467070
vt 0.506984 0.466975
vt 0.645211 0.655630
vt 0.623192 0.619435
vt 0.372134 0.374459
vt 0.457223 0.379979
vt 0.640751 0.588282
vt 0.680277 0.587817
vt 0.679940 0.590156
vt 0.640959 0.590444
vt 0.611081 0.540413
vt 0.319680 0.423387
vt 0.714375 0.627747
vt 0.712259 0.629260
vt 0.696501 0.540413
vt 0.300396 0.534626
vt 0.307620 0.488867
vt 0.310242 0.489331
vt 0.303018 0.535079
vt 0.720744 0.693934
vt 0.718095 0.694156
vt 0.746236 0.593383
vt 0.869933 0.416721
vt 0.825322 0.428771
vt 0.825322 0.362349
vt 0.869948 0.350308
vt 0.990000 0.949153
vt 0.990000 0.990000
vt 0.010000 0.990000
vt 0.010000 0.949153
vt 0.010000 0.802924
vt 0.010000 0.762064
vt 0.990000 0.762064
vt 0.990000 0.802924
vt 0.010000 0.896462
vt 0.010000 0.855615
vt 0.990000 0.855615
vt 0.990000 0.896462
vt 0.010000 0.814781
vt 0.990000 0.814781
vt 0.010000 0.748611
vt 0.010000 0.707752
vt 0.990000 0.707752
vt 0.990000 0.748611
vt 0.990000 0.908320
vt 0.010000 0.908320
vt 0.080745 0.245637
vt 0.045380 0.266052
vt 0.010000 0.245637
vt 0.045380 0.184365
vt 0.010000 0.204780
vt 0.080745 0.204777
vt 0.185713 0.233988
vt 0.144856 0.233988
vt 0.124441 0.198608
vt 0.185716 0.163243
vt 0.144856 0.163243
vt 0.206128 0.198608
vt 0.265470 0.620389
vt 0.265470 0.694328
vt 0.010000 0.694328
vt 0.010000 0.620389
vt 0.010000 0.277903
vt 0.083945 0.277903
vt 0.083945 0.533371
vt 0.010000 0.533371
vt 0.535021 0.546448
vt 0.535021 0.620396
vt 0.279552 0.620396
vt 0.279552 0.546448
vt 0.535021 0.694344
vt 0.279552 0.694344
vt 0.097503 0.371441
vt 0.097503 0.297496
vt 0.352972 0.297496
vt 0.352972 0.371441
vt 0.265470 0.546448
vt 0.010000 0.546448
vt 0.659466 0.372786
vt 0.622484 0.308749
vt 0.659466 0.244712
vt 0.770375 0.308749
vt 0.733410 0.244712
vt 0.733410 0.372786
vt 0.476934 0.363734
vt 0.402990 0.363734
vt 0.366009 0.299697
vt 0.476934 0.235660
vt 0.402990 0.235660
vt 0.513899 0.299697
# 292 texture coordinates

vn -0.997672 -0.042551 -0.053289
vn -0.932195 -0.214487 -0.291562
vn -0.932195 -0.214487 -0.291562
vn -0.490829 -0.625785 -0.606201
vn -0.490829 -0.625785 -0.606201
vn -0.062914 -0.853437 -0.517385
vn -0.062914 -0.853437 -0.517385
vn 0.087208 -0.839269 -0.536678
vn 0.087208 -0.839269 -0.536678
vn 0.565240 -0.576700 -0.589848
vn 0.565240 -0.576700 -0.589848
vn 0.999986 0.000262 -0.005295
vn 0.999986 0.000262 -0.005295
vn 0.574483 0.574018 0.583500
vn 0.574483 0.574018 0.583500
vn 0.098594 0.838021 0.536656
vn 0.098594 0.838021 0.536656
vn -0.047153 0.861594 0.505403
vn -0.047153 0.861594 0.505403
vn -0.450677 0.643893 0.618297
vn -0.450677 0.643893 0.618297
vn -0.983132 0.103578 0.150744
vn -0.983132 0.103578 0.150744
vn -0.670587 -0.511177 -0.537597
vn -0.670587 -0.511177 -0.537597
vn -0.137031 -0.819722 -0.556129
vn -0.137031 -0.819722 -0.556129
vn 0.025688 -0.867671 -0.496475
vn 0.025688 -0.867671 -0.496475
vn 0.379881 -0.682083 -0.624862
vn 0.379881 -0.682083 -0.624862
vn 0.951752 -0.182662 -0.246581
vn 0.951752 -0.182662 -0.246581
vn 0.758058 0.440310 0.481119
vn 0.758058 0.440310 0.481119
vn 0.195716 0.793176 0.576686
vn 0.195716 0.793176 0.576686
vn 0.001604 0.874169 0.485619
vn 0.001604 0.874169 0.485619
vn -0.006783 0.852863 0.522091
vn 0.748655 -0.468319 0.469248
vn 0.836079 0.424364 -0.347689
vn -0.784494 0.440748 -0.436246
vn 0.903910 0.277205 -0.325736
vn -0.906896 -0.275314 0.318971
vn 0.006711 -0.853038 -0.521805
vn 0.226648 0.726071 -0.649193
vn -0.266301 -0.714942 0.646484
vn -0.010032 -0.893805 -0.448343
vn -0.041336 0.903366 -0.426873
vn 0.037199 -0.900747 0.432749
vn -0.373932 -0.641209 -0.670094
vn -0.095810 0.828733 -0.551382
vn -0.032473 -0.767190 0.640598
vn -0.977382 -0.125658 -0.170103
vn -0.680321 0.412430 -0.605859
vn 0.673139 -0.540142 0.505105
vn -0.647259 0.451218 0.614377
vn -0.961580 -0.220239 0.163889
vn 0.943536 0.260920 -0.204112
vn -0.053651 0.829296 0.556229
vn -0.309395 -0.539060 0.783383
vn 0.273285 0.560305 -0.781904
vn 0.001353 0.904428 0.426625
vn -0.029064 -0.899400 0.436159
vn 0.027016 0.902322 -0.430216
vn 0.276532 0.695203 0.663492
vn 0.059337 -0.868072 0.492880
vn -0.057575 0.851896 -0.520537
vn 0.930551 0.212170 0.298426
vn 0.572664 -0.486107 0.660117
vn -0.584672 0.479212 -0.654610
vn 0.750490 -0.374870 -0.544277
vn 0.989158 0.085404 -0.119466
vn -0.995076 -0.037730 0.091650
vn 0.105507 -0.797497 -0.594027
vn 0.440643 0.696972 -0.565741
vn -0.462255 -0.680426 0.568631
vn -0.002205 -0.910045 -0.414504
vn -0.014327 0.876833 -0.480581
vn 0.007886 -0.872543 0.488474
vn -0.191541 -0.742042 -0.642406
vn -0.021665 0.877929 -0.478300
vn 0.023706 -0.883027 0.468723
vn -0.862042 -0.294884 -0.412222
vn -0.460437 0.557013 -0.691183
vn 0.453459 -0.559540 0.693751
vn -0.840310 0.314784 0.441350
vn -0.993533 -0.057960 -0.097638
vn 0.993619 0.063098 0.093483
vn -0.166843 0.751038 0.638831
vn -0.554001 -0.583219 0.594086
vn 0.541294 0.585848 -0.603144
vn 0.005365 0.910450 0.413585
vn -0.025921 -0.856038 0.516263
vn 0.011536 0.858336 -0.512959
vn 0.118375 0.783625 0.609852
vn 0.060487 -0.617337 -0.784370
vn -0.000959 -0.920073 0.391745
vn 0.000492 0.920118 -0.391641
vn 0.773867 0.375393 0.510108
vn 0.928521 0.221091 0.298273
vn 0.928521 0.221091 0.298273
vn 0.997194 0.046317 0.058819
vn 1.000000 0.000000 0.000099
vn 0.500122 0.000000 -0.865955
vn 1.000000 0.000000 0.000099
vn -0.500122 0.000000 -0.865955
vn -1.000000 0.000000 0.000099
vn -1.000000 0.000000 0.000099
vn -0.500036 0.000000 0.866005
vn 0.500036 0.000000 0.866005
vn 0.000000 -1.000000 0.000000
vn 0.000000 1.000000 0.000000
vn 1.000000 0.000000 0.000000
vn 0.500038 0.000000 -0.866004
vn -0.499956 0.000000 -0.866051
vn -1.000000 0.000000 0.000000
vn -0.499956 0.000000 0.866051
vn 0.500038 0.000000 0.866004
vn 0.000000 -1.000000 0.000000
vn 0.000000 1.000000 0.000000
# 122 normals

usemtl default
s 1
f 1/1/1 2/2/1 3/3/2 4/4/3
f 4/5/3 3/6/2 5/7/4 6/8/5
f 6/8/5 5/7/4 7/9/6 8/10/7
f 8/10/7 7/9/6 9/11/8 10/12/9
f 10/12/9 9/11/8 11/13/10 12/14/11
f 12/15/11 11/16/10 13/17/12 14/18/13
f 14/18/13 13/17/12 15/19/14 16/20/15
f 16/21/15 15/22/14 17/23/16 18/24/17
f 18/25/17 17/26/16 19/27/18 20/28/19
f 20/29/19 19/30/18 21/31/20 22/32/21
f 22/33/21 21/34/20 23/35/22 24/36/23
f 24/37/23 23/38/22 25/39/24 26/40/25
f 26/41/25 25/42/24 27/43/26 28/44/27
f 28/44/27 27/43/26 29/45/28 30/46/29
f 30/47/29 29/48/28 31/49/30 32/50/31
f 32/50/31 31/49/30 33/51/32 34/52/33
f 34/53/33 33/54/32 35/55/34 36/56/35
f 36/57/35 35/58/34 37/59/36 38/60/37
f 38/61/37 37/62/36 39/63/38 40/64/39
f 40/64/39 39/63/38 41/65/40 42/66/40
s 2
f 43/67/41 44/68/41 41/69/41 39/70/41
s 3
f 44/68/42 45/71/42 42/72/42 41/69/42
s 4
f 45/73/43 46/74/43 40/75/43 42/76/43
s 5
f 47/77/44 43/67/44 39/70/44 37/78/44
s 6
f 46/74/45 48/79/45 38/80/45 40/75/45
s 7
f 45/81/46 44/82/46 43/83/46 46/84/46
s 8
f 49/85/47 47/86/47 37/87/47 35/88/47
s 9
f 48/89/48 50/90/48 36/91/48 38/92/48
s 10
f 48/89/49 46/93/49 43/94/49 47/95/49
s 11
f 51/96/50 49/97/50 35/98/50 33/99/50
s 12
f 50/90/51 52/100/51 34/52/51 36/91/51
s 13
f 50/90/52 48/89/52 47/95/52 49/101/52
s 14
f 53/102/53 51/103/53 33/104/53 31/105/53
s 15
f 52/100/54 54/106/54 32/50/54 34/52/54
s 16
f 52/107/55 50/108/55 49/109/55 51/110/55
s 17
f 55/111/56 53/102/56 31/105/56 29/112/56
s 18
f 54/106/57 56/113/57 30/47/57 32/50/57
s 19
f 54/114/58 52/115/58 51/116/58 53/117/58
s 20
f 57/118/59 55/119/59 29/120/59 27/121/59
s 21
f 56/122/60 58/123/60 28/124/60 30/125/60
s 22
f 56/126/61 54/127/61 53/102/61 55/111/61
s 23
f 59/128/62 57/129/62 27/43/62 25/42/62
s 24
f 58/130/63 60/131/63 26/132/63 28/133/63
s 25
f 56/126/64 55/111/64 57/134/64 58/135/64
s 26
f 61/136/65 59/128/65 25/42/65 23/137/65
s 27
f 60/138/66 62/139/66 24/140/66 26/141/66
s 28
f 58/130/67 57/142/67 59/143/67 60/131/67
s 29
f 63/144/68 61/136/68 23/137/68 21/145/68
s 30
f 62/146/69 64/147/69 22/33/69 24/36/69
s 31
f 60/148/70 59/149/70 61/150/70 62/151/70
s 32
f 65/152/71 63/144/71 21/145/71 19/153/71
s 33
f 64/154/72 66/155/72 20/29/72 22/32/72
s 34
f 62/156/73 61/136/73 63/144/73 64/157/73
s 35
f 67/158/74 65/159/74 19/160/74 17/161/74
s 36
f 66/162/75 68/163/75 18/164/75 20/165/75
s 37
f 64/157/76 63/144/76 65/152/76 66/166/76
s 38
f 69/167/77 67/168/77 17/23/77 15/22/77
s 39
f 68/169/78 70/170/78 16/171/78 18/172/78
s 40
f 68/169/79 66/173/79 65/174/79 67/175/79
s 41
f 71/176/80 69/167/80 15/22/80 13/177/80
s 42
f 70/170/81 72/178/81 14/179/81 16/171/81
s 43
f 70/170/82 68/169/82 67/175/82 69/180/82
s 44
f 73/181/83 71/176/83 13/177/83 11/182/83
s 45
f 72/178/84 74/183/84 12/184/84 14/179/84
s 46
f 72/185/85 70/186/85 69/187/85 71/188/85
s 47
f 75/189/86 73/190/86 11/191/86 9/192/86
s 48
f 74/183/87 76/193/87 10/194/87 12/184/87
s 49
f 74/195/88 72/185/88 71/188/88 73/196/88
s 50
f 77/197/89 75/198/89 9/199/89 7/200/89
s 51
f 76/201/90 78/202/90 8/203/90 10/204/90
s 52
f 74/205/91 73/190/91 75/189/91 76/206/91
s 53
f 79/207/92 77/208/92 7/9/92 5/7/92
s 54
f 78/209/93 80/210/93 6/211/93 8/212/93
s 55
f 76/206/94 75/189/94 77/213/94 78/209/94
s 56
f 81/214/95 79/207/95 5/7/95 3/6/95
s 57
f 80/210/96 82/215/96 4/216/96 6/211/96
s 58
f 78/209/97 77/213/97 79/217/97 80/210/97
s 59
f 83/218/98 84/219/98 2/220/98 1/221/98
s 60
f 84/219/99 81/214/99 3/6/99 2/220/99
s 61
f 82/215/100 83/222/100 1/223/100 4/216/100
s 62
f 80/210/101 79/217/101 81/224/102 82/215/103
f 82/225/103 81/226/102 84/227/104 83/228/104

g Cylinder875

# 0 positions

# 0 texture coordinates

# 0 normals

usemtl default
s 63
f 85/229/105 86/230/106 87/231/106 88/232/107
f 86/233/106 89/234/108 90/235/108 87/236/106
f 89/237/108 91/238/109 92/239/110 90/240/108
f 91/238/109 93/241/111 94/242/111 92/239/110
f 93/243/111 95/244/112 96/245/112 94/246/111
f 95/247/112 85/229/105 88/232/107 96/248/112
s 64
f 93/249/113 91/250/113 89/251/113 85/252/113
f 89/251/113 86/253/113 85/252/113
f 95/254/113 93/249/113 85/252/113
s 65
f 87/255/114 90/256/114 92/257/114 96/258/114
f 92/257/114 94/259/114 96/258/114
f 88/260/114 87/255/114 96/258/114

g Cylinder868

# 0 positions

# 0 texture coordinates

# 0 normals

usemtl default
s 66
f 97/261/115 98/262/116 99/263/116 100/264/115
f 98/265/116 101/266/117 102/267/117 99/268/116
f 101/269/117 103/270/118 104/271/118 102/272/117
f 103/270/118 105/273/119 106/274/119 104/271/118
f 105/275/119 107/276/120 108/277/120 106/278/119
f 107/279/120 97/261/115 100/264/115 108/280/120
s 67
f 105/281/121 103/282/121 101/283/121 97/284/121
f 101/283/121 98/285/121 97/284/121
f 107/286/121 105/281/121 97/284/121
s 68
f 99/287/122 102/288/122 104/289/122 108/290/122
f 104/289/122 106/291/122 108/290/122
f 100/292/122 99/287/122 108/290/122

# 106 faces
