# Wavefront Obj file
# 
# verts: 117 uv-s: 366
mtllib silla_visita.mtl

g espaldar

v -0.133400 0.221600 -0.313400
v -0.172800 0.221400 -0.331400
v -0.135600 -0.382100 -0.390900
v -0.111800 -0.382100 -0.379900
v -0.154200 0.216000 -0.286600
v -0.157100 0.221700 -0.281200
v -0.140700 0.239900 -0.295600
v -0.121500 -0.382100 -0.355500
v -0.183100 0.238800 -0.310100
v -0.182400 0.219100 -0.294200
v -0.180300 0.212400 -0.298700
v -0.286900 0.261800 -0.032200
v -0.287900 0.270600 -0.042100
v -0.288600 0.282200 0.076600
v -0.271100 0.285500 0.120500
v -0.268400 0.376900 0.152900
v -0.289700 0.360000 0.079800
v -0.272900 0.378200 0.157500
v -0.297900 0.362500 0.084200
v -0.275800 0.338500 0.014100
v -0.269700 0.338800 0.017800
v -0.244300 0.317100 -0.048200
v -0.256400 0.267200 -0.027100
v -0.280300 0.277900 0.039200
v -0.248500 0.317100 -0.053700
v -0.141800 -0.382100 -0.365000
v -0.332600 -0.382100 0.128400
v -0.314000 -0.382100 0.141600
v -0.344200 -0.382100 0.157500
v -0.327300 -0.382100 0.175100
v -0.307100 0.277700 0.023200
v -0.103300 0.288000 0.222300
v -0.115400 0.380700 0.248300
v -0.285000 0.288300 0.146200
v -0.115600 0.291200 0.248800
v -0.119200 0.382100 0.256400
v -0.305800 0.284500 0.081400
v 0.325800 0.221600 -0.099200
v 0.362900 -0.382100 -0.158500
v 0.386600 -0.382100 -0.147400
v 0.365000 0.221400 -0.080700
v 0.318700 0.216000 -0.066100
v 0.316900 0.239900 -0.082200
v 0.316400 0.221700 -0.060400
v 0.350500 -0.382100 -0.135400
v 0.355300 0.238800 -0.059100
v 0.344700 0.212400 -0.053900
v 0.342600 0.219100 -0.049400
v 0.209100 0.261800 0.199000
v 0.217300 0.270600 0.193500
v 0.126800 0.282200 0.270300
v 0.125100 0.360000 0.273200
v 0.055400 0.376900 0.303900
v 0.082000 0.285500 0.285100
v 0.127000 0.362500 0.282300
v 0.054700 0.378200 0.310300
v 0.159700 0.338800 0.218100
v 0.166500 0.338500 0.220400
v 0.150100 0.277900 0.239900
v 0.185600 0.267200 0.179000
v 0.193900 0.317100 0.156200
v 0.200900 0.317100 0.155800
v 0.370700 -0.382100 -0.125900
v 0.093300 -0.382100 0.331600
v 0.115400 -0.382100 0.337400
v 0.100600 -0.382100 0.364900
v 0.076300 -0.382100 0.363300
v 0.179600 0.277700 0.250200
v 0.071200 0.288300 0.312300
v 0.134200 0.284500 0.286600
v -0.304400 -0.007400 0.035500
v -0.301200 0.037000 0.024400
v -0.164900 0.037000 -0.317600
v -0.161900 -0.007400 -0.322300
v -0.129900 -0.003300 -0.306800
v -0.274700 -0.007400 0.056500
v -0.131700 0.034900 -0.302400
v -0.270900 0.032900 0.047100
v 0.349900 0.037000 -0.077500
v 0.175500 0.037000 0.246700
v 0.169200 -0.007400 0.256300
v 0.351600 -0.007400 -0.082900
v 0.316900 0.034900 -0.093200
v 0.138700 0.032900 0.238100
v 0.319200 -0.003300 -0.097400
v 0.133900 -0.007400 0.247000
v -0.124200 -0.007400 -0.339200
v 0.340300 -0.007400 -0.122600
v 0.326300 -0.007400 -0.096500
v -0.135200 -0.007400 -0.311600
v -0.125700 0.037000 -0.334400
v 0.337600 0.037000 -0.118300
v -0.134900 0.037000 -0.311500
v 0.326000 0.037000 -0.096600
v -0.280600 0.037000 0.054300
v -0.280400 -0.007400 0.054400
v -0.294400 -0.007400 0.089300
v -0.290500 0.037000 0.079100
v 0.139400 0.037000 0.250100
v 0.139200 -0.007400 0.250000
v 0.126800 0.037000 0.273700
v 0.121400 -0.007400 0.283200
v 0.334900 0.055600 -0.116800
v -0.125100 0.055600 -0.331400
v -0.134100 0.080700 -0.303000
v 0.318900 0.080700 -0.091700
v 0.337200 0.037000 -0.118100
v -0.125600 0.037000 -0.333900
v 0.140100 0.080800 0.240700
v 0.128100 0.054100 0.265700
v 0.126800 0.037500 0.273300
v -0.273800 0.080800 0.047700
v -0.285200 0.054100 0.073000
v -0.290200 0.037500 0.078900
# 114 positions

vt 0.530679 0.256288
vt 0.530749 0.238947
vt 0.932586 0.234763
vt 0.932586 0.263414
vt 0.453760 0.696979
vt 0.471293 0.697992
vt 0.471293 0.716788
vt 0.465780 0.716286
vt 0.614605 0.347498
vt 0.215841 0.342040
vt 0.213847 0.324788
vt 0.615818 0.324788
vt 0.445556 0.716788
vt 0.427262 0.702889
vt 0.428806 0.697593
vt 0.445556 0.697362
vt 0.634833 0.633942
vt 0.634833 0.442451
vt 0.649475 0.450587
vt 0.641923 0.639130
vt 0.823289 0.421765
vt 0.873192 0.408693
vt 0.854459 0.470062
vt 0.823289 0.473273
vt 0.618042 0.403816
vt 0.623301 0.400220
vt 0.661138 0.436206
vt 0.657026 0.437595
vt 0.573164 0.397550
vt 0.572736 0.392849
vt 0.627540 0.459636
vt 0.626918 0.506781
vt 0.591665 0.517046
vt 0.585201 0.468547
vt 0.522575 0.388682
vt 0.524464 0.392849
vt 0.340459 0.379053
vt 0.077313 0.019514
vt 0.097766 0.015939
vt 0.096080 0.204626
vt 0.077313 0.202451
vt 0.104768 0.212679
vt 0.102636 0.231737
vt 0.097111 0.231378
vt 0.099252 0.212609
vt 0.501236 0.212609
vt 0.501406 0.227432
vt 0.831616 0.374792
vt 0.386263 0.374792
vt 0.387346 0.359746
vt 0.827292 0.354485
vt 0.662498 0.689393
vt 0.677159 0.692948
vt 0.677192 0.716788
vt 0.662498 0.710114
vt 0.050333 0.689647
vt 0.010000 0.687391
vt 0.030054 0.247872
vt 0.050333 0.243616
vt 0.578202 0.423778
vt 0.628652 0.434162
vt 0.478190 0.947100
vt 0.478202 0.882919
vt 0.607899 0.877151
vt 0.597289 0.940433
vt 0.910808 0.364933
vt 0.896575 0.493975
vt 0.877136 0.494007
vt 0.891428 0.363781
vt 0.576222 0.579915
vt 0.572150 0.700763
vt 0.512536 0.710848
vt 0.515842 0.579883
vt 0.608368 0.295091
vt 0.611859 0.317799
vt 0.210001 0.317799
vt 0.211929 0.300290
vt 0.372303 0.354485
vt 0.371357 0.371801
vt 0.353990 0.371801
vt 0.354869 0.357003
vt 0.671205 0.555987
vt 0.677192 0.555989
vt 0.292345 0.362404
vt 0.308950 0.372465
vt 0.265382 0.384060
vt 0.262669 0.372465
vt 0.442708 0.063867
vt 0.397934 0.069145
vt 0.378242 0.011980
vt 0.430489 0.013439
vt 0.238090 0.365681
vt 0.226635 0.382857
vt 0.792436 0.830244
vt 0.794000 0.846307
vt 0.347219 0.846307
vt 0.346428 0.825677
vt 0.481467 0.063142
vt 0.481467 0.017513
vt 0.871662 0.536626
vt 0.826033 0.536626
vt 0.823697 0.486308
vt 0.864341 0.491959
vt 0.068667 0.241005
vt 0.029798 0.227847
vt 0.039274 0.045636
vt 0.068667 0.049513
vt 0.626918 0.689719
vt 0.611575 0.700576
vt 0.104340 0.243983
vt 0.104340 0.689335
vt 0.057515 0.683821
vt 0.081349 0.237677
vt 0.636585 0.679172
vt 0.666736 0.401624
vt 0.638085 0.401624
vt 0.637704 0.382202
vt 0.667293 0.384070
vt 0.508902 0.201088
vt 0.910735 0.205155
vt 0.910808 0.222465
vt 0.508902 0.229758
vt 0.651478 0.409919
vt 0.670264 0.409919
vt 0.671253 0.427430
vt 0.651982 0.415441
vt 0.795095 0.388068
vt 0.812321 0.390059
vt 0.817758 0.788821
vt 0.795095 0.790040
vt 0.711284 0.853958
vt 0.712828 0.859254
vt 0.694507 0.873192
vt 0.694507 0.853756
vt 0.356216 0.390121
vt 0.364384 0.404777
vt 0.172842 0.404777
vt 0.167719 0.397686
vt 0.199504 0.324020
vt 0.218307 0.385382
vt 0.168384 0.372335
vt 0.168384 0.320828
vt 0.660573 0.675217
vt 0.622769 0.711289
vt 0.617497 0.707722
vt 0.656448 0.673856
vt 0.572333 0.719094
vt 0.572701 0.714358
vt 0.798833 0.905970
vt 0.804759 0.869752
vt 0.851500 0.863489
vt 0.847758 0.906579
vt 0.524077 0.720003
vt 0.522224 0.724253
vt 0.340459 0.738566
vt 0.106346 0.198643
vt 0.105030 0.010000
vt 0.125441 0.013569
vt 0.125097 0.196499
vt 0.125441 0.202033
vt 0.106415 0.204159
vt 0.567182 0.412696
vt 0.567164 0.427460
vt 0.170727 0.431697
vt 0.168384 0.412696
vt 0.798679 0.954364
vt 0.799939 0.969423
vt 0.354602 0.974680
vt 0.358675 0.954364
vt 0.598000 0.675611
vt 0.598000 0.699402
vt 0.583305 0.702929
vt 0.583336 0.682274
vt 0.783820 0.766701
vt 0.344280 0.786897
vt 0.342037 0.746485
vt 0.788061 0.746485
vt 0.876652 0.859333
vt 0.892990 0.908180
vt 0.348911 0.877151
vt 0.359544 0.940443
vt 0.910808 0.622610
vt 0.891395 0.623737
vt 0.512536 0.449413
vt 0.572152 0.459537
vt 0.611859 0.288148
vt 0.210005 0.288148
vt 0.213495 0.265394
vt 0.609923 0.270567
vt 0.478744 0.696990
vt 0.496086 0.696990
vt 0.497030 0.714274
vt 0.479527 0.711734
vt 0.378249 0.700949
vt 0.421798 0.712573
vt 0.405151 0.722623
vt 0.375528 0.712573
vt 0.988020 0.920993
vt 0.930859 0.901265
vt 0.936132 0.856501
vt 0.986566 0.868690
vt 0.350952 0.719350
vt 0.339515 0.702134
vt 0.347222 0.797960
vt 0.794000 0.797960
vt 0.792437 0.813991
vt 0.346437 0.818612
vt 0.936865 0.817758
vt 0.982481 0.817758
vt 0.980101 0.760343
vt 0.977732 0.810723
vt 0.932116 0.810723
vt 0.939444 0.766040
vt 0.980101 0.185906
vt 0.797933 0.195377
vt 0.784728 0.156505
vt 0.976271 0.156505
vt 0.623145 0.891654
vt 0.614211 0.908180
vt 0.160012 0.686434
vt 0.112950 0.689446
vt 0.136764 0.244715
vt 0.160012 0.239657
vt 0.167438 0.689071
vt 0.167438 0.643792
vt 0.174323 0.683675
vt 0.316978 0.371937
vt 0.317315 0.352505
vt 0.345985 0.352505
vt 0.346566 0.370034
vt 0.924667 0.889030
vt 0.895290 0.881427
vt 0.895291 0.637916
vt 0.924667 0.634294
vt 0.450173 0.113173
vt 0.704909 0.112949
vt 0.703238 0.136564
vt 0.444543 0.136564
vt 0.972182 0.110970
vt 0.969302 0.136268
vt 0.720475 0.137553
vt 0.713490 0.110970
vt 0.864458 0.400654
vt 0.840436 0.402000
vt 0.840436 0.374515
vt 0.865273 0.370321
vt 0.918163 0.382206
vt 0.942485 0.375661
vt 0.942485 0.624491
vt 0.918325 0.625717
vt 0.868865 0.988205
vt 0.869433 0.962749
vt 0.892990 0.960403
vt 0.892990 0.990000
vt 0.414257 0.075333
vt 0.657748 0.075334
vt 0.665313 0.104709
vt 0.410577 0.104709
vt 0.142671 0.069394
vt 0.386162 0.069492
vt 0.384956 0.093673
vt 0.136135 0.093673
vt 0.932586 0.103897
vt 0.673900 0.103897
vt 0.680867 0.077313
vt 0.929683 0.078599
vt 0.400305 0.101071
vt 0.402000 0.124644
vt 0.147264 0.124546
vt 0.141619 0.101071
vt 0.196280 0.289151
vt 0.198081 0.313295
vt 0.168476 0.313295
vt 0.170821 0.289778
vt 0.832916 0.959673
vt 0.833596 0.990000
vt 0.808810 0.985777
vt 0.808810 0.958295
vt 0.756562 0.738566
vt 0.756562 0.399574
vt 0.776121 0.400670
vt 0.776182 0.737445
vt 0.950404 0.916747
vt 0.949961 0.946299
vt 0.611828 0.946303
vt 0.611412 0.916747
vt 0.152545 0.203691
vt 0.132893 0.203691
vt 0.132904 0.174324
vt 0.149229 0.174323
vt 0.714808 0.401790
vt 0.714808 0.738566
vt 0.685441 0.738357
vt 0.685441 0.401999
vt 0.861313 0.989977
vt 0.841723 0.990000
vt 0.845038 0.960629
vt 0.861313 0.960609
vt 0.348958 0.853394
vt 0.687091 0.853394
vt 0.686205 0.869693
vt 0.349844 0.869645
vt 0.901775 0.990000
vt 0.901775 0.960635
vt 0.926647 0.960623
vt 0.919437 0.989994
vt 0.926647 0.316539
vt 0.620142 0.316539
vt 0.620295 0.287172
vt 0.926500 0.287172
vt 0.625099 0.328783
vt 0.929650 0.328747
vt 0.930606 0.346417
vt 0.624102 0.346417
vt 0.851414 0.545209
vt 0.851414 0.851414
vt 0.826537 0.850018
vt 0.826580 0.546570
vt 0.625717 0.738566
vt 0.625717 0.720871
vt 0.655088 0.713649
vt 0.655082 0.738566
vt 0.776182 0.144626
vt 0.775666 0.174864
vt 0.472217 0.174864
vt 0.471636 0.144626
vt 0.722824 0.738566
vt 0.722824 0.402831
vt 0.748465 0.405377
vt 0.748449 0.735997
vt 0.180080 0.245603
vt 0.515814 0.245596
vt 0.516828 0.257980
vt 0.179077 0.257980
vt 0.877152 0.851414
vt 0.860422 0.831832
vt 0.859532 0.582192
vt 0.877152 0.563812
vt 0.954364 0.057515
vt 0.952874 0.069851
vt 0.665272 0.068619
vt 0.660451 0.057515
vt 0.463374 0.178283
vt 0.463133 0.203752
vt 0.161514 0.203744
vt 0.161309 0.178283
vt 0.473220 0.194280
vt 0.471871 0.182242
vt 0.776182 0.182242
vt 0.774839 0.194274
vt 0.443576 0.150365
vt 0.155897 0.150365
vt 0.174289 0.132747
vt 0.423976 0.133639
vt 0.162392 0.159715
vt 0.450070 0.158485
vt 0.451495 0.170820
vt 0.157553 0.170820
vt 0.174335 0.439616
vt 0.504950 0.439616
vt 0.490634 0.688893
vt 0.188569 0.688856
vt 0.010000 0.990000
vt 0.026720 0.696561
vt 0.331031 0.696535
vt 0.347752 0.990000
# 366 texture coordinates

vn 0.414012 0.114420 -0.903051
vn 0.414012 0.114420 -0.903051
vn 0.414012 0.114420 -0.903051
vn 0.418662 0.114406 -0.900907
vn 0.827595 -0.122820 0.547724
vn 0.846870 -0.196646 0.494108
vn 0.846870 -0.196646 0.494108
vn 0.827595 -0.122820 0.547724
vn 0.859863 -0.018629 0.510185
vn 0.859863 -0.018629 0.510185
vn -0.920278 -0.271246 -0.281981
vn -0.920278 -0.271246 -0.281981
vn -0.961351 -0.124364 -0.245639
vn -0.961351 -0.124364 -0.245639
vn -0.924055 -0.239308 -0.298083
vn -0.899934 -0.344772 -0.266928
vn 0.944416 0.059113 -0.323396
vn 0.944416 0.059113 -0.323396
vn 0.944416 0.059113 -0.323396
vn 0.944416 0.059113 -0.323396
vn 0.093818 0.974332 -0.204635
vn 0.093818 0.974332 -0.204635
vn 0.121743 0.956204 -0.266183
vn 0.121743 0.956204 -0.266183
vn 0.157546 0.952839 -0.259380
vn 0.157546 0.952839 -0.259380
vn 0.946335 -0.040858 0.320594
vn 0.917261 -0.109385 0.382972
vn 0.925463 -0.070910 0.372144
vn 0.943620 -0.025156 0.330074
vn 0.250464 0.949045 -0.191262
vn 0.216711 0.952584 -0.213588
vn 0.216711 0.952584 -0.213588
vn 0.076190 -0.977414 0.197123
vn 0.076190 -0.977414 0.197123
vn 0.076190 -0.977414 0.197123
vn 0.076190 -0.977414 0.197123
vn -0.261702 -0.664427 0.700035
vn -0.261702 -0.664427 0.700035
vn -0.261702 -0.664427 0.700035
vn -0.261702 -0.664427 0.700035
vn -0.410512 -0.126876 0.902986
vn -0.420170 -0.126820 0.898540
vn -0.410512 -0.126876 0.902986
vn -0.410512 -0.126876 0.902986
vn 0.362201 -0.257076 -0.895948
vn 0.362201 -0.257076 -0.895948
vn 0.362201 -0.257076 -0.895948
vn 0.362201 -0.257076 -0.895948
vn 0.000000 -1.000000 0.000000
vn 0.000000 -1.000000 0.000000
vn 0.000000 -1.000000 0.000000
vn 0.000000 -1.000000 0.000000
vn -0.936942 -0.019426 -0.348945
vn -0.936942 -0.019426 -0.348945
vn -0.936630 -0.192148 -0.292922
vn 0.959401 -0.028897 0.280563
vn 0.959401 -0.028897 0.280563
vn 0.497857 0.285227 -0.819014
vn 0.497857 0.285227 -0.819014
vn 0.404641 0.286937 -0.868293
vn 0.404641 0.286937 -0.868293
vn -0.057350 -0.994075 0.092340
vn -0.043222 -0.994757 0.092683
vn -0.043222 -0.994757 0.092683
vn -0.057350 -0.994075 0.092340
vn -0.421577 -0.064283 0.904511
vn -0.527127 -0.063800 0.847388
vn -0.527127 -0.063800 0.847388
vn -0.421577 -0.064283 0.904511
vn -0.971805 -0.036954 -0.232872
vn 0.000000 -1.000000 0.000000
vn 0.074644 0.984288 -0.160015
vn 0.074644 0.984288 -0.160015
vn -0.074479 -0.992174 0.100219
vn -0.074479 -0.992174 0.100219
vn -0.949142 0.087665 0.302398
vn -0.949142 0.087665 0.302398
vn -0.949142 0.087665 0.302398
vn -0.949142 0.087665 0.302398
vn -0.075195 -0.991130 0.109573
vn -0.075195 -0.991130 0.109573
vn -0.598141 0.197140 0.776765
vn -0.598141 0.197140 0.776765
vn -0.598141 0.197140 0.776765
vn -0.598141 0.197140 0.776765
vn -0.883153 0.360674 -0.299926
vn -0.942488 0.256449 -0.214360
vn -0.942488 0.256449 -0.214360
vn -0.883153 0.360674 -0.299926
vn -0.651918 0.654073 -0.383655
vn -0.651918 0.654073 -0.383655
vn -0.458667 0.810419 -0.364480
vn -0.458667 0.810419 -0.364480
vn 0.937223 0.006242 0.348676
vn 0.937223 0.006242 0.348676
vn 0.225949 0.767890 -0.599410
vn 0.225949 0.767890 -0.599410
vn 0.225949 0.767890 -0.599410
vn 0.225949 0.767890 -0.599410
vn 0.423300 0.114388 -0.898740
vn 0.423300 0.114388 -0.898740
vn 0.423300 0.114388 -0.898740
vn -0.951796 -0.122989 -0.280995
vn -0.951796 -0.122989 -0.280995
vn -0.922890 -0.197001 -0.330854
vn -0.922890 -0.197001 -0.330854
vn -0.943994 -0.018870 -0.329423
vn -0.943994 -0.018870 -0.329423
vn 0.806791 -0.272919 0.524026
vn 0.805712 -0.125006 0.578967
vn 0.805712 -0.125006 0.578967
vn 0.806791 -0.272919 0.524026
vn 0.821834 -0.241034 0.516228
vn 0.781970 -0.347267 0.517619
vn -0.359591 0.059286 -0.931225
vn -0.359591 0.059286 -0.931225
vn -0.359591 0.059286 -0.931225
vn -0.359591 0.059286 -0.931225
vn 0.096398 0.974396 -0.203124
vn 0.125555 0.956190 -0.264454
vn 0.125555 0.956190 -0.264454
vn 0.096398 0.974396 -0.203124
vn 0.096301 0.952753 -0.288078
vn 0.096301 0.952753 -0.288078
vn -0.853796 -0.040598 -0.519023
vn -0.859358 -0.024985 -0.510764
vn -0.879926 -0.071164 -0.469751
vn -0.882898 -0.109764 -0.456555
vn -0.018084 0.948434 -0.316457
vn 0.021462 0.952254 -0.304552
vn 0.021462 0.952254 -0.304552
vn -0.199978 -0.977412 0.068375
vn -0.199978 -0.977412 0.068375
vn -0.199978 -0.977412 0.068375
vn -0.199978 -0.977412 0.068375
vn -0.367831 -0.665100 0.649879
vn -0.367831 -0.665100 0.649879
vn -0.367831 -0.665100 0.649879
vn -0.367831 -0.665100 0.649879
vn -0.429782 -0.126750 0.893992
vn -0.429782 -0.126750 0.893992
vn -0.429782 -0.126750 0.893992
vn 0.452611 -0.257224 -0.853803
vn 0.452611 -0.257224 -0.853803
vn 0.452611 -0.257224 -0.853803
vn 0.452611 -0.257224 -0.853803
vn 0.000000 -1.000000 0.000000
vn 0.000000 -1.000000 0.000000
vn 0.869583 -0.019403 0.493406
vn 0.826108 -0.193673 0.529184
vn 0.869583 -0.019403 0.493406
vn -0.831564 -0.028224 -0.554712
vn -0.831564 -0.028224 -0.554712
vn 0.306924 0.285457 -0.907916
vn 0.306924 0.285457 -0.907916
vn -0.033923 -0.994088 0.103144
vn -0.033923 -0.994088 0.103144
vn -0.309954 -0.063840 0.948606
vn -0.309954 -0.063840 0.948606
vn 0.802946 -0.036972 0.594904
vn 0.802946 -0.036972 0.594904
vn -0.029055 -0.992191 0.121298
vn -0.029055 -0.992191 0.121298
vn 0.378401 0.087988 0.921450
vn 0.378401 0.087988 0.921450
vn 0.378401 0.087988 0.921450
vn 0.378401 0.087988 0.921450
vn -0.035786 -0.991142 0.127891
vn -0.035786 -0.991142 0.127891
vn -0.211032 0.197151 0.957391
vn -0.211032 0.197151 0.957391
vn -0.211032 0.197151 0.957391
vn -0.211032 0.197151 0.957391
vn 0.797450 0.360332 0.483977
vn 0.797450 0.360332 0.483977
vn 0.769810 0.256209 0.584594
vn 0.769810 0.256209 0.584594
vn 0.713087 0.653889 0.252856
vn 0.713087 0.653889 0.252856
vn 0.574006 0.810432 0.117123
vn 0.574006 0.810432 0.117123
vn -0.869588 0.006238 -0.493738
vn -0.869588 0.006238 -0.493738
vn 0.312710 0.767696 -0.559335
vn 0.312710 0.767696 -0.559335
vn 0.312710 0.767696 -0.559335
vn 0.312710 0.767696 -0.559335
vn -0.928708 -0.024575 -0.369997
vn 0.056400 -0.998267 0.016795
vn 0.056400 -0.998267 0.016795
vn 0.056400 -0.998267 0.016795
vn 0.056400 -0.998267 0.016795
vn 0.928980 -0.000093 0.370131
vn -0.561092 0.238236 0.792729
vn 0.077211 0.996447 0.033643
vn 0.077211 0.996447 0.033643
vn 0.077211 0.996447 0.033643
vn 0.077211 0.996447 0.033643
vn 0.419637 0.123457 -0.899257
vn 0.880464 -0.023213 0.473545
vn -0.075440 0.996443 -0.037540
vn -0.075440 0.996443 -0.037540
vn -0.075440 0.996443 -0.037540
vn -0.075440 0.996443 -0.037540
vn -0.880654 -0.000319 -0.473760
vn -0.049072 -0.998270 -0.032383
vn -0.049072 -0.998270 -0.032383
vn -0.049072 -0.998270 -0.032383
vn -0.049072 -0.998270 -0.032383
vn 0.419099 0.124817 -0.899320
vn -0.246757 0.237544 0.939513
vn 0.000000 -1.000000 0.000000
vn 0.000000 -1.000000 0.000000
vn 0.420000 0.112153 -0.900568
vn -0.928447 0.007946 -0.371379
vn -0.928447 0.007946 -0.371379
vn -0.928447 0.007946 -0.371379
vn -0.928447 0.007946 -0.371379
vn -0.422520 -0.000000 0.906354
vn 0.881510 0.007451 0.472106
vn 0.881510 0.007451 0.472106
vn 0.881510 0.007451 0.472106
vn 0.881510 0.007451 0.472106
vn 0.000000 1.000000 0.000000
vn -0.928361 -0.004427 -0.371655
vn -0.928361 -0.004427 -0.371655
vn -0.928361 -0.004427 -0.371655
vn -0.928361 -0.004427 -0.371655
vn 0.422519 -0.000000 -0.906354
vn 0.000000 1.000000 0.000000
vn 0.000000 -1.000000 0.000000
vn 0.881651 -0.005649 0.471869
vn 0.881651 -0.005649 0.471869
vn 0.881651 -0.005649 0.471869
vn 0.881651 -0.005649 0.471869
vn -0.410464 0.238257 0.880200
vn 0.273809 0.761908 -0.586963
vn 0.420017 0.112314 -0.900539
vn 0.876707 0.088114 0.472885
vn 0.878109 0.066893 0.473762
vn 0.878109 0.066893 0.473762
vn 0.876707 0.088114 0.472885
vn 0.874909 0.109296 0.471794
vn 0.874909 0.109296 0.471794
vn -0.293065 0.720462 0.628528
vn -0.345598 0.575431 0.741243
vn -0.385517 0.409397 0.826905
vn -0.925898 0.086977 -0.367624
vn -0.925898 0.086977 -0.367624
vn -0.927500 0.065004 -0.368128
vn -0.927500 0.065004 -0.368128
vn -0.923847 0.108908 -0.366941
vn -0.923847 0.108908 -0.366941
vn 0.000112 1.000000 -0.000240
vn -0.000476 -0.999999 0.001021
# 256 normals

usemtl default
s 1
f 4/1/4 3/2/3 2/3/2 1/4/1
s 2
f 1/5/8 7/6/7 6/7/6 5/8/5
f 5/9/5 8/10/10 4/11/9 1/12/8
f 24/31/30 23/32/29 22/33/28 21/34/27
f 21/34/27 17/60/58 14/61/57 24/31/30
f 22/33/28 23/32/29 6/108/6 7/109/7
f 28/110/96 23/111/29 24/112/30 30/113/95
s 3
f 2/13/14 11/14/13 10/15/12 9/16/11
f 13/17/16 9/18/11 10/19/12 12/20/15
f 11/74/13 2/75/14 3/76/71 26/77/71
f 31/114/56 13/17/16 12/20/15
s 4
f 17/21/20 16/22/19 15/23/18 14/24/17
s 5
f 17/25/24 19/26/23 18/27/22 16/28/21
f 21/29/26 20/30/25 19/26/23 17/25/24
f 25/35/33 22/36/32 7/37/31
f 33/82/74 16/28/21 18/27/22 36/83/73
f 25/35/33 20/30/25 21/29/26 22/36/32
f 56/143/123 55/144/122 52/145/121 53/146/120
f 55/144/122 58/147/125 57/148/124 52/145/121
f 61/153/132 62/154/131 43/155/130
f 56/143/123 53/146/120 33/82/74 36/83/73
f 57/148/124 58/147/125 62/154/131 61/153/132
s 6
f 23/38/37 12/39/36 10/40/35 6/41/34
s 7
f 11/42/41 5/43/40 6/44/39 10/45/38
s 8
f 11/42/45 26/46/44 8/47/43 5/43/42
s 9
f 23/48/49 28/49/48 27/50/47 12/51/46
s 10
f 27/52/53 28/53/52 30/54/51 29/55/50
s 11
f 31/56/56 12/57/15 27/58/55 29/59/54
s 12
f 33/62/62 32/63/61 15/64/60 16/65/59
f 54/180/156 32/63/61 33/62/62 53/181/155
s 13
f 15/66/66 32/67/65 35/68/64 34/69/63
f 15/84/66 34/85/63 37/86/76 14/87/75
f 24/92/82 14/87/75 37/86/76 31/93/81
f 35/68/64 32/67/65 54/182/158 69/183/157
f 70/194/164 69/195/157 54/196/158 51/197/163
f 70/194/164 51/197/163 59/202/170 68/203/169
s 14
f 36/70/70 18/71/69 34/72/68 35/73/67
f 69/184/160 56/185/159 36/70/70 35/73/67
s 15
f 3/78/72 4/79/72 8/80/72 26/81/72
f 45/190/72 39/191/72 40/192/72 63/193/72
s 16
f 37/88/80 34/89/79 18/90/78 19/91/77
s 17
f 29/94/86 30/95/85 24/96/84 31/97/83
s 18
f 31/98/90 37/88/89 19/91/88 20/99/87
f 31/100/90 20/101/87 25/102/92 13/103/91
f 13/104/91 25/105/92 7/106/94 9/107/93
s 19
f 1/115/100 2/116/99 9/117/98 7/118/97
s 20
f 41/119/103 40/120/102 39/121/4 38/122/101
s 21
f 44/123/107 43/124/106 38/125/105 42/126/104
f 39/127/109 45/128/108 42/129/104 38/130/105
f 61/149/129 60/150/128 59/151/127 57/152/126
f 51/178/154 52/179/153 57/152/126 59/151/127
f 44/218/107 60/150/128 61/149/129 43/219/106
f 59/220/127 60/221/128 64/222/184 67/223/183
s 22
f 48/131/113 47/132/112 41/133/111 46/134/110
f 48/135/113 46/136/110 50/137/115 49/138/114
f 65/174/152 49/175/114 68/176/151 66/177/150
f 40/186/162 41/187/111 47/188/112 63/189/161
f 50/224/115 68/225/151 49/226/114
s 23
f 54/139/119 53/140/118 52/141/117 51/142/116
s 24
f 48/156/136 49/157/135 60/158/134 44/159/133
s 25
f 44/159/140 42/160/139 47/161/138 48/156/137
s 26
f 45/162/43 63/163/143 47/164/142 42/165/141
s 27
f 65/166/147 64/167/146 60/168/145 49/169/144
s 28
f 67/170/148 64/171/149 65/172/53 66/173/148
s 29
f 56/198/168 69/199/167 70/200/166 55/201/165
s 30
f 59/204/174 67/205/173 66/206/172 68/207/171
s 31
f 55/201/178 70/200/177 68/208/176 58/209/175
f 62/210/180 58/211/175 68/212/176 50/213/179
f 43/214/182 62/215/180 50/216/179 46/217/181
s 32
f 46/227/188 41/228/187 38/229/186 43/230/185

g base2

# 0 positions

# 0 texture coordinates

# 0 normals

usemtl default
s 33
f 71/231/189 72/232/189 73/233/189 74/234/189
s 34
f 71/235/190 74/236/191 75/237/192 76/238/193
s 35
f 75/239/194 77/240/194 78/241/194 76/242/194
s 36
f 71/243/195 76/244/195 78/245/195 72/246/195
s 37
f 72/247/196 78/248/197 77/249/198 73/250/199
s 38
f 77/251/200 75/252/200 74/253/200 73/254/200

g base3

# 0 positions

# 0 texture coordinates

# 0 normals

usemtl default
s 39
f 79/255/201 80/256/201 81/257/201 82/258/201
s 40
f 80/259/202 79/260/203 83/261/204 84/262/205
s 41
f 85/263/206 86/264/206 84/265/206 83/266/206
s 42
f 85/267/207 82/268/208 81/269/209 86/270/210
s 43
f 83/271/211 79/272/211 82/273/211 85/274/211
s 44
f 81/275/212 80/276/212 84/277/212 86/278/212

g base4

# 0 positions

# 0 texture coordinates

# 0 normals

usemtl default
s 45
f 87/279/213 88/280/214 89/281/214 90/282/213
s 46
f 87/283/215 91/284/215 92/285/215 88/286/215
s 47
f 87/287/216 90/288/217 93/289/218 91/290/219
s 48
f 90/291/220 89/292/220 94/293/220 93/294/220
s 49
f 89/295/221 88/296/222 92/297/223 94/298/224
s 50
f 92/299/225 91/300/225 93/301/225 94/302/225

g base1

# 0 positions

# 0 texture coordinates

# 0 normals

usemtl default
s 51
f 95/303/226 96/304/227 97/305/228 98/306/229
s 52
f 95/307/230 99/308/230 100/309/230 96/310/230
s 53
f 98/311/231 101/312/231 99/313/231 95/314/231
s 54
f 96/315/232 100/316/232 102/317/232 97/318/232
s 55
f 99/319/233 101/320/234 102/321/235 100/322/236
s 56
f 98/323/237 97/324/237 102/325/237 101/326/237

g sillon

# 0 positions

# 0 texture coordinates

# 0 normals

usemtl default
s 57
f 103/327/238 104/328/238 105/329/238 106/330/238
s 58
f 104/331/239 103/332/239 107/333/239 108/334/239
s 59
f 103/335/240 106/336/241 109/337/242 110/338/243
f 107/339/244 103/340/240 110/341/243 111/342/245
s 60
f 112/343/246 113/344/247 110/345/247 109/346/246
f 113/347/247 114/348/248 111/349/248 110/350/247
s 61
f 104/351/249 113/352/250 112/353/251 105/354/252
f 113/355/250 104/356/249 108/357/253 114/358/254
s 62
f 106/359/255 105/360/255 112/361/255 109/362/255
s 63
f 107/363/256 111/364/256 114/365/256 108/366/256

# 104 faces
