# Wavefront Obj file
# 
# verts: 89 uv-s: 178
mtllib FlechaRuta.mtl

g base

v 0.016700 0.000000 0.001100
v 0.012000 0.000000 -0.011800
v 0.014800 2.014500 -0.012300
v 0.019400 2.014500 0.002500
v 0.000200 0.000000 -0.018600
v 0.001800 2.014500 -0.020800
v -0.013300 0.000000 -0.016200
v -0.013700 2.014500 -0.018900
v -0.022100 0.000000 -0.005800
v -0.024200 2.014500 -0.007500
v -0.022100 0.000000 0.007900
v -0.025100 2.014500 0.008000
v -0.013300 0.000000 0.018400
v -0.015700 2.014500 0.020400
v 0.000200 0.000000 0.020800
v -0.000600 2.014500 0.023900
v 0.012000 0.000000 0.013900
v 0.013300 2.014500 0.016800
v -0.008200 2.068600 -0.008300
v -0.012400 2.061700 -0.016500
v -0.021700 2.061700 -0.006500
v -0.013200 2.068600 -0.002900
v -0.022400 2.061700 0.007200
v -0.013600 2.068600 0.004500
v -0.014200 2.061700 0.018100
v -0.009200 2.068600 0.010400
v -0.000900 2.061700 0.021200
v -0.002000 2.068600 0.012000
v 0.011300 2.061700 0.015000
v 0.004500 2.068600 0.008700
v 0.016600 2.061700 0.002400
v 0.007400 2.068600 0.001900
v 0.012600 2.061700 -0.010700
v 0.005300 2.068600 -0.005200
v 0.001200 2.061700 -0.018100
v -0.000900 2.068600 -0.009200
v -0.018600 2.045700 -0.028600
v -0.034300 2.045700 -0.011800
v -0.035500 2.045700 0.011200
v -0.021600 2.045700 0.029600
v 0.000800 2.045700 0.034700
v 0.021300 2.045700 0.024300
v 0.030300 2.045700 0.003100
v 0.023500 2.045700 -0.018900
v 0.004200 2.045700 -0.031500
v -0.023700 1.789700 -0.024800
v -0.023700 1.974400 -0.024800
v 0.033000 1.974400 -0.024800
v 0.033000 1.789700 -0.024800
v -0.023700 1.789700 0.025200
v 0.033000 1.789700 0.025200
v 0.033000 1.974400 0.025200
v -0.023700 1.974400 0.025200
v -0.031300 1.782000 -0.024800
v 0.026900 1.782000 -0.024800
v 0.026900 1.782000 0.025200
v -0.031300 1.782000 0.025200
v 0.468700 1.874600 -0.024800
v 0.468700 1.889400 -0.024800
v 0.468700 1.889400 0.025200
v 0.468700 1.874600 0.025200
v 0.351200 1.982000 -0.024800
v 0.351200 1.982000 0.025200
v -0.031300 1.982000 -0.024800
v -0.031300 1.982000 0.025200
v 0.348500 1.974400 -0.016500
v 0.461000 1.885700 -0.016500
v 0.461000 1.878300 -0.016500
v 0.348500 1.789700 -0.016500
v 0.348500 1.789700 0.016800
v 0.461000 1.878300 0.016800
v 0.461000 1.885700 0.016800
v 0.348500 1.974400 0.016800
v 0.351200 1.782000 -0.024800
v 0.351200 1.782000 0.025200
v 0.026900 1.982000 -0.024800
v 0.026900 1.982000 0.025200
v 0.461000 1.885700 -0.024800
v 0.348500 1.974400 -0.024800
v 0.461000 1.878300 -0.024800
v 0.348500 1.789700 -0.024800
v 0.461000 1.878300 0.025200
v 0.348500 1.789700 0.025200
v 0.461000 1.885700 0.025200
v 0.348500 1.974400 0.025200
v 0.033000 1.974400 -0.016500
v 0.033000 1.789700 -0.016500
v 0.033000 1.789700 0.016800
v 0.033000 1.974400 0.016800
# 89 positions

vt 0.010000 0.978972
vt 0.010000 0.972840
vt 0.967564 0.972603
vt 0.967564 0.979638
vt 0.010000 0.951392
vt 0.010000 0.945783
vt 0.967564 0.946544
vt 0.967564 0.952723
vt 0.010000 0.939366
vt 0.967564 0.939176
vt 0.990000 0.904960
vt 0.990000 0.909903
vt 0.032436 0.909095
vt 0.032436 0.903677
vt 0.990000 0.916416
vt 0.032436 0.916463
vt 0.990000 0.921407
vt 0.032436 0.922357
vt 0.990000 0.871117
vt 0.990000 0.877534
vt 0.032436 0.877154
vt 0.032436 0.869976
vt 0.990000 0.883143
vt 0.032436 0.883761
vt 0.010000 0.985057
vt 0.967564 0.986435
vt 0.191812 0.797902
vt 0.187915 0.795906
vt 0.192668 0.791485
vt 0.194379 0.795525
vt 0.199180 0.791152
vt 0.197897 0.795335
vt 0.204361 0.795050
vt 0.200701 0.797427
vt 0.205835 0.801372
vt 0.201462 0.800849
vt 0.202888 0.807171
vt 0.199893 0.803939
vt 0.196898 0.809690
vt 0.196661 0.805317
vt 0.190672 0.807789
vt 0.193286 0.804319
vt 0.187154 0.802370
vt 0.191385 0.801372
vt 0.017605 0.899066
vt 0.017605 0.907051
vt 0.017605 0.917984
vt 0.017605 0.926730
vt 0.017605 0.867171
vt 0.017605 0.877819
vt 0.017605 0.887563
vt 0.982395 0.990000
vt 0.982395 0.979923
vt 0.982395 0.969465
vt 0.982395 0.956859
vt 0.982395 0.947685
vt 0.982395 0.936847
vt 0.010000 0.904817
vt 0.010000 0.909571
vt 0.010000 0.916083
vt 0.010000 0.921264
vt 0.010000 0.870689
vt 0.010000 0.877011
vt 0.010000 0.882810
vt 0.990000 0.985579
vt 0.990000 0.979590
vt 0.990000 0.973363
vt 0.990000 0.951678
vt 0.990000 0.946259
vt 0.990000 0.939794
vt 0.259120 0.766028
vt 0.259120 0.853822
vt 0.232168 0.853822
vt 0.232168 0.766028
vt 0.361903 0.743969
vt 0.334951 0.743969
vt 0.334951 0.656174
vt 0.361903 0.656174
vt 0.127848 0.616408
vt 0.155512 0.616408
vt 0.155512 0.640174
vt 0.127848 0.640174
vt 0.217886 0.835336
vt 0.217886 0.842371
vt 0.194119 0.842371
vt 0.194119 0.835336
vt 0.401670 0.520343
vt 0.401670 0.576195
vt 0.377903 0.576195
vt 0.377903 0.520343
vt 0.181732 0.842035
vt 0.086665 0.842035
vt 0.086665 0.818268
vt 0.181732 0.818268
vt 0.010000 0.597575
vt 0.052162 0.544099
vt 0.055680 0.544099
vt 0.097795 0.597575
vt 0.426528 0.769640
vt 0.480003 0.811755
vt 0.480003 0.815273
vt 0.426528 0.857435
vt 0.309664 0.616408
vt 0.365515 0.616408
vt 0.365515 0.640174
vt 0.309664 0.640174
vt 0.401670 0.730347
vt 0.377903 0.730347
vt 0.262732 0.762368
vt 0.262732 0.857435
vt 0.235068 0.857435
vt 0.080916 0.857435
vt 0.025064 0.813419
vt 0.028724 0.811660
vt 0.082200 0.853822
vt 0.025064 0.806384
vt 0.028724 0.808143
vt 0.080916 0.762368
vt 0.082200 0.766028
vt 0.235068 0.762368
vt 0.365515 0.747629
vt 0.337851 0.747629
vt 0.183699 0.747629
vt 0.127848 0.703613
vt 0.131508 0.701854
vt 0.184983 0.743969
vt 0.127848 0.696578
vt 0.131508 0.698336
vt 0.183699 0.652562
vt 0.184983 0.656174
vt 0.337851 0.652562
vt 0.365515 0.652562
vt 0.010000 0.747543
vt 0.097795 0.747543
vt 0.276560 0.769640
vt 0.276560 0.857435
vt 0.401670 0.758011
vt 0.377903 0.758011
vt 0.109424 0.597575
vt 0.109424 0.544099
vt 0.113369 0.544099
vt 0.113369 0.597575
vt 0.039196 0.857940
vt 0.039196 0.854422
vt 0.043141 0.854422
vt 0.043141 0.857940
vt 0.327932 0.605289
vt 0.274456 0.605289
vt 0.274456 0.601343
vt 0.327932 0.601343
vt 0.124488 0.605289
vt 0.124488 0.601343
vt 0.010000 0.854844
vt 0.010000 0.767050
vt 0.013945 0.767050
vt 0.013945 0.854844
vt 0.109424 0.747543
vt 0.113369 0.747543
vt 0.274457 0.586279
vt 0.327932 0.586279
vt 0.327932 0.590272
vt 0.274457 0.590272
vt 0.028077 0.839358
vt 0.028077 0.842875
vt 0.024084 0.842875
vt 0.024084 0.839358
vt 0.412741 0.756582
vt 0.412741 0.703106
vt 0.416734 0.703106
vt 0.416734 0.756582
vt 0.412741 0.553138
vt 0.416734 0.553138
vt 0.148591 0.807197
vt 0.060796 0.807197
vt 0.060796 0.803204
vt 0.148591 0.803204
vt 0.124488 0.586279
vt 0.124488 0.590272
# 178 texture coordinates

vn 0.999621 -0.001353 0.027504
vn 0.783126 -0.001258 -0.621862
vn 0.778900 -0.174340 -0.602428
vn 0.983839 -0.174831 0.038667
vn 0.201274 -0.001226 -0.979534
vn 0.210374 -0.174911 -0.961847
vn -0.476602 -0.001249 -0.879119
vn -0.459147 -0.174655 -0.871022
vn -0.929538 -0.001311 -0.368723
vn -0.910831 -0.174376 -0.374140
vn -0.949089 -0.001412 0.315007
vn -0.938229 -0.174645 0.298707
vn -0.523738 -0.001475 0.851878
vn -0.525674 -0.174319 0.832634
vn 0.147288 -0.001474 0.989093
vn 0.132214 -0.174778 0.975691
vn 0.748190 -0.001427 0.663483
vn 0.728087 -0.174887 0.662800
vn -0.271658 0.800143 -0.534765
vn -0.316418 0.716980 -0.621144
vn -0.641244 0.717499 -0.272034
vn -0.551914 0.800563 -0.233430
vn -0.665995 0.717578 0.203795
vn -0.573945 0.800063 0.174605
vn -0.379391 0.717490 0.584183
vn -0.326646 0.800567 0.502389
vn 0.084452 0.717346 0.691579
vn 0.073422 0.801198 0.593879
vn 0.508968 0.718096 0.474648
vn 0.436829 0.801817 0.407762
vn 0.695425 0.717698 0.035971
vn 0.598995 0.800124 0.031734
vn 0.556899 0.716809 -0.419581
vn 0.480658 0.799052 -0.361225
vn 0.157929 0.716785 -0.679174
vn 0.135526 0.798478 -0.586572
vn -0.448777 0.166903 -0.877919
vn -0.907632 0.166931 -0.385147
vn -0.942758 0.167381 0.288430
vn -0.535610 0.167104 0.827767
vn 0.120734 0.166622 0.978601
vn 0.720799 0.166666 0.672809
vn 0.984643 0.167181 0.050297
vn 0.787136 0.167275 -0.593663
vn 0.221371 0.166700 -0.960836
vn 0.000000 0.000000 -1.000000
vn 0.000000 0.000000 -1.000000
vn 0.000000 0.000000 1.000000
vn 0.000000 -1.000000 0.000000
vn 1.000000 0.000000 0.000000
vn 0.618972 0.785413 0.000000
vn 0.327557 0.944831 0.000000
vn -1.000000 0.000000 0.000000
vn 0.000000 0.000000 1.000000
vn 0.327557 -0.944831 0.000000
vn 0.618973 -0.785413 0.000000
vn 0.000000 1.000000 0.000000
vn -0.619147 -0.785276 0.000000
vn -0.618715 0.785615 0.000000
# 59 normals

usemtl default
f 1/1/1 2/2/2 3/3/3 4/4/4
f 2/5/2 5/6/5 6/7/6 3/8/3
f 5/6/5 7/9/7 8/10/8 6/7/6
f 7/11/7 9/12/9 10/13/10 8/14/8
f 9/12/9 11/15/11 12/16/12 10/13/10
f 11/15/11 13/17/13 14/18/14 12/16/12
f 13/19/13 15/20/15 16/21/16 14/22/14
f 15/20/15 17/23/17 18/24/18 16/21/16
f 17/25/17 1/1/1 4/4/4 18/26/18
f 19/27/19 20/28/20 21/29/21 22/30/22
f 22/30/22 21/29/21 23/31/23 24/32/24
f 24/32/24 23/31/23 25/33/25 26/34/26
f 26/34/26 25/33/25 27/35/27 28/36/28
f 28/36/28 27/35/27 29/37/29 30/38/30
f 30/38/30 29/37/29 31/39/31 32/40/32
f 32/40/32 31/39/31 33/41/33 34/42/34
f 34/42/34 33/41/33 35/43/35 36/44/36
f 36/44/36 35/43/35 20/28/20 19/27/19
f 37/45/37 8/14/8 10/13/10 38/46/38
f 38/46/38 10/13/10 12/16/12 39/47/39
f 39/47/39 12/16/12 14/18/14 40/48/40
f 40/49/40 14/22/14 16/21/16 41/50/41
f 41/50/41 16/21/16 18/24/18 42/51/42
f 42/52/42 18/26/18 4/4/4 43/53/43
f 43/53/43 4/4/4 3/3/3 44/54/44
f 44/55/44 3/8/3 6/7/6 45/56/45
f 45/56/45 6/7/6 8/10/8 37/57/37
f 20/58/20 37/45/37 38/46/38 21/59/21
f 21/59/21 38/46/38 39/47/39 23/60/23
f 23/60/23 39/47/39 40/48/40 25/61/25
f 25/62/25 40/49/40 41/50/41 27/63/27
f 27/63/27 41/50/41 42/51/42 29/64/29
f 29/65/29 42/52/42 43/53/43 31/66/31
f 31/66/31 43/53/43 44/54/44 33/67/33
f 33/68/33 44/55/44 45/56/45 35/69/35
f 35/69/35 45/56/45 37/57/37 20/70/20

g senal

# 0 positions

# 0 texture coordinates

# 0 normals

usemtl default
f 46/71/46 47/72/47 48/73/47 49/74/46
f 50/75/48 51/76/48 52/77/48 53/78/48
f 54/79/49 55/80/49 56/81/49 57/82/49
f 58/83/50 59/84/50 60/85/50 61/86/50
f 59/87/51 62/88/52 63/89/52 60/90/51
f 64/91/53 54/92/53 57/93/53 65/94/53
f 66/95/46 67/96/47 68/97/47 69/98/47
f 70/99/48 71/100/54 72/101/54 73/102/54
f 74/103/55 58/104/56 61/105/56 75/106/55
f 62/88/52 76/107/57 77/108/57 63/89/52
f 54/109/46 64/110/46 47/72/47 46/71/46
f 64/110/46 76/111/47 48/73/47 47/72/47
f 62/112/46 59/113/46 78/114/46 79/115/46
f 59/113/46 58/116/46 80/117/46 78/114/46
f 58/116/46 74/118/47 81/119/47 80/117/46
f 74/118/47 55/120/46 49/74/46 81/119/47
f 57/121/48 56/122/48 51/76/48 50/75/48
f 75/123/48 61/124/48 82/125/48 83/126/48
f 61/124/48 60/127/48 84/128/48 82/125/48
f 60/127/48 63/129/54 85/130/54 84/128/48
f 63/129/54 77/131/48 52/77/48 85/130/54
f 65/132/48 57/121/48 50/75/48 53/78/48
f 86/133/47 66/95/46 69/98/47 87/134/47
f 88/135/48 70/99/48 73/102/54 89/136/48
f 55/80/49 74/103/55 75/106/55 56/81/49
f 76/107/57 64/137/57 65/138/57 77/108/57
f 76/111/47 62/112/46 79/115/46 48/73/47
f 55/120/46 54/109/46 46/71/46 49/74/46
f 56/122/48 75/123/48 83/126/48 51/76/48
f 77/131/48 65/132/48 53/78/48 52/77/48
f 79/139/58 78/140/58 67/141/58 66/142/58
f 78/143/53 80/144/53 68/145/53 67/146/53
f 80/147/59 81/148/59 69/149/59 68/150/59
f 81/148/57 49/151/57 87/152/57 69/149/57
f 49/153/50 48/154/50 86/155/50 87/156/50
f 48/157/49 79/139/49 66/142/49 86/158/49
f 83/159/59 82/160/59 71/161/59 70/162/59
f 82/163/53 84/164/53 72/165/53 71/166/53
f 84/167/58 85/168/58 73/169/58 72/170/58
f 85/168/49 52/171/49 89/172/49 73/169/49
f 52/173/50 51/174/50 88/175/50 89/176/50
f 51/177/57 83/159/57 70/162/57 88/178/57

# 78 faces
