# 3ds Max Wavefront OBJ Exporter v0.97b - (c)2007 guruware
# File Created: 19.05.2017 10:14:48

#
# object tanque_de_floculacion
#

v  2.2992 -1.9085 -1.2935
v  -2.2991 -1.9085 -1.2935
v  -2.2991 -1.9085 -6.6571
v  2.2992 -1.9085 -6.6571
v  2.2992 -1.9085 2.5663
v  -2.2991 -1.9085 2.5663
v  2.2992 -1.9085 6.6571
v  -2.2992 -1.9085 6.6571
v  -2.2991 1.9085 -6.7090
v  2.2992 1.9085 -6.7090
v  -2.2991 1.9085 -1.2935
v  -2.2991 1.9085 2.5663
v  -2.2992 1.9085 6.7090
v  2.2992 1.9085 6.7090
v  2.2992 1.9085 2.5663
v  2.2992 1.9085 -1.2935
v  2.0000 -1.6516 -1.2935
v  2.0000 -1.6516 -6.4262
v  -2.0000 -1.6516 -6.4262
v  -2.0000 -1.6516 -1.2935
v  2.0000 -1.6516 2.5663
v  -2.0000 -1.6516 2.5663
v  2.0000 -1.6516 6.4261
v  -2.0000 -1.6516 6.4261
v  2.0000 1.9085 -6.4262
v  -2.0000 1.9085 -6.4262
v  -2.0000 1.9085 -1.2935
v  -2.0000 1.9085 2.5663
v  -2.0000 1.9085 6.4261
v  2.0000 1.9085 6.4261
v  2.0000 1.9085 2.5663
v  2.0000 1.9085 -1.2935
v  -2.0179 -1.6516 2.7103
v  2.0000 -1.6516 2.7103
v  2.0000 1.6780 2.7103
v  -2.0179 1.6780 2.7103
v  -2.0179 -1.6516 2.4303
v  -2.0179 1.6780 2.4303
v  2.0000 1.6780 2.4303
v  2.0000 -1.6516 2.4303
v  -1.9978 -1.6516 -1.1191
v  2.1154 -1.6516 -1.1191
v  2.1154 1.6780 -1.1191
v  -1.9978 1.6780 -1.1191
v  -1.9978 -1.6516 -1.3991
v  -1.9978 1.6780 -1.3991
v  2.1154 1.6780 -1.3991
v  2.1154 -1.6516 -1.3991
v  -2.0151 -1.6516 -5.1547
v  2.0000 -1.6516 -5.1547
v  2.0000 1.6780 -5.1547
v  -2.0151 1.6780 -5.1547
v  -2.0151 -1.6516 -5.4347
v  -2.0151 1.6780 -5.4347
v  2.0000 1.6780 -5.4347
v  2.0000 -1.6516 -5.4347
# 56 vertices

vn 0.0000 -1.0000 -0.0000
vn 0.0000 -0.0136 -0.9999
vn -1.0000 0.0000 -0.0000
vn 0.0000 -0.0136 0.9999
vn 1.0000 0.0000 -0.0000
vn 0.0000 1.0000 -0.0000
vn 0.0000 0.0000 1.0000
vn 0.0000 0.0000 -1.0000
# 8 vertex normals

vt 0.1972 0.6663 0.0000
vt 0.0100 0.6663 0.0000
vt 0.0100 0.4480 0.0000
vt 0.1972 0.4480 0.0000
vt 0.1972 0.8235 0.0000
vt 0.0100 0.8235 0.0000
vt 0.1972 0.9900 0.0000
vt 0.0100 0.9900 0.0000
vt 0.0100 0.2840 0.0000
vt 0.1972 0.2840 0.0000
vt 0.1972 0.4394 0.0000
vt 0.0100 0.4394 0.0000
vt 0.5384 0.9879 0.0000
vt 0.5384 0.7695 0.0000
vt 0.6938 0.7695 0.0000
vt 0.6938 0.9900 0.0000
vt 0.5384 0.6124 0.0000
vt 0.6938 0.6124 0.0000
vt 0.5384 0.4459 0.0000
vt 0.6938 0.4438 0.0000
vt 0.7276 0.2409 0.0000
vt 0.5404 0.2409 0.0000
vt 0.5404 0.0855 0.0000
vt 0.7276 0.0855 0.0000
vt 0.3758 0.9879 0.0000
vt 0.3758 0.8214 0.0000
vt 0.5311 0.8214 0.0000
vt 0.5311 0.9900 0.0000
vt 0.3758 0.6642 0.0000
vt 0.5311 0.6642 0.0000
vt 0.3758 0.4459 0.0000
vt 0.5311 0.4438 0.0000
vt 0.3678 0.7811 0.0000
vt 0.3678 0.9900 0.0000
vt 0.2050 0.9900 0.0000
vt 0.2050 0.7811 0.0000
vt 0.3678 0.6239 0.0000
vt 0.2050 0.6239 0.0000
vt 0.3678 0.4668 0.0000
vt 0.2050 0.4668 0.0000
vt 0.4753 0.4133 0.0000
vt 0.4753 0.2684 0.0000
vt 0.6382 0.2684 0.0000
vt 0.6382 0.4133 0.0000
vt 0.5332 0.0955 0.0000
vt 0.5332 0.2404 0.0000
vt 0.3243 0.2404 0.0000
vt 0.3243 0.0955 0.0000
vt 0.1671 0.2404 0.0000
vt 0.1671 0.0955 0.0000
vt 0.0100 0.2404 0.0000
vt 0.0100 0.0955 0.0000
vt 0.3044 0.4133 0.0000
vt 0.3044 0.2684 0.0000
vt 0.4672 0.2684 0.0000
vt 0.4672 0.4133 0.0000
vt 0.7019 0.4668 0.0000
vt 0.8469 0.4668 0.0000
vt 0.8469 0.6239 0.0000
vt 0.7019 0.6239 0.0000
vt 0.8469 0.7811 0.0000
vt 0.7019 0.7811 0.0000
vt 0.8469 0.9900 0.0000
vt 0.7019 0.9900 0.0000
vt 0.8290 0.4357 0.0000
vt 0.8175 0.4236 0.0000
vt 0.8175 0.2607 0.0000
vt 0.8290 0.2485 0.0000
vt 0.6085 0.4357 0.0000
vt 0.6085 0.4236 0.0000
vt 0.4514 0.4357 0.0000
vt 0.4514 0.4236 0.0000
vt 0.2828 0.4357 0.0000
vt 0.2943 0.4236 0.0000
vt 0.2828 0.2485 0.0000
vt 0.2943 0.2607 0.0000
vt 0.4514 0.2485 0.0000
vt 0.4514 0.2607 0.0000
vt 0.6085 0.2485 0.0000
vt 0.6085 0.2607 0.0000
vt 0.7793 0.4139 0.0000
vt 0.6454 0.4139 0.0000
vt 0.6454 0.2784 0.0000
vt 0.7793 0.2784 0.0000
vt 0.7349 0.2410 0.0000
vt 0.7349 0.1054 0.0000
vt 0.8687 0.1054 0.0000
vt 0.8687 0.2410 0.0000
vt 0.2048 0.4587 0.0000
vt 0.2048 0.4473 0.0000
vt 0.3404 0.4473 0.0000
vt 0.3404 0.4587 0.0000
vt 0.2048 0.3062 0.0000
vt 0.2162 0.3062 0.0000
vt 0.2162 0.4401 0.0000
vt 0.2048 0.4401 0.0000
vt 0.8886 0.3161 0.0000
vt 0.8772 0.3161 0.0000
vt 0.8772 0.1806 0.0000
vt 0.8886 0.1806 0.0000
vt 0.8772 0.0398 0.0000
vt 0.8886 0.0398 0.0000
vt 0.8886 0.1737 0.0000
vt 0.8772 0.1737 0.0000
vt 0.9701 0.4596 0.0000
vt 0.8362 0.4596 0.0000
vt 0.8362 0.3241 0.0000
vt 0.9701 0.3241 0.0000
vt 0.8545 0.8561 0.0000
vt 0.9900 0.8561 0.0000
vt 0.9900 0.9900 0.0000
vt 0.8545 0.9900 0.0000
vt 0.2252 0.3042 0.0000
vt 0.2366 0.3042 0.0000
vt 0.2366 0.4397 0.0000
vt 0.2252 0.4397 0.0000
vt 0.2446 0.3062 0.0000
vt 0.2560 0.3062 0.0000
vt 0.2560 0.4401 0.0000
vt 0.2446 0.4401 0.0000
vt 0.2147 0.2644 0.0000
vt 0.2147 0.2758 0.0000
vt 0.0792 0.2758 0.0000
vt 0.0792 0.2644 0.0000
vt 0.7878 0.2803 0.0000
vt 0.7992 0.2803 0.0000
vt 0.7992 0.4142 0.0000
vt 0.7878 0.4142 0.0000
vt 0.9880 0.8492 0.0000
vt 0.8541 0.8492 0.0000
vt 0.8541 0.7137 0.0000
vt 0.9880 0.7137 0.0000
vt 0.8541 0.7061 0.0000
vt 0.8541 0.5706 0.0000
vt 0.9880 0.5706 0.0000
vt 0.9880 0.7061 0.0000
vt 0.8971 0.1810 0.0000
vt 0.9085 0.1810 0.0000
vt 0.9085 0.3165 0.0000
vt 0.8971 0.3165 0.0000
vt 0.8966 0.0398 0.0000
vt 0.9080 0.0398 0.0000
vt 0.9080 0.1737 0.0000
vt 0.8966 0.1737 0.0000
vt 0.2147 0.0756 0.0000
vt 0.2147 0.0870 0.0000
vt 0.0792 0.0870 0.0000
vt 0.0792 0.0756 0.0000
vt 0.7356 0.0969 0.0000
vt 0.7356 0.0855 0.0000
vt 0.8694 0.0855 0.0000
vt 0.8694 0.0969 0.0000
# 152 texture coords

g tanque_de_floculacion
f 1/1/1 2/2/1 3/3/1 4/4/1 
f 5/5/1 6/6/1 2/2/1 1/1/1 
f 7/7/1 8/8/1 6/6/1 5/5/1 
f 4/9/2 3/10/2 9/11/2 10/12/2 
f 3/13/3 2/14/3 11/15/3 9/16/3 
f 2/14/3 6/17/3 12/18/3 11/15/3 
f 12/18/3 6/17/3 8/19/3 13/20/3 
f 8/21/4 7/22/4 14/23/4 13/24/4 
f 7/25/5 5/26/5 15/27/5 14/28/5 
f 5/26/5 1/29/5 16/30/5 15/27/5 
f 16/30/5 1/29/5 4/31/5 10/32/5 
f 17/33/6 18/34/6 19/35/6 20/36/6 
f 21/37/6 17/33/6 20/36/6 22/38/6 
f 23/39/6 21/37/6 22/38/6 24/40/6 
f 18/41/7 25/42/7 26/43/7 19/44/7 
f 19/45/5 26/46/5 27/47/5 20/48/5 
f 20/48/5 27/47/5 28/49/5 22/50/5 
f 22/50/5 28/49/5 29/51/5 24/52/5 
f 24/53/8 29/54/8 30/55/8 23/56/8 
f 23/57/3 30/58/3 31/59/3 21/60/3 
f 21/60/3 31/59/3 32/61/3 17/62/3 
f 17/62/3 32/61/3 25/63/3 18/64/3 
f 9/65/6 26/66/6 25/67/6 10/68/6 
f 11/69/6 27/70/6 26/66/6 9/65/6 
f 12/71/6 28/72/6 27/70/6 11/69/6 
f 12/71/6 13/73/6 29/74/6 28/72/6 
f 14/75/6 30/76/6 29/74/6 13/73/6 
f 15/77/6 31/78/6 30/76/6 14/75/6 
f 16/79/6 32/80/6 31/78/6 15/77/6 
f 16/79/6 10/68/6 25/67/6 32/80/6 
f 33/81/7 34/82/7 35/83/7 36/84/7 
f 37/85/8 38/86/8 39/87/8 40/88/8 
f 36/89/3 38/90/3 37/91/3 33/92/3 
f 33/93/1 37/94/1 40/95/1 34/96/1 
f 34/97/5 40/98/5 39/99/5 35/100/5 
f 35/101/6 39/102/6 38/103/6 36/104/6 
f 41/105/7 42/106/7 43/107/7 44/108/7 
f 45/109/8 46/110/8 47/111/8 48/112/8 
f 44/113/3 46/114/3 45/115/3 41/116/3 
f 41/117/1 45/118/1 48/119/1 42/120/1 
f 42/121/5 48/122/5 47/123/5 43/124/5 
f 43/125/6 47/126/6 46/127/6 44/128/6 
f 49/129/7 50/130/7 51/131/7 52/132/7 
f 53/133/8 54/134/8 55/135/8 56/136/8 
f 52/137/3 54/138/3 53/139/3 49/140/3 
f 49/141/1 53/142/1 56/143/1 50/144/1 
f 50/145/5 56/146/5 55/147/5 51/148/5 
f 51/149/6 55/150/6 54/151/6 52/152/6 
# 48 polygons

