# Wavefront Obj file
# 
# verts: 24 uv-s: 64
mtllib suelo_baño.mtl

g Box4627

v -1.160500 0.000000 0.839900
v -1.160500 0.000000 -0.398200
v 3.834200 0.000000 -0.398200
v 3.834200 0.000000 0.839900
v -1.160500 0.000000 5.314800
v 3.834200 0.000000 5.314800
v 3.834200 0.030000 5.314800
v -1.160500 0.030000 5.314800
v 3.857700 0.000000 -0.699900
v 3.834200 0.000000 -0.699900
v 3.834200 0.030000 -0.699900
v 3.857700 0.030000 -0.699900
v -1.160500 0.030000 0.839900
v -1.160500 0.030000 -0.398200
v -1.160500 0.000000 -0.699900
v 3.857700 0.000000 0.839900
v 3.857700 0.000000 5.314800
v 3.857700 0.030000 -0.398200
v 3.834200 0.030000 -0.398200
v 3.834200 0.030000 0.839900
v 3.857700 0.000000 -0.398200
v 3.857700 0.030000 0.839900
v 3.857700 0.030000 5.314800
v -1.160500 0.030000 -0.699900
# 24 positions

vt 0.403405 0.451776
vt 0.513634 0.451776
vt 0.513634 0.007092
vt 0.403405 0.007092
vt 0.548224 0.548224
vt 0.992908 0.548224
vt 0.992908 0.550895
vt 0.548224 0.550895
vt 0.548224 0.559801
vt 0.550317 0.559801
vt 0.550317 0.557130
vt 0.548224 0.557130
vt 0.550895 0.513634
vt 0.550895 0.403405
vt 0.548224 0.403405
vt 0.548224 0.513634
vt 0.540495 0.451776
vt 0.540495 0.007092
vt 0.403405 0.005000
vt 0.005000 0.005000
vt 0.005000 0.007092
vt 0.031861 0.905947
vt 0.005000 0.905947
vt 0.005000 0.903854
vt 0.031861 0.903854
vt 0.142090 0.459171
vt 0.540495 0.459171
vt 0.540495 0.903854
vt 0.142090 0.903854
vt 0.566035 0.031861
vt 0.566035 0.005000
vt 0.568706 0.005000
vt 0.568706 0.031861
vt 0.559801 0.005000
vt 0.559801 0.403405
vt 0.557130 0.403405
vt 0.557130 0.005000
vt 0.550895 0.005000
vt 0.548224 0.005000
vt 0.548224 0.540495
vt 0.550895 0.540495
vt 0.031861 0.459171
vt 0.995000 0.548224
vt 0.995000 0.550895
vt 0.995000 0.559801
vt 0.995000 0.557130
vt 0.540495 0.005000
vt 0.513634 0.005000
vt 0.005000 0.451776
vt 0.005000 0.459171
vt 0.540495 0.905947
vt 0.142090 0.905947
vt 0.559800 0.539630
vt 0.559800 0.537538
vt 0.557130 0.537538
vt 0.557130 0.539630
vt 0.559801 0.411083
vt 0.559801 0.521312
vt 0.557130 0.521312
vt 0.557130 0.411083
vt 0.557130 0.528633
vt 0.557130 0.530725
vt 0.559801 0.530725
vt 0.559801 0.528633
# 64 texture coordinates

vn 0.000000 -1.000000 0.000000
vn 0.000000 0.000000 1.000000
vn 0.000000 0.000000 -1.000000
vn -1.000000 0.000000 0.000000
vn 0.000000 1.000000 0.000000
vn 1.000000 0.000000 0.000000
vn 0.000000 0.000000 1.000000
# 7 normals

usemtl default
f 1/1/1 2/2/1 3/3/1 4/4/1
f 5/5/2 6/6/2 7/7/2 8/8/2
f 9/9/3 10/10/3 11/11/3 12/12/3
f 2/13/4 1/14/4 13/15/4 14/16/4
f 2/2/1 15/17/1 10/18/1 3/3/1
f 16/19/1 17/20/1 6/21/1 4/4/1
f 18/22/5 12/23/5 11/24/5 19/25/5
f 13/26/5 8/27/5 7/28/5 20/29/5
f 21/30/6 9/31/6 12/32/6 18/33/6
f 22/34/6 23/35/6 17/36/6 16/37/6
f 1/14/4 5/38/4 8/39/4 13/15/4
f 14/16/4 24/40/4 15/41/4 2/13/4
f 19/25/5 14/42/5 13/26/5 20/29/5
f 6/6/2 17/43/2 23/44/2 7/7/2
f 10/10/3 15/45/3 24/46/3 11/11/3
f 10/18/1 9/47/1 21/48/1 3/3/1
f 6/21/1 5/49/1 1/1/1 4/4/1
f 11/24/5 24/50/5 14/42/5 19/25/5
f 7/28/5 23/51/5 22/52/5 20/29/5
f 3/53/2 21/54/7 18/55/7 19/56/7
f 19/57/6 20/58/6 4/59/6 3/60/6
f 20/61/3 22/62/3 16/63/3 4/64/3

# 22 faces
