# Wavefront Obj file
# 
# verts: 185 uv-s: 446
mtllib caseta_trans.mtl

g vidrio5

v -1.809600 -0.498800 1.442900
v -0.768600 -0.498800 1.442900
v -0.768600 0.497700 1.442900
v -1.809600 0.497700 1.442900
v -0.764700 -0.498800 1.442900
v 1.811400 -0.498800 1.442900
v 1.811400 0.497700 1.442900
v -0.764700 0.497700 1.442900
v -1.827900 0.977800 -1.413400
v -1.827900 -0.605600 -1.413400
v -1.797900 -0.575600 -1.413400
v -1.797900 0.947800 -1.413400
v 1.826100 -0.605600 -1.413400
v 1.796200 -0.575600 -1.413400
v 1.060200 -0.575600 -1.413400
v 1.001500 -0.575600 -1.413400
v -0.991800 -0.575600 -1.413400
v -1.037600 -0.575600 -1.413400
v 1.826100 0.977800 -1.413400
v 1.796200 0.947800 -1.413400
v -1.037600 0.947800 -1.413400
v -0.991800 0.947800 -1.413400
v 1.001500 0.947800 -1.413400
v 1.060200 0.947800 -1.413400
v -1.827900 -0.605600 -1.478100
v -1.827900 0.977800 -1.478100
v -1.797900 0.947800 -1.478100
v -1.797900 -0.575600 -1.478100
v 1.826100 0.977800 -1.478100
v 1.796200 0.947800 -1.478100
v 1.060200 0.947800 -1.478100
v 1.001500 0.947800 -1.478100
v -0.991800 0.947800 -1.478100
v -1.037600 0.947800 -1.478100
v 1.826100 -0.605600 -1.478100
v 1.796200 -0.575600 -1.478100
v -1.037600 -0.575600 -1.478100
v -0.991800 -0.575600 -1.478100
v 1.001500 -0.575600 -1.478100
v 1.060200 -0.575600 -1.478100
v 1.826100 0.515100 1.426000
v 1.826100 -0.515100 1.426000
v 1.796200 -0.485200 1.426000
v 1.796200 0.485100 1.426000
v -1.827900 -0.515100 1.426000
v -1.797900 -0.485200 1.426000
v -0.793800 -0.485200 1.426000
v -0.749000 -0.485200 1.426000
v -1.827900 0.515100 1.426000
v -1.797900 0.485100 1.426000
v -0.749000 0.485100 1.426000
v -0.793800 0.485100 1.426000
v 1.826100 -0.515100 1.474400
v 1.826100 0.515100 1.474400
v 1.796200 0.485100 1.474400
v 1.796200 -0.485200 1.474400
v -1.827900 0.515100 1.474400
v -1.797900 0.485100 1.474400
v -0.793800 0.485100 1.474400
v -0.749000 0.485100 1.474400
v -1.827900 -0.515100 1.474400
v -1.797900 -0.485200 1.474400
v -0.749000 -0.485200 1.474400
v -0.793800 -0.485200 1.474400
v 1.906100 0.593400 0.546200
v 1.906100 0.593400 -0.547500
v 1.906100 0.563400 -0.517000
v 1.906100 0.563400 0.516200
v 1.906100 -1.500000 -0.547500
v 1.906100 -1.500000 -0.517000
v 1.977900 0.593400 -0.547500
v 1.977900 0.593400 0.546200
v 1.977900 0.563400 0.516200
v 1.977900 0.563400 -0.517000
v 1.977900 -1.500000 0.546200
v 1.977900 -1.500000 0.516200
v 1.906100 -1.500000 0.516200
v 1.977900 -1.500000 -0.517000
v 1.977900 -1.500000 -0.547500
v 1.906100 -1.500000 0.546200
v -0.749000 -0.015200 1.426000
v -1.999500 1.500000 1.500000
v -1.999500 1.500000 -1.500000
v 2.000000 1.500000 -1.500000
v 2.000000 1.500000 1.500000
v -1.999500 1.540600 1.500000
v 2.000000 1.540600 1.500000
v 2.000000 1.540600 -1.500000
v -1.999500 1.540600 -1.500000
v -1.999500 -1.540600 1.500000
v -1.999500 -1.540600 -1.500000
v 2.000000 -1.540600 -1.500000
v 2.000000 -1.540600 1.500000
v -1.999500 -1.500000 1.500000
v 2.000000 -1.500000 1.500000
v 2.000000 -1.500000 -1.500000
v -1.999500 -1.500000 -1.500000
v 1.019900 -0.587200 -1.430900
v -1.001700 -0.587200 -1.430900
v -1.001700 0.959700 -1.430900
v 1.019900 0.959700 -1.430900
v 1.813600 -0.587200 -1.449200
v 1.030400 -0.587200 -1.449200
v 1.030400 0.959700 -1.449200
v 1.813600 0.959700 -1.449200
v -1.027300 -0.587200 -1.449200
v -1.810600 -0.587200 -1.449200
v -1.810600 0.959700 -1.449200
v -1.027300 0.959700 -1.449200
v -1.827900 0.515100 1.500000
v -1.827900 1.500000 1.500000
v -2.000000 1.500000 1.500000
v -1.827900 -0.515100 1.500000
v -1.827900 -1.500000 1.500000
v -2.000000 -1.500000 1.500000
v 2.000000 0.593400 1.326400
v 2.000000 1.500000 1.326400
v 2.000000 1.500000 1.500000
v 2.000000 -1.500000 1.326400
v 2.000000 -1.500000 1.500000
v 1.826100 0.977800 -1.500000
v 1.826100 1.500000 -1.500000
v 2.000000 1.500000 -1.500000
v 1.826100 -0.605600 -1.500000
v 1.826100 -1.500000 -1.500000
v 2.000000 -1.500000 -1.500000
v -2.000000 -1.500000 -1.327600
v -2.000000 1.500000 -1.327600
v -2.000000 1.500000 -1.500000
v -2.000000 -1.500000 -1.500000
v -1.827900 1.500000 1.396000
v -1.896000 1.500000 1.396000
v 1.896000 1.500000 1.326400
v 1.896000 1.500000 1.396000
v 1.826100 1.500000 -1.396000
v 1.896000 1.500000 -1.396000
v -1.896000 1.500000 -1.327600
v -1.896000 1.500000 -1.396000
v -2.000000 -1.500000 1.326400
v -1.896000 -1.500000 1.326400
v -1.896000 -1.500000 1.396000
v -1.827900 -1.500000 -1.500000
v -1.827900 -1.500000 -1.396000
v -1.896000 -1.500000 -1.396000
v 2.000000 -1.500000 -1.327600
v 1.896000 -1.500000 -1.327600
v 1.896000 -1.500000 -1.396000
v 1.826100 -1.500000 1.500000
v 1.826100 -1.500000 1.396000
v 1.896000 -1.500000 1.396000
v -1.896000 1.500000 1.326400
v -1.827900 0.977800 -1.396000
v -1.827900 1.500000 -1.396000
v -1.827900 -0.605600 -1.396000
v 1.896000 0.593400 -1.327600
v 1.896000 1.500000 -1.327600
v 1.826100 0.515100 1.396000
v 1.826100 1.500000 1.396000
v 1.826100 -0.515100 1.396000
v -1.827900 1.500000 -1.500000
v -1.827900 0.977800 -1.500000
v -1.827900 -0.605600 -1.500000
v 1.826100 -1.500000 -1.396000
v 1.826100 0.977800 -1.396000
v 1.826100 -0.605600 -1.396000
v 2.000000 1.500000 -1.327600
v 2.000000 0.593400 -1.327600
v 1.896000 -1.500000 1.326400
v 1.896000 0.593400 1.326400
v 1.826100 1.500000 1.500000
v 1.826100 0.515100 1.500000
v 1.826100 -0.515100 1.500000
v -1.827900 -1.500000 1.396000
v -1.827900 0.515100 1.396000
v -1.827900 -0.515100 1.396000
v -2.000000 1.500000 1.326400
v -1.896000 -1.500000 -1.327600
v 1.896000 0.593400 -0.547500
v 1.896000 0.593400 0.546200
v 2.000000 0.593400 0.546200
v 2.000000 0.593400 -0.547500
v 1.896000 -1.500000 0.546200
v 2.000000 -1.500000 0.546200
v 2.000000 -1.500000 -0.547500
v 1.896000 -1.500000 -0.547500
# 185 positions

vt 0.559246 0.924118
vt 0.559246 0.856963
vt 0.623529 0.856963
vt 0.623529 0.924118
vt 0.020294 0.775300
vt 0.020294 0.609118
vt 0.084578 0.609118
vt 0.084578 0.775300
vt 0.588529 0.320882
vt 0.486383 0.320832
vt 0.488320 0.318898
vt 0.586594 0.318947
vt 0.486383 0.085133
vt 0.488317 0.087063
vt 0.488326 0.134536
vt 0.488328 0.138322
vt 0.488331 0.266898
vt 0.488331 0.269852
vt 0.588520 0.085157
vt 0.586585 0.087086
vt 0.586600 0.269898
vt 0.586602 0.266943
vt 0.586600 0.138352
vt 0.586599 0.134565
vt 0.010000 0.551643
vt 0.112150 0.551471
vt 0.110218 0.553409
vt 0.011939 0.553575
vt 0.112145 0.787254
vt 0.110210 0.785325
vt 0.110206 0.737827
vt 0.110205 0.734037
vt 0.110205 0.605412
vt 0.110206 0.602457
vt 0.010000 0.787310
vt 0.011936 0.785381
vt 0.011930 0.602607
vt 0.011929 0.605560
vt 0.011926 0.734116
vt 0.011927 0.737903
vt 0.878824 0.194701
vt 0.878822 0.292974
vt 0.874649 0.292974
vt 0.874650 0.194701
vt 0.866471 0.342021
vt 0.866470 0.440294
vt 0.862296 0.440294
vt 0.862297 0.342021
vt 0.862297 0.294542
vt 0.866471 0.294542
vt 0.364118 0.465000
vt 0.368291 0.465000
vt 0.368291 0.512479
vt 0.364118 0.512479
vt 0.878823 0.342021
vt 0.874649 0.342021
vt 0.121176 0.561214
vt 0.125350 0.561214
vt 0.125351 0.689800
vt 0.121177 0.689800
vt 0.646177 0.316765
vt 0.646177 0.320938
vt 0.597130 0.320938
vt 0.597130 0.316765
vt 0.549412 0.411471
vt 0.549412 0.415644
vt 0.420825 0.415644
vt 0.420825 0.411471
vt 0.702096 0.677609
vt 0.705882 0.677609
vt 0.705882 0.775882
vt 0.702096 0.775882
vt 0.121178 0.462941
vt 0.125352 0.462941
vt 0.730588 0.878824
vt 0.730588 0.882610
vt 0.632315 0.882610
vt 0.632315 0.878824
vt 0.862296 0.196269
vt 0.866470 0.196269
vt 0.730588 0.868529
vt 0.730588 0.871484
vt 0.632315 0.871484
vt 0.632315 0.868529
vt 0.125352 0.788074
vt 0.121178 0.788074
vt 0.632315 0.861190
vt 0.632315 0.858235
vt 0.730588 0.858235
vt 0.730588 0.861190
vt 0.878824 0.440294
vt 0.874650 0.440294
vt 0.928235 0.685294
vt 0.861778 0.685200
vt 0.863708 0.683272
vt 0.926300 0.683366
vt 0.861778 0.449512
vt 0.863707 0.451448
vt 0.863709 0.516211
vt 0.863710 0.519100
vt 0.928234 0.449560
vt 0.926298 0.451494
vt 0.926301 0.519162
vt 0.926301 0.516271
vt 0.595741 0.146458
vt 0.595745 0.080000
vt 0.597674 0.081935
vt 0.597670 0.144529
vt 0.831457 0.080000
vt 0.829522 0.081936
vt 0.764750 0.081933
vt 0.761861 0.081933
vt 0.831471 0.146458
vt 0.829535 0.144529
vt 0.761869 0.144527
vt 0.764759 0.144527
vt 0.380588 0.371358
vt 0.317995 0.371358
vt 0.317995 0.368235
vt 0.380588 0.368235
vt 0.317995 0.331176
vt 0.380588 0.331176
vt 0.380588 0.334299
vt 0.317995 0.334299
vt 0.020294 0.574241
vt 0.090848 0.574241
vt 0.088881 0.576176
vt 0.022229 0.576176
vt 0.422604 0.401176
vt 0.557647 0.401176
vt 0.557647 0.403144
vt 0.424539 0.403144
vt 0.388824 0.359876
vt 0.318270 0.359876
vt 0.320205 0.357941
vt 0.386856 0.357941
vt 0.693529 0.640838
vt 0.693529 0.775882
vt 0.691594 0.775882
vt 0.691594 0.642774
vt 0.315421 0.300294
vt 0.448529 0.300294
vt 0.448529 0.304926
vt 0.315421 0.304926
vt 0.020294 0.565882
vt 0.020294 0.561251
vt 0.086945 0.561251
vt 0.086945 0.565882
vt 0.632480 0.920000
vt 0.765588 0.920000
vt 0.765588 0.924632
vt 0.632480 0.924632
vt 0.422604 0.436085
vt 0.422604 0.434118
vt 0.557647 0.434118
vt 0.555712 0.436085
vt 0.422603 0.423824
vt 0.557647 0.423824
vt 0.555712 0.425759
vt 0.422603 0.425759
vt 0.561765 0.306471
vt 0.561765 0.309593
vt 0.496991 0.309593
vt 0.496991 0.306471
vt 0.586471 0.444412
vt 0.586471 0.447534
vt 0.422281 0.447534
vt 0.422281 0.444412
vt 0.327059 0.467059
vt 0.327059 0.470181
vt 0.162869 0.470181
vt 0.162869 0.467059
vt 0.020294 0.600882
vt 0.020294 0.597760
vt 0.085068 0.597760
vt 0.085068 0.600882
vt 0.020294 0.588529
vt 0.020294 0.585639
vt 0.052568 0.585639
vt 0.082888 0.588529
vt 0.082888 0.585639
vt 0.320055 0.383710
vt 0.320055 0.380588
vt 0.382647 0.380588
vt 0.352327 0.383710
vt 0.382647 0.383710
vt 0.072592 0.402172
vt 0.072592 0.405294
vt 0.010000 0.405294
vt 0.010000 0.402172
vt 0.010000 0.990000
vt 0.010000 0.796472
vt 0.268006 0.796472
vt 0.268006 0.990000
vt 0.141112 0.594706
vt 0.399118 0.594706
vt 0.399118 0.788234
vt 0.141112 0.788234
vt 0.399118 0.094972
vt 0.141112 0.094972
vt 0.141112 0.092353
vt 0.399118 0.092353
vt 0.162355 0.489706
vt 0.355882 0.489706
vt 0.355882 0.492325
vt 0.162355 0.492325
vt 0.913824 0.182288
vt 0.913824 0.440294
vt 0.911204 0.440294
vt 0.911204 0.182288
vt 0.162355 0.510294
vt 0.355882 0.510294
vt 0.355882 0.512913
vt 0.162355 0.512913
vt 0.275588 0.990000
vt 0.275588 0.796472
vt 0.533594 0.796472
vt 0.533594 0.990000
vt 0.600882 0.530230
vt 0.600882 0.788235
vt 0.407355 0.788235
vt 0.407355 0.530230
vt 0.399118 0.105266
vt 0.141112 0.105266
vt 0.141112 0.102647
vt 0.399118 0.102647
vt 0.162355 0.500000
vt 0.355882 0.500000
vt 0.355882 0.502619
vt 0.162355 0.502619
vt 0.903529 0.182288
vt 0.903529 0.440294
vt 0.900910 0.440294
vt 0.900910 0.182288
vt 0.162355 0.479412
vt 0.355882 0.479412
vt 0.355882 0.482031
vt 0.162355 0.482031
vt 0.109789 0.413529
vt 0.109789 0.543941
vt 0.010000 0.543941
vt 0.010000 0.413529
vt 0.310588 0.333235
vt 0.310588 0.383759
vt 0.210799 0.383759
vt 0.210799 0.333235
vt 0.131471 0.405294
vt 0.080940 0.405294
vt 0.080940 0.305505
vt 0.131471 0.305505
vt 0.388015 0.456476
vt 0.388015 0.392941
vt 0.399118 0.392941
vt 0.388015 0.522934
vt 0.388012 0.586469
vt 0.399115 0.586469
vt 0.192329 0.249662
vt 0.192329 0.191176
vt 0.203528 0.191176
vt 0.192329 0.384703
vt 0.203528 0.384703
vt 0.787994 0.830159
vt 0.787994 0.796472
vt 0.799213 0.796472
vt 0.787994 0.932303
vt 0.787994 0.990000
vt 0.799213 0.990000
vt 0.660591 0.523877
vt 0.854118 0.523877
vt 0.854118 0.534998
vt 0.660591 0.534998
vt 0.220121 0.127353
vt 0.220151 0.134035
vt 0.215692 0.134097
vt 0.208693 0.127895
vt 0.470338 0.138432
vt 0.463664 0.138407
vt 0.463342 0.133984
vt 0.470106 0.127353
vt 0.466303 0.320886
vt 0.466201 0.314131
vt 0.470605 0.314147
vt 0.477353 0.320898
vt 0.222132 0.309729
vt 0.228828 0.309073
vt 0.228971 0.313577
vt 0.222633 0.320787
vt 0.099063 0.593552
vt 0.092353 0.593552
vt 0.092356 0.589062
vt 0.099065 0.582353
vt 0.388015 0.119653
vt 0.388015 0.112945
vt 0.392408 0.112941
vt 0.399118 0.119648
vt 0.330264 0.343529
vt 0.330264 0.350238
vt 0.325852 0.350238
vt 0.319142 0.343529
vt 0.893217 0.193515
vt 0.886504 0.193509
vt 0.886523 0.188998
vt 0.893235 0.182294
vt 0.660591 0.329738
vt 0.854118 0.329738
vt 0.854118 0.334227
vt 0.660591 0.334227
vt 0.768960 0.783842
vt 0.802647 0.783842
vt 0.802647 0.788235
vt 0.666816 0.783839
vt 0.609120 0.783839
vt 0.609118 0.788233
vt 0.985588 0.752013
vt 0.985588 0.693529
vt 0.990000 0.693530
vt 0.985585 0.887055
vt 0.989997 0.887073
vt 0.647844 0.392653
vt 0.647844 0.329118
vt 0.652353 0.329118
vt 0.647844 0.459110
vt 0.647844 0.522646
vt 0.652353 0.522646
vt 0.541176 0.990000
vt 0.541176 0.796472
vt 0.552279 0.796472
vt 0.552279 0.830159
vt 0.552279 0.932303
vt 0.552279 0.990000
vt 0.233485 0.320180
vt 0.233207 0.313451
vt 0.152292 0.119653
vt 0.152294 0.112944
vt 0.141073 0.119651
vt 0.147783 0.112944
vt 0.609118 0.543613
vt 0.802646 0.543616
vt 0.802647 0.548124
vt 0.768959 0.548124
vt 0.666815 0.548122
vt 0.609118 0.548122
vt 0.010002 0.384703
vt 0.010000 0.191176
vt 0.021121 0.191176
vt 0.021122 0.249662
vt 0.021123 0.384706
vt 0.477135 0.309745
vt 0.470307 0.309720
vt 0.572964 0.416121
vt 0.561765 0.416121
vt 0.568474 0.409412
vt 0.572964 0.409412
vt 0.809892 0.887060
vt 0.809889 0.693534
vt 0.814379 0.693530
vt 0.814382 0.752016
vt 0.814382 0.887060
vt 0.141079 0.586469
vt 0.141079 0.392941
vt 0.152297 0.392941
vt 0.152297 0.456477
vt 0.152297 0.522934
vt 0.152297 0.586469
vt 0.458745 0.127370
vt 0.458615 0.134081
vt 0.893220 0.429194
vt 0.886512 0.429194
vt 0.893220 0.440294
vt 0.886512 0.433587
vt 0.407733 0.522645
vt 0.407733 0.329118
vt 0.412126 0.329118
vt 0.412126 0.392653
vt 0.412126 0.459110
vt 0.412126 0.522645
vt 0.660591 0.341471
vt 0.854118 0.341471
vt 0.854118 0.352669
vt 0.660591 0.352669
vt 0.209123 0.139145
vt 0.215651 0.138495
vt 0.099065 0.764755
vt 0.092357 0.764755
vt 0.660591 0.158530
vt 0.854118 0.158530
vt 0.099065 0.775877
vt 0.092357 0.769168
vt 0.660591 0.154118
vt 0.854118 0.154118
vt 0.935263 0.752013
vt 0.864711 0.752014
vt 0.141999 0.249662
vt 0.071445 0.249662
vt 0.623294 0.409412
vt 0.623294 0.416121
vt 0.380588 0.343529
vt 0.380588 0.350238
vt 0.864711 0.887059
vt 0.935263 0.887056
vt 0.071447 0.384703
vt 0.141999 0.384703
vt 0.565328 0.436709
vt 0.565328 0.430000
vt 0.635882 0.430000
vt 0.635882 0.436709
vt 0.695588 0.848474
vt 0.560544 0.848474
vt 0.560544 0.841765
vt 0.695588 0.841765
vt 0.676526 0.775882
vt 0.676526 0.640838
vt 0.683235 0.640838
vt 0.683235 0.775882
vt 0.364118 0.077941
vt 0.364118 0.084650
vt 0.128403 0.084650
vt 0.128403 0.077941
vt 0.734706 0.905588
vt 0.734706 0.912297
vt 0.632565 0.912297
vt 0.632565 0.905588
vt 0.928235 0.440294
vt 0.921526 0.440294
vt 0.921526 0.204579
vt 0.928235 0.204579
vt 0.734706 0.891176
vt 0.734706 0.897885
vt 0.632565 0.897885
vt 0.632565 0.891176
vt 0.369285 0.072297
vt 0.369285 0.065588
vt 0.605000 0.065588
vt 0.605000 0.072297
vt 0.683235 0.631765
vt 0.676526 0.631765
vt 0.676526 0.565308
vt 0.683235 0.565308
vt 0.847941 0.065588
vt 0.847941 0.072297
vt 0.612226 0.072297
vt 0.612226 0.065588
vt 0.690938 0.565308
vt 0.697647 0.565308
vt 0.697647 0.631765
vt 0.690938 0.631765
# 446 texture coordinates

vn 0.000000 0.000000 1.000000
vn 0.000000 0.000000 1.000000
vn 0.000000 0.000000 1.000000
vn 0.000000 0.000000 -1.000000
vn 1.000000 0.000000 0.000000
vn -1.000000 0.000000 0.000000
vn 0.000000 -1.000000 0.000000
vn 0.000000 1.000000 0.000000
vn -1.000000 0.000000 0.000000
vn 0.000000 0.000000 -1.000000
vn 0.000000 0.000000 1.000000
vn -1.000000 0.000000 0.000000
vn 1.000000 0.000000 0.000000
vn 0.000000 -1.000000 0.000000
vn 0.000000 1.000000 0.000000
vn 1.000000 0.000000 0.000000
vn 0.000000 -1.000000 0.000000
vn 0.000000 1.000000 0.000000
vn 0.000000 0.000000 1.000000
vn 1.000000 0.000000 0.000000
vn 0.000000 0.000000 -1.000000
vn -1.000000 0.000000 0.000000
vn 0.000000 -1.000000 0.000000
vn 0.000000 1.000000 0.000000
vn 0.000000 0.000000 1.000000
vn 1.000000 0.000000 0.000000
vn 0.000000 0.000000 -1.000000
vn -1.000000 0.000000 0.000000
vn 0.000000 0.000000 -1.000000
vn 0.000000 0.000000 -1.000000
vn 0.000000 0.000000 -1.000000
vn 0.000000 0.000000 1.000000
vn 1.000000 0.000000 0.000000
vn 0.000000 0.000000 -1.000000
vn -1.000000 0.000000 0.000000
vn 0.000000 1.000000 0.000000
vn 0.000000 -1.000000 0.000000
vn 0.000000 0.000000 -1.000000
vn 0.000000 0.000000 1.000000
# 39 normals

usemtl default
f 1/1/1 2/2/1 3/3/1 4/4/1

g vidrio4

# 0 positions

# 0 texture coordinates

# 0 normals

usemtl default
f 5/5/2 6/6/2 7/7/2 8/8/2

g marco1

# 0 positions

# 0 texture coordinates

# 0 normals

usemtl default
f 9/9/3 10/10/3 11/11/3 12/12/3
f 10/10/3 13/13/3 14/14/3 15/15/3
f 10/10/3 15/15/3 16/16/3 17/17/3
f 10/10/3 17/17/3 18/18/3 11/11/3
f 13/13/3 19/19/3 20/20/3 14/14/3
f 19/19/3 9/9/3 12/12/3 21/21/3
f 19/19/3 21/21/3 22/22/3 23/23/3
f 19/19/3 23/23/3 24/24/3 20/20/3
f 25/25/4 26/26/4 27/27/4 28/28/4
f 26/26/4 29/29/4 30/30/4 31/31/4
f 26/26/4 31/31/4 32/32/4 33/33/4
f 26/26/4 33/33/4 34/34/4 27/27/4
f 29/29/4 35/35/4 36/36/4 30/30/4
f 35/35/4 25/25/4 28/28/4 37/37/4
f 35/35/4 37/37/4 38/38/4 39/39/4
f 35/35/4 39/39/4 40/40/4 36/36/4
f 28/41/5 27/42/5 12/43/5 11/44/5
f 30/45/6 36/46/6 14/47/6 20/48/6
f 30/45/7 20/48/7 24/49/7 31/50/7
f 14/51/8 36/52/8 40/53/8 15/54/8
f 12/43/7 27/42/7 34/55/7 21/56/7
f 32/57/7 23/58/7 22/59/7 33/60/7
f 28/61/8 11/62/8 18/63/8 37/64/8
f 16/65/8 39/66/8 38/67/8 17/68/8
f 24/69/3 23/70/3 16/71/3 15/72/3
f 23/58/9 32/57/9 39/73/9 16/74/9
f 32/75/4 31/76/4 40/77/4 39/78/4
f 31/50/5 24/49/5 15/79/5 40/80/5
f 34/81/4 33/82/4 38/83/4 37/84/4
f 33/60/5 22/59/5 17/85/5 38/86/5
f 22/87/3 21/88/3 18/89/3 17/90/3
f 21/56/6 34/55/6 37/91/6 18/92/6

g marcos

# 0 positions

# 0 texture coordinates

# 0 normals

usemtl default
f 41/93/10 42/94/10 43/95/10 44/96/10
f 42/94/10 45/97/10 46/98/10 47/99/10
f 42/94/10 47/99/10 48/100/10 43/95/10
f 45/97/10 49/101/10 50/102/10 46/98/10
f 49/101/10 41/93/10 44/96/10 51/103/10
f 49/101/10 51/103/10 52/104/10 50/102/10
f 53/105/11 54/106/11 55/107/11 56/108/11
f 54/106/11 57/109/11 58/110/11 59/111/11
f 54/106/11 59/111/11 60/112/11 55/107/11
f 57/109/11 61/113/11 62/114/11 58/110/11
f 61/113/11 53/105/11 56/108/11 63/115/11
f 61/113/11 63/115/11 64/116/11 62/114/11
f 56/117/12 55/118/12 44/119/12 43/120/12
f 58/121/13 62/122/13 46/123/13 50/124/13
f 65/125/12 66/126/12 67/127/12 68/128/12
f 66/129/12 69/130/12 70/131/12 67/132/12
f 71/133/13 72/134/13 73/135/13 74/136/13
f 72/137/13 75/138/13 76/139/13 73/140/13
f 77/141/10 68/142/10 73/143/10 76/144/10
f 67/145/14 74/146/14 73/147/14 68/148/14
f 78/149/11 74/150/11 67/151/11 70/152/11
f 78/153/13 79/154/13 71/155/13 74/156/13
f 80/157/12 65/158/12 68/159/12 77/160/12
f 58/161/14 50/162/14 52/163/14 59/164/14
f 44/165/14 55/166/14 60/167/14 51/168/14
f 56/169/15 43/170/15 48/171/15 63/172/15
f 46/173/15 62/174/15 64/175/15 47/176/15
f 52/177/10 51/178/10 81/179/10 47/180/10
f 81/179/10 48/181/10 47/180/10
f 51/182/13 60/183/13 63/184/13 81/185/13
f 63/184/13 48/186/16 81/185/13
f 60/112/11 59/111/11 64/116/11 63/115/11
f 59/187/12 52/188/12 47/189/12 64/190/12

g techo

# 0 positions

# 0 texture coordinates

# 0 normals

usemtl default
f 82/191/17 83/192/17 84/193/17 85/194/17
f 86/195/18 87/196/18 88/197/18 89/198/18
f 82/199/19 85/200/19 87/201/19 86/202/19
f 85/203/20 84/204/20 88/205/20 87/206/20
f 84/207/21 83/208/21 89/209/21 88/210/21
f 83/211/22 82/212/22 86/213/22 89/214/22

g piso

# 0 positions

# 0 texture coordinates

# 0 normals

usemtl default
f 90/215/23 91/216/23 92/217/23 93/218/23
f 94/219/24 95/220/24 96/221/24 97/222/24
f 90/223/25 93/224/25 95/225/25 94/226/25
f 93/227/26 92/228/26 96/229/26 95/230/26
f 92/231/27 91/232/27 97/233/27 96/234/27
f 91/235/28 90/236/28 94/237/28 97/238/28

g vidrio2

# 0 positions

# 0 texture coordinates

# 0 normals

usemtl default
f 98/239/29 99/240/29 100/241/29 101/242/29

g vidrio1

# 0 positions

# 0 texture coordinates

# 0 normals

usemtl default
f 102/243/30 103/244/30 104/245/30 105/246/30

g vidrio3

# 0 positions

# 0 texture coordinates

# 0 normals

usemtl default
f 106/247/31 107/248/31 108/249/31 109/250/31

g estructura

# 0 positions

# 0 texture coordinates

# 0 normals

usemtl default
f 110/251/32 111/252/32 112/253/32 113/254/32
f 114/255/32 113/254/32 112/253/32 115/256/32
f 116/257/33 117/258/33 118/259/33 119/260/33
f 120/261/33 119/260/33 118/259/33
f 121/262/34 122/263/34 123/264/34 124/265/34
f 125/266/34 124/265/34 123/264/34 126/267/34
f 127/268/35 128/269/35 129/270/35 130/271/35
f 111/272/36 131/273/36 132/274/36 112/275/36
f 117/276/36 133/277/36 134/278/36 118/279/36
f 122/280/36 135/281/36 136/282/36 123/283/36
f 128/284/36 137/285/36 138/286/36 129/287/36
f 139/288/37 140/289/37 141/290/37 115/291/37
f 142/292/37 143/293/37 144/294/37 130/295/37
f 145/296/37 146/297/37 147/298/37 126/299/37
f 148/300/37 149/301/37 150/302/37 120/303/37
f 140/304/33 151/305/33 132/306/33 141/307/33
f 152/308/32 153/309/32 138/310/32 154/311/32
f 143/312/32 154/311/32 138/310/32 144/313/32
f 155/314/35 156/315/35 136/316/35 146/317/35
f 147/318/35 146/317/35 136/316/35
f 157/319/34 158/320/34 134/321/34 159/322/34
f 149/323/34 159/322/34 134/321/34 150/324/34
f 130/325/34 129/326/34 160/327/34 161/328/34
f 130/325/34 161/328/34 162/329/34 142/330/34
f 160/331/36 129/287/36 138/286/36 153/332/36
f 125/333/37 163/334/37 143/293/37 142/292/37
f 160/331/36 153/332/36 135/281/36 122/280/36
f 125/333/37 126/335/37 147/336/37 163/334/37
f 147/337/32 136/338/32 135/339/32 164/340/32
f 147/337/32 164/340/32 165/341/32 163/342/32
f 126/343/33 123/344/33 166/345/33 167/346/33
f 145/347/33 126/343/33 167/346/33
f 166/348/36 123/283/36 136/282/36 156/349/36
f 166/348/36 156/349/36 133/277/36 117/276/36
f 119/350/37 120/351/37 150/352/37 168/353/37
f 150/354/35 134/355/35 133/356/35 169/357/35
f 168/358/35 150/354/35 169/357/35
f 120/359/32 118/360/32 170/361/32 171/362/32
f 120/359/32 171/362/32 172/363/32 148/364/32
f 170/365/36 118/279/36 134/278/36 158/366/36
f 114/367/37 173/368/37 149/301/37 148/300/37
f 170/365/36 158/366/36 131/273/36 111/272/36
f 114/367/37 115/369/37 141/370/37 173/368/37
f 141/371/34 132/372/34 131/373/34 174/374/34
f 141/371/34 174/374/34 175/375/34 173/376/34
f 115/377/35 112/378/35 176/379/35 139/380/35
f 176/381/36 112/275/36 132/274/36 151/382/36
f 127/383/37 177/384/37 140/289/37 139/288/37
f 177/385/33 137/386/33 151/305/33 140/304/33
f 139/380/35 176/379/35 128/269/35 127/268/35
f 176/381/36 151/382/36 137/285/36 128/284/36
f 127/383/37 130/387/37 144/388/37 177/384/37
f 144/389/33 138/390/33 137/386/33 177/385/33
f 160/327/34 122/263/34 121/262/34 161/328/34
f 125/266/34 142/330/34 162/329/34 124/265/34
f 135/339/32 153/309/32 152/308/32 164/340/32
f 143/312/32 163/342/32 165/341/32 154/311/32
f 131/373/34 158/320/34 157/319/34 174/374/34
f 149/323/34 173/376/34 175/375/34 159/322/34
f 170/361/32 111/252/32 110/251/32 171/362/32
f 114/255/32 148/364/32 172/363/32 113/254/32
f 133/356/35 156/315/35 155/314/35 178/391/35
f 133/356/35 178/391/35 179/392/35 169/357/35
f 166/345/33 117/258/33 116/257/33 180/393/33
f 166/345/33 180/393/33 181/394/33 167/346/33
f 119/350/37 168/353/37 182/395/37 183/396/37
f 146/297/37 145/296/37 184/397/37 185/398/37
f 168/358/35 169/357/35 179/392/35 182/399/35
f 155/314/35 146/317/35 185/400/35 178/391/35
f 145/347/33 167/346/33 181/394/33 184/401/33
f 116/257/33 119/260/33 183/402/33 180/393/33
f 180/403/37 179/404/37 178/405/37 181/406/37
f 180/407/38 183/408/34 182/409/38 179/410/38
f 178/411/39 185/412/39 184/413/39 181/414/32
f 162/415/36 154/416/36 165/417/36 124/418/36
f 161/419/33 152/420/33 154/421/33 162/422/33
f 152/423/37 161/424/37 121/425/37 164/426/37
f 164/427/35 121/428/35 124/429/35 165/430/35
f 175/431/36 113/432/36 172/433/36 159/434/36
f 174/435/33 110/436/33 113/437/33 175/438/33
f 157/439/37 171/440/37 110/441/37 174/442/37
f 159/443/35 172/444/35 171/445/35 157/446/35

# 164 faces
