# 3ds Max Wavefront OBJ Exporter v0.97b - (c)2007 guruware
# File Created: 30.01.2018 16:16:15

#
# object llave_cuba_1
#

v  0.0410 0.0000 -0.0048
v  0.0332 0.0241 -0.0048
v  0.0332 0.0241 0.0002
v  0.0410 -0.0000 0.0002
v  0.0127 0.0390 -0.0048
v  0.0127 0.0390 0.0002
v  -0.0127 0.0390 -0.0048
v  -0.0127 0.0390 0.0002
v  -0.0332 0.0241 -0.0048
v  -0.0332 0.0241 0.0002
v  -0.0410 -0.0000 -0.0048
v  -0.0410 -0.0000 0.0002
v  -0.0332 -0.0241 -0.0048
v  -0.0332 -0.0241 0.0002
v  -0.0127 -0.0390 -0.0048
v  -0.0127 -0.0390 0.0002
v  0.0127 -0.0390 -0.0048
v  0.0127 -0.0390 0.0002
v  0.0332 -0.0241 -0.0048
v  0.0332 -0.0241 0.0002
v  0.0236 -0.0000 -0.0048
v  0.0191 0.0139 -0.0048
v  0.0073 0.0225 -0.0048
v  -0.0073 0.0225 -0.0048
v  -0.0191 0.0139 -0.0048
v  -0.0236 -0.0000 -0.0048
v  -0.0191 -0.0139 -0.0048
v  -0.0073 -0.0225 -0.0048
v  0.0073 -0.0225 -0.0048
v  0.0191 -0.0139 -0.0048
v  0.0191 0.0139 -0.0677
v  0.0236 0.0000 -0.0677
v  -0.0000 0.0000 -0.0677
v  0.0073 0.0225 -0.0677
v  -0.0073 0.0225 -0.0677
v  -0.0191 0.0139 -0.0677
v  -0.0236 0.0000 -0.0677
v  -0.0191 -0.0139 -0.0677
v  -0.0073 -0.0225 -0.0677
v  0.0073 -0.0225 -0.0677
v  0.0191 -0.0139 -0.0677
v  0.0256 0.0186 0.0002
v  0.0316 -0.0000 0.0002
v  0.0098 0.0301 0.0002
v  -0.0098 0.0301 0.0002
v  -0.0256 0.0186 0.0002
v  -0.0316 -0.0000 0.0002
v  -0.0256 -0.0186 0.0002
v  -0.0098 -0.0301 0.0002
v  0.0098 -0.0301 0.0002
v  0.0256 -0.0186 0.0002
v  0.0200 -0.0000 0.0448
v  0.0162 0.0118 0.0448
v  0.0000 -0.0000 0.0448
v  0.0062 0.0190 0.0448
v  -0.0062 0.0190 0.0448
v  -0.0162 0.0118 0.0448
v  -0.0200 -0.0000 0.0448
v  -0.0162 -0.0118 0.0448
v  -0.0062 -0.0190 0.0448
v  0.0062 -0.0190 0.0448
v  0.0162 -0.0118 0.0448
v  0.0256 0.0186 0.0396
v  0.0316 -0.0000 0.0396
v  0.0098 0.0301 0.0396
v  -0.0098 0.0301 0.0396
v  -0.0256 0.0186 0.0396
v  -0.0316 -0.0000 0.0396
v  -0.0256 -0.0186 0.0396
v  -0.0098 -0.0301 0.0396
v  0.0098 -0.0301 0.0396
v  0.0256 -0.0186 0.0396
v  0.0204 0.0148 0.0396
v  0.0252 -0.0000 0.0396
v  0.0078 0.0239 0.0396
v  -0.0078 0.0239 0.0396
v  -0.0204 0.0148 0.0396
v  -0.0252 -0.0000 0.0396
v  -0.0204 -0.0148 0.0396
v  -0.0078 -0.0239 0.0396
v  0.0078 -0.0239 0.0396
v  0.0204 -0.0148 0.0396
v  0.0204 0.0148 0.0566
v  0.0252 -0.0000 0.0566
v  0.0078 0.0239 0.0566
v  -0.0078 0.0239 0.0566
v  -0.0204 0.0148 0.0566
v  -0.0252 -0.0000 0.0566
v  -0.0204 -0.0148 0.0566
v  -0.0078 -0.0239 0.0566
v  0.0078 -0.0239 0.0566
v  0.0204 -0.0148 0.0566
v  0.0162 0.0118 0.0566
v  0.0200 -0.0000 0.0566
v  0.0062 0.0190 0.0566
v  -0.0062 0.0190 0.0566
v  -0.0162 0.0118 0.0566
v  -0.0200 -0.0000 0.0566
v  -0.0162 -0.0118 0.0566
v  -0.0062 -0.0190 0.0566
v  0.0062 -0.0190 0.0566
v  0.0162 -0.0118 0.0566
v  0.0070 0.0294 0.0172
v  0.0057 0.0294 0.0131
v  0.0057 0.0404 0.0131
v  0.0070 0.0404 0.0172
v  0.0022 0.0294 0.0105
v  0.0022 0.0404 0.0105
v  -0.0022 0.0294 0.0105
v  -0.0022 0.0404 0.0105
v  -0.0057 0.0294 0.0131
v  -0.0057 0.0404 0.0131
v  -0.0070 0.0294 0.0172
v  -0.0070 0.0404 0.0172
v  -0.0057 0.0294 0.0213
v  -0.0057 0.0404 0.0213
v  -0.0022 0.0294 0.0238
v  -0.0022 0.0404 0.0238
v  0.0022 0.0294 0.0238
v  0.0022 0.0404 0.0238
v  0.0057 0.0294 0.0213
v  0.0057 0.0404 0.0213
v  0.0000 0.0294 0.0172
v  0.0000 0.0404 0.0172
# 124 vertices

vn 1.0000 0.0000 0.0000
vn 0.8090 0.5878 0.0000
vn 0.3090 0.9511 0.0000
vn -0.3090 0.9511 0.0000
vn -0.8090 0.5878 0.0000
vn -1.0000 -0.0000 -0.0000
vn -0.8090 -0.5878 -0.0000
vn -0.3090 -0.9511 -0.0000
vn 0.3090 -0.9511 -0.0000
vn 0.8090 -0.5878 -0.0000
vn 0.0000 0.0000 -1.0000
vn -0.0000 0.0000 -1.0000
vn 0.0000 -0.0000 1.0000
vn -0.0000 -0.0000 1.0000
vn -1.0000 -0.0000 0.0000
vn -0.0000 0.0000 1.0000
vn 0.0000 0.0000 1.0000
vn 1.0000 0.0000 -0.0000
vn 0.9511 -0.0000 -0.3090
vn 0.5878 -0.0000 -0.8090
vn 0.0000 -0.0000 -1.0000
vn -0.5878 -0.0000 -0.8090
vn -0.9511 -0.0000 -0.3090
vn -0.9511 0.0000 0.3090
vn -0.5878 0.0000 0.8090
vn 0.5878 0.0000 0.8090
vn 0.9511 0.0000 0.3090
vn 0.0000 -1.0000 -0.0000
vn 0.0000 -1.0000 0.0000
vn -0.0000 -1.0000 0.0000
vn 0.0000 1.0000 0.0000
# 31 vertex normals

g llave_cuba_1
s 8
f 1//1 2//2 3//2 4//1 
f 2//2 5//3 6//3 3//2 
f 5//3 7//4 8//4 6//3 
f 7//4 9//5 10//5 8//4 
f 9//5 11//6 12//6 10//5 
f 11//6 13//7 14//7 12//6 
f 13//7 15//8 16//8 14//7 
f 15//8 17//9 18//9 16//8 
f 17//9 19//10 20//10 18//9 
f 19//10 1//1 4//1 20//10 
s 2
f 2//11 1//11 21//11 22//11 
f 5//11 2//11 22//11 23//11 
f 7//12 5//11 23//11 24//12 
f 9//12 7//12 24//12 25//12 
f 11//11 9//12 25//12 26//11 
f 13//11 11//11 26//11 27//11 
f 15//11 13//11 27//11 28//11 
f 17//12 15//11 28//11 29//12 
f 19//12 17//12 29//12 30//12 
f 1//11 19//12 30//12 21//11 
s 1
f 31//11 32//11 33//11 
f 34//11 31//11 33//11 
f 35//11 34//11 33//11 
f 36//11 35//11 33//11 
f 37//11 36//11 33//11 
f 38//11 37//11 33//11 
f 39//11 38//11 33//11 
f 40//11 39//11 33//11 
f 41//11 40//11 33//11 
f 32//11 41//11 33//11 
f 4//13 3//14 42//14 43//13 
f 3//14 6//14 44//14 42//14 
f 6//14 8//13 45//13 44//14 
f 8//13 10//13 46//13 45//13 
f 10//13 12//14 47//14 46//13 
f 12//14 14//14 48//14 47//14 
f 14//14 16//14 49//14 48//14 
f 16//14 18//13 50//13 49//14 
f 18//13 20//13 51//13 50//13 
f 20//13 4//13 43//13 51//13 
f 52//13 53//13 54//13 
f 53//13 55//13 54//13 
f 55//13 56//13 54//13 
f 56//13 57//13 54//13 
f 57//13 58//13 54//13 
f 58//13 59//13 54//13 
f 59//13 60//13 54//13 
f 60//13 61//13 54//13 
f 61//13 62//13 54//13 
f 62//13 52//13 54//13 
s 256
f 22//2 21//1 32//1 31//2 
f 21//1 30//10 41//10 32//1 
f 30//10 29//9 40//9 41//10 
f 29//9 28//8 39//8 40//9 
f 28//8 27//7 38//7 39//8 
f 27//7 26//6 37//6 38//7 
f 26//6 25//5 36//5 37//6 
f 25//5 24//4 35//4 36//5 
f 24//4 23//3 34//3 35//4 
f 23//3 22//2 31//2 34//3 
s 2
f 43//1 42//2 63//2 64//1 
f 42//2 44//3 65//3 63//2 
f 44//3 45//4 66//4 65//3 
f 45//4 46//5 67//5 66//4 
f 46//5 47//15 68//15 67//5 
f 47//15 48//7 69//7 68//15 
f 48//7 49//8 70//8 69//7 
f 49//8 50//9 71//9 70//8 
f 50//9 51//10 72//10 71//9 
f 51//10 43//1 64//1 72//10 
s off
f 64//13 63//13 73//13 74//13 
f 63//13 65//13 75//13 73//13 
f 65//13 66//13 76//13 75//13 
f 66//13 67//13 77//13 76//13 
f 67//13 68//13 78//13 77//13 
f 68//16 69//16 79//16 78//16 
f 69//13 70//13 80//13 79//13 
f 70//13 71//13 81//13 80//13 
f 71//13 72//13 82//13 81//13 
f 72//17 64//17 74//17 82//17 
s 4
f 74//18 73//2 83//2 84//18 
f 73//2 75//3 85//3 83//2 
f 75//3 76//4 86//4 85//3 
f 76//4 77//5 87//5 86//4 
f 77//5 78//15 88//15 87//5 
f 78//15 79//7 89//7 88//15 
f 79//7 80//8 90//8 89//7 
f 80//8 81//9 91//9 90//8 
f 81//9 82//10 92//10 91//9 
f 82//10 74//18 84//18 92//10 
s off
f 84//13 83//13 93//13 94//13 
f 83//13 85//13 95//13 93//13 
f 85//13 86//13 96//13 95//13 
f 86//13 87//13 97//13 96//13 
f 87//13 88//13 98//13 97//13 
f 88//16 89//16 99//16 98//16 
f 89//13 90//13 100//13 99//13 
f 90//13 91//13 101//13 100//13 
f 91//13 92//13 102//13 101//13 
f 92//17 84//17 94//17 102//17 
s 2
f 94//6 93//7 53//7 52//6 
f 93//7 95//8 55//8 53//7 
f 95//8 96//9 56//9 55//8 
f 96//9 97//10 57//10 56//9 
f 97//10 98//1 58//1 57//10 
f 98//1 99//2 59//2 58//1 
f 99//2 100//3 60//3 59//2 
f 100//3 101//4 61//4 60//3 
f 101//4 102//5 62//5 61//4 
f 102//5 94//6 52//6 62//5 
s 1024
f 103//19 104//19 105//19 106//19 
f 104//20 107//20 108//20 105//20 
f 107//21 109//21 110//21 108//21 
f 109//22 111//22 112//22 110//22 
f 111//23 113//23 114//23 112//23 
f 113//24 115//24 116//24 114//24 
f 115//25 117//25 118//25 116//25 
f 117//17 119//17 120//17 118//17 
f 119//26 121//26 122//26 120//26 
f 121//27 103//27 106//27 122//27 
s 1
f 104//28 103//28 123//28 
f 107//29 104//29 123//29 
f 109//29 107//29 123//29 
f 111//30 109//30 123//30 
f 113//28 111//28 123//28 
f 115//28 113//28 123//28 
f 117//29 115//29 123//29 
f 119//29 117//29 123//29 
f 121//30 119//30 123//30 
f 103//28 121//28 123//28 
f 106//31 105//31 124//31 
f 105//31 108//31 124//31 
f 108//31 110//31 124//31 
f 110//31 112//31 124//31 
f 112//31 114//31 124//31 
f 114//31 116//31 124//31 
f 116//31 118//31 124//31 
f 118//31 120//31 124//31 
f 120//31 122//31 124//31 
f 122//31 106//31 124//31 
# 100 polygons - 40 triangles

#
# object llave_cuba_2
#

v  0.0410 -0.1465 -0.0048
v  0.0332 -0.1224 -0.0048
v  0.0332 -0.1224 0.0002
v  0.0410 -0.1465 0.0002
v  0.0127 -0.1075 -0.0048
v  0.0127 -0.1075 0.0002
v  -0.0127 -0.1075 -0.0048
v  -0.0127 -0.1075 0.0002
v  -0.0332 -0.1224 -0.0048
v  -0.0332 -0.1224 0.0002
v  -0.0410 -0.1465 -0.0048
v  -0.0410 -0.1465 0.0002
v  -0.0332 -0.1706 -0.0048
v  -0.0332 -0.1706 0.0002
v  -0.0127 -0.1855 -0.0048
v  -0.0127 -0.1855 0.0002
v  0.0127 -0.1855 -0.0048
v  0.0127 -0.1855 0.0002
v  0.0332 -0.1706 -0.0048
v  0.0332 -0.1706 0.0002
v  0.0236 -0.1465 -0.0048
v  0.0191 -0.1326 -0.0048
v  0.0073 -0.1240 -0.0048
v  -0.0073 -0.1240 -0.0048
v  -0.0191 -0.1326 -0.0048
v  -0.0236 -0.1465 -0.0048
v  -0.0191 -0.1604 -0.0048
v  -0.0073 -0.1690 -0.0048
v  0.0073 -0.1690 -0.0048
v  0.0191 -0.1604 -0.0048
v  0.0191 -0.1326 -0.0677
v  0.0236 -0.1465 -0.0677
v  -0.0000 -0.1465 -0.0677
v  0.0073 -0.1240 -0.0677
v  -0.0073 -0.1240 -0.0677
v  -0.0191 -0.1326 -0.0677
v  -0.0236 -0.1465 -0.0677
v  -0.0191 -0.1604 -0.0677
v  -0.0073 -0.1690 -0.0677
v  0.0073 -0.1690 -0.0677
v  0.0191 -0.1604 -0.0677
v  0.0256 -0.1279 0.0002
v  0.0316 -0.1465 0.0002
v  0.0098 -0.1164 0.0002
v  -0.0098 -0.1164 0.0002
v  -0.0256 -0.1279 0.0002
v  -0.0316 -0.1465 0.0002
v  -0.0256 -0.1651 0.0002
v  -0.0098 -0.1766 0.0002
v  0.0098 -0.1766 0.0002
v  0.0256 -0.1651 0.0002
v  0.0200 -0.1465 0.0448
v  0.0162 -0.1347 0.0448
v  0.0000 -0.1465 0.0448
v  0.0062 -0.1275 0.0448
v  -0.0062 -0.1275 0.0448
v  -0.0162 -0.1347 0.0448
v  -0.0200 -0.1465 0.0448
v  -0.0162 -0.1583 0.0448
v  -0.0062 -0.1655 0.0448
v  0.0062 -0.1655 0.0448
v  0.0162 -0.1583 0.0448
v  0.0256 -0.1279 0.0396
v  0.0316 -0.1465 0.0396
v  0.0098 -0.1164 0.0396
v  -0.0098 -0.1164 0.0396
v  -0.0256 -0.1279 0.0396
v  -0.0316 -0.1465 0.0396
v  -0.0256 -0.1651 0.0396
v  -0.0098 -0.1766 0.0396
v  0.0098 -0.1766 0.0396
v  0.0256 -0.1651 0.0396
v  0.0204 -0.1317 0.0396
v  0.0252 -0.1465 0.0396
v  0.0078 -0.1226 0.0396
v  -0.0078 -0.1226 0.0396
v  -0.0204 -0.1317 0.0396
v  -0.0252 -0.1465 0.0396
v  -0.0204 -0.1613 0.0396
v  -0.0078 -0.1704 0.0396
v  0.0078 -0.1704 0.0396
v  0.0204 -0.1613 0.0396
v  0.0204 -0.1317 0.0566
v  0.0252 -0.1465 0.0566
v  0.0078 -0.1226 0.0566
v  -0.0078 -0.1226 0.0566
v  -0.0204 -0.1317 0.0566
v  -0.0252 -0.1465 0.0566
v  -0.0204 -0.1613 0.0566
v  -0.0078 -0.1704 0.0566
v  0.0078 -0.1704 0.0566
v  0.0204 -0.1613 0.0566
v  0.0162 -0.1347 0.0566
v  0.0200 -0.1465 0.0566
v  0.0062 -0.1275 0.0566
v  -0.0062 -0.1275 0.0566
v  -0.0162 -0.1347 0.0566
v  -0.0200 -0.1465 0.0566
v  -0.0162 -0.1583 0.0566
v  -0.0062 -0.1655 0.0566
v  0.0062 -0.1655 0.0566
v  0.0162 -0.1583 0.0566
v  0.0070 -0.1171 0.0172
v  0.0057 -0.1171 0.0131
v  0.0057 -0.1061 0.0131
v  0.0070 -0.1061 0.0172
v  0.0022 -0.1171 0.0105
v  0.0022 -0.1061 0.0105
v  -0.0022 -0.1171 0.0105
v  -0.0022 -0.1061 0.0105
v  -0.0057 -0.1171 0.0131
v  -0.0057 -0.1061 0.0131
v  -0.0070 -0.1171 0.0172
v  -0.0070 -0.1061 0.0172
v  -0.0057 -0.1171 0.0213
v  -0.0057 -0.1061 0.0213
v  -0.0022 -0.1171 0.0238
v  -0.0022 -0.1061 0.0238
v  0.0022 -0.1171 0.0238
v  0.0022 -0.1061 0.0238
v  0.0057 -0.1171 0.0213
v  0.0057 -0.1061 0.0213
v  0.0000 -0.1171 0.0172
v  0.0000 -0.1061 0.0172
# 124 vertices

vn 1.0000 0.0000 0.0000
vn 0.8090 0.5878 0.0000
vn 0.3090 0.9511 0.0000
vn -0.3090 0.9511 0.0000
vn -0.8090 0.5878 0.0000
vn -1.0000 -0.0000 -0.0000
vn -0.8090 -0.5878 -0.0000
vn -0.3090 -0.9511 -0.0000
vn 0.3090 -0.9511 -0.0000
vn 0.8090 -0.5878 -0.0000
vn 0.0000 0.0000 -1.0000
vn -0.0000 0.0000 -1.0000
vn 0.0000 -0.0000 1.0000
vn -0.0000 -0.0000 1.0000
vn -1.0000 -0.0000 0.0000
vn -0.0000 0.0000 1.0000
vn 0.0000 0.0000 1.0000
vn 1.0000 0.0000 -0.0000
vn 0.9511 -0.0000 -0.3090
vn 0.5878 -0.0000 -0.8090
vn 0.0000 -0.0000 -1.0000
vn -0.5878 -0.0000 -0.8090
vn -0.9511 -0.0000 -0.3090
vn -0.9511 0.0000 0.3090
vn -0.5878 0.0000 0.8090
vn 0.5878 0.0000 0.8090
vn 0.9511 0.0000 0.3090
vn 0.0000 -1.0000 -0.0000
vn 0.0000 -1.0000 0.0000
vn -0.0000 -1.0000 0.0000
vn 0.0000 1.0000 0.0000
# 31 vertex normals

g llave_cuba_2
s 8
f 125//32 126//33 127//33 128//32 
f 126//33 129//34 130//34 127//33 
f 129//34 131//35 132//35 130//34 
f 131//35 133//36 134//36 132//35 
f 133//36 135//37 136//37 134//36 
f 135//37 137//38 138//38 136//37 
f 137//38 139//39 140//39 138//38 
f 139//39 141//40 142//40 140//39 
f 141//40 143//41 144//41 142//40 
f 143//41 125//32 128//32 144//41 
s 2
f 126//42 125//42 145//42 146//42 
f 129//42 126//42 146//42 147//42 
f 131//43 129//42 147//42 148//43 
f 133//43 131//43 148//43 149//43 
f 135//42 133//43 149//43 150//42 
f 137//42 135//42 150//42 151//42 
f 139//42 137//42 151//42 152//42 
f 141//43 139//42 152//42 153//43 
f 143//43 141//43 153//43 154//43 
f 125//42 143//43 154//43 145//42 
s 1
f 155//42 156//42 157//42 
f 158//42 155//42 157//42 
f 159//42 158//42 157//42 
f 160//42 159//42 157//42 
f 161//42 160//42 157//42 
f 162//42 161//42 157//42 
f 163//42 162//42 157//42 
f 164//42 163//42 157//42 
f 165//42 164//42 157//42 
f 156//42 165//42 157//42 
f 128//44 127//45 166//45 167//44 
f 127//45 130//45 168//45 166//45 
f 130//45 132//44 169//44 168//45 
f 132//44 134//44 170//44 169//44 
f 134//44 136//45 171//45 170//44 
f 136//45 138//45 172//45 171//45 
f 138//45 140//45 173//45 172//45 
f 140//45 142//44 174//44 173//45 
f 142//44 144//44 175//44 174//44 
f 144//44 128//44 167//44 175//44 
f 176//44 177//44 178//44 
f 177//44 179//44 178//44 
f 179//44 180//44 178//44 
f 180//44 181//44 178//44 
f 181//44 182//44 178//44 
f 182//44 183//44 178//44 
f 183//44 184//44 178//44 
f 184//44 185//44 178//44 
f 185//44 186//44 178//44 
f 186//44 176//44 178//44 
s 256
f 146//33 145//32 156//32 155//33 
f 145//32 154//41 165//41 156//32 
f 154//41 153//40 164//40 165//41 
f 153//40 152//39 163//39 164//40 
f 152//39 151//38 162//38 163//39 
f 151//38 150//37 161//37 162//38 
f 150//37 149//36 160//36 161//37 
f 149//36 148//35 159//35 160//36 
f 148//35 147//34 158//34 159//35 
f 147//34 146//33 155//33 158//34 
s 2
f 167//32 166//33 187//33 188//32 
f 166//33 168//34 189//34 187//33 
f 168//34 169//35 190//35 189//34 
f 169//35 170//36 191//36 190//35 
f 170//36 171//46 192//46 191//36 
f 171//46 172//38 193//38 192//46 
f 172//38 173//39 194//39 193//38 
f 173//39 174//40 195//40 194//39 
f 174//40 175//41 196//41 195//40 
f 175//41 167//32 188//32 196//41 
s off
f 188//44 187//44 197//44 198//44 
f 187//44 189//44 199//44 197//44 
f 189//44 190//44 200//44 199//44 
f 190//44 191//44 201//44 200//44 
f 191//44 192//44 202//44 201//44 
f 192//47 193//47 203//47 202//47 
f 193//44 194//44 204//44 203//44 
f 194//44 195//44 205//44 204//44 
f 195//44 196//44 206//44 205//44 
f 196//48 188//48 198//48 206//48 
s 4
f 198//49 197//33 207//33 208//49 
f 197//33 199//34 209//34 207//33 
f 199//34 200//35 210//35 209//34 
f 200//35 201//36 211//36 210//35 
f 201//36 202//46 212//46 211//36 
f 202//46 203//38 213//38 212//46 
f 203//38 204//39 214//39 213//38 
f 204//39 205//40 215//40 214//39 
f 205//40 206//41 216//41 215//40 
f 206//41 198//49 208//49 216//41 
s off
f 208//44 207//44 217//44 218//44 
f 207//44 209//44 219//44 217//44 
f 209//44 210//44 220//44 219//44 
f 210//44 211//44 221//44 220//44 
f 211//44 212//44 222//44 221//44 
f 212//47 213//47 223//47 222//47 
f 213//44 214//44 224//44 223//44 
f 214//44 215//44 225//44 224//44 
f 215//44 216//44 226//44 225//44 
f 216//48 208//48 218//48 226//48 
s 2
f 218//37 217//38 177//38 176//37 
f 217//38 219//39 179//39 177//38 
f 219//39 220//40 180//40 179//39 
f 220//40 221//41 181//41 180//40 
f 221//41 222//32 182//32 181//41 
f 222//32 223//33 183//33 182//32 
f 223//33 224//34 184//34 183//33 
f 224//34 225//35 185//35 184//34 
f 225//35 226//36 186//36 185//35 
f 226//36 218//37 176//37 186//36 
s 1024
f 227//50 228//50 229//50 230//50 
f 228//51 231//51 232//51 229//51 
f 231//52 233//52 234//52 232//52 
f 233//53 235//53 236//53 234//53 
f 235//54 237//54 238//54 236//54 
f 237//55 239//55 240//55 238//55 
f 239//56 241//56 242//56 240//56 
f 241//48 243//48 244//48 242//48 
f 243//57 245//57 246//57 244//57 
f 245//58 227//58 230//58 246//58 
s 1
f 228//59 227//59 247//59 
f 231//60 228//60 247//60 
f 233//60 231//60 247//60 
f 235//61 233//61 247//61 
f 237//59 235//59 247//59 
f 239//59 237//59 247//59 
f 241//60 239//60 247//60 
f 243//60 241//60 247//60 
f 245//61 243//61 247//61 
f 227//59 245//59 247//59 
f 230//62 229//62 248//62 
f 229//62 232//62 248//62 
f 232//62 234//62 248//62 
f 234//62 236//62 248//62 
f 236//62 238//62 248//62 
f 238//62 240//62 248//62 
f 240//62 242//62 248//62 
f 242//62 244//62 248//62 
f 244//62 246//62 248//62 
f 246//62 230//62 248//62 
# 100 polygons - 40 triangles

