# Wavefront Obj file
# 
# verts: 104 uv-s: 264
mtllib canal de salida.mtl

g tanque_de_floculacion015

v -0.765300 1.443400 0.710900
v 0.765300 1.443400 0.710900
v -0.765300 1.443400 -4.151400
v 0.765300 1.443400 -4.151400
v -0.738400 -0.539000 0.687200
v 0.738400 -0.539000 0.687200
v -0.738400 -0.539000 -4.127700
v 0.738400 -0.539000 -4.127700
v -0.696800 1.443400 -0.379400
v -0.451600 1.443400 -1.286700
v -0.451600 1.443400 -2.153800
v -0.696800 1.443400 -3.061100
v 0.696800 1.443400 -3.061100
v 0.451600 1.443400 -2.153800
v 0.451600 1.443400 -1.286700
v 0.696800 1.443400 -0.379400
v -0.642200 -0.563100 -0.368700
v -0.387100 -0.572300 -1.278200
v -0.387100 -0.572300 -2.162300
v -0.642200 -0.563100 -3.071800
v 0.642200 -0.563100 -3.071800
v 0.387100 -0.572300 -2.162300
v 0.387100 -0.572300 -1.278200
v 0.642200 -0.563100 -0.368700
v -0.615300 1.443400 0.578500
v 0.615300 1.443400 0.578500
v -0.615300 1.443400 -4.019000
v 0.615300 1.443400 -4.019000
v -0.615300 -0.424700 0.578500
v 0.615300 -0.424700 0.578500
v -0.615300 -0.424700 -4.019000
v 0.615300 -0.424700 -4.019000
v -0.500500 1.443400 -0.341000
v -0.253300 1.443400 -1.260500
v -0.253300 1.443400 -2.180000
v -0.500500 1.443400 -3.099500
v 0.500500 1.443400 -3.099500
v 0.253300 1.443400 -2.180000
v 0.253300 1.443400 -1.260500
v 0.500500 1.443400 -0.341000
v -0.500500 -0.424700 -0.341000
v -0.253300 -0.424700 -1.260500
v -0.253300 -0.424700 -2.180000
v -0.500500 -0.424700 -3.099500
v 0.500500 -0.424700 -3.099500
v 0.253300 -0.424700 -2.180000
v 0.253300 -0.424700 -1.260500
v 0.500500 -0.424700 -0.341000
v -0.615300 1.463800 0.578500
v 0.615300 1.463800 0.578500
v -0.530500 1.463800 -0.100400
v 0.530500 1.463800 -0.100400
v -0.615300 1.343800 0.578500
v 0.615300 1.343800 0.578500
v -0.530500 1.343800 -0.100400
v 0.530500 1.343800 -0.100400
v -0.500500 1.345300 -3.069500
v -0.500500 1.371300 -3.084500
v -0.500500 1.371300 -3.114500
v -0.500500 1.345300 -3.129500
v -0.500500 1.319300 -3.114500
v -0.500500 1.319300 -3.084500
v 0.500500 1.345300 -3.069500
v 0.500500 1.371300 -3.084500
v 0.500500 1.371300 -3.114500
v 0.500500 1.345300 -3.129500
v 0.500500 1.319300 -3.114500
v 0.500500 1.319300 -3.084500
v -0.253300 1.345300 -2.150000
v -0.253300 1.371300 -2.165000
v -0.253300 1.371300 -2.195000
v -0.253300 1.345300 -2.210000
v -0.253300 1.319300 -2.195000
v -0.253300 1.319300 -2.165000
v 0.253300 1.345300 -2.150000
v 0.253300 1.371300 -2.165000
v 0.253300 1.371300 -2.195000
v 0.253300 1.345300 -2.210000
v 0.253300 1.319300 -2.195000
v 0.253300 1.319300 -2.165000
v -0.253300 1.345300 -1.230500
v -0.253300 1.371300 -1.245500
v -0.253300 1.371300 -1.275500
v -0.253300 1.345300 -1.290500
v -0.253300 1.319300 -1.275500
v -0.253300 1.319300 -1.245500
v 0.253300 1.345300 -1.230500
v 0.253300 1.371300 -1.245500
v 0.253300 1.371300 -1.275500
v 0.253300 1.345300 -1.290500
v 0.253300 1.319300 -1.275500
v 0.253300 1.319300 -1.245500
v -0.500500 1.345300 -0.311000
v -0.500500 1.371300 -0.326000
v -0.500500 1.371300 -0.356000
v -0.500500 1.345300 -0.371000
v -0.500500 1.319300 -0.356000
v -0.500500 1.319300 -0.326000
v 0.500500 1.345300 -0.311000
v 0.500500 1.371300 -0.326000
v 0.500500 1.371300 -0.356000
v 0.500500 1.345300 -0.371000
v 0.500500 1.319300 -0.356000
v 0.500500 1.319300 -0.326000
# 104 positions

vt 0.311189 0.142355
vt 0.311189 0.224187
vt 0.217741 0.224187
vt 0.217741 0.142355
vt 0.527773 0.035790
vt 0.737326 0.038633
vt 0.737326 0.194729
vt 0.527773 0.197572
vt 0.010000 0.686306
vt 0.223057 0.687205
vt 0.223057 0.778856
vt 0.010000 0.779754
vt 0.599190 0.204413
vt 0.808743 0.207256
vt 0.808743 0.363352
vt 0.599190 0.366196
vt 0.229413 0.686306
vt 0.442470 0.687204
vt 0.442470 0.778856
vt 0.229413 0.779754
vt 0.518929 0.105223
vt 0.518929 0.261319
vt 0.407322 0.251151
vt 0.407322 0.115391
vt 0.121607 0.251151
vt 0.010000 0.261319
vt 0.010000 0.105223
vt 0.121607 0.115391
vt 0.013520 0.478566
vt 0.223057 0.476061
vt 0.223057 0.591304
vt 0.010972 0.590173
vt 0.223057 0.990000
vt 0.013520 0.987495
vt 0.010972 0.875888
vt 0.223057 0.874757
vt 0.232932 0.478566
vt 0.442470 0.476061
vt 0.442470 0.591304
vt 0.230385 0.590173
vt 0.442470 0.990000
vt 0.232932 0.987495
vt 0.230385 0.875888
vt 0.442470 0.874757
vt 0.698430 0.403364
vt 0.795620 0.403364
vt 0.795620 0.456911
vt 0.698430 0.456911
vt 0.942389 0.834339
vt 0.812316 0.834339
vt 0.812316 0.636883
vt 0.942389 0.636883
vt 0.648785 0.698430
vt 0.648785 0.795620
vt 0.451329 0.795620
vt 0.451329 0.698430
vt 0.948340 0.358225
vt 0.818267 0.358225
vt 0.818267 0.160769
vt 0.948340 0.160769
vt 0.301570 0.467335
vt 0.204380 0.467335
vt 0.204380 0.269879
vt 0.301570 0.269879
vt 0.892810 0.377236
vt 0.990000 0.365101
vt 0.990000 0.495174
vt 0.892810 0.483040
vt 0.504050 0.495174
vt 0.504050 0.365101
vt 0.601240 0.377236
vt 0.601240 0.483040
vt 0.648785 0.892810
vt 0.648785 0.990000
vt 0.451329 0.990000
vt 0.451329 0.892810
vt 0.451329 0.601240
vt 0.451329 0.504050
vt 0.648785 0.504050
vt 0.648785 0.601240
vt 0.107190 0.467335
vt 0.010000 0.467335
vt 0.010000 0.269879
vt 0.107190 0.269879
vt 0.398760 0.269879
vt 0.495950 0.269879
vt 0.495950 0.467335
vt 0.398760 0.467335
vt 0.657610 0.476060
vt 0.819393 0.476060
vt 0.803538 0.490055
vt 0.673465 0.490055
vt 0.786235 0.687204
vt 0.786235 0.778856
vt 0.765275 0.781625
vt 0.765275 0.684435
vt 0.819393 0.990000
vt 0.657610 0.990000
vt 0.673465 0.976006
vt 0.803538 0.976006
vt 0.690768 0.778856
vt 0.690768 0.687204
vt 0.711728 0.684435
vt 0.711728 0.781625
vt 0.812152 0.874757
vt 0.791404 0.878816
vt 0.812152 0.591304
vt 0.791404 0.587245
vt 0.664850 0.591304
vt 0.685599 0.587245
vt 0.664850 0.874757
vt 0.685599 0.878816
vt 0.898745 0.506980
vt 0.898745 0.619126
vt 0.826986 0.628089
vt 0.826986 0.498016
vt 0.898745 0.990000
vt 0.826986 0.981037
vt 0.826986 0.868890
vt 0.898745 0.859927
vt 0.579352 0.250971
vt 0.579352 0.363117
vt 0.566668 0.363117
vt 0.566668 0.250971
vt 0.721405 0.846082
vt 0.721405 0.773765
vt 0.734089 0.773765
vt 0.734089 0.846082
vt 0.668623 0.699239
vt 0.668623 0.829312
vt 0.655940 0.829312
vt 0.655940 0.699239
vt 0.721405 0.766730
vt 0.721405 0.694413
vt 0.734089 0.694413
vt 0.734089 0.766730
vt 0.554327 0.255992
vt 0.554327 0.361796
vt 0.551579 0.361796
vt 0.551579 0.255992
vt 0.679730 0.679863
vt 0.679730 0.785668
vt 0.676559 0.785668
vt 0.676559 0.679863
vt 0.534180 0.359813
vt 0.534180 0.254008
vt 0.536928 0.254008
vt 0.536928 0.359813
vt 0.539676 0.254008
vt 0.539676 0.359813
vt 0.590458 0.259960
vt 0.590458 0.365764
vt 0.587287 0.365764
vt 0.587287 0.259960
vt 0.557075 0.255992
vt 0.557075 0.361796
vt 0.479373 0.490081
vt 0.482544 0.490081
vt 0.484130 0.492829
vt 0.482544 0.495578
vt 0.479373 0.495578
vt 0.477788 0.492829
vt 0.490535 0.484918
vt 0.490535 0.481747
vt 0.493284 0.480162
vt 0.493284 0.486504
vt 0.496032 0.484918
vt 0.496032 0.481747
vt 0.727373 0.686478
vt 0.727373 0.632931
vt 0.730121 0.632931
vt 0.730121 0.686478
vt 0.692445 0.387720
vt 0.745992 0.387720
vt 0.745992 0.390891
vt 0.692445 0.390891
vt 0.657176 0.690429
vt 0.657176 0.636883
vt 0.659924 0.636883
vt 0.659924 0.690429
vt 0.662672 0.636883
vt 0.662672 0.690429
vt 0.644818 0.495235
vt 0.591271 0.495235
vt 0.591271 0.492065
vt 0.644818 0.492065
vt 0.724625 0.686478
vt 0.724625 0.632931
vt 0.451600 0.476194
vt 0.454771 0.476194
vt 0.456356 0.478943
vt 0.454771 0.481691
vt 0.451600 0.481691
vt 0.450014 0.478943
vt 0.464746 0.480951
vt 0.464746 0.477780
vt 0.467494 0.476194
vt 0.467494 0.482536
vt 0.470243 0.480951
vt 0.470243 0.477780
vt 0.507171 0.357166
vt 0.507171 0.303619
vt 0.509919 0.303619
vt 0.509919 0.357166
vt 0.518651 0.357150
vt 0.518651 0.303603
vt 0.521822 0.303603
vt 0.521822 0.357150
vt 0.721731 0.914632
vt 0.721731 0.968178
vt 0.718983 0.968178
vt 0.718983 0.914632
vt 0.716235 0.968178
vt 0.716235 0.914632
vt 0.717032 0.906680
vt 0.717032 0.853133
vt 0.720202 0.853133
vt 0.720202 0.906680
vt 0.504423 0.357166
vt 0.504423 0.303619
vt 0.451600 0.490081
vt 0.454771 0.490081
vt 0.456356 0.492829
vt 0.454771 0.495578
vt 0.451600 0.495578
vt 0.450014 0.492829
vt 0.464746 0.494837
vt 0.464746 0.491667
vt 0.467494 0.490081
vt 0.467494 0.496423
vt 0.470243 0.494837
vt 0.470243 0.491667
vt 0.751943 0.375785
vt 0.646139 0.375785
vt 0.646139 0.373037
vt 0.751943 0.373037
vt 0.701161 0.605805
vt 0.701161 0.500000
vt 0.704332 0.500000
vt 0.704332 0.605805
vt 0.707844 0.862374
vt 0.707844 0.968178
vt 0.705096 0.968178
vt 0.705096 0.862374
vt 0.702348 0.968178
vt 0.702348 0.862374
vt 0.713064 0.648785
vt 0.713064 0.542981
vt 0.716235 0.542981
vt 0.716235 0.648785
vt 0.751943 0.378533
vt 0.646139 0.378533
vt 0.657916 0.849150
vt 0.661086 0.849150
vt 0.662672 0.851898
vt 0.661086 0.854647
vt 0.657916 0.854647
vt 0.656330 0.851898
vt 0.657915 0.623451
vt 0.661086 0.623451
vt 0.662672 0.626200
vt 0.656330 0.626200
vt 0.657915 0.628947
vt 0.661086 0.628947
# 264 texture coordinates

vn 0.000000 -0.999985 -0.005534
vn 0.000000 -0.999985 -0.005534
vn 0.000000 -0.999985 0.005534
vn 0.000000 -0.999985 0.005534
vn 0.000000 -0.011954 0.999929
vn 0.000000 -0.011954 0.999929
vn 0.000000 -0.011954 0.999929
vn 0.000000 -0.011954 0.999929
vn 0.989969 -0.031140 0.137811
vn 0.989774 -0.031128 0.139209
vn 0.989774 -0.031128 -0.139209
vn 0.989969 -0.031140 -0.137811
vn 0.000000 -0.011954 -0.999929
vn 0.000000 -0.011954 -0.999929
vn 0.000000 -0.011954 -0.999929
vn 0.000000 -0.011954 -0.999929
vn -0.989969 -0.031140 -0.137811
vn -0.989774 -0.031128 -0.139209
vn -0.989774 -0.031128 0.139209
vn -0.989969 -0.031140 0.137811
vn 0.000000 -0.999740 -0.022818
vn 0.000000 -0.999740 -0.022818
vn 0.000000 -0.999843 -0.017711
vn 0.000000 -0.999843 -0.017711
vn 0.000000 -0.999843 0.017711
vn 0.000000 -0.999740 0.022818
vn 0.000000 -0.999740 0.022818
vn 0.000000 -0.999843 0.017711
vn 0.996884 -0.020119 0.076275
vn 0.996884 -0.020119 0.076275
vn 0.986073 -0.024714 0.164466
vn 0.985639 -0.024845 0.167027
vn 0.996884 -0.020119 -0.076275
vn 0.996884 -0.020119 -0.076275
vn 0.985639 -0.024845 -0.167027
vn 0.986073 -0.024714 -0.164466
vn -0.996884 -0.020119 -0.076275
vn -0.996884 -0.020119 -0.076275
vn -0.986073 -0.024714 -0.164466
vn -0.985639 -0.024845 -0.167027
vn -0.996884 -0.020119 0.076275
vn -0.996884 -0.020119 0.076275
vn -0.985639 -0.024845 0.167027
vn -0.986073 -0.024714 0.164466
vn 0.000000 1.000000 0.000000
vn 0.000000 1.000000 0.000000
vn 0.000000 1.000000 0.000000
vn 0.000000 1.000000 0.000000
vn 0.000000 0.000000 -1.000000
vn 0.000000 0.000000 -1.000000
vn 0.000000 0.000000 -1.000000
vn 0.000000 0.000000 -1.000000
vn -0.991086 0.000000 0.133223
vn -0.991086 0.000000 -0.133223
vn -0.991086 0.000000 -0.133223
vn -0.991086 0.000000 0.133223
vn 0.000000 0.000000 1.000000
vn 0.000000 0.000000 1.000000
vn 0.000000 0.000000 1.000000
vn 0.000000 0.000000 1.000000
vn 0.991086 0.000000 -0.133223
vn 0.991086 0.000000 0.133223
vn 0.991086 0.000000 0.133223
vn 0.991086 0.000000 -0.133223
vn 0.000000 1.000000 0.000000
vn 0.000000 1.000000 0.000000
vn 0.000000 1.000000 0.000000
vn 0.000000 1.000000 0.000000
vn 0.000000 1.000000 0.000000
vn 0.000000 1.000000 0.000000
vn 0.000000 1.000000 0.000000
vn 0.000000 1.000000 0.000000
vn -0.981171 0.000000 -0.193140
vn -0.992296 0.000000 -0.123889
vn -0.992296 0.000000 -0.123889
vn -0.981171 0.000000 -0.193140
vn -0.981171 0.000000 0.193140
vn -0.992296 0.000000 0.123889
vn -0.992296 0.000000 0.123889
vn -0.981171 0.000000 0.193140
vn 0.981171 0.000000 0.193140
vn 0.992296 0.000000 0.123889
vn 0.992296 0.000000 0.123889
vn 0.981171 0.000000 0.193140
vn 0.981171 0.000000 -0.193140
vn 0.992296 0.000000 -0.123889
vn 0.992296 0.000000 -0.123889
vn 0.981171 0.000000 -0.193140
vn 0.000000 1.000000 0.000000
vn 0.000000 1.000000 0.000000
vn 0.000000 1.000000 0.000000
vn 0.000000 1.000000 0.000000
vn 0.000000 1.000000 0.000000
vn 0.000000 1.000000 0.000000
vn 0.000000 1.000000 0.000000
vn 0.000000 1.000000 0.000000
vn 0.000000 1.000000 0.000000
vn 0.000000 1.000000 0.000000
vn 0.000000 1.000000 0.000000
vn 0.000000 1.000000 0.000000
vn 0.000000 1.000000 0.000000
vn 0.000000 1.000000 0.000000
vn 0.000000 1.000000 0.000000
vn 0.000000 1.000000 0.000000
vn 0.000000 1.000000 0.000000
vn 0.000000 1.000000 0.000000
vn 0.000000 1.000000 0.000000
vn 0.000000 1.000000 0.000000
vn 0.000000 1.000000 0.000000
vn 0.000000 1.000000 0.000000
vn 0.000000 1.000000 0.000000
vn 0.000000 1.000000 0.000000
vn 0.000000 1.000000 0.000000
vn 0.000000 1.000000 0.000000
vn 0.000000 1.000000 0.000000
vn 0.000000 1.000000 0.000000
vn 0.000000 -1.000000 0.000000
vn 0.000000 -1.000000 0.000000
vn 0.000000 -1.000000 0.000000
vn 0.000000 -1.000000 0.000000
vn 0.000000 0.000000 -1.000000
vn 0.000000 0.000000 -1.000000
vn 0.000000 0.000000 -1.000000
vn 0.000000 0.000000 -1.000000
vn -0.992289 0.000000 -0.123945
vn -0.992289 0.000000 -0.123945
vn -0.992289 0.000000 -0.123945
vn -0.992289 0.000000 -0.123945
vn 0.000000 0.000000 1.000000
vn 0.000000 0.000000 1.000000
vn 0.000000 0.000000 1.000000
vn 0.000000 0.000000 1.000000
vn 0.992289 0.000000 -0.123945
vn 0.992289 0.000000 -0.123945
vn 0.992289 0.000000 -0.123945
vn 0.992289 0.000000 -0.123945
vn 0.000000 -0.000000 1.000000
vn 0.000000 -0.000000 1.000000
vn 0.000000 0.865865 0.500277
vn 0.000000 0.865865 0.500277
vn 0.000000 0.865864 -0.500279
vn 0.000000 0.865864 -0.500279
vn 0.000000 0.000000 -1.000000
vn 0.000000 0.000000 -1.000000
vn 0.000000 -0.865865 -0.500278
vn 0.000000 -0.865865 -0.500278
vn 0.000000 -0.865866 0.500276
vn 0.000000 -0.865866 0.500276
vn -1.000000 0.000000 0.000000
vn -1.000000 0.000000 0.000000
vn -1.000000 0.000000 0.000000
vn -1.000000 0.000000 0.000000
vn -1.000000 0.000000 0.000000
vn -1.000000 0.000000 0.000000
vn 1.000000 0.000000 0.000000
vn 1.000000 0.000000 0.000000
vn 1.000000 0.000000 0.000000
vn 1.000000 0.000000 0.000000
vn 1.000000 0.000000 0.000000
vn 1.000000 0.000000 0.000000
vn 0.000000 -0.000000 1.000000
vn 0.000000 -0.000000 1.000000
vn 0.000000 0.865864 0.500279
vn 0.000000 0.865864 0.500279
vn 0.000000 0.865865 -0.500277
vn 0.000000 0.865865 -0.500277
vn 0.000000 -0.000000 -1.000000
vn 0.000000 -0.000000 -1.000000
vn 0.000000 -0.865866 -0.500276
vn 0.000000 -0.865866 -0.500276
vn 0.000000 -0.865865 0.500278
vn 0.000000 -0.865865 0.500278
vn -1.000000 0.000000 0.000000
vn -1.000000 0.000000 0.000000
vn -1.000000 0.000000 0.000000
vn -1.000000 0.000000 0.000000
vn -1.000000 0.000000 0.000000
vn -1.000000 0.000000 0.000000
vn 1.000000 0.000000 0.000000
vn 1.000000 0.000000 0.000000
vn 1.000000 0.000000 0.000000
vn 1.000000 0.000000 0.000000
vn 1.000000 0.000000 0.000000
vn 1.000000 0.000000 0.000000
vn 0.000000 0.000000 1.000000
vn 0.000000 0.000000 1.000000
vn 0.000000 0.865865 0.500277
vn 0.000000 0.865865 0.500277
vn 0.000000 0.865865 -0.500277
vn 0.000000 0.865865 -0.500277
vn 0.000000 0.000000 -1.000000
vn 0.000000 0.000000 -1.000000
vn 0.000000 -0.865866 -0.500276
vn 0.000000 -0.865866 -0.500276
vn 0.000000 -0.865866 0.500276
vn 0.000000 -0.865866 0.500276
vn -1.000000 0.000000 0.000000
vn -1.000000 0.000000 0.000000
vn -1.000000 0.000000 0.000000
vn -1.000000 0.000000 0.000000
vn -1.000000 0.000000 0.000000
vn -1.000000 0.000000 0.000000
vn 1.000000 0.000000 0.000000
vn 1.000000 0.000000 0.000000
vn 1.000000 0.000000 0.000000
vn 1.000000 0.000000 0.000000
vn 1.000000 0.000000 0.000000
vn 1.000000 0.000000 0.000000
vn 0.000000 0.000000 1.000000
vn 0.000000 0.000000 1.000000
vn 0.000000 0.865865 0.500277
vn 0.000000 0.865865 0.500277
vn 0.000000 0.865865 -0.500278
vn 0.000000 0.865865 -0.500278
vn 0.000000 0.000000 -1.000000
vn 0.000000 0.000000 -1.000000
vn 0.000000 -0.865866 -0.500277
vn 0.000000 -0.865866 -0.500277
vn 0.000000 -0.865866 0.500276
vn 0.000000 -0.865866 0.500276
vn -1.000000 0.000000 0.000000
vn -1.000000 0.000000 0.000000
vn -1.000000 0.000000 0.000000
vn -1.000000 0.000000 0.000000
vn -1.000000 0.000000 0.000000
vn -1.000000 0.000000 0.000000
vn 1.000000 0.000000 0.000000
vn 1.000000 0.000000 0.000000
vn 1.000000 0.000000 0.000000
vn 1.000000 0.000000 0.000000
vn 1.000000 0.000000 0.000000
vn 1.000000 0.000000 0.000000
# 232 normals

usemtl default
s 1
f 19/1/1 22/2/2 23/3/3 18/4/4
f 7/21/21 8/22/22 21/23/23 20/24/24
f 20/24/24 21/23/23 22/2/2 19/1/1
f 24/25/25 6/26/26 5/27/27 17/28/28
f 24/25/25 17/28/28 18/4/4 23/3/3
s 2
f 1/5/5 5/6/6 6/7/7 2/8/8
s 3
f 22/9/9 14/10/10 15/11/11 23/12/12
f 8/29/29 4/30/30 13/31/31 21/32/32
f 21/32/32 13/31/31 14/10/10 22/9/9
f 2/33/33 6/34/34 24/35/35 16/36/36
f 16/36/36 24/35/35 23/12/12 15/11/11
s 4
f 4/13/13 8/14/14 7/15/15 3/16/16
s 5
f 18/17/17 10/18/18 11/19/19 19/20/20
f 5/37/37 1/38/38 9/39/39 17/40/40
f 17/40/40 9/39/39 10/18/18 18/17/17
f 3/41/41 7/42/42 20/43/43 12/44/44
f 12/44/44 20/43/43 19/20/20 11/19/19
s 6
f 47/45/45 46/46/46 43/47/47 42/48/48
f 45/65/65 32/66/66 31/67/67 44/68/68
f 46/46/46 45/65/65 44/68/68 43/47/47
f 29/69/69 30/70/70 48/71/71 41/72/72
f 42/48/48 41/72/72 48/71/71 47/45/45
s 7
f 30/49/49 29/50/50 25/51/51 26/52/52
s 8
f 39/53/53 38/54/54 46/55/55 47/56/56
f 37/73/73 28/74/74 32/75/75 45/76/76
f 38/54/54 37/73/73 45/76/76 46/55/55
f 48/77/77 30/78/78 26/79/79 40/80/80
f 47/56/56 48/77/77 40/80/80 39/53/53
s 9
f 31/57/57 32/58/58 28/59/59 27/60/60
s 10
f 35/61/61 34/62/62 42/63/63 43/64/64
f 33/81/81 25/82/82 29/83/83 41/84/84
f 34/62/62 33/81/81 41/84/84 42/63/63
f 44/85/85 31/86/86 27/87/87 36/88/88
f 43/64/64 44/85/85 36/88/88 35/61/61
s 11
f 1/89/89 2/90/90 26/91/91 25/92/92
f 15/93/93 14/94/94 38/95/95 39/96/96
f 4/97/97 3/98/98 27/99/99 28/100/100
f 11/101/101 10/102/102 34/103/103 35/104/104
f 13/105/105 4/97/97 28/100/100 37/106/106
f 14/94/94 13/105/105 37/106/106 38/95/95
f 2/90/90 16/107/107 40/108/108 26/91/91
f 16/107/107 15/93/93 39/96/96 40/108/108
f 9/109/109 1/89/89 25/92/92 33/110/110
f 10/102/102 9/109/109 33/110/110 34/103/103
f 3/98/98 12/111/111 36/112/112 27/99/99
f 12/111/111 11/101/101 35/104/104 36/112/112
s 12
f 52/113/113 51/114/114 49/115/115 50/116/116
s 13
f 53/117/117 55/118/118 56/119/119 54/120/120
s 14
f 51/121/121 52/122/122 56/123/123 55/124/124
s 15
f 49/125/125 51/126/126 55/127/127 53/128/128
s 16
f 50/129/129 49/130/130 53/131/131 54/132/132
s 17
f 52/133/133 50/134/134 54/135/135 56/136/136
s 18
f 57/137/137 63/138/138 64/139/139 58/140/140
f 58/141/140 64/142/139 65/143/141 59/144/142
f 59/145/142 65/146/141 66/147/143 60/148/144
f 60/148/144 66/147/143 67/149/145 61/150/146
f 61/151/146 67/152/145 68/153/147 62/154/148
f 62/155/148 68/156/147 63/138/138 57/137/137
s 19
f 58/157/149 59/158/150 60/159/151 61/160/152 62/161/153 57/162/154
s 20
f 65/163/155 64/164/156 63/165/157
f 66/166/158 65/163/155 63/165/157 67/167/159
s 21
f 68/168/160 67/167/159 63/165/157
s 22
f 69/169/161 75/170/162 76/171/163 70/172/164
f 70/173/164 76/174/163 77/175/165 71/176/166
f 71/177/166 77/178/165 78/179/167 72/180/168
f 72/180/168 78/179/167 79/181/169 73/182/170
f 73/183/170 79/184/169 80/185/171 74/186/172
f 74/187/172 80/188/171 75/170/162 69/169/161
s 23
f 70/189/173 71/190/174 72/191/175 73/192/176 74/193/177 69/194/178
s 24
f 77/195/179 76/196/180 75/197/181
f 78/198/182 77/195/179 75/197/181 79/199/183
s 25
f 80/200/184 79/199/183 75/197/181
s 26
f 81/201/185 87/202/186 88/203/187 82/204/188
f 82/205/188 88/206/187 89/207/189 83/208/190
f 83/209/190 89/210/189 90/211/191 84/212/192
f 84/212/192 90/211/191 91/213/193 85/214/194
f 85/215/194 91/216/193 92/217/195 86/218/196
f 86/219/196 92/220/195 87/202/186 81/201/185
s 27
f 82/221/197 83/222/198 84/223/199 85/224/200 86/225/201 81/226/202
s 28
f 89/227/203 88/228/204 87/229/205
f 90/230/206 89/227/203 87/229/205 91/231/207
s 29
f 92/232/208 91/231/207 87/229/205
s 30
f 93/233/209 99/234/210 100/235/211 94/236/212
f 94/237/212 100/238/211 101/239/213 95/240/214
f 95/241/214 101/242/213 102/243/215 96/244/216
f 96/244/216 102/243/215 103/245/217 97/246/218
f 97/247/218 103/248/217 104/249/219 98/250/220
f 98/251/220 104/252/219 99/234/210 93/233/209
s 31
f 94/253/221 95/254/222 96/255/223 97/256/224 98/257/225 93/258/226
s 32
f 101/259/227 100/260/228 99/261/229
f 102/262/230 101/259/227 99/261/229 103/263/231
s 33
f 104/264/232 103/263/231 99/261/229

# 92 faces
