# 3ds Max Wavefront OBJ Exporter v0.97b - (c)2007 guruware
# File Created: 20.12.2017 14:57:18

#
# object conector_tanques
#

v  -0.0947 -0.0097 -0.0273
v  -0.0947 -0.0185 -0.0222
v  -0.0947 -0.0251 -0.0144
v  -0.0947 -0.0285 -0.0049
v  -0.0947 -0.0285 0.0053
v  -0.0947 -0.0251 0.0148
v  -0.0947 -0.0185 0.0226
v  -0.0947 -0.0097 0.0277
v  -0.0947 0.0003 0.0295
v  -0.0947 0.0103 0.0277
v  -0.0947 0.0191 0.0226
v  -0.0947 0.0256 0.0148
v  -0.0947 0.0291 0.0053
v  -0.0947 0.0291 -0.0049
v  -0.0947 0.0256 -0.0144
v  -0.0947 0.0191 -0.0222
v  -0.0947 0.0103 -0.0273
v  -0.0947 0.0003 -0.0290
v  -0.0165 0.0103 -0.0273
v  -0.0165 0.0003 -0.0290
v  -0.0165 0.0191 -0.0222
v  -0.0165 0.0256 -0.0144
v  -0.0165 0.0291 -0.0049
v  -0.0165 0.0291 0.0053
v  -0.0165 0.0256 0.0148
v  -0.0165 0.0191 0.0226
v  -0.0165 0.0103 0.0277
v  -0.0165 0.0003 0.0295
v  -0.0165 -0.0097 0.0277
v  -0.0165 -0.0185 0.0226
v  -0.0165 -0.0251 0.0148
v  -0.0165 -0.0285 0.0053
v  -0.0165 -0.0285 -0.0049
v  -0.0165 -0.0251 -0.0144
v  -0.0165 -0.0185 -0.0222
v  -0.0165 -0.0097 -0.0273
v  -0.0158 -0.0065 -0.0183
v  -0.0158 0.0003 -0.0195
v  -0.0158 0.0070 -0.0183
v  -0.0158 0.0129 -0.0149
v  -0.0158 0.0173 -0.0096
v  -0.0158 0.0197 -0.0032
v  -0.0158 0.0197 0.0036
v  -0.0158 0.0173 0.0101
v  -0.0158 0.0129 0.0153
v  -0.0158 0.0070 0.0187
v  -0.0158 0.0003 0.0199
v  -0.0158 -0.0065 0.0187
v  -0.0158 -0.0124 0.0153
v  -0.0158 -0.0168 0.0101
v  -0.0158 -0.0191 0.0036
v  -0.0158 -0.0191 -0.0032
v  -0.0158 -0.0168 -0.0096
v  -0.0158 -0.0124 -0.0149
v  -0.0165 0.0003 -0.0546
v  -0.0165 0.0190 -0.0512
v  -0.0045 0.0190 -0.0512
v  -0.0045 0.0003 -0.0546
v  -0.0165 0.0355 -0.0417
v  -0.0045 0.0355 -0.0417
v  -0.0165 0.0477 -0.0272
v  -0.0045 0.0477 -0.0272
v  -0.0165 0.0542 -0.0093
v  -0.0045 0.0542 -0.0093
v  -0.0165 0.0542 0.0097
v  -0.0045 0.0542 0.0097
v  -0.0165 0.0477 0.0276
v  -0.0045 0.0477 0.0276
v  -0.0165 0.0355 0.0422
v  -0.0045 0.0355 0.0422
v  -0.0165 0.0190 0.0517
v  -0.0045 0.0190 0.0517
v  -0.0165 0.0003 0.0550
v  -0.0045 0.0003 0.0550
v  -0.0165 -0.0185 0.0517
v  -0.0045 -0.0185 0.0517
v  -0.0165 -0.0349 0.0422
v  -0.0045 -0.0349 0.0422
v  -0.0165 -0.0472 0.0276
v  -0.0045 -0.0472 0.0276
v  -0.0165 -0.0537 0.0097
v  -0.0045 -0.0537 0.0097
v  -0.0165 -0.0537 -0.0093
v  -0.0045 -0.0537 -0.0093
v  -0.0165 -0.0472 -0.0272
v  -0.0045 -0.0472 -0.0272
v  -0.0165 -0.0349 -0.0417
v  -0.0045 -0.0349 -0.0417
v  -0.0165 -0.0185 -0.0512
v  -0.0045 -0.0185 -0.0512
v  -0.0045 0.0003 -0.0290
v  -0.0045 0.0103 -0.0273
v  -0.0001 0.0103 -0.0273
v  -0.0001 0.0003 -0.0290
v  -0.0045 0.0191 -0.0222
v  -0.0001 0.0191 -0.0222
v  -0.0045 0.0256 -0.0144
v  -0.0001 0.0256 -0.0144
v  -0.0045 0.0291 -0.0049
v  -0.0001 0.0291 -0.0049
v  -0.0045 0.0291 0.0053
v  -0.0001 0.0291 0.0053
v  -0.0045 0.0256 0.0148
v  -0.0001 0.0256 0.0148
v  -0.0045 0.0191 0.0226
v  -0.0001 0.0191 0.0226
v  -0.0045 0.0103 0.0277
v  -0.0001 0.0103 0.0277
v  -0.0045 0.0003 0.0295
v  -0.0001 0.0003 0.0295
v  -0.0045 -0.0097 0.0277
v  -0.0001 -0.0097 0.0277
v  -0.0045 -0.0185 0.0226
v  -0.0001 -0.0185 0.0226
v  -0.0045 -0.0251 0.0148
v  -0.0001 -0.0251 0.0148
v  -0.0045 -0.0285 0.0053
v  -0.0001 -0.0285 0.0053
v  -0.0045 -0.0285 -0.0049
v  -0.0001 -0.0285 -0.0049
v  -0.0045 -0.0251 -0.0144
v  -0.0001 -0.0251 -0.0144
v  -0.0045 -0.0185 -0.0222
v  -0.0001 -0.0185 -0.0222
v  -0.0045 -0.0097 -0.0273
v  -0.0001 -0.0097 -0.0273
v  -0.0001 0.0003 -0.0546
v  -0.0001 0.0190 -0.0512
v  0.0111 0.0190 -0.0512
v  0.0111 0.0003 -0.0546
v  -0.0001 0.0355 -0.0417
v  0.0111 0.0355 -0.0417
v  -0.0001 0.0477 -0.0272
v  0.0111 0.0477 -0.0272
v  -0.0001 0.0542 -0.0093
v  0.0111 0.0542 -0.0093
v  -0.0001 0.0542 0.0097
v  0.0111 0.0542 0.0097
v  -0.0001 0.0477 0.0276
v  0.0111 0.0477 0.0276
v  -0.0001 0.0355 0.0422
v  0.0111 0.0355 0.0422
v  -0.0001 0.0190 0.0517
v  0.0111 0.0190 0.0517
v  -0.0001 0.0003 0.0550
v  0.0111 0.0003 0.0550
v  -0.0001 -0.0185 0.0517
v  0.0111 -0.0185 0.0517
v  -0.0001 -0.0349 0.0422
v  0.0111 -0.0349 0.0422
v  -0.0001 -0.0472 0.0276
v  0.0111 -0.0472 0.0276
v  -0.0001 -0.0537 0.0097
v  0.0111 -0.0537 0.0097
v  -0.0001 -0.0537 -0.0093
v  0.0111 -0.0537 -0.0093
v  -0.0001 -0.0472 -0.0272
v  0.0111 -0.0472 -0.0272
v  -0.0001 -0.0349 -0.0417
v  0.0111 -0.0349 -0.0417
v  -0.0001 -0.0185 -0.0512
v  0.0111 -0.0185 -0.0512
v  0.0111 0.0103 -0.0273
v  0.0111 0.0003 -0.0290
v  0.0111 -0.0097 -0.0273
v  0.0111 -0.0185 -0.0222
v  0.0111 -0.0251 -0.0144
v  0.0111 -0.0285 -0.0049
v  0.0111 -0.0285 0.0053
v  0.0111 -0.0251 0.0148
v  0.0111 -0.0185 0.0226
v  0.0111 -0.0097 0.0277
v  0.0111 0.0003 0.0295
v  0.0111 0.0103 0.0277
v  0.0111 0.0191 0.0226
v  0.0111 0.0256 0.0148
v  0.0111 0.0291 0.0053
v  0.0111 0.0291 -0.0049
v  0.0111 0.0256 -0.0144
v  0.0111 0.0191 -0.0222
# 180 vertices

vn -0.6701 -0.2539 -0.6975
vn -0.6701 -0.4772 -0.5686
vn -0.6700 -0.6429 -0.3712
vn -0.6700 -0.7311 -0.1289
vn -0.6700 -0.7311 0.1289
vn -0.6700 -0.6429 0.3712
vn -0.6700 -0.4772 0.5687
vn -0.6700 -0.2539 0.6976
vn -0.6701 -0.0000 0.7423
vn -0.6701 0.2539 0.6975
vn -0.6700 0.4772 0.5687
vn -0.6700 0.6429 0.3712
vn -0.6700 0.7311 0.1289
vn -0.6700 0.7311 -0.1289
vn -0.6700 0.6429 -0.3712
vn -0.6700 0.4772 -0.5687
vn -0.6701 0.2539 -0.6975
vn -0.6701 -0.0000 -0.7423
vn -0.7484 0.2269 -0.6232
vn -0.7484 -0.0000 -0.6632
vn -0.7484 0.4264 -0.5081
vn -0.7484 0.5744 -0.3316
vn -0.7484 0.6532 -0.1152
vn -0.7484 0.6532 0.1152
vn -0.7484 0.5744 0.3316
vn -0.7484 0.4264 0.5081
vn -0.7484 0.2269 0.6232
vn -0.7484 -0.0000 0.6633
vn -0.7484 -0.2269 0.6233
vn -0.7484 -0.4264 0.5081
vn -0.7484 -0.5744 0.3316
vn -0.7484 -0.6532 0.1152
vn -0.7484 -0.6532 -0.1152
vn -0.7484 -0.5744 -0.3316
vn -0.7484 -0.4263 -0.5081
vn -0.7484 -0.2268 -0.6232
vn 0.7871 0.2110 0.5796
vn 0.7871 -0.0000 0.6168
vn 0.7871 -0.2110 0.5796
vn 0.7871 -0.3965 0.4725
vn 0.7871 -0.5342 0.3084
vn 0.7871 -0.6074 0.1071
vn 0.7871 -0.6074 -0.1071
vn 0.7871 -0.5342 -0.3084
vn 0.7871 -0.3965 -0.4725
vn 0.7871 -0.2110 -0.5796
vn 0.7871 -0.0000 -0.6168
vn 0.7871 0.2110 -0.5796
vn 0.7871 0.3965 -0.4725
vn 0.7871 0.5342 -0.3084
vn 0.7871 0.6074 -0.1071
vn 0.7871 0.6074 0.1071
vn 0.7871 0.5342 0.3084
vn 0.7871 0.3965 0.4725
vn -0.6700 0.0000 -0.7424
vn 0.6700 0.2539 -0.6976
vn 0.6700 -0.0000 -0.7423
vn 0.6700 0.4772 -0.5687
vn 0.6700 0.6429 -0.3712
vn 0.6700 0.7311 -0.1289
vn 0.6700 0.7311 0.1289
vn 0.6700 0.6429 0.3712
vn 0.6700 0.4772 0.5687
vn 0.6701 0.2539 0.6975
vn 0.6701 -0.0000 0.7423
vn 0.6700 -0.2539 0.6976
vn -0.6701 -0.4771 0.5686
vn 0.6701 -0.4771 0.5686
vn -0.6701 -0.6428 0.3711
vn 0.6701 -0.6428 0.3711
vn -0.6701 -0.7310 0.1289
vn 0.6701 -0.7310 0.1289
vn 0.6700 -0.7311 -0.1289
vn 0.6700 -0.6429 -0.3712
vn 0.6701 -0.4772 -0.5686
vn 0.6701 -0.2539 -0.6975
vn 0.7484 0.0000 -0.6633
vn 0.7484 0.2269 -0.6232
vn -0.7484 -0.0000 -0.6633
vn 0.7484 0.4264 -0.5081
vn 0.7484 0.5744 -0.3316
vn 0.7484 0.6532 -0.1152
vn 0.7484 0.6532 0.1152
vn 0.7484 0.5744 0.3316
vn 0.7484 0.4264 0.5081
vn 0.7484 0.2269 0.6232
vn 0.7484 -0.0000 0.6633
vn 0.7484 -0.2269 0.6233
vn 0.7484 -0.4264 0.5081
vn 0.7484 -0.5744 0.3316
vn 0.7484 -0.6532 0.1152
vn 0.7484 -0.6532 -0.1152
vn 0.7484 -0.5744 -0.3316
vn 0.7484 -0.4263 -0.5081
vn 0.7484 -0.2268 -0.6232
vn 0.8473 -0.1817 0.4991
vn 0.8473 0.0000 0.5312
vn 0.8473 0.1817 0.4991
vn 0.8473 0.3414 0.4069
vn 0.8473 0.4600 0.2656
vn 0.8473 0.5231 0.0922
vn 0.8473 0.5231 -0.0922
vn 0.8473 0.4600 -0.2656
vn 0.8473 0.3414 -0.4069
vn 0.8473 0.1817 -0.4991
vn 0.8473 -0.0000 -0.5312
vn 0.8473 -0.1817 -0.4991
vn 0.8473 -0.3414 -0.4069
vn 0.8473 -0.4600 -0.2656
vn 0.8473 -0.5231 -0.0922
vn 0.8473 -0.5231 0.0922
vn 0.8473 -0.4600 0.2656
vn 0.8473 -0.3414 0.4069
# 113 vertex normals

vt 0.3400 0.0000 -0.0000
vt 0.1953 0.0000 -0.3473
vt 0.0874 0.0000 -0.6527
vt 0.0292 0.0000 -0.8794
vt 0.0278 0.0000 -1.0000
vt 0.0833 0.0000 -1.0000
vt 0.1891 0.0000 -0.8794
vt 0.3325 0.0000 -0.6527
vt 0.4960 0.0000 -0.3473
vt 0.6600 0.0000 0.0000
vt 0.8047 0.0000 0.3473
vt 0.9126 0.0000 0.6527
vt 0.9708 0.0000 0.8794
vt 0.9722 0.0000 1.0000
vt 0.9167 0.0000 1.0000
vt 0.8611 0.0000 1.0000
vt 0.8056 0.0000 1.0000
vt 0.7500 0.0000 1.0000
vt 0.8056 1.0000 1.0000
vt 0.7500 1.0000 1.0000
vt 0.8611 1.0000 1.0000
vt 0.9167 1.0000 1.0000
vt 0.9722 1.0000 1.0000
vt -0.0278 0.0000 1.0000
vt 0.0278 0.0000 1.0000
vt 0.0278 1.0000 1.0000
vt -0.0278 1.0000 1.0000
vt 0.0833 0.0000 1.0000
vt 0.0833 1.0000 1.0000
vt 0.1389 0.0000 1.0000
vt 0.1389 1.0000 1.0000
vt 0.1944 0.0000 1.0000
vt 0.1944 1.0000 1.0000
vt 0.2500 0.0000 1.0000
vt 0.2500 1.0000 1.0000
vt 0.3056 0.0000 1.0000
vt 0.3056 1.0000 1.0000
vt 0.3611 0.0000 1.0000
vt 0.3611 1.0000 1.0000
vt 0.4167 0.0000 1.0000
vt 0.4167 1.0000 1.0000
vt 0.4722 0.0000 1.0000
vt 0.4722 1.0000 1.0000
vt 0.5278 0.0000 1.0000
vt 0.5278 1.0000 1.0000
vt 0.5833 0.0000 1.0000
vt 0.5833 1.0000 1.0000
vt 0.6389 0.0000 1.0000
vt 0.6389 1.0000 1.0000
vt 0.6944 0.0000 1.0000
vt 0.6944 1.0000 1.0000
vt 0.9708 1.0000 0.8794
vt 0.9126 1.0000 0.6527
vt 0.8047 1.0000 0.3473
vt 0.6600 1.0000 -0.0000
vt 0.4960 1.0000 -0.3473
vt 0.3325 1.0000 -0.6527
vt 0.1891 1.0000 -0.8794
vt 0.0833 1.0000 -1.0000
vt 0.0278 1.0000 -1.0000
vt 0.0292 1.0000 -0.8794
vt 0.0874 1.0000 -0.6527
vt 0.1953 1.0000 -0.3473
# 63 texture coords

o conector_tanques
g conector_tanques
s 1
f 1/1/1 2/2/2 3/3/3 4/4/4 5/5/5 6/6/6 7/7/7 8/8/8 9/9/9 10/10/10 11/11/11 12/12/12 13/13/13 14/14/14 15/15/15 16/16/16 17/17/17 18/18/18 
s 2
f 18/18/18 17/17/17 19/19/19 20/20/20 
f 17/17/17 16/16/16 21/21/21 19/19/19 
f 16/16/16 15/15/15 22/22/22 21/21/21 
f 15/15/15 14/14/14 23/23/23 22/22/22 
f 14/24/14 13/25/13 24/26/24 23/27/23 
f 13/25/13 12/28/12 25/29/25 24/26/24 
f 12/28/12 11/30/11 26/31/26 25/29/25 
f 11/30/11 10/32/10 27/33/27 26/31/26 
f 10/32/10 9/34/9 28/35/28 27/33/27 
f 9/34/9 8/36/8 29/37/29 28/35/28 
f 8/36/8 7/38/7 30/39/30 29/37/29 
f 7/38/7 6/40/6 31/41/31 30/39/30 
f 6/40/6 5/42/5 32/43/32 31/41/31 
f 5/42/5 4/44/4 33/45/33 32/43/32 
f 4/44/4 3/46/3 34/47/34 33/45/33 
f 3/46/3 2/48/2 35/49/35 34/47/34 
f 2/48/2 1/50/1 36/51/36 35/49/35 
f 1/50/1 18/18/18 20/20/20 36/51/36 
s 1
f 37/51/37 38/20/38 39/19/39 40/21/40 41/22/41 42/23/42 43/52/43 44/53/44 45/54/45 46/55/46 47/56/47 48/57/48 49/58/49 50/59/50 51/60/51 52/61/52 53/62/53 54/63/54 
f 55/20/55 56/19/17 57/19/56 58/20/57 
f 56/19/17 59/21/16 60/21/58 57/19/56 
f 59/21/16 61/22/15 62/22/59 60/21/58 
f 61/22/15 63/23/14 64/23/60 62/22/59 
f 63/23/14 65/52/13 66/52/61 64/23/60 
f 65/52/13 67/53/12 68/53/62 66/52/61 
f 67/53/12 69/54/11 70/54/63 68/53/62 
f 69/54/11 71/55/10 72/55/64 70/54/63 
f 71/55/10 73/56/9 74/56/65 72/55/64 
f 73/56/9 75/57/8 76/57/66 74/56/65 
f 75/57/8 77/58/67 78/58/68 76/57/66 
f 77/58/67 79/59/69 80/59/70 78/58/68 
f 79/59/69 81/60/71 82/60/72 80/59/70 
f 81/60/71 83/61/4 84/61/73 82/60/72 
f 83/61/4 85/62/3 86/62/74 84/61/73 
f 85/62/3 87/63/2 88/63/75 86/62/74 
f 87/63/2 89/51/1 90/51/76 88/63/75 
f 89/51/1 55/20/55 58/20/57 90/51/76 
f 91/20/77 92/19/78 93/19/19 94/20/79 
f 92/19/78 95/21/80 96/21/21 93/19/19 
f 95/21/80 97/22/81 98/22/22 96/21/21 
f 97/22/81 99/23/82 100/23/23 98/22/22 
f 99/23/82 101/52/83 102/52/24 100/23/23 
f 101/52/83 103/53/84 104/53/25 102/52/24 
f 103/53/84 105/54/85 106/54/26 104/53/25 
f 105/54/85 107/55/86 108/55/27 106/54/26 
f 107/55/86 109/56/87 110/56/28 108/55/27 
f 109/56/87 111/57/88 112/57/29 110/56/28 
f 111/57/88 113/58/89 114/58/30 112/57/29 
f 113/58/89 115/59/90 116/59/31 114/58/30 
f 115/59/90 117/60/91 118/60/32 116/59/31 
f 117/60/91 119/61/92 120/61/33 118/60/32 
f 119/61/92 121/62/93 122/62/34 120/61/33 
f 121/62/93 123/63/94 124/63/35 122/62/34 
f 123/63/94 125/51/95 126/51/36 124/63/35 
f 125/51/95 91/20/77 94/20/79 126/51/36 
f 127/20/55 128/19/17 129/19/56 130/20/57 
f 128/19/17 131/21/16 132/21/58 129/19/56 
f 131/21/16 133/22/15 134/22/59 132/21/58 
f 133/22/15 135/23/14 136/23/60 134/22/59 
f 135/23/14 137/52/13 138/52/61 136/23/60 
f 137/52/13 139/53/12 140/53/62 138/52/61 
f 139/53/12 141/54/11 142/54/63 140/53/62 
f 141/54/11 143/55/10 144/55/64 142/54/63 
f 143/55/10 145/56/9 146/56/65 144/55/64 
f 145/56/9 147/57/8 148/57/66 146/56/65 
f 147/57/8 149/58/67 150/58/68 148/57/66 
f 149/58/67 151/59/69 152/59/70 150/58/68 
f 151/59/69 153/60/71 154/60/72 152/59/70 
f 153/60/71 155/61/4 156/61/73 154/60/72 
f 155/61/4 157/62/3 158/62/74 156/61/73 
f 157/62/3 159/63/2 160/63/75 158/62/74 
f 159/63/2 161/51/1 162/51/76 160/63/75 
f 161/51/1 127/20/55 130/20/57 162/51/76 
s 4
f 20/20/20 19/19/19 56/19/17 55/20/55 
f 19/19/19 21/21/21 59/21/16 56/19/17 
f 21/21/21 22/22/22 61/22/15 59/21/16 
f 22/22/22 23/23/23 63/23/14 61/22/15 
f 23/23/23 24/52/24 65/52/13 63/23/14 
f 24/52/24 25/53/25 67/53/12 65/52/13 
f 25/53/25 26/54/26 69/54/11 67/53/12 
f 26/54/26 27/55/27 71/55/10 69/54/11 
f 27/55/27 28/56/28 73/56/9 71/55/10 
f 28/56/28 29/57/29 75/57/8 73/56/9 
f 29/57/29 30/58/30 77/58/67 75/57/8 
f 30/58/30 31/59/31 79/59/69 77/58/67 
f 31/59/31 32/60/32 81/60/71 79/59/69 
f 32/60/32 33/61/33 83/61/4 81/60/71 
f 33/61/33 34/62/34 85/62/3 83/61/4 
f 34/62/34 35/63/35 87/63/2 85/62/3 
f 35/63/35 36/51/36 89/51/1 87/63/2 
f 36/51/36 20/20/20 55/20/55 89/51/1 
s 2
f 92/19/78 91/20/77 58/20/57 57/19/56 
f 91/20/77 125/51/95 90/51/76 58/20/57 
f 125/51/95 123/63/94 88/63/75 90/51/76 
f 123/63/94 121/62/93 86/62/74 88/63/75 
f 121/62/93 119/61/92 84/61/73 86/62/74 
f 119/61/92 117/60/91 82/60/72 84/61/73 
f 117/60/91 115/59/90 80/59/70 82/60/72 
f 115/59/90 113/58/89 78/58/68 80/59/70 
f 113/58/89 111/57/88 76/57/66 78/58/68 
f 111/57/88 109/56/87 74/56/65 76/57/66 
f 109/56/87 107/55/86 72/55/64 74/56/65 
f 107/55/86 105/54/85 70/54/63 72/55/64 
f 105/54/85 103/53/84 68/53/62 70/54/63 
f 103/53/84 101/52/83 66/52/61 68/53/62 
f 101/52/83 99/23/82 64/23/60 66/52/61 
f 99/23/82 97/22/81 62/22/59 64/23/60 
f 97/22/81 95/21/80 60/21/58 62/22/59 
f 95/21/80 92/19/78 57/19/56 60/21/58 
f 94/20/79 93/19/19 128/19/17 127/20/55 
f 93/19/19 96/21/21 131/21/16 128/19/17 
f 96/21/21 98/22/22 133/22/15 131/21/16 
f 98/22/22 100/23/23 135/23/14 133/22/15 
f 100/23/23 102/52/24 137/52/13 135/23/14 
f 102/52/24 104/53/25 139/53/12 137/52/13 
f 104/53/25 106/54/26 141/54/11 139/53/12 
f 106/54/26 108/55/27 143/55/10 141/54/11 
f 108/55/27 110/56/28 145/56/9 143/55/10 
f 110/56/28 112/57/29 147/57/8 145/56/9 
f 112/57/29 114/58/30 149/58/67 147/57/8 
f 114/58/30 116/59/31 151/59/69 149/58/67 
f 116/59/31 118/60/32 153/60/71 151/59/69 
f 118/60/32 120/61/33 155/61/4 153/60/71 
f 120/61/33 122/62/34 157/62/3 155/61/4 
f 122/62/34 124/63/35 159/63/2 157/62/3 
f 124/63/35 126/51/36 161/51/1 159/63/2 
f 126/51/36 94/20/79 127/20/55 161/51/1 
f 163/19/96 164/20/97 130/20/57 129/19/56 
f 164/20/97 165/51/98 162/51/76 130/20/57 
f 165/51/98 166/63/99 160/63/75 162/51/76 
f 166/63/99 167/62/100 158/62/74 160/63/75 
f 167/62/100 168/61/101 156/61/73 158/62/74 
f 168/61/101 169/60/102 154/60/72 156/61/73 
f 169/60/102 170/59/103 152/59/70 154/60/72 
f 170/59/103 171/58/104 150/58/68 152/59/70 
f 171/58/104 172/57/105 148/57/66 150/58/68 
f 172/57/105 173/56/106 146/56/65 148/57/66 
f 173/56/106 174/55/107 144/55/64 146/56/65 
f 174/55/107 175/54/108 142/54/63 144/55/64 
f 175/54/108 176/53/109 140/53/62 142/54/63 
f 176/53/109 177/52/110 138/52/61 140/53/62 
f 177/52/110 178/23/111 136/23/60 138/52/61 
f 178/23/111 179/22/112 134/22/59 136/23/60 
f 179/22/112 180/21/113 132/21/58 134/22/59 
f 180/21/113 163/19/96 129/19/56 132/21/58 
s 4
f 164/20/97 163/19/96 39/19/39 38/20/38 
f 163/19/96 180/21/113 40/21/40 39/19/39 
f 180/21/113 179/22/112 41/22/41 40/21/40 
f 179/22/112 178/23/111 42/23/42 41/22/41 
f 178/23/111 177/52/110 43/52/43 42/23/42 
f 177/52/110 176/53/109 44/53/44 43/52/43 
f 176/53/109 175/54/108 45/54/45 44/53/44 
f 175/54/108 174/55/107 46/55/46 45/54/45 
f 174/55/107 173/56/106 47/56/47 46/55/46 
f 173/56/106 172/57/105 48/57/48 47/56/47 
f 172/57/105 171/58/104 49/58/49 48/57/48 
f 171/58/104 170/59/103 50/59/50 49/58/49 
f 170/59/103 169/60/102 51/60/51 50/59/50 
f 169/60/102 168/61/101 52/61/52 51/60/51 
f 168/61/101 167/62/100 53/62/53 52/61/52 
f 167/62/100 166/63/99 54/63/54 53/62/53 
f 166/63/99 165/51/98 37/51/37 54/63/54 
f 165/51/98 164/20/97 38/20/38 37/51/37 
# 164 polygons

