# Wavefront Obj file
# 
# verts: 128 uv-s: 384
mtllib base tanques toldo.mtl

g Estructura_tanques_deshidratador

v 0.640200 0.000000 282.651611
v 0.640200 2.298300 282.651611
v 0.560200 2.378300 282.651611
v 0.560200 0.000000 282.651611
v 0.560200 2.378300 282.571594
v 0.560200 0.000000 282.571594
v 0.640200 2.298300 282.571594
v 0.640200 0.000000 282.571594
v 3.806900 2.298300 282.651611
v 3.886900 2.378300 282.651611
v 3.886900 2.378300 282.571594
v 3.806900 2.298300 282.571594
v 3.806900 0.000000 282.651611
v 3.886900 0.000000 282.651611
v 3.886900 0.000000 282.571594
v 3.806900 0.000000 282.571594
v 3.886900 0.000000 276.137909
v 3.886900 2.378300 276.137909
v 3.806900 2.298300 276.137909
v 3.806900 0.000000 276.137909
v 3.806900 2.298300 276.058014
v 3.806900 0.000000 276.058014
v 3.886900 2.378300 276.058014
v 3.886900 0.000000 276.058014
v 0.560200 2.378300 276.137909
v 0.640200 2.298300 276.137909
v 0.640200 2.298300 276.058014
v 0.560200 2.378300 276.058014
v 0.560200 0.000000 276.137909
v 0.640200 0.000000 276.137909
v 0.640200 0.000000 276.058014
v 0.560200 0.000000 276.058014
v 0.560200 2.378300 276.097992
v 0.560200 2.378300 282.611603
v 0.640200 2.378300 282.611603
v 0.640200 2.378300 276.097992
v 0.640200 2.298300 282.611603
v 0.640200 2.298300 276.097992
v 0.560200 2.298300 282.611603
v 0.560200 2.298300 276.097992
v 3.886900 2.378300 282.611603
v 3.886900 2.378300 276.097992
v 3.806900 2.378300 276.097992
v 3.806900 2.378300 282.611603
v 3.806900 2.298300 276.097992
v 3.806900 2.298300 282.611603
v 3.886900 2.298300 276.097992
v 3.886900 2.298300 282.611603
v 0.600200 1.874600 282.651611
v 3.846900 1.874600 282.651611
v 3.846900 1.874600 282.571594
v 0.600200 1.874600 282.571594
v 3.846900 1.794600 282.571594
v 0.600200 1.794600 282.571594
v 3.846900 1.794600 282.651611
v 0.600200 1.794600 282.651611
v 3.846900 1.874600 276.058014
v 0.600200 1.874600 276.058014
v 0.600200 1.874600 276.137909
v 3.846900 1.874600 276.137909
v 0.600200 1.794600 276.137909
v 3.846900 1.794600 276.137909
v 0.600200 1.794600 276.058014
v 3.846900 1.794600 276.058014
v 0.560200 1.874600 276.097992
v 0.560200 1.874600 282.611603
v 0.640200 1.874600 282.611603
v 0.640200 1.874600 276.097992
v 0.640200 1.794600 282.611603
v 0.640200 1.794600 276.097992
v 0.560200 1.794600 282.611603
v 0.560200 1.794600 276.097992
v 3.886900 1.874600 282.611603
v 3.886900 1.874600 276.097992
v 3.806900 1.874600 276.097992
v 3.806900 1.874600 282.611603
v 3.806900 1.794600 276.097992
v 3.806900 1.794600 282.611603
v 3.886900 1.794600 276.097992
v 3.886900 1.794600 282.611603
v 0.589900 1.908000 282.651611
v 2.301600 2.367200 282.651611
v 2.301600 2.367200 282.571594
v 0.589900 1.908000 282.571594
v 2.322400 2.290000 282.571594
v 0.610600 1.830700 282.571594
v 2.322400 2.289900 282.651611
v 0.610600 1.830700 282.651611
v 3.862800 1.908000 282.571594
v 2.151000 2.367200 282.571594
v 2.151000 2.367200 282.651611
v 3.862800 1.908000 282.651611
v 2.130300 2.289900 282.651611
v 3.842000 1.830700 282.651611
v 2.130300 2.290000 282.571594
v 3.842000 1.830700 282.571594
v 0.589900 1.908000 276.142395
v 2.301600 2.367200 276.142395
v 2.301600 2.367200 276.062408
v 0.589900 1.908000 276.062408
v 2.322400 2.290000 276.062286
v 0.610600 1.830700 276.062408
v 2.322400 2.289900 276.142395
v 0.610600 1.830700 276.142395
v 3.862800 1.908000 276.062408
v 2.151000 2.367200 276.062408
v 2.151000 2.367200 276.142395
v 3.862800 1.908000 276.142395
v 2.130300 2.289900 276.142395
v 3.842000 1.830700 276.142395
v 2.130300 2.290000 276.062286
v 3.842000 1.830700 276.062408
v 0.643500 1.909000 282.606506
v 0.643500 2.368200 279.368408
v 0.563500 2.368200 279.368408
v 0.563500 1.909000 282.606506
v 0.563500 2.289000 279.357208
v 0.563500 1.829700 282.595306
v 0.643500 2.289000 279.357208
v 0.643500 1.829700 282.595306
v 0.563500 1.909000 276.139709
v 0.563500 2.368200 279.528809
v 0.643500 2.368200 279.528809
v 0.643500 1.909000 276.139709
v 0.643500 2.288900 279.539612
v 0.643500 1.829700 276.150513
v 0.563500 2.288900 279.539612
v 0.563500 1.829700 276.150513
# 128 positions

vt 0.067590 0.005000
vt 0.067590 0.250877
vt 0.059031 0.259436
vt 0.059031 0.005000
vt 0.326975 0.005000
vt 0.072539 0.005000
vt 0.072539 0.013560
vt 0.326975 0.013560
vt 0.775956 0.259436
vt 0.775956 0.005000
vt 0.767397 0.013559
vt 0.767397 0.259436
vt 0.072539 0.032016
vt 0.318416 0.032016
vt 0.318416 0.040576
vt 0.072539 0.040576
vt 0.406370 0.250877
vt 0.414929 0.259436
vt 0.162146 0.631271
vt 0.162146 0.987169
vt 0.153586 0.987169
vt 0.153586 0.631271
vt 0.420058 0.005000
vt 0.428617 0.013559
vt 0.175654 0.970052
vt 0.175654 0.631271
vt 0.167094 0.631271
vt 0.167094 0.970052
vt 0.406370 0.005000
vt 0.414929 0.005000
vt 0.326975 0.067592
vt 0.072539 0.067592
vt 0.072539 0.059031
vt 0.326975 0.059031
vt 0.420058 0.259436
vt 0.428617 0.259436
vt 0.072539 0.081099
vt 0.318416 0.081099
vt 0.318416 0.072539
vt 0.072539 0.072539
vt 0.180601 0.148637
vt 0.189162 0.148637
vt 0.189162 0.140078
vt 0.180601 0.140078
vt 0.202670 0.140078
vt 0.194109 0.140078
vt 0.194109 0.148637
vt 0.202670 0.148637
vt 0.414929 0.264104
vt 0.414929 0.518540
vt 0.406370 0.509982
vt 0.406370 0.264104
vt 0.318417 0.018508
vt 0.072539 0.018508
vt 0.072539 0.027055
vt 0.318417 0.027055
vt 0.428617 0.518540
vt 0.428617 0.272663
vt 0.420058 0.264104
vt 0.420058 0.518540
vt 0.072539 0.045523
vt 0.326975 0.045523
vt 0.326975 0.054071
vt 0.072539 0.054071
vt 0.059031 0.518540
vt 0.067590 0.509982
vt 0.760209 0.523208
vt 0.760209 0.861989
vt 0.768756 0.861989
vt 0.768756 0.523208
vt 0.767397 0.272663
vt 0.775956 0.264104
vt 0.059031 0.987169
vt 0.059031 0.631271
vt 0.067578 0.631271
vt 0.067578 0.987169
vt 0.059031 0.264104
vt 0.067590 0.264104
vt 0.318417 0.121610
vt 0.072539 0.121610
vt 0.072539 0.113062
vt 0.318417 0.113062
vt 0.767397 0.518540
vt 0.775956 0.518540
vt 0.072539 0.135118
vt 0.326975 0.135118
vt 0.326975 0.126570
vt 0.072539 0.126570
vt 0.126570 0.148637
vt 0.135117 0.148637
vt 0.135117 0.140078
vt 0.126570 0.140078
vt 0.121610 0.140078
vt 0.113062 0.140078
vt 0.113062 0.148637
vt 0.121610 0.148637
vt 0.059031 0.550224
vt 0.755872 0.550224
vt 0.755872 0.558783
vt 0.059031 0.558783
vt 0.013559 0.005000
vt 0.013559 0.701841
vt 0.005000 0.701841
vt 0.005000 0.005000
vt 0.755872 0.536716
vt 0.059031 0.536716
vt 0.059031 0.545275
vt 0.755872 0.545275
vt 0.027066 0.701841
vt 0.027066 0.005000
vt 0.018508 0.005000
vt 0.018508 0.701841
vt 0.086047 0.148637
vt 0.094605 0.148637
vt 0.094605 0.140078
vt 0.086047 0.140078
vt 0.108113 0.140078
vt 0.108113 0.148637
vt 0.099555 0.148637
vt 0.099555 0.140078
vt 0.755872 0.572290
vt 0.059031 0.572290
vt 0.059031 0.563732
vt 0.755872 0.563732
vt 0.032016 0.005000
vt 0.032016 0.701841
vt 0.040574 0.701841
vt 0.040574 0.005000
vt 0.059031 0.531767
vt 0.755872 0.531767
vt 0.755872 0.523208
vt 0.059031 0.523208
vt 0.045523 0.701841
vt 0.045523 0.005000
vt 0.054082 0.005000
vt 0.054082 0.701841
vt 0.072539 0.148637
vt 0.081098 0.148637
vt 0.081098 0.140078
vt 0.072539 0.140078
vt 0.162144 0.148637
vt 0.162144 0.140078
vt 0.153586 0.140078
vt 0.153586 0.148637
vt 0.081100 0.631271
vt 0.081100 0.978610
vt 0.072539 0.978610
vt 0.072539 0.631271
vt 0.086047 0.631271
vt 0.086047 0.978610
vt 0.094605 0.978610
vt 0.094605 0.631271
vt 0.108115 0.978610
vt 0.108115 0.631271
vt 0.099555 0.631271
vt 0.099555 0.978610
vt 0.121621 0.978610
vt 0.121621 0.631271
vt 0.113062 0.631271
vt 0.113062 0.978610
vt 0.167094 0.148638
vt 0.175652 0.148638
vt 0.175652 0.140078
vt 0.167094 0.140078
vt 0.140078 0.140078
vt 0.148637 0.140078
vt 0.148637 0.148638
vt 0.140078 0.148638
vt 0.126570 0.978610
vt 0.126570 0.631271
vt 0.135118 0.631271
vt 0.135118 0.978610
vt 0.140078 0.631271
vt 0.140078 0.978610
vt 0.148637 0.978610
vt 0.148637 0.631271
vt 0.691442 0.631271
vt 0.691442 0.978610
vt 0.699989 0.978610
vt 0.699989 0.631271
vt 0.713508 0.978610
vt 0.713508 0.631271
vt 0.704950 0.631271
vt 0.704950 0.978610
vt 0.081098 0.243180
vt 0.072539 0.243180
vt 0.072539 0.234633
vt 0.081098 0.234633
vt 0.094605 0.234633
vt 0.086047 0.234633
vt 0.086047 0.243180
vt 0.094605 0.243180
vt 0.059031 0.577240
vt 0.755871 0.577240
vt 0.755871 0.585798
vt 0.059031 0.585798
vt 0.789643 0.005000
vt 0.789643 0.701841
vt 0.781085 0.701841
vt 0.781085 0.005000
vt 0.755871 0.590747
vt 0.059031 0.590747
vt 0.059031 0.599306
vt 0.755871 0.599306
vt 0.816659 0.701841
vt 0.816659 0.005000
vt 0.808100 0.005000
vt 0.808100 0.701841
vt 0.156042 0.243191
vt 0.164600 0.243191
vt 0.164600 0.234633
vt 0.156042 0.234633
vt 0.178108 0.234633
vt 0.178108 0.243191
vt 0.169550 0.243191
vt 0.169550 0.234633
vt 0.755871 0.612814
vt 0.059031 0.612814
vt 0.059031 0.604255
vt 0.755871 0.604255
vt 0.794592 0.005000
vt 0.794592 0.701841
vt 0.803151 0.701841
vt 0.803151 0.005000
vt 0.059031 0.626322
vt 0.755871 0.626322
vt 0.755871 0.617763
vt 0.059031 0.617763
vt 0.821608 0.701841
vt 0.821608 0.005000
vt 0.830167 0.005000
vt 0.830167 0.701841
vt 0.207617 0.148637
vt 0.216176 0.148637
vt 0.216176 0.140078
vt 0.207617 0.140078
vt 0.229683 0.148637
vt 0.229683 0.140078
vt 0.221125 0.140078
vt 0.221125 0.148637
vt 0.262136 0.086047
vt 0.072539 0.086047
vt 0.072539 0.094607
vt 0.262136 0.094607
vt 0.366033 0.018508
vt 0.316907 0.201629
vt 0.325167 0.203855
vt 0.374303 0.020722
vt 0.262148 0.099585
vt 0.072539 0.099555
vt 0.072540 0.108115
vt 0.262146 0.108146
vt 0.129935 0.447236
vt 0.080808 0.264104
vt 0.072539 0.266329
vt 0.121665 0.449451
vt 0.221089 0.234633
vt 0.212529 0.234633
vt 0.212529 0.243193
vt 0.221089 0.243193
vt 0.226048 0.234633
vt 0.234307 0.234633
vt 0.234307 0.243193
vt 0.226037 0.243193
vt 0.072539 0.202670
vt 0.262146 0.202670
vt 0.262146 0.194109
vt 0.072539 0.194109
vt 0.373402 0.050435
vt 0.324275 0.233568
vt 0.332546 0.235782
vt 0.381671 0.052661
vt 0.072540 0.162177
vt 0.262136 0.162146
vt 0.262138 0.153586
vt 0.072539 0.153616
vt 0.145899 0.447226
vt 0.096762 0.264104
vt 0.088503 0.266319
vt 0.137630 0.449451
vt 0.129026 0.243193
vt 0.137590 0.243193
vt 0.137590 0.234633
vt 0.129026 0.234633
vt 0.150804 0.234633
vt 0.142534 0.234633
vt 0.142534 0.243193
vt 0.150793 0.243193
vt 0.262136 0.167094
vt 0.072539 0.167094
vt 0.072539 0.175651
vt 0.262136 0.175651
vt 0.200255 0.264104
vt 0.151130 0.447226
vt 0.159389 0.449451
vt 0.208526 0.266319
vt 0.262149 0.180645
vt 0.072539 0.180601
vt 0.072540 0.189172
vt 0.262148 0.189202
vt 0.271153 0.447236
vt 0.222026 0.264104
vt 0.213757 0.266329
vt 0.262883 0.449451
vt 0.243193 0.140078
vt 0.234633 0.140078
vt 0.234633 0.148635
vt 0.243193 0.148635
vt 0.239556 0.234633
vt 0.247815 0.234646
vt 0.247815 0.243203
vt 0.239545 0.243203
vt 0.072539 0.216174
vt 0.262146 0.216174
vt 0.262146 0.207617
vt 0.072539 0.207617
vt 0.325511 0.264104
vt 0.276384 0.447236
vt 0.284654 0.449451
vt 0.333780 0.266329
vt 0.072540 0.229726
vt 0.262136 0.229695
vt 0.262138 0.221125
vt 0.072539 0.221169
vt 0.393951 0.457050
vt 0.344814 0.273928
vt 0.336555 0.276143
vt 0.385682 0.459275
vt 0.099555 0.243190
vt 0.108119 0.243190
vt 0.108119 0.234633
vt 0.099555 0.234633
vt 0.122561 0.234633
vt 0.114290 0.234633
vt 0.114290 0.243190
vt 0.122550 0.243203
vt 0.686441 0.631271
vt 0.336555 0.631271
vt 0.336555 0.639829
vt 0.686441 0.639829
vt 0.307090 0.631271
vt 0.257964 0.977690
vt 0.266437 0.978888
vt 0.315574 0.632469
vt 0.685214 0.644779
vt 0.335327 0.644779
vt 0.335327 0.653337
vt 0.685214 0.653337
vt 0.273928 0.977690
vt 0.323065 0.631271
vt 0.331538 0.632469
vt 0.282412 0.978888
vt 0.183057 0.243191
vt 0.191627 0.243191
vt 0.191627 0.234633
vt 0.183057 0.234633
vt 0.206352 0.243106
vt 0.206352 0.234633
vt 0.197793 0.234633
vt 0.197793 0.243106
vt 0.686478 0.743017
vt 0.320591 0.743017
vt 0.320591 0.751576
vt 0.686478 0.751576
vt 0.189086 0.631271
vt 0.238211 0.993844
vt 0.229727 0.995000
vt 0.180601 0.632427
vt 0.685250 0.756525
vt 0.319363 0.756525
vt 0.319363 0.765084
vt 0.685250 0.765084
vt 0.254175 0.993844
vt 0.205049 0.631271
vt 0.196565 0.632427
vt 0.245691 0.995000
vt 0.249368 0.148637
vt 0.257930 0.148637
vt 0.257930 0.140078
vt 0.249368 0.140078
vt 0.262839 0.234633
vt 0.262839 0.243116
vt 0.254280 0.243116
vt 0.254280 0.234633
# 384 texture coordinates

vn 0.000000 0.000000 1.000000
vn -1.000000 0.000000 0.000000
vn 0.000000 0.000000 -1.000000
vn 1.000000 0.000000 0.000000
vn 0.000000 1.000000 0.000000
vn 0.000000 -1.000000 0.000000
vn 0.000000 -1.000000 0.000000
vn 0.000000 -1.000000 0.000000
vn -0.259109 0.965848 0.000000
vn -0.000115 0.000364 -1.000000
vn 0.259121 -0.965845 -0.000603
vn 0.000000 0.000000 1.000000
vn -0.965965 -0.258674 0.000000
vn 0.965609 0.259998 0.000162
vn 0.259095 0.965852 0.000000
vn 0.000000 0.000000 1.000000
vn -0.259136 -0.965841 -0.000603
vn 0.000115 0.000364 -1.000000
vn 0.965652 -0.259838 0.000000
vn -0.965923 0.258830 0.000162
vn 0.000000 0.990094 0.140407
vn 0.000000 -0.990090 -0.140437
vn 0.000000 -0.139847 0.990173
vn 0.000000 0.140020 -0.990149
vn 0.000000 0.990945 -0.134266
vn 1.000000 0.000000 0.000000
vn 0.000000 -0.990945 0.134266
vn -1.000000 0.000000 0.000000
vn 0.000000 -0.134985 -0.990848
vn 0.000000 0.134985 0.990848
# 30 normals

usemtl default
f 1/1/1 2/2/1 3/3/1 4/4/1
f 4/5/2 3/6/2 5/7/2 6/8/2
f 6/9/3 5/10/3 7/11/3 8/12/3
f 8/13/4 7/14/4 2/15/4 1/16/4
f 2/2/1 9/17/1 10/18/1 3/3/1
f 3/19/5 10/20/5 11/21/5 5/22/5
f 5/10/3 11/23/3 12/24/3 7/11/3
f 7/25/6 12/26/6 9/27/6 2/28/6
f 9/17/1 13/29/1 14/30/1 10/18/1
f 10/31/4 14/32/4 15/33/4 11/34/4
f 11/23/3 15/35/3 16/36/3 12/24/3
f 12/37/2 16/38/2 13/39/2 9/40/2
f 4/41/6 6/42/6 8/43/6 1/44/6
f 15/45/7 14/46/7 13/47/7
f 16/48/7 15/45/7 13/47/7
f 17/49/1 18/50/1 19/51/1 20/52/1
f 20/53/2 19/54/2 21/55/2 22/56/2
f 22/57/3 21/58/3 23/59/3 24/60/3
f 24/61/4 23/62/4 18/63/4 17/64/4
f 18/50/1 25/65/1 26/66/1 19/51/1
f 19/67/6 26/68/6 27/69/6 21/70/6
f 21/58/3 27/71/3 28/72/3 23/59/3
f 23/73/5 28/74/5 25/75/5 18/76/5
f 25/65/1 29/77/1 30/78/1 26/66/1
f 26/79/4 30/80/4 31/81/4 27/82/4
f 27/71/3 31/83/3 32/84/3 28/72/3
f 28/85/2 32/86/2 29/87/2 25/88/2
f 20/89/6 22/90/6 24/91/6 17/92/6
f 31/93/8 30/94/8 29/95/8
f 32/96/8 31/93/8 29/95/8
f 33/97/5 34/98/5 35/99/5 36/100/5
f 36/101/4 35/102/4 37/103/4 38/104/4
f 38/105/6 37/106/6 39/107/6 40/108/6
f 40/109/2 39/110/2 34/111/2 33/112/2
f 36/113/3 38/114/3 40/115/3 33/116/3
f 37/117/1 35/118/1 34/119/1
f 39/120/1 37/117/1 34/119/1
f 41/121/5 42/122/5 43/123/5 44/124/5
f 44/125/2 43/126/2 45/127/2 46/128/2
f 46/129/6 45/130/6 47/131/6 48/132/6
f 48/133/4 47/134/4 42/135/4 41/136/4
f 44/137/1 46/138/1 48/139/1 41/140/1
f 45/141/3 43/142/3 42/143/3
f 47/144/3 45/141/3 42/143/3
f 49/145/5 50/146/5 51/147/5 52/148/5
f 52/149/3 51/150/3 53/151/3 54/152/3
f 54/153/6 53/154/6 55/155/6 56/156/6
f 56/157/1 55/158/1 50/159/1 49/160/1
f 52/161/2 54/162/2 56/163/2 49/164/2
f 53/165/4 51/166/4 50/167/4
f 55/168/4 53/165/4 50/167/4
f 57/169/5 58/170/5 59/171/5 60/172/5
f 60/173/1 59/174/1 61/175/1 62/176/1
f 62/177/6 61/178/6 63/179/6 64/180/6
f 64/181/3 63/182/3 58/183/3 57/184/3
f 60/185/4 62/186/4 64/187/4 57/188/4
f 61/189/2 59/190/2 58/191/2
f 63/192/2 61/189/2 58/191/2
f 65/193/5 66/194/5 67/195/5 68/196/5
f 68/197/4 67/198/4 69/199/4 70/200/4
f 70/201/6 69/202/6 71/203/6 72/204/6
f 72/205/2 71/206/2 66/207/2 65/208/2
f 68/209/3 70/210/3 72/211/3 65/212/3
f 69/213/1 67/214/1 66/215/1
f 71/216/1 69/213/1 66/215/1
f 73/217/5 74/218/5 75/219/5 76/220/5
f 76/221/2 75/222/2 77/223/2 78/224/2
f 78/225/6 77/226/6 79/227/6 80/228/6
f 80/229/4 79/230/4 74/231/4 73/232/4
f 76/233/1 78/234/1 80/235/1 73/236/1
f 77/237/3 75/238/3 74/239/3
f 79/240/3 77/237/3 74/239/3
f 81/241/9 82/242/9 83/243/9 84/244/9
f 84/245/10 83/246/10 85/247/10 86/248/10
f 86/249/11 85/250/11 87/251/11 88/252/11
f 88/253/12 87/254/12 82/255/12 81/256/12
f 84/257/13 86/258/13 88/259/13 81/260/13
f 85/261/14 83/262/14 82/263/14
f 87/264/14 85/261/14 82/263/14
f 89/265/15 90/266/15 91/267/15 92/268/15
f 92/269/16 91/270/16 93/271/16 94/272/16
f 94/273/17 93/274/17 95/275/17 96/276/17
f 96/277/18 95/278/18 90/279/18 89/280/18
f 92/281/19 94/282/19 96/283/19 89/284/19
f 93/285/20 91/286/20 90/287/20
f 95/288/20 93/285/20 90/287/20
f 97/289/9 98/290/9 99/291/9 100/292/9
f 100/293/10 99/294/10 101/295/10 102/296/10
f 102/297/11 101/298/11 103/299/11 104/300/11
f 104/301/12 103/302/12 98/303/12 97/304/12
f 100/305/13 102/306/13 104/307/13 97/308/13
f 101/309/14 99/310/14 98/311/14
f 103/312/14 101/309/14 98/311/14
f 105/313/15 106/314/15 107/315/15 108/316/15
f 108/317/16 107/318/16 109/319/16 110/320/16
f 110/321/17 109/322/17 111/323/17 112/324/17
f 112/325/18 111/326/18 106/327/18 105/328/18
f 108/329/19 110/330/19 112/331/19 105/332/19
f 109/333/20 107/334/20 106/335/20
f 111/336/20 109/333/20 106/335/20
f 113/337/21 114/338/21 115/339/21 116/340/21
f 116/341/2 115/342/2 117/343/2 118/344/2
f 118/345/22 117/346/22 119/347/22 120/348/22
f 120/349/4 119/350/4 114/351/4 113/352/4
f 116/353/23 118/354/23 120/355/23 113/356/23
f 117/357/24 115/358/24 114/359/24
f 119/360/24 117/357/24 114/359/24
f 121/361/25 122/362/25 123/363/25 124/364/25
f 124/365/26 123/366/26 125/367/26 126/368/26
f 126/369/27 125/370/27 127/371/27 128/372/27
f 128/373/28 127/374/28 122/375/28 121/376/28
f 124/377/29 126/378/29 128/379/29 121/380/29
f 125/381/30 123/382/30 122/383/30
f 127/384/30 125/381/30 122/383/30

# 114 faces
