# Wavefront Obj file
# 
# verts: 24 uv-s: 72
mtllib mesa_laboratorio.mtl

g Box001

v -33.438099 0.000000 22.454800
v -33.438099 0.000000 -27.545200
v -30.438101 0.000000 -27.545200
v -30.438101 0.000000 22.454800
v -33.438099 50.000000 22.454800
v -30.438101 50.000000 22.454800
v -30.438101 50.000000 -27.545200
v -33.438099 50.000000 -27.545200
v 28.036900 0.000000 22.454800
v 28.036900 0.000000 -27.545200
v 31.036900 0.000000 -27.545200
v 31.036900 0.000000 22.454800
v 28.036900 50.000000 22.454800
v 31.036900 50.000000 22.454800
v 31.036900 50.000000 -27.545200
v 28.036900 50.000000 -27.545200
v -51.415100 49.767300 27.204800
v -51.415100 49.767300 -32.295200
v 48.584900 49.767300 -32.295200
v 48.584900 49.767300 27.204800
v -51.415100 52.767300 27.204800
v 48.584900 52.767300 27.204800
v 48.584900 52.767300 -32.295200
v -51.415100 52.767300 -32.295200
# 24 positions

vt 0.582354 0.905561
vt 0.861764 0.905561
vt 0.861764 0.888796
vt 0.582354 0.888796
vt 0.573087 0.862149
vt 0.573087 0.878914
vt 0.293677 0.878914
vt 0.293677 0.862149
vt 0.573087 0.905561
vt 0.573087 0.888796
vt 0.293677 0.888796
vt 0.293677 0.905561
vt 0.293677 0.852882
vt 0.293677 0.573472
vt 0.573087 0.573472
vt 0.573087 0.852882
vt 0.284410 0.932208
vt 0.284410 0.915443
vt 0.005000 0.915443
vt 0.005000 0.932208
vt 0.861764 0.852882
vt 0.861764 0.573472
vt 0.582354 0.573472
vt 0.582354 0.852882
vt 0.582354 0.878914
vt 0.861764 0.878914
vt 0.861764 0.862149
vt 0.582354 0.862149
vt 0.284410 0.888796
vt 0.284410 0.905561
vt 0.005000 0.905561
vt 0.005000 0.888796
vt 0.573087 0.932208
vt 0.573087 0.915443
vt 0.293677 0.915443
vt 0.293677 0.932208
vt 0.715590 0.284410
vt 0.715590 0.005000
vt 0.995000 0.005000
vt 0.995000 0.284410
vt 0.284410 0.878914
vt 0.284410 0.862149
vt 0.005000 0.862149
vt 0.005000 0.878914
vt 0.284410 0.852882
vt 0.284410 0.573472
vt 0.005000 0.573472
vt 0.005000 0.852882
vt 0.005000 0.563820
vt 0.337498 0.563820
vt 0.337498 0.005000
vt 0.005000 0.005000
vt 0.679469 0.005000
vt 0.679469 0.563820
vt 0.346971 0.563820
vt 0.346971 0.005000
vt 0.705707 0.563820
vt 0.705707 0.005000
vt 0.688943 0.005000
vt 0.688943 0.563820
vt 0.897678 0.626175
vt 0.897678 0.293677
vt 0.914443 0.293677
vt 0.914443 0.626175
vt 0.887796 0.852498
vt 0.887796 0.293677
vt 0.871031 0.293677
vt 0.871031 0.852498
vt 0.914443 0.968147
vt 0.914443 0.635648
vt 0.897678 0.635648
vt 0.897678 0.968147
# 72 texture coordinates

vn 0.000000 -1.000000 0.000000
vn 0.000000 1.000000 0.000000
vn 0.000000 0.000000 1.000000
vn 1.000000 0.000000 0.000000
vn 0.000000 0.000000 -1.000000
vn -1.000000 0.000000 0.000000
vn 0.000000 -1.000000 0.000000
vn 0.000000 1.000000 0.000000
vn 0.000000 0.000000 1.000000
vn 1.000000 0.000000 0.000000
vn 0.000000 0.000000 -1.000000
vn -1.000000 0.000000 0.000000
vn 0.000000 -1.000000 0.000000
vn 0.000000 1.000000 0.000000
vn 0.000000 0.000000 1.000000
vn 1.000000 0.000000 0.000000
vn 0.000000 0.000000 -1.000000
vn -1.000000 0.000000 0.000000
# 18 normals

usemtl default
f 1/1/1 2/2/1 3/3/1 4/4/1
f 5/5/2 6/6/2 7/7/2 8/8/2
f 1/9/3 4/10/3 6/11/3 5/12/3
f 4/13/4 3/14/4 7/15/4 6/16/4
f 3/17/5 2/18/5 8/19/5 7/20/5
f 2/21/6 1/22/6 5/23/6 8/24/6

g Box002

# 0 positions

# 0 texture coordinates

# 0 normals

usemtl default
f 9/25/7 10/26/7 11/27/7 12/28/7
f 13/29/8 14/30/8 15/31/8 16/32/8
f 9/33/9 12/34/9 14/35/9 13/36/9
f 12/37/10 11/38/10 15/39/10 14/40/10
f 11/41/11 10/42/11 16/43/11 15/44/11
f 10/45/12 9/46/12 13/47/12 16/48/12

g Box003

# 0 positions

# 0 texture coordinates

# 0 normals

usemtl default
f 17/49/13 18/50/13 19/51/13 20/52/13
f 21/53/14 22/54/14 23/55/14 24/56/14
f 17/57/15 20/58/15 22/59/15 21/60/15
f 20/61/16 19/62/16 23/63/16 22/64/16
f 19/65/17 18/66/17 24/67/17 23/68/17
f 18/69/18 17/70/18 21/71/18 24/72/18

# 18 faces
