# Wavefront Obj file
# 
# verts: 56 uv-s: 144
mtllib mueble_cajon.mtl

g cajones

v -0.312400 0.133800 1.250000
v -0.312400 0.133800 -1.250000
v -0.312400 -0.144500 -1.250000
v -0.312400 -0.144500 1.250000
v -0.312400 0.448900 1.250000
v -0.312400 0.448900 -1.250000
v -0.312400 0.153800 -1.250000
v -0.312400 0.153800 1.250000
v -0.312400 -0.459700 -1.250000
v -0.312400 -0.459700 1.250000
v -0.312400 -0.164500 1.250000
v -0.312400 -0.164500 -1.250000
v -0.295100 -0.144500 1.250000
v -0.295100 0.133800 1.250000
v -0.295100 0.133800 -1.250000
v -0.295100 -0.144500 -1.250000
v -0.295100 0.153800 1.250000
v -0.295100 0.448900 1.250000
v -0.295100 0.448900 -1.250000
v -0.295100 0.153800 -1.250000
v -0.295100 -0.459700 1.250000
v -0.295100 -0.164500 1.250000
v -0.295100 -0.164500 -1.250000
v -0.295100 -0.459700 -1.250000
v -0.295100 -0.480400 1.250000
v -0.295100 -0.480400 -1.250000
v 0.304900 -0.480400 -1.250000
v 0.304900 -0.480400 1.250000
v -0.295100 0.480400 1.250000
v 0.304900 0.480400 1.250000
v 0.304900 0.480400 -1.250000
v -0.295100 0.480400 -1.250000
v 0.304900 0.469600 1.250000
v -0.295100 -0.459700 1.250000
v -0.295100 0.469600 1.250000
v -0.295100 0.448900 1.250000
v -0.295100 0.153800 1.250000
v -0.295100 0.133800 1.250000
v -0.295100 -0.144500 1.250000
v -0.295100 -0.164500 1.250000
v 0.304900 0.469600 -1.250000
v -0.295100 -0.459700 -1.250000
v -0.295100 -0.164500 -1.250000
v -0.295100 -0.144500 -1.250000
v -0.295100 0.133800 -1.250000
v -0.295100 0.153800 -1.250000
v -0.295100 0.448900 -1.250000
v -0.295100 0.469600 -1.250000
v -0.302700 0.469600 1.257600
v 0.312400 0.469600 1.257600
v 0.312400 0.480400 1.257600
v -0.302700 0.480400 1.257600
v 0.312400 0.469600 -1.257600
v 0.312400 0.480400 -1.257600
v -0.302700 0.469600 -1.257600
v -0.302700 0.480400 -1.257600
# 56 positions

vt 0.658424 0.404042
vt 0.010000 0.404042
vt 0.010000 0.331859
vt 0.658424 0.331859
vt 0.747042 0.341576
vt 0.747042 0.990000
vt 0.670502 0.990000
vt 0.670502 0.341576
vt 0.983875 0.323399
vt 0.335451 0.323399
vt 0.335451 0.246833
vt 0.983875 0.246833
vt 0.318292 0.325141
vt 0.318292 0.252958
vt 0.322779 0.252958
vt 0.322779 0.325141
vt 0.983875 0.120654
vt 0.335452 0.120654
vt 0.335452 0.116167
vt 0.983875 0.116167
vt 0.310529 0.252958
vt 0.310529 0.325141
vt 0.306042 0.325141
vt 0.306042 0.252958
vt 0.983875 0.108404
vt 0.335451 0.108404
vt 0.335452 0.103917
vt 0.983875 0.103917
vt 0.759292 0.488793
vt 0.759292 0.565333
vt 0.754805 0.565333
vt 0.754805 0.488793
vt 0.983875 0.200279
vt 0.335452 0.200279
vt 0.335452 0.195792
vt 0.983875 0.195792
vt 0.754805 0.734792
vt 0.754805 0.658252
vt 0.759292 0.658252
vt 0.759292 0.734792
vt 0.983875 0.188029
vt 0.335452 0.188029
vt 0.335452 0.183542
vt 0.983875 0.183542
vt 0.754805 0.481625
vt 0.754805 0.405059
vt 0.759292 0.405059
vt 0.759292 0.481625
vt 0.983875 0.175779
vt 0.335452 0.175779
vt 0.335452 0.171292
vt 0.983875 0.171292
vt 0.759292 0.574517
vt 0.759292 0.651083
vt 0.754805 0.651083
vt 0.754805 0.574517
vt 0.983875 0.132904
vt 0.335452 0.132904
vt 0.335452 0.128417
vt 0.983875 0.128417
vt 0.010000 0.411753
vt 0.658424 0.411753
vt 0.658424 0.567375
vt 0.010000 0.567375
vt 0.011973 0.732820
vt 0.011972 0.577198
vt 0.660394 0.577198
vt 0.660394 0.732820
vt 0.256402 0.168795
vt 0.256402 0.324417
vt 0.010000 0.324417
vt 0.251032 0.168795
vt 0.010000 0.168795
vt 0.015369 0.168795
vt 0.091909 0.168795
vt 0.097096 0.168795
vt 0.169280 0.168795
vt 0.174466 0.168795
vt 0.658424 0.990000
vt 0.010000 0.990000
vt 0.010000 0.743599
vt 0.658424 0.743599
vt 0.910375 0.990000
vt 0.754753 0.990000
vt 0.754753 0.984631
vt 0.754753 0.908064
vt 0.754753 0.902878
vt 0.754753 0.830695
vt 0.754753 0.825507
vt 0.754753 0.748968
vt 0.754753 0.743598
vt 0.910375 0.743598
vt 0.298635 0.165167
vt 0.298635 0.324705
vt 0.295833 0.324705
vt 0.295833 0.165167
vt 0.337635 0.161083
vt 0.990000 0.161083
vt 0.990000 0.163884
vt 0.337635 0.163884
vt 0.278218 0.165167
vt 0.278218 0.324705
vt 0.275417 0.324705
vt 0.275417 0.165167
vt 0.337633 0.150875
vt 0.990000 0.150875
vt 0.990000 0.153676
vt 0.337633 0.153676
vt 0.265208 0.322733
vt 0.265208 0.167113
vt 0.267180 0.165167
vt 0.267180 0.324705
vt 0.988028 0.142612
vt 0.339602 0.142612
vt 0.337630 0.140667
vt 0.990000 0.140667
vt 0.287596 0.167113
vt 0.287596 0.322733
vt 0.285625 0.324705
vt 0.285625 0.165167
vt 0.339609 0.222333
vt 0.988028 0.222333
vt 0.990000 0.224305
vt 0.337638 0.224304
vt 0.010002 0.734792
vt 0.010000 0.575252
vt 0.662364 0.734792
vt 0.662364 0.575253
vt 0.983875 0.237911
vt 0.335450 0.237911
vt 0.335450 0.232542
vt 0.983875 0.232542
vt 0.983875 0.213229
vt 0.335450 0.213229
vt 0.335450 0.208042
vt 0.983875 0.208042
vt 0.335450 0.089625
vt 0.983875 0.089625
vt 0.983875 0.094994
vt 0.335450 0.094994
vt 0.924667 0.341573
vt 0.924667 0.990000
vt 0.919479 0.990000
vt 0.919479 0.341573
# 144 texture coordinates

vn -1.000000 0.000000 0.000000
vn 0.000000 0.000000 1.000000
vn 0.000000 1.000000 0.000000
vn 0.000000 0.000000 -1.000000
vn 0.000000 -1.000000 0.000000
vn 0.000000 -1.000000 0.000000
vn 0.000000 1.000000 0.000000
vn 0.000000 0.000000 1.000000
vn 1.000000 0.000000 0.000000
vn 0.000000 0.000000 -1.000000
vn -1.000000 0.000000 0.000000
# 11 normals

usemtl default
f 1/1/1 2/2/1 3/3/1 4/4/1
f 5/5/1 6/6/1 7/7/1 8/8/1
f 9/9/1 10/10/1 11/11/1 12/12/1
f 13/13/2 14/14/2 1/15/2 4/16/2
f 14/17/3 15/18/3 2/19/3 1/20/3
f 15/21/4 16/22/4 3/23/4 2/24/4
f 16/25/5 13/26/5 4/27/5 3/28/5
f 17/29/2 18/30/2 5/31/2 8/32/2
f 18/33/3 19/34/3 6/35/3 5/36/3
f 19/37/4 20/38/4 7/39/4 6/40/4
f 20/41/5 17/42/5 8/43/5 7/44/5
f 21/45/2 22/46/2 11/47/2 10/48/2
f 22/49/3 23/50/3 12/51/3 11/52/3
f 23/53/4 24/54/4 9/55/4 12/56/4
f 24/57/5 21/58/5 10/59/5 9/60/5

g mueble1

# 0 positions

# 0 texture coordinates

# 0 normals

usemtl default
f 25/61/6 26/62/6 27/63/6 28/64/6
f 29/65/7 30/66/7 31/67/7 32/68/7
f 25/69/8 28/70/8 33/71/8 34/72/8
f 33/71/8 35/73/8 36/74/8 37/75/8
f 33/71/8 37/75/8 38/76/8 39/77/8
f 33/71/8 39/77/8 40/78/8 34/72/8
f 28/79/9 27/80/9 41/81/9 33/82/9
f 27/83/10 26/84/10 42/85/10 43/86/10
f 27/83/10 43/86/10 44/87/10 45/88/10
f 27/83/10 45/88/10 46/89/10 47/90/10
f 27/83/10 47/90/10 48/91/10 41/92/10
f 49/93/8 50/94/8 51/95/8 52/96/8
f 50/97/9 53/98/9 54/99/9 51/100/9
f 53/101/10 55/102/10 56/103/10 54/104/10
f 55/105/11 49/106/11 52/107/11 56/108/11
f 35/109/6 33/110/6 50/111/6 49/112/6
f 33/113/6 41/114/6 53/115/6 50/116/6
f 41/117/6 48/118/6 55/119/6 53/120/6
f 48/121/6 35/122/6 49/123/6 55/124/6
f 30/66/7 29/65/7 52/125/7 51/126/7
f 29/65/7 32/68/7 56/127/7 52/125/7
f 32/68/7 31/67/7 54/128/7 56/127/7
f 31/67/7 30/66/7 51/126/7 54/128/7
f 35/129/11 48/130/11 47/131/11 36/132/11
f 37/133/11 46/134/11 45/135/11 38/136/11
f 26/137/11 25/138/11 34/139/11 42/140/11
f 43/141/11 40/142/11 39/143/11 44/144/11

# 42 faces
