# Wavefront Obj file
# 
# verts: 70 uv-s: 150
mtllib walkie talkie.mtl

g Box001

v -0.035000 0.000000 0.015000
v -0.043300 0.000000 0.000000
v 0.021300 0.000000 0.000000
v 0.025400 0.000000 0.015000
v -0.035000 0.150000 0.015000
v 0.025400 0.150000 0.015000
v 0.021300 0.150000 0.000000
v -0.043300 0.150000 0.000000
v 0.035000 0.009100 0.015000
v 0.035000 0.140900 0.015000
v 0.025400 0.140900 0.015000
v 0.025400 0.009100 0.015000
v 0.035000 0.009100 0.000000
v 0.035000 0.140900 0.000000
v -0.035000 0.009100 -0.015000
v -0.035000 0.140900 -0.015000
v 0.025400 0.140900 -0.015000
v 0.025400 0.009100 -0.015000
v -0.043300 0.009100 0.000000
v -0.043300 0.140900 0.000000
v -0.035000 0.000000 -0.015000
v 0.025400 0.000000 -0.015000
v 0.031200 0.146600 0.000000
v 0.031200 0.146600 -0.015000
v 0.025400 0.150000 -0.015000
v 0.035000 0.009100 -0.015000
v 0.035000 0.140900 -0.015000
v -0.035000 0.009100 0.015000
v -0.035000 0.140900 0.015000
v 0.031200 0.146600 0.015000
v 0.031000 0.003900 0.015000
v 0.031000 0.003900 0.000000
v -0.035000 0.150000 -0.015000
v 0.031000 0.003900 -0.015000
v -0.030300 0.122600 0.000000
v -0.030300 0.122600 -0.007000
v -0.025400 0.122600 -0.004900
v -0.023300 0.122600 0.000000
v -0.037300 0.122600 0.000000
v -0.035200 0.122600 -0.004900
v -0.030300 0.122600 0.007000
v -0.035200 0.122600 0.004900
v -0.025400 0.122600 0.004900
v -0.025400 0.245300 -0.004900
v -0.023300 0.245300 0.000000
v -0.030300 0.245300 -0.007000
v -0.035200 0.245300 -0.004900
v -0.037300 0.245300 0.000000
v -0.035200 0.245300 0.004900
v -0.030300 0.245300 0.007000
v -0.025400 0.245300 0.004900
v -0.030300 0.245300 0.000000
v 0.017400 0.136700 0.000000
v 0.017400 0.136700 -0.007000
v 0.022300 0.136700 -0.004900
v 0.024400 0.136700 0.000000
v 0.010400 0.136700 0.000000
v 0.012500 0.136700 -0.004900
v 0.017400 0.136700 0.007000
v 0.012500 0.136700 0.004900
v 0.022300 0.136700 0.004900
v 0.022300 0.159500 -0.004900
v 0.024400 0.159500 0.000000
v 0.017400 0.159500 -0.007000
v 0.012500 0.159500 -0.004900
v 0.010400 0.159500 0.000000
v 0.012500 0.159500 0.004900
v 0.017400 0.159500 0.007000
v 0.022300 0.159500 0.004900
v 0.017400 0.159500 0.000000
# 70 positions

vt 0.626679 0.250304
vt 0.682430 0.281153
vt 0.682430 0.041052
vt 0.626679 0.025814
vt 0.680971 0.586969
vt 0.680971 0.811460
vt 0.625220 0.796221
vt 0.625220 0.556121
vt 0.265171 0.038822
vt 0.265171 0.528687
vt 0.229490 0.528687
vt 0.229490 0.038822
vt 0.024327 0.625220
vt 0.514191 0.625220
vt 0.514191 0.680971
vt 0.024327 0.680971
vt 0.532150 0.528687
vt 0.532150 0.038822
vt 0.307659 0.038822
vt 0.307659 0.528687
vt 0.528687 0.743454
vt 0.038822 0.743454
vt 0.038822 0.799205
vt 0.528687 0.799205
vt 0.738181 0.250304
vt 0.738181 0.025814
vt 0.625220 0.833017
vt 0.569470 0.833017
vt 0.569470 0.811460
vt 0.024327 0.569470
vt 0.514191 0.569470
vt 0.528687 0.687703
vt 0.038822 0.687703
vt 0.251047 0.549872
vt 0.229490 0.562509
vt 0.005000 0.038822
vt 0.005000 0.005000
vt 0.229490 0.005000
vt 0.535377 0.625220
vt 0.535377 0.680971
vt 0.005000 0.680971
vt 0.005000 0.625220
vt 0.532150 0.005000
vt 0.307659 0.005000
vt 0.271979 0.528687
vt 0.286846 0.548014
vt 0.307659 0.562509
vt 0.005000 0.743454
vt 0.005000 0.799205
vt 0.562509 0.799205
vt 0.562509 0.743454
vt 0.535377 0.569470
vt 0.005000 0.569470
vt 0.005000 0.687703
vt 0.562509 0.687703
vt 0.682430 0.005000
vt 0.626679 0.005000
vt 0.680971 0.833017
vt 0.005000 0.528687
vt 0.271979 0.038822
vt 0.738181 0.005000
vt 0.569470 0.586969
vt 0.005000 0.562509
vt 0.250304 0.019495
vt 0.286102 0.017637
vt 0.532150 0.562509
vt 0.713720 0.700371
vt 0.739737 0.700371
vt 0.731932 0.682159
vt 0.713720 0.674354
vt 0.713720 0.726388
vt 0.731932 0.718583
vt 0.687703 0.700371
vt 0.695508 0.718583
vt 0.695508 0.682159
vt 0.538958 0.530472
vt 0.538958 0.512260
vt 0.995000 0.512260
vt 0.995000 0.530472
vt 0.582818 0.461042
vt 0.601030 0.461042
vt 0.601030 0.005000
vt 0.582818 0.005000
vt 0.619242 0.461042
vt 0.619242 0.005000
vt 0.995000 0.504823
vt 0.995000 0.486611
vt 0.538958 0.486611
vt 0.538958 0.504823
vt 0.995000 0.468399
vt 0.538958 0.468399
vt 0.538958 0.005000
vt 0.557170 0.005000
vt 0.557170 0.461042
vt 0.538958 0.461042
vt 0.575382 0.005000
vt 0.575382 0.461042
vt 0.538958 0.548684
vt 0.995000 0.548684
vt 0.696557 0.402880
vt 0.714769 0.421092
vt 0.696557 0.428898
vt 0.678345 0.421092
vt 0.670540 0.402880
vt 0.678345 0.384668
vt 0.696557 0.376863
vt 0.714769 0.384668
vt 0.722574 0.402880
vt 0.713720 0.582138
vt 0.739737 0.582138
vt 0.731932 0.563926
vt 0.713720 0.556121
vt 0.713720 0.608155
vt 0.731932 0.600350
vt 0.687703 0.582138
vt 0.695508 0.600350
vt 0.695508 0.563926
vt 0.670540 0.351215
vt 0.670540 0.333003
vt 0.755282 0.333003
vt 0.755282 0.351215
vt 0.626679 0.366255
vt 0.644891 0.366255
vt 0.644891 0.281514
vt 0.626679 0.281514
vt 0.663103 0.366255
vt 0.663103 0.281514
vt 0.755282 0.325566
vt 0.755282 0.307354
vt 0.670540 0.307354
vt 0.670540 0.325566
vt 0.755282 0.289142
vt 0.670540 0.289142
vt 0.626679 0.373049
vt 0.644891 0.373049
vt 0.644891 0.457791
vt 0.626679 0.457791
vt 0.663103 0.373049
vt 0.663103 0.457791
vt 0.670540 0.369426
vt 0.755282 0.369426
vt 0.713720 0.641254
vt 0.731932 0.659466
vt 0.713720 0.667271
vt 0.695508 0.659466
vt 0.687703 0.641254
vt 0.695508 0.623042
vt 0.713720 0.615237
vt 0.731932 0.623042
vt 0.739737 0.641254
# 150 texture coordinates

vn 0.000000 -1.000000 0.000000
vn 0.233328 -0.972398 0.000000
vn 0.233210 -0.971904 -0.031872
vn 0.000000 1.000000 0.000000
vn 0.202718 0.978845 -0.027705
vn 0.202796 0.979221 0.000000
vn 0.000000 0.000000 1.000000
vn 0.000000 0.000000 1.000000
vn 0.000000 0.000000 1.000000
vn 0.946738 -0.322006 0.000000
vn 0.957092 0.289785 0.000000
vn -0.507860 0.000000 -0.861440
vn -0.507860 0.000000 -0.861440
vn 0.000000 0.000000 -1.000000
vn 0.000000 0.000000 -1.000000
vn -1.000000 0.000000 0.000000
vn -1.000000 0.000000 0.000000
vn 0.233210 -0.971904 0.031872
vn 0.641137 0.767426 0.000000
vn 0.641137 0.767426 0.000000
vn 0.202718 0.978845 0.027705
vn -0.507860 0.000000 0.861440
vn -0.507860 0.000000 0.861440
vn 0.639230 -0.769015 0.000000
vn 0.639230 -0.769015 0.000000
vn 0.000000 0.000000 -1.000000
vn 0.000000 0.000000 -1.000000
vn 0.000000 0.000000 1.000000
vn 0.000000 -1.000000 0.000000
vn 1.000000 0.000000 0.000000
vn 0.707107 0.000000 -0.707107
vn 1.000000 0.000000 0.000000
vn -0.000000 0.000000 -1.000000
vn -0.707107 0.000000 -0.707107
vn -1.000000 0.000000 0.000000
vn -0.707107 0.000000 0.707107
vn -0.000000 0.000000 1.000000
vn -0.000000 0.000000 1.000000
vn 0.707107 0.000000 0.707107
vn 0.000000 1.000000 0.000000
vn 0.000000 -1.000000 0.000000
vn 1.000000 0.000000 0.000000
vn 0.707107 0.000000 -0.707107
vn 0.000000 0.000000 -1.000000
vn -0.707107 0.000000 -0.707107
vn -1.000000 0.000000 0.000000
vn -0.707107 0.000000 0.707107
vn 0.000000 0.000000 1.000000
vn 0.000000 0.000000 1.000000
vn 0.707107 0.000000 0.707107
vn 0.000000 1.000000 0.000000
# 51 normals

usemtl default
f 1/1/1 2/2/1 3/3/2 4/4/3
f 5/5/4 6/6/5 7/7/6 8/8/4
f 9/9/7 10/10/7 11/11/8 12/12/9
f 13/13/10 14/14/11 10/15/11 9/16/10
f 15/17/12 16/18/13 17/19/14 18/20/15
f 19/21/16 20/22/17 16/23/13 15/24/12
f 2/2/1 21/25/1 22/26/18 3/3/2
f 23/27/19 24/28/20 25/29/21 7/7/6
f 26/30/10 27/31/11 14/14/11 13/13/10
f 28/32/22 29/33/22 20/22/17 19/21/16
f 10/10/7 30/34/7 6/35/8 11/11/8
f 28/36/22 1/37/23 4/38/9 12/12/9
f 14/14/11 23/39/19 30/40/20 10/15/11
f 9/16/10 31/41/24 32/42/25 13/13/10
f 16/18/13 33/43/12 25/44/14 17/19/14
f 26/45/26 34/46/27 22/47/15 18/20/15
f 20/22/17 8/48/16 33/49/12 16/23/13
f 15/24/12 21/50/12 2/51/16 19/21/16
f 27/31/11 24/52/20 23/39/19 14/14/11
f 13/13/10 32/42/25 34/53/24 26/30/10
f 29/33/22 5/54/23 8/48/16 20/22/17
f 19/21/16 2/51/16 1/55/23 28/32/22
f 3/3/2 32/56/25 31/57/24 4/4/3
f 6/6/5 30/58/20 23/27/19 7/7/6
f 11/11/8 29/59/22 28/36/22 12/12/9
f 17/19/14 27/60/26 26/45/26 18/20/15
f 22/26/18 34/61/24 32/56/25 3/3/2
f 25/29/21 33/62/4 8/8/4 7/7/6
f 6/35/8 5/63/23 29/59/22 11/11/8
f 4/38/9 31/64/28 9/9/7 12/12/9
f 25/44/14 24/65/26 27/60/26 17/19/14
f 22/47/15 21/66/12 15/17/12 18/20/15

g Cylinder001

# 0 positions

# 0 texture coordinates

# 0 normals

usemtl default
f 35/67/29 36/68/29 37/69/29 38/70/29
f 35/67/29 39/71/29 40/72/29 36/68/29
f 35/67/29 41/73/29 42/74/29 39/71/29
f 35/67/29 38/70/29 43/75/29 41/73/29
f 38/76/30 37/77/31 44/78/31 45/79/32
f 37/80/31 36/81/33 46/82/33 44/83/31
f 36/81/33 40/84/34 47/85/34 46/82/33
f 40/86/34 39/87/35 48/88/35 47/89/34
f 39/87/35 42/90/36 49/91/36 48/88/35
f 42/92/36 41/93/37 50/94/38 49/95/36
f 41/93/37 43/96/39 51/97/39 50/94/38
f 43/98/39 38/76/30 45/79/32 51/99/39
f 52/100/40 51/101/40 45/102/40 44/103/40
f 52/100/40 44/103/40 46/104/40 47/105/40
f 52/100/40 47/105/40 48/106/40 49/107/40
f 52/100/40 49/107/40 50/108/40 51/101/40

g Cylinder002

# 0 positions

# 0 texture coordinates

# 0 normals

usemtl default
f 53/109/41 54/110/41 55/111/41 56/112/41
f 53/109/41 57/113/41 58/114/41 54/110/41
f 53/109/41 59/115/41 60/116/41 57/113/41
f 53/109/41 56/112/41 61/117/41 59/115/41
f 56/118/42 55/119/43 62/120/43 63/121/42
f 55/122/43 54/123/44 64/124/44 62/125/43
f 54/123/44 58/126/45 65/127/45 64/124/44
f 58/128/45 57/129/46 66/130/46 65/131/45
f 57/129/46 60/132/47 67/133/47 66/130/46
f 60/134/47 59/135/48 68/136/49 67/137/47
f 59/135/48 61/138/50 69/139/50 68/136/49
f 61/140/50 56/118/42 63/121/42 69/141/50
f 70/142/51 69/143/51 63/144/51 62/145/51
f 70/142/51 62/145/51 64/146/51 65/147/51
f 70/142/51 65/147/51 66/148/51 67/149/51
f 70/142/51 67/149/51 68/150/51 69/143/51

# 64 faces
