# Wavefront Obj file
# 
# verts: 28 uv-s: 56
mtllib caña_tren_c.mtl

g caña_tren_c

v 0.625300 -0.355200 -1.570500
v 0.625300 -0.355200 1.570500
v -0.625300 -0.355200 1.570500
v -0.625300 -0.355200 -1.570500
v -0.208400 0.355200 0.942300
v -0.625300 0.355200 0.942300
v -0.625300 0.254300 1.570500
v -0.208400 0.290500 1.570500
v 0.208400 0.355200 0.942300
v 0.208400 0.290500 1.570500
v 0.625300 0.300600 0.942300
v 0.625300 0.220200 1.570500
v -0.208400 0.353700 0.314100
v -0.625300 0.353700 0.314100
v 0.208400 0.302300 0.314100
v 0.625300 0.302300 0.314100
v -0.208400 0.353700 -0.314100
v -0.625300 0.353700 -0.314100
v 0.208400 0.353700 -0.314100
v 0.625300 0.353700 -0.314100
v -0.208400 0.353700 -0.942300
v -0.625300 0.266400 -0.942300
v 0.208400 0.353700 -0.942300
v 0.625300 0.317400 -0.942300
v -0.208400 0.266400 -1.570500
v -0.625300 0.204800 -1.570500
v 0.208400 0.266400 -1.570500
v 0.625300 0.210600 -1.570500
# 28 positions

vt 0.548243 0.005000
vt 0.005000 0.005000
vt 0.005000 0.221294
vt 0.548243 0.221294
vt 0.439595 0.300482
vt 0.439595 0.228378
vt 0.548243 0.228378
vt 0.548243 0.300482
vt 0.439595 0.372569
vt 0.548243 0.372569
vt 0.439595 0.444673
vt 0.548243 0.444673
vt 0.330946 0.300482
vt 0.330946 0.228378
vt 0.330946 0.372569
vt 0.330946 0.444673
vt 0.222297 0.300482
vt 0.222297 0.228378
vt 0.222297 0.372569
vt 0.222297 0.444673
vt 0.113649 0.300482
vt 0.113649 0.228378
vt 0.113649 0.372569
vt 0.113649 0.444673
vt 0.005000 0.300482
vt 0.005000 0.228378
vt 0.005000 0.372569
vt 0.005000 0.444673
vt 0.501378 0.666154
vt 0.429292 0.666154
vt 0.573482 0.554478
vt 0.573482 0.653995
vt 0.357188 0.659893
vt 0.357188 0.554478
vt 0.670806 0.113649
vt 0.677084 0.222297
vt 0.554478 0.005000
vt 0.652335 0.005000
vt 0.668195 0.330946
vt 0.667901 0.439595
vt 0.653995 0.548243
vt 0.554478 0.548243
vt 0.350104 0.462411
vt 0.278000 0.451757
vt 0.133809 0.559264
vt 0.350104 0.559264
vt 0.205913 0.451757
vt 0.133809 0.461408
vt 0.022451 0.451757
vt 0.005000 0.560406
vt 0.127865 0.995000
vt 0.127865 0.451757
vt 0.005259 0.669054
vt 0.005259 0.777703
vt 0.020358 0.886351
vt 0.031012 0.995000
# 56 texture coordinates

vn 0.000000 -1.000000 0.000000
vn 0.015468 0.999261 0.035201
vn 0.000118 0.998972 0.045330
vn -0.028678 0.992211 0.121222
vn 0.006372 0.999979 -0.001332
vn 0.073796 0.991380 0.108261
vn 0.106647 0.993624 0.036563
vn 0.147186 0.982578 0.113477
vn 0.030773 0.999526 -0.001192
vn 0.016345 0.999820 0.009646
vn 0.047152 0.998841 0.009653
vn -0.052044 0.998047 -0.034538
vn -0.069916 0.994263 -0.080955
vn -0.139379 0.985910 -0.092498
vn 0.038121 0.996080 -0.079824
vn 0.076184 0.992975 -0.090537
vn -0.087649 0.987989 -0.127260
vn 0.054341 0.987949 -0.144929
vn 0.108518 0.982440 -0.151776
vn 0.000000 0.000000 1.000000
vn 1.000000 0.000000 0.000000
vn 0.000000 0.000000 -1.000000
vn -1.000000 0.000000 0.000000
# 23 normals

usemtl cane_train
f 1/1/1 2/2/1 3/3/1 4/4/1
f 5/5/2 6/6/3 7/7/4 8/8/4
f 9/9/5 5/5/2 8/8/4 10/10/6
f 11/11/7 9/9/5 10/10/6 12/12/8
f 13/13/9 14/14/10 6/6/3 5/5/2
f 15/15/11 13/13/9 5/5/2 9/9/5
f 16/16/10 15/15/11 9/9/5 11/11/7
f 17/17/5 18/18/12 14/14/10 13/13/9
f 19/19/2 17/17/5 13/13/9 15/15/11
f 20/20/3 19/19/2 15/15/11 16/16/10
f 21/21/13 22/22/14 18/18/12 17/17/5
f 23/23/15 21/21/13 17/17/5 19/19/2
f 24/24/16 23/23/15 19/19/2 20/20/3
f 25/25/17 26/26/5 22/22/14 21/21/13
f 27/27/18 25/25/17 21/21/13 23/23/15
f 28/28/19 27/27/18 23/23/15 24/24/16
f 10/29/20 8/30/20 2/31/20 12/32/20
f 8/30/20 7/33/20 3/34/20 2/31/20
f 24/35/21 20/36/21 1/37/21 28/38/21
f 16/39/21 11/40/21 1/37/21 20/36/21
f 11/40/21 12/41/21 2/42/21 1/37/21
f 26/43/22 25/44/22 1/45/22 4/46/22
f 27/47/22 28/48/22 1/45/22 25/44/22
f 7/49/23 6/50/23 4/51/23 3/52/23
f 14/53/23 18/54/23 4/51/23 6/50/23
f 22/55/23 26/56/23 4/51/23 18/54/23

# 26 faces
