# Wavefront Obj file
# 
# verts: 24 uv-s: 72
mtllib caudalimetro.mtl

g caudalimetro

v 1.277400 1.359600 -3.164900
v 1.363400 1.359600 -3.164900
v 1.277400 1.359600 -3.442400
v 1.363400 1.359600 -3.442400
v 1.277400 1.740700 -3.164900
v 1.363400 1.740700 -3.164900
v 1.277400 1.740700 -3.442400
v 1.363400 1.740700 -3.442400
v 1.277400 1.601900 -3.386800
v 1.277400 1.601900 -3.215400
v 1.277400 1.684700 -3.386800
v 1.277400 1.684700 -3.215400
v 1.267700 1.601900 -3.386800
v 1.267700 1.601900 -3.215400
v 1.267700 1.684700 -3.386800
v 1.267700 1.684700 -3.215400
v 1.299800 1.040200 -3.273100
v 1.341000 1.040200 -3.273100
v 1.299800 1.040200 -3.334200
v 1.341000 1.040200 -3.334200
v 1.299800 1.421400 -3.273100
v 1.341000 1.421400 -3.273100
v 1.299800 1.421400 -3.334200
v 1.341000 1.421400 -3.334200
# 24 positions

vt 0.895615 0.096352
vt 0.895615 0.469181
vt 0.780072 0.469181
vt 0.780072 0.096352
vt 0.197459 0.135584
vt 0.197459 0.020041
vt 0.570287 0.020041
vt 0.570287 0.135584
vt 0.771107 0.730870
vt 0.655563 0.730870
vt 0.655563 0.218852
vt 0.771107 0.218852
vt 0.010000 0.990000
vt 0.010000 0.617172
vt 0.522018 0.617172
vt 0.522018 0.990000
vt 0.646598 0.730870
vt 0.531055 0.730870
vt 0.531055 0.218852
vt 0.646598 0.218852
vt 0.522018 0.234918
vt 0.522018 0.607746
vt 0.010000 0.607746
vt 0.010000 0.234918
vt 0.530123 0.759720
vt 0.641367 0.759720
vt 0.641367 0.990000
vt 0.530123 0.990000
vt 0.647813 0.990000
vt 0.647813 0.759720
vt 0.759057 0.759720
vt 0.759057 0.990000
vt 0.530785 0.737992
vt 0.761066 0.737992
vt 0.761066 0.751025
vt 0.530785 0.751025
vt 0.758074 0.191531
vt 0.758074 0.080287
vt 0.771107 0.080287
vt 0.771107 0.191531
vt 0.530785 0.198770
vt 0.761066 0.198770
vt 0.761066 0.211803
vt 0.530785 0.211803
vt 0.010000 0.124467
vt 0.121244 0.124467
vt 0.121244 0.137499
vt 0.010000 0.137499
vt 0.578320 0.134508
vt 0.660409 0.134508
vt 0.660409 0.189861
vt 0.578320 0.189861
vt 0.668935 0.189861
vt 0.668935 0.134508
vt 0.751025 0.134508
vt 0.751025 0.189861
vt 0.990000 0.728997
vt 0.934647 0.728997
vt 0.934647 0.216844
vt 0.990000 0.216844
vt 0.010000 0.226885
vt 0.010000 0.144796
vt 0.522152 0.144796
vt 0.522152 0.226885
vt 0.869508 0.477848
vt 0.924861 0.477848
vt 0.924861 0.990000
vt 0.869508 0.990000
vt 0.779139 0.477848
vt 0.861229 0.477848
vt 0.861229 0.990000
vt 0.779139 0.990000
# 72 texture coordinates

vn 0.000000 -1.000000 0.000000
vn 0.000000 -1.000000 0.000000
vn 0.000000 -1.000000 0.000000
vn 0.000000 -1.000000 0.000000
vn 0.000000 1.000000 0.000000
vn 0.000000 1.000000 0.000000
vn 0.000000 1.000000 0.000000
vn 0.000000 1.000000 0.000000
vn 0.000000 0.000000 1.000000
vn 0.000000 0.000000 1.000000
vn 0.000000 0.000000 1.000000
vn 0.000000 0.000000 1.000000
vn 1.000000 0.000000 0.000000
vn 1.000000 0.000000 0.000000
vn 1.000000 0.000000 0.000000
vn 1.000000 0.000000 0.000000
vn 0.000000 0.000000 -1.000000
vn 0.000000 0.000000 -1.000000
vn 0.000000 0.000000 -1.000000
vn 0.000000 0.000000 -1.000000
vn -1.000000 0.000000 0.000000
vn -1.000000 0.000000 0.000000
vn -1.000000 0.000000 0.000000
vn -1.000000 0.000000 0.000000
vn 1.000000 0.000000 0.000000
vn 1.000000 0.000000 0.000000
vn 1.000000 0.000000 0.000000
vn 1.000000 0.000000 0.000000
vn -1.000000 0.000000 0.000000
vn -1.000000 0.000000 0.000000
vn -1.000000 0.000000 0.000000
vn -1.000000 0.000000 0.000000
vn 0.000000 -1.000000 0.000000
vn 0.000000 -1.000000 0.000000
vn 0.000000 -1.000000 0.000000
vn 0.000000 -1.000000 0.000000
vn 0.000000 0.000000 1.000000
vn 0.000000 0.000000 1.000000
vn 0.000000 0.000000 1.000000
vn 0.000000 0.000000 1.000000
vn 0.000000 1.000000 0.000000
vn 0.000000 1.000000 0.000000
vn 0.000000 1.000000 0.000000
vn 0.000000 1.000000 0.000000
vn 0.000000 0.000000 -1.000000
vn 0.000000 0.000000 -1.000000
vn 0.000000 0.000000 -1.000000
vn 0.000000 0.000000 -1.000000
vn 0.000000 -1.000000 0.000000
vn 0.000000 -1.000000 0.000000
vn 0.000000 -1.000000 0.000000
vn 0.000000 -1.000000 0.000000
vn 0.000000 1.000000 0.000000
vn 0.000000 1.000000 0.000000
vn 0.000000 1.000000 0.000000
vn 0.000000 1.000000 0.000000
vn 0.000000 0.000000 1.000000
vn 0.000000 0.000000 1.000000
vn 0.000000 0.000000 1.000000
vn 0.000000 0.000000 1.000000
vn 1.000000 0.000000 0.000000
vn 1.000000 0.000000 0.000000
vn 1.000000 0.000000 0.000000
vn 1.000000 0.000000 0.000000
vn 0.000000 0.000000 -1.000000
vn 0.000000 0.000000 -1.000000
vn 0.000000 0.000000 -1.000000
vn 0.000000 0.000000 -1.000000
vn -1.000000 0.000000 0.000000
vn -1.000000 0.000000 0.000000
vn -1.000000 0.000000 0.000000
vn -1.000000 0.000000 0.000000
# 72 normals

usemtl default
s 1
f 1/1/1 3/2/2 4/3/3 2/4/4
s 2
f 5/5/5 6/6/6 8/7/7 7/8/8
s 3
f 1/9/9 2/10/10 6/11/11 5/12/12
s 4
f 2/13/13 4/14/14 8/15/15 6/16/16
s 5
f 4/17/17 3/18/18 7/19/19 8/20/20
s 6
f 3/21/21 1/22/22 5/23/23 7/24/24
s 7
f 9/25/25 11/26/26 12/27/27 10/28/28
s 8
f 13/29/29 14/30/30 16/31/31 15/32/32
s 9
f 9/33/33 10/34/34 14/35/35 13/36/36
s 10
f 10/37/37 12/38/38 16/39/39 14/40/40
s 11
f 12/41/41 11/42/42 15/43/43 16/44/44
s 12
f 11/45/45 9/46/46 13/47/47 15/48/48
s 13
f 17/49/49 19/50/50 20/51/51 18/52/52
s 14
f 21/53/53 22/54/54 24/55/55 23/56/56
s 15
f 17/57/57 18/58/58 22/59/59 21/60/60
s 16
f 18/61/61 20/62/62 24/63/63 22/64/64
s 17
f 20/65/65 19/66/66 23/67/67 24/68/68
s 18
f 19/69/69 17/70/70 21/71/71 23/72/72

# 18 faces
