# Wavefront Obj file
# 
# verts: 24 uv-s: 72
mtllib caseta cloro muros.mtl

g Box4441

v -66.026604 0.000000 258.705414
v -63.714401 0.000000 258.705414
v -66.026604 0.000000 256.158112
v -63.714401 0.000000 256.158112
v -66.026604 0.100000 258.705414
v -63.714401 0.100000 258.705414
v -66.026604 0.100000 256.158112
v -63.714401 0.100000 256.158112
v -65.949898 0.000000 258.673401
v -63.791100 0.000000 258.673401
v -65.949898 0.000000 256.198303
v -63.791100 0.000000 256.198303
v -65.949898 1.627100 258.673401
v -63.791100 1.627100 258.673401
v -65.949898 1.627100 256.198303
v -63.791100 1.627100 256.198303
v -65.949898 0.000000 258.633392
v -63.791100 0.000000 258.633392
v -65.949898 0.000000 256.238312
v -63.791100 0.000000 256.238312
v -65.949898 1.627100 258.633392
v -63.791100 1.627100 258.633392
v -65.949898 1.627100 256.238312
v -63.791100 1.627100 256.238312
# 24 positions

vt 0.010000 0.606168
vt 0.432859 0.606168
vt 0.432859 0.990000
vt 0.010000 0.990000
vt 0.432859 0.214253
vt 0.432859 0.598085
vt 0.010000 0.598085
vt 0.010000 0.214253
vt 0.393832 0.131821
vt 0.010000 0.131821
vt 0.010000 0.115221
vt 0.393832 0.115221
vt 0.220530 0.189495
vt 0.643389 0.189495
vt 0.643389 0.206095
vt 0.220530 0.206095
vt 0.393832 0.156579
vt 0.010000 0.156579
vt 0.010000 0.139979
vt 0.393832 0.139979
vt 0.432859 0.181337
vt 0.010000 0.181337
vt 0.010000 0.164737
vt 0.432859 0.164737
vt 0.711303 0.631633
vt 0.711303 0.990000
vt 0.441200 0.990000
vt 0.441200 0.631633
vt 0.441370 0.622135
vt 0.441370 0.263768
vt 0.711474 0.263768
vt 0.711474 0.622135
vt 0.990000 0.807819
vt 0.719897 0.807819
vt 0.719897 0.449453
vt 0.990000 0.449453
vt 0.990000 0.440577
vt 0.719897 0.440577
vt 0.719897 0.082210
vt 0.990000 0.082210
vt 0.010000 0.100779
vt 0.368366 0.100779
vt 0.368366 0.107420
vt 0.010000 0.107420
vt 0.711303 0.255968
vt 0.441200 0.255968
vt 0.441200 0.249326
vt 0.711303 0.249326
vt 0.548484 0.092978
vt 0.190118 0.092978
vt 0.190118 0.086337
vt 0.548484 0.086337
vt 0.441370 0.220442
vt 0.711474 0.220442
vt 0.711474 0.227084
vt 0.441370 0.227084
vt 0.368366 0.078536
vt 0.010000 0.078536
vt 0.010000 0.071895
vt 0.368366 0.071895
vt 0.711474 0.241526
vt 0.441370 0.241526
vt 0.441370 0.234884
vt 0.711474 0.234884
vt 0.377865 0.067768
vt 0.736232 0.067768
vt 0.736232 0.074410
vt 0.377865 0.074410
vt 0.441200 0.175053
vt 0.711303 0.175053
vt 0.711303 0.181694
vt 0.441200 0.181694
# 72 texture coordinates

vn 0.000000 -1.000000 0.000000
vn 0.000000 -1.000000 0.000000
vn 0.000000 -1.000000 0.000000
vn 0.000000 -1.000000 0.000000
vn 0.000000 1.000000 0.000000
vn 0.000000 1.000000 0.000000
vn 0.000000 1.000000 0.000000
vn 0.000000 1.000000 0.000000
vn 0.000000 0.000000 1.000000
vn 0.000000 0.000000 1.000000
vn 0.000000 0.000000 1.000000
vn 0.000000 0.000000 1.000000
vn 1.000000 0.000000 0.000000
vn 1.000000 0.000000 0.000000
vn 1.000000 0.000000 0.000000
vn 1.000000 0.000000 0.000000
vn 0.000000 0.000000 -1.000000
vn 0.000000 0.000000 -1.000000
vn 0.000000 0.000000 -1.000000
vn 0.000000 0.000000 -1.000000
vn -1.000000 0.000000 0.000000
vn -1.000000 0.000000 0.000000
vn -1.000000 0.000000 0.000000
vn -1.000000 0.000000 0.000000
vn 0.000000 0.000000 1.000000
vn 0.000000 0.000000 1.000000
vn 0.000000 0.000000 1.000000
vn 0.000000 0.000000 1.000000
vn 0.000000 0.000000 -1.000000
vn 0.000000 0.000000 -1.000000
vn 0.000000 0.000000 -1.000000
vn 0.000000 0.000000 -1.000000
vn 0.000000 0.000000 -1.000000
vn 0.000000 0.000000 -1.000000
vn 0.000000 0.000000 -1.000000
vn 0.000000 0.000000 -1.000000
vn 0.000000 0.000000 1.000000
vn 0.000000 0.000000 1.000000
vn 0.000000 0.000000 1.000000
vn 0.000000 0.000000 1.000000
vn 0.000000 -1.000000 0.000000
vn 0.000000 -1.000000 0.000000
vn 0.000000 -1.000000 0.000000
vn 0.000000 -1.000000 0.000000
vn 1.000000 0.000000 0.000000
vn 1.000000 0.000000 0.000000
vn 1.000000 0.000000 0.000000
vn 1.000000 0.000000 0.000000
vn 0.000000 1.000000 0.000000
vn 0.000000 1.000000 0.000000
vn 0.000000 1.000000 0.000000
vn 0.000000 1.000000 0.000000
vn -1.000000 0.000000 0.000000
vn -1.000000 0.000000 0.000000
vn -1.000000 0.000000 0.000000
vn -1.000000 0.000000 0.000000
vn 0.000000 -1.000000 0.000000
vn 0.000000 -1.000000 0.000000
vn 0.000000 -1.000000 0.000000
vn 0.000000 -1.000000 0.000000
vn -1.000000 0.000000 0.000000
vn -1.000000 0.000000 0.000000
vn -1.000000 0.000000 0.000000
vn -1.000000 0.000000 0.000000
vn 0.000000 1.000000 0.000000
vn 0.000000 1.000000 0.000000
vn 0.000000 1.000000 0.000000
vn 0.000000 1.000000 0.000000
vn 1.000000 0.000000 0.000000
vn 1.000000 0.000000 0.000000
vn 1.000000 0.000000 0.000000
vn 1.000000 0.000000 0.000000
# 72 normals

usemtl default
s 1
f 1/1/1 3/2/2 4/3/3 2/4/4
s 2
f 5/5/5 6/6/6 8/7/7 7/8/8
s 3
f 1/9/9 2/10/10 6/11/11 5/12/12
s 4
f 2/13/13 4/14/14 8/15/15 6/16/16
s 5
f 4/17/17 3/18/18 7/19/19 8/20/20
s 6
f 3/21/21 1/22/22 5/23/23 7/24/24
s 7
f 9/25/25 10/26/26 14/27/27 13/28/28
s 8
f 12/29/29 11/30/30 15/31/31 16/32/32
s 9
f 22/33/33 18/34/34 17/35/35 21/36/36
s 10
f 23/37/37 19/38/38 20/39/39 24/40/40
s 11
f 10/41/41 9/42/42 17/43/43 18/44/44
s 12
f 14/45/45 10/46/46 18/47/47 22/48/48
s 13
f 13/49/49 14/50/50 22/51/51 21/52/52
s 14
f 9/53/53 13/54/54 21/55/55 17/56/56
s 15
f 11/57/57 12/58/58 20/59/59 19/60/60
s 16
f 15/61/61 11/62/62 19/63/63 23/64/64
s 17
f 16/65/65 15/66/66 23/67/67 24/68/68
s 18
f 12/69/69 16/70/70 24/71/71 20/72/72

# 18 faces
