# Wavefront Obj file
# 
# verts: 72 uv-s: 148
mtllib llanta.mtl

g llanta_final029

v 0.000000 0.000000 -0.245100
v 0.000000 0.083800 -0.230300
v 0.000000 0.157500 -0.187700
v 0.000000 0.212200 -0.122500
v 0.000000 0.241300 -0.042600
v 0.000000 0.241300 0.042600
v 0.000000 0.212200 0.122500
v 0.000000 0.157500 0.187700
v 0.000000 0.083800 0.230300
v 0.000000 0.000000 0.245100
v 0.000000 -0.083800 0.230300
v 0.000000 -0.157500 0.187700
v 0.000000 -0.212200 0.122500
v 0.000000 -0.241300 0.042600
v 0.000000 -0.241300 -0.042600
v 0.000000 -0.212200 -0.122500
v 0.000000 -0.157500 -0.187700
v 0.000000 -0.083800 -0.230300
v -0.135700 0.000000 -0.245100
v -0.135700 0.083800 -0.230300
v -0.135700 0.157500 -0.187700
v -0.135700 0.212200 -0.122500
v -0.135700 0.241300 -0.042600
v -0.135700 0.241300 0.042600
v -0.135700 0.212200 0.122500
v -0.135700 0.157500 0.187700
v -0.135700 0.083800 0.230300
v -0.135700 0.000000 0.245100
v -0.135700 -0.083800 0.230300
v -0.135700 -0.157500 0.187700
v -0.135700 -0.212200 0.122500
v -0.135700 -0.241300 0.042600
v -0.135700 -0.241300 -0.042600
v -0.135700 -0.212200 -0.122500
v -0.135700 -0.157500 -0.187700
v -0.135700 -0.083800 -0.230300
v 0.007700 0.000000 -0.127000
v 0.007700 0.043500 -0.119400
v 0.007700 0.081700 -0.097300
v 0.007700 0.110000 -0.063500
v 0.007700 0.125100 -0.022100
v 0.007700 0.125100 0.022100
v 0.007700 0.110000 0.063500
v 0.007700 0.081700 0.097300
v 0.007700 0.043500 0.119400
v 0.007700 0.000000 0.127000
v 0.007700 -0.043500 0.119400
v 0.007700 -0.081700 0.097300
v 0.007700 -0.110000 0.063500
v 0.007700 -0.125100 0.022100
v 0.007700 -0.125100 -0.022100
v 0.007700 -0.110000 -0.063500
v 0.007700 -0.081700 -0.097300
v 0.007700 -0.043500 -0.119400
v -0.144100 0.000000 -0.127000
v -0.144100 0.043500 -0.119400
v -0.144100 0.081700 -0.097300
v -0.144100 0.110000 -0.063500
v -0.144100 0.125100 -0.022100
v -0.144100 0.125100 0.022100
v -0.144100 0.110000 0.063500
v -0.144100 0.081700 0.097300
v -0.144100 0.043500 0.119400
v -0.144100 0.000000 0.127000
v -0.144100 -0.043500 0.119400
v -0.144100 -0.081700 0.097300
v -0.144100 -0.110000 0.063500
v -0.144100 -0.125100 0.022100
v -0.144100 -0.125100 -0.022100
v -0.144100 -0.110000 -0.063500
v -0.144100 -0.081700 -0.097300
v -0.144100 -0.043500 -0.119400
# 72 positions

vt 0.881102 0.989989
vt 0.826661 0.989990
vt 0.826660 0.903178
vt 0.881101 0.903177
vt 0.772202 0.989991
vt 0.772201 0.903179
vt 0.717755 0.989992
vt 0.717753 0.903180
vt 0.663354 0.989994
vt 0.663353 0.903182
vt 0.608848 0.989995
vt 0.608846 0.903183
vt 0.554447 0.989997
vt 0.554445 0.903185
vt 0.500000 0.989999
vt 0.499999 0.903186
vt 0.445540 0.990000
vt 0.445540 0.903187
vt 0.391099 0.990000
vt 0.391100 0.903188
vt 0.336658 0.990000
vt 0.336659 0.903187
vt 0.282199 0.989999
vt 0.282201 0.903187
vt 0.227752 0.989997
vt 0.227755 0.903185
vt 0.173352 0.989996
vt 0.173355 0.903183
vt 0.118846 0.989994
vt 0.118850 0.903181
vt 0.064446 0.989991
vt 0.064450 0.903179
vt 0.010000 0.989988
vt 0.010004 0.903176
vt 0.990000 0.989988
vt 0.935542 0.989988
vt 0.935541 0.903176
vt 0.989999 0.903175
vt 0.286892 0.835392
vt 0.245186 0.870383
vt 0.194007 0.888994
vt 0.139560 0.889002
vt 0.088433 0.870418
vt 0.046672 0.835392
vt 0.019471 0.788280
vt 0.010000 0.734664
vt 0.019418 0.681026
vt 0.046614 0.633866
vt 0.088320 0.598875
vt 0.139499 0.580263
vt 0.193945 0.580256
vt 0.245073 0.598840
vt 0.286834 0.633866
vt 0.314035 0.680977
vt 0.323506 0.734593
vt 0.314088 0.788232
vt 0.361255 0.428695
vt 0.412434 0.410083
vt 0.466880 0.410075
vt 0.518007 0.428659
vt 0.559769 0.463685
vt 0.586970 0.510797
vt 0.596441 0.564413
vt 0.587023 0.618051
vt 0.559827 0.665211
vt 0.518121 0.700202
vt 0.466942 0.718814
vt 0.412496 0.718821
vt 0.361369 0.700237
vt 0.319607 0.665211
vt 0.292406 0.618100
vt 0.282935 0.564484
vt 0.292353 0.510846
vt 0.319549 0.463685
vt 0.527018 0.791262
vt 0.555268 0.791262
vt 0.555268 0.888374
vt 0.527018 0.888375
vt 0.583502 0.791262
vt 0.583502 0.888374
vt 0.611704 0.791262
vt 0.611704 0.888374
vt 0.639896 0.791262
vt 0.639895 0.888374
vt 0.668172 0.791262
vt 0.668172 0.888374
vt 0.696365 0.791262
vt 0.696364 0.888374
vt 0.724566 0.791262
vt 0.724566 0.888375
vt 0.752800 0.791262
vt 0.752799 0.888375
vt 0.781050 0.791262
vt 0.781049 0.888375
vt 0.809300 0.791263
vt 0.809300 0.888375
vt 0.837533 0.791263
vt 0.837533 0.888375
vt 0.329470 0.791263
vt 0.357671 0.791263
vt 0.357672 0.888375
vt 0.329470 0.888375
vt 0.385863 0.791262
vt 0.385864 0.888375
vt 0.414140 0.791262
vt 0.414141 0.888375
vt 0.442332 0.791262
vt 0.442333 0.888375
vt 0.470534 0.791262
vt 0.470534 0.888375
vt 0.498767 0.791262
vt 0.498768 0.888375
vt 0.090032 0.575827
vt 0.062203 0.570965
vt 0.037765 0.556827
vt 0.019660 0.535204
vt 0.010000 0.508718
vt 0.010000 0.480442
vt 0.019660 0.453957
vt 0.037765 0.432333
vt 0.062203 0.418195
vt 0.090032 0.413333
vt 0.117860 0.418195
vt 0.142298 0.432333
vt 0.160403 0.453957
vt 0.170063 0.480442
vt 0.170063 0.508718
vt 0.160403 0.535204
vt 0.142298 0.556827
vt 0.117860 0.570965
vt 0.165136 0.374312
vt 0.179274 0.349874
vt 0.200898 0.331769
vt 0.227383 0.322109
vt 0.255660 0.322109
vt 0.282145 0.331769
vt 0.303768 0.349874
vt 0.317906 0.374312
vt 0.322768 0.402141
vt 0.317906 0.429969
vt 0.303768 0.454408
vt 0.282145 0.472512
vt 0.255660 0.482172
vt 0.227383 0.482172
vt 0.200898 0.472512
vt 0.179274 0.454408
vt 0.165136 0.429969
vt 0.160274 0.402141
# 148 texture coordinates

vn 0.000000 0.000000 -1.000000
vn 0.000000 0.342414 -0.939549
vn 0.000000 0.342414 -0.939549
vn 0.000000 0.000000 -1.000000
vn 0.000000 0.642996 -0.765869
vn 0.000000 0.642996 -0.765869
vn 0.000000 0.865957 -0.500119
vn 0.000000 0.865957 -0.500119
vn 0.000000 0.984820 -0.173581
vn 0.000000 0.984820 -0.173581
vn 0.000000 0.984820 0.173581
vn 0.000000 0.984820 0.173581
vn 0.000000 0.865957 0.500119
vn 0.000000 0.865957 0.500119
vn 0.000000 0.642996 0.765869
vn 0.000000 0.642996 0.765869
vn 0.000000 0.342414 0.939549
vn 0.000000 0.342414 0.939549
vn 0.000000 0.000000 1.000000
vn 0.000000 0.000000 1.000000
vn 0.000000 -0.342414 0.939549
vn 0.000000 -0.342414 0.939549
vn 0.000000 -0.642996 0.765869
vn 0.000000 -0.642996 0.765869
vn 0.000000 -0.865957 0.500119
vn 0.000000 -0.865957 0.500119
vn 0.000000 -0.984820 0.173581
vn 0.000000 -0.984820 0.173581
vn 0.000000 -0.984820 -0.173581
vn 0.000000 -0.984820 -0.173581
vn 0.000000 -0.865957 -0.500119
vn 0.000000 -0.865957 -0.500119
vn 0.000000 -0.642996 -0.765869
vn 0.000000 -0.642996 -0.765869
vn 0.000000 -0.342414 -0.939549
vn 0.000000 -0.342414 -0.939549
vn 1.000000 0.000000 0.000000
vn 1.000000 0.000000 0.000000
vn 1.000000 0.000000 0.000000
vn 1.000000 0.000000 0.000000
vn 1.000000 0.000000 0.000000
vn 1.000000 0.000000 0.000000
vn 1.000000 0.000000 0.000000
vn 1.000000 0.000000 0.000000
vn 1.000000 0.000000 0.000000
vn 1.000000 0.000000 0.000000
vn 1.000000 0.000000 0.000000
vn 1.000000 0.000000 0.000000
vn 1.000000 0.000000 0.000000
vn 1.000000 0.000000 0.000000
vn 1.000000 0.000000 0.000000
vn 1.000000 0.000000 0.000000
vn 1.000000 0.000000 0.000000
vn 1.000000 0.000000 0.000000
vn -1.000000 0.000000 0.000000
vn -1.000000 0.000000 0.000000
vn -1.000000 0.000000 0.000000
vn -1.000000 0.000000 0.000000
vn -1.000000 0.000000 0.000000
vn -1.000000 0.000000 0.000000
vn -1.000000 0.000000 0.000000
vn -1.000000 0.000000 0.000000
vn -1.000000 0.000000 0.000000
vn -1.000000 0.000000 0.000000
vn -1.000000 0.000000 0.000000
vn -1.000000 0.000000 0.000000
vn -1.000000 0.000000 0.000000
vn -1.000000 0.000000 0.000000
vn -1.000000 0.000000 0.000000
vn -1.000000 0.000000 0.000000
vn -1.000000 0.000000 0.000000
vn -1.000000 0.000000 0.000000
vn 0.000000 0.000000 -1.000000
vn 0.000000 0.341651 -0.939827
vn 0.000000 0.341651 -0.939827
vn 0.000000 0.000000 -1.000000
vn 0.000000 0.643462 -0.765478
vn 0.000000 0.643462 -0.765478
vn 0.000000 0.866109 -0.499855
vn 0.000000 0.866109 -0.499855
vn 0.000000 0.984795 -0.173720
vn 0.000000 0.984795 -0.173720
vn 0.000000 0.984795 0.173720
vn 0.000000 0.984795 0.173720
vn 0.000000 0.866109 0.499855
vn 0.000000 0.866109 0.499855
vn 0.000000 0.643462 0.765478
vn 0.000000 0.643462 0.765478
vn 0.000000 0.341651 0.939827
vn 0.000000 0.341651 0.939827
vn 0.000000 0.000000 1.000000
vn 0.000000 0.000000 1.000000
vn 0.000000 -0.341651 0.939827
vn 0.000000 -0.341651 0.939827
vn 0.000000 -0.643462 0.765478
vn 0.000000 -0.643462 0.765478
vn 0.000000 -0.866109 0.499855
vn 0.000000 -0.866109 0.499855
vn 0.000000 -0.984795 0.173720
vn 0.000000 -0.984795 0.173720
vn 0.000000 -0.984795 -0.173720
vn 0.000000 -0.984795 -0.173720
vn 0.000000 -0.866109 -0.499855
vn 0.000000 -0.866109 -0.499855
vn 0.000000 -0.643462 -0.765478
vn 0.000000 -0.643462 -0.765478
vn 0.000000 -0.341651 -0.939827
vn 0.000000 -0.341651 -0.939827
vn 1.000000 0.000000 0.000000
vn 1.000000 0.000000 0.000000
vn 1.000000 0.000000 0.000000
vn 1.000000 0.000000 0.000000
vn 1.000000 0.000000 0.000000
vn 1.000000 0.000000 0.000000
vn 1.000000 0.000000 0.000000
vn 1.000000 0.000000 0.000000
vn 1.000000 0.000000 0.000000
vn 1.000000 0.000000 0.000000
vn 1.000000 0.000000 0.000000
vn 1.000000 0.000000 0.000000
vn 1.000000 0.000000 0.000000
vn 1.000000 0.000000 0.000000
vn 1.000000 0.000000 0.000000
vn 1.000000 0.000000 0.000000
vn 1.000000 0.000000 0.000000
vn 1.000000 0.000000 0.000000
vn -1.000000 0.000000 0.000000
vn -1.000000 0.000000 0.000000
vn -1.000000 0.000000 0.000000
vn -1.000000 0.000000 0.000000
vn -1.000000 0.000000 0.000000
vn -1.000000 0.000000 0.000000
vn -1.000000 0.000000 0.000000
vn -1.000000 0.000000 0.000000
vn -1.000000 0.000000 0.000000
vn -1.000000 0.000000 0.000000
vn -1.000000 0.000000 0.000000
vn -1.000000 0.000000 0.000000
vn -1.000000 0.000000 0.000000
vn -1.000000 0.000000 0.000000
vn -1.000000 0.000000 0.000000
vn -1.000000 0.000000 0.000000
vn -1.000000 0.000000 0.000000
vn -1.000000 0.000000 0.000000
# 144 normals

usemtl default
s 1
f 19/1/4 20/2/3 2/3/2 1/4/1
f 20/2/3 21/5/6 3/6/5 2/3/2
f 21/5/6 22/7/8 4/8/7 3/6/5
f 22/7/8 23/9/10 5/10/9 4/8/7
f 23/9/10 24/11/12 6/12/11 5/10/9
f 24/11/12 25/13/14 7/14/13 6/12/11
f 25/13/14 26/15/16 8/16/15 7/14/13
f 26/15/16 27/17/18 9/18/17 8/16/15
f 27/17/18 28/19/20 10/20/19 9/18/17
f 28/19/20 29/21/22 11/22/21 10/20/19
f 29/21/22 30/23/24 12/24/23 11/22/21
f 30/23/24 31/25/26 13/26/25 12/24/23
f 31/25/26 32/27/28 14/28/27 13/26/25
f 32/27/28 33/29/30 15/30/29 14/28/27
f 33/29/30 34/31/32 16/32/31 15/30/29
f 34/31/32 35/33/34 17/34/33 16/32/31
f 35/35/34 36/36/36 18/37/35 17/38/33
f 36/36/36 19/1/4 1/4/1 18/37/35
s 2
f 1/39/54 2/40/53 3/41/52 4/42/51 5/43/50 6/44/49 7/45/48 8/46/47 9/47/46 10/48/45 11/49/44 12/50/43 13/51/42 14/52/41 15/53/40 16/54/39 17/55/38 18/56/37
s 3
f 36/57/72 35/58/71 34/59/70 33/60/69 32/61/68 31/62/67 30/63/66 29/64/65 28/65/64 27/66/63 26/67/62 25/68/61 24/69/60 23/70/59 22/71/58 21/72/57 20/73/56 19/74/55
s 4
f 55/75/76 56/76/75 38/77/74 37/78/73
f 56/76/75 57/79/78 39/80/77 38/77/74
f 57/79/78 58/81/80 40/82/79 39/80/77
f 58/81/80 59/83/82 41/84/81 40/82/79
f 59/83/82 60/85/84 42/86/83 41/84/81
f 60/85/84 61/87/86 43/88/85 42/86/83
f 61/87/86 62/89/88 44/90/87 43/88/85
f 62/89/88 63/91/90 45/92/89 44/90/87
f 63/91/90 64/93/92 46/94/91 45/92/89
f 64/93/92 65/95/94 47/96/93 46/94/91
f 65/95/94 66/97/96 48/98/95 47/96/93
f 66/99/96 67/100/98 49/101/97 48/102/95
f 67/100/98 68/103/100 50/104/99 49/101/97
f 68/103/100 69/105/102 51/106/101 50/104/99
f 69/105/102 70/107/104 52/108/103 51/106/101
f 70/107/104 71/109/106 53/110/105 52/108/103
f 71/109/106 72/111/108 54/112/107 53/110/105
f 72/111/108 55/75/76 37/78/73 54/112/107
s 5
f 37/113/126 38/114/125 39/115/124 40/116/123 41/117/122 42/118/121 43/119/120 44/120/119 45/121/118 46/122/117 47/123/116 48/124/115 49/125/114 50/126/113 51/127/112 52/128/111 53/129/110 54/130/109
s 6
f 72/131/144 71/132/143 70/133/142 69/134/141 68/135/140 67/136/139 66/137/138 65/138/137 64/139/136 63/140/135 62/141/134 61/142/133 60/143/132 59/144/131 58/145/130 57/146/129 56/147/128 55/148/127

# 40 faces
