# Wavefront Obj file
# 
# verts: 155 uv-s: 271
mtllib Manometro.mtl

g Manometro

v 0.300000 0.000000 -0.095000
v 0.259800 0.150000 -0.095000
v 0.259800 0.150000 0.065000
v 0.300000 0.000000 0.065000
v 0.150000 0.259800 -0.095000
v 0.150000 0.259800 0.065000
v 0.000000 0.300000 -0.095000
v 0.000000 0.300000 0.065000
v -0.150000 0.259800 -0.095000
v -0.150000 0.259800 0.065000
v -0.259800 0.150000 -0.095000
v -0.259800 0.150000 0.065000
v -0.300000 0.000000 -0.095000
v -0.300000 0.000000 0.065000
v -0.259800 -0.150000 -0.095000
v -0.259800 -0.150000 0.065000
v -0.150000 -0.259800 -0.095000
v -0.150000 -0.259800 0.065000
v 0.000000 -0.300000 -0.095000
v 0.000000 -0.300000 0.065000
v 0.150000 -0.259800 -0.095000
v 0.150000 -0.259800 0.065000
v 0.259800 -0.150000 -0.095000
v 0.259800 -0.150000 0.065000
v 0.000000 0.000000 -0.095000
v 0.300000 0.000000 0.095000
v 0.259800 0.150000 0.095000
v 0.240500 0.138900 0.095000
v 0.277800 0.000000 0.095000
v 0.150000 0.259800 0.095000
v 0.138900 0.240500 0.095000
v 0.000000 0.300000 0.095000
v 0.000000 0.277800 0.095000
v -0.150000 0.259800 0.095000
v -0.138900 0.240500 0.095000
v -0.259800 0.150000 0.095000
v -0.240500 0.138900 0.095000
v -0.300000 0.000000 0.095000
v -0.277800 0.000000 0.095000
v -0.259800 -0.150000 0.095000
v -0.240500 -0.138900 0.095000
v -0.150000 -0.259800 0.095000
v -0.138900 -0.240500 0.095000
v 0.000000 -0.300000 0.095000
v 0.000000 -0.277800 0.095000
v 0.150000 -0.259800 0.095000
v 0.138900 -0.240500 0.095000
v 0.259800 -0.150000 0.095000
v 0.240500 -0.138900 0.095000
v 0.240500 0.138900 0.065000
v 0.277800 0.000000 0.065000
v 0.240500 -0.138900 0.065000
v 0.138900 -0.240500 0.065000
v 0.000000 -0.277800 0.065000
v -0.138900 -0.240500 0.065000
v -0.240500 -0.138900 0.065000
v -0.277800 0.000000 0.065000
v -0.240500 0.138900 0.065000
v -0.138900 0.240500 0.065000
v 0.000000 0.277800 0.065000
v 0.138900 0.240500 0.065000
v 0.070000 -0.385500 -0.012800
v 0.035000 -0.385500 -0.073400
v 0.035000 -0.277000 -0.073400
v 0.070000 -0.277000 -0.012800
v -0.035000 -0.385500 -0.073400
v -0.035000 -0.277000 -0.073400
v -0.070000 -0.385500 -0.012800
v -0.070000 -0.277000 -0.012800
v -0.035000 -0.385500 0.047800
v -0.035000 -0.277000 0.047800
v 0.035000 -0.385500 0.047800
v 0.035000 -0.277000 0.047800
v 0.054000 -0.388500 -0.012800
v 0.027000 -0.388500 -0.059600
v -0.027000 -0.388500 -0.059600
v -0.054000 -0.388500 -0.012800
v -0.027000 -0.388500 0.034000
v 0.027000 -0.388500 0.034000
v 0.017500 -0.277000 -0.043100
v 0.035000 -0.277000 -0.012800
v -0.017500 -0.277000 -0.043100
v -0.035000 -0.277000 -0.012800
v -0.017500 -0.277000 0.017500
v 0.017500 -0.277000 0.017500
v 0.000000 -0.277000 -0.012800
v 0.054000 -0.584600 -0.012800
v 0.027000 -0.584600 -0.059600
v 0.027000 -0.584600 0.034000
v -0.027000 -0.584600 0.034000
v -0.054000 -0.584600 -0.012800
v -0.027000 -0.584600 -0.059600
v -0.070000 -0.587700 -0.012800
v -0.035000 -0.587700 -0.073400
v -0.035000 -0.696100 -0.073400
v -0.070000 -0.696100 -0.012800
v 0.035000 -0.587700 -0.073400
v 0.035000 -0.696100 -0.073400
v 0.070000 -0.587700 -0.012800
v 0.070000 -0.696100 -0.012800
v 0.035000 -0.587700 0.047800
v 0.035000 -0.696100 0.047800
v -0.035000 -0.587700 0.047800
v -0.035000 -0.696100 0.047800
v -0.017500 -0.696100 -0.043100
v -0.035000 -0.696100 -0.012800
v 0.017500 -0.696100 -0.043100
v 0.035000 -0.696100 -0.012800
v 0.017500 -0.696100 0.017500
v -0.017500 -0.696100 0.017500
v 0.000000 -0.696100 -0.012800
v -0.081000 -0.039600 0.070300
v -0.040700 -0.025000 0.070300
v -0.040700 0.000000 0.070300
v -0.088600 0.000000 0.070300
v -0.019800 -0.019800 0.069900
v -0.020100 0.000000 0.070300
v 0.000000 -0.028000 0.069900
v 0.019800 -0.019800 0.069900
v 0.028000 0.000000 0.069900
v 0.000000 0.000000 0.069900
v -0.040800 0.025000 0.070300
v -0.081000 0.039600 0.070300
v 0.000000 0.028000 0.069900
v -0.019800 0.019800 0.069900
v 0.253800 0.000000 0.070300
v 0.253800 0.004200 0.070300
v 0.019800 0.019800 0.069900
v 0.253800 -0.004200 0.070300
v 0.277800 0.000000 0.065000
v 0.240500 0.138900 0.065000
v 0.000000 0.000000 0.065000
v 0.138900 0.240500 0.065000
v 0.000000 0.277800 0.065000
v -0.138900 0.240500 0.065000
v -0.240500 0.138900 0.065000
v -0.277800 0.000000 0.065000
v -0.240500 -0.138900 0.065000
v -0.138900 -0.240500 0.065000
v 0.000000 -0.277800 0.065000
v 0.138900 -0.240500 0.065000
v 0.240500 -0.138900 0.065000
v 0.277800 0.000000 0.089800
v 0.240500 0.138900 0.089800
v 0.000000 0.000000 0.089800
v 0.138900 0.240500 0.089800
v 0.000000 0.277800 0.089800
v -0.138900 0.240500 0.089800
v -0.240500 0.138900 0.089800
v -0.277800 0.000000 0.089800
v -0.240500 -0.138900 0.089800
v -0.138900 -0.240500 0.089800
v 0.000000 -0.277800 0.089800
v 0.138900 -0.240500 0.089800
v 0.240500 -0.138900 0.089800
# 155 positions

vt 0.788133 0.697347
vt 0.883881 0.697347
vt 0.883881 0.799479
vt 0.788133 0.799479
vt 0.721739 0.683785
vt 0.721739 0.613697
vt 0.823871 0.613697
vt 0.823871 0.683785
vt 0.721739 0.517949
vt 0.823871 0.517949
vt 0.721739 0.422200
vt 0.823871 0.422200
vt 0.721739 0.352112
vt 0.823871 0.352112
vt 0.552874 0.948092
vt 0.648623 0.948092
vt 0.648623 0.845960
vt 0.552874 0.845960
vt 0.744371 0.948092
vt 0.744371 0.845960
vt 0.565331 0.638089
vt 0.565331 0.568001
vt 0.463199 0.568001
vt 0.463199 0.638089
vt 0.565331 0.472252
vt 0.463199 0.472252
vt 0.565331 0.376503
vt 0.463199 0.376503
vt 0.622296 0.697347
vt 0.692384 0.697347
vt 0.692384 0.799479
vt 0.622296 0.799479
vt 0.030661 0.100749
vt 0.005000 0.196497
vt 0.196497 0.196497
vt 0.100749 0.030661
vt 0.196497 0.005000
vt 0.292246 0.030661
vt 0.362334 0.100749
vt 0.387994 0.196497
vt 0.362334 0.292246
vt 0.292246 0.362334
vt 0.196497 0.387995
vt 0.100749 0.362334
vt 0.030661 0.292246
vt 0.714467 0.524846
vt 0.688807 0.620595
vt 0.676487 0.613510
vt 0.700297 0.524846
vt 0.618719 0.690683
vt 0.611633 0.678363
vt 0.522970 0.716344
vt 0.522970 0.702173
vt 0.427221 0.690683
vt 0.434307 0.678363
vt 0.357133 0.620595
vt 0.369453 0.613510
vt 0.331473 0.524846
vt 0.345644 0.524846
vt 0.357133 0.429098
vt 0.369453 0.436183
vt 0.427221 0.359010
vt 0.434307 0.371329
vt 0.522970 0.333349
vt 0.522970 0.347520
vt 0.618719 0.359010
vt 0.611633 0.371329
vt 0.688807 0.429098
vt 0.676487 0.436183
vt 0.883881 0.818629
vt 0.788133 0.818629
vt 0.843021 0.613697
vt 0.843021 0.683785
vt 0.843021 0.517949
vt 0.843021 0.422200
vt 0.843021 0.352112
vt 0.648623 0.826811
vt 0.552874 0.826811
vt 0.744371 0.826811
vt 0.444050 0.568001
vt 0.444050 0.638089
vt 0.444050 0.472252
vt 0.444050 0.376503
vt 0.692384 0.818629
vt 0.622296 0.818629
vt 0.155102 0.480086
vt 0.243766 0.480086
vt 0.243766 0.460936
vt 0.155102 0.460936
vt 0.332429 0.480086
vt 0.332429 0.460936
vt 0.367122 0.968732
vt 0.367122 0.903878
vt 0.386272 0.903878
vt 0.386272 0.968732
vt 0.367122 0.815215
vt 0.386272 0.815215
vt 0.367122 0.726552
vt 0.386272 0.726552
vt 0.367122 0.661698
vt 0.386272 0.661698
vt 0.432792 0.644812
vt 0.521455 0.644812
vt 0.521455 0.663961
vt 0.432792 0.663961
vt 0.610118 0.644812
vt 0.610118 0.663961
vt 0.412540 0.995000
vt 0.412540 0.930146
vt 0.393390 0.930146
vt 0.393390 0.995000
vt 0.412540 0.841483
vt 0.393390 0.841483
vt 0.412540 0.752820
vt 0.393390 0.752820
vt 0.412540 0.687966
vt 0.393390 0.687966
vt 0.367122 0.512752
vt 0.367122 0.474070
vt 0.436380 0.474070
vt 0.436380 0.512752
vt 0.852914 0.049683
vt 0.852914 0.005000
vt 0.783656 0.005000
vt 0.783656 0.049683
vt 0.642771 0.493270
vt 0.642771 0.454588
vt 0.573513 0.454588
vt 0.573513 0.493270
vt 0.642771 0.415905
vt 0.573513 0.415905
vt 0.642771 0.597557
vt 0.642771 0.552874
vt 0.573513 0.552874
vt 0.573513 0.597557
vt 0.367122 0.551435
vt 0.436380 0.551435
vt 0.467003 0.121155
vt 0.428320 0.098814
vt 0.428320 0.109027
vt 0.458194 0.126262
vt 0.467003 0.165838
vt 0.458194 0.160731
vt 0.428320 0.188179
vt 0.428320 0.177966
vt 0.389637 0.165838
vt 0.398446 0.160731
vt 0.389637 0.121155
vt 0.398446 0.126262
vt 0.469598 0.096242
vt 0.430916 0.073900
vt 0.450257 0.062730
vt 0.469598 0.073900
vt 0.430916 0.029218
vt 0.450257 0.040388
vt 0.469598 0.006876
vt 0.469598 0.029218
vt 0.508281 0.029218
vt 0.488939 0.040388
vt 0.508281 0.073900
vt 0.488939 0.062730
vt 0.469598 0.051559
vt 0.544833 0.723615
vt 0.544833 0.753489
vt 0.419658 0.753489
vt 0.419658 0.723615
vt 0.544833 0.783363
vt 0.419658 0.783363
vt 0.128835 0.395266
vt 0.128835 0.429736
vt 0.254010 0.429736
vt 0.254010 0.395266
vt 0.419658 0.791161
vt 0.419658 0.821035
vt 0.544833 0.821035
vt 0.544833 0.791161
vt 0.419658 0.850909
vt 0.544833 0.850909
vt 0.751760 0.826811
vt 0.751760 0.861280
vt 0.876935 0.861280
vt 0.876935 0.826811
vt 0.378380 0.300733
vt 0.378380 0.339415
vt 0.447574 0.339415
vt 0.447574 0.300733
vt 0.573513 0.500338
vt 0.573513 0.545021
vt 0.642707 0.545021
vt 0.642707 0.500338
vt 0.336874 0.376503
vt 0.336874 0.415186
vt 0.267679 0.415186
vt 0.267679 0.376503
vt 0.336874 0.453868
vt 0.267679 0.453868
vt 0.393390 0.205762
vt 0.393390 0.250445
vt 0.462584 0.250445
vt 0.462584 0.205762
vt 0.378380 0.262050
vt 0.447574 0.262050
vt 0.005000 0.355690
vt 0.043682 0.333349
vt 0.043682 0.343562
vt 0.013809 0.360797
vt 0.005000 0.400373
vt 0.013809 0.395267
vt 0.043682 0.422714
vt 0.043682 0.412501
vt 0.082365 0.400373
vt 0.073556 0.395267
vt 0.082365 0.355690
vt 0.073556 0.360797
vt 0.385165 0.094365
vt 0.423848 0.072024
vt 0.404507 0.060853
vt 0.385165 0.072024
vt 0.423848 0.027341
vt 0.404507 0.038512
vt 0.385165 0.005000
vt 0.385165 0.027341
vt 0.346483 0.027341
vt 0.365825 0.038512
vt 0.346483 0.072024
vt 0.365825 0.060853
vt 0.385165 0.049683
vt 0.009852 0.421534
vt 0.035576 0.430854
vt 0.035576 0.446812
vt 0.005000 0.446812
vt 0.048916 0.434173
vt 0.048725 0.446812
vt 0.061556 0.428939
vt 0.074195 0.434173
vt 0.079429 0.446812
vt 0.061556 0.446812
vt 0.035512 0.462770
vt 0.009852 0.472090
vt 0.061556 0.464685
vt 0.048916 0.459451
vt 0.223562 0.446812
vt 0.223562 0.449493
vt 0.074195 0.459451
vt 0.223562 0.444131
vt 0.838104 0.182326
vt 0.814295 0.270990
vt 0.660778 0.182326
vt 0.749441 0.335843
vt 0.660778 0.359653
vt 0.572115 0.335843
vt 0.507261 0.270990
vt 0.483451 0.182326
vt 0.507261 0.093663
vt 0.572115 0.028809
vt 0.660778 0.005000
vt 0.749441 0.028809
vt 0.814295 0.093663
vt 0.359652 0.670159
vt 0.335844 0.758823
vt 0.182326 0.670159
vt 0.270990 0.823676
vt 0.182326 0.847486
vt 0.093664 0.823676
vt 0.028810 0.758823
vt 0.005000 0.670159
vt 0.028810 0.581496
vt 0.093664 0.516642
vt 0.182326 0.492833
vt 0.270990 0.516642
vt 0.335844 0.581496
# 271 texture coordinates

vn 1.000000 0.000000 0.000000
vn 0.865972 0.500093 0.000000
vn 0.500093 0.865972 0.000000
vn 0.000000 1.000000 0.000000
vn -0.500093 0.865972 0.000000
vn -0.865972 0.500093 0.000000
vn -1.000000 0.000000 0.000000
vn -0.865972 -0.500093 0.000000
vn -0.500093 -0.865972 0.000000
vn 0.000000 -1.000000 0.000000
vn 0.500093 -0.865972 0.000000
vn 0.865972 -0.500093 0.000000
vn 0.000000 0.000000 -1.000000
vn 0.000000 0.000000 1.000000
vn 0.000000 0.000000 1.000000
vn 1.000000 -0.000000 0.000000
vn -1.000000 0.000000 0.000000
vn 0.000000 1.000000 0.000000
vn 0.000000 -1.000000 0.000000
vn 1.000000 0.000000 -0.000000
vn 0.499974 0.000000 -0.866041
vn 1.000000 0.000000 0.000000
vn -0.500015 0.000000 -0.866017
vn -1.000000 0.000000 -0.000000
vn -0.499933 0.000000 0.866064
vn 0.499933 0.000000 0.866064
vn 0.092239 -0.982788 -0.160065
vn 0.184475 -0.982837 -0.000000
vn -0.092239 -0.982787 -0.160065
vn -0.184475 -0.982837 0.000000
vn -0.092239 -0.982788 0.160065
vn 0.092239 -0.982787 0.160065
vn 0.000000 1.000000 0.000000
vn 0.500139 0.000000 -0.865945
vn 1.000000 0.000000 -0.000000
vn 0.500070 0.000000 0.865985
vn -0.500036 0.000000 0.866005
vn -1.000000 0.000000 -0.000000
vn -1.000000 0.000000 -0.000000
vn -0.499933 0.000000 -0.866064
vn -0.095205 0.981652 -0.165212
vn -0.190407 0.981705 -0.000000
vn -0.190407 0.981705 -0.000000
vn 0.095205 0.981652 -0.165212
vn 0.190407 0.981705 0.000000
vn 0.190407 0.981705 0.000000
vn 0.095205 0.981652 0.165212
vn -0.095205 0.981652 0.165212
vn 0.000000 -1.000000 0.000000
vn 0.000000 0.000000 1.000000
vn 0.005374 -0.004428 0.999976
vn 0.005368 0.000006 0.999986
vn 0.000000 0.000000 1.000000
vn 0.009531 -0.008586 0.999918
vn 0.009526 0.000006 0.999955
vn 0.004158 -0.004158 0.999983
vn -0.000880 0.000301 1.000000
vn -0.000880 0.000000 1.000000
vn 0.004158 0.000000 0.999991
vn 0.005362 0.004440 0.999976
vn 0.004158 0.004158 0.999983
vn 0.009520 0.008598 0.999918
vn -0.001760 0.000000 0.999999
vn -0.001760 -0.000601 0.999998
vn -0.000880 -0.000301 1.000000
vn -0.001760 0.000601 0.999998
vn 0.000000 0.000000 1.000000
vn 0.000000 0.000000 1.000000
vn 0.000000 0.000000 1.000000
vn 0.000000 0.000000 1.000000
# 70 normals

usemtl default
f 1/1/1 2/2/2 3/3/2 4/4/1
f 2/5/2 5/6/3 6/7/3 3/8/2
f 5/6/3 7/9/4 8/10/4 6/7/3
f 7/9/4 9/11/5 10/12/5 8/10/4
f 9/11/5 11/13/6 12/14/6 10/12/5
f 11/15/6 13/16/7 14/17/7 12/18/6
f 13/16/7 15/19/8 16/20/8 14/17/7
f 15/21/8 17/22/9 18/23/9 16/24/8
f 17/22/9 19/25/10 20/26/10 18/23/9
f 19/25/10 21/27/11 22/28/11 20/26/10
f 21/29/11 23/30/12 24/31/12 22/32/11
f 2/33/13 1/34/13 25/35/13
f 5/36/13 2/33/13 25/35/13
f 7/37/13 5/36/13 25/35/13
f 9/38/13 7/37/13 25/35/13
f 11/39/13 9/38/13 25/35/13
f 13/40/13 11/39/13 25/35/13
f 15/41/13 13/40/13 25/35/13
f 17/42/13 15/41/13 25/35/13
f 19/43/13 17/42/13 25/35/13
f 21/44/13 19/43/13 25/35/13
f 23/45/13 21/44/13 25/35/13
f 1/34/13 23/45/13 25/35/13
f 26/46/14 27/47/14 28/48/14 29/49/15
f 27/47/14 30/50/14 31/51/14 28/48/14
f 30/50/14 32/52/14 33/53/14 31/51/14
f 32/52/14 34/54/15 35/55/15 33/53/14
f 34/54/15 36/56/15 37/57/15 35/55/15
f 36/56/15 38/58/14 39/59/15 37/57/15
f 38/58/14 40/60/14 41/61/14 39/59/15
f 40/60/14 42/62/14 43/63/14 41/61/14
f 42/62/14 44/64/14 45/65/14 43/63/14
f 44/64/14 46/66/15 47/67/15 45/65/14
f 46/66/15 48/68/15 49/69/15 47/67/15
f 48/68/15 26/46/14 29/49/15 49/69/15
f 4/4/1 3/3/2 27/70/2 26/71/16
f 3/8/2 6/7/3 30/72/3 27/73/2
f 6/7/3 8/10/4 32/74/4 30/72/3
f 8/10/4 10/12/5 34/75/5 32/74/4
f 10/12/5 12/14/6 36/76/6 34/75/5
f 12/18/6 14/17/7 38/77/17 36/78/6
f 14/17/7 16/20/8 40/79/8 38/77/17
f 16/24/8 18/23/9 42/80/9 40/81/8
f 18/23/9 20/26/10 44/82/10 42/80/9
f 20/26/10 22/28/11 46/83/11 44/82/10
f 22/32/11 24/31/12 48/84/12 46/85/11
f 50/86/8 51/87/17 29/88/7 28/89/8
f 51/87/17 52/90/6 49/91/6 29/88/7
f 52/92/6 53/93/5 47/94/5 49/95/6
f 53/93/5 54/96/18 45/97/18 47/94/5
f 54/96/18 55/98/3 43/99/3 45/97/18
f 55/98/3 56/100/2 41/101/2 43/99/3
f 56/102/2 57/103/16 39/104/1 41/105/2
f 57/103/16 58/106/12 37/107/12 39/104/1
f 58/108/12 59/109/11 35/110/11 37/111/12
f 59/109/11 60/112/19 33/113/19 35/110/11
f 60/112/19 61/114/9 31/115/9 33/113/19
f 61/114/9 50/116/8 28/117/8 31/115/9
f 24/31/12 23/30/12 1/1/1 4/4/1
f 48/84/12 24/31/12 4/4/1 26/71/16

g Base_manometro

# 0 positions

# 0 texture coordinates

# 0 normals

usemtl default
f 62/118/20 63/119/21 64/120/21 65/121/22
f 63/122/21 66/123/23 67/124/23 64/125/21
f 66/126/23 68/127/24 69/128/24 67/129/23
f 68/127/24 70/130/25 71/131/25 69/128/24
f 70/132/25 72/133/26 73/134/26 71/135/25
f 72/136/26 62/118/20 65/121/22 73/137/26
f 63/138/27 62/139/28 74/140/28 75/141/27
f 66/142/29 63/138/27 75/141/27 76/143/29
f 68/144/30 66/142/29 76/143/29 77/145/30
f 70/146/31 68/144/30 77/145/30 78/147/31
f 72/148/32 70/146/31 78/147/31 79/149/32
f 62/139/28 72/148/32 79/149/32 74/140/28
f 65/150/33 64/151/33 80/152/33 81/153/33
f 64/151/33 67/154/33 82/155/33 80/152/33
f 67/154/33 69/156/33 83/157/33 82/155/33
f 69/156/33 71/158/33 84/159/33 83/157/33
f 71/158/33 73/160/33 85/161/33 84/159/33
f 73/160/33 65/150/33 81/153/33 85/161/33
f 81/153/33 80/152/33 86/162/33
f 80/152/33 82/155/33 86/162/33
f 82/155/33 83/157/33 86/162/33
f 83/157/33 84/159/33 86/162/33
f 84/159/33 85/161/33 86/162/33
f 85/161/33 81/153/33 86/162/33
f 75/163/34 74/164/35 87/165/35 88/166/21
f 74/164/35 79/167/36 89/168/36 87/165/35
f 79/169/36 78/170/37 90/171/37 89/172/36
f 78/173/37 77/174/24 91/175/38 90/176/37
f 77/174/24 76/177/23 92/178/23 91/175/38
f 76/179/23 75/180/34 88/181/21 92/182/23
f 93/183/39 94/184/23 95/185/40 96/186/39
f 94/187/23 97/188/21 98/189/21 95/190/40
f 97/191/21 99/192/20 100/193/20 98/194/21
f 99/192/20 101/195/36 102/196/26 100/193/20
f 101/197/36 103/198/37 104/199/37 102/200/26
f 103/201/37 93/183/39 96/186/39 104/202/37
f 94/203/41 93/204/42 91/205/43 92/206/41
f 97/207/44 94/203/41 92/206/41 88/208/44
f 99/209/45 97/207/44 88/208/44 87/210/46
f 101/211/47 99/209/45 87/210/46 89/212/47
f 103/213/48 101/211/47 89/212/47 90/214/48
f 93/204/42 103/213/48 90/214/48 91/205/43
f 96/215/49 95/216/49 105/217/49 106/218/49
f 95/216/49 98/219/49 107/220/49 105/217/49
f 98/219/49 100/221/49 108/222/49 107/220/49
f 100/221/49 102/223/49 109/224/49 108/222/49
f 102/223/49 104/225/49 110/226/49 109/224/49
f 104/225/49 96/215/49 106/218/49 110/226/49
f 106/218/49 105/217/49 111/227/49
f 105/217/49 107/220/49 111/227/49
f 107/220/49 108/222/49 111/227/49
f 108/222/49 109/224/49 111/227/49
f 109/224/49 110/226/49 111/227/49
f 110/226/49 106/218/49 111/227/49

g Aguja_manometro

# 0 positions

# 0 texture coordinates

# 0 normals

usemtl default
f 112/228/50 113/229/51 114/230/52 115/231/53
f 113/229/51 116/232/54 117/233/55 114/230/52
f 118/234/56 119/235/57 120/236/58 121/237/59
f 114/230/52 122/238/60 123/239/53 115/231/53
f 121/237/59 124/240/61 125/241/62 117/233/55
f 126/242/63 127/243/64 128/244/65 120/236/58
f 119/235/57 129/245/66 126/242/63 120/236/58
f 128/244/65 124/240/61 121/237/59 120/236/58
f 116/232/54 118/234/56 121/237/59 117/233/55
f 125/241/62 122/238/60 114/230/52 117/233/55

g tablero_manometro

# 0 positions

# 0 texture coordinates

# 0 normals

usemtl default
f 130/246/67 131/247/67 132/248/68
f 131/247/67 133/249/68 132/248/68
f 133/249/68 134/250/68 132/248/68
f 134/250/68 135/251/67 132/248/68
f 135/251/67 136/252/68 132/248/68
f 136/252/68 137/253/68 132/248/68
f 137/253/68 138/254/67 132/248/68
f 138/254/67 139/255/68 132/248/68
f 139/255/68 140/256/68 132/248/68
f 140/256/68 141/257/67 132/248/68
f 141/257/67 142/258/68 132/248/68
f 142/258/68 130/246/67 132/248/68

g Vidrio_manometro

# 0 positions

# 0 texture coordinates

# 0 normals

usemtl default
f 143/259/69 144/260/70 145/261/69
f 144/260/70 146/262/69 145/261/69
f 146/262/69 147/263/69 145/261/69
f 147/263/69 148/264/70 145/261/69
f 148/264/70 149/265/69 145/261/69
f 149/265/69 150/266/69 145/261/69
f 150/266/69 151/267/70 145/261/69
f 151/267/70 152/268/69 145/261/69
f 152/268/69 153/269/69 145/261/69
f 153/269/69 154/270/70 145/261/69
f 154/270/70 155/271/69 145/261/69
f 155/271/69 143/259/69 145/261/69

# 148 faces
