# Wavefront Obj file
# 
# verts: 72 uv-s: 192
mtllib muro_reactor.mtl

g Box3426

v -5.589500 2.459400 254.270706
v -6.492100 2.459400 254.270706
v -6.492100 2.459400 242.551498
v -5.589500 2.459400 242.551498
v -5.589500 -3.197900 254.270706
v -5.589500 -3.197900 242.551498
v -6.492100 -3.197900 242.551498
v -6.492100 -3.197900 254.270706
v -5.839600 2.819100 253.009705
v -6.242000 2.819100 253.009705
v -6.242000 2.819100 243.448303
v -5.839600 2.819100 243.448303
v -5.839600 2.459000 253.009705
v -5.839600 2.459000 243.448303
v -6.242000 2.459000 243.448303
v -6.242000 2.459000 253.009705
v -5.578400 -3.200700 250.122498
v -5.578400 -3.200700 253.853699
v 6.557400 -3.200700 253.853699
v 6.557400 -3.200700 250.122498
v -5.557700 -3.179900 254.256607
v -5.578400 2.379400 254.277298
v 6.557400 2.379400 254.277298
v 6.536600 -3.179900 254.256607
v 6.604300 2.379400 253.853699
v 6.604300 2.379400 250.122498
v 6.536600 -3.179900 242.567596
v 6.557400 2.379400 242.546799
v -5.578400 2.379400 242.546799
v -5.557700 -3.179900 242.567596
v -5.578400 -3.200700 246.391205
v -5.625300 2.379400 246.391205
v -5.625300 2.379400 250.122498
v 6.557400 -3.200700 246.391205
v 6.604300 2.379400 246.391205
v -5.625300 2.379400 253.853699
v 6.444300 -3.087500 253.853699
v -5.465300 -3.087500 253.853699
v -5.465300 -3.087500 250.122498
v 6.444300 -3.087500 250.122498
v 6.444300 2.379400 254.164200
v -5.465300 2.379400 254.164200
v -5.465300 -3.087500 254.164200
v 6.444300 -3.087500 254.164200
v 6.444300 2.379400 253.853699
v 6.444300 2.379400 250.122498
v -5.465300 2.379400 242.660004
v 6.444300 2.379400 242.660004
v 6.444300 -3.087500 242.660004
v -5.465300 -3.087500 242.660004
v -5.465300 2.379400 246.391205
v -5.465300 -3.087500 246.391205
v -5.465300 2.379400 250.122498
v 6.444300 -3.087500 246.391205
v 6.444300 2.379400 246.391205
v -5.465300 2.379400 253.853699
v 6.810300 2.819100 253.009705
v 6.810300 2.819100 243.448303
v 7.212700 2.819100 243.448303
v 7.212700 2.819100 253.009705
v 6.810300 2.459000 253.009705
v 7.212700 2.459000 253.009705
v 7.212700 2.459000 243.448303
v 6.810300 2.459000 243.448303
v 6.560200 2.459400 254.270706
v 6.560200 2.459400 242.551498
v 7.462900 2.459400 242.551498
v 7.462900 2.459400 254.270706
v 6.560200 -3.197900 254.270706
v 7.462900 -3.197900 254.270706
v 7.462900 -3.197900 242.551498
v 6.560200 -3.197900 242.551498
# 72 positions

vt 0.843701 0.106196
vt 0.843701 0.127536
vt 0.566625 0.127536
vt 0.566625 0.106196
vt 0.282045 0.108200
vt 0.559121 0.108200
vt 0.559121 0.129541
vt 0.282045 0.129541
vt 0.210409 0.532363
vt 0.076654 0.532363
vt 0.076654 0.511023
vt 0.210409 0.511023
vt 0.719967 0.294069
vt 0.853722 0.294069
vt 0.853722 0.571145
vt 0.719967 0.571145
vt 0.219130 0.562610
vt 0.219130 0.428855
vt 0.240470 0.428855
vt 0.240470 0.562610
vt 0.571145 0.280552
vt 0.571145 0.414307
vt 0.294069 0.414307
vt 0.294069 0.280552
vt 0.246080 0.589689
vt 0.246080 0.599202
vt 0.020020 0.599202
vt 0.020020 0.589689
vt 0.246080 0.581166
vt 0.020020 0.581166
vt 0.020020 0.571652
vt 0.246080 0.571652
vt 0.058098 0.508512
vt 0.049584 0.508512
vt 0.049584 0.498998
vt 0.058098 0.498998
vt 0.254002 0.456912
vt 0.262515 0.456912
vt 0.262515 0.682971
vt 0.254002 0.682971
vt 0.058098 0.544585
vt 0.049584 0.544585
vt 0.049584 0.535072
vt 0.058098 0.535072
vt 0.020020 0.615235
vt 0.020020 0.606722
vt 0.246080 0.606722
vt 0.246080 0.615235
vt 0.107742 0.990000
vt 0.019526 0.990000
vt 0.019526 0.703075
vt 0.107742 0.703075
vt 0.295073 0.990000
vt 0.294581 0.858561
vt 0.581506 0.858561
vt 0.581017 0.990000
vt 0.392034 0.554772
vt 0.303818 0.554772
vt 0.303818 0.422843
vt 0.392034 0.422843
vt 0.706592 0.849224
vt 0.575153 0.849714
vt 0.575153 0.562788
vt 0.706592 0.563280
vt 0.711432 0.376780
vt 0.711432 0.464998
vt 0.579502 0.464998
vt 0.579502 0.376780
vt 0.286362 0.989508
vt 0.195961 0.990000
vt 0.195961 0.703075
vt 0.286362 0.703564
vt 0.010000 0.703564
vt 0.010000 0.989508
vt 0.571145 0.554772
vt 0.480252 0.554772
vt 0.480252 0.422843
vt 0.570653 0.423335
vt 0.294292 0.423335
vt 0.293802 0.554772
vt 0.711432 0.278548
vt 0.711432 0.288563
vt 0.579502 0.288563
vt 0.579993 0.279037
vt 0.579993 0.555399
vt 0.711432 0.555891
vt 0.390702 0.563129
vt 0.390702 0.844706
vt 0.302486 0.844706
vt 0.302486 0.563129
vt 0.010000 0.397794
vt 0.010000 0.116217
vt 0.139253 0.116217
vt 0.139253 0.397794
vt 0.684740 0.860747
vt 0.684740 0.990000
vt 0.596523 0.990000
vt 0.596523 0.860747
vt 0.145287 0.397794
vt 0.145287 0.116217
vt 0.274540 0.116217
vt 0.274540 0.397794
vt 0.714448 0.674719
vt 0.843701 0.674719
vt 0.843701 0.762938
vt 0.714448 0.762938
vt 0.567137 0.563129
vt 0.567137 0.844706
vt 0.478921 0.844706
vt 0.478921 0.563129
vt 0.295144 0.844706
vt 0.295144 0.563129
vt 0.861174 0.860747
vt 0.861174 0.990000
vt 0.772958 0.990000
vt 0.772958 0.860747
vt 0.589182 0.990000
vt 0.589182 0.860747
vt 0.714448 0.579162
vt 0.843701 0.579162
vt 0.843701 0.586503
vt 0.714448 0.586503
vt 0.843701 0.851154
vt 0.714448 0.851154
vt 0.010000 0.407365
vt 0.012675 0.410039
vt 0.012675 0.691616
vt 0.010000 0.694290
vt 0.108232 0.406256
vt 0.108232 0.410039
vt 0.020016 0.410039
vt 0.020016 0.406256
vt 0.287343 0.694290
vt 0.284667 0.691616
vt 0.284667 0.410039
vt 0.287343 0.407365
vt 0.108232 0.695399
vt 0.108232 0.691616
vt 0.196451 0.691616
vt 0.196451 0.695399
vt 0.196451 0.410039
vt 0.196451 0.406256
vt 0.020016 0.691616
vt 0.020016 0.695399
vt 0.020020 0.673860
vt 0.246079 0.673860
vt 0.246079 0.683374
vt 0.020020 0.683374
vt 0.020020 0.665337
vt 0.020020 0.655824
vt 0.246079 0.655824
vt 0.246079 0.665337
vt 0.049585 0.526549
vt 0.049585 0.517035
vt 0.058098 0.517035
vt 0.058098 0.526549
vt 0.020020 0.638786
vt 0.246080 0.638786
vt 0.246080 0.647301
vt 0.020020 0.647301
vt 0.049585 0.562622
vt 0.049585 0.553108
vt 0.058098 0.553108
vt 0.058098 0.562622
vt 0.020020 0.622754
vt 0.246080 0.622754
vt 0.246080 0.631268
vt 0.020020 0.631268
vt 0.859365 0.571798
vt 0.859365 0.294721
vt 0.880707 0.294721
vt 0.880707 0.571798
vt 0.861738 0.576645
vt 0.883081 0.576645
vt 0.883081 0.853722
vt 0.861738 0.853722
vt 0.076655 0.562426
vt 0.076655 0.541084
vt 0.210409 0.541084
vt 0.210409 0.562426
vt 0.559121 0.272017
vt 0.282045 0.272017
vt 0.282045 0.138262
vt 0.559121 0.138262
vt 0.042065 0.562609
vt 0.020723 0.562609
vt 0.020723 0.428855
vt 0.042065 0.428855
vt 0.566625 0.136776
vt 0.843701 0.136776
vt 0.843701 0.270532
vt 0.566625 0.270532
# 192 texture coordinates

vn 0.000000 1.000000 0.000000
vn 0.000000 -1.000000 0.000000
vn 0.000000 0.000000 1.000000
vn -1.000000 0.000000 0.000000
vn 0.000000 0.000000 -1.000000
vn 1.000000 0.000000 0.000000
vn 0.000000 0.000000 1.000000
vn 0.000000 0.000000 -1.000000
vn 0.000000 -1.000000 0.000000
vn 0.000000 -0.999988 0.004882
vn 0.000000 -0.003722 0.999993
vn 0.999965 -0.008405 0.000000
vn 0.999936 -0.008199 0.007748
vn 0.999931 -0.008182 0.008383
vn 0.000000 -0.003741 -0.999993
vn -0.999965 -0.008405 0.000000
vn -0.999964 -0.007230 -0.004472
vn 0.000000 -0.999985 -0.005440
vn 0.000000 -0.999996 -0.002748
vn 0.000000 -0.998670 0.051556
vn 0.999942 -0.006094 -0.008845
vn 0.999964 -0.007234 -0.004479
vn 0.996630 -0.006209 0.081791
vn -0.996640 -0.006200 0.081671
vn -0.999936 -0.008198 0.007737
vn -0.999932 -0.008181 0.008370
vn -0.999942 -0.006085 -0.008832
vn 0.000000 1.000000 0.000000
vn 0.000000 1.000000 0.000000
# 29 normals

usemtl default
f 4/1/1 3/2/1 2/3/1 1/4/1
f 8/5/2 7/6/2 6/7/2 5/8/2
f 2/9/3 8/10/3 5/11/3 1/12/3
f 3/13/4 7/14/4 8/15/4 2/16/4
f 4/17/5 6/18/5 7/19/5 3/20/5
f 1/21/6 5/22/6 6/23/6 4/24/6
f 12/25/1 11/26/1 10/27/1 9/28/1
f 16/29/2 15/30/2 14/31/2 13/32/2
f 10/33/7 16/34/7 13/35/7 9/36/7
f 11/37/4 15/38/4 16/39/4 10/40/4
f 12/41/8 14/42/8 15/43/8 11/44/8
f 9/45/6 13/46/6 14/47/6 12/48/6
f 20/49/9 19/50/10 18/51/10 17/52/9
f 24/53/11 23/54/11 22/55/11 21/56/11
f 26/57/12 25/58/14 19/59/13 20/60/12
f 30/61/15 29/62/15 28/63/15 27/64/15
f 33/65/16 32/66/17 31/67/17 17/68/16
f 27/69/18 34/70/19 31/71/19 30/72/18
f 34/70/19 20/49/9 17/52/9 31/71/19
f 21/73/20 18/51/10 19/50/10 24/74/20
f 28/75/21 35/76/22 34/77/22 27/78/21
f 35/76/22 26/57/12 20/60/12 34/77/22
f 24/79/23 19/59/13 25/58/14 23/80/23
f 22/81/24 36/82/26 18/83/25 21/84/24
f 36/82/26 33/65/16 17/68/16 18/83/25
f 30/85/27 31/67/17 32/66/17 29/86/27
f 40/87/28 39/88/28 38/89/28 37/90/28
f 44/91/8 43/92/8 42/93/8 41/94/8
f 46/95/4 40/96/4 37/97/4 45/98/4
f 50/99/3 49/100/3 48/101/3 47/102/3
f 53/103/6 39/104/6 52/105/6 51/106/6
f 49/107/1 50/108/1 52/109/28 54/110/28
f 54/110/28 52/109/28 39/88/28 40/87/28
f 43/111/1 44/112/1 37/90/28 38/89/28
f 48/113/4 49/114/4 54/115/4 55/116/4
f 55/116/4 54/115/4 40/96/4 46/95/4
f 44/117/4 41/118/4 45/98/4 37/97/4
f 42/119/6 43/120/6 38/121/6 56/122/6
f 56/122/6 38/121/6 39/104/6 53/103/6
f 50/123/6 47/124/6 51/106/6 52/105/6
f 23/125/28 41/126/28 42/127/29 22/128/29
f 26/129/28 46/130/28 45/131/28 25/132/28
f 29/133/28 47/134/28 48/135/29 28/136/29
f 33/137/28 53/138/28 51/139/28 32/140/28
f 28/136/29 48/135/29 55/141/29 35/142/29
f 35/142/29 55/141/29 46/130/28 26/129/28
f 25/132/28 45/131/28 41/126/28 23/125/28
f 22/128/29 42/127/29 56/143/29 36/144/29
f 36/144/29 56/143/29 53/138/28 33/137/28
f 32/140/28 51/139/28 47/134/28 29/133/28
f 60/145/28 59/146/28 58/147/28 57/148/28
f 64/149/2 63/150/2 62/151/2 61/152/2
f 61/153/7 62/154/7 60/155/7 57/156/7
f 62/157/6 63/158/6 59/159/6 60/160/6
f 63/161/8 64/162/8 58/163/8 59/164/8
f 64/165/4 61/166/4 57/167/4 58/168/4
f 68/169/28 67/170/28 66/171/28 65/172/28
f 72/173/2 71/174/2 70/175/2 69/176/2
f 69/177/3 70/178/3 68/179/3 65/180/3
f 70/181/6 71/182/6 67/183/6 68/184/6
f 71/185/8 72/186/8 66/187/8 67/188/8
f 72/189/4 69/190/4 65/191/4 66/192/4

# 62 faces
