# Wavefront Obj file
# 
# verts: 104 uv-s: 276
mtllib Uasb.mtl

g Box3416

v -5.465300 2.592300 248.666397
v 6.444300 2.592300 248.666397
v -5.465300 2.592300 247.901993
v 6.444300 2.592300 247.901993
v -5.465300 1.322300 248.666397
v 6.444300 1.322300 248.666397
v -5.465300 1.322300 247.901993
v 6.444300 1.322300 247.901993
v -5.465300 -0.254300 249.789993
v 6.444300 -0.254300 249.789993
v -5.465300 -0.254300 246.770401
v 6.444300 -0.254300 246.770401
v -5.465300 2.479200 248.519699
v 6.444300 2.479200 248.519699
v -5.465300 2.479200 248.056900
v 6.444300 2.479200 248.056900
v -5.465300 1.213000 248.519608
v 6.444300 1.213000 248.519608
v -5.465300 1.213000 248.057007
v 6.444300 1.213000 248.057007
v -5.465300 -0.413900 249.707306
v 6.444300 -0.413900 249.707306
v -5.465300 -0.413900 246.856293
v 6.444300 -0.413900 246.856293
v -5.465300 2.592300 252.410995
v 6.444300 2.592300 252.410995
v -5.465300 2.592300 251.646698
v 6.444300 2.592300 251.646698
v -5.465300 1.322300 252.410995
v 6.444300 1.322300 252.410995
v -5.465300 1.322300 251.646698
v 6.444300 1.322300 251.646698
v -5.465300 -0.254300 253.534698
v 6.444300 -0.254300 253.534698
v -5.465300 -0.254300 250.515106
v 6.444300 -0.254300 250.515106
v -5.465300 2.479200 252.264404
v 6.444300 2.479200 252.264404
v -5.465300 2.479200 251.801498
v 6.444300 2.479200 251.801498
v -5.465300 1.213000 252.264206
v 6.444300 1.213000 252.264206
v -5.465300 1.213000 251.801697
v 6.444300 1.213000 251.801697
v -5.465300 -0.413900 253.451996
v 6.444300 -0.413900 253.451996
v -5.465300 -0.413900 250.600998
v 6.444300 -0.413900 250.600998
v -5.465300 1.954300 249.916107
v 6.444300 1.954300 249.916107
v -5.465300 1.954300 250.355606
v 6.444300 1.954300 250.355606
v -5.465300 2.388900 249.916107
v 6.444300 2.388900 249.916107
v -5.465300 2.388900 250.355606
v 6.444300 2.388900 250.355606
v -5.465300 2.037100 249.961899
v 6.444300 2.037100 249.961899
v -5.465300 2.037100 250.305603
v 6.444300 2.037100 250.305603
v -5.465300 2.388900 249.963303
v 6.444300 2.388900 249.963303
v -5.465300 2.388900 250.304199
v 6.444300 2.388900 250.304199
v -5.465300 1.954300 246.026794
v 6.444300 1.954300 246.026794
v -5.465300 1.954300 246.466293
v 6.444300 1.954300 246.466293
v -5.465300 2.388900 246.026794
v 6.444300 2.388900 246.026794
v -5.465300 2.388900 246.466293
v 6.444300 2.388900 246.466293
v -5.465300 2.037100 246.072601
v 6.444300 2.037100 246.072601
v -5.465300 2.037100 246.416306
v 6.444300 2.037100 246.416306
v -5.465300 2.388900 246.074005
v 6.444300 2.388900 246.074005
v -5.465300 2.388900 246.414902
v 6.444300 2.388900 246.414902
v -5.465300 2.592300 244.809494
v 6.444300 2.592300 244.809494
v -5.465300 2.592300 244.045197
v 6.444300 2.592300 244.045197
v -5.465300 1.322300 244.809494
v 6.444300 1.322300 244.809494
v -5.465300 1.322300 244.045197
v 6.444300 1.322300 244.045197
v -5.465300 -0.254300 245.933197
v 6.444300 -0.254300 245.933197
v -5.465300 -0.254300 242.913605
v 6.444300 -0.254300 242.913605
v -5.465300 2.479200 244.662903
v 6.444300 2.479200 244.662903
v -5.465300 2.479200 244.200104
v 6.444300 2.479200 244.200104
v -5.465300 1.213000 244.662796
v 6.444300 1.213000 244.662796
v -5.465300 1.213000 244.200195
v 6.444300 1.213000 244.200195
v -5.465300 -0.413900 245.850494
v 6.444300 -0.413900 245.850494
v -5.465300 -0.413900 242.999496
v 6.444300 -0.413900 242.999496
# 104 positions

vt 0.781326 0.005000
vt 0.781326 0.422687
vt 0.754517 0.422687
vt 0.754517 0.005000
vt 0.574384 0.547305
vt 0.574384 0.502764
vt 0.992072 0.502764
vt 0.992072 0.547305
vt 0.574384 0.555750
vt 0.574384 0.600291
vt 0.992072 0.600291
vt 0.992072 0.555750
vt 0.574384 0.655584
vt 0.992072 0.655584
vt 0.574384 0.447470
vt 0.992072 0.447470
vt 0.805946 0.005000
vt 0.789715 0.005000
vt 0.789715 0.422687
vt 0.805946 0.422687
vt 0.574384 0.714034
vt 0.992072 0.714034
vt 0.992072 0.669627
vt 0.574384 0.669627
vt 0.574384 0.836420
vt 0.992072 0.836420
vt 0.992072 0.880828
vt 0.574384 0.880828
vt 0.992072 0.779363
vt 0.574384 0.779363
vt 0.992072 0.771092
vt 0.574384 0.771092
vt 0.955191 0.197903
vt 0.955191 0.224712
vt 0.951225 0.219567
vt 0.951225 0.203336
vt 0.849759 0.274230
vt 0.849759 0.301039
vt 0.853726 0.295606
vt 0.853726 0.279375
vt 0.894300 0.274230
vt 0.898133 0.279379
vt 0.910650 0.224712
vt 0.906817 0.219563
vt 0.910650 0.197903
vt 0.906817 0.203339
vt 0.894300 0.301039
vt 0.898133 0.295603
vt 0.855357 0.158216
vt 0.849759 0.161228
vt 0.574384 0.661182
vt 0.992072 0.661182
vt 0.949594 0.340726
vt 0.955191 0.337713
vt 0.949594 0.234824
vt 0.955191 0.237724
vt 0.574384 0.441873
vt 0.992072 0.441873
vt 0.855357 0.264118
vt 0.849759 0.261218
vt 0.841366 0.005000
vt 0.841366 0.422687
vt 0.814561 0.422687
vt 0.814561 0.005000
vt 0.050551 0.891006
vt 0.050551 0.846465
vt 0.468238 0.846465
vt 0.468238 0.891006
vt 0.125088 0.452225
vt 0.125088 0.496766
vt 0.542776 0.496766
vt 0.542776 0.452225
vt 0.125088 0.552060
vt 0.542776 0.552060
vt 0.050551 0.791171
vt 0.468238 0.791171
vt 0.041940 0.431521
vt 0.025705 0.431521
vt 0.025705 0.849208
vt 0.041940 0.849208
vt 0.125088 0.610510
vt 0.542776 0.610510
vt 0.542776 0.566102
vt 0.125088 0.566102
vt 0.050551 0.732896
vt 0.468238 0.732896
vt 0.468238 0.777303
vt 0.050551 0.777303
vt 0.468238 0.675838
vt 0.050551 0.675838
vt 0.542776 0.667568
vt 0.125088 0.667568
vt 0.955191 0.044687
vt 0.955191 0.071492
vt 0.951225 0.066350
vt 0.951225 0.050116
vt 0.849759 0.121018
vt 0.849759 0.147823
vt 0.853725 0.142394
vt 0.853725 0.126159
vt 0.894300 0.121018
vt 0.898133 0.126166
vt 0.910650 0.071492
vt 0.906817 0.066344
vt 0.910650 0.044687
vt 0.906817 0.050123
vt 0.894300 0.147823
vt 0.898133 0.142387
vt 0.855357 0.005000
vt 0.849759 0.008012
vt 0.125088 0.557657
vt 0.542776 0.557657
vt 0.949593 0.187510
vt 0.955191 0.184497
vt 0.949593 0.081608
vt 0.955191 0.084509
vt 0.050551 0.785574
vt 0.468238 0.785574
vt 0.855357 0.110902
vt 0.849759 0.108001
vt 0.567023 0.849208
vt 0.567023 0.431521
vt 0.551609 0.431521
vt 0.551609 0.849208
vt 0.599979 0.015352
vt 0.584737 0.015352
vt 0.584737 0.433040
vt 0.599979 0.433040
vt 0.622754 0.005000
vt 0.607512 0.005000
vt 0.607512 0.422687
vt 0.622754 0.422687
vt 0.721020 0.422687
vt 0.708966 0.422687
vt 0.708966 0.005000
vt 0.721020 0.005000
vt 0.005000 0.005000
vt 0.005000 0.422687
vt 0.017339 0.422687
vt 0.017339 0.005000
vt 0.025705 0.005000
vt 0.025705 0.422687
vt 0.038043 0.422687
vt 0.038043 0.005000
vt 0.050551 0.446934
vt 0.050551 0.431521
vt 0.053455 0.433127
vt 0.053455 0.445181
vt 0.065793 0.469710
vt 0.065793 0.454296
vt 0.062889 0.456050
vt 0.062889 0.468104
vt 0.050551 0.469710
vt 0.050551 0.468055
vt 0.574384 0.422687
vt 0.574384 0.005000
vt 0.576040 0.005000
vt 0.576040 0.422687
vt 0.065793 0.431521
vt 0.065793 0.433176
vt 0.065793 0.446934
vt 0.065793 0.445132
vt 0.093764 0.224472
vt 0.093764 0.642159
vt 0.091961 0.642159
vt 0.091961 0.224472
vt 0.050551 0.454296
vt 0.050551 0.456099
vt 0.567023 0.422687
vt 0.567023 0.005000
vt 0.551609 0.005000
vt 0.551609 0.422687
vt 0.061652 0.005000
vt 0.046410 0.005000
vt 0.046410 0.422687
vt 0.061652 0.422687
vt 0.084427 0.005000
vt 0.069185 0.005000
vt 0.069185 0.422687
vt 0.084427 0.422687
vt 0.116438 0.642159
vt 0.104383 0.642159
vt 0.104383 0.224472
vt 0.116438 0.224472
vt 0.630287 0.005000
vt 0.630287 0.422687
vt 0.642625 0.422687
vt 0.642625 0.005000
vt 0.005000 0.431521
vt 0.005000 0.849208
vt 0.017338 0.849208
vt 0.017338 0.431521
vt 0.050551 0.515261
vt 0.050551 0.499847
vt 0.053455 0.501453
vt 0.053455 0.513507
vt 0.065793 0.492485
vt 0.065793 0.477071
vt 0.062889 0.478824
vt 0.062889 0.490879
vt 0.050551 0.492485
vt 0.050551 0.490829
vt 0.650992 0.422687
vt 0.650992 0.005000
vt 0.652648 0.005000
vt 0.652648 0.422687
vt 0.065793 0.499847
vt 0.065793 0.501502
vt 0.065793 0.515261
vt 0.065793 0.513458
vt 0.663147 0.015352
vt 0.663147 0.433040
vt 0.661345 0.433040
vt 0.661345 0.015352
vt 0.050551 0.477071
vt 0.050551 0.478874
vt 0.700573 0.005000
vt 0.700573 0.422687
vt 0.673768 0.422687
vt 0.673768 0.005000
vt 0.125088 0.329904
vt 0.125088 0.285363
vt 0.542776 0.285363
vt 0.542776 0.329904
vt 0.125088 0.338349
vt 0.125088 0.382889
vt 0.542776 0.382889
vt 0.542776 0.338349
vt 0.125088 0.438183
vt 0.542776 0.438183
vt 0.125088 0.230069
vt 0.542776 0.230069
vt 0.745902 0.005000
vt 0.729671 0.005000
vt 0.729671 0.422687
vt 0.745902 0.422687
vt 0.091961 0.049407
vt 0.509648 0.049407
vt 0.509648 0.005000
vt 0.091961 0.005000
vt 0.091961 0.171794
vt 0.509648 0.171794
vt 0.509648 0.216201
vt 0.091961 0.216201
vt 0.509648 0.114736
vt 0.091961 0.114736
vt 0.509648 0.106465
vt 0.091961 0.106465
vt 0.955191 0.351119
vt 0.955191 0.377924
vt 0.951224 0.372783
vt 0.951224 0.356552
vt 0.468789 0.928508
vt 0.468789 0.955313
vt 0.472756 0.949881
vt 0.472756 0.933650
vt 0.513330 0.928508
vt 0.517164 0.933653
vt 0.910651 0.377924
vt 0.906816 0.372779
vt 0.910651 0.351119
vt 0.906816 0.356555
vt 0.513330 0.955313
vt 0.517164 0.949877
vt 0.855356 0.311432
vt 0.849759 0.314445
vt 0.125088 0.443781
vt 0.542776 0.443781
vt 0.568624 0.995000
vt 0.574221 0.991988
vt 0.568624 0.889098
vt 0.574221 0.891999
vt 0.125088 0.224472
vt 0.542776 0.224472
vt 0.855356 0.417334
vt 0.849759 0.414433
# 276 texture coordinates

vn 0.000000 1.000000 0.000000
vn 0.000000 1.000000 0.000000
vn 0.000000 1.000000 0.000000
vn 0.000000 1.000000 0.000000
vn 0.000000 0.000000 1.000000
vn 0.000000 0.000000 1.000000
vn 0.000000 0.000000 1.000000
vn 0.000000 0.000000 1.000000
vn 0.000000 0.000000 -1.000000
vn 0.000000 0.000000 -1.000000
vn 0.000000 0.000000 -1.000000
vn 0.000000 0.000000 -1.000000
vn 0.000000 0.583096 -0.812403
vn 0.000000 0.583096 -0.812403
vn 0.000000 0.583096 -0.812403
vn 0.000000 0.583096 -0.812403
vn 0.000000 0.580367 0.814355
vn 0.000000 0.580367 0.814355
vn 0.000000 0.580367 0.814355
vn 0.000000 0.580367 0.814355
vn 0.000000 -1.000000 0.000000
vn 0.000000 -1.000000 0.000000
vn 0.000000 -1.000000 0.000000
vn 0.000000 -1.000000 0.000000
vn 0.000000 0.000072 -1.000000
vn 0.000000 0.000072 -1.000000
vn 0.000000 0.000072 -1.000000
vn 0.000000 0.000072 -1.000000
vn 0.000000 0.000084 1.000000
vn 0.000000 0.000084 1.000000
vn 0.000000 0.000084 1.000000
vn 0.000000 0.000084 1.000000
vn 0.000000 -0.593822 0.804596
vn 0.000000 -0.593822 0.804596
vn 0.000000 -0.593822 0.804596
vn 0.000000 -0.593822 0.804596
vn 0.000000 -0.589631 -0.807673
vn 0.000000 -0.589631 -0.807673
vn 0.000000 -0.589631 -0.807673
vn 0.000000 -0.589631 -0.807673
vn 1.000000 0.000000 0.000000
vn 1.000000 0.000000 0.000000
vn 1.000000 0.000000 0.000000
vn 1.000000 0.000000 0.000000
vn -1.000000 0.000000 0.000000
vn -1.000000 0.000000 0.000000
vn -1.000000 0.000000 0.000000
vn -1.000000 0.000000 0.000000
vn -1.000000 0.000000 0.000000
vn -1.000000 0.000000 0.000000
vn 1.000000 0.000000 0.000000
vn 1.000000 0.000000 0.000000
vn 1.000000 0.000000 0.000000
vn 1.000000 0.000000 0.000000
vn -1.000000 0.000000 0.000000
vn -1.000000 0.000000 0.000000
vn 1.000000 0.000000 0.000000
vn 1.000000 0.000000 0.000000
vn 0.000000 -0.473900 -0.880579
vn 0.000000 -0.473900 -0.880579
vn 0.000000 -0.473900 -0.880579
vn 0.000000 -0.473900 -0.880579
vn -1.000000 0.000000 0.000000
vn -1.000000 0.000000 0.000000
vn -1.000000 0.000000 0.000000
vn -1.000000 0.000000 0.000000
vn 0.000000 -0.460018 0.887910
vn 0.000000 -0.460018 0.887910
vn 0.000000 -0.460018 0.887910
vn 0.000000 -0.460018 0.887910
vn 1.000000 0.000000 0.000000
vn 1.000000 0.000000 0.000000
vn 0.000000 1.000000 0.000000
vn 0.000000 1.000000 0.000000
vn 0.000000 1.000000 0.000000
vn 0.000000 1.000000 0.000000
vn 0.000000 0.000000 1.000000
vn 0.000000 0.000000 1.000000
vn 0.000000 0.000000 1.000000
vn 0.000000 0.000000 1.000000
vn 0.000000 0.000000 -1.000000
vn 0.000000 0.000000 -1.000000
vn 0.000000 0.000000 -1.000000
vn 0.000000 0.000000 -1.000000
vn 0.000000 0.583096 -0.812403
vn 0.000000 0.583096 -0.812403
vn 0.000000 0.583096 -0.812403
vn 0.000000 0.583096 -0.812403
vn 0.000000 0.580403 0.814329
vn 0.000000 0.580403 0.814329
vn 0.000000 0.580403 0.814329
vn 0.000000 0.580403 0.814329
vn 0.000000 -1.000000 0.000000
vn 0.000000 -1.000000 0.000000
vn 0.000000 -1.000000 0.000000
vn 0.000000 -1.000000 0.000000
vn 0.000000 0.000157 -1.000000
vn 0.000000 0.000157 -1.000000
vn 0.000000 0.000157 -1.000000
vn 0.000000 0.000157 -1.000000
vn 0.000000 0.000157 1.000000
vn 0.000000 0.000157 1.000000
vn 0.000000 0.000157 1.000000
vn 0.000000 0.000157 1.000000
vn 0.000000 -0.593818 0.804600
vn 0.000000 -0.593818 0.804600
vn 0.000000 -0.593818 0.804600
vn 0.000000 -0.593818 0.804600
vn 0.000000 -0.589661 -0.807651
vn 0.000000 -0.589661 -0.807651
vn 0.000000 -0.589661 -0.807651
vn 0.000000 -0.589661 -0.807651
vn 1.000000 0.000000 0.000000
vn 1.000000 0.000000 0.000000
vn 1.000000 0.000000 0.000000
vn 1.000000 0.000000 0.000000
vn -1.000000 0.000000 0.000000
vn -1.000000 0.000000 0.000000
vn -1.000000 0.000000 0.000000
vn -1.000000 0.000000 0.000000
vn -1.000000 0.000000 0.000000
vn -1.000000 0.000000 0.000000
vn 1.000000 0.000000 0.000000
vn 1.000000 0.000000 0.000000
vn 1.000000 0.000000 0.000000
vn 1.000000 0.000000 0.000000
vn -1.000000 0.000000 0.000000
vn -1.000000 0.000000 0.000000
vn 1.000000 0.000000 0.000000
vn 1.000000 0.000000 0.000000
vn 0.000000 -0.473900 -0.880579
vn 0.000000 -0.473900 -0.880579
vn 0.000000 -0.473900 -0.880579
vn 0.000000 -0.473900 -0.880579
vn -1.000000 0.000000 0.000000
vn -1.000000 0.000000 0.000000
vn -1.000000 0.000000 0.000000
vn -1.000000 0.000000 0.000000
vn 0.000000 -0.460085 0.887875
vn 0.000000 -0.460085 0.887875
vn 0.000000 -0.460085 0.887875
vn 0.000000 -0.460085 0.887875
vn 1.000000 0.000000 0.000000
vn 1.000000 0.000000 0.000000
vn 0.000000 -1.000000 0.000000
vn 0.000000 -1.000000 0.000000
vn 0.000000 -1.000000 0.000000
vn 0.000000 -1.000000 0.000000
vn 0.000000 0.000000 -1.000000
vn 0.000000 0.000000 -1.000000
vn 0.000000 0.000000 -1.000000
vn 0.000000 0.000000 -1.000000
vn 0.000000 0.000000 1.000000
vn 0.000000 0.000000 1.000000
vn 0.000000 0.000000 1.000000
vn 0.000000 0.000000 1.000000
vn 0.000000 1.000000 0.000000
vn 0.000000 1.000000 0.000000
vn 0.000000 1.000000 0.000000
vn 0.000000 1.000000 0.000000
vn 0.000000 -0.003990 0.999992
vn 0.000000 -0.003990 0.999992
vn 0.000000 -0.003990 0.999992
vn 0.000000 -0.003990 0.999992
vn 0.000000 -0.003990 -0.999992
vn 0.000000 -0.003990 -0.999992
vn 0.000000 -0.003990 -0.999992
vn 0.000000 -0.003990 -0.999992
vn 1.000000 0.000000 0.000000
vn 1.000000 0.000000 0.000000
vn 1.000000 0.000000 0.000000
vn 1.000000 0.000000 0.000000
vn -1.000000 0.000000 0.000000
vn -1.000000 0.000000 0.000000
vn -1.000000 0.000000 0.000000
vn -1.000000 0.000000 0.000000
vn -1.000000 0.000000 0.000000
vn -1.000000 0.000000 0.000000
vn 0.000000 1.000000 0.000000
vn 0.000000 1.000000 0.000000
vn 0.000000 1.000000 0.000000
vn 0.000000 1.000000 0.000000
vn 1.000000 0.000000 0.000000
vn 1.000000 0.000000 0.000000
vn 1.000000 0.000000 0.000000
vn 1.000000 0.000000 0.000000
vn 0.000000 1.000000 0.000000
vn 0.000000 1.000000 0.000000
vn 0.000000 1.000000 0.000000
vn 0.000000 1.000000 0.000000
vn -1.000000 0.000000 0.000000
vn -1.000000 0.000000 0.000000
vn 0.000000 -1.000000 0.000000
vn 0.000000 -1.000000 0.000000
vn 0.000000 -1.000000 0.000000
vn 0.000000 -1.000000 0.000000
vn 0.000000 0.000000 -1.000000
vn 0.000000 0.000000 -1.000000
vn 0.000000 0.000000 -1.000000
vn 0.000000 0.000000 -1.000000
vn 0.000000 0.000000 1.000000
vn 0.000000 0.000000 1.000000
vn 0.000000 0.000000 1.000000
vn 0.000000 0.000000 1.000000
vn 0.000000 1.000000 0.000000
vn 0.000000 1.000000 0.000000
vn 0.000000 1.000000 0.000000
vn 0.000000 1.000000 0.000000
vn 0.000000 -0.003990 0.999992
vn 0.000000 -0.003990 0.999992
vn 0.000000 -0.003990 0.999992
vn 0.000000 -0.003990 0.999992
vn 0.000000 -0.003990 -0.999992
vn 0.000000 -0.003990 -0.999992
vn 0.000000 -0.003990 -0.999992
vn 0.000000 -0.003990 -0.999992
vn 1.000000 0.000000 0.000000
vn 1.000000 0.000000 0.000000
vn 1.000000 0.000000 0.000000
vn 1.000000 0.000000 0.000000
vn -1.000000 0.000000 0.000000
vn -1.000000 0.000000 0.000000
vn -1.000000 0.000000 0.000000
vn -1.000000 0.000000 0.000000
vn -1.000000 0.000000 0.000000
vn -1.000000 0.000000 0.000000
vn 0.000000 1.000000 0.000000
vn 0.000000 1.000000 0.000000
vn 0.000000 1.000000 0.000000
vn 0.000000 1.000000 0.000000
vn 1.000000 0.000000 0.000000
vn 1.000000 0.000000 0.000000
vn 1.000000 0.000000 0.000000
vn 1.000000 0.000000 0.000000
vn 0.000000 1.000000 0.000000
vn 0.000000 1.000000 0.000000
vn 0.000000 1.000000 0.000000
vn 0.000000 1.000000 0.000000
vn -1.000000 0.000000 0.000000
vn -1.000000 0.000000 0.000000
vn 0.000000 1.000000 0.000000
vn 0.000000 1.000000 0.000000
vn 0.000000 1.000000 0.000000
vn 0.000000 1.000000 0.000000
vn 0.000000 0.000000 1.000000
vn 0.000000 0.000000 1.000000
vn 0.000000 0.000000 1.000000
vn 0.000000 0.000000 1.000000
vn 0.000000 0.000000 -1.000000
vn 0.000000 0.000000 -1.000000
vn 0.000000 0.000000 -1.000000
vn 0.000000 0.000000 -1.000000
vn 0.000000 0.583096 -0.812403
vn 0.000000 0.583096 -0.812403
vn 0.000000 0.583096 -0.812403
vn 0.000000 0.583096 -0.812403
vn 0.000000 0.580403 0.814329
vn 0.000000 0.580403 0.814329
vn 0.000000 0.580403 0.814329
vn 0.000000 0.580403 0.814329
vn 0.000000 -1.000000 0.000000
vn 0.000000 -1.000000 0.000000
vn 0.000000 -1.000000 0.000000
vn 0.000000 -1.000000 0.000000
vn 0.000000 0.000084 -1.000000
vn 0.000000 0.000084 -1.000000
vn 0.000000 0.000084 -1.000000
vn 0.000000 0.000084 -1.000000
vn 0.000000 0.000072 1.000000
vn 0.000000 0.000072 1.000000
vn 0.000000 0.000072 1.000000
vn 0.000000 0.000072 1.000000
vn 0.000000 -0.593818 0.804600
vn 0.000000 -0.593818 0.804600
vn 0.000000 -0.593818 0.804600
vn 0.000000 -0.593818 0.804600
vn 0.000000 -0.589631 -0.807673
vn 0.000000 -0.589631 -0.807673
vn 0.000000 -0.589631 -0.807673
vn 0.000000 -0.589631 -0.807673
vn 1.000000 0.000000 0.000000
vn 1.000000 0.000000 0.000000
vn 1.000000 0.000000 0.000000
vn 1.000000 0.000000 0.000000
vn -1.000000 0.000000 0.000000
vn -1.000000 0.000000 0.000000
vn -1.000000 0.000000 0.000000
vn -1.000000 0.000000 0.000000
vn -1.000000 0.000000 0.000000
vn -1.000000 0.000000 0.000000
vn 1.000000 0.000000 0.000000
vn 1.000000 0.000000 0.000000
vn 1.000000 0.000000 0.000000
vn 1.000000 0.000000 0.000000
vn -1.000000 0.000000 0.000000
vn -1.000000 0.000000 0.000000
vn 1.000000 0.000000 0.000000
vn 1.000000 0.000000 0.000000
vn 0.000000 -0.473900 -0.880579
vn 0.000000 -0.473900 -0.880579
vn 0.000000 -0.473900 -0.880579
vn 0.000000 -0.473900 -0.880579
vn -1.000000 0.000000 0.000000
vn -1.000000 0.000000 0.000000
vn -1.000000 0.000000 0.000000
vn -1.000000 0.000000 0.000000
vn 0.000000 -0.460085 0.887875
vn 0.000000 -0.460085 0.887875
vn 0.000000 -0.460085 0.887875
vn 0.000000 -0.460085 0.887875
vn 1.000000 0.000000 0.000000
vn 1.000000 0.000000 0.000000
# 312 normals

usemtl default
s 1
f 1/1/1 2/2/2 4/3/3 3/4/4
s 2
f 1/5/5 5/6/6 6/7/7 2/8/8
s 3
f 4/9/9 8/10/10 7/11/11 3/12/12
s 4
f 7/11/13 8/10/14 12/13/15 11/14/16
s 5
f 6/7/17 5/6/18 9/15/19 10/16/20
s 6
f 16/17/21 14/18/22 13/19/23 15/20/24
s 7
f 18/21/25 17/22/26 13/23/27 14/24/28
s 8
f 19/25/29 20/26/30 16/27/31 15/28/32
s 9
f 24/29/33 20/26/34 19/25/35 23/30/36
s 10
f 21/31/37 17/22/38 18/21/39 22/32/40
s 11
f 4/33/41 2/34/42 14/35/43 16/36/44
f 2/34/42 6/43/51 18/44/52 14/35/43
f 8/45/53 4/33/41 16/36/44 20/46/54
f 12/49/57 8/45/53 20/46/54 24/50/58
f 6/43/51 10/59/71 22/60/72 18/44/52
s 12
f 1/37/45 3/38/46 15/39/47 13/40/48
f 5/41/49 1/37/45 13/40/48 17/42/50
f 3/38/46 7/47/55 19/48/56 15/39/47
f 7/47/55 11/53/63 23/54/64 19/48/56
f 9/55/65 5/41/49 17/42/50 21/56/66
s 13
f 11/14/59 12/13/60 24/51/61 23/52/62
s 14
f 10/16/67 9/15/68 21/57/69 22/58/70
s 15
f 25/61/73 26/62/74 28/63/75 27/64/76
s 16
f 25/65/77 29/66/78 30/67/79 26/68/80
s 17
f 28/69/81 32/70/82 31/71/83 27/72/84
s 18
f 31/71/85 32/70/86 36/73/87 35/74/88
s 19
f 30/67/89 29/66/90 33/75/91 34/76/92
s 20
f 40/77/93 38/78/94 37/79/95 39/80/96
s 21
f 42/81/97 41/82/98 37/83/99 38/84/100
s 22
f 43/85/101 44/86/102 40/87/103 39/88/104
s 23
f 48/89/105 44/86/106 43/85/107 47/90/108
s 24
f 45/91/109 41/82/110 42/81/111 46/92/112
s 25
f 28/93/113 26/94/114 38/95/115 40/96/116
f 26/94/114 30/103/123 42/104/124 38/95/115
f 32/105/125 28/93/113 40/96/116 44/106/126
f 36/109/129 32/105/125 44/106/126 48/110/130
f 30/103/123 34/119/143 46/120/144 42/104/124
s 26
f 25/97/117 27/98/118 39/99/119 37/100/120
f 29/101/121 25/97/117 37/100/120 41/102/122
f 27/98/118 31/107/127 43/108/128 39/99/119
f 31/107/127 35/113/135 47/114/136 43/108/128
f 33/115/137 29/101/121 41/102/122 45/116/138
s 27
f 35/74/131 36/73/132 48/111/133 47/112/134
s 28
f 34/76/139 33/75/140 45/117/141 46/118/142
s 29
f 49/121/145 50/122/146 52/123/147 51/124/148
s 30
f 49/125/149 53/126/150 54/127/151 50/128/152
s 31
f 52/129/153 56/130/154 55/131/155 51/132/156
s 32
f 60/133/157 58/134/158 57/135/159 59/136/160
s 33
f 62/137/161 61/138/162 57/139/163 58/140/164
s 34
f 63/141/165 64/142/166 60/143/167 59/144/168
s 35
f 52/145/169 50/146/170 58/147/171 60/148/172
f 50/146/170 54/159/183 62/160/184 58/147/171
f 56/161/185 52/145/169 60/148/172 64/162/186
s 36
f 49/149/173 51/150/174 59/151/175 57/152/176
f 53/153/177 49/149/173 57/152/176 61/154/178
f 51/150/174 55/167/191 63/168/192 59/151/175
s 37
f 54/155/179 53/156/180 61/157/181 62/158/182
s 38
f 55/163/187 56/164/188 64/165/189 63/166/190
s 39
f 65/169/193 66/170/194 68/171/195 67/172/196
s 40
f 65/173/197 69/174/198 70/175/199 66/176/200
s 41
f 68/177/201 72/178/202 71/179/203 67/180/204
s 42
f 76/181/205 74/182/206 73/183/207 75/184/208
s 43
f 78/185/209 77/186/210 73/187/211 74/188/212
s 44
f 79/189/213 80/190/214 76/191/215 75/192/216
s 45
f 68/193/217 66/194/218 74/195/219 76/196/220
f 66/194/218 70/207/231 78/208/232 74/195/219
f 72/209/233 68/193/217 76/196/220 80/210/234
s 46
f 65/197/221 67/198/222 75/199/223 73/200/224
f 69/201/225 65/197/221 73/200/224 77/202/226
f 67/198/222 71/215/239 79/216/240 75/199/223
s 47
f 70/203/227 69/204/228 77/205/229 78/206/230
s 48
f 71/211/235 72/212/236 80/213/237 79/214/238
s 49
f 81/217/241 82/218/242 84/219/243 83/220/244
s 50
f 81/221/245 85/222/246 86/223/247 82/224/248
s 51
f 84/225/249 88/226/250 87/227/251 83/228/252
s 52
f 87/227/253 88/226/254 92/229/255 91/230/256
s 53
f 86/223/257 85/222/258 89/231/259 90/232/260
s 54
f 96/233/261 94/234/262 93/235/263 95/236/264
s 55
f 98/237/265 97/238/266 93/239/267 94/240/268
s 56
f 99/241/269 100/242/270 96/243/271 95/244/272
s 57
f 104/245/273 100/242/274 99/241/275 103/246/276
s 58
f 101/247/277 97/238/278 98/237/279 102/248/280
s 59
f 84/249/281 82/250/282 94/251/283 96/252/284
f 82/250/282 86/259/291 98/260/292 94/251/283
f 88/261/293 84/249/281 96/252/284 100/262/294
f 92/265/297 88/261/293 100/262/294 104/266/298
f 86/259/291 90/275/311 102/276/312 98/260/292
s 60
f 81/253/285 83/254/286 95/255/287 93/256/288
f 85/257/289 81/253/285 93/256/288 97/258/290
f 83/254/286 87/263/295 99/264/296 95/255/287
f 87/263/295 91/269/303 103/270/304 99/264/296
f 89/271/305 85/257/289 97/258/290 101/272/306
s 61
f 91/230/299 92/229/300 104/267/301 103/268/302
s 62
f 90/232/307 89/231/308 101/273/309 102/274/310

# 94 faces
