# Wavefront Obj file
# 
# verts: 132 uv-s: 240
mtllib conector_1.mtl

g Cylinder006

v 0.240300 0.000000 -0.064400
v 0.175900 0.000000 -0.175900
v 0.064400 0.000000 -0.240300
v -0.064400 0.000000 -0.240300
v -0.175900 0.000000 -0.175900
v -0.240300 0.000000 -0.064400
v -0.240300 0.000000 0.064400
v -0.175900 0.000000 0.175900
v -0.064400 0.000000 0.240300
v 0.064400 0.000000 0.240300
v 0.175900 0.000000 0.175900
v 0.240300 0.000000 0.064400
v 0.240300 0.648000 -0.064400
v 0.175900 0.648000 -0.175900
v 0.064400 0.648000 -0.240300
v -0.064400 0.648000 -0.240300
v -0.175900 0.648000 -0.175900
v -0.240300 0.648000 -0.064400
v -0.240300 0.648000 0.064400
v -0.175900 0.648000 0.175900
v -0.064400 0.648000 0.240300
v 0.064400 0.648000 0.240300
v 0.175900 0.648000 0.175900
v 0.240300 0.648000 0.064400
v 0.259800 0.000000 -0.069600
v 0.190200 0.000000 -0.190200
v 0.069600 0.000000 -0.259800
v -0.069600 0.000000 -0.259800
v -0.190200 0.000000 -0.190200
v -0.259800 0.000000 -0.069600
v -0.259800 0.000000 0.069600
v -0.190200 0.000000 0.190200
v -0.069600 0.000000 0.259800
v 0.069600 0.000000 0.259800
v 0.190200 0.000000 0.190200
v 0.259800 0.000000 0.069600
v 0.316800 0.648000 -0.084900
v 0.231900 0.648000 -0.231900
v 0.084900 0.648000 -0.316800
v -0.084900 0.648000 -0.316800
v -0.231900 0.648000 -0.231900
v -0.316800 0.648000 -0.084900
v -0.316800 0.648000 0.084900
v -0.231900 0.648000 0.231900
v -0.084900 0.648000 0.316800
v 0.084900 0.648000 0.316800
v 0.231900 0.648000 0.231900
v 0.316800 0.648000 0.084900
v 0.316800 0.712400 -0.084900
v 0.231900 0.712400 -0.231900
v 0.084900 0.712400 -0.316800
v -0.084900 0.712400 -0.316800
v -0.231900 0.712400 -0.231900
v -0.316800 0.712400 -0.084900
v -0.316800 0.712400 0.084900
v -0.231900 0.712400 0.231900
v -0.084900 0.712400 0.316800
v 0.084900 0.712400 0.316800
v 0.231900 0.712400 0.231900
v 0.316800 0.712400 0.084900
v 0.259800 -0.036700 -0.069600
v 0.190200 -0.036700 -0.190200
v 0.069600 -0.036700 -0.259800
v -0.069600 -0.036700 -0.259800
v -0.190200 -0.036700 -0.190200
v -0.259800 -0.036700 -0.069600
v -0.259800 -0.036700 0.069600
v -0.190200 -0.036700 0.190200
v -0.069600 -0.036700 0.259800
v 0.069600 -0.036700 0.259800
v 0.190200 -0.036700 0.190200
v 0.259800 -0.036700 0.069600
v 0.121700 0.261800 0.545400
v 0.089100 0.205400 0.545400
v 0.089100 0.205400 0.203700
v 0.121700 0.261800 0.203700
v 0.032600 0.172800 0.545400
v 0.032600 0.172800 0.203700
v -0.032600 0.172800 0.545400
v -0.032600 0.172800 0.203700
v -0.089100 0.205400 0.545400
v -0.089100 0.205400 0.203700
v -0.121700 0.261800 0.545400
v -0.121700 0.261800 0.203700
v -0.121700 0.327100 0.545400
v -0.121700 0.327100 0.203700
v -0.089100 0.383500 0.545400
v -0.089100 0.383500 0.203700
v -0.032600 0.416100 0.545400
v -0.032600 0.416100 0.203700
v 0.032600 0.416100 0.545400
v 0.032600 0.416100 0.203700
v 0.089100 0.383500 0.545400
v 0.089100 0.383500 0.203700
v 0.121700 0.327100 0.545400
v 0.121700 0.327100 0.203700
v 0.160400 0.251500 0.545400
v 0.117500 0.177000 0.545400
v 0.043000 0.134000 0.545400
v -0.043000 0.134000 0.545400
v -0.117500 0.177000 0.545400
v -0.160400 0.251500 0.545400
v -0.160400 0.337400 0.545400
v -0.117500 0.411900 0.545400
v -0.043000 0.454900 0.545400
v 0.043000 0.454900 0.545400
v 0.117500 0.411900 0.545400
v 0.160400 0.337400 0.545400
v 0.160400 0.251500 0.607900
v 0.117500 0.177000 0.607900
v 0.043000 0.134000 0.607900
v -0.043000 0.134000 0.607900
v -0.117500 0.177000 0.607900
v -0.160400 0.251500 0.607900
v -0.160400 0.337400 0.607900
v -0.117500 0.411900 0.607900
v -0.043000 0.454900 0.607900
v 0.043000 0.454900 0.607900
v 0.117500 0.411900 0.607900
v 0.160400 0.337400 0.607900
v 0.099900 0.267700 0.607900
v 0.073100 0.221300 0.607900
v 0.026800 0.194600 0.607900
v -0.026800 0.194600 0.607900
v -0.073100 0.221300 0.607900
v -0.099900 0.267700 0.607900
v -0.099900 0.321200 0.607900
v -0.073100 0.367600 0.607900
v -0.026800 0.394400 0.607900
v 0.026800 0.394400 0.607900
v 0.073100 0.367600 0.607900
v 0.099900 0.321200 0.607900
# 132 positions

vt 0.450411 0.712982
vt 0.505456 0.712983
vt 0.505453 0.989999
vt 0.450409 0.989998
vt 0.560501 0.712983
vt 0.560498 0.989999
vt 0.615562 0.712984
vt 0.615559 0.990000
vt 0.670606 0.712984
vt 0.670604 0.990000
vt 0.010000 0.712983
vt 0.065045 0.712983
vt 0.065045 0.989998
vt 0.010000 0.989998
vt 0.120106 0.712983
vt 0.120106 0.989998
vt 0.175151 0.712982
vt 0.175151 0.989998
vt 0.230197 0.712982
vt 0.230196 0.989998
vt 0.285258 0.712982
vt 0.285257 0.989998
vt 0.340304 0.712982
vt 0.340302 0.989998
vt 0.395349 0.712982
vt 0.395347 0.989998
vt 0.395762 0.391388
vt 0.423289 0.343720
vt 0.431625 0.345943
vt 0.401875 0.397501
vt 0.563659 0.591129
vt 0.591167 0.543450
vt 0.623870 0.552208
vt 0.587604 0.615066
vt 0.348098 0.418923
vt 0.350321 0.427259
vt 0.591168 0.488406
vt 0.623870 0.479639
vt 0.293037 0.418924
vt 0.290814 0.427260
vt 0.563630 0.440725
vt 0.587567 0.416780
vt 0.245372 0.391393
vt 0.239259 0.397506
vt 0.515951 0.413218
vt 0.524708 0.380515
vt 0.217844 0.343726
vt 0.209508 0.345949
vt 0.460906 0.413217
vt 0.452139 0.380515
vt 0.217846 0.288665
vt 0.209509 0.286442
vt 0.413225 0.440755
vt 0.389281 0.416818
vt 0.245374 0.240998
vt 0.239260 0.234885
vt 0.385718 0.488434
vt 0.353015 0.479676
vt 0.293037 0.213463
vt 0.290813 0.205127
vt 0.385717 0.543478
vt 0.353015 0.552246
vt 0.348098 0.213459
vt 0.350320 0.205123
vt 0.413255 0.591159
vt 0.389319 0.615104
vt 0.395762 0.240990
vt 0.401876 0.234877
vt 0.460934 0.618666
vt 0.452176 0.651369
vt 0.423289 0.288658
vt 0.431625 0.286435
vt 0.515979 0.618667
vt 0.524746 0.651369
vt 0.426095 0.704018
vt 0.353525 0.704018
vt 0.353525 0.676488
vt 0.426095 0.676488
vt 0.632640 0.663182
vt 0.632642 0.590612
vt 0.660173 0.590613
vt 0.660170 0.663183
vt 0.632644 0.518024
vt 0.660175 0.518025
vt 0.632646 0.445455
vt 0.660177 0.445456
vt 0.632648 0.372886
vt 0.660178 0.372886
vt 0.632647 0.300298
vt 0.660178 0.300298
vt 0.632646 0.227729
vt 0.660177 0.227728
vt 0.632644 0.155159
vt 0.660175 0.155159
vt 0.632642 0.082571
vt 0.660173 0.082570
vt 0.632640 0.010001
vt 0.660171 0.010000
vt 0.571253 0.704018
vt 0.498683 0.704018
vt 0.498683 0.676488
vt 0.571253 0.676488
vt 0.694024 0.454326
vt 0.694027 0.513852
vt 0.678338 0.513852
vt 0.678335 0.454327
vt 0.694019 0.394800
vt 0.678330 0.394802
vt 0.694011 0.335293
vt 0.678322 0.335295
vt 0.694002 0.275767
vt 0.678313 0.275769
vt 0.694002 0.930475
vt 0.693998 0.990000
vt 0.678309 0.989999
vt 0.678313 0.930474
vt 0.694006 0.870967
vt 0.678317 0.870966
vt 0.694010 0.811442
vt 0.678321 0.811441
vt 0.694014 0.751917
vt 0.678325 0.751916
vt 0.694019 0.692410
vt 0.678330 0.692409
vt 0.694024 0.632884
vt 0.678335 0.632884
vt 0.694027 0.573359
vt 0.678338 0.573359
vt 0.205105 0.704173
vt 0.177257 0.704173
vt 0.177257 0.558099
vt 0.205105 0.558099
vt 0.149371 0.704173
vt 0.149371 0.558099
vt 0.121498 0.704173
vt 0.121498 0.558099
vt 0.093613 0.704173
vt 0.093613 0.558099
vt 0.065764 0.704173
vt 0.065764 0.558098
vt 0.037849 0.704173
vt 0.037849 0.558098
vt 0.010000 0.704173
vt 0.010000 0.558098
vt 0.344513 0.704173
vt 0.316628 0.704173
vt 0.316628 0.558099
vt 0.344513 0.558098
vt 0.288755 0.704173
vt 0.288755 0.558099
vt 0.260869 0.704173
vt 0.260869 0.558099
vt 0.233021 0.704173
vt 0.233021 0.558099
vt 0.278240 0.301418
vt 0.264303 0.325529
vt 0.247759 0.321126
vt 0.266099 0.289277
vt 0.302393 0.287482
vt 0.297947 0.270895
vt 0.330266 0.287482
vt 0.334712 0.270895
vt 0.354419 0.301418
vt 0.366560 0.289277
vt 0.368355 0.325529
vt 0.384899 0.321126
vt 0.368355 0.353444
vt 0.384899 0.357847
vt 0.354419 0.377555
vt 0.366560 0.389696
vt 0.330265 0.391491
vt 0.334712 0.408078
vt 0.302393 0.391491
vt 0.297947 0.408078
vt 0.278240 0.377555
vt 0.266099 0.389696
vt 0.264303 0.353444
vt 0.247759 0.357847
vt 0.729104 0.659241
vt 0.729105 0.695993
vt 0.702386 0.695993
vt 0.702386 0.659242
vt 0.729104 0.622469
vt 0.702385 0.622470
vt 0.729102 0.585704
vt 0.702384 0.585706
vt 0.729101 0.548932
vt 0.702383 0.548933
vt 0.729103 0.953249
vt 0.729102 0.990000
vt 0.702384 0.989999
vt 0.702384 0.953248
vt 0.729103 0.916527
vt 0.702385 0.916526
vt 0.729104 0.879776
vt 0.702386 0.879775
vt 0.729104 0.843003
vt 0.702386 0.843003
vt 0.729105 0.806239
vt 0.702386 0.806238
vt 0.729105 0.769466
vt 0.702386 0.769466
vt 0.729105 0.732714
vt 0.702387 0.732715
vt 0.419566 0.578241
vt 0.401227 0.546393
vt 0.427090 0.539468
vt 0.438547 0.559303
vt 0.451414 0.596624
vt 0.458340 0.570717
vt 0.488179 0.596624
vt 0.481254 0.570717
vt 0.520028 0.578241
vt 0.501046 0.559303
vt 0.538367 0.546393
vt 0.512503 0.539468
vt 0.538367 0.509671
vt 0.512503 0.516597
vt 0.520028 0.477823
vt 0.501047 0.496761
vt 0.488179 0.459441
vt 0.481254 0.485304
vt 0.451415 0.459441
vt 0.458340 0.485304
vt 0.419566 0.477823
vt 0.438547 0.496761
vt 0.401227 0.509671
vt 0.427090 0.516597
vt 0.150816 0.327897
vt 0.232126 0.468714
vt 0.202372 0.520270
vt 0.091309 0.327897
vt 0.150816 0.550023
vt 0.039754 0.357651
vt 0.091309 0.550023
vt 0.010000 0.409207
vt 0.039754 0.520269
vt 0.010000 0.468714
vt 0.202372 0.357651
vt 0.232126 0.409207
# 240 texture coordinates

vn 0.965914 0.000000 -0.258863
vn 0.707107 0.000000 -0.707107
vn 0.707107 0.000000 -0.707107
vn 0.965914 0.000000 -0.258863
vn 0.258863 0.000000 -0.965914
vn 0.258863 0.000000 -0.965914
vn -0.258863 0.000000 -0.965914
vn -0.258863 0.000000 -0.965914
vn -0.707107 0.000000 -0.707107
vn -0.707107 0.000000 -0.707107
vn -0.965914 0.000000 -0.258863
vn -0.965914 0.000000 -0.258863
vn -0.965914 0.000000 0.258863
vn -0.965914 0.000000 0.258863
vn -0.707107 0.000000 0.707107
vn -0.707107 0.000000 0.707107
vn -0.258863 0.000000 0.965914
vn -0.258863 0.000000 0.965914
vn 0.258863 0.000000 0.965914
vn 0.258863 0.000000 0.965914
vn 0.707107 0.000000 0.707107
vn 0.707107 0.000000 0.707107
vn 0.965914 0.000000 0.258863
vn 0.965914 0.000000 0.258863
vn 0.000000 1.000000 0.000000
vn 0.000000 1.000000 0.000000
vn 0.000000 1.000000 0.000000
vn 0.000000 1.000000 0.000000
vn 0.000000 -1.000000 0.000000
vn 0.000000 -1.000000 0.000000
vn 0.000000 -1.000000 0.000000
vn 0.000000 -1.000000 0.000000
vn 0.000000 1.000000 0.000000
vn 0.000000 1.000000 0.000000
vn 0.000000 -1.000000 0.000000
vn 0.000000 -1.000000 0.000000
vn 0.000000 1.000000 0.000000
vn 0.000000 1.000000 0.000000
vn 0.000000 -1.000000 0.000000
vn 0.000000 -1.000000 0.000000
vn 0.000000 1.000000 0.000000
vn 0.000000 1.000000 0.000000
vn 0.000000 -1.000000 0.000000
vn 0.000000 -1.000000 0.000000
vn 0.000000 1.000000 0.000000
vn 0.000000 1.000000 0.000000
vn 0.000000 -1.000000 0.000000
vn 0.000000 -1.000000 0.000000
vn 0.000000 1.000000 0.000000
vn 0.000000 1.000000 0.000000
vn 0.000000 -1.000000 0.000000
vn 0.000000 -1.000000 0.000000
vn 0.000000 1.000000 0.000000
vn 0.000000 1.000000 0.000000
vn 0.000000 -1.000000 0.000000
vn 0.000000 -1.000000 0.000000
vn 0.000000 1.000000 0.000000
vn 0.000000 1.000000 0.000000
vn 0.000000 -1.000000 0.000000
vn 0.000000 -1.000000 0.000000
vn 0.000000 1.000000 0.000000
vn 0.000000 1.000000 0.000000
vn 0.000000 -1.000000 0.000000
vn 0.000000 -1.000000 0.000000
vn 0.000000 1.000000 0.000000
vn 0.000000 1.000000 0.000000
vn 0.000000 -1.000000 0.000000
vn 0.000000 -1.000000 0.000000
vn 0.000000 1.000000 0.000000
vn 0.000000 1.000000 0.000000
vn 0.000000 -1.000000 0.000000
vn 0.000000 -1.000000 0.000000
vn 0.865950 0.000000 -0.500130
vn 0.865950 0.000000 -0.500130
vn 0.865950 0.000000 -0.500130
vn 0.865950 0.000000 -0.500130
vn 0.500130 0.000000 -0.865950
vn 0.500130 0.000000 -0.865950
vn 0.500130 0.000000 -0.865950
vn 0.500130 0.000000 -0.865950
vn 0.000000 0.000000 -1.000000
vn 0.000000 0.000000 -1.000000
vn 0.000000 0.000000 -1.000000
vn 0.000000 0.000000 -1.000000
vn -0.500130 0.000000 -0.865950
vn -0.500130 0.000000 -0.865950
vn -0.500130 0.000000 -0.865950
vn -0.500130 0.000000 -0.865950
vn -0.865950 0.000000 -0.500130
vn -0.865950 0.000000 -0.500130
vn -0.865950 0.000000 -0.500130
vn -0.865950 0.000000 -0.500130
vn -1.000000 0.000000 0.000000
vn -1.000000 0.000000 0.000000
vn -1.000000 0.000000 0.000000
vn -1.000000 0.000000 0.000000
vn -0.865950 0.000000 0.500130
vn -0.865950 0.000000 0.500130
vn -0.865950 0.000000 0.500130
vn -0.865950 0.000000 0.500130
vn -0.500130 0.000000 0.865950
vn -0.500130 0.000000 0.865950
vn -0.500130 0.000000 0.865950
vn -0.500130 0.000000 0.865950
vn 0.000000 0.000000 1.000000
vn 0.000000 0.000000 1.000000
vn 0.000000 0.000000 1.000000
vn 0.000000 0.000000 1.000000
vn 0.500130 0.000000 0.865950
vn 0.500130 0.000000 0.865950
vn 0.500130 0.000000 0.865950
vn 0.500130 0.000000 0.865950
vn 0.865950 0.000000 0.500130
vn 0.865950 0.000000 0.500130
vn 0.865950 0.000000 0.500130
vn 0.865950 0.000000 0.500130
vn 1.000000 0.000000 0.000000
vn 1.000000 0.000000 0.000000
vn 1.000000 0.000000 0.000000
vn 1.000000 0.000000 0.000000
vn 0.866114 0.000000 -0.499847
vn 0.866114 0.000000 -0.499847
vn 0.866114 0.000000 -0.499847
vn 0.866114 0.000000 -0.499847
vn 0.499847 0.000000 -0.866114
vn 0.499847 0.000000 -0.866114
vn 0.499847 0.000000 -0.866114
vn 0.499847 0.000000 -0.866114
vn 0.000000 0.000000 -1.000000
vn 0.000000 0.000000 -1.000000
vn 0.000000 0.000000 -1.000000
vn 0.000000 0.000000 -1.000000
vn -0.499847 0.000000 -0.866114
vn -0.499847 0.000000 -0.866114
vn -0.499847 0.000000 -0.866114
vn -0.499847 0.000000 -0.866114
vn -0.866114 0.000000 -0.499847
vn -0.866114 0.000000 -0.499847
vn -0.866114 0.000000 -0.499847
vn -0.866114 0.000000 -0.499847
vn -1.000000 0.000000 0.000000
vn -1.000000 0.000000 0.000000
vn -1.000000 0.000000 0.000000
vn -1.000000 0.000000 0.000000
vn -0.866114 0.000000 0.499847
vn -0.866114 0.000000 0.499847
vn -0.866114 0.000000 0.499847
vn -0.866114 0.000000 0.499847
vn -0.499847 0.000000 0.866114
vn -0.499847 0.000000 0.866114
vn -0.499847 0.000000 0.866114
vn -0.499847 0.000000 0.866114
vn 0.000000 0.000000 1.000000
vn 0.000000 0.000000 1.000000
vn 0.000000 0.000000 1.000000
vn 0.000000 0.000000 1.000000
vn 0.499847 0.000000 0.866114
vn 0.499847 0.000000 0.866114
vn 0.499847 0.000000 0.866114
vn 0.499847 0.000000 0.866114
vn 0.866114 0.000000 0.499847
vn 0.866114 0.000000 0.499847
vn 0.866114 0.000000 0.499847
vn 0.866114 0.000000 0.499847
vn 1.000000 0.000000 0.000000
vn 1.000000 0.000000 0.000000
vn 1.000000 0.000000 0.000000
vn 1.000000 0.000000 0.000000
vn 0.965945 -0.258749 0.000000
vn 0.706710 -0.707504 0.000000
vn 0.706710 -0.707504 0.000000
vn 0.965945 -0.258749 0.000000
vn 0.258749 -0.965944 0.000000
vn 0.258749 -0.965944 0.000000
vn -0.258749 -0.965944 0.000000
vn -0.258749 -0.965944 0.000000
vn -0.706710 -0.707504 0.000000
vn -0.706710 -0.707504 0.000000
vn -0.965945 -0.258749 0.000000
vn -0.965945 -0.258749 0.000000
vn -0.965945 0.258749 0.000000
vn -0.965945 0.258749 0.000000
vn -0.706710 0.707504 0.000000
vn -0.706710 0.707504 0.000000
vn -0.258749 0.965945 0.000000
vn -0.258749 0.965945 0.000000
vn 0.258749 0.965945 0.000000
vn 0.258749 0.965945 0.000000
vn 0.706710 0.707504 0.000000
vn 0.706710 0.707504 0.000000
vn 0.965945 0.258749 0.000000
vn 0.965945 0.258749 0.000000
vn 0.000000 0.000000 -1.000000
vn 0.000000 0.000000 -1.000000
vn 0.000000 0.000000 -1.000000
vn 0.000000 0.000000 -1.000000
vn 0.000000 0.000000 -1.000000
vn 0.000000 0.000000 -1.000000
vn 0.000000 0.000000 -1.000000
vn 0.000000 0.000000 -1.000000
vn 0.000000 0.000000 -1.000000
vn 0.000000 0.000000 -1.000000
vn 0.000000 0.000000 -1.000000
vn 0.000000 0.000000 -1.000000
vn 0.000000 0.000000 -1.000000
vn 0.000000 0.000000 -1.000000
vn 0.000000 0.000000 -1.000000
vn 0.000000 0.000000 -1.000000
vn 0.000000 0.000000 -1.000000
vn 0.000000 0.000000 -1.000000
vn 0.000000 0.000000 -1.000000
vn 0.000000 0.000000 -1.000000
vn 0.000000 0.000000 -1.000000
vn 0.000000 0.000000 -1.000000
vn 0.000000 0.000000 -1.000000
vn 0.000000 0.000000 -1.000000
vn 0.866592 -0.499017 0.000000
vn 0.866592 -0.499017 0.000000
vn 0.866592 -0.499017 0.000000
vn 0.866592 -0.499017 0.000000
vn 0.499890 -0.866089 0.000000
vn 0.499890 -0.866089 0.000000
vn 0.499890 -0.866089 0.000000
vn 0.499890 -0.866089 0.000000
vn 0.000000 -1.000000 0.000000
vn 0.000000 -1.000000 0.000000
vn 0.000000 -1.000000 0.000000
vn 0.000000 -1.000000 0.000000
vn -0.499890 -0.866089 0.000000
vn -0.499890 -0.866089 0.000000
vn -0.499890 -0.866089 0.000000
vn -0.499890 -0.866089 0.000000
vn -0.866592 -0.499017 0.000000
vn -0.866592 -0.499017 0.000000
vn -0.866592 -0.499017 0.000000
vn -0.866592 -0.499017 0.000000
vn -1.000000 0.000000 0.000000
vn -1.000000 0.000000 0.000000
vn -1.000000 0.000000 0.000000
vn -1.000000 0.000000 0.000000
vn -0.866592 0.499017 0.000000
vn -0.866592 0.499017 0.000000
vn -0.866592 0.499017 0.000000
vn -0.866592 0.499017 0.000000
vn -0.499890 0.866089 0.000000
vn -0.499890 0.866089 0.000000
vn -0.499890 0.866089 0.000000
vn -0.499890 0.866089 0.000000
vn 0.000000 1.000000 0.000000
vn 0.000000 1.000000 0.000000
vn 0.000000 1.000000 0.000000
vn 0.000000 1.000000 0.000000
vn 0.499890 0.866089 0.000000
vn 0.499890 0.866089 0.000000
vn 0.499890 0.866089 0.000000
vn 0.499890 0.866089 0.000000
vn 0.866592 0.499017 0.000000
vn 0.866592 0.499017 0.000000
vn 0.866592 0.499017 0.000000
vn 0.866592 0.499017 0.000000
vn 1.000000 0.000000 0.000000
vn 1.000000 0.000000 0.000000
vn 1.000000 0.000000 0.000000
vn 1.000000 0.000000 0.000000
vn 0.000000 0.000000 1.000000
vn 0.000000 0.000000 1.000000
vn 0.000000 0.000000 1.000000
vn 0.000000 0.000000 1.000000
vn 0.000000 0.000000 1.000000
vn 0.000000 0.000000 1.000000
vn 0.000000 0.000000 1.000000
vn 0.000000 0.000000 1.000000
vn 0.000000 0.000000 1.000000
vn 0.000000 0.000000 1.000000
vn 0.000000 0.000000 1.000000
vn 0.000000 0.000000 1.000000
vn 0.000000 0.000000 1.000000
vn 0.000000 0.000000 1.000000
vn 0.000000 0.000000 1.000000
vn 0.000000 0.000000 1.000000
vn 0.000000 0.000000 1.000000
vn 0.000000 0.000000 1.000000
vn 0.000000 0.000000 1.000000
vn 0.000000 0.000000 1.000000
vn 0.000000 0.000000 1.000000
vn 0.000000 0.000000 1.000000
vn 0.000000 0.000000 1.000000
vn 0.000000 0.000000 1.000000
vn 0.000000 -1.000000 0.000000
vn 0.000000 -1.000000 0.000000
vn 0.000000 -1.000000 0.000000
vn 0.000000 -1.000000 0.000000
vn 0.000000 -1.000000 0.000000
vn 0.000000 -1.000000 0.000000
vn 0.000000 -1.000000 0.000000
vn 0.000000 -1.000000 0.000000
vn 0.000000 -1.000000 0.000000
vn 0.000000 -1.000000 0.000000
vn 0.000000 -1.000000 0.000000
vn 0.000000 -1.000000 0.000000
# 300 normals

usemtl default
s 1
f 1/1/1 2/2/2 14/3/3 13/4/4
f 2/2/2 3/5/5 15/6/6 14/3/3
f 3/5/5 4/7/7 16/8/8 15/6/6
f 4/7/7 5/9/9 17/10/10 16/8/8
f 5/11/9 6/12/11 18/13/12 17/14/10
f 6/12/11 7/15/13 19/16/14 18/13/12
f 7/15/13 8/17/15 20/18/16 19/16/14
f 8/17/15 9/19/17 21/20/18 20/18/16
f 9/19/17 10/21/19 22/22/20 21/20/18
f 10/21/19 11/23/21 23/24/22 22/22/20
f 11/23/21 12/25/23 24/26/24 23/24/22
f 12/25/23 1/1/1 13/4/4 24/26/24
s 2
f 2/27/25 1/28/26 25/29/27 26/30/28
f 3/35/33 2/27/25 26/30/28 27/36/34
f 4/39/37 3/35/33 27/36/34 28/40/38
f 5/43/41 4/39/37 28/40/38 29/44/42
f 6/47/45 5/43/41 29/44/42 30/48/46
f 7/51/49 6/47/45 30/48/46 31/52/50
f 8/55/53 7/51/49 31/52/50 32/56/54
f 9/59/57 8/55/53 32/56/54 33/60/58
f 10/63/61 9/59/57 33/60/58 34/64/62
f 11/67/65 10/63/61 34/64/62 35/68/66
f 12/71/69 11/67/65 35/68/66 36/72/70
f 1/28/26 12/71/69 36/72/70 25/29/27
s 3
f 13/31/29 14/32/30 38/33/31 37/34/32
f 14/32/30 15/37/35 39/38/36 38/33/31
f 15/37/35 16/41/39 40/42/40 39/38/36
f 16/41/39 17/45/43 41/46/44 40/42/40
f 17/45/43 18/49/47 42/50/48 41/46/44
f 18/49/47 19/53/51 43/54/52 42/50/48
f 19/53/51 20/57/55 44/58/56 43/54/52
f 20/57/55 21/61/59 45/62/60 44/58/56
f 21/61/59 22/65/63 46/66/64 45/62/60
f 22/65/63 23/69/67 47/70/68 46/66/64
f 23/69/67 24/73/71 48/74/72 47/70/68
f 24/73/71 13/31/29 37/34/32 48/74/72
s 4
f 37/75/73 38/76/74 50/77/75 49/78/76
s 5
f 38/79/77 39/80/78 51/81/79 50/82/80
s 6
f 39/80/81 40/83/82 52/84/83 51/81/84
s 7
f 40/83/85 41/85/86 53/86/87 52/84/88
s 8
f 41/85/89 42/87/90 54/88/91 53/86/92
s 9
f 42/87/93 43/89/94 55/90/95 54/88/96
s 10
f 43/89/97 44/91/98 56/92/99 55/90/100
s 11
f 44/91/101 45/93/102 57/94/103 56/92/104
s 12
f 45/93/105 46/95/106 58/96/107 57/94/108
s 13
f 46/95/109 47/97/110 59/98/111 58/96/112
s 14
f 47/99/113 48/100/114 60/101/115 59/102/116
s 15
f 48/100/117 37/75/118 49/78/119 60/101/120
s 16
f 26/103/121 25/104/122 61/105/123 62/106/124
s 17
f 27/107/125 26/103/126 62/106/127 63/108/128
s 18
f 28/109/129 27/107/130 63/108/131 64/110/132
s 19
f 29/111/133 28/109/134 64/110/135 65/112/136
s 20
f 30/113/137 29/114/138 65/115/139 66/116/140
s 21
f 31/117/141 30/113/142 66/116/143 67/118/144
s 22
f 32/119/145 31/117/146 67/118/147 68/120/148
s 23
f 33/121/149 32/119/150 68/120/151 69/122/152
s 24
f 34/123/153 33/121/154 69/122/155 70/124/156
s 25
f 35/125/157 34/123/158 70/124/159 71/126/160
s 26
f 36/127/161 35/125/162 71/126/163 72/128/164
s 27
f 25/104/165 36/127/166 72/128/167 61/105/168
s 28
f 73/129/169 74/130/170 75/131/171 76/132/172
f 74/130/170 77/133/173 78/134/174 75/131/171
f 77/133/173 79/135/175 80/136/176 78/134/174
f 79/135/175 81/137/177 82/138/178 80/136/176
f 81/137/177 83/139/179 84/140/180 82/138/178
f 83/139/179 85/141/181 86/142/182 84/140/180
f 85/141/181 87/143/183 88/144/184 86/142/182
f 87/145/183 89/146/185 90/147/186 88/148/184
f 89/146/185 91/149/187 92/150/188 90/147/186
f 91/149/187 93/151/189 94/152/190 92/150/188
f 93/151/189 95/153/191 96/154/192 94/152/190
f 95/153/191 73/129/169 76/132/172 96/154/192
s 29
f 74/155/193 73/156/194 97/157/195 98/158/196
f 77/159/197 74/155/193 98/158/196 99/160/198
f 79/161/199 77/159/197 99/160/198 100/162/200
f 81/163/201 79/161/199 100/162/200 101/164/202
f 83/165/203 81/163/201 101/164/202 102/166/204
f 85/167/205 83/165/203 102/166/204 103/168/206
f 87/169/207 85/167/205 103/168/206 104/170/208
f 89/171/209 87/169/207 104/170/208 105/172/210
f 91/173/211 89/171/209 105/172/210 106/174/212
f 93/175/213 91/173/211 106/174/212 107/176/214
f 95/177/215 93/175/213 107/176/214 108/178/216
f 73/156/194 95/177/215 108/178/216 97/157/195
s 30
f 98/179/217 97/180/218 109/181/219 110/182/220
s 31
f 99/183/221 98/179/222 110/182/223 111/184/224
s 32
f 100/185/225 99/183/226 111/184/227 112/186/228
s 33
f 101/187/229 100/185/230 112/186/231 113/188/232
s 34
f 102/189/233 101/190/234 113/191/235 114/192/236
s 35
f 103/193/237 102/189/238 114/192/239 115/194/240
s 36
f 104/195/241 103/193/242 115/194/243 116/196/244
s 37
f 105/197/245 104/195/246 116/196/247 117/198/248
s 38
f 106/199/249 105/197/250 117/198/251 118/200/252
s 39
f 107/201/253 106/199/254 118/200/255 119/202/256
s 40
f 108/203/257 107/201/258 119/202/259 120/204/260
s 41
f 97/180/261 108/203/262 120/204/263 109/181/264
s 42
f 110/205/265 109/206/266 121/207/267 122/208/268
f 111/209/269 110/205/265 122/208/268 123/210/270
f 112/211/271 111/209/269 123/210/270 124/212/272
f 113/213/273 112/211/271 124/212/272 125/214/274
f 114/215/275 113/213/273 125/214/274 126/216/276
f 115/217/277 114/215/275 126/216/276 127/218/278
f 116/219/279 115/217/277 127/218/278 128/220/280
f 117/221/281 116/219/279 128/220/280 129/222/282
f 118/223/283 117/221/281 129/222/282 130/224/284
f 119/225/285 118/223/283 130/224/284 131/226/286
f 120/227/287 119/225/285 131/226/286 132/228/288
f 109/206/266 120/227/287 132/228/288 121/207/267
s 43
f 69/229/289 66/230/290 65/231/291 70/232/292
f 70/232/292 65/231/291 64/233/293 71/234/294
f 71/234/294 64/233/293 63/235/295 72/236/296
f 63/235/295 62/237/297 61/238/298 72/236/296
f 69/229/289 68/239/299 67/240/300 66/230/290

# 113 faces
