# Wavefront Obj file
# 
# verts: 108 uv-s: 200
mtllib tanque generico 2.mtl

g Cylinder5059

v 0.467600 2.189800 0.000000
v 0.405000 2.189800 0.233800
v 0.233800 2.189800 0.405000
v 0.000000 2.189800 0.467600
v -0.233800 2.189800 0.405000
v -0.405000 2.189800 0.233800
v -0.467600 2.189800 0.000000
v -0.405000 2.189800 -0.233800
v -0.233800 2.189800 -0.405000
v 0.000000 2.189800 -0.467600
v 0.233800 2.189800 -0.405000
v 0.405000 2.189800 -0.233800
v 0.405000 0.511500 0.233800
v 0.467600 0.511500 0.000000
v 0.233800 0.511500 0.405000
v 0.000000 0.511500 0.467600
v -0.233800 0.511500 0.405000
v -0.405000 0.511500 0.233800
v -0.467600 0.511500 0.000000
v -0.405000 0.511500 -0.233800
v -0.233800 0.511500 -0.405000
v 0.000000 0.511500 -0.467600
v 0.233800 0.511500 -0.405000
v 0.405000 0.511500 -0.233800
v 0.000000 2.215300 -0.524200
v -0.262100 2.215300 -0.454000
v -0.454000 2.215300 -0.262100
v -0.524300 2.215300 0.000000
v -0.454000 2.215300 0.262100
v -0.262100 2.215300 0.454000
v 0.000000 2.215300 0.524300
v 0.262100 2.215300 0.454000
v 0.454000 2.215300 0.262100
v 0.524300 2.215300 0.000000
v 0.454000 2.215300 -0.262100
v 0.262100 2.215300 -0.454000
v 0.000000 2.164200 -0.524200
v -0.262100 2.164200 -0.454000
v -0.454000 2.164200 -0.262100
v -0.524300 2.164200 0.000000
v -0.454000 2.164200 0.262100
v -0.262100 2.164200 0.454000
v 0.000000 2.164200 0.524300
v 0.262100 2.164200 0.454000
v 0.454000 2.164200 0.262100
v 0.524300 2.164200 0.000000
v 0.454000 2.164200 -0.262100
v 0.262100 2.164200 -0.454000
v 0.000000 0.544700 -0.524200
v -0.262100 0.544700 -0.454000
v -0.454000 0.544700 -0.262100
v -0.524300 0.544700 0.000000
v -0.454000 0.544700 0.262100
v -0.262100 0.544700 0.454000
v 0.000000 0.544700 0.524300
v 0.262100 0.544700 0.454000
v 0.454000 0.544700 0.262100
v 0.524300 0.544700 0.000000
v 0.454000 0.544700 -0.262100
v 0.262100 0.544700 -0.454000
v 0.000000 0.493600 -0.524200
v -0.262100 0.493600 -0.454000
v -0.454000 0.493600 -0.262100
v -0.524300 0.493600 0.000000
v -0.454000 0.493600 0.262100
v -0.262100 0.493600 0.454000
v 0.000000 0.493600 0.524300
v 0.262100 0.493600 0.454000
v 0.454000 0.493600 0.262100
v 0.524300 0.493600 0.000000
v 0.454000 0.493600 -0.262100
v 0.262100 0.493600 -0.454000
v 0.467600 2.189800 0.000000
v 0.405000 2.189800 0.233800
v 0.233800 2.189800 0.405000
v 0.000000 2.189800 0.467600
v -0.233800 2.189800 0.405000
v -0.405000 2.189800 0.233800
v -0.467600 2.189800 0.000000
v -0.405000 2.189800 -0.233800
v -0.233800 2.189800 -0.405000
v 0.000000 2.189800 -0.467600
v 0.233800 2.189800 -0.405000
v 0.405000 2.189800 -0.233800
v 0.419000 2.287000 0.000000
v 0.362900 2.287000 0.209500
v 0.209500 2.287000 0.362900
v 0.000000 2.287000 0.419000
v -0.209500 2.287000 0.362900
v -0.362900 2.287000 0.209500
v -0.419000 2.287000 0.000000
v -0.362900 2.287000 -0.209500
v -0.209500 2.287000 -0.362800
v 0.000000 2.287000 -0.419000
v 0.209500 2.287000 -0.362800
v 0.362900 2.287000 -0.209500
v 0.255700 2.331200 0.000000
v 0.221400 2.331200 0.127900
v 0.127900 2.331200 0.221500
v 0.000000 2.331200 0.255700
v -0.127900 2.331200 0.221500
v -0.221400 2.331200 0.127900
v -0.255700 2.331200 0.000000
v -0.221400 2.331200 -0.127800
v -0.127900 2.331200 -0.221400
v 0.000000 2.331200 -0.255700
v 0.127900 2.331200 -0.221400
v 0.221400 2.331200 -0.127800
# 108 positions

vt 0.303693 0.907531
vt 0.303693 0.842687
vt 0.769167 0.842687
vt 0.769167 0.907531
vt 0.303693 0.955013
vt 0.769167 0.955013
vt 0.357534 0.005000
vt 0.422378 0.005000
vt 0.422378 0.470474
vt 0.357534 0.470474
vt 0.292690 0.005000
vt 0.292690 0.470474
vt 0.245208 0.005000
vt 0.245208 0.470474
vt 0.470474 0.543994
vt 0.470474 0.479150
vt 0.005000 0.479150
vt 0.005000 0.543994
vt 0.470474 0.608838
vt 0.005000 0.608838
vt 0.470474 0.656320
vt 0.005000 0.656320
vt 0.543434 0.470474
vt 0.608278 0.470474
vt 0.608278 0.005000
vt 0.543434 0.005000
vt 0.478590 0.470474
vt 0.478590 0.005000
vt 0.431108 0.470474
vt 0.431108 0.005000
vt 0.303693 0.777843
vt 0.769167 0.777843
vt 0.305368 0.679222
vt 0.378061 0.679222
vt 0.378061 0.665050
vt 0.305368 0.665050
vt 0.431284 0.679222
vt 0.431284 0.665050
vt 0.654157 0.401038
vt 0.654157 0.328345
vt 0.639984 0.328345
vt 0.639984 0.401038
vt 0.654157 0.255652
vt 0.639984 0.255652
vt 0.704736 0.754866
vt 0.757959 0.754866
vt 0.757959 0.769039
vt 0.704736 0.769039
vt 0.830652 0.754866
vt 0.830652 0.769039
vt 0.903345 0.754866
vt 0.903345 0.769039
vt 0.956568 0.754866
vt 0.956568 0.769039
vt 0.617008 0.431284
vt 0.617008 0.358591
vt 0.631181 0.358591
vt 0.631181 0.431284
vt 0.617008 0.285898
vt 0.631181 0.285898
vt 0.617008 0.232675
vt 0.631181 0.232675
vt 0.232675 0.679222
vt 0.232675 0.665050
vt 0.624535 0.479150
vt 0.697228 0.498647
vt 0.750452 0.551870
vt 0.769949 0.624563
vt 0.750452 0.697256
vt 0.697228 0.750479
vt 0.624535 0.769977
vt 0.551843 0.750479
vt 0.498619 0.697256
vt 0.479150 0.624563
vt 0.498619 0.551870
vt 0.551843 0.498647
vt 0.689729 0.024498
vt 0.636505 0.077721
vt 0.617008 0.150414
vt 0.636505 0.223107
vt 0.689729 0.276330
vt 0.762422 0.295827
vt 0.835115 0.276330
vt 0.888338 0.223107
vt 0.907808 0.150414
vt 0.888338 0.077721
vt 0.835115 0.024498
vt 0.762422 0.005000
vt 0.077693 0.374262
vt 0.150386 0.374262
vt 0.150386 0.360090
vt 0.077693 0.360090
vt 0.203609 0.374262
vt 0.203609 0.360090
vt 0.019173 0.338375
vt 0.019173 0.265682
vt 0.005000 0.265682
vt 0.005000 0.338375
vt 0.019173 0.192989
vt 0.005000 0.192989
vt 0.727713 0.731890
vt 0.780936 0.731890
vt 0.780936 0.746063
vt 0.727713 0.746063
vt 0.853629 0.731890
vt 0.853629 0.746063
vt 0.926322 0.731890
vt 0.926322 0.746063
vt 0.979545 0.731890
vt 0.979545 0.746063
vt 0.222231 0.389509
vt 0.222231 0.316816
vt 0.236404 0.316816
vt 0.236404 0.389509
vt 0.222231 0.244123
vt 0.236404 0.244123
vt 0.222231 0.190900
vt 0.236404 0.190900
vt 0.005000 0.374262
vt 0.005000 0.360090
vt 0.150386 0.665050
vt 0.223079 0.684547
vt 0.276302 0.737770
vt 0.295800 0.810463
vt 0.276302 0.883156
vt 0.223079 0.936379
vt 0.150386 0.955877
vt 0.077693 0.936379
vt 0.024470 0.883156
vt 0.005000 0.810463
vt 0.024470 0.737770
vt 0.077693 0.684547
vt 0.769755 0.557623
vt 0.841161 0.581425
vt 0.914899 0.566355
vt 0.971198 0.516406
vt 0.995000 0.445000
vt 0.979930 0.371262
vt 0.929981 0.314963
vt 0.858575 0.291161
vt 0.784850 0.306256
vt 0.728538 0.356179
vt 0.704736 0.427586
vt 0.719806 0.501324
vt 0.054935 0.287076
vt 0.054935 0.345180
vt 0.027976 0.351920
vt 0.027976 0.287076
vt 0.217976 0.460155
vt 0.175430 0.460155
vt 0.182170 0.433197
vt 0.229652 0.433197
vt 0.117326 0.460155
vt 0.117326 0.433197
vt 0.059222 0.460155
vt 0.052482 0.433197
vt 0.016676 0.460155
vt 0.005000 0.433197
vt 0.186723 0.228971
vt 0.186723 0.287076
vt 0.213681 0.287076
vt 0.213681 0.222231
vt 0.186723 0.345180
vt 0.213681 0.351920
vt 0.217976 0.397688
vt 0.175430 0.397688
vt 0.182170 0.424646
vt 0.229652 0.424646
vt 0.117326 0.397688
vt 0.117326 0.424646
vt 0.059222 0.397688
vt 0.052482 0.424646
vt 0.016676 0.397688
vt 0.005000 0.424646
vt 0.054935 0.228971
vt 0.027976 0.222231
vt 0.121209 0.192127
vt 0.156682 0.182614
vt 0.179314 0.221859
vt 0.121209 0.237418
vt 0.182641 0.156682
vt 0.221858 0.179313
vt 0.192126 0.121209
vt 0.237418 0.121209
vt 0.182641 0.085736
vt 0.221858 0.063104
vt 0.156682 0.059804
vt 0.179314 0.020559
vt 0.121209 0.050291
vt 0.121209 0.005000
vt 0.085764 0.059804
vt 0.063105 0.020559
vt 0.059804 0.085736
vt 0.020587 0.063104
vt 0.050291 0.121209
vt 0.005000 0.121209
vt 0.059804 0.156682
vt 0.020587 0.179313
vt 0.085764 0.182614
vt 0.063105 0.221859
# 200 texture coordinates

vn 0.866050 0.000000 0.499957
vn 1.000000 0.000000 0.000000
vn 1.000000 0.000000 0.000000
vn 0.866050 0.000000 0.499957
vn 0.499957 0.000000 0.866050
vn 0.499957 0.000000 0.866050
vn 0.000000 0.000000 1.000000
vn 0.000000 0.000000 1.000000
vn -0.499957 0.000000 0.866050
vn -0.499957 0.000000 0.866050
vn -0.866050 0.000000 0.499957
vn -0.866050 0.000000 0.499957
vn -1.000000 0.000000 0.000000
vn -1.000000 0.000000 0.000000
vn -0.866050 0.000000 -0.499957
vn -0.866050 0.000000 -0.499957
vn -0.499957 0.000000 -0.866050
vn -0.499957 0.000000 -0.866050
vn 0.000000 0.000000 -1.000000
vn 0.000000 0.000000 -1.000000
vn 0.499957 0.000000 -0.866050
vn 0.499957 0.000000 -0.866050
vn 0.866050 0.000000 -0.499957
vn 0.866050 0.000000 -0.499957
vn 0.000000 0.000000 -1.000000
vn -0.499976 0.000000 -0.866039
vn -0.499976 0.000000 -0.866039
vn 0.000000 0.000000 -1.000000
vn -0.865957 0.000000 -0.500119
vn -0.865957 0.000000 -0.500119
vn -1.000000 0.000000 0.000000
vn -1.000000 0.000000 0.000000
vn -0.865957 0.000000 0.500119
vn -0.865957 0.000000 0.500119
vn -0.500119 0.000000 0.865957
vn -0.500119 0.000000 0.865957
vn 0.000000 0.000000 1.000000
vn 0.000000 0.000000 1.000000
vn 0.500119 0.000000 0.865957
vn 0.500119 0.000000 0.865957
vn 0.865957 0.000000 0.500119
vn 0.865957 0.000000 0.500119
vn 1.000000 0.000000 0.000000
vn 1.000000 0.000000 0.000000
vn 0.865957 0.000000 -0.500119
vn 0.865957 0.000000 -0.500119
vn 0.499976 0.000000 -0.866039
vn 0.499976 0.000000 -0.866039
vn 0.000000 1.000000 0.000000
vn 0.000000 1.000000 0.000000
vn 0.000000 1.000000 0.000000
vn 0.000000 1.000000 0.000000
vn 0.000000 1.000000 0.000000
vn 0.000000 1.000000 0.000000
vn 0.000000 1.000000 0.000000
vn 0.000000 1.000000 0.000000
vn 0.000000 1.000000 0.000000
vn 0.000000 1.000000 0.000000
vn 0.000000 1.000000 0.000000
vn 0.000000 1.000000 0.000000
vn 0.000000 -1.000000 0.000000
vn 0.000000 -1.000000 0.000000
vn 0.000000 -1.000000 0.000000
vn 0.000000 -1.000000 0.000000
vn 0.000000 -1.000000 0.000000
vn 0.000000 -1.000000 0.000000
vn 0.000000 -1.000000 0.000000
vn 0.000000 -1.000000 0.000000
vn 0.000000 -1.000000 0.000000
vn 0.000000 -1.000000 0.000000
vn 0.000000 -1.000000 0.000000
vn 0.000000 -1.000000 0.000000
vn 0.000000 0.000000 -1.000000
vn -0.499976 0.000000 -0.866039
vn -0.499976 0.000000 -0.866039
vn 0.000000 0.000000 -1.000000
vn -0.865957 0.000000 -0.500119
vn -0.865957 0.000000 -0.500119
vn -1.000000 0.000000 0.000000
vn -1.000000 0.000000 0.000000
vn -0.865957 0.000000 0.500119
vn -0.865957 0.000000 0.500119
vn -0.500119 0.000000 0.865957
vn -0.500119 0.000000 0.865957
vn 0.000000 0.000000 1.000000
vn 0.000000 0.000000 1.000000
vn 0.500119 0.000000 0.865957
vn 0.500119 0.000000 0.865957
vn 0.865957 0.000000 0.500119
vn 0.865957 0.000000 0.500119
vn 1.000000 0.000000 0.000000
vn 1.000000 0.000000 0.000000
vn 0.865957 0.000000 -0.500119
vn 0.865957 0.000000 -0.500119
vn 0.499976 0.000000 -0.866039
vn 0.499976 0.000000 -0.866039
vn 0.000000 1.000000 0.000000
vn 0.000000 1.000000 0.000000
vn 0.000000 1.000000 0.000000
vn 0.000000 1.000000 0.000000
vn 0.000000 1.000000 0.000000
vn 0.000000 1.000000 0.000000
vn 0.000000 1.000000 0.000000
vn 0.000000 1.000000 0.000000
vn 0.000000 1.000000 0.000000
vn 0.000000 1.000000 0.000000
vn 0.000000 1.000000 0.000000
vn 0.000000 1.000000 0.000000
vn 0.000000 -1.000000 0.000000
vn 0.000000 -1.000000 0.000000
vn 0.000000 -1.000000 0.000000
vn 0.000000 -1.000000 0.000000
vn 0.000000 -1.000000 0.000000
vn 0.000000 -1.000000 0.000000
vn 0.000000 -1.000000 0.000000
vn 0.000000 -1.000000 0.000000
vn 0.000000 -1.000000 0.000000
vn 0.000000 -1.000000 0.000000
vn 0.000000 -1.000000 0.000000
vn 0.000000 -1.000000 0.000000
vn 0.894415 0.447238 0.000000
vn 0.774592 0.447273 0.447163
vn 0.518527 0.800960 0.299320
vn 0.598700 0.800973 -0.000004
vn 0.447163 0.447273 0.774592
vn 0.299382 0.800890 0.518600
vn 0.000000 0.447238 0.894415
vn 0.000000 0.800937 0.598748
vn -0.447163 0.447273 0.774592
vn -0.299382 0.800890 0.518600
vn -0.774592 0.447273 0.447163
vn -0.518527 0.800960 0.299320
vn -0.894415 0.447238 0.000000
vn -0.598700 0.800973 -0.000004
vn -0.774504 0.447415 -0.447172
vn -0.518428 0.801030 -0.299306
vn -0.447040 0.447574 -0.774489
vn -0.299347 0.800977 -0.518486
vn 0.000000 0.447626 -0.894221
vn 0.000000 0.800997 -0.598668
vn 0.447040 0.447574 -0.774489
vn 0.299347 0.800977 -0.518486
vn 0.774504 0.447415 -0.447172
vn 0.518428 0.801030 -0.299306
vn 0.176426 0.979034 0.101820
vn 0.203567 0.979061 0.000013
vn 0.101775 0.979055 0.176331
vn 0.000000 0.979026 0.203733
vn -0.101775 0.979055 0.176331
vn -0.176426 0.979034 0.101820
vn -0.203567 0.979061 0.000013
vn -0.176413 0.979032 -0.101856
vn -0.101818 0.979048 -0.176345
vn 0.000000 0.979051 -0.203615
vn 0.101818 0.979048 -0.176345
vn 0.176413 0.979032 -0.101856
# 156 normals

usemtl default
s 1
f 13/1/4 14/2/3 1/3/2 2/4/1
f 15/5/6 13/1/4 2/4/1 3/6/5
f 16/7/8 15/8/6 3/9/5 4/10/7
f 17/11/10 16/7/8 4/10/7 5/12/9
f 18/13/12 17/11/10 5/12/9 6/14/11
f 19/15/14 18/16/12 6/17/11 7/18/13
f 20/19/16 19/15/14 7/18/13 8/20/15
f 21/21/18 20/19/16 8/20/15 9/22/17
f 22/23/20 21/24/18 9/25/17 10/26/19
f 23/27/22 22/23/20 10/26/19 11/28/21
f 24/29/24 23/27/22 11/28/21 12/30/23
f 14/2/3 24/31/24 12/32/23 1/3/2
s 2
f 37/33/28 38/34/27 26/35/26 25/36/25
f 38/34/27 39/37/30 27/38/29 26/35/26
f 39/39/30 40/40/32 28/41/31 27/42/29
f 40/40/32 41/43/34 29/44/33 28/41/31
f 41/45/34 42/46/36 30/47/35 29/48/33
f 42/46/36 43/49/38 31/50/37 30/47/35
f 43/49/38 44/51/40 32/52/39 31/50/37
f 44/51/40 45/53/42 33/54/41 32/52/39
f 45/55/42 46/56/44 34/57/43 33/58/41
f 46/56/44 47/59/46 35/60/45 34/57/43
f 47/59/46 48/61/48 36/62/47 35/60/45
f 48/63/48 37/33/28 25/36/25 36/64/47
s 3
f 28/65/60 29/66/59 30/67/58 31/68/57 32/69/56 33/70/55 34/71/54 35/72/53 36/73/52 25/74/51 26/75/50 27/76/49
s 4
f 45/77/72 44/78/71 43/79/70 42/80/69 41/81/68 40/82/67 39/83/66 38/84/65 37/85/64 48/86/63 47/87/62 46/88/61
s 5
f 61/89/76 62/90/75 50/91/74 49/92/73
f 62/90/75 63/93/78 51/94/77 50/91/74
f 63/95/78 64/96/80 52/97/79 51/98/77
f 64/96/80 65/99/82 53/100/81 52/97/79
f 65/101/82 66/102/84 54/103/83 53/104/81
f 66/102/84 67/105/86 55/106/85 54/103/83
f 67/105/86 68/107/88 56/108/87 55/106/85
f 68/107/88 69/109/90 57/110/89 56/108/87
f 69/111/90 70/112/92 58/113/91 57/114/89
f 70/112/92 71/115/94 59/116/93 58/113/91
f 71/115/94 72/117/96 60/118/95 59/116/93
f 72/119/96 61/89/76 49/92/73 60/120/95
s 6
f 52/121/108 53/122/107 54/123/106 55/124/105 56/125/104 57/126/103 58/127/102 59/128/101 60/129/100 49/130/99 50/131/98 51/132/97
s 7
f 69/133/120 68/134/119 67/135/118 66/136/117 65/137/116 64/138/115 63/139/114 62/140/113 61/141/112 72/142/111 71/143/110 70/144/109
s 8
f 85/145/124 86/146/123 74/147/122 73/148/121
f 86/149/123 87/150/126 75/151/125 74/152/122
f 87/150/126 88/153/128 76/154/127 75/151/125
f 88/153/128 89/155/130 77/156/129 76/154/127
f 89/155/130 90/157/132 78/158/131 77/156/129
f 90/159/132 91/160/134 79/161/133 78/162/131
f 91/160/134 92/163/136 80/164/135 79/161/133
f 92/165/136 93/166/138 81/167/137 80/168/135
f 93/166/138 94/169/140 82/170/139 81/167/137
f 94/169/140 95/171/142 83/172/141 82/170/139
f 95/171/142 96/173/144 84/174/143 83/172/141
f 96/175/144 85/145/124 73/148/121 84/176/143
f 97/177/146 98/178/145 86/179/123 85/180/124
f 98/178/145 99/181/147 87/182/126 86/179/123
f 99/181/147 100/183/148 88/184/128 87/182/126
f 100/183/148 101/185/149 89/186/130 88/184/128
f 101/185/149 102/187/150 90/188/132 89/186/130
f 102/187/150 103/189/151 91/190/134 90/188/132
f 103/189/151 104/191/152 92/192/136 91/190/134
f 104/191/152 105/193/153 93/194/138 92/192/136
f 105/193/153 106/195/154 94/196/140 93/194/138
f 106/195/154 107/197/155 95/198/142 94/196/140
f 107/197/155 108/199/156 96/200/144 95/198/142
f 108/199/156 97/177/146 85/180/124 96/200/144
f 106/195/154 105/193/153 104/191/152 103/189/151 102/187/150 101/185/149 100/183/148 99/181/147 98/178/145 97/177/146 108/199/156 107/197/155

# 65 faces
