# Wavefront Obj file
# 
# verts: 80 uv-s: 176
mtllib folder.mtl

g folder

v -0.320600 -0.175000 0.034300
v -0.320600 -0.175000 0.040000
v -0.326200 -0.175000 0.040000
v -0.326200 -0.175000 0.034300
v -0.320600 0.175000 0.034300
v -0.326200 0.175000 0.034300
v -0.326200 0.175000 0.040000
v -0.320600 0.175000 0.040000
v -0.046200 -0.175000 0.024400
v -0.046200 0.175000 0.024400
v -0.046200 0.175000 0.030100
v -0.046200 -0.175000 0.030100
v -0.320600 -0.175000 -0.040000
v -0.320600 0.175000 -0.040000
v -0.046200 0.175000 -0.040000
v -0.046200 -0.175000 -0.040000
v -0.326200 -0.175000 -0.033200
v -0.326200 0.175000 -0.033200
v -0.326200 0.175000 -0.040000
v -0.326200 -0.175000 -0.040000
v -0.320600 -0.175000 -0.033200
v -0.320600 0.175000 -0.033200
v -0.046200 0.175000 -0.033200
v -0.046200 -0.175000 -0.033200
v -0.054400 0.166600 0.024400
v -0.320600 0.163200 0.034300
v -0.054400 -0.166600 0.024400
v -0.320600 -0.163200 0.034300
v -0.320600 -0.163200 -0.033200
v -0.054500 -0.166700 -0.033200
v -0.054500 0.166700 -0.033200
v -0.320600 0.163200 -0.033200
v -0.054500 0.166700 -0.033200
v -0.320600 0.163200 -0.033200
v -0.320600 0.163200 0.034300
v -0.054400 0.166600 0.024400
v -0.054500 -0.166700 -0.033200
v -0.054400 -0.166600 0.024400
v -0.320600 -0.163200 0.034300
v -0.320600 -0.163200 -0.033200
v 0.051800 -0.175000 0.034300
v 0.051800 -0.175000 0.040000
v 0.046200 -0.175000 0.040000
v 0.046200 -0.175000 0.034300
v 0.051800 0.175000 0.034300
v 0.046200 0.175000 0.034300
v 0.046200 0.175000 0.040000
v 0.051800 0.175000 0.040000
v 0.326200 -0.175000 0.024400
v 0.326200 0.175000 0.024400
v 0.326200 0.175000 0.030100
v 0.326200 -0.175000 0.030100
v 0.051800 -0.175000 -0.040000
v 0.051800 0.175000 -0.040000
v 0.326200 0.175000 -0.040000
v 0.326200 -0.175000 -0.040000
v 0.046200 -0.175000 -0.033200
v 0.046200 0.175000 -0.033200
v 0.046200 0.175000 -0.040000
v 0.046200 -0.175000 -0.040000
v 0.051800 -0.175000 -0.033200
v 0.051800 0.175000 -0.033200
v 0.326200 0.175000 -0.033200
v 0.326200 -0.175000 -0.033200
v 0.317900 0.166600 0.024400
v 0.051800 0.163200 0.034300
v 0.317900 -0.166600 0.024400
v 0.051800 -0.163200 0.034300
v 0.051800 -0.163200 -0.033200
v 0.317800 -0.166700 -0.033200
v 0.317800 0.166700 -0.033200
v 0.051800 0.163200 -0.033200
v 0.317800 0.166700 -0.033200
v 0.051800 0.163200 -0.033200
v 0.051800 0.163200 0.034300
v 0.317900 0.166600 0.024400
v 0.317800 -0.166700 -0.033200
v 0.317900 -0.166600 0.024400
v 0.051800 -0.163200 0.034300
v 0.051800 -0.163200 -0.033200
# 80 positions

vt 0.351864 0.278888
vt 0.346562 0.278888
vt 0.346562 0.284097
vt 0.351864 0.284097
vt 0.497794 0.027007
vt 0.497794 0.021798
vt 0.503096 0.021798
vt 0.503096 0.027007
vt 0.558948 0.337230
vt 0.558948 0.662770
vt 0.553739 0.662770
vt 0.553739 0.337230
vt 0.598534 0.923298
vt 0.924075 0.923298
vt 0.924075 0.928600
vt 0.598534 0.928600
vt 0.864957 0.330540
vt 0.864957 0.005000
vt 0.609733 0.005000
vt 0.609733 0.330540
vt 0.924074 0.909259
vt 0.598534 0.909259
vt 0.598534 0.915583
vt 0.924074 0.915583
vt 0.414647 0.284097
vt 0.414647 0.278888
vt 0.924074 0.841174
vt 0.598534 0.841174
vt 0.598534 0.846476
vt 0.924074 0.846476
vt 0.420971 0.278888
vt 0.420971 0.284097
vt 0.428686 0.282230
vt 0.428686 0.027007
vt 0.435011 0.027007
vt 0.435011 0.282230
vt 0.598534 0.949429
vt 0.924074 0.949429
vt 0.924074 0.955754
vt 0.598534 0.955754
vt 0.361072 0.023665
vt 0.355770 0.023665
vt 0.493888 0.282230
vt 0.488586 0.282230
vt 0.814171 0.337230
vt 0.814171 0.662770
vt 0.870165 0.330540
vt 0.870165 0.005000
vt 0.435011 0.021798
vt 0.420971 0.023665
vt 0.414647 0.023665
vt 0.428686 0.021798
vt 0.528994 0.669460
vt 0.273770 0.669460
vt 0.281397 0.677273
vt 0.528994 0.680435
vt 0.273770 0.995000
vt 0.281397 0.987187
vt 0.528994 0.995000
vt 0.528994 0.984025
vt 0.096457 0.121910
vt 0.096457 0.059127
vt 0.107432 0.059127
vt 0.107432 0.121910
vt 0.346562 0.005000
vt 0.601786 0.005000
vt 0.594066 0.012720
vt 0.346562 0.015975
vt 0.601786 0.330540
vt 0.594066 0.322820
vt 0.346562 0.330540
vt 0.346562 0.319565
vt 0.068236 0.042329
vt 0.068236 0.105112
vt 0.057261 0.105112
vt 0.057261 0.042329
vt 0.005000 0.894650
vt 0.252043 0.910098
vt 0.255961 0.847438
vt 0.008252 0.841174
vt 0.590515 0.979560
vt 0.590515 0.669460
vt 0.536941 0.669553
vt 0.536941 0.979467
vt 0.255961 0.818125
vt 0.252709 0.764649
vt 0.005000 0.770913
vt 0.008919 0.833574
vt 0.081227 0.295686
vt 0.075925 0.295686
vt 0.075925 0.300895
vt 0.081227 0.300895
vt 0.227157 0.045671
vt 0.227157 0.040463
vt 0.232459 0.040463
vt 0.232459 0.045671
vt 0.290178 0.337230
vt 0.290178 0.662770
vt 0.284969 0.662770
vt 0.284969 0.337230
vt 0.598534 0.936364
vt 0.924075 0.936364
vt 0.924075 0.941665
vt 0.598534 0.941665
vt 0.260223 0.681435
vt 0.260223 0.355895
vt 0.005000 0.355895
vt 0.005000 0.681435
vt 0.924075 0.814069
vt 0.598534 0.814069
vt 0.598534 0.820394
vt 0.924075 0.820394
vt 0.144010 0.300895
vt 0.144010 0.295686
vt 0.924075 0.745985
vt 0.598534 0.745985
vt 0.598534 0.751286
vt 0.924075 0.751286
vt 0.150335 0.295686
vt 0.150335 0.300895
vt 0.158050 0.300895
vt 0.158050 0.045671
vt 0.164374 0.045671
vt 0.164374 0.300895
vt 0.598534 0.828109
vt 0.924075 0.828109
vt 0.924075 0.834434
vt 0.598534 0.834434
vt 0.090435 0.040463
vt 0.085134 0.040463
vt 0.223251 0.300895
vt 0.217949 0.300895
vt 0.545401 0.337230
vt 0.545401 0.662770
vt 0.265432 0.681435
vt 0.265432 0.355895
vt 0.164374 0.040463
vt 0.150335 0.040463
vt 0.144010 0.040463
vt 0.158050 0.040463
vt 0.260224 0.005000
vt 0.005000 0.005000
vt 0.012720 0.012813
vt 0.260224 0.015975
vt 0.005000 0.330540
vt 0.012720 0.322727
vt 0.260224 0.330540
vt 0.260224 0.319565
vt 0.019932 0.105112
vt 0.019932 0.042329
vt 0.030907 0.042329
vt 0.030907 0.105112
vt 0.021798 0.023665
vt 0.277022 0.023665
vt 0.269209 0.031385
vt 0.021798 0.034640
vt 0.277022 0.349205
vt 0.269209 0.341485
vt 0.021798 0.349205
vt 0.021798 0.338229
vt 0.049572 0.042329
vt 0.049572 0.105112
vt 0.038596 0.105112
vt 0.038596 0.042329
vt 0.598534 0.722936
vt 0.845485 0.738373
vt 0.849401 0.675712
vt 0.601785 0.669460
vt 0.338544 0.315100
vt 0.338544 0.005000
vt 0.284969 0.005093
vt 0.284969 0.315007
vt 0.255867 0.741600
vt 0.252617 0.688124
vt 0.005000 0.694377
vt 0.008918 0.757037
# 176 texture coordinates

vn 0.000000 -1.000000 0.000000
vn 0.000000 1.000000 0.000000
vn 0.000000 1.000000 0.000000
vn 0.018031 0.000000 0.999837
vn 0.000000 0.000000 1.000000
vn 1.000000 0.000000 0.000000
vn 0.000000 0.000000 -1.000000
vn -1.000000 0.000000 0.000000
vn 0.036055 0.000000 0.999350
vn 0.036055 0.000000 0.999350
vn -0.036691 0.014894 -0.999216
vn -0.036691 -0.014894 -0.999216
vn 0.000000 0.000000 1.000000
vn -0.012946 0.999916 0.000810
vn -0.012946 0.999916 0.000810
vn -0.012946 0.999916 0.000810
vn -0.012946 0.999916 0.000810
vn 0.999999 0.000000 -0.001736
vn -0.012946 -0.999916 0.000810
vn -0.012946 -0.999916 0.000810
vn -0.012946 -0.999916 0.000810
vn -0.012946 -0.999916 0.000810
vn 0.000000 -1.000000 0.000000
vn 0.000000 1.000000 0.000000
vn 0.000000 1.000000 0.000000
vn 0.018031 0.000000 0.999837
vn 0.000000 0.000000 1.000000
vn 1.000000 0.000000 0.000000
vn 0.000000 0.000000 -1.000000
vn -1.000000 0.000000 0.000000
vn 0.036055 0.000000 0.999350
vn 0.036055 0.000000 0.999350
vn -0.036699 0.015079 -0.999213
vn -0.036699 -0.015079 -0.999213
vn 0.000000 0.000000 1.000000
vn -0.012951 0.999916 0.000810
vn -0.012951 0.999916 0.000810
vn -0.012951 0.999916 0.000810
vn -0.012951 0.999916 0.000810
vn 0.999999 0.000000 -0.001736
vn -0.012951 -0.999916 0.000810
vn -0.012951 -0.999916 0.000810
vn -0.012951 -0.999916 0.000810
vn -0.012951 -0.999916 0.000810
# 44 normals

usemtl default
f 1/1/1 2/2/1 3/3/1 4/4/1
f 5/5/2 6/6/3 7/7/2 8/8/2
f 2/9/4 8/10/4 7/11/5 3/12/5
f 9/13/6 10/14/6 11/15/6 12/16/6
f 13/17/7 14/18/7 15/19/7 16/20/7
f 17/21/8 18/22/8 19/23/8 20/24/8
f 17/25/1 21/26/1 1/1/1 4/4/1
f 3/27/8 7/28/8 6/29/8 4/30/8
f 4/30/8 6/29/8 18/22/8 17/21/8
f 13/31/1 21/26/1 17/25/1 20/32/1
f 15/33/3 14/34/3 22/35/3 23/36/3
f 16/37/6 15/38/6 23/39/6 24/40/6
f 9/41/1 12/42/1 2/2/1 1/1/1
f 11/43/2 10/44/3 5/5/2 8/8/2
f 12/45/9 11/46/10 8/10/4 2/9/4
f 20/47/7 19/48/7 14/18/7 13/17/7
f 18/49/3 6/6/3 5/5/2 22/35/3
f 16/50/1 24/51/1 21/26/1 13/31/1
f 18/49/3 22/35/3 14/34/3 19/52/3
f 5/53/11 10/54/11 25/55/11 26/56/11
f 10/54/7 9/57/7 27/58/7 25/55/7
f 9/57/12 1/59/12 28/60/12 27/58/12
f 1/61/6 21/62/6 29/63/6 28/64/6
f 21/65/13 24/66/13 30/67/13 29/68/13
f 24/66/13 23/69/5 31/70/5 30/67/13
f 23/69/5 22/71/5 32/72/5 31/70/5
f 22/73/6 5/74/6 26/75/6 32/76/6

g hojas

# 0 positions

# 0 texture coordinates

# 0 normals

usemtl default
f 33/77/14 34/78/15 35/79/16 36/80/17
f 37/81/18 33/82/18 36/83/18 38/84/18
f 37/85/19 38/86/20 39/87/21 40/88/22

g folder2

# 0 positions

# 0 texture coordinates

# 0 normals

usemtl default
f 41/89/23 42/90/23 43/91/23 44/92/23
f 45/93/24 46/94/25 47/95/24 48/96/24
f 42/97/26 48/98/26 47/99/27 43/100/27
f 49/101/28 50/102/28 51/103/28 52/104/28
f 53/105/29 54/106/29 55/107/29 56/108/29
f 57/109/30 58/110/30 59/111/30 60/112/30
f 57/113/23 61/114/23 41/89/23 44/92/23
f 43/115/30 47/116/30 46/117/30 44/118/30
f 44/118/30 46/117/30 58/110/30 57/109/30
f 53/119/23 61/114/23 57/113/23 60/120/23
f 55/121/25 54/122/25 62/123/25 63/124/25
f 56/125/28 55/126/28 63/127/28 64/128/28
f 49/129/23 52/130/23 42/90/23 41/89/23
f 51/131/24 50/132/25 45/93/24 48/96/24
f 52/133/31 51/134/32 48/98/26 42/97/26
f 60/135/29 59/136/29 54/106/29 53/105/29
f 58/137/25 46/94/25 45/93/24 62/123/25
f 56/138/23 64/139/23 61/114/23 53/119/23
f 58/137/25 62/123/25 54/122/25 59/140/25
f 45/141/33 50/142/33 65/143/33 66/144/33
f 50/142/29 49/145/29 67/146/29 65/143/29
f 49/145/34 41/147/34 68/148/34 67/146/34
f 41/149/28 61/150/28 69/151/28 68/152/28
f 61/153/35 64/154/35 70/155/35 69/156/35
f 64/154/35 63/157/27 71/158/27 70/155/35
f 63/157/27 62/159/27 72/160/27 71/158/27
f 62/161/28 45/162/28 66/163/28 72/164/28

g hojas2

# 0 positions

# 0 texture coordinates

# 0 normals

usemtl default
f 73/165/36 74/166/37 75/167/38 76/168/39
f 77/169/40 73/170/40 76/171/40 78/172/40
f 77/173/41 78/174/42 79/175/43 80/176/44

# 60 faces
