# Wavefront Obj file
# 
# verts: 38 uv-s: 76
mtllib tubo_15.mtl

g Cylinder001

v 0.000000 0.000000 0.000000
v 0.053600 0.045000 0.000000
v 0.065800 0.023900 0.000000
v 0.070000 0.000000 0.000000
v 0.012200 0.068900 0.000000
v 0.035000 0.060600 0.000000
v -0.035000 0.060600 0.000000
v -0.012200 0.068900 0.000000
v -0.065800 0.023900 0.000000
v -0.053600 0.045000 0.000000
v -0.065800 -0.023900 0.000000
v -0.070000 0.000000 0.000000
v -0.035000 -0.060600 0.000000
v -0.053600 -0.045000 0.000000
v 0.012200 -0.068900 0.000000
v -0.012200 -0.068900 0.000000
v 0.053600 -0.045000 0.000000
v 0.035000 -0.060600 0.000000
v 0.065800 -0.023900 0.000000
v 0.065800 0.023900 0.389400
v 0.070000 0.000000 0.389400
v 0.053600 0.045000 0.389400
v 0.035000 0.060600 0.389400
v 0.012200 0.068900 0.389400
v -0.012200 0.068900 0.389400
v -0.035000 0.060600 0.389400
v -0.053600 0.045000 0.389400
v -0.065800 0.023900 0.389400
v -0.070000 0.000000 0.389400
v -0.065800 -0.023900 0.389400
v -0.053600 -0.045000 0.389400
v -0.035000 -0.060600 0.389400
v -0.012200 -0.068900 0.389400
v 0.012200 -0.068900 0.389400
v 0.035000 -0.060600 0.389400
v 0.053600 -0.045000 0.389400
v 0.065800 -0.023900 0.389400
v 0.000000 0.000000 0.389400
# 38 positions

vt 0.858191 0.143884
vt 0.941070 0.242602
vt 0.902209 0.265072
vt 0.858191 0.272807
vt 0.985088 0.166353
vt 0.969801 0.208346
vt 0.969801 0.079423
vt 0.985088 0.121415
vt 0.902209 0.022697
vt 0.941070 0.045166
vt 0.814173 0.022697
vt 0.858191 0.014961
vt 0.746581 0.079423
vt 0.775312 0.045166
vt 0.731294 0.166354
vt 0.731294 0.121415
vt 0.775312 0.242602
vt 0.746581 0.208346
vt 0.814173 0.265072
vt 0.010001 0.363181
vt 0.010000 0.318488
vt 0.727178 0.318491
vt 0.727179 0.363183
vt 0.010000 0.273598
vt 0.727179 0.273601
vt 0.010000 0.228888
vt 0.727179 0.228891
vt 0.010000 0.184200
vt 0.727179 0.184203
vt 0.010004 0.990000
vt 0.010004 0.945061
vt 0.727182 0.945061
vt 0.727182 0.990000
vt 0.010004 0.900373
vt 0.727182 0.900373
vt 0.010004 0.855663
vt 0.727182 0.855663
vt 0.010004 0.810774
vt 0.727182 0.810774
vt 0.010004 0.766081
vt 0.727182 0.766081
vt 0.010004 0.721389
vt 0.727182 0.721389
vt 0.010004 0.676499
vt 0.727182 0.676500
vt 0.010003 0.631789
vt 0.727181 0.631789
vt 0.010003 0.587101
vt 0.727181 0.587101
vt 0.010003 0.542162
vt 0.727180 0.542163
vt 0.010002 0.497473
vt 0.727180 0.497475
vt 0.010002 0.452763
vt 0.727180 0.452765
vt 0.010001 0.407873
vt 0.727180 0.407875
vt 0.863103 0.728396
vt 0.907121 0.849584
vt 0.863103 0.857319
vt 0.819085 0.849584
vt 0.780224 0.827114
vt 0.751493 0.792858
vt 0.736206 0.750866
vt 0.736206 0.705927
vt 0.751493 0.663935
vt 0.780224 0.629679
vt 0.819085 0.607209
vt 0.863103 0.599474
vt 0.907121 0.607209
vt 0.945982 0.629678
vt 0.974713 0.663935
vt 0.990000 0.705927
vt 0.990000 0.750866
vt 0.974713 0.792858
vt 0.945982 0.827115
# 76 texture coordinates

vn 0.000000 0.000000 -1.000000
vn 1.000000 0.000000 0.000000
vn 0.939682 0.342048 0.000000
vn 0.765766 0.643119 0.000000
vn 0.499926 0.866068 0.000000
vn 0.173676 0.984803 0.000000
vn -0.173676 0.984803 0.000000
vn -0.499926 0.866068 0.000000
vn -0.765766 0.643119 0.000000
vn -0.939682 0.342048 0.000000
vn -1.000000 0.000000 0.000000
vn -0.939682 -0.342048 0.000000
vn -0.765766 -0.643119 0.000000
vn -0.499926 -0.866068 0.000000
vn -0.173676 -0.984803 0.000000
vn 0.173676 -0.984803 0.000000
vn 0.499926 -0.866068 0.000000
vn 0.765766 -0.643119 0.000000
vn 0.939682 -0.342048 0.000000
vn 0.000000 0.000000 1.000000
# 20 normals

usemtl default
f 1/1/1 2/2/1 3/3/1 4/4/1
f 1/1/1 5/5/1 6/6/1 2/2/1
f 1/1/1 7/7/1 8/8/1 5/5/1
f 1/1/1 9/9/1 10/10/1 7/7/1
f 1/1/1 11/11/1 12/12/1 9/9/1
f 1/1/1 13/13/1 14/14/1 11/11/1
f 1/1/1 15/15/1 16/16/1 13/13/1
f 1/1/1 17/17/1 18/18/1 15/15/1
f 1/1/1 4/4/1 19/19/1 17/17/1
f 4/20/2 3/21/3 20/22/3 21/23/2
f 3/21/3 2/24/4 22/25/4 20/22/3
f 2/24/4 6/26/5 23/27/5 22/25/4
f 6/26/5 5/28/6 24/29/6 23/27/5
f 5/30/6 8/31/7 25/32/7 24/33/6
f 8/31/7 7/34/8 26/35/8 25/32/7
f 7/34/8 10/36/9 27/37/9 26/35/8
f 10/36/9 9/38/10 28/39/10 27/37/9
f 9/38/10 12/40/11 29/41/11 28/39/10
f 12/40/11 11/42/12 30/43/12 29/41/11
f 11/42/12 14/44/13 31/45/13 30/43/12
f 14/44/13 13/46/14 32/47/14 31/45/13
f 13/46/14 16/48/15 33/49/15 32/47/14
f 16/48/15 15/50/16 34/51/16 33/49/15
f 15/50/16 18/52/17 35/53/17 34/51/16
f 18/52/17 17/54/18 36/55/18 35/53/17
f 17/54/18 19/56/19 37/57/19 36/55/18
f 19/56/19 4/20/2 21/23/2 37/57/19
f 38/58/20 37/59/20 21/60/20 20/61/20
f 38/58/20 20/61/20 22/62/20 23/63/20
f 38/58/20 23/63/20 24/64/20 25/65/20
f 38/58/20 25/65/20 26/66/20 27/67/20
f 38/58/20 27/67/20 28/68/20 29/69/20
f 38/58/20 29/69/20 30/70/20 31/71/20
f 38/58/20 31/71/20 32/72/20 33/73/20
f 38/58/20 33/73/20 34/74/20 35/75/20
f 38/58/20 35/75/20 36/76/20 37/59/20

# 36 faces
